<svg width="256" height="256" xmlns="http://www.w3.org/2000/svg" fill-opacity="0" stroke="black" stroke-width="3" ><path d="M97 31 175 61 195 78 203 85 207 90 209 93 211 97 213 102 215 108 223 151 223 162 213 179 208 184 194 196 189 200 181 206 172 208 91 214 90 214 65 179 58 167 50 153 49 148 48 140 48 128 51 111 53 107 92 31 97 31 "/><path d="M45 19 49 22 52 26 53 28 55 40 55 41 54 44 26 85 19 92 16 94 11 96 0 94 0 21 28 19 45 19 "/><path d="M155 0 153 2 134 19 118 20 97 12 88 3 86 0 155 0 "/></svg>