<svg width="256" height="256" xmlns="http://www.w3.org/2000/svg" fill-opacity="0" stroke="black" stroke-width="3" ><path d="M113 50 120 51 129 53 143 59 149 64 157 72 181 99 183 103 187 112 191 126 191 143 187 164 185 169 182 174 179 178 170 189 167 192 157 200 153 203 151 204 135 211 130 212 118 214 110 215 98 214 89 212 84 210 72 204 59 194 54 189 44 174 41 166 37 143 38 139 69 74 70 72 73 67 76 63 80 59 85 56 87 55 93 53 100 51 112 50 113 50 "/><path d="M249 0 249 62 241 63 193 63 189 62 167 47 163 44 153 30 152 28 151 23 151 21 156 4 158 0 249 0 "/><path d="M17 67 20 69 27 74 33 82 35 85 37 91 37 94 35 109 31 116 21 126 3 135 0 135 0 58 17 67 "/><path d="M138 0 138 2 137 4 133 10 127 16 115 22 102 22 77 13 70 0 138 0 "/><path d="M249 149 240 145 234 139 230 134 227 118 244 91 249 87 249 149 "/></svg>