<svg width="256" height="256" xmlns="http://www.w3.org/2000/svg" fill-opacity="0" stroke="black" stroke-width="3" ><path d="M118 32 164 35 172 40 198 57 203 62 207 67 211 74 217 86 218 89 223 142 223 143 222 149 221 153 219 158 212 174 211 176 209 179 206 183 194 195 192 196 138 203 135 203 104 201 99 200 46 189 38 185 35 183 20 169 19 167 16 160 10 115 10 110 11 103 12 98 16 87 17 85 18 84 117 32 118 32 "/><path d="M180 205 200 213 203 215 211 223 219 238 220 241 220 243 219 249 139 249 159 219 167 210 170 207 173 205 180 205 "/><path d="M69 204 79 208 81 209 85 212 89 216 93 224 94 231 94 233 93 239 91 244 90 246 88 249 42 249 39 243 37 237 37 231 38 222 44 213 45 212 51 208 57 205 60 204 69 204 "/></svg>