<svg width="256" height="256" xmlns="http://www.w3.org/2000/svg" fill-opacity="0" stroke="black" stroke-width="3" ><path d="M85 33 161 47 179 60 185 66 191 73 193 81 208 145 208 146 205 153 117 230 102 233 91 233 86 232 76 227 55 206 54 204 49 62 50 58 52 54 62 46 74 38 79 35 81 34 84 33 85 33 "/><path d="M200 189 211 191 221 195 249 225 249 229 244 249 137 249 136 248 135 243 135 231 137 226 142 217 144 214 153 207 193 189 200 189 "/><path d="M132 0 132 4 130 7 124 15 120 17 105 23 86 23 84 21 82 17 82 0 132 0 "/><path d="M242 0 242 1 241 3 239 6 226 19 216 21 208 21 196 19 194 18 193 17 183 3 181 0 242 0 "/></svg>