<svg width="256" height="256" xmlns="http://www.w3.org/2000/svg" fill-opacity="0" stroke="black" stroke-width="3" ><path d="M120 27 130 29 137 31 150 37 161 43 171 49 183 61 195 77 197 85 197 103 195 141 192 159 187 169 184 174 176 182 169 187 166 189 164 190 144 199 141 200 133 202 124 203 108 204 103 204 98 203 94 202 81 196 77 194 64 186 55 177 42 159 34 140 30 124 29 99 30 96 34 85 44 67 49 59 61 45 63 43 72 38 78 35 89 31 95 29 106 27 120 27 "/><path d="M42 0 51 1 54 3 56 5 57 13 57 15 56 27 55 29 12 113 11 114 3 120 0 122 0 0 42 0 "/><path d="M227 111 231 113 245 121 249 125 249 190 247 199 246 200 237 206 236 206 231 202 223 194 209 178 207 175 206 173 204 165 203 154 203 153 204 146 205 143 208 137 220 115 222 113 226 111 227 111 "/><path d="M210 0 206 9 204 13 197 25 196 26 186 28 182 28 157 17 154 15 140 4 140 0 210 0 "/><path d="M190 224 196 227 210 241 212 249 156 249 150 234 151 232 189 224 190 224 "/><path d="M135 230 143 233 150 238 143 249 108 249 108 248 110 241 113 238 123 232 125 231 129 230 135 230 "/></svg>