<svg width="256" height="256" xmlns="http://www.w3.org/2000/svg" fill-opacity="0" stroke="black" stroke-width="3" ><path d="M141 60 149 61 202 76 207 79 220 87 221 96 221 99 213 129 198 169 197 171 195 174 176 193 168 200 158 207 144 212 130 215 129 215 98 212 89 211 78 205 43 170 39 164 37 160 30 115 29 105 29 103 30 99 36 87 44 74 54 68 63 64 82 62 103 60 141 60 "/><path d="M249 0 249 15 245 23 227 36 225 37 198 45 183 48 149 42 141 30 131 12 131 5 138 0 249 0 "/><path d="M1 184 7 192 18 210 19 212 30 238 30 240 29 246 28 248 27 249 0 249 0 184 1 184 "/><path d="M2 31 8 36 15 47 15 65 14 69 13 71 10 76 8 79 2 85 0 86 0 30 2 31 "/></svg>