<svg width="256" height="256" xmlns="http://www.w3.org/2000/svg" fill-opacity="0" stroke="black" stroke-width="3" ><path d="M124 15 133 16 190 31 191 32 216 62 220 67 222 70 230 87 233 96 235 109 235 120 231 150 224 165 217 175 206 186 197 193 185 201 183 202 163 209 157 211 150 213 146 214 125 219 111 222 92 222 89 221 76 216 63 208 57 203 46 193 39 184 32 174 23 153 22 150 19 139 18 134 15 113 15 112 19 97 22 86 25 81 34 68 43 59 98 23 107 18 110 17 123 15 124 15 "/><path d="M95 0 95 5 79 24 66 37 54 47 40 52 24 57 9 57 2 56 0 55 0 0 95 0 "/><path d="M238 197 244 204 249 218 249 241 231 249 177 249 173 239 173 236 175 226 230 196 236 195 238 197 "/><path d="M70 234 77 235 90 238 94 240 97 242 97 243 93 249 42 249 42 248 44 243 47 240 54 236 61 234 70 234 "/></svg>