<svg width="256" height="256" xmlns="http://www.w3.org/2000/svg" fill-opacity="0" stroke="black" stroke-width="3" ><path d="M136 52 149 53 165 63 169 66 171 68 175 78 186 107 187 159 187 167 181 182 178 188 175 192 170 196 167 198 165 199 162 200 150 200 117 188 90 178 88 177 82 171 67 131 66 128 65 124 66 103 67 92 68 88 74 77 76 75 86 70 117 56 127 53 135 52 136 52 "/><path d="M89 188 100 189 143 211 149 215 151 217 153 220 155 225 157 238 157 242 155 249 70 249 68 245 64 236 62 229 62 219 64 208 66 198 67 195 70 191 71 190 73 189 78 188 89 188 "/><path d="M133 0 133 6 132 14 128 25 125 30 121 35 114 40 105 45 101 47 96 48 85 50 58 54 56 54 52 52 42 44 40 36 40 35 46 16 52 0 133 0 "/><path d="M230 141 239 143 242 144 249 150 249 178 244 227 238 236 234 240 229 242 228 242 224 241 211 235 209 234 207 231 204 226 200 219 194 205 194 188 195 175 229 141 230 141 "/><path d="M248 11 249 12 249 68 246 68 202 62 196 55 195 52 195 46 201 35 208 27 245 11 248 11 "/></svg>