<svg width="256" height="256" xmlns="http://www.w3.org/2000/svg" fill-opacity="0" stroke="black" stroke-width="3" ><path d="M128 30 161 36 171 40 180 44 187 48 191 51 192 52 198 59 215 85 225 104 226 109 227 115 227 122 226 127 220 156 216 164 208 176 204 181 194 191 186 198 182 200 175 203 166 206 149 211 137 212 125 212 116 211 109 210 100 207 95 205 93 204 82 198 79 196 73 191 69 187 59 174 56 168 52 157 49 148 48 144 47 139 46 128 46 114 47 99 49 93 52 86 60 72 72 56 79 48 82 45 90 39 99 33 106 31 127 30 128 30 "/></svg>