<svg width="256" height="256" xmlns="http://www.w3.org/2000/svg" fill-opacity="0" stroke="black" stroke-width="3" ><path d="M161 12 203 80 206 85 207 87 210 95 212 101 213 105 213 106 204 150 134 200 129 203 55 207 53 207 47 206 44 205 42 203 41 200 41 199 43 139 46 71 49 62 55 51 58 48 76 37 136 10 145 7 161 12 "/><path d="M204 180 231 186 247 190 249 192 249 240 243 241 192 249 158 249 155 240 152 220 152 219 155 214 166 200 167 199 177 193 203 180 204 180 "/><path d="M249 0 249 85 234 87 229 86 217 83 178 19 177 17 174 8 173 0 249 0 "/><path d="M100 210 109 212 114 216 115 217 116 219 118 238 118 239 117 249 31 249 30 247 29 244 31 234 35 229 39 225 50 218 54 216 70 212 79 210 100 210 "/><path d="M15 98 22 100 30 105 37 115 43 125 36 142 25 153 17 158 9 160 0 161 0 108 6 101 7 100 9 99 14 98 15 98 "/><path d="M110 0 102 5 75 20 68 23 55 26 36 26 23 21 15 15 13 12 8 3 7 0 110 0 "/></svg>