<svg width="256" height="256" xmlns="http://www.w3.org/2000/svg" fill-opacity="0" stroke="black" stroke-width="3" ><path d="M137 43 140 44 179 62 182 64 188 82 190 89 199 129 199 132 198 136 197 139 190 148 171 172 162 182 161 183 154 188 151 190 144 192 132 194 129 194 114 191 103 187 96 184 94 183 85 177 82 174 68 156 57 137 56 129 55 117 55 106 56 104 76 75 93 56 97 53 106 50 128 43 137 43 "/><path d="M11 136 35 149 42 154 49 161 64 178 74 190 78 195 82 203 87 217 88 222 90 237 90 245 88 249 0 249 0 134 11 136 "/><path d="M118 0 112 10 104 21 98 28 95 31 90 35 82 41 78 43 72 43 54 41 31 37 24 35 8 27 5 25 2 16 1 4 1 3 3 0 118 0 "/><path d="M179 0 184 5 185 7 183 20 179 31 178 32 171 33 165 33 162 32 160 31 153 25 146 13 145 11 142 2 142 0 179 0 "/><path d="M11 65 16 66 21 68 26 72 32 78 28 89 26 94 20 100 5 109 3 109 0 100 0 67 9 65 11 65 "/></svg>