<svg width="256" height="256" xmlns="http://www.w3.org/2000/svg" fill-opacity="0" stroke="black" stroke-width="3" ><path d="M129 0 149 3 157 5 164 7 178 15 182 18 185 21 195 33 199 41 204 59 216 133 216 134 215 140 213 144 189 184 177 200 173 204 153 216 147 219 93 221 68 212 58 208 52 203 34 182 28 170 26 163 30 60 36 43 38 39 49 22 51 20 55 17 68 10 70 9 75 7 102 0 129 0 "/><path d="M73 216 78 217 82 218 86 221 105 240 105 249 38 249 37 246 37 241 41 228 42 226 45 223 48 221 52 219 57 217 60 216 73 216 "/></svg>