<svg width="256" height="256" xmlns="http://www.w3.org/2000/svg" fill-opacity="0" stroke="black" stroke-width="3" ><path d="M62 0 65 5 73 24 74 27 74 28 72 36 46 67 35 78 31 81 28 83 24 84 21 84 14 82 0 75 0 8 16 0 62 0 "/><path d="M125 26 134 27 150 29 166 33 169 34 178 38 183 43 187 49 188 51 71 195 69 196 58 199 56 199 52 195 50 192 40 170 36 149 36 126 38 109 39 101 40 97 42 92 43 90 54 72 63 58 69 50 73 45 78 40 85 36 94 32 119 26 125 26 "/><path d="M68 199 141 222 160 230 160 233 156 235 139 238 134 238 123 236 119 235 108 231 74 217 68 213 62 208 60 205 59 202 59 201 66 199 68 199 "/><path d="M249 165 249 211 243 216 241 214 239 211 234 196 233 192 233 191 234 185 235 182 236 180 240 174 243 170 248 165 249 165 "/></svg>