<svg width="256" height="256" xmlns="http://www.w3.org/2000/svg" fill-opacity="0" stroke="black" stroke-width="3" ><path d="M167 66 169 68 179 79 181 82 185 91 191 110 191 125 183 154 178 168 175 174 171 180 158 193 151 199 145 202 140 204 137 205 120 209 112 210 77 210 71 209 58 204 55 202 45 192 40 186 38 183 37 180 36 176 30 143 30 130 31 125 32 121 35 111 42 100 47 95 63 82 75 76 103 64 113 62 157 61 167 66 "/><path d="M249 118 249 180 246 184 244 186 237 192 211 207 206 209 197 209 172 203 171 202 171 200 173 192 197 132 200 127 201 126 216 121 233 118 249 118 "/><path d="M110 0 132 12 142 18 179 46 179 47 169 57 161 58 78 49 73 47 69 45 66 43 62 40 56 32 55 22 55 18 56 13 57 9 60 0 110 0 "/><path d="M221 48 232 50 241 52 245 54 249 57 249 84 246 90 245 91 240 94 234 97 231 98 226 99 220 99 217 98 212 93 204 83 201 79 197 71 197 62 198 59 200 56 202 54 217 48 221 48 "/><path d="M249 200 249 249 194 249 198 227 201 221 219 210 239 201 247 200 249 200 "/><path d="M249 0 249 43 246 44 233 46 225 46 216 40 212 36 209 32 207 29 205 24 204 20 202 7 202 3 203 0 249 0 "/></svg>