<svg width="256" height="256" xmlns="http://www.w3.org/2000/svg" fill-opacity="0" stroke="black" stroke-width="3" ><path d="M94 31 177 32 181 33 195 47 198 51 203 59 211 72 214 87 215 93 215 113 192 188 189 196 188 197 183 200 179 200 124 194 104 191 92 186 84 182 74 174 44 144 36 109 36 101 38 81 52 52 56 47 68 37 71 35 75 33 78 32 90 31 94 31 "/><path d="M3 141 15 146 33 158 41 165 47 173 59 193 59 194 57 207 55 211 21 236 19 236 0 235 0 140 3 141 "/><path d="M151 227 236 237 245 239 249 243 249 249 41 249 40 246 38 231 41 228 49 224 151 227 "/><path d="M1 27 5 28 7 29 20 37 23 39 29 45 34 55 34 57 33 60 23 89 18 101 17 103 14 108 7 115 0 120 0 27 1 27 "/><path d="M249 168 245 169 244 169 239 167 235 165 227 160 226 159 222 153 221 150 222 146 224 139 225 136 234 121 241 114 244 112 249 111 249 168 "/><path d="M249 224 248 224 244 222 238 216 236 213 233 208 231 203 231 201 234 192 236 188 245 179 249 177 249 224 "/></svg>