<svg width="256" height="256" xmlns="http://www.w3.org/2000/svg" fill-opacity="0" stroke="black" stroke-width="3" ><path d="M130 26 136 27 148 31 153 33 161 38 168 43 176 49 183 56 187 61 190 65 202 83 204 87 206 93 208 105 208 131 207 143 206 150 204 160 196 174 187 188 176 200 172 204 160 212 156 214 133 225 129 226 112 228 110 228 101 227 95 226 89 223 82 219 77 216 61 200 52 187 50 184 34 158 23 140 19 132 18 127 18 121 19 116 26 100 28 96 73 49 85 37 92 32 96 30 101 28 104 27 111 26 130 26 "/><path d="M14 183 22 184 25 185 31 188 32 189 38 196 47 207 50 214 52 220 53 226 53 230 52 236 49 242 47 245 46 246 42 249 0 249 0 187 8 183 14 183 "/><path d="M41 0 51 17 52 24 52 33 50 39 48 43 40 54 23 64 13 69 8 69 0 67 0 0 41 0 "/></svg>