<svg width="256" height="256" xmlns="http://www.w3.org/2000/svg" fill-opacity="0" stroke="black" stroke-width="3" ><path d="M82 0 167 76 169 78 179 90 184 97 189 105 191 113 197 143 192 155 184 169 178 179 175 183 169 188 160 194 143 200 11 198 2 197 1 196 0 191 0 0 82 0 "/><path d="M249 0 249 121 240 120 237 119 236 118 175 45 162 26 163 0 249 0 "/><path d="M83 209 87 210 126 220 134 225 137 242 132 249 2 249 0 245 0 239 6 230 12 222 24 213 56 208 83 209 "/><path d="M242 214 245 216 246 217 247 219 249 224 249 249 247 249 222 239 221 237 220 228 220 227 224 219 227 216 230 214 242 214 "/></svg>