<svg width="256" height="256" xmlns="http://www.w3.org/2000/svg" fill-opacity="0" stroke="black" stroke-width="3" ><path d="M183 0 197 3 209 7 217 15 225 24 231 33 242 55 244 61 246 82 246 95 237 154 234 162 233 164 225 175 222 179 209 192 181 208 173 210 171 210 155 208 140 206 133 205 131 204 128 202 87 172 72 157 64 145 50 108 49 98 49 94 50 91 54 81 82 16 86 8 90 2 92 0 183 0 "/><path d="M55 183 103 196 109 199 119 206 123 209 124 210 131 219 134 224 139 242 139 244 138 246 137 247 127 249 38 249 38 248 39 202 40 189 45 184 49 183 55 183 "/><path d="M39 125 43 127 47 130 52 135 54 138 57 152 57 154 55 162 54 165 46 173 43 175 37 177 28 177 24 175 21 173 15 166 13 163 10 156 9 146 9 144 11 138 15 133 18 130 27 125 39 125 "/></svg>