<svg width="256" height="256" xmlns="http://www.w3.org/2000/svg" fill-opacity="0" stroke="black" stroke-width="3" ><path d="M114 7 141 12 145 14 155 21 183 43 188 47 193 52 202 65 204 69 209 83 210 89 212 134 211 136 205 142 201 145 174 164 154 176 139 181 132 181 122 177 120 176 108 168 100 162 88 152 60 126 56 120 53 115 48 102 48 81 49 77 51 71 76 22 78 20 85 15 88 13 99 9 109 7 114 7 "/><path d="M8 136 50 146 56 149 64 157 66 161 69 170 69 173 68 176 66 180 65 181 14 197 1 199 0 199 0 137 4 136 8 136 "/><path d="M77 211 77 213 70 223 65 228 59 232 43 241 36 244 30 244 12 240 6 237 0 232 0 219 68 211 77 211 "/><path d="M249 157 249 185 245 190 238 198 236 200 228 201 227 201 225 199 222 189 222 185 224 178 226 173 236 163 239 161 241 160 248 157 249 157 "/><path d="M19 24 25 38 26 43 26 50 9 72 7 74 4 74 0 70 0 17 6 16 19 24 "/></svg>