<svg width="256" height="256" xmlns="http://www.w3.org/2000/svg" fill-opacity="0" stroke="black" stroke-width="3" ><path d="M188 0 190 1 196 7 202 17 212 45 214 51 214 53 212 76 211 78 207 82 150 137 136 144 132 145 108 146 107 146 104 145 89 138 86 135 82 130 44 62 44 42 51 27 66 8 67 7 72 3 79 0 188 0 "/><path d="M79 154 90 155 102 157 106 158 121 163 139 171 141 173 182 228 184 238 184 245 183 249 0 249 0 218 2 203 3 201 11 193 70 157 75 154 79 154 "/><path d="M249 90 249 230 236 230 217 228 206 224 196 220 182 208 173 199 165 185 157 168 157 153 158 150 160 145 168 129 175 122 185 113 190 109 203 100 217 92 221 91 236 89 248 88 249 90 "/><path d="M19 71 23 74 53 100 61 116 61 121 56 136 52 144 40 164 39 165 37 166 32 168 20 171 15 171 11 170 6 168 3 166 0 162 0 75 3 73 7 71 13 70 19 71 "/></svg>