<svg width="256" height="256" xmlns="http://www.w3.org/2000/svg" fill-opacity="0" stroke="black" stroke-width="3" ><path d="M130 57 143 58 148 59 156 61 159 62 170 68 175 71 180 75 186 81 192 89 195 94 199 102 199 109 197 238 196 243 194 249 124 249 52 150 49 144 48 139 47 133 47 132 48 124 53 107 61 84 62 82 81 74 120 59 123 58 127 57 130 57 "/><path d="M3 33 7 34 13 36 21 40 27 45 42 60 47 68 50 76 51 80 51 89 45 111 42 118 38 126 34 131 30 135 22 138 14 140 5 141 0 140 0 33 3 33 "/><path d="M67 185 73 187 75 189 87 203 90 208 97 224 98 230 98 234 94 249 50 249 41 204 41 202 43 196 44 194 48 190 51 188 54 187 66 185 67 185 "/></svg>