<svg width="256" height="256" xmlns="http://www.w3.org/2000/svg" fill-opacity="0" stroke="black" stroke-width="3" ><path d="M122 38 136 40 140 41 143 42 151 45 153 46 168 55 180 69 185 75 192 87 194 93 196 102 196 116 195 127 194 131 192 136 189 143 159 168 142 180 129 188 117 194 113 195 101 195 93 194 89 193 86 192 81 190 75 187 63 180 59 176 51 166 45 158 39 149 37 145 36 134 35 113 35 110 37 103 43 87 51 71 63 59 75 49 91 42 95 41 109 38 122 38 "/><path d="M24 219 28 221 33 225 34 226 44 237 47 245 48 248 48 249 0 249 0 245 3 232 4 229 5 227 14 221 19 219 24 219 "/></svg>