<svg width="256" height="256" xmlns="http://www.w3.org/2000/svg" fill-opacity="0" stroke="black" stroke-width="3" ><path d="M209 176 209 178 201 235 198 241 193 249 153 249 85 236 76 232 64 224 55 216 50 211 43 201 42 199 38 188 37 185 37 169 45 160 46 159 107 128 123 126 209 176 "/><path d="M249 0 249 26 245 32 240 37 222 47 218 49 213 50 208 50 174 39 171 38 168 36 164 30 160 22 153 3 152 0 249 0 "/><path d="M65 249 0 249 0 224 7 221 13 219 30 221 36 222 47 226 53 229 57 234 62 241 65 248 65 249 "/><path d="M199 93 209 95 212 97 215 102 217 106 219 121 220 137 220 141 219 150 214 167 213 170 211 174 210 172 209 169 204 147 202 138 201 129 198 93 199 93 "/></svg>