<svg width="256" height="256" xmlns="http://www.w3.org/2000/svg" fill-opacity="0" stroke="black" stroke-width="3" ><path d="M139 73 152 77 163 81 170 84 179 91 180 92 183 99 184 128 184 140 182 152 181 156 178 163 154 185 146 190 143 190 100 186 97 185 90 182 72 173 66 165 65 163 64 158 62 147 62 130 63 124 66 114 69 107 70 105 74 98 80 91 81 90 91 81 132 72 139 73 "/><path d="M3 91 7 94 10 98 24 119 29 139 29 155 28 162 13 194 12 196 8 200 4 203 3 203 0 183 0 91 3 91 "/><path d="M249 40 249 99 237 99 229 90 217 71 213 63 213 61 225 20 226 19 228 18 249 40 "/><path d="M74 21 84 26 117 44 112 59 110 60 104 62 82 67 71 59 69 57 69 40 70 35 73 21 74 21 "/></svg>