<svg width="256" height="256" xmlns="http://www.w3.org/2000/svg" fill-opacity="0" stroke="black" stroke-width="3" ><path d="M115 50 126 52 131 54 135 56 153 70 171 106 182 129 183 132 184 141 182 150 172 187 162 197 156 200 150 201 147 201 105 200 103 199 95 194 42 145 41 143 39 136 37 127 37 125 39 114 42 103 44 98 48 90 50 87 55 80 73 62 85 54 95 51 99 50 104 49 115 50 "/><path d="M227 0 246 3 249 4 249 83 242 88 241 88 220 78 210 71 206 63 200 43 198 30 201 19 202 16 208 8 214 3 221 0 227 0 "/><path d="M179 218 194 226 199 229 212 239 214 249 128 249 129 246 132 238 139 231 145 227 149 225 165 219 177 218 179 218 "/></svg>