<svg width="256" height="256" xmlns="http://www.w3.org/2000/svg" fill-opacity="0" stroke="black" stroke-width="3" ><path d="M127 3 147 7 175 23 199 46 208 55 214 64 217 69 221 78 227 93 229 100 232 120 233 127 233 129 231 141 227 156 226 159 217 181 215 184 197 208 185 217 179 221 171 226 161 230 143 236 135 238 129 239 118 240 106 240 96 238 88 236 81 234 76 232 67 228 63 226 53 220 35 207 31 203 15 186 12 182 10 179 9 177 5 165 3 158 0 139 0 71 6 53 9 49 20 37 34 23 44 15 48 12 51 10 55 8 60 6 72 4 86 3 127 3 "/><path d="M249 0 249 12 240 20 225 31 223 31 216 30 206 26 165 2 163 0 249 0 "/></svg>