<svg width="256" height="256" xmlns="http://www.w3.org/2000/svg" fill-opacity="0" stroke="black" stroke-width="3" ><path d="M248 0 221 129 219 137 217 141 215 144 208 153 192 172 183 181 178 185 175 187 147 201 134 205 126 207 117 208 108 208 88 206 59 202 36 180 34 178 32 175 28 168 26 162 26 154 42 50 44 42 46 36 56 26 69 17 83 9 108 0 248 0 "/><path d="M1 35 6 38 7 39 11 44 19 55 21 62 25 80 25 82 24 86 21 94 18 96 1 64 0 61 0 35 1 35 "/><path d="M4 79 5 80 16 101 14 116 7 148 6 148 0 140 0 76 4 79 "/></svg>