<svg width="256" height="256" xmlns="http://www.w3.org/2000/svg" fill-opacity="0" stroke="black" stroke-width="3" ><path d="M116 29 121 30 130 32 151 38 169 47 174 51 184 61 192 70 195 74 221 111 222 113 222 114 218 131 216 139 214 145 201 175 199 178 182 199 171 212 164 219 146 235 119 249 46 249 18 187 15 180 12 167 11 157 11 146 14 128 16 121 17 118 40 79 42 76 46 71 57 58 59 56 73 44 80 39 87 35 91 33 99 31 105 30 115 29 116 29 "/><path d="M249 146 249 212 238 216 234 217 230 217 215 215 207 211 204 207 203 205 201 199 201 186 204 176 209 169 212 166 221 159 229 154 233 152 245 147 248 146 249 146 "/><path d="M249 0 249 79 248 79 241 74 238 71 236 68 228 54 222 42 221 39 221 34 223 19 230 5 234 0 249 0 "/></svg>