<svg width="256" height="256" xmlns="http://www.w3.org/2000/svg" fill-opacity="0" stroke="black" stroke-width="3" ><path d="M89 0 121 1 144 9 154 13 185 32 186 33 201 54 215 79 215 101 209 146 207 148 164 166 142 163 112 155 89 139 88 138 85 131 80 119 74 104 73 101 72 88 72 87 77 1 78 0 89 0 "/><path d="M74 157 148 168 160 172 164 174 167 176 171 180 174 184 188 205 189 207 192 219 193 224 193 230 192 233 191 235 190 236 172 249 38 249 28 245 26 242 25 240 25 238 28 210 31 189 34 179 36 176 39 173 53 163 57 161 67 158 71 157 74 157 "/><path d="M249 0 249 59 248 60 236 54 230 48 216 28 211 9 212 8 225 0 249 0 "/></svg>