<svg width="256" height="256" xmlns="http://www.w3.org/2000/svg" fill-opacity="0" stroke="black" stroke-width="3" ><path d="M131 28 137 29 158 33 162 35 177 43 197 57 211 71 215 78 217 82 225 100 229 113 229 136 227 146 221 160 219 164 211 176 205 184 200 190 193 198 189 202 171 218 163 225 157 228 145 231 132 233 122 234 110 234 108 233 53 171 37 133 28 91 28 87 32 79 59 52 67 45 70 43 74 41 88 35 97 32 113 28 131 28 "/><path d="M249 249 196 249 194 246 190 229 190 227 194 215 202 202 207 195 235 156 242 149 249 145 249 249 "/><path d="M22 222 43 225 46 227 63 240 65 242 65 249 0 249 0 227 11 223 17 222 22 222 "/><path d="M249 0 249 45 235 38 228 32 227 31 224 27 219 19 216 12 216 0 249 0 "/></svg>