<svg width="256" height="256" xmlns="http://www.w3.org/2000/svg" fill-opacity="0" stroke="black" stroke-width="3" ><path d="M144 42 156 46 167 51 177 56 182 60 192 70 195 74 198 80 206 103 208 109 210 118 210 136 208 146 205 152 200 160 196 166 191 172 184 180 182 182 169 192 164 194 122 204 110 204 101 200 89 194 78 187 65 174 55 155 51 145 50 137 50 116 51 112 53 106 54 104 58 97 60 94 72 79 83 68 113 45 123 43 129 42 144 42 "/><path d="M233 0 233 1 214 28 208 36 204 38 201 38 186 36 169 31 164 29 149 14 145 7 145 0 233 0 "/><path d="M10 0 45 23 49 26 55 32 57 35 61 43 62 46 63 53 63 54 62 57 60 62 56 68 54 70 38 79 32 82 25 84 18 84 4 82 0 78 0 9 5 0 10 0 "/><path d="M237 23 249 25 249 108 246 109 243 109 235 103 232 100 227 93 225 90 221 80 219 73 219 68 221 54 230 34 233 28 236 23 237 23 "/></svg>