<svg width="256" height="256" xmlns="http://www.w3.org/2000/svg" fill-opacity="0" stroke="black" stroke-width="3" ><path d="M157 18 173 20 180 23 188 27 191 29 202 38 213 48 217 52 222 58 228 66 232 74 242 96 244 101 246 113 246 154 245 159 244 162 242 166 230 184 220 195 155 219 152 220 146 220 131 219 120 216 99 207 95 205 80 194 77 191 67 179 61 171 53 158 47 147 45 143 44 140 39 122 38 118 37 112 37 88 39 81 41 75 45 64 52 50 55 46 61 40 69 35 71 34 82 30 85 29 105 24 141 18 157 18 "/></svg>