<svg width="256" height="256" xmlns="http://www.w3.org/2000/svg" fill-opacity="0" stroke="black" stroke-width="3" ><path d="M116 60 122 62 129 65 136 69 138 71 158 107 161 116 165 130 167 148 167 149 166 154 164 159 158 168 147 181 135 194 134 195 118 204 114 206 109 208 93 213 92 213 74 211 68 209 60 205 57 203 50 198 44 192 37 184 32 178 29 174 20 157 19 154 18 150 17 142 17 136 18 129 35 97 74 63 91 61 100 60 116 60 "/><path d="M205 16 220 24 228 29 232 32 233 33 234 35 235 38 236 45 236 61 235 65 234 67 220 86 216 90 195 91 191 88 176 75 165 64 159 47 159 39 163 29 169 21 182 17 193 16 205 16 "/><path d="M240 199 248 210 249 217 249 243 248 249 154 249 154 246 158 236 159 234 220 203 225 201 237 199 240 199 "/><path d="M61 0 61 2 59 12 38 29 29 36 26 37 20 38 9 38 3 35 1 33 0 31 0 0 61 0 "/></svg>