<svg width="256" height="256" xmlns="http://www.w3.org/2000/svg" fill-opacity="0" stroke="black" stroke-width="3" ><path d="M142 41 153 42 170 44 188 57 192 60 197 66 201 74 203 79 206 88 208 96 215 132 215 134 211 147 210 150 197 178 196 179 180 190 168 198 166 199 150 206 147 207 140 208 137 208 110 203 105 201 89 193 78 185 68 177 54 161 48 150 44 132 43 119 43 109 44 95 45 92 54 72 56 70 67 61 77 54 97 46 105 43 110 42 116 41 142 41 "/><path d="M91 202 143 212 154 216 158 218 165 224 171 230 175 235 179 241 183 249 67 249 82 205 88 202 91 202 "/><path d="M249 0 249 97 239 94 234 89 231 83 220 47 219 43 219 0 249 0 "/><path d="M240 225 244 228 249 232 249 249 204 249 203 247 203 245 205 240 207 237 210 233 211 232 219 227 224 225 231 223 240 225 "/><path d="M14 168 19 170 22 175 22 176 17 187 10 197 6 201 2 204 0 205 0 169 2 168 14 168 "/></svg>