<svg width="256" height="256" xmlns="http://www.w3.org/2000/svg" fill-opacity="0" stroke="black" stroke-width="3" ><path d="M113 72 123 74 156 86 162 92 166 99 168 103 169 110 172 139 172 147 171 154 169 156 131 191 80 212 57 211 42 205 35 202 33 201 27 195 25 191 16 171 16 168 45 105 48 99 57 88 67 80 75 76 87 72 113 72 "/><path d="M217 189 240 193 244 194 249 196 249 249 213 249 204 202 204 200 206 193 208 190 209 189 217 189 "/><path d="M2 70 8 73 14 78 16 80 21 88 22 90 24 98 25 112 25 113 24 123 22 132 21 135 18 140 6 154 4 155 1 156 0 156 0 70 2 70 "/><path d="M155 218 176 221 178 222 195 232 199 236 210 249 131 249 131 248 141 227 143 223 145 221 148 219 153 218 155 218 "/><path d="M66 0 68 12 67 15 66 17 53 31 50 34 47 36 37 41 34 41 28 39 24 37 22 35 22 34 41 3 42 2 56 0 66 0 "/></svg>