<svg width="256" height="256" xmlns="http://www.w3.org/2000/svg" fill-opacity="0" stroke="black" stroke-width="3" ><path d="M200 63 217 91 221 103 222 111 222 115 221 129 219 134 212 144 206 150 188 164 178 170 168 174 156 178 152 179 106 188 95 189 94 189 88 188 83 187 65 183 50 178 48 177 39 168 37 165 34 159 30 150 28 140 26 123 26 118 31 102 32 101 37 99 138 64 185 48 200 63 "/><path d="M227 174 235 179 237 181 249 200 249 249 82 249 80 248 77 246 75 244 75 243 77 232 84 211 89 206 106 198 187 175 194 174 225 173 227 174 "/><path d="M40 213 39 218 36 224 31 230 27 234 21 238 19 239 8 241 7 241 0 240 0 170 2 169 5 169 9 170 16 172 22 175 29 179 31 181 36 188 38 193 40 212 40 213 "/></svg>