<svg width="256" height="256" xmlns="http://www.w3.org/2000/svg" fill-opacity="0" stroke="black" stroke-width="3" ><path d="M119 56 137 59 141 60 147 62 151 64 154 66 167 76 170 79 181 103 187 146 178 170 170 182 166 186 162 188 153 190 106 199 95 199 92 198 90 197 79 191 72 187 61 180 49 169 45 165 34 134 34 133 38 108 39 105 41 100 43 96 48 89 55 82 79 65 82 63 84 62 104 57 117 56 119 56 "/><path d="M168 196 181 204 184 206 191 220 193 225 194 229 194 230 191 244 187 249 113 249 108 244 107 242 106 239 106 237 111 221 117 210 121 205 124 202 133 195 160 192 168 196 "/><path d="M245 85 249 87 249 196 244 196 233 193 231 191 225 182 202 123 202 122 212 106 228 91 234 87 236 86 239 85 245 85 "/><path d="M12 120 25 134 27 137 35 151 34 155 29 173 26 179 20 185 0 186 0 116 12 120 "/><path d="M46 222 57 224 80 230 92 242 95 249 9 249 12 242 21 229 24 226 32 223 42 222 46 222 "/></svg>