<svg width="256" height="256" xmlns="http://www.w3.org/2000/svg" fill-opacity="0" stroke="black" stroke-width="3" ><path d="M110 38 121 41 176 71 177 72 178 74 179 77 189 113 191 124 191 134 190 142 189 144 173 174 158 189 151 194 145 197 141 198 136 198 101 191 72 173 68 169 59 156 57 151 52 135 51 131 51 119 54 103 56 96 63 85 102 43 105 40 108 38 110 38 "/><path d="M52 0 62 3 71 9 75 13 76 15 79 22 79 26 78 32 76 36 74 39 72 41 61 50 58 52 52 55 45 58 42 59 31 59 25 58 22 57 14 53 8 47 5 42 4 40 3 37 0 9 0 0 52 0 "/><path d="M240 23 249 29 249 124 242 127 238 128 231 128 225 126 223 125 220 123 216 119 211 113 208 105 207 102 206 98 204 78 204 75 208 46 209 43 211 40 214 36 218 33 224 29 229 26 237 23 240 23 "/><path d="M229 164 241 165 245 166 248 167 249 168 249 217 248 218 227 223 223 223 188 207 183 204 182 202 180 197 180 195 181 191 184 183 187 176 188 174 192 170 196 168 202 166 208 165 215 164 229 164 "/><path d="M48 203 65 206 69 208 74 212 79 217 97 244 99 248 99 249 37 249 28 239 26 236 26 235 27 232 39 209 41 206 44 203 48 203 "/></svg>