<svg width="256" height="256" xmlns="http://www.w3.org/2000/svg" fill-opacity="0" stroke="black" stroke-width="3" ><path d="M95 36 98 37 103 39 112 43 126 50 129 53 141 66 143 69 151 84 153 88 159 119 160 127 160 130 159 137 158 140 153 149 144 164 141 168 128 178 123 181 114 186 108 187 98 188 95 188 84 184 63 170 50 155 40 142 36 135 35 133 33 126 31 118 30 113 30 106 32 92 35 77 37 73 40 68 43 64 50 55 62 45 70 39 74 37 80 36 95 36 "/><path d="M221 13 229 14 236 15 249 18 249 135 234 135 193 118 189 116 184 112 182 110 177 100 173 65 174 55 178 45 190 27 194 23 200 19 208 15 220 13 221 13 "/><path d="M231 158 238 163 243 167 244 168 245 170 246 174 246 198 245 201 241 209 236 215 233 218 222 227 220 228 208 228 202 227 198 226 194 224 180 216 177 212 175 208 169 195 168 191 170 181 179 175 222 158 227 157 231 158 "/><path d="M129 211 134 212 136 213 145 219 173 247 173 249 75 249 74 248 74 247 75 243 78 239 100 215 101 214 124 211 129 211 "/><path d="M39 216 44 218 50 222 54 226 56 229 57 232 59 239 59 241 58 249 0 249 0 245 4 229 7 226 14 221 18 219 35 216 39 216 "/></svg>