<svg width="256" height="256" xmlns="http://www.w3.org/2000/svg" fill-opacity="0" stroke="black" stroke-width="3" ><path d="M88 34 159 46 161 47 167 51 203 81 204 82 211 90 220 136 220 142 219 152 216 177 214 181 209 189 198 202 197 203 175 217 171 219 139 221 121 221 109 217 107 216 102 213 99 211 83 199 50 173 49 172 41 159 36 150 30 118 29 109 29 107 32 92 35 84 57 58 78 37 80 36 86 34 88 34 "/><path d="M69 0 69 2 67 9 65 15 64 17 61 22 47 43 34 58 32 60 16 72 1 77 0 77 0 0 69 0 "/><path d="M249 0 249 35 248 36 245 38 238 38 224 37 220 33 218 30 210 7 209 2 209 0 249 0 "/></svg>