<svg width="256" height="256" xmlns="http://www.w3.org/2000/svg" fill-opacity="0" stroke="black" stroke-width="3" ><path d="M132 54 184 66 186 67 187 68 232 121 232 127 231 138 229 145 227 149 223 156 217 164 183 207 169 213 164 215 158 217 150 218 144 218 133 217 124 213 97 193 69 156 64 146 62 139 61 130 61 105 62 101 70 89 79 77 82 74 88 69 92 66 104 58 106 57 114 54 132 54 "/><path d="M102 0 102 23 101 26 92 36 91 37 71 51 69 52 62 55 59 56 58 56 22 53 19 52 17 51 14 48 10 40 9 28 9 27 12 2 13 1 18 0 102 0 "/><path d="M220 191 244 195 245 196 249 202 249 249 218 249 205 246 204 245 203 243 198 230 197 227 198 224 206 202 208 198 216 192 218 191 220 191 "/><path d="M249 6 249 70 248 71 247 70 235 45 234 41 234 38 237 13 239 9 240 8 248 6 249 6 "/></svg>