<svg width="256" height="256" xmlns="http://www.w3.org/2000/svg" fill-opacity="0" stroke="black" stroke-width="3" ><path d="M147 42 159 44 166 46 180 53 184 56 194 66 200 75 204 82 210 93 214 102 218 112 220 121 223 139 223 154 222 162 220 171 214 189 212 194 206 204 203 208 199 213 194 219 190 223 186 226 180 229 167 235 162 237 156 239 137 243 123 243 114 241 111 240 95 233 70 219 61 207 55 198 49 188 47 181 45 173 45 147 47 133 51 116 52 112 53 109 55 104 61 92 66 84 71 77 84 63 91 56 97 52 105 48 111 46 137 42 147 42 "/><path d="M88 0 88 4 87 15 86 20 84 26 80 32 76 37 74 39 66 46 62 49 48 59 23 69 13 69 4 67 0 65 0 0 88 0 "/><path d="M47 77 49 78 24 169 20 177 16 181 14 182 11 183 0 183 0 86 45 77 47 77 "/></svg>