<svg width="256" height="256" xmlns="http://www.w3.org/2000/svg" fill-opacity="0" stroke="black" stroke-width="3" ><path d="M136 54 152 56 160 59 168 63 171 65 175 68 182 74 194 92 196 96 202 110 204 117 206 126 206 127 204 140 202 147 193 168 186 179 178 187 163 199 152 205 139 211 130 213 122 214 121 214 114 213 108 212 92 207 87 205 79 198 66 185 62 180 56 171 53 166 47 151 46 145 46 127 47 113 51 99 53 95 57 88 61 82 64 78 73 70 77 67 91 60 100 56 107 54 136 54 "/><path d="M23 0 42 28 43 39 43 40 36 55 28 67 8 75 4 76 3 76 0 63 0 0 23 0 "/></svg>