<svg width="256" height="256" xmlns="http://www.w3.org/2000/svg" fill-opacity="0" stroke="black" stroke-width="3" ><path d="M166 52 170 54 181 61 184 63 196 74 197 75 200 80 205 89 206 91 215 115 218 127 220 137 220 140 218 152 216 157 200 181 190 193 184 199 178 201 171 203 96 213 94 213 92 211 57 168 51 159 41 141 41 140 42 121 43 112 44 107 51 94 55 89 82 62 105 49 110 48 134 44 166 52 "/><path d="M249 0 249 115 247 115 235 106 232 103 224 92 223 90 216 70 213 61 211 51 210 39 212 30 224 4 226 0 249 0 "/><path d="M173 220 181 221 186 222 201 229 205 232 218 242 222 246 224 249 97 249 99 246 110 234 114 230 121 228 144 222 154 220 173 220 "/></svg>