<svg width="256" height="256" xmlns="http://www.w3.org/2000/svg" fill-opacity="0" stroke="black" stroke-width="3" ><path d="M133 26 151 29 156 31 170 37 174 40 184 49 191 56 198 65 202 71 205 78 216 111 216 123 214 129 212 134 210 138 176 190 172 195 167 200 159 206 147 212 131 216 107 216 84 214 71 208 59 200 55 196 52 192 50 189 41 174 36 162 31 147 30 137 30 121 31 114 32 111 53 69 57 65 91 37 95 35 102 32 110 29 114 28 119 27 125 26 133 26 "/><path d="M249 145 249 249 224 249 211 184 211 173 213 167 219 159 225 153 230 150 236 147 246 145 249 145 "/></svg>