<svg width="256" height="256" xmlns="http://www.w3.org/2000/svg" fill-opacity="0" stroke="black" stroke-width="3" ><path d="M121 46 137 47 146 48 149 49 170 60 173 62 174 63 189 80 201 104 202 107 205 121 206 130 206 133 205 144 203 150 199 161 193 173 185 183 171 195 163 199 158 201 150 204 144 206 124 211 110 211 103 210 99 209 88 205 68 195 61 189 51 177 48 173 42 161 39 153 37 125 37 116 38 112 42 97 48 87 50 84 61 72 74 62 87 53 91 51 96 49 118 46 121 46 "/><path d="M156 0 156 4 149 14 147 16 113 40 58 65 56 65 20 63 9 55 0 46 0 11 3 0 156 0 "/><path d="M25 182 31 185 35 188 41 193 43 197 65 248 65 249 0 249 0 185 9 182 25 182 "/><path d="M6 90 13 94 15 96 23 106 25 110 27 115 28 118 29 122 30 131 30 147 29 153 26 158 24 161 19 168 13 174 2 175 0 175 0 88 6 90 "/></svg>