<svg width="256" height="256" xmlns="http://www.w3.org/2000/svg" fill-opacity="0" stroke="black" stroke-width="3" ><path d="M131 76 181 99 182 100 206 128 206 139 194 155 192 157 182 162 179 163 142 174 95 182 89 182 82 180 73 176 68 172 67 171 64 167 61 158 56 116 56 113 58 104 69 85 70 84 88 71 131 76 "/><path d="M202 188 209 189 211 190 218 194 224 198 228 202 235 210 235 221 222 231 192 249 143 249 143 236 158 202 162 194 164 191 183 188 202 188 "/><path d="M30 16 42 26 44 28 58 48 58 54 42 103 38 106 27 108 21 107 13 102 7 97 3 91 0 86 0 72 3 41 5 34 7 30 23 17 26 16 30 16 "/><path d="M6 132 16 134 27 143 29 145 34 155 36 164 36 167 35 174 33 184 31 192 20 205 18 206 16 206 10 202 0 167 0 135 1 133 4 132 6 132 "/></svg>