<svg width="256" height="256" xmlns="http://www.w3.org/2000/svg" fill-opacity="0" stroke="black" stroke-width="3" ><path d="M176 98 190 103 199 110 200 112 209 152 208 164 206 173 205 176 200 185 196 189 160 211 154 213 149 213 141 209 139 207 136 203 135 201 135 198 139 162 168 100 169 99 175 98 176 98 "/><path d="M77 159 86 185 86 186 85 191 83 193 80 193 78 192 70 185 67 182 53 167 46 153 45 141 45 131 46 130 54 129 77 159 "/><path d="M249 207 248 206 245 202 239 191 233 177 234 165 243 136 244 134 246 131 249 130 249 207 "/><path d="M131 76 141 92 141 94 139 102 119 106 101 99 92 93 92 90 93 89 96 87 102 85 130 76 131 76 "/><path d="M116 170 118 172 133 192 134 194 131 205 126 211 125 211 114 210 98 207 97 206 97 196 112 172 113 171 115 170 116 170 "/></svg>