<svg width="256" height="256" xmlns="http://www.w3.org/2000/svg" fill-opacity="0" stroke="black" stroke-width="3" ><path d="M126 55 153 64 162 68 181 91 183 94 191 115 191 118 185 147 181 159 180 161 163 174 148 178 115 186 114 186 103 185 86 174 67 159 61 153 55 135 55 121 57 108 58 102 65 84 76 71 78 69 88 62 100 56 108 54 114 53 126 55 "/><path d="M15 79 23 80 35 83 38 87 39 89 49 166 49 171 41 181 35 187 28 192 18 197 3 201 0 201 0 82 14 79 15 79 "/><path d="M52 0 55 2 58 5 59 8 60 15 60 16 58 27 56 31 49 38 45 40 40 42 34 42 23 37 21 36 14 32 10 28 6 21 4 17 3 11 3 7 4 3 5 0 52 0 "/><path d="M194 244 195 246 195 249 138 249 134 248 133 247 132 245 130 225 130 224 131 222 132 221 139 216 147 214 194 244 "/><path d="M148 0 148 2 147 7 146 9 144 12 141 14 132 18 128 19 111 19 105 16 102 13 98 5 97 0 148 0 "/></svg>