<svg width="256" height="256" xmlns="http://www.w3.org/2000/svg" fill-opacity="0" stroke="black" stroke-width="3" ><path d="M115 63 129 64 137 65 159 75 165 78 177 89 183 95 184 97 197 134 199 146 201 164 201 171 198 183 191 204 190 206 188 208 163 220 155 220 144 217 142 216 139 214 64 158 57 150 54 146 48 134 46 124 46 112 48 105 51 99 56 91 69 77 76 72 82 69 89 66 94 64 97 63 115 63 "/><path d="M213 0 223 2 231 6 233 8 235 23 235 24 225 50 223 54 220 58 213 65 209 68 204 68 199 67 191 64 182 60 180 59 179 58 166 38 164 33 164 21 170 8 174 3 178 0 213 0 "/><path d="M87 209 103 213 105 214 118 228 123 238 126 245 126 249 97 249 83 240 82 239 66 221 65 219 66 217 67 216 85 209 87 209 "/></svg>