<svg width="256" height="256" xmlns="http://www.w3.org/2000/svg" fill-opacity="0" stroke="black" stroke-width="3" ><path d="M121 43 135 44 149 46 157 48 167 52 174 56 179 59 190 66 194 69 199 73 200 74 212 87 214 90 218 97 222 105 225 116 226 120 227 125 227 134 226 141 222 149 217 157 186 183 177 189 170 191 129 201 112 199 106 196 79 177 74 173 70 168 68 165 65 160 58 147 53 137 49 125 47 111 47 110 49 97 59 77 62 72 72 62 76 59 89 51 99 46 104 44 117 43 121 43 "/><path d="M249 174 249 249 199 249 194 237 192 232 192 224 193 214 194 210 196 206 200 201 209 192 219 185 229 180 237 177 248 174 249 174 "/></svg>