<svg width="256" height="256" xmlns="http://www.w3.org/2000/svg" fill-opacity="0" stroke="black" stroke-width="3" ><path d="M134 36 142 38 171 46 173 47 180 51 186 56 188 58 192 64 204 88 212 107 214 114 215 125 215 126 214 140 208 152 196 171 178 198 166 209 157 215 149 219 144 221 138 223 136 223 62 203 57 198 51 191 47 185 41 175 35 164 33 159 29 147 27 135 26 114 26 109 29 90 30 84 59 55 62 53 71 48 75 46 89 40 97 38 114 36 134 36 "/><path d="M221 200 246 205 249 211 249 249 190 249 189 247 188 243 188 242 189 232 191 224 193 220 204 204 220 200 221 200 "/></svg>