<svg width="256" height="256" xmlns="http://www.w3.org/2000/svg" fill-opacity="0" stroke="black" stroke-width="3" ><path d="M68 51 104 55 168 78 170 79 173 82 176 90 177 93 177 109 171 130 163 151 145 171 143 173 137 178 128 184 124 186 47 206 33 206 29 204 22 200 11 192 8 189 6 186 0 176 0 87 3 80 9 72 10 71 20 65 24 63 50 53 57 51 68 51 "/><path d="M209 136 223 142 225 144 249 176 249 185 236 234 232 244 229 248 228 249 193 249 174 232 173 230 168 216 167 213 167 208 169 202 179 176 184 165 190 153 199 144 208 136 209 136 "/><path d="M185 0 188 3 192 22 191 32 187 46 186 48 182 53 175 58 173 59 142 64 140 64 138 63 124 55 112 48 100 34 93 16 93 13 94 11 105 0 185 0 "/><path d="M249 0 249 67 237 72 233 73 225 73 219 72 214 69 211 67 207 63 202 55 200 49 198 42 198 38 204 17 206 12 212 4 216 0 249 0 "/><path d="M32 0 33 3 35 12 35 14 33 29 25 51 11 61 9 62 8 62 0 58 0 0 32 0 "/><path d="M129 212 142 219 146 222 156 235 156 238 155 249 77 249 78 246 80 241 81 239 95 220 97 218 99 217 126 211 129 212 "/></svg>