<svg width="256" height="256" xmlns="http://www.w3.org/2000/svg" fill-opacity="0" stroke="black" stroke-width="3" ><path d="M105 27 133 33 157 39 162 41 164 42 174 48 188 57 191 61 193 64 199 82 200 86 210 128 211 134 212 143 211 150 210 154 208 160 205 167 196 186 195 188 188 198 181 206 177 210 167 216 156 221 152 222 135 222 102 219 92 216 87 214 81 211 38 183 38 175 58 66 64 57 81 41 101 28 104 27 105 27 "/><path d="M24 184 39 191 46 198 57 213 57 220 55 223 49 230 47 232 7 249 0 249 0 194 18 185 23 184 24 184 "/><path d="M249 40 249 131 240 137 238 138 236 136 227 126 215 98 215 89 216 78 220 56 222 51 224 49 233 43 239 41 246 40 249 40 "/><path d="M13 38 16 39 21 41 23 42 29 46 38 53 39 54 42 58 45 68 45 75 44 77 38 83 29 88 25 88 1 80 0 79 0 57 1 43 3 40 5 38 13 38 "/></svg>