<svg width="256" height="256" xmlns="http://www.w3.org/2000/svg" fill-opacity="0" stroke="black" stroke-width="3" ><path d="M140 36 148 37 163 40 176 46 188 53 199 64 204 77 215 111 216 115 215 130 213 143 211 151 209 155 204 163 195 175 189 180 180 187 172 191 159 197 156 198 131 200 128 200 113 199 103 195 87 187 69 175 43 149 38 143 32 134 31 132 29 127 27 121 27 103 29 96 32 88 37 81 41 76 50 66 51 65 59 59 65 55 79 48 82 47 90 45 111 40 129 37 137 36 140 36 "/><path d="M19 165 32 166 36 167 45 170 54 176 101 210 105 214 108 219 109 221 115 236 117 244 117 249 0 249 0 169 1 168 15 165 19 165 "/><path d="M112 0 113 1 113 3 111 15 106 24 104 26 99 30 90 36 85 39 83 40 78 40 63 39 43 31 41 30 37 26 34 22 25 9 24 7 23 4 23 0 112 0 "/></svg>