<svg width="256" height="256" xmlns="http://www.w3.org/2000/svg" fill-opacity="0" stroke="black" stroke-width="3" ><path d="M100 0 107 6 108 7 115 19 116 22 116 23 115 27 108 39 87 56 85 57 81 57 72 54 70 53 15 6 12 3 10 0 100 0 "/><path d="M242 0 249 7 249 41 245 42 225 43 203 43 200 42 193 37 190 34 188 29 186 13 186 4 187 2 189 0 242 0 "/><path d="M109 86 140 115 142 117 143 120 143 124 142 132 136 155 135 157 131 162 127 165 124 166 117 166 81 139 78 136 76 128 71 105 71 103 81 89 85 86 95 81 109 86 "/><path d="M50 95 51 96 56 128 64 181 64 183 62 184 56 184 49 183 44 180 39 175 34 169 31 163 26 148 24 141 24 127 25 113 30 105 32 103 40 98 44 96 47 95 50 95 "/><path d="M131 29 156 36 158 37 159 38 165 46 169 54 170 57 171 61 172 66 172 79 171 81 161 85 158 86 121 63 120 62 119 46 119 45 120 42 122 38 124 35 128 30 130 29 131 29 "/><path d="M184 121 187 131 187 137 180 153 165 166 147 179 144 181 142 182 137 182 136 181 129 173 145 138 164 126 182 119 184 121 "/><path d="M249 67 240 105 236 114 227 125 224 127 221 127 218 126 211 90 210 67 211 65 212 64 215 62 249 60 249 67 "/></svg>