<svg width="256" height="256" xmlns="http://www.w3.org/2000/svg" fill-opacity="0" stroke="black" stroke-width="3" ><path d="M135 0 138 3 144 12 145 14 146 18 147 23 147 34 144 77 142 82 140 85 134 93 124 105 120 109 109 118 104 121 95 126 88 129 76 133 56 138 49 138 43 137 31 133 27 131 19 123 16 119 15 117 13 112 7 86 7 50 11 35 13 29 14 27 19 18 23 11 25 8 28 4 32 2 39 0 135 0 "/><path d="M249 0 249 87 247 89 238 92 208 71 187 32 185 28 197 0 249 0 "/><path d="M181 0 182 1 182 2 178 34 165 73 161 66 161 33 163 20 165 13 167 9 173 0 181 0 "/></svg>