<svg width="256" height="256" xmlns="http://www.w3.org/2000/svg" fill-opacity="0" stroke="black" stroke-width="3" ><path d="M135 57 141 60 165 76 173 82 180 92 182 95 186 103 189 111 191 118 192 140 192 145 190 154 189 158 183 169 179 175 175 179 168 185 162 190 154 194 134 201 127 202 109 203 98 201 84 197 81 196 79 195 70 187 62 179 56 172 50 162 48 158 44 141 43 132 43 120 44 114 46 106 48 100 50 95 51 93 62 81 66 77 68 76 79 71 110 58 130 57 135 57 "/><path d="M164 0 164 4 161 13 157 20 153 25 150 28 145 32 141 35 137 37 132 39 128 40 122 40 116 39 114 38 101 29 99 27 97 24 90 7 90 0 164 0 "/><path d="M249 137 237 123 235 116 234 107 233 95 233 93 237 84 242 73 243 71 248 65 249 64 249 137 "/></svg>