<svg width="256" height="256" xmlns="http://www.w3.org/2000/svg" fill-opacity="0" stroke="black" stroke-width="3" ><path d="M137 31 156 32 167 35 171 37 190 51 194 55 202 70 204 86 204 90 200 109 194 121 192 124 150 168 147 170 131 178 105 180 87 180 74 178 60 170 51 162 49 160 45 153 37 133 39 107 41 99 42 96 47 87 57 70 77 53 89 45 103 36 109 33 116 31 137 31 "/><path d="M245 80 249 81 249 90 242 117 240 121 223 139 222 140 215 140 211 136 207 130 206 126 206 120 207 114 208 111 213 101 215 98 224 87 226 85 230 83 238 80 245 80 "/><path d="M3 89 12 95 17 99 18 100 19 112 19 114 18 121 16 126 12 132 10 134 6 136 1 138 0 138 0 89 3 89 "/></svg>