<svg width="256" height="256" xmlns="http://www.w3.org/2000/svg" fill-opacity="0" stroke="black" stroke-width="3" ><path d="M155 0 164 3 169 6 176 11 195 29 212 46 215 53 216 56 220 69 220 80 219 89 214 105 212 109 204 121 203 122 184 135 177 139 175 140 168 143 155 146 130 146 121 144 107 140 105 139 82 123 77 119 75 117 69 109 61 94 58 88 56 78 55 72 55 61 56 56 58 49 64 31 67 24 69 21 79 8 83 5 87 3 103 0 155 0 "/><path d="M61 145 67 146 80 153 83 155 86 158 91 168 97 184 98 187 97 196 94 201 92 203 87 207 79 210 55 218 50 219 43 219 35 218 9 214 7 213 3 210 0 191 0 189 3 177 9 167 11 164 25 152 30 149 35 147 47 145 61 145 "/><path d="M249 0 249 33 247 33 225 25 219 21 199 5 197 3 196 1 196 0 249 0 "/></svg>