<svg width="256" height="256" xmlns="http://www.w3.org/2000/svg" fill-opacity="0" stroke="black" stroke-width="3" ><path d="M87 47 109 49 119 53 127 57 133 62 135 64 137 67 150 91 154 104 161 160 161 161 158 168 156 171 137 190 72 229 62 229 58 227 53 222 48 216 23 184 14 165 13 161 12 155 11 133 11 130 30 82 32 80 59 58 72 51 83 47 87 47 "/><path d="M143 203 150 204 155 205 169 210 181 226 182 228 183 231 185 249 91 249 91 248 92 244 93 241 97 231 98 229 102 223 105 219 110 213 114 209 118 207 122 206 137 203 143 203 "/></svg>