<svg width="256" height="256" xmlns="http://www.w3.org/2000/svg" fill-opacity="0" stroke="black" stroke-width="3" ><path d="M51 46 163 47 178 56 182 59 183 60 196 77 198 81 204 103 205 107 205 125 204 140 203 144 202 147 197 161 192 168 182 179 170 191 165 194 160 196 145 196 101 188 37 168 32 166 21 158 19 155 14 142 12 136 12 123 14 111 17 100 18 98 38 61 47 47 50 46 51 46 "/><path d="M242 158 247 159 249 160 249 246 239 246 224 241 220 238 216 233 207 221 203 213 202 199 202 194 206 181 223 164 227 161 239 158 242 158 "/></svg>