<svg width="256" height="256" xmlns="http://www.w3.org/2000/svg" fill-opacity="0" stroke="black" stroke-width="3" ><path d="M141 45 150 46 159 49 161 50 164 52 202 82 209 89 210 91 213 111 213 112 211 144 210 148 209 150 176 190 173 192 169 194 163 196 147 201 142 202 136 202 121 200 105 196 91 189 87 186 79 178 73 170 63 154 61 148 59 141 59 114 60 108 64 92 66 87 68 83 71 79 84 65 89 60 97 56 107 53 135 45 141 45 "/><path d="M12 149 28 153 31 154 37 157 40 159 44 163 48 168 60 187 61 189 64 198 65 204 65 209 63 218 57 236 54 241 52 244 47 249 0 249 0 148 12 149 "/></svg>