<svg width="256" height="256" xmlns="http://www.w3.org/2000/svg" fill-opacity="0" stroke="black" stroke-width="3" ><path d="M106 11 166 14 171 15 177 17 195 32 209 45 221 61 227 75 228 79 233 103 236 118 236 125 235 127 217 158 187 201 177 212 175 214 158 224 139 231 136 232 128 233 113 233 102 232 97 231 93 230 86 227 84 226 72 218 55 201 46 190 38 175 36 169 34 153 34 130 81 25 82 23 91 17 98 13 103 11 106 11 "/><path d="M249 45 248 58 247 60 246 61 222 48 221 47 200 18 201 17 218 12 249 5 249 45 "/><path d="M249 249 221 249 218 245 218 242 224 233 236 221 239 219 249 218 249 249 "/></svg>