<svg width="256" height="256" xmlns="http://www.w3.org/2000/svg" fill-opacity="0" stroke="black" stroke-width="3" ><path d="M126 36 130 37 176 54 178 55 190 70 198 84 204 109 205 125 205 145 204 152 201 157 190 174 177 187 173 189 170 190 157 194 114 207 112 207 83 183 73 173 55 152 52 148 51 146 46 133 45 108 53 85 59 68 63 62 65 60 99 41 107 37 110 36 126 36 "/><path d="M249 0 249 40 243 40 234 35 230 32 223 26 220 23 215 14 209 1 209 0 249 0 "/><path d="M19 32 47 52 49 54 50 57 49 65 46 72 40 78 38 78 30 74 28 72 0 37 0 30 4 28 19 32 "/><path d="M249 95 249 107 241 115 229 119 227 119 220 114 216 99 223 85 230 78 249 95 "/></svg>