<svg width="256" height="256" xmlns="http://www.w3.org/2000/svg" fill-opacity="0" stroke="black" stroke-width="3" ><path d="M98 28 114 29 136 31 138 32 144 36 148 39 176 61 190 75 192 78 194 82 196 89 198 99 202 121 202 132 201 136 200 139 196 149 195 151 186 164 172 178 162 186 146 194 139 196 110 202 97 202 89 201 87 200 68 190 61 186 55 182 42 169 30 145 20 113 19 103 19 98 21 91 25 78 26 75 29 67 31 63 49 45 63 36 69 33 72 32 86 29 97 28 98 28 "/><path d="M236 6 249 7 249 24 237 43 236 44 230 45 224 42 223 37 223 30 226 8 234 6 236 6 "/></svg>