<svg width="256" height="256" xmlns="http://www.w3.org/2000/svg" fill-opacity="0" stroke="black" stroke-width="3" ><path d="M150 49 159 51 172 57 198 71 202 77 203 79 205 95 206 120 206 124 205 128 175 194 174 195 162 202 145 206 136 208 120 208 104 200 82 184 76 177 68 164 66 160 58 141 56 100 57 98 63 89 65 87 72 81 84 73 101 63 124 50 137 49 150 49 "/><path d="M249 0 249 76 228 75 223 74 212 70 210 69 184 47 182 45 180 42 180 36 182 28 188 19 195 12 232 0 249 0 "/><path d="M249 246 236 246 223 236 222 235 217 225 216 222 215 218 214 209 216 196 217 192 220 187 228 178 234 173 245 167 249 165 249 246 "/><path d="M160 232 187 233 196 234 200 235 207 242 209 245 209 249 139 249 139 246 140 241 144 237 150 233 152 232 160 232 "/><path d="M20 204 27 207 31 209 42 217 44 219 45 221 46 224 38 240 30 249 13 249 9 219 9 217 13 207 14 205 15 204 20 204 "/></svg>