<svg width="256" height="256" xmlns="http://www.w3.org/2000/svg" fill-opacity="0" stroke="black" stroke-width="3" ><path d="M128 57 136 58 149 61 168 70 172 73 186 85 187 87 193 100 194 103 196 114 196 128 191 141 163 169 153 178 148 182 146 183 133 188 113 190 112 190 108 189 105 188 101 186 83 172 81 170 79 167 75 160 63 138 59 128 59 123 61 115 67 98 75 84 82 72 83 71 106 59 126 57 128 57 "/><path d="M27 165 45 166 50 169 55 174 66 187 68 191 72 210 71 213 62 239 61 240 54 246 50 249 13 249 6 246 0 242 0 180 20 165 27 165 "/><path d="M179 0 174 6 161 19 156 23 154 24 148 26 138 28 127 28 120 27 116 26 105 22 103 21 95 15 86 6 83 2 83 0 179 0 "/></svg>