<svg width="256" height="256" xmlns="http://www.w3.org/2000/svg" fill-opacity="0" stroke="black" stroke-width="3" ><path d="M126 63 141 64 144 65 149 67 153 69 175 116 176 145 175 149 173 155 166 166 165 167 160 171 150 176 123 184 118 184 114 183 83 168 75 164 69 159 64 154 56 140 54 132 53 126 53 113 54 110 58 103 61 99 68 91 74 85 77 83 109 66 112 65 116 64 124 63 126 63 "/><path d="M56 189 61 190 72 193 109 229 112 232 118 241 119 243 121 248 121 249 34 249 22 229 20 223 17 210 18 205 21 202 26 199 42 191 48 189 56 189 "/><path d="M193 231 212 232 229 245 231 247 231 249 161 249 161 248 162 245 166 240 168 238 170 237 177 234 182 232 190 231 193 231 "/></svg>