<svg width="256" height="256" xmlns="http://www.w3.org/2000/svg" fill-opacity="0" stroke="black" stroke-width="3" ><path d="M111 25 148 29 162 33 183 43 186 45 198 54 211 64 222 73 230 83 234 89 236 93 238 98 240 104 241 110 241 117 240 125 237 133 235 136 232 140 155 220 149 226 144 230 138 232 117 232 106 228 101 226 95 220 49 139 46 132 46 127 63 61 67 49 71 43 79 35 93 27 100 25 111 25 "/><path d="M22 188 40 194 44 196 55 207 56 210 58 219 59 225 59 231 57 246 56 249 0 249 0 192 11 189 15 188 22 188 "/><path d="M249 191 249 244 241 249 197 249 195 239 194 227 194 221 198 213 200 210 210 201 218 195 221 194 229 192 243 191 249 191 "/><path d="M4 32 20 50 27 60 29 65 30 69 32 86 32 95 31 99 30 102 28 106 24 113 16 125 12 127 0 131 0 28 4 32 "/></svg>