<svg width="256" height="256" xmlns="http://www.w3.org/2000/svg" fill-opacity="0" stroke="black" stroke-width="3" ><path d="M137 35 147 36 175 43 177 44 184 50 193 58 200 65 201 67 209 86 211 98 213 119 213 125 211 138 205 168 202 174 194 185 185 195 180 200 165 211 161 213 149 216 144 216 123 215 113 213 107 211 99 208 93 205 77 196 65 187 50 172 48 169 46 164 45 161 45 141 48 125 51 110 60 80 66 69 72 60 88 48 91 46 98 43 117 38 121 37 132 35 137 35 "/><path d="M236 128 243 131 245 132 246 133 249 141 249 178 248 179 242 181 234 182 226 182 224 181 221 179 220 177 215 166 214 159 214 158 218 140 228 130 230 129 234 128 236 128 "/><path d="M13 30 19 32 34 38 37 41 40 45 42 50 42 51 41 53 39 55 28 63 25 64 20 64 14 61 0 45 0 30 3 29 13 30 "/><path d="M26 118 26 124 25 132 23 136 13 146 10 148 8 149 0 151 0 120 3 117 12 114 26 118 "/></svg>