<svg width="256" height="256" xmlns="http://www.w3.org/2000/svg" fill-opacity="0" stroke="black" stroke-width="3" ><path d="M144 54 162 68 168 75 174 85 186 106 187 113 189 129 190 145 190 146 184 163 180 171 173 183 166 193 164 195 159 199 156 201 114 213 100 213 96 212 93 211 70 201 67 199 62 192 60 189 57 183 56 174 52 96 53 85 57 76 63 70 66 68 87 58 107 55 119 54 144 54 "/><path d="M249 0 249 60 242 62 238 63 237 63 219 61 212 60 206 59 198 49 193 41 186 24 186 20 187 15 191 0 249 0 "/><path d="M19 100 29 101 32 102 40 108 42 111 43 113 48 138 48 144 47 147 38 163 37 164 22 177 17 178 9 177 1 175 0 174 0 106 4 104 14 100 19 100 "/><path d="M221 213 248 218 249 219 249 249 190 249 192 235 193 233 196 230 209 218 213 215 215 214 219 213 221 213 "/></svg>