<svg width="256" height="256" xmlns="http://www.w3.org/2000/svg" fill-opacity="0" stroke="black" stroke-width="3" ><path d="M71 77 106 79 122 80 139 83 149 85 159 88 168 96 170 98 172 102 178 115 179 120 172 148 157 193 148 204 144 208 140 211 131 216 120 222 110 226 95 230 84 230 73 228 54 222 49 220 0 197 0 193 9 125 13 112 16 107 19 103 27 93 46 82 50 80 59 77 71 77 "/><path d="M114 0 114 1 107 15 104 18 97 22 76 31 73 32 61 35 45 37 39 37 32 36 24 34 6 29 3 27 0 24 0 0 114 0 "/><path d="M243 122 249 123 249 203 248 203 245 202 239 199 224 186 223 185 218 178 216 166 216 164 217 159 224 137 229 127 232 125 237 122 243 122 "/></svg>