<svg width="256" height="256" xmlns="http://www.w3.org/2000/svg" fill-opacity="0" stroke="black" stroke-width="3" ><path d="M98 60 141 62 167 74 169 75 172 77 182 86 185 92 192 138 192 140 182 162 177 168 167 178 161 183 158 185 142 191 127 196 114 198 111 198 98 196 90 190 84 184 70 168 46 136 40 123 39 119 39 114 44 95 48 85 59 74 95 60 98 60 "/><path d="M72 0 75 9 76 13 77 19 77 20 75 29 74 32 70 38 64 42 60 44 44 47 0 47 0 10 1 7 5 0 72 0 "/><path d="M124 212 134 214 152 223 155 225 158 231 159 235 160 240 161 247 161 248 160 249 94 249 94 247 104 225 107 220 109 217 110 216 113 214 115 213 121 212 124 212 "/></svg>