<svg width="256" height="256" xmlns="http://www.w3.org/2000/svg" fill-opacity="0" stroke="black" stroke-width="3" ><path d="M152 36 162 37 185 45 187 46 214 68 230 92 240 108 241 127 241 128 235 150 229 168 223 183 221 186 202 211 200 213 179 225 174 227 150 228 148 228 121 226 113 223 75 187 66 178 60 169 58 165 56 160 49 138 47 116 47 112 48 107 53 94 64 72 68 67 83 54 93 46 96 44 100 42 114 38 120 37 131 36 152 36 "/><path d="M231 198 249 212 249 249 199 249 200 242 210 213 215 207 220 202 228 198 231 198 "/><path d="M5 138 12 147 14 152 20 171 20 196 18 203 11 226 10 227 1 235 0 235 0 133 5 138 "/></svg>