<svg width="256" height="256" xmlns="http://www.w3.org/2000/svg" fill-opacity="0" stroke="black" stroke-width="3" ><path d="M122 43 147 47 152 49 158 52 171 61 180 68 188 76 196 87 204 103 206 110 206 132 205 136 204 139 186 178 184 181 177 190 174 193 169 196 161 200 156 202 150 203 140 204 109 206 103 206 81 192 71 185 61 170 49 138 47 130 46 124 46 110 47 101 53 85 54 83 67 64 71 60 79 53 83 51 88 49 104 43 122 43 "/><path d="M122 228 150 230 154 231 165 236 167 237 174 241 180 249 115 249 113 243 113 240 115 233 117 230 118 229 121 228 122 228 "/></svg>