<svg width="256" height="256" xmlns="http://www.w3.org/2000/svg" fill-opacity="0" stroke="black" stroke-width="3" ><path d="M104 48 137 52 146 54 221 73 241 95 242 97 245 124 245 125 243 130 209 153 149 181 146 182 143 182 66 175 62 174 50 168 48 165 46 161 46 160 80 56 81 55 101 48 104 48 "/><path d="M126 183 148 203 161 230 161 231 160 236 159 238 150 247 139 249 92 249 92 225 94 213 97 199 100 195 106 189 111 185 124 183 126 183 "/><path d="M228 0 215 32 210 39 207 43 206 44 204 45 191 46 176 44 171 42 166 38 163 35 146 11 144 8 142 0 228 0 "/></svg>