<svg width="256" height="256" xmlns="http://www.w3.org/2000/svg" fill-opacity="0" stroke="black" stroke-width="3" ><path d="M150 3 162 8 169 11 206 28 211 33 213 36 214 38 225 97 225 103 213 131 187 167 185 169 151 186 144 185 92 172 88 169 40 129 32 120 31 116 31 95 36 73 45 49 46 47 59 29 78 7 80 5 82 4 135 3 150 3 "/><path d="M75 165 83 180 87 188 87 206 83 218 82 219 64 230 34 236 22 238 18 238 13 233 2 211 0 205 0 135 24 128 75 165 "/><path d="M15 5 32 16 35 20 40 30 40 31 39 38 38 43 31 74 19 111 16 117 14 119 13 119 0 105 0 7 8 5 15 5 "/><path d="M79 225 104 239 109 243 111 245 113 249 36 249 35 246 36 243 78 225 79 225 "/></svg>