<svg width="256" height="256" xmlns="http://www.w3.org/2000/svg" fill-opacity="0" stroke="black" stroke-width="3" ><path d="M109 54 120 56 137 64 157 77 176 90 182 95 184 97 185 99 201 134 202 152 202 153 192 174 182 186 180 188 168 194 110 199 109 199 96 197 92 195 67 179 57 163 55 159 54 154 52 131 52 129 62 98 71 71 72 69 73 68 76 66 80 64 103 54 109 54 "/><path d="M248 163 249 164 249 249 225 249 210 239 207 236 206 234 205 231 203 223 202 217 202 211 203 201 207 191 210 187 221 176 233 165 245 163 248 163 "/><path d="M120 237 129 238 138 240 144 242 148 245 152 249 85 249 85 248 86 246 97 241 104 238 110 237 120 237 "/></svg>