<svg width="256" height="256" xmlns="http://www.w3.org/2000/svg" fill-opacity="0" stroke="black" stroke-width="3" ><path d="M136 45 142 47 157 53 161 55 175 66 181 71 193 83 195 87 202 113 202 131 201 146 199 151 179 170 155 190 143 196 124 200 114 200 83 192 43 171 40 169 36 166 22 152 18 146 11 132 11 131 12 123 14 117 21 103 40 78 49 69 59 61 62 59 69 55 74 53 92 49 124 45 136 45 "/><path d="M231 134 249 152 249 240 245 244 239 246 225 249 182 249 174 243 159 216 159 215 205 147 206 146 220 138 222 137 229 134 231 134 "/><path d="M8 201 9 202 32 249 0 249 0 207 6 201 8 201 "/></svg>