<svg width="256" height="256" xmlns="http://www.w3.org/2000/svg" fill-opacity="0" stroke="black" stroke-width="3" ><path d="M136 36 141 37 151 40 160 44 173 52 176 54 183 61 188 74 192 87 196 107 197 120 197 141 196 149 194 158 184 177 180 183 162 203 157 206 143 213 128 216 114 216 106 215 83 207 80 205 75 201 64 191 59 186 56 181 44 160 43 158 40 141 40 135 41 119 46 104 54 84 55 82 63 68 65 65 70 58 73 54 78 50 87 43 100 38 116 36 136 36 "/><path d="M4 43 29 62 30 64 36 80 36 81 27 180 23 189 22 191 20 194 18 196 3 209 0 211 0 41 4 43 "/><path d="M249 42 249 166 245 164 233 152 224 140 218 123 214 111 212 88 212 86 213 80 220 63 230 53 240 45 248 42 249 42 "/></svg>