<svg width="256" height="256" xmlns="http://www.w3.org/2000/svg" fill-opacity="0" stroke="black" stroke-width="3" ><path d="M118 0 192 47 204 59 214 81 217 106 217 115 216 119 204 154 202 159 200 163 191 177 189 180 184 186 183 187 173 196 168 199 159 204 156 205 143 209 139 210 132 211 123 212 118 212 105 211 92 207 83 203 77 197 51 169 46 162 41 154 33 140 30 133 29 128 27 117 20 3 20 1 21 0 118 0 "/><path d="M29 171 31 172 46 181 52 187 55 198 55 208 54 216 26 246 23 249 0 249 0 175 4 174 13 172 18 171 29 171 "/><path d="M229 0 229 4 228 5 219 13 196 32 194 32 172 29 167 26 153 14 141 1 141 0 229 0 "/><path d="M1 43 4 45 16 54 17 55 19 58 20 60 22 71 22 74 9 130 8 133 2 144 0 146 0 43 1 43 "/></svg>