<svg width="256" height="256" xmlns="http://www.w3.org/2000/svg" fill-opacity="0" stroke="black" stroke-width="3" ><path d="M129 71 159 81 183 114 183 119 177 162 175 166 173 169 153 186 142 195 135 199 127 203 122 205 116 207 106 207 97 205 91 203 87 201 81 197 79 195 78 193 65 164 65 162 66 142 68 131 91 90 94 87 111 73 117 71 129 71 "/><path d="M248 52 249 59 249 145 240 156 233 162 226 167 222 169 190 181 187 181 184 177 180 169 180 166 185 128 188 116 198 80 199 77 203 73 216 64 228 58 246 50 248 52 "/><path d="M134 34 157 42 165 47 171 53 179 66 179 72 176 78 175 78 116 56 111 54 109 53 109 52 110 47 112 42 118 36 126 34 134 34 "/></svg>