<svg width="256" height="256" xmlns="http://www.w3.org/2000/svg" fill-opacity="0" stroke="black" stroke-width="3" ><path d="M3 0 131 27 139 31 150 41 174 64 212 108 217 121 219 130 220 146 220 147 216 156 214 160 207 172 204 176 199 182 189 193 178 203 127 234 113 235 111 235 96 233 94 232 58 197 52 191 0 72 0 0 3 0 "/><path d="M249 0 249 69 214 69 206 66 204 65 153 31 152 30 149 17 146 2 146 0 249 0 "/><path d="M12 196 15 198 25 206 31 212 35 218 44 233 46 239 47 243 48 249 0 249 0 189 12 196 "/></svg>