<svg width="256" height="256" xmlns="http://www.w3.org/2000/svg" fill-opacity="0" stroke="black" stroke-width="3" ><path d="M160 23 168 25 192 32 204 36 210 39 213 41 233 56 235 58 245 69 249 77 249 179 242 186 233 194 227 199 225 200 142 228 131 230 130 230 121 228 101 220 80 204 51 162 49 158 44 146 43 139 41 123 41 121 45 103 53 87 55 84 60 77 68 66 75 58 90 42 91 41 111 29 123 23 160 23 "/><path d="M9 161 18 163 33 171 36 173 42 179 50 192 56 204 62 220 66 233 68 242 69 247 69 249 0 249 0 161 9 161 "/></svg>