<svg width="256" height="256" xmlns="http://www.w3.org/2000/svg" fill-opacity="0" stroke="black" stroke-width="3" ><path d="M117 30 132 32 139 34 142 35 151 39 175 55 198 75 207 85 214 98 215 100 218 109 222 123 223 132 223 135 222 153 216 167 214 171 204 186 194 196 188 201 183 205 180 207 176 209 171 211 159 215 154 216 147 217 126 218 123 218 116 217 109 215 104 213 91 207 89 206 81 201 77 198 68 190 61 183 47 162 45 158 37 136 36 131 35 124 37 96 39 86 40 84 46 74 48 71 65 50 75 41 80 38 95 32 102 30 117 30 "/><path d="M249 0 249 54 242 58 239 59 221 59 197 55 193 54 191 53 184 49 153 30 150 27 137 12 131 0 249 0 "/><path d="M80 0 80 6 78 11 77 13 74 17 73 18 69 21 66 23 60 26 56 26 47 25 37 23 34 21 23 10 21 3 21 0 80 0 "/></svg>