<svg width="256" height="256" xmlns="http://www.w3.org/2000/svg" fill-opacity="0" stroke="black" stroke-width="3" ><path d="M111 40 124 41 134 43 140 45 167 56 171 59 184 69 190 75 205 97 207 100 208 102 220 127 221 131 223 140 223 149 218 178 216 183 214 187 212 189 200 198 189 205 180 208 133 219 111 219 100 217 87 213 82 208 29 139 28 128 28 127 37 90 39 86 43 79 45 76 56 66 81 49 109 40 111 40 "/><path d="M249 0 249 25 248 27 242 36 235 44 229 48 227 49 220 52 211 55 210 55 196 53 190 51 181 47 175 43 155 21 148 8 148 0 249 0 "/><path d="M44 194 53 197 73 217 74 228 74 248 73 249 0 249 0 207 12 197 42 194 44 194 "/><path d="M212 215 225 220 230 224 234 228 238 236 240 244 240 249 150 249 149 235 150 234 153 232 155 231 170 224 186 218 193 216 201 215 212 215 "/><path d="M28 0 68 26 69 27 71 30 72 33 72 38 71 44 64 51 59 55 52 59 49 60 43 60 38 58 0 26 0 0 28 0 "/><path d="M249 135 249 190 248 190 245 189 242 187 238 184 233 180 232 179 228 173 227 170 227 160 232 146 237 141 240 139 245 136 247 135 249 135 "/><path d="M15 165 21 167 23 169 27 174 32 185 32 188 5 197 3 197 0 195 0 172 5 165 10 164 15 165 "/></svg>