<svg width="256" height="256" xmlns="http://www.w3.org/2000/svg" fill-opacity="0" stroke="black" stroke-width="3" ><path d="M113 60 155 62 157 64 200 130 200 138 180 160 144 181 141 182 130 185 82 171 74 168 70 166 64 158 54 133 51 121 50 116 46 95 46 94 47 87 54 76 109 60 113 60 "/><path d="M156 0 158 18 158 22 157 25 156 27 152 30 147 33 111 46 80 54 67 57 64 57 56 56 40 52 38 50 37 48 36 45 32 16 31 6 31 0 156 0 "/><path d="M30 214 38 215 43 216 54 219 67 225 75 229 83 236 85 238 86 240 82 245 79 247 75 249 70 249 63 247 47 242 45 240 26 214 30 214 "/></svg>