<svg width="256" height="256" xmlns="http://www.w3.org/2000/svg" fill-opacity="0" stroke="black" stroke-width="3" ><path d="M118 36 121 37 132 41 137 43 139 44 169 60 215 93 216 95 216 97 206 151 205 153 186 181 185 182 178 186 176 187 170 189 151 194 137 196 128 197 113 198 105 197 99 196 94 195 91 194 86 192 74 186 64 180 59 174 57 171 53 164 53 104 55 87 56 84 60 74 62 70 64 67 83 48 89 43 94 40 98 39 111 36 118 36 "/><path d="M249 0 249 68 248 69 211 70 185 44 184 42 180 31 190 9 191 8 205 0 249 0 "/><path d="M142 0 141 8 119 23 104 28 74 16 59 5 56 2 56 0 142 0 "/></svg>