<svg width="256" height="256" xmlns="http://www.w3.org/2000/svg" fill-opacity="0" stroke="black" stroke-width="3" ><path d="M65 0 93 29 100 42 100 47 31 181 29 184 25 188 22 190 7 194 3 195 2 195 0 194 0 3 1 1 3 0 65 0 "/><path d="M207 28 212 29 223 32 228 34 231 36 237 42 241 48 242 50 244 56 244 72 243 76 239 80 230 86 228 87 225 88 218 88 215 87 209 83 200 76 192 68 180 47 179 45 178 40 180 33 185 31 193 29 204 28 207 28 "/><path d="M140 80 141 81 144 87 144 88 143 92 138 106 116 145 115 146 103 152 98 154 97 151 95 143 98 113 109 81 110 80 113 78 140 80 "/><path d="M183 71 186 73 190 77 194 83 196 87 198 92 200 101 200 103 183 127 165 148 162 150 158 152 137 156 136 156 133 155 134 151 137 143 166 85 177 72 179 71 183 71 "/></svg>