<svg width="256" height="256" xmlns="http://www.w3.org/2000/svg" fill-opacity="0" stroke="black" stroke-width="3" ><path d="M122 68 127 71 133 76 144 92 145 94 161 133 161 142 160 150 159 153 156 154 154 154 76 148 62 142 58 140 52 134 48 114 48 113 49 106 53 89 78 72 85 70 121 68 122 68 "/><path d="M65 220 76 222 87 227 89 233 89 236 76 249 52 249 51 248 51 242 62 221 63 220 65 220 "/><path d="M134 186 140 190 141 191 143 194 143 204 141 208 130 219 126 221 125 221 121 220 120 212 119 202 119 198 122 194 128 188 132 186 134 186 "/><path d="M1 122 5 124 22 135 56 159 58 161 58 166 36 166 27 162 25 161 21 158 14 151 3 131 0 123 0 122 1 122 "/></svg>