<svg width="256" height="256" xmlns="http://www.w3.org/2000/svg" fill-opacity="0" stroke="black" stroke-width="3" ><path d="M128 43 142 45 168 56 176 61 179 63 184 67 190 72 198 80 212 100 212 101 206 125 197 148 189 165 188 167 186 170 179 179 169 188 163 192 147 202 145 203 134 208 118 213 105 214 87 214 67 204 58 199 44 191 27 175 25 173 21 161 21 157 23 150 25 145 78 62 86 56 100 48 125 43 128 43 "/><path d="M26 18 36 21 39 22 41 23 46 27 50 31 54 37 56 42 57 45 59 53 60 61 59 67 57 71 25 115 22 119 18 123 14 126 9 129 7 130 2 132 0 132 0 27 11 20 13 19 19 18 26 18 "/><path d="M249 0 249 63 247 66 234 69 223 70 203 63 201 62 185 46 163 12 159 2 161 0 249 0 "/><path d="M249 97 249 218 248 218 245 217 243 216 236 212 232 209 229 206 215 190 212 184 208 174 207 169 206 163 206 153 211 137 220 116 222 113 225 109 226 108 230 105 233 103 239 100 248 97 249 97 "/><path d="M143 0 144 4 143 10 141 16 137 22 135 24 130 27 128 28 123 29 122 29 117 28 114 27 113 26 99 0 143 0 "/></svg>