<svg width="256" height="256" xmlns="http://www.w3.org/2000/svg" fill-opacity="0" stroke="black" stroke-width="3" ><path d="M123 55 204 65 210 68 215 74 216 76 216 80 206 161 194 200 193 202 192 203 154 229 152 229 123 220 75 196 73 194 53 172 23 125 20 119 20 118 23 115 70 72 76 67 87 60 89 59 95 57 114 55 123 55 "/><path d="M114 234 119 236 123 240 126 248 126 249 48 249 48 248 51 245 53 244 78 232 81 231 87 230 114 234 "/><path d="M240 176 249 180 249 222 247 224 243 224 240 222 232 216 227 208 221 190 231 181 236 177 239 176 240 176 "/><path d="M191 225 204 226 205 227 205 228 204 249 164 249 164 248 166 243 171 233 181 226 183 225 191 225 "/><path d="M1 212 10 214 21 231 23 236 24 242 24 246 22 249 0 249 0 212 1 212 "/></svg>