<svg width="256" height="256" xmlns="http://www.w3.org/2000/svg" fill-opacity="0" stroke="black" stroke-width="3" ><path d="M72 0 74 3 74 4 71 14 61 34 54 41 40 47 26 51 24 51 20 49 17 47 3 20 3 3 4 2 26 0 72 0 "/><path d="M206 171 249 181 249 225 241 228 236 229 228 229 210 223 208 221 207 219 192 186 191 183 191 178 192 176 196 172 198 171 206 171 "/><path d="M168 124 186 133 194 145 194 150 192 155 186 166 184 169 178 175 161 188 156 191 150 194 147 194 128 193 119 191 115 190 113 189 112 187 112 184 155 132 160 126 166 124 168 124 "/><path d="M168 44 174 48 184 59 186 63 193 79 193 84 187 110 183 126 134 65 130 60 130 57 131 56 150 46 153 45 166 44 168 44 "/><path d="M81 67 87 166 87 167 86 168 83 168 81 167 63 145 59 137 55 126 52 115 52 110 53 101 55 95 61 81 63 78 64 77 79 67 81 67 "/><path d="M6 100 9 102 10 103 18 113 20 116 22 122 22 140 21 146 20 148 16 154 13 157 1 166 0 166 0 104 1 102 2 101 5 100 6 100 "/><path d="M28 223 32 224 38 227 42 230 46 234 47 240 47 249 0 249 0 247 2 233 3 231 11 224 15 223 28 223 "/><path d="M123 126 129 128 131 136 131 146 125 155 122 158 117 162 111 165 109 164 103 158 100 151 99 148 99 146 100 142 102 140 110 133 120 126 123 126 "/><path d="M249 18 249 44 247 45 235 48 227 48 221 45 218 30 218 28 226 22 242 18 249 18 "/></svg>