<svg width="256" height="256" xmlns="http://www.w3.org/2000/svg" fill-opacity="0" stroke="black" stroke-width="3" ><path d="M14 68 28 69 44 73 47 74 61 79 63 80 68 84 76 92 81 100 93 162 93 170 91 180 81 194 43 219 29 226 20 229 6 229 0 228 0 71 4 70 13 68 14 68 "/><path d="M232 0 236 8 238 14 239 26 239 35 238 40 235 51 228 63 225 67 212 83 210 85 202 89 190 92 180 94 163 94 152 93 138 90 114 82 110 79 109 78 98 63 96 60 90 46 90 35 91 0 232 0 "/><path d="M104 84 191 104 205 111 217 125 218 130 218 136 213 146 181 202 175 208 153 214 132 219 123 218 116 215 114 214 111 212 106 208 104 204 103 201 95 99 95 98 97 89 98 87 102 84 104 84 "/><path d="M72 0 72 30 71 31 17 50 16 50 14 49 0 40 0 0 72 0 "/></svg>