<svg width="256" height="256" xmlns="http://www.w3.org/2000/svg" fill-opacity="0" stroke="black" stroke-width="3" ><path d="M149 21 169 29 197 45 213 61 220 70 221 72 223 77 227 89 228 97 229 106 229 120 228 128 227 133 225 141 223 146 213 162 209 168 206 172 200 179 196 182 183 191 160 200 154 202 149 203 138 205 125 204 119 202 103 196 83 187 70 177 63 170 54 158 50 152 46 137 45 128 43 108 43 105 44 90 45 85 46 81 50 72 62 55 64 53 72 47 75 45 100 30 102 29 125 21 149 21 "/><path d="M87 0 85 6 77 18 73 22 70 24 66 26 39 27 28 27 22 22 12 9 10 2 10 0 87 0 "/></svg>