<svg width="256" height="256" xmlns="http://www.w3.org/2000/svg" fill-opacity="0" stroke="black" stroke-width="3" ><path d="M127 42 151 46 167 49 170 50 172 51 176 56 179 60 186 75 194 104 197 126 197 129 195 133 153 178 89 180 88 180 73 175 44 155 39 150 37 147 36 145 29 124 27 107 27 103 36 78 37 77 52 65 61 61 126 42 127 42 "/><path d="M140 195 154 199 177 213 183 217 184 218 185 221 169 249 0 249 0 229 12 217 23 211 35 205 70 197 77 196 113 192 140 195 "/><path d="M12 96 14 97 15 98 18 108 21 134 21 138 20 148 19 153 16 159 3 174 0 175 0 96 12 96 "/></svg>