<svg width="256" height="256" xmlns="http://www.w3.org/2000/svg" fill-opacity="0" stroke="black" stroke-width="3" ><path d="M119 5 141 12 157 20 164 26 173 34 180 41 183 45 186 50 188 57 191 69 192 76 192 82 190 98 185 126 181 140 178 145 176 147 167 154 144 165 138 167 127 170 122 171 85 171 76 169 68 166 59 159 49 151 43 145 35 134 31 127 27 117 24 102 24 96 25 74 27 66 29 60 32 53 39 43 51 28 52 27 55 25 63 20 76 12 92 7 96 6 101 5 119 5 "/><path d="M119 187 128 188 145 193 153 197 162 203 177 216 180 220 187 232 189 245 189 249 55 249 54 246 56 239 57 236 65 222 67 219 71 215 85 202 95 194 101 190 104 189 118 187 119 187 "/></svg>