<svg width="256" height="256" xmlns="http://www.w3.org/2000/svg" fill-opacity="0" stroke="black" stroke-width="3" ><path d="M120 0 184 83 190 92 199 108 200 110 202 118 203 124 204 132 204 147 203 156 199 168 195 178 194 180 191 184 176 200 168 206 162 210 155 214 126 222 118 222 104 218 78 210 73 208 64 204 58 200 45 188 39 182 35 177 30 168 27 162 19 142 17 135 17 121 50 5 51 2 57 0 120 0 "/><path d="M249 0 249 112 247 112 242 110 231 104 224 100 220 96 201 67 192 52 181 30 179 25 179 12 182 6 185 1 186 0 249 0 "/></svg>