<svg width="256" height="256" xmlns="http://www.w3.org/2000/svg" fill-opacity="0" stroke="black" stroke-width="3" ><path d="M89 3 173 20 178 25 181 29 181 50 178 54 163 72 160 75 149 81 132 88 113 92 112 92 102 91 90 88 71 80 69 78 58 66 56 63 52 52 48 38 48 28 50 23 60 7 66 5 70 4 77 3 89 3 "/><path d="M237 56 241 57 249 62 249 151 231 160 219 160 208 159 198 149 178 128 177 126 176 123 175 117 175 96 179 89 186 80 191 74 201 64 210 59 219 55 237 56 "/><path d="M99 157 103 158 109 160 161 186 171 192 171 193 165 200 164 201 159 204 154 206 115 207 106 207 94 204 84 198 81 194 79 191 75 175 75 168 76 165 77 163 79 160 80 159 82 158 86 157 99 157 "/><path d="M142 120 153 125 156 127 166 137 175 152 176 173 176 174 175 179 173 184 172 185 169 186 167 185 128 164 123 160 118 155 116 151 116 144 118 137 123 130 130 123 135 120 142 120 "/></svg>