<svg width="256" height="256" xmlns="http://www.w3.org/2000/svg" fill-opacity="0" stroke="black" stroke-width="3" ><path d="M139 39 151 40 173 45 178 47 190 53 194 56 199 60 205 65 208 68 216 77 225 92 227 105 228 113 228 116 227 129 223 159 220 181 219 187 217 193 214 200 213 202 211 205 185 224 159 238 149 242 142 244 133 246 76 246 64 236 15 174 15 173 21 117 23 108 30 94 37 83 49 71 60 62 69 56 74 53 78 51 97 44 101 43 111 41 125 39 139 39 "/><path d="M14 201 20 203 25 207 32 213 36 219 37 221 37 242 35 246 33 249 0 249 0 204 12 201 14 201 "/><path d="M247 226 249 227 249 249 186 249 186 248 189 245 203 235 220 227 243 226 247 226 "/></svg>