<svg width="256" height="256" xmlns="http://www.w3.org/2000/svg" fill-opacity="0" stroke="black" stroke-width="3" ><path d="M123 64 147 69 149 70 168 80 182 94 186 102 191 120 191 127 190 135 183 155 169 173 157 180 153 182 144 186 141 187 125 189 123 189 110 188 104 187 100 185 76 165 71 159 66 151 64 141 63 132 63 122 65 109 66 106 70 100 77 91 82 85 89 78 100 70 103 68 112 65 118 64 123 64 "/><path d="M147 0 147 4 144 10 135 23 115 47 113 49 104 53 100 54 89 55 76 55 68 54 61 53 49 49 33 38 30 35 18 17 16 7 16 0 147 0 "/><path d="M249 0 249 7 209 44 206 46 198 49 197 49 189 47 187 45 185 42 181 34 171 6 171 3 172 2 174 1 177 0 249 0 "/></svg>