<svg width="256" height="256" xmlns="http://www.w3.org/2000/svg" fill-opacity="0" stroke="black" stroke-width="3" ><path d="M132 41 165 52 167 53 172 57 184 69 196 86 198 89 203 98 205 104 209 119 210 126 210 145 206 162 202 170 194 184 189 192 183 198 166 210 160 214 152 218 144 220 138 221 121 221 100 218 95 216 82 210 76 207 68 202 62 198 53 190 51 188 38 172 33 160 30 149 29 129 29 116 33 105 38 94 39 92 41 89 46 82 55 73 82 51 85 49 91 46 109 41 132 41 "/><path d="M20 0 21 1 24 5 32 17 32 21 18 52 8 70 0 78 0 0 20 0 "/></svg>