<svg width="256" height="256" xmlns="http://www.w3.org/2000/svg" fill-opacity="0" stroke="black" stroke-width="3" ><path d="M127 44 133 45 138 46 150 51 153 53 166 62 171 66 174 70 185 86 186 89 187 93 190 112 190 114 189 124 187 133 185 139 183 144 176 160 169 167 158 175 155 177 148 181 134 188 114 195 105 196 104 196 89 195 83 191 73 181 66 172 61 165 54 142 52 133 51 122 51 121 52 110 56 96 63 80 70 71 84 57 93 51 105 46 108 45 122 44 127 44 "/><path d="M211 185 214 186 216 187 223 192 240 213 242 217 243 222 243 234 242 238 241 240 238 245 235 249 113 249 112 216 112 214 113 212 131 194 134 192 155 183 211 185 "/><path d="M10 147 27 158 28 159 93 231 96 236 99 248 99 249 1 249 0 248 0 142 10 147 "/></svg>