<svg width="256" height="256" xmlns="http://www.w3.org/2000/svg" fill-opacity="0" stroke="black" stroke-width="3" ><path d="M140 53 148 54 173 67 179 72 180 73 183 77 193 94 194 97 196 115 196 118 194 123 113 181 110 183 108 184 105 184 103 183 101 181 86 162 80 153 77 141 74 96 74 91 94 67 98 64 116 56 138 53 140 53 "/><path d="M28 4 47 19 48 20 69 46 72 50 73 52 74 58 52 100 49 103 46 105 43 106 23 108 22 108 0 104 0 20 1 18 2 17 16 6 19 4 28 4 "/><path d="M203 0 203 1 202 6 200 13 195 30 191 38 183 45 179 48 172 50 167 51 157 51 147 49 144 48 133 44 129 40 128 38 128 28 133 16 137 12 164 0 203 0 "/><path d="M8 186 18 188 32 195 37 200 59 223 65 233 73 248 73 249 22 249 18 248 16 247 0 215 0 193 1 186 8 186 "/><path d="M249 52 249 146 246 149 242 151 240 151 231 142 215 115 214 108 218 86 224 64 225 61 226 59 227 58 229 57 248 52 249 52 "/></svg>