<svg width="256" height="256" xmlns="http://www.w3.org/2000/svg" fill-opacity="0" stroke="black" stroke-width="3" ><path d="M130 55 140 58 165 69 178 75 179 76 189 89 189 90 188 135 170 162 164 169 161 172 131 183 122 183 103 179 87 170 86 169 69 144 46 95 46 92 47 86 56 73 66 59 68 57 73 56 125 55 130 55 "/><path d="M44 0 49 7 49 8 47 18 43 24 39 28 30 36 27 38 14 43 9 43 2 37 0 35 0 0 44 0 "/><path d="M71 216 79 220 82 222 90 229 91 230 93 234 94 244 94 245 93 249 36 249 36 245 40 233 42 230 45 226 46 225 50 222 53 220 57 218 65 216 71 216 "/><path d="M173 231 202 232 204 233 219 245 221 249 163 249 158 245 154 240 155 238 160 233 162 232 168 231 173 231 "/><path d="M45 117 68 177 69 190 68 191 67 191 61 188 51 181 49 179 47 176 43 169 38 160 37 158 36 155 34 147 33 138 33 137 34 130 41 118 43 116 45 117 "/><path d="M194 100 197 102 202 107 203 110 206 128 207 151 207 158 204 166 201 171 199 173 192 160 190 119 190 102 191 100 194 100 "/></svg>