<svg width="256" height="256" xmlns="http://www.w3.org/2000/svg" fill-opacity="0" stroke="black" stroke-width="3" ><path d="M104 45 179 57 195 70 203 78 207 86 211 101 212 115 212 139 211 145 209 152 203 164 194 181 190 186 181 196 173 203 166 208 153 216 133 223 128 224 115 226 112 226 82 218 58 194 49 184 47 181 41 171 37 164 36 161 34 154 32 145 31 136 32 111 47 91 74 58 77 55 80 53 93 45 104 45 "/><path d="M65 0 65 2 59 33 51 61 46 68 45 69 43 69 2 68 0 56 0 0 65 0 "/><path d="M8 180 18 181 24 183 29 185 36 190 41 195 43 198 46 203 47 205 48 214 48 218 47 229 41 241 35 247 30 249 0 249 0 180 8 180 "/><path d="M216 0 217 6 217 8 213 12 193 20 178 20 166 16 155 12 154 11 153 3 153 0 216 0 "/></svg>