<svg width="256" height="256" xmlns="http://www.w3.org/2000/svg" fill-opacity="0" stroke="black" stroke-width="3" ><path d="M120 30 133 31 156 45 172 79 175 98 175 101 173 176 168 186 166 188 154 199 151 200 140 203 128 204 124 204 101 202 94 195 87 186 77 153 72 131 72 130 73 123 76 113 77 110 91 79 119 30 120 30 "/><path d="M28 18 35 25 46 55 48 73 48 74 45 92 42 108 41 110 40 111 39 111 15 103 15 102 25 21 26 19 27 18 28 18 "/><path d="M42 154 44 157 46 161 47 164 52 180 54 188 55 194 56 203 56 216 55 220 54 223 51 228 47 233 41 240 31 240 29 238 27 235 26 233 25 230 25 226 38 152 39 151 42 154 "/></svg>