<svg width="256" height="256" xmlns="http://www.w3.org/2000/svg" fill-opacity="0" stroke="black" stroke-width="3" ><path d="M101 40 121 47 131 52 178 78 196 111 196 112 182 156 154 204 153 205 151 206 123 211 93 209 90 208 81 204 53 191 51 190 49 188 44 172 33 93 33 91 34 78 35 76 37 73 51 56 52 55 84 40 101 40 "/><path d="M222 0 224 5 226 14 226 29 221 40 217 46 208 55 204 57 193 59 175 59 169 57 159 52 154 47 149 41 140 26 137 17 137 0 222 0 "/><path d="M7 74 11 77 13 79 16 84 18 97 18 106 17 111 16 114 14 118 12 120 10 120 0 119 0 74 7 74 "/></svg>