<svg width="256" height="256" xmlns="http://www.w3.org/2000/svg" fill-opacity="0" stroke="black" stroke-width="3" ><path d="M120 43 129 44 135 45 149 49 165 56 167 57 173 63 175 66 179 73 180 76 182 84 183 89 185 117 187 146 187 151 185 163 178 180 173 186 167 192 161 196 159 197 140 206 131 209 127 210 126 210 110 206 103 202 77 180 68 171 58 155 54 143 52 129 51 113 51 94 52 88 56 78 63 68 72 58 84 51 88 49 103 44 115 43 120 43 "/><path d="M246 32 249 33 249 147 244 152 240 152 237 151 235 150 225 141 224 140 218 133 215 129 212 114 208 72 208 67 214 51 216 46 232 35 236 33 242 32 246 32 "/><path d="M37 152 39 153 39 158 33 174 26 183 21 189 20 190 10 196 3 200 0 201 0 151 3 150 37 152 "/><path d="M25 229 41 237 44 244 44 245 41 246 19 249 0 249 0 225 3 222 25 229 "/></svg>