<svg width="256" height="256" xmlns="http://www.w3.org/2000/svg" fill-opacity="0" stroke="black" stroke-width="3" ><path d="M117 64 152 72 154 73 164 79 173 87 175 89 184 104 190 120 190 125 188 137 183 155 182 158 178 165 177 166 144 186 138 186 106 183 101 182 96 178 78 161 75 157 74 155 67 139 63 98 63 94 76 77 78 75 99 67 109 64 117 64 "/><path d="M249 0 249 92 243 96 241 97 236 99 226 98 218 94 207 88 202 84 201 83 192 69 185 57 183 53 181 45 181 39 184 26 196 10 205 0 249 0 "/><path d="M193 0 185 12 182 15 176 18 108 22 103 22 87 19 78 16 75 13 68 0 193 0 "/><path d="M176 227 187 229 232 240 234 241 236 243 234 249 156 249 156 248 157 244 159 241 162 237 166 233 175 227 176 227 "/></svg>