<svg width="256" height="256" xmlns="http://www.w3.org/2000/svg" fill-opacity="0" stroke="black" stroke-width="3" ><path d="M97 0 142 31 147 35 222 106 227 111 249 187 249 249 154 249 109 237 34 154 30 141 30 101 37 45 39 35 47 0 97 0 "/><path d="M203 0 205 6 211 34 211 35 210 39 209 41 192 49 184 52 181 53 173 53 170 52 162 46 156 40 151 34 150 25 150 7 151 2 152 0 203 0 "/><path d="M30 0 31 4 33 49 33 52 21 75 8 86 0 90 0 0 30 0 "/><path d="M3 162 6 167 7 169 18 195 19 199 19 211 18 242 17 249 0 249 0 162 3 162 "/></svg>