<svg width="256" height="256" xmlns="http://www.w3.org/2000/svg" fill-opacity="0" stroke="black" stroke-width="3" ><path d="M170 0 181 3 194 7 200 9 202 10 206 13 220 29 238 56 240 60 244 70 245 74 245 75 244 96 243 103 242 109 239 118 235 126 233 129 228 135 224 138 210 148 204 152 199 155 197 156 194 157 190 158 180 160 166 162 165 162 154 160 145 158 133 154 124 149 120 146 113 139 109 133 80 70 78 62 78 57 80 50 84 42 91 29 95 23 108 10 111 8 119 4 136 0 170 0 "/><path d="M59 79 66 83 77 100 80 105 83 111 85 119 85 121 76 143 70 152 50 168 40 172 32 172 28 171 25 170 21 168 16 165 13 163 10 160 4 145 3 134 3 120 7 110 13 103 23 92 26 89 56 79 59 79 "/><path d="M37 0 41 3 42 5 42 8 30 28 22 41 11 54 9 55 6 56 2 57 0 57 0 0 37 0 "/></svg>