<svg width="256" height="256" xmlns="http://www.w3.org/2000/svg" fill-opacity="0" stroke="black" stroke-width="3" ><path d="M146 44 153 46 160 49 171 54 179 59 189 69 199 83 201 87 203 96 205 108 208 137 212 184 211 191 187 212 179 217 173 220 167 222 157 223 145 223 137 221 122 213 79 182 61 167 57 163 54 157 52 152 45 130 44 125 44 109 47 100 52 92 54 89 57 86 63 81 92 59 111 53 140 44 146 44 "/><path d="M24 179 52 181 62 183 69 188 87 202 111 221 117 227 122 236 125 249 1 249 0 248 0 208 5 196 10 186 17 179 24 179 "/><path d="M81 0 87 12 88 15 89 19 90 24 90 26 88 46 82 53 79 56 77 57 69 59 59 61 58 61 48 59 44 57 36 52 28 44 22 36 19 31 18 27 17 21 15 7 15 0 81 0 "/><path d="M246 0 246 8 245 10 240 16 239 17 235 20 233 21 230 21 218 19 208 14 202 8 199 2 199 0 246 0 "/></svg>