<svg width="256" height="256" xmlns="http://www.w3.org/2000/svg" fill-opacity="0" stroke="black" stroke-width="3" ><path d="M156 52 160 53 162 54 169 58 175 64 180 72 183 79 186 87 187 93 187 106 186 112 185 117 184 120 174 143 172 147 138 186 132 192 128 194 113 198 109 199 106 199 103 198 87 190 79 184 77 182 74 177 62 141 61 136 56 109 56 106 61 100 62 99 70 93 116 65 137 53 151 52 156 52 "/><path d="M220 159 224 160 241 167 242 168 249 185 249 214 188 231 175 228 158 204 158 201 161 193 171 179 174 175 180 169 184 166 188 164 196 161 219 159 220 159 "/><path d="M7 130 17 133 21 135 31 143 34 146 42 167 42 168 40 176 37 182 33 186 28 188 25 189 18 189 15 188 13 187 6 173 0 156 0 131 4 130 7 130 "/><path d="M249 100 248 101 239 101 223 90 221 88 220 76 220 75 221 71 223 65 229 52 233 44 236 39 246 25 249 22 249 100 "/><path d="M19 79 21 81 24 87 27 96 26 101 24 107 23 109 22 110 18 112 13 114 4 114 0 112 0 79 19 79 "/></svg>