<svg width="256" height="256" xmlns="http://www.w3.org/2000/svg" fill-opacity="0" stroke="black" stroke-width="3" ><path d="M100 59 139 61 153 65 175 76 179 79 186 89 192 99 194 110 194 136 191 155 187 179 186 182 182 191 180 193 174 198 172 199 157 206 122 206 108 204 95 199 85 193 78 184 72 175 64 159 61 151 60 148 58 141 55 117 54 108 54 87 67 77 94 60 96 59 100 59 "/><path d="M49 0 49 7 47 13 43 21 35 35 31 39 17 49 8 54 0 57 0 0 49 0 "/><path d="M18 207 41 210 45 214 49 233 49 234 47 242 46 244 41 249 0 249 0 211 2 210 17 207 18 207 "/></svg>