<svg width="256" height="256" xmlns="http://www.w3.org/2000/svg" fill-opacity="0" stroke="black" stroke-width="3" ><path d="M121 42 141 46 151 49 165 55 177 61 179 63 191 79 193 83 197 106 197 110 195 125 193 136 191 143 180 165 175 173 172 176 159 187 138 203 132 207 126 208 123 208 121 207 116 204 77 168 76 167 54 143 53 130 53 123 57 106 62 86 66 74 68 70 95 47 115 42 121 42 "/><path d="M198 195 208 198 211 200 222 209 226 217 226 223 225 231 223 238 222 240 215 249 150 249 150 246 151 223 152 219 159 211 165 205 176 196 184 195 198 195 "/><path d="M31 209 41 210 45 211 47 212 50 214 50 215 49 219 35 233 20 246 15 248 10 249 0 249 0 222 1 220 29 209 31 209 "/><path d="M60 211 84 224 87 226 88 227 95 236 83 246 75 249 64 249 62 247 61 245 53 226 53 221 57 211 60 211 "/><path d="M3 47 14 56 16 59 20 71 20 74 19 80 17 89 13 95 0 101 0 45 3 47 "/></svg>