<svg width="256" height="256" xmlns="http://www.w3.org/2000/svg" fill-opacity="0" stroke="black" stroke-width="3" ><path d="M170 51 173 52 181 57 198 69 212 100 215 108 217 122 218 132 218 137 217 150 211 173 209 180 203 192 191 204 185 208 169 218 161 222 144 226 121 228 111 228 97 226 83 219 61 203 46 185 39 168 36 158 34 149 33 138 33 121 34 114 36 103 38 97 40 93 46 84 50 79 58 70 66 63 75 60 79 59 157 49 170 51 "/><path d="M6 182 21 183 25 185 32 190 40 198 45 207 45 223 43 226 38 232 35 234 18 245 12 246 2 246 0 245 0 183 4 182 6 182 "/></svg>