<svg width="256" height="256" xmlns="http://www.w3.org/2000/svg" fill-opacity="0" stroke="black" stroke-width="3" ><path d="M149 45 168 52 187 67 191 71 201 89 217 123 218 129 219 137 219 140 217 146 213 152 194 173 187 180 184 182 177 185 123 196 117 197 98 197 90 196 87 195 73 190 66 187 62 185 57 182 54 180 49 172 43 160 40 147 40 137 44 122 45 119 54 101 58 94 61 89 64 86 104 53 109 50 113 48 131 45 149 45 "/><path d="M15 124 17 125 22 128 28 133 29 137 36 198 36 200 33 207 31 209 29 210 5 216 0 216 0 125 1 124 15 124 "/><path d="M182 208 194 211 199 213 207 218 212 223 213 226 213 231 211 244 210 246 207 249 117 249 117 248 123 236 124 235 169 210 175 208 182 208 "/><path d="M234 15 236 16 241 19 249 24 249 71 235 71 232 70 230 69 225 66 216 60 212 57 206 51 203 46 203 44 204 38 206 31 209 27 211 25 219 19 227 15 234 15 "/><path d="M48 42 53 44 55 45 55 48 37 68 32 70 29 71 12 76 8 76 1 71 0 70 0 49 1 48 10 44 41 40 48 42 "/><path d="M56 0 66 14 66 16 63 20 50 35 40 31 12 8 11 7 8 1 8 0 56 0 "/></svg>