<svg width="256" height="256" xmlns="http://www.w3.org/2000/svg" fill-opacity="0" stroke="black" stroke-width="3" ><path d="M102 25 126 29 142 34 157 39 167 43 169 44 219 89 227 97 229 102 229 106 228 109 197 201 196 203 194 206 193 207 189 210 186 212 152 230 149 231 147 231 105 212 90 205 61 180 60 179 57 175 55 171 44 145 40 128 39 100 42 88 55 43 56 41 69 33 73 31 81 28 84 27 96 25 102 25 "/><path d="M249 0 249 81 243 80 241 79 236 76 230 70 212 40 203 22 202 18 202 13 203 2 208 0 249 0 "/><path d="M249 245 240 236 234 226 228 214 224 203 222 197 222 188 224 173 229 163 232 159 240 152 246 147 249 145 249 245 "/><path d="M87 0 79 8 71 14 62 20 50 26 41 28 28 30 27 30 17 28 13 26 12 25 8 19 7 17 6 13 6 11 8 7 13 2 16 0 87 0 "/><path d="M166 0 165 2 153 16 145 18 135 18 123 16 115 10 113 8 110 1 110 0 166 0 "/></svg>