<svg width="256" height="256" xmlns="http://www.w3.org/2000/svg" fill-opacity="0" stroke="black" stroke-width="3" ><path d="M139 11 154 15 177 25 194 38 198 42 206 53 210 60 212 64 214 73 216 87 216 101 214 108 200 141 197 147 195 150 188 157 180 161 174 163 134 168 128 168 122 167 119 166 117 165 45 118 44 116 40 93 40 87 41 80 43 74 45 69 58 40 59 38 67 30 73 27 108 14 111 13 119 11 139 11 "/><path d="M45 150 52 151 66 154 68 155 72 158 79 165 80 167 90 195 91 198 90 203 75 238 73 242 71 245 70 246 68 247 60 249 35 249 0 239 0 160 35 151 42 150 45 150 "/><path d="M163 213 168 214 237 232 246 245 247 247 247 249 128 249 127 247 126 242 126 226 127 224 129 221 131 219 137 215 161 213 163 213 "/><path d="M249 126 249 202 246 203 242 202 240 201 233 196 229 191 228 189 224 179 224 161 228 152 230 148 244 130 248 126 249 126 "/><path d="M1 7 9 20 15 32 17 37 19 50 19 54 18 64 16 75 15 78 10 88 2 99 0 100 0 6 1 7 "/></svg>