<svg width="256" height="256" xmlns="http://www.w3.org/2000/svg" fill-opacity="0" stroke="black" stroke-width="3" ><path d="M142 34 162 45 170 53 208 137 212 147 214 154 215 161 216 172 216 182 214 185 195 201 190 205 177 212 165 213 157 213 83 178 77 175 74 172 65 161 62 157 58 146 56 138 54 123 52 105 52 104 53 101 54 99 58 93 95 45 96 44 102 42 121 36 127 35 141 34 142 34 "/><path d="M249 8 249 62 247 67 238 79 237 80 222 92 193 81 191 79 190 66 189 39 189 31 204 16 207 14 221 9 241 8 249 8 "/><path d="M82 0 82 4 80 15 78 17 69 25 65 27 59 27 48 22 46 21 45 16 45 9 52 3 58 0 82 0 "/></svg>