<svg width="256" height="256" xmlns="http://www.w3.org/2000/svg" fill-opacity="0" stroke="black" stroke-width="3" ><path d="M138 57 148 59 176 73 180 77 183 81 185 85 188 92 189 95 190 138 190 159 183 175 178 184 169 195 161 201 159 202 154 204 147 206 117 213 99 207 88 201 87 200 60 162 54 153 53 151 51 144 51 127 53 114 59 95 61 92 65 87 73 79 87 69 93 65 99 63 112 59 116 58 124 57 138 57 "/><path d="M17 167 21 168 24 170 32 176 35 179 39 188 41 199 40 213 39 216 36 222 31 227 26 230 19 232 7 234 0 232 0 167 17 167 "/><path d="M249 31 249 114 241 109 238 106 232 95 231 93 229 87 228 79 228 76 229 55 231 46 232 42 244 29 249 31 "/></svg>