<svg width="256" height="256" xmlns="http://www.w3.org/2000/svg" fill-opacity="0" stroke="black" stroke-width="3" ><path d="M105 53 123 55 161 61 165 62 177 68 193 79 199 90 201 94 205 103 208 124 208 133 207 156 204 170 193 182 183 191 171 201 167 204 162 206 158 207 142 210 120 212 101 212 95 211 79 206 76 205 56 192 55 191 48 182 47 180 43 170 37 140 34 120 34 118 36 105 38 97 46 81 55 72 79 59 84 57 90 55 102 53 105 53 "/><path d="M166 0 166 1 151 16 141 25 131 28 125 28 107 24 104 23 90 15 86 12 85 11 79 3 79 0 166 0 "/><path d="M249 97 247 101 246 102 243 100 239 96 224 80 216 67 216 56 227 45 231 42 234 41 235 41 249 47 249 97 "/></svg>