<svg width="256" height="256" xmlns="http://www.w3.org/2000/svg" fill-opacity="0" stroke="black" stroke-width="3" ><path d="M138 39 144 41 189 64 192 67 193 69 202 92 202 95 196 145 192 155 181 177 150 233 144 243 131 249 74 249 58 238 48 228 47 226 44 215 43 136 43 133 44 128 50 108 54 101 63 89 85 61 94 53 103 48 105 47 124 39 138 39 "/><path d="M18 0 46 28 59 47 59 56 57 62 53 73 47 86 44 92 32 110 28 113 26 114 23 115 19 116 18 116 14 114 0 105 0 0 18 0 "/><path d="M4 117 7 119 17 135 21 144 23 149 27 166 28 173 29 185 29 195 25 206 24 208 21 213 19 216 9 228 5 230 2 230 0 229 0 117 4 117 "/></svg>