<svg width="256" height="256" xmlns="http://www.w3.org/2000/svg" fill-opacity="0" stroke="black" stroke-width="3" ><path d="M142 54 164 56 182 59 183 60 191 73 200 88 203 96 206 121 206 123 201 138 193 154 189 160 180 173 178 175 169 182 165 185 156 191 145 198 141 198 134 197 117 193 102 187 98 185 81 172 77 168 67 149 66 146 63 131 62 125 62 117 63 109 64 106 68 97 85 73 87 71 90 69 98 64 118 57 122 56 139 54 142 54 "/><path d="M68 191 80 194 89 198 105 207 130 230 131 231 133 235 133 249 0 249 0 237 3 218 14 208 21 203 29 198 36 195 39 194 43 193 48 192 54 191 68 191 "/><path d="M86 0 87 2 87 5 83 15 76 23 72 26 62 29 51 32 42 29 40 28 27 15 24 10 23 4 23 0 86 0 "/></svg>