<svg width="256" height="256" xmlns="http://www.w3.org/2000/svg" fill-opacity="0" stroke="black" stroke-width="3" ><path d="M122 44 126 46 132 50 194 96 200 102 204 110 206 119 207 128 207 140 206 147 185 223 180 229 178 230 177 230 171 229 102 207 96 205 49 179 37 171 35 169 35 167 50 94 56 78 57 76 72 60 74 58 78 55 83 52 91 48 111 45 118 44 122 44 "/><path d="M37 199 59 200 68 205 74 213 76 219 76 220 67 247 66 249 0 249 0 215 2 213 21 203 34 199 37 199 "/><path d="M121 0 122 3 120 10 119 13 117 17 115 19 106 25 98 29 91 31 84 32 80 32 61 31 46 25 42 23 39 21 35 18 33 16 27 9 23 1 23 0 121 0 "/><path d="M197 0 199 2 200 5 195 43 193 57 192 60 188 63 168 63 160 57 155 48 154 46 149 23 149 18 151 4 153 0 197 0 "/><path d="M118 222 131 226 134 227 153 236 157 238 161 241 164 244 164 249 81 249 81 248 83 243 87 237 92 233 109 223 112 222 118 222 "/><path d="M249 0 249 54 248 54 237 49 235 48 233 45 232 43 219 15 219 12 223 0 249 0 "/></svg>