<svg width="256" height="256" xmlns="http://www.w3.org/2000/svg" fill-opacity="0" stroke="black" stroke-width="3" ><path d="M11 34 54 40 156 64 170 81 186 110 186 127 175 186 171 189 131 207 119 207 101 195 0 120 0 40 4 36 10 34 11 34 "/><path d="M83 208 85 209 107 221 115 231 125 249 0 249 0 210 2 209 77 208 83 208 "/><path d="M171 0 170 2 167 5 129 23 112 31 99 36 92 36 71 34 69 33 64 28 56 18 54 15 50 6 50 4 51 0 171 0 "/><path d="M207 204 209 205 229 222 239 231 241 233 243 236 244 238 244 240 242 243 229 249 188 249 176 236 174 233 174 229 179 215 201 204 207 204 "/><path d="M152 218 174 246 176 249 136 249 135 245 132 231 132 224 133 222 137 218 140 216 152 218 "/></svg>