<svg width="256" height="256" xmlns="http://www.w3.org/2000/svg" fill-opacity="0" stroke="black" stroke-width="3" ><path d="M156 54 168 58 180 70 183 75 195 108 195 112 191 146 189 156 187 162 183 169 165 187 156 192 152 194 149 195 138 198 122 198 111 197 102 195 98 194 89 191 87 190 78 185 72 181 71 180 62 169 55 159 54 153 54 141 55 130 56 125 60 106 82 76 104 62 112 58 119 56 129 54 156 54 "/><path d="M5 16 59 35 61 36 67 42 69 55 69 61 68 66 67 70 64 76 58 83 56 85 49 90 41 94 34 97 5 97 3 96 0 93 0 15 5 16 "/></svg>