<svg width="256" height="256" xmlns="http://www.w3.org/2000/svg" fill-opacity="0" stroke="black" stroke-width="3" ><path d="M142 58 162 63 165 64 182 74 185 76 198 88 205 102 208 112 210 135 210 144 198 174 191 181 180 189 97 249 80 249 67 239 53 220 39 159 38 147 38 135 39 126 49 106 59 92 62 88 63 87 77 75 83 71 91 66 93 65 107 60 133 57 142 58 "/><path d="M249 68 249 146 246 146 244 145 234 138 226 130 221 121 216 111 214 105 213 101 213 98 218 85 221 81 228 74 233 71 235 70 243 68 249 68 "/><path d="M21 188 37 198 44 205 54 231 54 234 52 248 49 249 25 249 19 188 21 188 "/></svg>