<svg width="256" height="256" xmlns="http://www.w3.org/2000/svg" fill-opacity="0" stroke="black" stroke-width="3" ><path d="M165 66 168 69 172 78 172 81 170 134 154 183 152 189 149 192 133 203 131 204 130 204 92 202 74 201 67 200 57 196 48 190 33 175 31 172 28 164 26 158 25 141 25 140 26 134 27 129 29 123 31 119 34 115 39 109 43 105 107 61 110 59 143 55 165 66 "/><path d="M118 222 148 226 157 229 158 230 160 241 160 249 57 249 57 246 58 242 59 239 61 235 63 232 68 227 81 223 112 222 118 222 "/><path d="M56 18 73 20 78 22 86 32 86 35 81 41 74 48 44 68 34 73 26 73 19 70 5 59 4 58 0 51 0 20 13 18 56 18 "/></svg>