<svg width="256" height="256" xmlns="http://www.w3.org/2000/svg" fill-opacity="0" stroke="black" stroke-width="3" ><path d="M128 45 135 46 149 49 159 52 170 57 175 61 185 72 187 75 197 92 198 94 201 101 204 114 204 134 203 146 199 158 195 166 191 172 188 176 187 177 51 182 46 180 44 178 43 176 33 155 32 152 30 139 30 129 32 115 33 111 36 103 39 99 42 96 53 86 60 81 80 67 96 56 111 47 113 46 116 45 128 45 "/><path d="M230 166 238 169 243 171 245 172 246 173 249 182 249 242 229 249 172 249 172 248 189 187 198 177 202 173 211 168 213 167 226 166 230 166 "/><path d="M6 141 8 142 13 146 15 148 23 157 29 164 35 179 36 187 36 201 35 207 27 222 25 224 13 232 10 233 3 234 0 234 0 141 6 141 "/><path d="M88 215 96 219 107 226 110 229 114 242 114 247 113 249 49 249 49 239 50 234 53 228 56 224 65 217 70 215 88 215 "/><path d="M93 0 94 7 94 12 86 40 84 42 78 42 47 19 46 15 46 14 51 2 53 0 93 0 "/></svg>