<svg width="256" height="256" xmlns="http://www.w3.org/2000/svg" fill-opacity="0" stroke="black" stroke-width="3" ><path d="M106 52 124 54 196 78 201 80 203 81 214 87 215 88 221 95 224 99 228 105 230 109 231 114 233 127 233 128 225 142 218 149 171 193 158 205 151 211 148 211 94 187 70 175 61 169 55 162 50 152 46 143 42 132 41 129 41 110 42 106 46 91 51 84 61 72 63 70 79 55 84 54 105 52 106 52 "/><path d="M90 199 97 200 164 217 171 221 186 230 189 233 198 248 198 249 24 249 32 237 46 218 65 207 67 206 72 204 87 199 90 199 "/><path d="M226 156 229 157 233 159 242 167 249 179 249 249 214 249 210 245 204 237 202 234 198 227 195 221 192 213 189 204 190 190 196 177 197 175 203 167 215 155 226 156 "/><path d="M2 85 4 86 14 94 41 175 45 205 45 210 22 233 10 243 0 248 0 85 2 85 "/></svg>