<svg width="256" height="256" xmlns="http://www.w3.org/2000/svg" fill-opacity="0" stroke="black" stroke-width="3" ><path d="M150 24 174 31 176 32 190 40 210 57 215 62 234 90 237 98 240 110 241 127 241 134 239 147 236 157 231 170 229 174 227 177 211 198 207 202 198 209 168 227 164 229 149 233 137 233 121 232 115 231 112 230 96 224 91 221 78 213 70 206 61 197 57 191 50 179 48 175 44 165 42 159 40 149 37 132 36 123 37 114 38 108 42 93 44 88 53 70 56 66 58 64 82 42 87 39 95 35 102 32 117 26 122 25 129 24 150 24 "/></svg>