<svg width="256" height="256" xmlns="http://www.w3.org/2000/svg" fill-opacity="0" stroke="black" stroke-width="3" ><path d="M96 59 134 68 168 79 228 108 228 111 227 123 226 127 225 129 189 169 183 175 180 176 172 178 151 182 135 182 129 181 123 179 88 166 77 159 74 155 70 149 69 147 52 109 50 104 50 87 53 72 54 69 94 59 96 59 "/><path d="M14 139 33 140 47 142 59 154 64 162 67 170 67 176 55 221 48 239 45 246 39 249 0 249 0 145 10 139 14 139 "/><path d="M233 147 249 149 249 249 217 249 215 246 200 218 199 215 197 194 202 174 207 164 210 160 214 156 218 153 225 149 230 147 233 147 "/><path d="M116 189 129 201 130 202 136 211 137 214 137 231 132 248 131 249 57 249 57 246 59 239 61 234 72 207 76 201 81 195 86 190 98 184 116 189 "/></svg>