<svg width="256" height="256" xmlns="http://www.w3.org/2000/svg" fill-opacity="0" stroke="black" stroke-width="3" ><path d="M105 37 120 38 132 39 139 41 151 45 162 50 172 55 174 57 192 76 201 87 206 96 210 104 211 107 213 116 213 129 212 144 208 157 203 165 201 168 195 176 189 183 184 188 179 192 165 203 163 204 135 217 129 217 108 215 104 214 98 212 84 206 80 204 72 198 58 185 50 177 46 172 36 156 35 154 32 145 30 137 29 131 28 123 28 120 30 104 31 99 32 95 35 89 40 80 43 75 45 72 57 59 66 50 72 46 83 41 93 37 105 37 "/><path d="M248 176 249 178 249 249 235 249 228 245 226 242 222 234 220 228 219 224 218 217 218 211 219 208 220 206 224 199 230 191 236 185 246 176 248 176 "/></svg>