<svg width="256" height="256" xmlns="http://www.w3.org/2000/svg" fill-opacity="0" stroke="black" stroke-width="3" ><path d="M112 50 129 51 132 52 143 58 148 62 156 70 164 81 167 86 168 88 170 95 176 120 177 128 177 130 168 149 163 158 145 176 140 180 133 183 124 186 114 187 113 187 103 185 95 181 91 177 85 169 46 113 44 110 41 105 40 103 40 91 43 87 44 86 75 62 88 53 110 50 112 50 "/><path d="M75 0 67 21 57 47 55 51 40 80 38 81 35 81 0 74 0 0 75 0 "/><path d="M22 117 26 118 31 120 40 124 45 129 46 131 49 140 49 141 48 145 42 155 40 157 13 181 0 171 0 118 20 117 22 117 "/></svg>