<svg width="256" height="256" xmlns="http://www.w3.org/2000/svg" fill-opacity="0" stroke="black" stroke-width="3" ><path d="M145 48 149 49 182 65 186 68 187 69 190 73 194 79 199 87 207 103 210 112 215 133 216 139 215 145 212 153 210 157 207 162 203 168 197 175 176 187 125 201 112 204 109 204 102 202 90 198 82 194 72 184 68 179 57 165 50 144 50 125 52 117 59 100 60 98 62 95 67 90 87 75 109 61 137 48 145 48 "/><path d="M124 0 127 8 127 27 126 31 122 36 121 37 48 104 41 106 37 106 30 104 1 78 0 77 0 0 124 0 "/><path d="M2 105 13 117 15 120 17 124 21 133 22 139 22 151 21 155 17 166 14 170 7 179 6 180 1 184 0 184 0 103 2 105 "/></svg>