<svg width="256" height="256" xmlns="http://www.w3.org/2000/svg" fill-opacity="0" stroke="black" stroke-width="3" ><path d="M152 44 172 45 190 54 202 62 228 87 229 88 235 97 236 99 235 104 234 107 180 160 171 166 167 168 160 169 149 170 140 170 125 164 112 157 103 148 94 136 92 133 90 129 89 126 86 111 85 104 85 98 88 87 94 74 95 72 97 69 106 59 115 51 125 46 129 45 141 44 152 44 "/><path d="M249 141 249 249 221 249 214 244 209 240 206 236 199 222 195 210 191 192 191 189 197 171 221 151 232 145 243 142 247 141 249 141 "/></svg>