<svg width="256" height="256" xmlns="http://www.w3.org/2000/svg" fill-opacity="0" stroke="black" stroke-width="3" ><path d="M147 38 161 41 165 42 170 46 173 50 175 53 200 129 201 133 200 247 199 249 98 249 92 239 85 225 43 129 42 125 40 113 40 100 41 93 42 90 44 86 46 83 55 71 56 70 108 40 110 39 121 38 147 38 "/><path d="M245 13 249 14 249 128 246 128 230 120 219 110 216 107 210 99 198 67 196 47 196 42 197 33 220 18 234 13 245 13 "/><path d="M9 146 13 148 17 151 33 167 37 172 38 174 45 192 45 199 38 217 37 219 35 222 33 224 31 225 27 226 18 227 16 227 14 226 0 218 0 161 4 149 8 146 9 146 "/></svg>