<svg width="256" height="256" xmlns="http://www.w3.org/2000/svg" fill-opacity="0" stroke="black" stroke-width="3" ><path d="M146 35 181 84 185 90 189 99 191 104 194 114 195 122 195 129 193 145 191 151 183 169 178 180 177 182 175 184 159 195 156 197 154 198 138 204 131 206 119 209 107 209 94 208 83 206 75 202 68 198 56 182 46 168 42 158 41 154 41 138 42 118 44 111 48 99 51 91 53 87 63 75 72 66 88 54 134 31 146 35 "/><path d="M10 39 22 50 25 53 27 57 28 76 28 93 27 99 23 118 17 134 14 140 3 161 1 164 0 164 0 32 10 39 "/></svg>