<svg width="256" height="256" xmlns="http://www.w3.org/2000/svg" fill-opacity="0" stroke="black" stroke-width="3" ><path d="M119 101 125 102 133 104 136 105 140 107 152 116 156 120 164 130 166 133 176 150 178 154 179 158 181 169 184 186 190 227 190 230 189 234 188 237 186 240 182 244 110 249 98 249 73 238 44 183 43 181 43 171 45 162 47 157 50 152 64 129 66 126 67 125 86 107 94 104 103 101 119 101 "/><path d="M249 0 249 27 246 32 241 37 238 39 199 58 194 60 187 61 174 62 159 62 147 58 143 56 132 46 126 39 121 32 116 13 115 4 115 0 249 0 "/><path d="M207 88 217 91 232 105 235 108 236 111 236 130 230 141 226 144 219 148 209 148 201 144 194 137 191 133 190 131 189 127 189 117 190 114 191 112 206 88 207 88 "/></svg>