<svg width="256" height="256" xmlns="http://www.w3.org/2000/svg" fill-opacity="0" stroke="black" stroke-width="3" ><path d="M89 57 118 64 174 94 181 98 194 116 196 120 196 132 195 136 194 139 184 163 181 169 161 194 159 196 143 205 134 208 88 213 85 213 83 212 41 187 23 166 19 160 19 141 20 138 33 104 41 91 44 87 49 81 52 78 76 58 87 57 89 57 "/><path d="M159 13 177 15 185 17 249 42 249 56 228 69 218 75 213 77 189 86 188 86 143 46 141 42 141 32 142 29 146 18 147 16 150 14 152 13 159 13 "/><path d="M249 83 249 160 240 165 237 166 235 166 215 147 213 145 211 122 211 115 217 99 220 95 223 92 226 90 228 89 237 85 243 83 247 82 249 83 "/><path d="M81 0 83 1 84 3 84 5 80 22 77 27 56 52 47 57 45 58 37 58 35 57 33 55 32 52 32 42 54 2 57 0 81 0 "/><path d="M28 197 32 199 42 205 52 213 52 215 50 240 48 244 43 249 18 249 13 243 23 197 28 197 "/></svg>