<svg width="256" height="256" xmlns="http://www.w3.org/2000/svg" fill-opacity="0" stroke="black" stroke-width="3" ><path d="M132 49 147 51 162 57 165 59 170 63 184 77 188 83 194 94 196 99 198 106 200 135 200 141 199 143 198 144 178 162 136 195 128 200 119 205 117 206 116 206 99 202 93 199 58 171 55 167 53 164 49 156 47 144 47 118 48 108 49 103 51 97 54 91 59 83 61 81 90 59 93 57 95 56 110 51 117 49 132 49 "/><path d="M159 214 170 216 202 223 208 227 224 241 229 248 229 249 127 249 127 244 128 238 129 234 131 227 133 224 141 218 149 215 152 214 159 214 "/><path d="M1 104 6 105 12 107 14 108 19 111 22 113 28 119 30 122 30 139 29 144 25 155 24 157 13 168 7 171 1 172 0 172 0 104 1 104 "/></svg>