<svg width="256" height="256" xmlns="http://www.w3.org/2000/svg" fill-opacity="0" stroke="black" stroke-width="3" ><path d="M129 45 151 50 155 51 165 56 183 70 184 71 193 91 195 96 197 103 199 111 200 124 200 132 196 153 187 166 162 195 160 197 149 205 118 207 117 207 111 206 92 199 81 192 62 175 52 165 50 161 49 158 44 132 44 126 48 109 56 95 72 71 73 70 83 62 86 60 113 48 125 45 129 45 "/><path d="M1 18 9 25 17 43 20 70 20 72 13 96 12 97 10 97 0 95 0 18 1 18 "/><path d="M245 156 246 157 249 162 249 173 246 176 240 181 179 222 169 228 167 227 166 226 164 221 164 220 169 211 219 172 243 156 245 156 "/></svg>