<svg width="256" height="256" xmlns="http://www.w3.org/2000/svg" fill-opacity="0" stroke="black" stroke-width="3" ><path d="M136 24 161 26 167 27 178 30 189 34 197 40 206 47 215 56 217 59 224 94 234 145 235 151 233 161 231 166 228 172 222 182 219 186 216 189 180 218 176 221 174 222 158 228 152 230 138 233 120 234 119 234 89 229 77 226 74 225 55 213 44 203 37 196 31 189 29 186 23 174 20 166 18 152 18 139 22 117 24 109 25 106 31 94 35 87 41 79 45 74 46 73 53 67 60 62 124 26 134 24 136 24 "/><path d="M7 184 86 247 86 249 0 249 0 185 3 184 7 184 "/><path d="M83 0 80 2 50 20 47 21 45 21 26 20 11 15 0 4 0 2 1 0 83 0 "/></svg>