<svg width="256" height="256" xmlns="http://www.w3.org/2000/svg" fill-opacity="0" stroke="black" stroke-width="3" ><path d="M226 49 227 59 217 136 213 155 209 173 208 175 191 206 189 208 125 249 48 249 0 150 0 92 1 91 86 64 112 59 223 44 226 49 "/><path d="M143 0 144 1 147 7 148 23 145 33 144 35 137 42 122 51 114 55 100 59 99 59 82 54 77 52 61 35 52 10 51 7 50 3 50 0 143 0 "/><path d="M6 0 13 4 15 6 22 18 24 22 25 25 26 35 26 36 22 49 19 58 17 61 7 75 3 79 1 80 0 80 0 0 6 0 "/><path d="M230 207 232 208 235 211 245 231 245 232 239 243 237 246 232 249 222 249 210 227 210 223 212 219 215 214 222 209 225 208 229 207 230 207 "/><path d="M249 118 247 116 244 112 241 107 236 98 235 75 236 71 238 67 242 61 249 57 249 118 "/></svg>