<svg width="256" height="256" xmlns="http://www.w3.org/2000/svg" fill-opacity="0" stroke="black" stroke-width="3" ><path d="M111 11 114 12 120 16 189 78 192 81 196 86 200 95 203 113 204 125 204 132 203 136 191 167 188 170 134 207 126 211 125 211 68 173 65 170 53 157 40 139 35 129 34 126 33 109 33 105 34 96 35 92 40 81 46 73 75 36 77 34 92 20 99 14 105 11 111 11 "/><path d="M249 0 249 56 244 61 238 65 228 69 221 71 203 71 195 69 178 60 166 51 147 35 142 30 140 26 135 15 133 7 132 0 249 0 "/><path d="M249 96 249 249 233 249 231 247 223 238 214 227 211 223 208 218 206 212 200 166 200 162 216 119 218 115 224 109 243 96 249 96 "/></svg>