<svg width="256" height="256" xmlns="http://www.w3.org/2000/svg" fill-opacity="0" stroke="black" stroke-width="3" ><path d="M106 50 148 52 164 56 175 59 221 87 224 91 225 93 225 98 217 144 215 151 178 249 93 249 76 239 20 199 19 198 18 196 8 166 7 161 7 152 8 147 9 143 10 141 41 99 44 95 55 82 64 72 65 71 71 66 81 59 90 53 100 50 106 50 "/><path d="M224 201 229 203 232 205 237 209 239 211 246 219 249 229 249 249 189 249 197 216 201 209 208 202 210 201 215 200 224 201 "/><path d="M6 215 9 216 34 226 37 228 41 232 45 237 47 243 47 249 0 249 0 216 4 215 6 215 "/></svg>