<svg width="256" height="256" xmlns="http://www.w3.org/2000/svg" fill-opacity="0" stroke="black" stroke-width="3" ><path d="M164 0 174 2 178 3 190 11 194 14 201 20 213 31 216 34 221 40 223 43 224 45 225 48 226 61 225 65 187 136 184 139 180 142 174 146 163 150 152 152 137 152 123 150 118 149 104 142 94 135 88 130 79 122 74 115 72 110 69 102 66 93 64 80 64 70 65 53 66 48 68 43 72 37 83 23 95 11 100 7 103 5 113 0 164 0 "/><path d="M249 111 249 199 236 188 221 175 220 174 213 164 212 162 224 137 227 131 236 114 239 111 249 111 "/></svg>