<svg width="256" height="256" xmlns="http://www.w3.org/2000/svg" fill-opacity="0" stroke="black" stroke-width="3" ><path d="M23 0 36 2 144 29 155 34 187 49 190 51 204 62 211 69 215 75 227 100 227 104 225 130 223 134 218 141 170 205 167 206 154 209 125 208 117 207 112 206 104 204 92 200 82 196 80 195 70 188 0 136 0 0 23 0 "/><path d="M23 175 39 177 50 184 53 186 60 193 65 200 69 207 71 214 72 235 71 243 69 249 0 249 0 177 5 176 21 175 23 175 "/><path d="M238 0 239 1 237 8 230 27 228 30 224 35 217 41 211 44 208 45 202 45 193 42 175 34 154 24 148 16 143 9 142 6 142 1 143 0 238 0 "/><path d="M242 167 249 168 249 249 221 249 202 198 201 195 201 184 205 176 210 171 213 170 229 168 238 167 242 167 "/><path d="M143 212 148 213 169 225 172 227 174 229 177 233 187 249 85 249 96 232 97 231 105 225 116 219 118 218 140 212 143 212 "/></svg>