<svg width="256" height="256" xmlns="http://www.w3.org/2000/svg" fill-opacity="0" stroke="black" stroke-width="3" ><path d="M171 55 177 56 249 79 249 209 246 210 242 210 103 201 97 198 80 179 76 174 70 164 63 148 58 125 57 120 54 103 53 97 53 93 61 77 64 74 77 63 87 59 96 56 126 53 171 55 "/><path d="M19 99 20 100 42 205 42 206 41 213 33 223 31 225 25 227 0 227 0 105 17 99 19 99 "/><path d="M101 207 125 218 133 226 137 231 140 236 140 241 139 249 28 249 28 247 35 238 38 235 47 230 90 208 94 207 101 207 "/><path d="M198 0 199 3 203 24 199 40 170 45 169 45 133 42 109 29 106 27 103 24 102 22 99 15 99 13 102 0 198 0 "/><path d="M241 212 247 213 249 215 249 249 172 249 172 248 175 245 181 240 184 238 200 230 239 212 241 212 "/><path d="M18 0 24 6 29 20 29 29 25 38 19 44 0 58 0 4 11 0 18 0 "/><path d="M82 7 86 8 87 9 109 32 109 35 91 44 90 44 71 39 66 35 53 20 51 16 51 13 58 7 82 7 "/></svg>