<svg width="256" height="256" xmlns="http://www.w3.org/2000/svg" fill-opacity="0" stroke="black" stroke-width="3" ><path d="M146 24 163 27 169 29 173 31 189 43 196 50 199 54 204 61 208 69 209 72 210 78 215 147 215 154 212 158 156 180 94 190 92 190 79 182 62 169 61 167 60 164 50 130 50 121 51 112 54 99 69 65 71 61 74 58 94 41 102 35 120 27 126 25 131 24 146 24 "/><path d="M16 45 22 48 25 50 33 57 35 59 39 66 43 74 44 77 44 87 36 134 35 137 34 139 30 144 23 151 15 156 12 157 2 160 0 160 0 49 14 45 16 45 "/><path d="M63 188 67 189 69 190 87 203 89 206 100 223 101 235 101 240 100 243 95 249 32 249 32 248 52 195 59 188 63 188 "/></svg>