<svg width="256" height="256" xmlns="http://www.w3.org/2000/svg" fill-opacity="0" stroke="black" stroke-width="3" ><path d="M249 0 249 57 208 180 181 193 174 196 152 204 146 206 119 214 114 215 106 216 103 216 93 215 89 214 82 211 76 208 72 205 49 185 25 112 25 110 30 95 40 74 57 51 62 46 124 0 249 0 "/><path d="M18 0 35 10 37 12 42 20 43 22 47 34 47 48 39 64 32 75 30 77 8 77 0 67 0 0 18 0 "/><path d="M13 117 15 118 16 119 23 128 25 131 31 143 32 146 33 150 34 155 33 171 31 180 26 190 18 199 14 199 8 197 2 194 0 191 0 123 3 120 11 117 13 117 "/></svg>