<svg width="256" height="256" xmlns="http://www.w3.org/2000/svg" fill-opacity="0" stroke="black" stroke-width="3" ><path d="M106 34 135 42 162 54 183 68 186 71 190 76 202 99 203 101 204 104 204 113 203 128 200 138 196 148 194 152 178 171 174 175 168 180 159 187 138 196 31 211 27 211 19 208 13 204 9 200 6 194 3 182 3 174 4 171 8 162 44 87 54 68 61 58 64 55 79 44 82 42 93 37 102 34 106 34 "/><path d="M249 226 244 226 238 222 213 198 208 193 208 189 210 176 214 154 221 138 224 133 249 114 249 226 "/><path d="M75 0 75 1 74 6 63 41 62 43 46 59 43 61 33 66 30 67 25 68 15 67 0 47 0 40 13 21 31 0 75 0 "/><path d="M167 0 210 12 213 14 220 19 220 26 219 30 218 33 217 35 216 36 213 38 208 41 204 42 198 42 190 41 187 40 173 34 171 33 165 28 142 7 138 3 137 0 167 0 "/></svg>