<svg width="256" height="256" xmlns="http://www.w3.org/2000/svg" fill-opacity="0" stroke="black" stroke-width="3" ><path d="M85 40 158 42 210 88 218 96 238 122 242 129 244 137 244 143 242 149 225 185 222 188 135 214 120 215 113 215 91 209 79 202 76 200 72 197 68 193 62 186 54 175 37 147 25 123 19 108 18 105 18 102 19 96 38 55 51 45 84 40 85 40 "/><path d="M204 206 221 208 227 210 235 213 242 218 243 219 246 226 246 249 160 249 160 247 163 237 169 224 171 220 186 210 190 208 197 206 204 206 "/><path d="M6 201 13 207 27 221 29 224 30 226 37 247 37 249 0 249 0 196 6 201 "/></svg>