<svg width="256" height="256" xmlns="http://www.w3.org/2000/svg" fill-opacity="0" stroke="black" stroke-width="3" ><path d="M123 56 132 58 154 64 172 72 176 75 182 83 196 107 196 117 195 128 179 189 169 206 166 209 158 215 156 216 144 220 132 220 114 208 113 207 63 149 53 136 53 129 54 119 58 107 62 99 68 93 79 83 92 72 113 59 115 58 122 56 123 56 "/><path d="M244 94 246 95 249 101 249 221 230 237 219 244 213 246 201 249 192 249 187 247 186 246 184 243 180 232 180 227 187 164 188 162 226 105 234 96 243 94 244 94 "/><path d="M40 201 70 206 73 207 126 237 135 249 12 249 5 248 1 247 0 244 0 225 1 222 6 211 8 209 38 201 40 201 "/><path d="M242 0 243 18 243 19 236 34 234 36 227 39 220 40 218 40 185 34 174 26 167 20 167 19 174 10 177 8 214 0 242 0 "/></svg>