<svg width="256" height="256" xmlns="http://www.w3.org/2000/svg" fill-opacity="0" stroke="black" stroke-width="3" ><path d="M139 89 158 91 169 93 179 98 187 105 195 113 213 139 218 147 223 157 225 166 227 186 227 201 226 211 224 218 217 231 207 246 205 247 198 249 70 249 64 246 56 237 47 226 44 222 43 219 39 205 37 193 37 178 38 169 39 164 41 155 42 152 44 147 48 139 50 136 57 126 72 111 81 104 88 99 92 97 97 95 120 91 138 89 139 89 "/><path d="M178 0 178 2 177 4 173 10 163 22 161 23 160 23 76 17 71 13 67 3 67 0 178 0 "/></svg>