<svg width="256" height="256" xmlns="http://www.w3.org/2000/svg" fill-opacity="0" stroke="black" stroke-width="3" ><path d="M85 30 220 36 222 37 230 43 236 53 239 70 239 77 238 87 228 121 218 144 196 171 192 174 181 181 131 203 121 206 114 206 107 205 103 204 88 198 77 190 60 177 54 170 51 166 41 151 36 141 35 138 33 131 32 127 31 116 31 97 32 79 34 66 41 56 54 42 56 40 69 34 79 30 85 30 "/><path d="M218 193 235 202 240 205 245 209 249 214 249 249 150 249 150 246 151 240 153 236 159 225 161 222 163 220 172 213 183 208 217 193 218 193 "/><path d="M249 142 249 185 248 185 242 182 235 175 234 172 232 163 232 156 236 147 239 144 245 142 249 142 "/></svg>