<svg width="256" height="256" xmlns="http://www.w3.org/2000/svg" fill-opacity="0" stroke="black" stroke-width="3" ><path d="M102 33 119 36 147 42 159 46 161 47 184 61 187 63 194 71 197 75 201 83 205 93 209 108 209 114 206 127 205 130 198 145 197 147 195 150 187 159 167 179 71 224 62 224 57 222 53 220 47 214 46 212 43 204 42 200 42 193 43 94 44 87 46 81 52 68 56 60 58 57 63 51 66 48 75 41 78 39 84 36 87 35 98 33 102 33 "/><path d="M247 175 249 176 249 246 232 246 225 243 224 242 215 232 210 226 204 214 203 210 203 208 204 203 205 200 207 197 213 189 214 188 231 176 244 174 247 175 "/></svg>