<svg width="256" height="256" xmlns="http://www.w3.org/2000/svg" fill-opacity="0" stroke="black" stroke-width="3" ><path d="M124 74 156 100 162 106 170 123 172 144 172 159 168 183 166 187 164 190 159 197 155 201 148 207 144 210 137 215 134 217 132 218 121 221 94 221 77 219 68 217 63 215 54 211 36 195 26 181 23 175 21 170 21 168 50 83 51 81 59 75 122 73 124 74 "/><path d="M249 58 249 155 248 156 232 159 231 159 217 158 201 151 191 140 186 130 185 125 185 118 188 99 209 72 232 59 245 58 249 58 "/><path d="M161 24 174 28 179 32 181 34 184 38 188 46 189 52 189 62 186 72 185 74 182 78 178 83 170 87 165 89 151 86 149 85 143 81 140 78 130 67 129 65 128 62 127 58 127 48 129 43 131 39 133 36 141 28 146 26 156 24 161 24 "/><path d="M20 225 32 228 43 232 46 234 48 238 49 243 50 249 0 249 0 238 5 229 10 226 17 225 20 225 "/><path d="M4 55 6 56 12 60 16 63 17 67 19 85 19 88 10 104 9 105 1 108 0 108 0 54 4 55 "/><path d="M1 3 53 6 54 7 55 9 55 10 54 17 53 19 51 22 19 22 8 20 3 19 0 18 0 3 1 3 "/></svg>