<svg width="256" height="256" xmlns="http://www.w3.org/2000/svg" fill-opacity="0" stroke="black" stroke-width="3" ><path d="M141 36 157 37 176 41 189 55 198 66 199 69 205 101 209 128 208 137 206 146 200 168 195 178 188 190 186 193 183 197 180 200 167 209 161 213 155 216 150 218 141 221 126 222 122 222 111 220 107 219 61 205 37 175 27 162 25 157 24 150 26 135 30 118 38 90 39 88 47 75 62 61 67 58 71 56 83 51 109 41 136 36 141 36 "/><path d="M26 0 44 31 47 39 48 42 46 54 15 80 9 85 0 85 0 4 1 1 2 0 26 0 "/></svg>