<svg width="256" height="256" xmlns="http://www.w3.org/2000/svg" fill-opacity="0" stroke="black" stroke-width="3" ><path d="M128 43 149 47 165 57 171 61 182 72 185 76 191 88 197 103 199 109 202 120 203 127 204 138 204 142 203 147 201 153 199 157 192 165 170 187 165 191 162 193 111 196 101 196 93 194 82 191 76 183 71 175 70 173 68 164 67 156 64 104 64 92 65 86 66 82 68 78 76 64 88 56 97 51 106 48 119 44 127 43 128 43 "/><path d="M232 173 236 174 241 176 249 180 249 242 240 246 219 243 212 241 200 235 191 229 190 228 183 220 183 219 184 210 186 201 191 194 194 191 204 182 215 174 231 173 232 173 "/><path d="M5 89 24 92 36 98 45 109 49 125 49 134 48 146 43 159 39 163 27 170 18 173 0 173 0 90 4 89 5 89 "/><path d="M151 212 162 215 169 219 179 241 179 242 177 248 176 249 95 249 95 239 99 228 102 224 122 214 132 212 151 212 "/><path d="M50 224 60 228 68 232 76 237 78 239 79 245 79 249 0 249 0 244 17 232 20 230 27 226 41 224 50 224 "/></svg>