<svg width="256" height="256" xmlns="http://www.w3.org/2000/svg" fill-opacity="0" stroke="black" stroke-width="3" ><path d="M208 33 216 36 220 43 221 48 221 51 198 142 192 157 182 179 181 181 168 199 161 206 146 209 125 211 104 212 102 211 85 198 80 194 74 188 64 176 60 171 43 147 42 144 38 129 37 125 37 114 41 94 42 90 49 69 50 67 53 63 55 61 81 43 89 39 206 33 208 33 "/><path d="M243 180 244 181 249 188 249 227 244 228 241 228 219 220 217 219 216 218 211 212 206 201 204 195 203 186 203 172 204 158 205 156 210 153 243 180 "/><path d="M245 86 249 100 249 109 246 135 231 163 229 163 227 161 227 156 230 127 234 105 239 85 241 83 245 86 "/></svg>