<svg width="256" height="256" xmlns="http://www.w3.org/2000/svg" fill-opacity="0" stroke="black" stroke-width="3" ><path d="M87 0 156 62 170 76 184 92 209 124 209 130 205 157 171 249 100 249 44 147 2 37 2 32 23 23 79 0 87 0 "/><path d="M210 12 212 13 214 15 219 23 246 67 249 72 249 105 246 114 244 117 241 120 238 122 213 121 211 120 206 117 166 60 167 58 198 22 207 13 209 12 210 12 "/><path d="M55 208 57 209 69 221 72 226 69 233 67 237 53 249 0 249 0 235 2 231 16 205 19 202 21 201 24 200 32 199 55 208 "/><path d="M249 211 236 211 229 208 226 205 222 197 217 180 217 177 222 144 224 134 236 126 249 118 249 211 "/></svg>