<svg width="256" height="256" xmlns="http://www.w3.org/2000/svg" fill-opacity="0" stroke="black" stroke-width="3" ><path d="M117 40 127 41 134 43 140 45 161 58 168 63 172 66 188 81 194 88 197 92 200 97 206 110 208 117 210 125 210 138 209 152 208 159 202 181 201 183 192 196 187 201 178 208 175 210 168 214 155 218 153 218 111 180 109 178 64 56 64 55 68 51 90 41 105 40 117 40 "/><path d="M235 0 237 4 237 28 232 38 225 47 220 52 217 54 207 57 199 57 179 52 171 48 168 46 164 43 153 32 149 22 149 13 151 2 152 0 235 0 "/><path d="M11 223 36 228 54 237 57 240 57 243 54 248 53 249 0 249 0 237 7 223 11 223 "/><path d="M249 161 249 206 245 206 242 205 240 204 237 202 236 201 230 193 230 185 231 177 233 171 240 164 243 162 245 161 249 161 "/><path d="M86 178 88 180 112 213 112 215 111 216 109 217 108 217 105 216 93 210 74 198 67 192 63 188 62 186 60 181 60 180 61 179 84 178 86 178 "/></svg>