<svg width="256" height="256" xmlns="http://www.w3.org/2000/svg" fill-opacity="0" stroke="black" stroke-width="3" ><path d="M36 64 37 65 75 122 87 168 91 188 91 189 64 205 56 209 53 208 48 205 47 204 44 198 40 188 35 175 30 160 24 137 14 94 14 84 16 80 20 74 30 66 34 64 36 64 "/><path d="M88 0 87 7 80 14 17 56 0 67 0 49 26 26 55 10 74 0 88 0 "/><path d="M179 31 189 36 201 45 210 54 213 58 218 65 229 86 233 98 234 103 234 107 225 107 218 100 188 56 177 39 177 36 178 31 179 31 "/><path d="M235 110 236 120 236 124 234 143 231 158 228 171 227 173 225 175 223 174 222 172 218 159 219 142 225 112 227 111 230 110 235 110 "/></svg>