<svg width="256" height="256" xmlns="http://www.w3.org/2000/svg" fill-opacity="0" stroke="black" stroke-width="3" ><path d="M160 47 170 51 176 54 183 59 194 68 197 72 204 82 208 90 214 107 215 110 216 121 216 125 215 133 214 137 205 159 196 173 194 176 188 183 184 187 173 182 137 68 152 49 154 47 160 47 "/><path d="M82 0 90 4 92 6 92 7 91 13 87 17 73 30 66 32 62 33 44 37 30 34 27 33 25 32 8 22 2 16 0 13 0 9 1 0 82 0 "/><path d="M247 0 249 2 249 62 244 67 242 68 241 68 232 59 228 53 227 51 226 48 225 44 224 30 224 24 225 18 226 15 229 9 236 0 247 0 "/></svg>