<svg width="256" height="256" xmlns="http://www.w3.org/2000/svg" fill-opacity="0" stroke="black" stroke-width="3" ><path d="M235 0 249 9 249 54 213 140 208 151 194 179 189 188 172 201 168 204 165 206 135 220 129 222 116 223 102 222 93 220 89 219 86 218 76 214 74 213 69 210 57 200 55 198 54 196 48 182 36 148 35 145 34 141 34 135 36 121 38 109 47 93 60 73 98 33 100 31 103 29 109 26 112 25 189 0 235 0 "/><path d="M30 43 32 45 34 48 35 51 36 55 36 58 35 85 34 89 32 95 30 97 15 110 12 112 2 116 0 116 0 45 22 43 30 43 "/><path d="M236 184 249 185 249 224 241 225 238 225 237 224 220 199 218 196 216 192 216 189 235 184 236 184 "/></svg>