<svg width="256" height="256" xmlns="http://www.w3.org/2000/svg" fill-opacity="0" stroke="black" stroke-width="3" ><path d="M105 53 124 55 145 60 156 64 160 68 168 78 170 81 183 103 186 110 187 113 187 116 186 123 184 132 182 139 180 145 176 154 172 162 163 172 156 178 153 180 143 186 134 190 109 194 96 194 93 193 89 191 67 172 61 166 54 155 53 153 58 113 59 107 62 98 69 83 70 81 82 65 89 57 100 53 105 53 "/><path d="M60 0 62 4 64 9 70 31 71 35 71 42 70 49 60 84 59 86 47 99 43 103 37 108 27 114 10 119 9 119 2 118 0 116 0 0 60 0 "/><path d="M249 75 249 132 248 132 244 130 239 127 235 122 231 107 230 103 230 102 231 93 232 88 233 85 238 79 242 75 245 74 249 75 "/></svg>