<svg width="256" height="256" xmlns="http://www.w3.org/2000/svg" fill-opacity="0" stroke="black" stroke-width="3" ><path d="M136 51 142 52 156 57 164 60 173 66 189 78 191 80 197 88 201 96 205 106 206 124 206 125 205 133 199 148 191 164 183 173 182 174 167 187 149 200 147 201 113 203 106 203 82 195 77 192 70 187 62 179 57 170 45 137 45 129 49 105 50 101 52 96 57 89 58 88 100 56 103 54 109 52 128 51 136 51 "/><path d="M87 212 97 217 103 221 110 226 113 229 116 233 125 247 125 249 53 249 50 245 50 241 60 222 83 211 87 212 "/></svg>