<svg width="256" height="256" xmlns="http://www.w3.org/2000/svg" fill-opacity="0" stroke="black" stroke-width="3" ><path d="M136 19 143 20 153 24 161 28 164 30 169 34 180 44 186 50 204 74 207 79 211 86 213 92 213 93 202 138 190 162 178 169 155 179 135 185 134 185 109 183 107 182 98 177 83 163 69 144 68 142 60 116 61 111 66 92 67 89 107 24 110 22 119 20 135 19 136 19 "/><path d="M241 167 249 171 249 246 244 249 190 249 187 248 185 246 181 237 179 222 179 217 187 200 199 189 220 173 240 167 241 167 "/></svg>