<svg width="256" height="256" xmlns="http://www.w3.org/2000/svg" fill-opacity="0" stroke="black" stroke-width="3" ><path d="M150 60 153 61 169 67 179 72 187 77 204 92 206 94 211 102 215 109 217 114 219 133 219 139 218 147 214 157 213 159 207 167 199 177 188 188 185 190 180 193 172 197 145 208 116 216 111 216 73 196 66 189 56 177 53 173 49 167 48 165 46 159 43 138 45 120 46 116 50 104 59 88 67 79 68 78 72 75 81 69 89 65 94 63 97 62 129 54 150 60 "/><path d="M249 249 204 249 199 245 199 242 223 198 226 194 243 177 249 172 249 249 "/><path d="M135 233 145 236 148 237 150 238 153 241 156 245 158 248 158 249 80 249 82 247 88 243 93 240 98 238 104 236 112 234 121 233 135 233 "/></svg>