<svg width="256" height="256" xmlns="http://www.w3.org/2000/svg" fill-opacity="0" stroke="black" stroke-width="3" ><path d="M105 0 126 11 127 12 207 124 209 129 209 132 208 144 206 161 203 169 189 195 188 196 153 218 139 218 131 217 120 210 99 191 98 190 88 175 74 150 73 148 71 143 70 140 59 102 59 98 66 38 84 0 105 0 "/><path d="M4 102 9 103 20 107 27 113 40 126 51 140 57 149 60 155 71 178 76 198 77 210 77 224 70 237 62 247 60 249 0 249 0 103 1 102 4 102 "/><path d="M249 155 249 224 231 224 226 223 222 222 218 220 210 209 204 196 203 193 203 187 210 173 212 170 217 163 220 160 225 157 242 153 249 155 "/><path d="M37 19 48 20 51 22 52 23 53 25 56 32 60 45 60 50 59 57 55 66 52 71 49 74 41 76 35 77 34 77 28 76 26 75 22 72 16 66 13 62 10 57 9 50 9 45 10 41 15 34 18 30 19 29 23 26 29 22 35 19 37 19 "/><path d="M232 66 234 67 243 73 245 75 244 76 236 83 226 89 223 90 220 90 206 87 201 82 201 78 202 71 203 70 209 69 229 66 232 66 "/></svg>