<svg width="256" height="256" xmlns="http://www.w3.org/2000/svg" fill-opacity="0" stroke="black" stroke-width="3" ><path d="M135 38 160 43 176 48 184 52 192 58 197 62 199 64 204 71 210 80 227 142 227 153 226 156 224 159 206 173 183 188 174 193 112 210 110 210 96 203 61 164 58 160 52 151 49 145 45 135 36 105 36 104 37 102 49 81 57 73 67 66 88 54 124 37 135 38 "/><path d="M109 0 118 3 122 5 123 6 127 16 123 30 121 33 118 36 103 44 77 57 68 61 57 62 54 62 48 60 43 56 37 50 34 46 28 37 25 32 27 17 28 14 32 6 36 0 109 0 "/><path d="M13 37 15 38 21 42 23 44 28 51 32 57 33 59 34 62 34 68 33 72 32 75 28 81 26 83 20 88 15 91 11 92 5 93 3 93 0 92 0 38 4 37 13 37 "/></svg>