<svg width="256" height="256" xmlns="http://www.w3.org/2000/svg" fill-opacity="0" stroke="black" stroke-width="3" ><path d="M200 99 203 104 204 106 205 110 207 133 207 136 206 144 204 149 198 159 193 164 188 168 172 179 145 197 133 204 131 205 128 206 119 208 114 209 100 209 90 208 76 202 73 199 39 135 36 128 36 123 38 122 41 121 98 105 198 99 200 99 "/><path d="M7 196 12 197 14 198 18 201 19 202 25 213 26 215 28 229 28 232 27 235 26 237 18 249 0 249 0 200 4 197 6 196 7 196 "/><path d="M69 67 70 69 77 91 77 92 74 94 51 108 41 111 36 110 36 102 39 92 41 89 58 71 68 67 69 67 "/></svg>