<svg width="256" height="256" xmlns="http://www.w3.org/2000/svg" fill-opacity="0" stroke="black" stroke-width="3" ><path d="M123 50 136 52 142 53 164 62 166 63 170 66 179 73 195 89 200 95 201 97 211 130 211 132 206 141 200 151 198 154 197 155 195 156 184 161 145 178 135 181 128 183 101 187 88 188 86 188 68 186 50 183 48 181 33 163 31 160 22 144 20 138 16 118 16 107 27 86 30 81 33 78 66 60 70 58 73 57 115 50 123 50 "/><path d="M223 190 225 191 237 201 239 203 245 214 246 216 246 229 242 237 234 245 232 246 211 249 208 249 193 238 192 233 192 214 194 207 196 204 202 198 209 194 215 192 222 190 223 190 "/><path d="M87 212 117 214 128 221 131 224 137 236 139 241 140 245 140 249 77 249 76 247 74 232 75 227 81 214 83 212 87 212 "/><path d="M29 222 34 223 49 228 55 234 57 238 62 249 0 249 0 233 4 230 22 222 29 222 "/><path d="M3 39 7 40 13 45 14 46 20 54 21 58 21 59 20 67 14 79 12 81 7 84 2 86 0 86 0 39 3 39 "/></svg>