<svg width="256" height="256" xmlns="http://www.w3.org/2000/svg" fill-opacity="0" stroke="black" stroke-width="3" ><path d="M80 9 109 16 170 41 172 42 186 50 190 53 196 59 200 65 212 84 215 89 219 96 221 101 224 111 226 126 226 138 225 145 223 154 219 168 216 176 212 182 207 189 195 201 192 203 170 216 167 217 163 218 134 220 118 219 112 218 108 217 71 200 67 198 57 191 55 189 54 187 25 128 24 125 24 121 29 99 31 93 58 17 61 15 63 14 78 9 80 9 "/><path d="M49 222 54 223 57 225 61 229 62 232 65 242 62 249 31 249 25 240 24 237 24 236 27 232 31 227 33 226 41 223 44 222 49 222 "/><path d="M184 0 184 4 183 8 181 11 172 16 170 17 166 18 157 19 152 19 139 14 136 12 132 9 129 6 127 3 127 0 184 0 "/></svg>