<svg width="256" height="256" xmlns="http://www.w3.org/2000/svg" fill-opacity="0" stroke="black" stroke-width="3" ><path d="M246 0 246 7 216 138 203 167 200 172 196 178 188 186 177 196 174 198 156 207 150 209 146 210 113 208 93 203 77 198 63 188 48 174 40 166 35 158 28 146 25 138 23 127 23 117 24 107 25 99 26 94 27 90 31 79 35 71 40 63 47 53 59 41 69 34 74 31 127 0 246 0 "/><path d="M157 240 158 245 158 249 66 249 64 235 66 231 80 220 87 219 97 218 157 240 "/><path d="M49 208 50 209 56 216 62 224 62 230 60 235 56 244 51 246 42 249 41 249 32 246 27 244 23 240 19 232 19 226 20 224 29 215 38 209 43 208 49 208 "/></svg>