<svg width="256" height="256" xmlns="http://www.w3.org/2000/svg" fill-opacity="0" stroke="black" stroke-width="3" ><path d="M120 22 163 23 179 27 185 29 199 36 204 41 214 52 218 58 220 64 222 71 226 86 227 94 227 97 226 113 224 122 222 129 218 139 212 153 204 163 191 178 190 179 167 191 163 193 158 195 152 197 132 201 121 203 99 203 88 200 76 196 62 184 51 173 47 168 41 159 40 157 31 135 30 130 30 125 31 115 35 96 39 78 40 76 49 66 63 52 73 44 92 31 98 28 107 25 118 22 120 22 "/><path d="M11 0 31 25 33 28 33 34 31 35 30 35 0 33 0 1 1 0 11 0 "/></svg>