<svg width="256" height="256" xmlns="http://www.w3.org/2000/svg" fill-opacity="0" stroke="black" stroke-width="3" ><path d="M129 39 137 41 154 46 164 49 166 50 173 54 184 64 198 82 201 88 209 108 210 111 211 116 213 131 213 152 211 160 207 173 204 181 203 183 167 249 158 249 126 227 124 225 31 110 30 108 29 102 29 93 31 90 36 84 42 78 77 55 91 46 99 42 106 40 114 39 129 39 "/><path d="M103 223 113 232 114 233 118 243 118 245 114 249 17 249 12 224 10 212 9 194 10 187 23 174 103 223 "/><path d="M243 189 246 190 249 192 249 249 171 249 171 245 176 234 180 228 183 224 207 197 214 190 231 186 243 189 "/></svg>