<svg width="256" height="256" xmlns="http://www.w3.org/2000/svg" fill-opacity="0" stroke="black" stroke-width="3" ><path d="M150 32 169 38 184 46 187 48 189 50 206 85 207 88 209 98 209 99 207 134 205 139 204 141 186 166 179 175 165 192 164 193 130 204 123 205 119 205 108 203 101 201 89 195 56 177 46 170 43 167 43 112 45 103 48 90 49 87 53 78 59 68 62 64 68 58 73 54 79 50 101 37 110 35 115 34 121 33 143 32 150 32 "/><path d="M156 207 167 209 174 211 176 212 179 215 187 227 198 244 199 246 199 249 77 249 79 244 82 241 123 216 133 212 153 207 156 207 "/></svg>