<svg width="256" height="256" xmlns="http://www.w3.org/2000/svg" fill-opacity="0" stroke="black" stroke-width="3" ><path d="M167 38 183 39 189 43 191 45 217 74 223 82 229 91 231 95 233 101 234 107 234 127 229 155 220 188 214 196 209 202 206 205 193 212 187 215 170 217 166 217 137 214 130 211 118 205 89 183 68 162 66 159 65 157 65 148 66 145 88 94 94 81 95 79 102 68 112 57 122 48 132 43 135 42 145 39 149 38 167 38 "/><path d="M249 0 249 86 235 76 230 72 222 64 218 59 210 48 208 45 198 26 196 18 196 5 197 0 249 0 "/><path d="M249 249 244 249 241 245 238 240 234 227 227 203 227 197 228 182 229 173 230 169 236 160 239 158 242 157 249 155 249 249 "/><path d="M21 0 25 18 25 38 23 45 22 47 13 62 0 76 0 0 21 0 "/><path d="M1 156 8 158 13 160 16 162 19 165 26 174 26 175 25 187 24 191 16 199 10 204 8 205 1 208 0 208 0 156 1 156 "/></svg>