<svg width="256" height="256" xmlns="http://www.w3.org/2000/svg" fill-opacity="0" stroke="black" stroke-width="3" ><path d="M166 51 174 55 179 62 204 121 207 141 207 142 199 174 190 184 177 194 169 197 166 198 155 193 47 143 43 125 41 106 41 94 44 86 46 81 48 77 50 75 64 65 69 62 97 51 166 51 "/><path d="M225 39 249 42 249 90 247 90 234 85 229 83 225 81 218 76 213 72 208 63 205 57 205 56 208 50 211 46 212 45 217 42 221 40 224 39 225 39 "/><path d="M249 162 249 186 246 206 243 209 218 226 216 227 213 228 210 228 198 220 198 214 200 211 239 166 242 163 248 162 249 162 "/><path d="M249 0 249 40 233 34 223 22 223 19 229 7 235 3 243 0 249 0 "/></svg>