<svg width="256" height="256" xmlns="http://www.w3.org/2000/svg" fill-opacity="0" stroke="black" stroke-width="3" ><path d="M184 94 190 107 192 116 192 118 189 132 174 160 172 161 123 174 121 174 96 158 95 157 77 138 75 134 66 102 66 98 75 73 76 71 107 32 113 30 135 27 184 94 "/><path d="M18 93 23 95 35 102 38 104 39 105 46 117 47 119 43 142 39 157 23 165 6 171 0 171 0 98 7 93 18 93 "/><path d="M87 167 120 185 141 210 142 212 142 213 136 216 118 220 112 218 108 216 102 210 82 180 81 173 81 168 82 167 87 167 "/><path d="M35 182 45 197 45 198 43 200 11 209 10 209 1 206 0 205 0 190 25 183 30 182 35 182 "/></svg>