<svg width="256" height="256" xmlns="http://www.w3.org/2000/svg" fill-opacity="0" stroke="black" stroke-width="3" ><path d="M215 51 220 53 231 59 235 63 238 68 239 70 243 87 245 98 243 182 213 210 206 214 185 223 182 224 170 227 154 229 149 229 141 228 133 226 115 221 112 219 109 216 93 195 72 148 72 147 74 142 100 94 111 83 128 69 132 67 155 59 163 57 191 51 215 51 "/><path d="M186 0 185 7 184 10 179 17 177 19 173 22 170 24 137 45 135 46 125 49 117 51 111 51 105 50 98 48 94 46 89 43 88 42 80 33 79 30 77 16 77 13 85 0 186 0 "/><path d="M11 119 34 126 62 146 63 147 63 210 53 210 38 206 3 157 0 129 0 121 2 119 11 119 "/><path d="M4 168 20 185 33 203 42 216 42 220 39 222 32 226 30 226 0 225 0 168 4 168 "/><path d="M249 0 249 46 248 46 222 28 220 26 216 19 215 17 213 12 213 6 214 0 249 0 "/></svg>