<svg width="256" height="256" xmlns="http://www.w3.org/2000/svg" fill-opacity="0" stroke="black" stroke-width="3" ><path d="M125 31 133 32 136 33 141 35 166 50 175 58 180 63 192 76 193 78 199 94 200 128 200 134 184 167 177 177 164 190 158 195 144 203 135 208 131 210 99 211 94 211 79 205 69 200 64 197 61 195 56 191 45 182 31 166 28 159 23 127 23 122 25 115 26 112 28 107 40 83 57 59 61 55 66 51 94 34 123 31 125 31 "/><path d="M249 0 249 80 229 65 219 54 192 16 190 13 183 1 183 0 249 0 "/><path d="M160 209 178 212 180 213 186 217 188 219 196 229 199 234 203 242 201 249 97 249 99 245 108 232 109 231 140 212 144 210 158 209 160 209 "/><path d="M4 8 9 10 25 17 27 18 35 24 41 35 42 37 43 46 43 50 42 60 41 64 38 67 28 73 1 88 0 88 0 8 4 8 "/><path d="M5 225 16 226 25 227 32 228 39 231 43 234 48 238 45 249 0 249 0 226 3 225 5 225 "/></svg>