<svg width="256" height="256" xmlns="http://www.w3.org/2000/svg" fill-opacity="0" stroke="black" stroke-width="3" ><path d="M163 30 249 71 249 113 226 148 210 170 209 171 191 182 186 185 171 191 153 195 130 195 98 187 90 181 88 179 80 169 78 166 66 147 56 119 56 118 58 107 70 77 75 69 90 50 94 46 105 36 110 34 128 31 140 30 163 30 "/><path d="M1 135 7 136 13 138 15 140 21 147 27 156 29 164 29 166 27 170 26 171 23 173 4 183 0 183 0 135 1 135 "/><path d="M33 0 33 10 31 17 29 22 28 23 22 23 4 22 1 21 0 20 0 0 33 0 "/><path d="M249 0 249 2 246 9 244 11 242 12 239 13 225 13 208 11 202 9 198 7 196 5 195 3 194 0 249 0 "/></svg>