<svg width="256" height="256" xmlns="http://www.w3.org/2000/svg" fill-opacity="0" stroke="black" stroke-width="3" ><path d="M140 33 148 34 155 35 162 37 165 38 171 41 181 47 195 61 211 80 212 82 223 110 225 117 226 123 226 132 225 143 222 157 221 159 209 182 207 184 195 194 182 201 141 222 133 224 106 224 85 217 83 216 76 212 66 206 63 204 52 195 42 176 41 174 37 163 35 150 35 143 36 121 38 99 40 94 46 83 56 69 62 63 72 57 89 47 104 41 110 39 129 33 140 33 "/><path d="M31 205 103 236 105 237 110 241 113 246 114 249 7 249 6 248 5 246 5 239 7 225 8 223 18 210 21 207 24 205 31 205 "/><path d="M205 220 210 221 234 234 243 249 144 249 148 244 149 243 172 223 176 221 201 220 205 220 "/><path d="M94 0 88 4 86 5 80 7 9 25 6 25 0 23 0 0 94 0 "/><path d="M2 131 9 135 13 139 19 146 20 148 20 156 17 163 15 166 7 172 5 173 3 173 1 171 0 169 0 131 2 131 "/></svg>