<svg width="256" height="256" xmlns="http://www.w3.org/2000/svg" fill-opacity="0" stroke="black" stroke-width="3" ><path d="M150 45 166 49 178 53 182 55 201 66 210 75 220 87 247 122 248 132 214 182 206 191 205 192 191 203 171 216 150 227 148 228 142 230 138 231 124 232 123 232 91 216 68 202 61 195 57 188 51 176 48 164 47 159 46 146 46 136 47 130 49 123 54 109 60 97 79 76 88 67 114 50 119 47 125 45 150 45 "/><path d="M249 0 249 93 248 94 247 94 233 84 228 80 212 66 207 58 198 35 199 28 201 18 205 9 210 5 220 0 249 0 "/><path d="M215 216 220 217 238 223 240 225 249 236 249 249 174 249 179 231 195 223 211 216 215 216 "/></svg>