<svg width="256" height="256" xmlns="http://www.w3.org/2000/svg" fill-opacity="0" stroke="black" stroke-width="3" ><path d="M149 33 166 44 190 72 200 84 204 89 206 93 208 98 210 106 216 135 216 139 208 168 202 178 200 181 194 188 174 210 166 218 160 221 153 224 142 228 127 232 109 232 97 230 90 228 78 224 62 217 58 215 49 207 37 196 34 193 21 80 21 72 23 68 25 65 27 63 35 59 101 34 104 33 149 33 "/><path d="M249 249 185 249 185 247 187 237 188 234 189 232 194 223 207 201 224 196 228 195 249 192 249 249 "/><path d="M249 0 249 24 247 31 245 34 241 37 238 39 232 42 226 44 223 44 218 43 215 41 209 35 199 24 192 12 191 10 190 7 190 1 191 0 249 0 "/><path d="M128 0 123 10 116 18 109 23 103 27 95 29 84 29 65 18 58 10 58 9 66 0 128 0 "/></svg>