<svg width="256" height="256" xmlns="http://www.w3.org/2000/svg" fill-opacity="0" stroke="black" stroke-width="3" ><path d="M124 25 127 26 194 54 198 56 199 57 207 73 210 163 210 171 208 178 200 194 184 215 180 219 158 233 156 234 138 234 118 230 88 222 83 218 81 216 78 211 73 200 45 129 32 95 30 89 29 84 29 81 31 70 35 62 37 59 40 57 55 49 61 46 122 25 124 25 "/><path d="M7 81 8 82 54 178 56 183 58 189 62 203 62 210 59 229 54 249 0 249 0 79 7 81 "/><path d="M209 0 214 9 214 14 211 22 209 26 206 30 200 35 188 41 182 43 181 43 178 42 166 37 156 32 151 28 135 12 133 8 133 6 135 0 209 0 "/><path d="M249 114 242 117 239 118 235 119 232 119 230 118 229 117 227 114 226 112 226 111 228 100 229 98 249 59 249 114 "/></svg>