<svg width="256" height="256" xmlns="http://www.w3.org/2000/svg" fill-opacity="0" stroke="black" stroke-width="3" ><path d="M137 54 143 55 147 56 158 59 174 67 184 76 191 83 200 101 202 108 208 131 208 132 192 164 184 172 168 180 162 182 148 186 140 188 127 189 113 188 105 186 92 180 82 175 78 172 60 150 51 131 51 87 85 62 89 60 96 57 109 54 137 54 "/><path d="M52 0 67 4 68 5 68 6 65 50 64 52 63 53 60 55 50 60 38 63 33 63 0 57 0 0 52 0 "/><path d="M15 143 23 147 52 171 58 176 59 177 64 184 64 186 62 188 54 192 49 192 15 190 8 189 3 188 0 184 0 145 7 143 15 143 "/></svg>