<svg width="256" height="256" xmlns="http://www.w3.org/2000/svg" fill-opacity="0" stroke="black" stroke-width="3" ><path d="M249 114 214 169 211 173 203 183 152 235 151 236 107 237 101 237 37 180 34 177 32 174 10 111 9 108 9 107 34 29 38 20 42 16 51 10 55 8 59 7 78 3 124 3 233 56 240 60 242 62 249 94 249 114 "/><path d="M241 167 244 170 249 188 249 211 248 211 240 210 234 207 229 204 224 199 222 186 222 181 224 178 229 172 232 169 234 168 240 167 241 167 "/><path d="M244 0 244 1 243 5 238 14 235 18 221 21 206 21 203 20 201 19 199 17 215 0 244 0 "/></svg>