<svg width="256" height="256" xmlns="http://www.w3.org/2000/svg" fill-opacity="0" stroke="black" stroke-width="3" ><path d="M39 48 141 63 168 73 170 74 175 77 202 101 205 105 209 113 209 152 199 218 198 220 192 228 172 249 167 249 123 246 120 245 118 244 114 241 28 133 24 124 23 118 18 77 21 68 22 66 30 51 32 48 39 48 "/><path d="M232 0 234 16 234 17 233 19 231 21 207 36 202 36 175 34 154 28 144 21 142 19 139 15 138 12 138 8 144 0 232 0 "/><path d="M238 165 248 171 249 172 249 233 247 233 241 231 233 225 231 223 224 215 223 209 222 192 232 169 233 167 234 166 236 165 238 165 "/></svg>