<svg width="256" height="256" xmlns="http://www.w3.org/2000/svg" fill-opacity="0" stroke="black" stroke-width="3" ><path d="M125 24 134 25 141 26 151 30 165 36 170 39 182 48 188 54 195 62 200 68 209 83 212 89 217 101 218 105 218 133 214 147 211 156 208 164 201 177 195 187 189 193 185 196 165 210 159 213 121 221 114 222 101 222 88 221 85 220 66 213 53 205 35 191 34 190 26 180 24 177 17 163 11 145 4 123 15 96 25 72 29 66 37 56 39 54 46 48 55 41 59 38 65 34 69 32 74 30 87 26 99 25 112 24 125 24 "/><path d="M249 0 249 53 247 53 245 52 242 50 236 45 233 42 225 32 221 24 219 18 219 0 249 0 "/></svg>