<svg width="256" height="256" xmlns="http://www.w3.org/2000/svg" fill-opacity="0" stroke="black" stroke-width="3" ><path d="M249 0 249 33 232 106 231 109 228 115 224 121 193 163 191 165 174 175 167 179 161 182 150 185 120 191 110 191 105 190 96 187 90 183 77 173 75 171 48 112 48 107 50 94 58 76 59 74 61 71 77 55 82 52 182 0 249 0 "/><path d="M36 121 45 127 56 137 58 141 73 175 71 191 67 200 57 209 50 211 15 211 7 208 0 202 0 134 11 128 22 123 29 121 36 121 "/><path d="M179 194 194 198 199 200 203 202 217 210 249 236 249 249 93 249 93 248 94 244 96 239 113 216 114 215 118 212 124 209 135 204 158 194 179 194 "/><path d="M238 150 245 152 249 154 249 223 247 222 232 213 223 204 220 200 214 185 213 173 213 172 214 168 223 156 225 154 229 152 236 150 238 150 "/></svg>