<svg width="256" height="256" xmlns="http://www.w3.org/2000/svg" fill-opacity="0" stroke="black" stroke-width="3" ><path d="M133 64 152 66 160 68 180 78 196 97 202 105 204 109 210 124 210 139 206 161 201 173 197 182 186 193 176 201 173 203 169 205 161 208 155 210 151 211 141 211 55 183 52 182 45 178 42 176 32 167 31 164 30 157 30 152 31 137 33 129 35 124 42 107 46 103 54 96 68 84 77 79 79 78 105 66 109 65 121 64 133 64 "/><path d="M239 0 248 6 249 7 249 83 246 84 243 84 236 82 233 81 223 67 221 62 218 54 217 47 216 35 216 27 219 17 223 10 226 5 230 0 239 0 "/><path d="M48 222 54 223 64 226 69 228 76 232 78 234 82 239 85 245 85 248 84 249 0 249 0 244 3 239 10 231 13 228 17 225 23 222 48 222 "/></svg>