<svg width="256" height="256" xmlns="http://www.w3.org/2000/svg" fill-opacity="0" stroke="black" stroke-width="3" ><path d="M118 45 134 48 145 51 148 52 177 64 191 85 195 101 197 111 199 124 199 137 197 144 194 151 193 153 187 162 179 171 169 179 157 184 135 190 131 191 120 193 108 193 97 190 84 183 75 178 68 172 65 169 62 165 43 138 42 136 41 117 41 111 42 104 47 85 58 67 85 50 115 45 118 45 "/><path d="M164 0 164 3 163 12 159 19 153 28 152 29 148 32 143 35 135 36 134 36 106 33 95 27 82 12 80 9 79 7 79 0 164 0 "/><path d="M186 9 189 12 190 15 190 16 185 26 183 29 174 36 172 36 165 34 162 33 159 30 159 27 167 8 168 6 172 2 174 1 186 9 "/></svg>