<svg width="256" height="256" xmlns="http://www.w3.org/2000/svg" fill-opacity="0" stroke="black" stroke-width="3" ><path d="M113 33 133 37 136 38 148 43 156 47 163 51 169 55 175 61 190 90 195 107 201 129 201 138 200 144 195 154 173 187 135 202 127 204 114 205 109 205 1 198 0 197 0 85 13 78 111 33 113 33 "/><path d="M112 0 109 4 104 10 84 30 78 34 70 38 49 46 44 46 24 44 9 41 0 39 0 16 3 0 112 0 "/><path d="M249 0 249 99 231 111 229 112 225 112 222 111 208 102 207 99 207 97 210 62 223 12 228 6 229 5 236 0 249 0 "/><path d="M204 0 204 2 202 5 181 34 180 35 175 35 155 30 152 29 138 22 135 19 133 16 126 4 124 0 204 0 "/></svg>