<svg width="256" height="256" xmlns="http://www.w3.org/2000/svg" fill-opacity="0" stroke="black" stroke-width="3" ><path d="M149 42 221 77 223 79 226 88 227 95 227 99 226 103 212 158 210 164 209 166 203 175 195 183 190 187 180 187 161 183 111 152 90 136 84 128 82 125 81 107 81 103 82 94 89 79 101 70 142 42 149 42 "/><path d="M57 0 59 3 60 8 60 11 59 16 51 47 49 50 44 55 25 67 23 68 19 68 10 66 7 65 0 58 0 0 57 0 "/><path d="M126 205 132 207 133 208 139 217 141 223 142 248 142 249 99 249 92 242 92 238 97 218 100 212 101 211 115 206 120 205 126 205 "/></svg>