<svg width="256" height="256" xmlns="http://www.w3.org/2000/svg" fill-opacity="0" stroke="black" stroke-width="3" ><path d="M160 41 166 42 170 43 173 44 249 75 249 184 125 245 122 246 106 246 101 245 97 243 90 239 87 236 85 233 62 179 59 152 53 96 52 85 58 66 60 62 63 58 67 54 77 48 84 46 157 41 160 41 "/><path d="M155 0 155 4 154 12 151 18 149 21 146 24 143 26 139 28 134 30 122 32 99 32 92 30 86 28 83 25 71 9 69 3 69 0 155 0 "/><path d="M249 0 249 44 248 45 237 45 229 44 215 37 210 34 207 31 198 20 196 16 193 2 193 0 249 0 "/><path d="M204 219 210 221 216 226 218 228 219 244 219 246 218 249 159 249 158 248 158 247 159 242 163 229 164 227 166 226 179 223 203 219 204 219 "/></svg>