<svg width="256" height="256" xmlns="http://www.w3.org/2000/svg" fill-opacity="0" stroke="black" stroke-width="3" ><path d="M149 33 151 34 198 63 210 75 215 83 216 86 216 90 209 118 208 119 164 129 133 65 127 47 132 40 133 39 138 36 147 33 149 33 "/><path d="M11 155 12 156 16 161 26 175 28 182 30 190 32 205 32 209 31 222 25 234 16 245 15 246 11 249 0 249 0 156 8 155 11 155 "/><path d="M169 216 172 217 174 219 176 224 176 225 174 229 164 245 161 249 72 249 72 245 79 201 81 195 169 216 "/><path d="M121 0 131 10 132 13 123 16 51 22 43 21 40 20 38 19 32 13 25 5 23 2 23 0 121 0 "/><path d="M239 211 249 213 249 249 206 249 203 243 203 236 204 232 205 230 208 225 210 223 213 221 234 211 239 211 "/><path d="M30 111 40 112 55 114 79 171 79 174 78 190 77 193 64 203 63 203 56 199 20 138 17 130 17 127 18 125 26 112 28 111 30 111 "/><path d="M249 92 249 168 248 168 241 164 239 160 232 112 235 103 242 93 244 92 249 92 "/></svg>