<svg width="256" height="256" xmlns="http://www.w3.org/2000/svg" fill-opacity="0" stroke="black" stroke-width="3" ><path d="M142 23 147 24 154 26 167 34 170 37 174 42 183 54 188 63 193 75 198 117 198 126 195 135 185 156 184 158 174 171 160 185 140 195 132 196 127 196 122 195 107 189 78 170 75 168 71 164 66 156 63 150 61 137 61 103 65 76 67 64 72 54 79 46 85 40 103 28 108 26 113 25 122 24 136 23 142 23 "/><path d="M242 0 249 9 249 32 248 33 244 35 243 35 220 30 219 29 212 19 210 10 210 7 211 4 215 0 242 0 "/></svg>