<svg width="256" height="256" xmlns="http://www.w3.org/2000/svg" fill-opacity="0" stroke="black" stroke-width="3" ><path d="M148 0 180 3 182 4 187 7 213 26 219 34 224 41 225 43 238 70 241 90 242 107 242 112 239 129 184 222 180 225 164 233 144 237 122 237 116 235 87 223 78 219 63 211 61 209 45 192 41 187 38 181 35 174 29 156 24 131 23 119 23 116 30 93 32 87 38 73 40 69 48 56 50 53 63 34 71 26 118 2 123 0 148 0 "/><path d="M81 0 83 5 83 9 82 12 39 53 31 59 18 65 9 69 7 69 0 64 0 0 81 0 "/><path d="M17 139 35 211 35 212 34 242 31 249 0 249 0 147 13 140 16 139 17 139 "/></svg>