<svg width="256" height="256" xmlns="http://www.w3.org/2000/svg" fill-opacity="0" stroke="black" stroke-width="3" ><path d="M140 63 168 68 170 70 188 126 198 188 198 196 196 202 193 208 190 213 188 216 183 222 181 224 172 230 168 232 157 233 155 233 146 232 143 230 29 139 28 136 28 135 29 129 39 104 43 99 53 88 54 87 59 83 65 79 69 77 83 73 130 63 140 63 "/><path d="M37 175 51 179 57 183 66 193 74 203 77 207 78 209 82 225 82 235 80 242 79 243 70 249 0 249 0 192 2 188 5 184 8 181 14 177 19 175 37 175 "/><path d="M74 0 66 17 36 72 32 78 28 80 18 82 8 82 5 79 0 67 0 11 4 5 25 0 74 0 "/><path d="M249 111 249 166 246 168 244 169 232 172 231 172 216 169 214 166 213 157 213 151 214 137 216 135 246 112 248 111 249 111 "/><path d="M214 48 229 55 232 58 234 62 238 93 238 96 235 98 225 104 197 104 195 102 191 91 191 88 193 62 194 60 197 57 209 49 213 48 214 48 "/><path d="M230 0 216 14 199 22 194 22 161 21 152 19 150 18 147 15 141 8 140 4 140 0 230 0 "/></svg>