<svg width="256" height="256" xmlns="http://www.w3.org/2000/svg" fill-opacity="0" stroke="black" stroke-width="3" ><path d="M127 11 180 21 189 23 195 25 197 26 210 35 212 37 222 55 238 132 238 153 236 160 234 164 208 215 205 220 197 231 196 232 185 242 177 246 134 249 122 249 112 246 104 242 91 234 76 223 70 217 47 193 42 186 35 176 33 173 26 161 23 155 19 141 18 137 16 123 15 114 15 113 16 97 17 90 19 85 33 53 41 44 42 43 50 37 65 28 80 21 94 16 106 13 120 11 127 11 "/><path d="M50 231 57 233 66 236 75 244 80 249 9 249 10 247 12 245 34 232 36 231 50 231 "/></svg>