<svg width="256" height="256" xmlns="http://www.w3.org/2000/svg" fill-opacity="0" stroke="black" stroke-width="3" ><path d="M124 40 133 43 138 45 147 50 157 57 175 75 189 91 193 98 195 102 196 106 197 111 195 141 193 150 191 156 181 182 161 222 158 223 148 224 146 224 75 182 74 181 54 150 53 108 53 105 54 89 86 38 90 34 124 40 "/><path d="M60 0 62 1 66 5 67 7 69 14 69 46 64 58 63 60 45 83 44 84 28 99 26 100 22 100 3 57 0 46 0 0 60 0 "/><path d="M2 145 23 175 29 185 39 202 39 215 21 249 0 249 0 144 2 145 "/><path d="M249 249 214 249 214 248 222 228 226 222 232 216 238 214 249 212 249 249 "/></svg>