<svg width="256" height="256" xmlns="http://www.w3.org/2000/svg" fill-opacity="0" stroke="black" stroke-width="3" ><path d="M122 57 131 58 144 62 153 66 157 68 164 73 169 77 171 79 180 90 186 104 188 109 190 116 192 126 193 137 193 148 192 150 185 163 177 172 176 173 173 175 168 178 153 186 142 191 135 193 117 193 111 191 97 185 91 182 83 176 75 168 67 152 63 142 61 134 61 105 63 94 68 81 69 79 72 76 78 72 92 64 107 58 116 57 122 57 "/><path d="M41 218 59 224 66 228 73 236 78 242 79 244 80 247 80 249 0 249 0 240 2 230 3 228 10 224 21 220 29 218 41 218 "/><path d="M15 138 17 147 17 153 13 182 12 187 11 190 9 195 8 197 5 200 3 201 0 202 0 114 15 138 "/></svg>