<svg width="256" height="256" xmlns="http://www.w3.org/2000/svg" fill-opacity="0" stroke="black" stroke-width="3" ><path d="M112 50 137 53 143 55 150 58 162 66 180 83 188 101 190 108 191 112 192 120 193 130 193 148 192 153 191 156 188 162 186 165 168 190 164 192 145 198 119 205 111 206 2 212 0 212 0 61 102 50 112 50 "/><path d="M167 202 186 205 202 213 214 222 216 224 217 226 222 239 223 242 224 246 224 249 103 249 105 238 106 234 117 219 122 214 125 212 129 210 132 209 143 206 155 203 162 202 167 202 "/></svg>