<svg width="256" height="256" xmlns="http://www.w3.org/2000/svg" fill-opacity="0" stroke="black" stroke-width="3" ><path d="M108 44 130 45 141 47 202 71 204 72 207 74 217 84 220 88 224 94 235 127 235 140 221 168 210 183 209 184 204 187 202 188 114 190 88 190 73 184 65 180 63 178 52 163 47 156 43 150 35 133 35 130 36 115 37 106 43 88 56 70 65 61 95 46 105 44 108 44 "/><path d="M219 213 226 217 231 220 232 221 237 230 241 239 245 249 128 249 125 242 131 227 135 220 137 217 141 213 162 209 184 208 208 207 219 213 "/><path d="M3 112 6 116 7 118 36 181 36 187 35 192 32 200 26 208 16 208 10 206 6 204 1 201 0 200 0 109 3 112 "/><path d="M34 0 36 8 39 24 39 32 18 65 16 66 15 66 9 65 4 64 0 46 0 0 34 0 "/></svg>