<svg width="256" height="256" xmlns="http://www.w3.org/2000/svg" fill-opacity="0" stroke="black" stroke-width="3" ><path d="M133 52 159 56 183 72 184 75 193 109 199 139 199 144 198 147 184 181 181 185 179 187 146 212 144 213 136 214 126 215 97 215 66 195 60 187 55 180 48 164 48 148 60 116 74 87 82 77 86 73 90 70 93 68 117 56 128 52 133 52 "/><path d="M191 195 195 196 218 214 220 216 225 222 229 227 245 248 245 249 118 249 120 244 131 233 172 205 187 196 189 195 191 195 "/><path d="M1 9 6 11 17 17 24 24 27 28 31 34 34 40 39 52 35 106 28 115 17 121 0 127 0 9 1 9 "/></svg>