<svg width="256" height="256" xmlns="http://www.w3.org/2000/svg" fill-opacity="0" stroke="black" stroke-width="3" ><path d="M161 48 174 49 185 52 192 54 202 63 203 65 208 78 210 102 210 112 209 117 207 125 205 131 202 139 199 146 196 152 181 177 144 201 131 209 129 210 125 211 104 216 94 217 86 217 75 215 59 209 53 206 45 201 24 185 14 174 13 158 12 139 14 129 22 98 27 89 38 82 86 52 116 48 144 47 161 48 "/><path d="M67 0 76 8 78 10 78 15 77 36 76 39 66 54 60 60 42 72 40 73 26 78 23 79 8 81 7 81 3 79 0 77 0 0 67 0 "/><path d="M9 185 15 186 22 191 25 194 40 210 52 224 54 228 54 229 52 232 42 240 25 249 0 249 0 186 2 185 9 185 "/><path d="M155 0 160 4 162 10 162 11 161 16 160 20 159 23 151 33 148 36 142 39 135 41 131 41 121 40 113 37 107 31 104 27 102 22 96 0 155 0 "/></svg>