<svg width="256" height="256" xmlns="http://www.w3.org/2000/svg" fill-opacity="0" stroke="black" stroke-width="3" ><path d="M197 3 219 7 222 8 236 16 241 19 249 25 249 180 248 181 229 189 226 190 210 194 183 196 180 196 167 192 159 189 152 186 150 185 147 183 117 162 103 148 98 142 93 135 87 123 81 108 81 106 82 101 93 58 103 43 118 27 129 21 138 17 170 5 173 4 179 3 197 3 "/><path d="M105 0 105 6 104 16 103 20 98 35 97 37 80 64 75 70 74 71 64 79 60 82 42 94 37 96 26 96 12 90 8 88 0 82 0 75 3 22 8 11 10 7 14 3 20 0 105 0 "/><path d="M177 199 185 200 188 201 193 205 197 209 200 213 202 218 203 221 203 225 202 233 201 238 199 246 198 249 97 249 100 241 103 235 110 228 130 213 133 211 169 199 177 199 "/></svg>