<svg width="256" height="256" xmlns="http://www.w3.org/2000/svg" fill-opacity="0" stroke="black" stroke-width="3" ><path d="M116 45 121 46 196 73 198 76 202 83 204 91 204 111 202 123 198 134 194 144 184 161 178 170 169 180 162 187 159 189 148 196 146 197 143 198 134 200 124 200 115 198 85 188 67 170 60 162 53 147 47 131 44 119 43 110 43 107 45 99 49 91 75 56 78 53 80 52 96 45 116 45 "/><path d="M213 180 211 188 210 190 177 249 165 249 157 247 153 245 150 240 150 239 153 225 155 223 196 183 201 181 205 180 213 180 "/></svg>