<svg width="256" height="256" xmlns="http://www.w3.org/2000/svg" fill-opacity="0" stroke="black" stroke-width="3" ><path d="M173 68 179 70 189 74 201 80 204 82 213 89 219 94 223 100 227 107 229 113 230 118 231 124 232 131 232 134 231 143 229 151 225 159 221 166 217 172 212 178 208 182 194 193 183 201 169 208 137 222 129 225 128 225 105 223 97 222 84 216 82 215 57 192 55 187 50 168 50 161 61 132 64 126 70 116 80 102 89 93 98 86 107 80 115 76 125 72 137 68 173 68 "/><path d="M45 213 79 226 83 229 91 238 91 245 90 249 44 249 28 237 25 230 25 228 38 213 45 213 "/></svg>