<svg width="256" height="256" xmlns="http://www.w3.org/2000/svg" fill-opacity="0" stroke="black" stroke-width="3" ><path d="M127 53 141 54 151 62 165 74 169 78 173 83 180 93 182 96 187 104 190 110 192 118 195 133 195 148 194 157 189 173 187 179 181 189 175 195 168 200 143 211 129 214 118 216 117 216 109 215 104 214 100 213 91 210 87 208 84 206 77 201 71 195 62 185 56 174 52 165 51 162 48 151 44 135 44 120 46 109 48 103 49 101 56 88 65 77 66 76 82 64 98 56 104 54 110 53 127 53 "/><path d="M1 139 5 140 9 142 21 152 29 166 39 186 40 199 40 202 37 212 36 214 34 217 31 221 23 227 17 231 11 231 0 230 0 139 1 139 "/><path d="M231 14 236 16 244 20 249 24 249 69 247 71 244 73 232 77 228 78 222 79 218 78 216 77 213 75 205 67 202 62 199 53 200 42 202 34 206 24 217 16 220 15 224 14 231 14 "/></svg>