<svg width="256" height="256" xmlns="http://www.w3.org/2000/svg" fill-opacity="0" stroke="black" stroke-width="3" ><path d="M124 33 133 34 151 41 158 46 162 49 164 51 166 54 185 87 188 103 190 117 190 118 188 126 184 136 178 145 160 170 152 178 145 182 143 183 138 184 128 184 111 181 82 174 78 173 63 167 62 166 50 143 49 139 46 98 51 81 53 77 68 58 72 53 82 46 102 34 105 33 124 33 "/><path d="M30 212 46 213 58 216 62 218 76 228 84 236 91 248 91 249 0 249 0 214 2 213 6 212 30 212 "/><path d="M237 141 242 142 249 146 249 235 248 235 236 230 230 227 223 222 217 215 215 206 213 193 212 179 218 160 220 154 222 151 231 142 234 141 237 141 "/></svg>