<svg width="256" height="256" xmlns="http://www.w3.org/2000/svg" fill-opacity="0" stroke="black" stroke-width="3" ><path d="M138 26 154 30 178 38 192 45 205 58 210 64 216 74 224 89 230 116 230 129 229 137 226 150 224 156 220 164 214 174 212 177 200 192 187 205 182 209 166 219 162 221 157 223 144 227 136 227 116 223 69 205 65 203 52 193 44 186 43 185 35 175 30 166 27 158 25 152 23 145 22 137 22 108 23 104 27 94 33 82 46 65 56 55 65 48 76 40 82 36 87 33 89 32 99 28 103 27 109 26 138 26 "/><path d="M5 192 10 195 22 207 46 238 47 246 47 249 0 249 0 190 5 192 "/><path d="M249 32 249 93 248 93 245 91 240 87 238 85 233 78 228 65 228 62 229 56 230 51 231 48 233 45 244 34 248 32 249 32 "/><path d="M227 206 236 212 238 214 240 222 240 227 238 235 236 239 232 241 226 241 219 235 215 231 213 227 213 226 215 216 216 214 219 210 221 208 223 207 226 206 227 206 "/></svg>