<svg width="256" height="256" xmlns="http://www.w3.org/2000/svg" fill-opacity="0" stroke="black" stroke-width="3" ><path d="M154 68 163 69 184 75 186 76 199 83 204 87 214 97 218 104 224 115 228 125 228 142 227 150 226 157 224 170 222 179 216 194 214 198 204 212 192 224 172 237 169 238 162 240 157 241 155 241 141 240 125 237 117 234 108 230 105 228 89 212 85 207 82 203 76 193 73 187 68 121 68 119 73 110 79 103 103 82 110 76 115 73 122 69 124 68 154 68 "/><path d="M1 101 10 102 17 106 18 107 42 136 44 139 46 144 47 150 48 167 48 168 45 174 39 183 34 186 10 192 4 192 0 191 0 101 1 101 "/><path d="M57 32 61 33 82 40 86 43 92 51 93 61 92 64 86 72 74 83 70 86 62 88 0 88 0 75 1 74 49 34 54 32 57 32 "/><path d="M60 215 70 220 73 225 74 227 78 249 0 249 0 229 2 227 5 225 10 222 12 221 21 217 51 214 60 215 "/></svg>