<svg width="256" height="256" xmlns="http://www.w3.org/2000/svg" fill-opacity="0" stroke="black" stroke-width="3" ><path d="M135 37 148 39 161 43 170 46 177 49 201 60 203 61 210 66 214 75 218 97 218 103 216 113 214 119 208 134 205 140 188 171 186 174 182 179 171 190 159 201 156 203 136 213 128 216 121 218 105 220 104 220 94 216 82 210 76 206 72 203 57 189 54 186 48 179 42 171 35 157 34 154 31 139 31 121 33 114 35 108 56 75 60 69 69 60 73 57 78 54 90 49 128 37 135 37 "/><path d="M249 0 249 1 244 8 239 13 223 26 221 27 215 29 211 29 188 9 186 7 185 5 185 4 186 0 249 0 "/><path d="M12 106 13 119 13 123 12 128 4 166 2 170 0 172 0 99 1 98 12 106 "/></svg>