<svg width="256" height="256" xmlns="http://www.w3.org/2000/svg" fill-opacity="0" stroke="black" stroke-width="3" ><path d="M126 0 141 4 143 5 148 8 156 13 160 16 162 18 166 24 172 40 196 107 197 115 196 143 195 147 193 153 192 155 190 158 187 162 154 196 152 198 143 206 140 208 138 209 135 210 128 211 112 211 99 209 84 204 82 203 73 198 19 151 11 143 10 141 3 125 0 105 0 95 3 75 9 60 11 56 45 1 46 0 126 0 "/><path d="M249 0 249 115 248 115 240 113 237 112 230 109 226 107 218 101 212 96 209 93 207 89 194 56 192 36 192 32 193 30 209 1 210 0 249 0 "/><path d="M13 202 20 203 28 208 31 210 34 216 37 228 37 234 34 249 0 249 0 203 5 202 13 202 "/></svg>