<svg width="256" height="256" xmlns="http://www.w3.org/2000/svg" fill-opacity="0" stroke="black" stroke-width="3" ><path d="M145 48 169 53 179 56 190 66 194 71 202 88 204 95 205 99 205 118 197 138 194 145 188 157 186 159 152 188 148 190 143 192 118 197 114 197 110 196 101 190 94 185 58 152 54 143 54 133 55 112 62 98 66 91 69 86 73 82 96 61 101 58 119 52 138 48 145 48 "/><path d="M224 178 229 179 249 187 249 249 238 249 172 246 165 243 160 239 152 227 151 220 153 214 158 204 170 192 176 188 184 184 196 180 207 178 224 178 "/><path d="M128 0 128 2 125 10 117 23 104 34 94 39 89 41 86 42 81 43 74 44 47 44 43 43 27 33 14 21 13 20 4 7 3 3 3 0 128 0 "/></svg>