<svg width="256" height="256" xmlns="http://www.w3.org/2000/svg" fill-opacity="0" stroke="black" stroke-width="3" ><path d="M115 58 145 61 162 65 167 67 170 69 171 70 176 76 179 82 180 85 182 94 187 126 187 157 185 181 183 186 180 192 175 199 141 243 140 244 134 249 24 249 23 246 23 243 43 97 47 87 50 81 60 71 66 67 71 64 74 63 98 59 107 58 115 58 "/><path d="M249 110 249 204 244 207 242 208 239 209 229 210 228 210 216 206 214 204 204 192 202 188 202 175 204 162 205 158 206 155 224 134 240 116 243 113 248 110 249 110 "/><path d="M8 84 17 91 23 97 24 99 29 116 29 123 28 126 23 134 18 139 15 141 9 143 0 144 0 85 4 84 8 84 "/></svg>