<svg width="256" height="256" xmlns="http://www.w3.org/2000/svg" fill-opacity="0" stroke="black" stroke-width="3" ><path d="M148 42 187 44 193 46 198 48 217 56 230 64 239 71 245 76 249 80 249 179 246 184 241 190 235 196 219 207 213 210 201 214 173 219 166 220 121 219 105 215 72 187 64 179 48 156 45 151 43 144 42 140 41 128 41 113 42 106 45 94 50 84 65 66 66 65 77 56 84 51 98 44 105 42 148 42 "/><path d="M30 180 37 184 45 190 50 194 53 197 66 213 70 220 71 222 71 223 42 249 15 249 0 226 0 181 18 176 30 180 "/></svg>