<svg width="256" height="256" xmlns="http://www.w3.org/2000/svg" fill-opacity="0" stroke="black" stroke-width="3" ><path d="M131 68 138 70 141 71 148 74 162 84 169 90 171 92 188 113 193 120 197 127 198 129 202 142 202 153 184 210 182 214 174 222 169 226 163 229 154 233 149 235 143 237 123 237 116 235 108 230 103 225 98 219 58 139 57 136 56 132 55 127 55 124 58 111 62 103 66 96 70 90 81 79 86 76 88 75 93 73 102 70 111 68 127 67 131 68 "/><path d="M249 0 249 127 246 127 221 123 218 122 215 120 211 117 196 105 185 90 173 71 171 66 169 52 169 43 170 38 172 30 174 24 177 18 180 15 186 10 195 3 199 0 249 0 "/><path d="M227 207 249 219 249 249 176 249 209 206 210 205 214 203 227 207 "/></svg>