<svg width="256" height="256" xmlns="http://www.w3.org/2000/svg" fill-opacity="0" stroke="black" stroke-width="3" ><path d="M173 60 178 62 182 64 192 70 195 72 202 78 210 88 212 91 214 95 219 106 221 111 222 115 224 124 226 144 225 154 224 161 222 170 217 181 200 202 194 207 186 213 176 219 158 225 143 225 127 223 122 221 113 217 109 215 99 209 96 207 83 194 81 191 75 179 73 174 71 165 70 159 69 142 69 134 70 128 76 106 80 98 83 93 88 86 91 82 97 76 103 71 107 68 113 64 118 62 124 60 132 58 148 55 173 60 "/><path d="M249 249 223 249 217 237 217 234 218 227 219 222 234 200 245 188 249 184 249 249 "/></svg>