<svg width="256" height="256" xmlns="http://www.w3.org/2000/svg" fill-opacity="0" stroke="black" stroke-width="3" ><path d="M225 0 249 33 249 136 248 138 187 211 177 219 171 223 166 226 155 228 85 233 72 233 46 222 33 214 30 212 25 207 10 180 8 175 0 154 0 134 3 113 4 110 11 102 12 101 64 57 72 51 81 45 83 44 181 0 225 0 "/><path d="M61 0 63 10 62 12 55 25 54 26 48 30 33 36 24 36 14 35 9 27 8 25 0 0 61 0 "/><path d="M234 183 240 187 240 190 239 192 202 234 200 234 196 230 189 221 202 203 206 198 226 186 233 183 234 183 "/></svg>