<svg width="256" height="256" xmlns="http://www.w3.org/2000/svg" fill-opacity="0" stroke="black" stroke-width="3" ><path d="M137 62 144 64 148 66 155 70 168 80 169 81 175 88 177 91 183 104 187 118 187 129 186 133 183 144 182 147 171 167 163 179 147 191 144 193 128 196 122 197 119 197 83 181 79 179 78 178 33 130 32 115 32 112 33 107 34 105 69 79 83 70 85 69 92 66 128 62 137 62 "/><path d="M43 0 47 3 49 6 50 9 51 16 51 19 49 38 48 41 39 56 35 60 27 66 22 68 11 72 5 72 0 70 0 53 4 15 7 0 43 0 "/></svg>