<svg width="256" height="256" xmlns="http://www.w3.org/2000/svg" fill-opacity="0" stroke="black" stroke-width="3" ><path d="M71 0 151 30 154 32 158 36 160 39 161 41 162 48 172 151 172 152 131 216 130 217 125 218 112 214 110 213 93 200 1 62 0 59 0 2 24 0 71 0 "/><path d="M13 143 22 147 29 153 35 159 48 174 59 198 60 203 61 209 58 232 50 249 2 249 0 239 0 146 2 145 8 143 13 143 "/><path d="M229 59 249 62 249 96 246 132 244 134 242 135 225 139 223 139 204 137 189 125 183 111 183 101 197 73 201 69 224 59 229 59 "/></svg>