<svg width="256" height="256" xmlns="http://www.w3.org/2000/svg" fill-opacity="0" stroke="black" stroke-width="3" ><path d="M132 38 151 40 163 44 171 48 178 52 182 55 190 63 213 94 222 111 224 118 225 128 225 132 224 140 222 153 220 159 218 164 212 174 209 178 207 180 203 183 152 213 148 215 141 218 115 221 107 221 98 219 90 217 81 213 74 209 67 203 66 202 57 191 54 186 47 174 41 161 38 150 36 138 35 127 35 124 36 119 43 91 48 83 85 45 90 43 99 40 108 39 129 38 132 38 "/><path d="M2 92 5 93 15 97 18 100 24 108 25 110 26 114 26 119 24 131 12 145 11 146 7 149 0 153 0 92 2 92 "/><path d="M217 228 227 230 229 231 230 232 237 240 238 242 238 245 235 249 193 249 192 248 194 239 202 231 207 228 217 228 "/><path d="M74 232 79 233 83 234 85 235 91 239 96 244 100 249 54 249 54 248 56 244 59 239 61 236 64 233 66 232 74 232 "/></svg>