<svg width="256" height="256" xmlns="http://www.w3.org/2000/svg" fill-opacity="0" stroke="black" stroke-width="3" ><path d="M118 42 133 46 155 54 160 56 169 62 177 69 180 72 189 86 193 93 198 108 198 112 195 133 169 185 163 190 161 191 152 195 145 197 130 197 113 196 102 195 92 191 85 187 73 178 68 173 62 163 54 125 54 118 59 95 69 67 71 63 76 58 112 42 118 42 "/><path d="M249 138 249 249 216 249 202 231 200 226 197 217 192 199 191 182 191 181 192 176 196 166 198 162 210 146 212 144 217 140 220 138 249 138 "/></svg>