<svg width="256" height="256" xmlns="http://www.w3.org/2000/svg" fill-opacity="0" stroke="black" stroke-width="3" ><path d="M138 38 147 39 151 40 157 42 163 45 171 51 179 59 184 65 187 69 196 83 203 94 204 116 204 126 200 142 197 152 195 155 187 166 178 175 173 178 159 186 156 187 152 188 129 188 118 187 114 186 108 184 97 180 84 174 80 172 66 158 62 152 56 141 52 133 50 118 54 98 57 88 60 82 78 55 82 51 89 47 99 42 111 38 138 38 "/><path d="M110 202 114 219 109 224 95 232 90 233 85 233 68 232 67 231 66 229 64 216 64 214 66 211 71 208 90 202 110 202 "/></svg>