<svg width="256" height="256" xmlns="http://www.w3.org/2000/svg" fill-opacity="0" stroke="black" stroke-width="3" ><path d="M144 42 154 44 165 48 190 68 191 69 203 93 203 94 202 114 201 129 199 136 187 164 177 179 156 191 141 197 129 200 119 202 107 202 94 198 88 195 81 191 64 178 59 169 58 167 56 161 53 150 48 117 48 113 52 91 55 84 57 80 68 68 74 62 85 55 90 52 95 50 108 46 115 44 121 43 134 42 144 42 "/><path d="M249 142 228 142 220 138 219 137 218 135 215 127 214 124 215 92 216 83 219 80 241 63 244 62 249 61 249 142 "/><path d="M249 0 249 25 245 27 239 29 234 30 222 31 201 23 198 21 175 1 174 0 249 0 "/><path d="M145 0 145 5 140 9 130 14 112 19 111 19 81 17 70 10 70 7 71 6 84 0 145 0 "/></svg>