<svg width="256" height="256" xmlns="http://www.w3.org/2000/svg" fill-opacity="0" stroke="black" stroke-width="3" ><path d="M137 32 159 39 166 43 193 63 203 73 208 79 212 86 214 91 215 94 216 99 216 100 215 105 214 108 166 200 160 206 150 214 139 218 133 219 131 219 125 218 48 180 43 175 37 168 33 162 11 118 10 113 10 103 11 98 16 78 21 73 120 33 136 32 137 32 "/><path d="M234 119 246 131 247 133 249 138 249 249 165 249 165 234 167 229 177 208 199 169 208 155 221 135 229 123 233 119 234 119 "/><path d="M67 202 71 203 81 207 98 218 101 220 102 221 105 227 109 238 111 244 111 249 18 249 18 248 20 237 23 229 26 223 28 220 34 214 42 208 49 204 52 203 56 202 67 202 "/></svg>