<svg width="256" height="256" xmlns="http://www.w3.org/2000/svg" fill-opacity="0" stroke="black" stroke-width="3" ><path d="M136 31 144 32 168 38 240 81 241 82 243 108 237 149 235 158 234 161 229 175 211 206 209 209 206 212 202 214 180 219 151 221 114 221 90 215 78 210 72 207 18 163 14 155 14 152 18 102 19 97 20 93 30 69 39 58 53 46 78 36 91 34 113 31 136 31 "/><path d="M249 0 249 34 246 33 244 32 238 27 224 15 218 9 216 0 249 0 "/><path d="M36 224 40 226 49 234 51 238 56 249 14 249 19 241 29 228 32 225 34 224 36 224 "/></svg>