<svg width="256" height="256" xmlns="http://www.w3.org/2000/svg" fill-opacity="0" stroke="black" stroke-width="3" ><path d="M119 38 135 40 140 42 144 44 145 45 212 193 212 195 207 201 206 202 172 232 170 233 115 235 64 173 61 169 46 144 45 142 41 126 40 115 40 112 41 103 42 99 45 90 48 84 52 78 75 44 80 39 108 38 119 38 "/><path d="M37 177 51 180 54 181 56 182 99 229 99 231 98 246 82 249 2 249 1 248 0 246 0 187 10 182 21 178 29 176 37 177 "/><path d="M89 0 90 1 90 3 88 13 87 16 84 24 81 30 79 32 56 54 50 57 9 67 0 67 0 0 89 0 "/></svg>