<svg width="256" height="256" xmlns="http://www.w3.org/2000/svg" fill-opacity="0" stroke="black" stroke-width="3" ><path d="M128 30 144 34 178 46 181 48 189 56 192 60 197 68 206 83 211 93 214 114 215 124 214 129 210 140 202 152 198 157 177 183 172 189 158 203 146 211 141 213 106 213 94 208 88 205 85 203 77 197 65 186 41 141 39 137 38 133 37 118 37 116 44 76 45 74 49 69 68 57 106 36 120 30 123 29 128 30 "/><path d="M89 0 89 4 88 9 84 19 74 29 67 35 63 38 58 41 53 43 47 45 39 45 22 41 17 39 1 24 0 23 0 16 1 14 13 0 89 0 "/><path d="M8 157 13 161 16 165 18 169 20 174 21 180 21 190 17 197 11 203 7 206 1 207 0 207 0 153 8 157 "/></svg>