<svg width="256" height="256" xmlns="http://www.w3.org/2000/svg" fill-opacity="0" stroke="black" stroke-width="3" ><path d="M176 125 174 179 173 183 171 188 165 199 160 205 159 206 99 209 97 209 92 207 70 194 67 186 56 149 54 108 54 102 55 90 62 78 81 65 128 62 134 62 140 65 164 81 165 82 172 103 176 121 176 125 "/><path d="M249 32 249 132 246 132 243 131 227 122 222 117 209 95 208 93 208 81 209 76 211 67 215 55 222 47 223 46 237 35 243 32 249 32 "/><path d="M2 152 12 158 16 162 19 166 22 171 32 192 36 201 36 208 35 218 34 224 33 225 15 237 12 238 0 237 0 152 2 152 "/><path d="M31 0 37 2 38 9 39 22 39 26 38 32 22 48 18 51 11 56 9 57 0 56 0 0 31 0 "/><path d="M183 0 184 1 174 23 159 28 137 28 116 22 107 17 98 11 89 4 89 0 183 0 "/><path d="M1 65 9 69 10 70 12 73 18 87 20 94 21 100 21 107 20 112 18 116 6 135 2 136 0 136 0 65 1 65 "/><path d="M71 228 81 229 90 231 97 233 99 234 103 237 107 241 109 245 109 249 50 249 51 243 52 240 58 234 65 229 67 228 71 228 "/><path d="M243 158 246 160 247 161 248 163 243 184 242 186 241 187 238 189 234 191 204 204 203 204 190 196 189 195 189 194 193 190 222 164 227 160 232 158 239 156 243 158 "/></svg>