<svg width="256" height="256" xmlns="http://www.w3.org/2000/svg" fill-opacity="0" stroke="black" stroke-width="3" ><path d="M163 53 190 59 203 63 208 65 211 67 214 71 234 99 237 120 237 128 235 139 232 145 225 157 214 173 212 175 206 180 181 194 177 196 152 205 151 205 145 204 125 199 119 197 107 190 97 184 86 172 84 167 78 151 74 133 74 128 80 105 81 103 100 73 129 58 141 55 152 53 163 53 "/><path d="M9 126 13 127 26 132 32 137 35 140 43 154 44 161 44 172 41 189 40 192 31 206 27 208 14 213 4 214 0 214 0 126 9 126 "/><path d="M29 218 45 222 48 223 57 229 66 240 69 245 70 248 70 249 0 249 0 227 3 225 20 220 28 218 29 218 "/></svg>