<svg width="256" height="256" xmlns="http://www.w3.org/2000/svg" fill-opacity="0" stroke="black" stroke-width="3" ><path d="M120 56 131 57 139 58 163 69 167 72 185 92 195 104 197 131 197 135 196 145 195 149 194 151 187 164 177 179 158 193 151 195 135 195 122 193 111 191 106 189 97 185 94 183 90 180 78 168 75 164 61 138 60 136 57 127 56 123 56 113 59 91 60 87 62 83 66 77 78 69 96 60 118 56 120 56 "/><path d="M231 0 239 4 241 6 243 10 246 24 246 48 236 85 226 96 225 97 223 97 220 96 218 95 210 88 193 73 181 61 178 57 171 47 161 32 161 26 162 8 164 4 173 0 231 0 "/></svg>