<svg width="256" height="256" xmlns="http://www.w3.org/2000/svg" fill-opacity="0" stroke="black" stroke-width="3" ><path d="M95 33 156 38 184 43 219 52 222 53 224 54 225 55 229 60 234 68 242 108 243 127 243 128 242 130 215 176 214 177 211 179 209 180 198 183 167 190 166 190 67 174 64 173 57 169 56 168 48 158 47 129 47 125 56 94 60 82 72 55 73 53 77 47 81 42 88 35 92 33 95 33 "/><path d="M130 218 146 219 151 221 174 239 175 241 178 248 178 249 61 249 60 238 60 237 62 235 69 231 73 229 101 222 111 220 124 218 130 218 "/></svg>