<svg width="256" height="256" xmlns="http://www.w3.org/2000/svg" fill-opacity="0" stroke="black" stroke-width="3" ><path d="M114 50 119 51 197 100 205 107 207 109 218 134 216 142 215 145 213 149 181 192 179 194 174 194 66 180 44 164 37 158 14 135 3 116 3 115 11 104 13 102 104 52 106 51 111 50 114 50 "/><path d="M47 0 54 4 60 11 62 19 63 24 67 63 67 68 66 70 45 80 30 86 20 88 1 91 0 90 0 0 47 0 "/><path d="M129 208 142 211 149 214 150 215 155 225 166 249 44 249 44 247 48 230 52 214 61 208 129 208 "/></svg>