<svg width="256" height="256" xmlns="http://www.w3.org/2000/svg" fill-opacity="0" stroke="black" stroke-width="3" ><path d="M130 49 147 53 193 68 195 70 205 88 208 141 208 144 204 160 200 168 194 176 174 193 168 197 150 207 148 208 132 215 127 216 104 216 100 215 64 198 60 194 53 183 49 176 47 171 43 160 39 140 39 128 43 114 45 108 51 94 53 90 68 74 71 71 75 68 85 61 88 59 112 51 122 49 130 49 "/><path d="M201 203 212 209 223 216 224 217 228 222 232 230 234 235 235 238 236 243 236 249 140 249 140 248 141 239 143 235 149 229 152 227 183 209 190 205 192 204 200 203 201 203 "/><path d="M244 48 249 55 249 119 248 119 235 107 233 105 219 73 219 63 243 48 244 48 "/></svg>