<svg width="256" height="256" xmlns="http://www.w3.org/2000/svg" fill-opacity="0" stroke="black" stroke-width="3" ><path d="M150 48 160 53 196 82 204 91 206 95 207 99 208 109 208 114 205 120 188 153 183 161 173 172 162 183 46 249 27 249 0 226 0 17 150 48 "/><path d="M227 138 233 140 239 143 245 148 246 150 249 173 249 190 210 199 207 199 203 197 202 195 201 191 200 186 199 164 199 163 200 160 201 158 213 144 217 141 221 139 224 138 227 138 "/><path d="M166 202 168 203 171 207 172 210 163 249 115 249 115 235 119 218 121 216 127 212 132 209 142 205 148 203 158 202 166 202 "/><path d="M93 0 69 14 63 17 58 18 52 18 46 15 19 1 19 0 93 0 "/><path d="M249 249 233 249 232 248 231 244 231 227 232 220 243 205 249 203 249 249 "/></svg>