<svg width="256" height="256" xmlns="http://www.w3.org/2000/svg" fill-opacity="0" stroke="black" stroke-width="3" ><path d="M129 27 167 35 170 36 180 41 186 45 190 48 200 58 204 63 220 88 222 92 223 96 226 111 227 145 227 149 226 151 224 154 216 164 211 168 142 212 140 213 137 214 119 215 112 215 94 209 89 207 77 200 72 196 63 188 56 181 54 178 51 173 43 158 39 150 37 142 36 127 36 126 38 102 40 92 41 88 43 83 48 75 50 72 63 58 68 54 81 44 90 38 114 29 120 27 129 27 "/><path d="M62 229 66 231 74 237 78 241 82 249 22 249 29 243 32 241 52 230 54 229 62 229 "/></svg>