<svg width="256" height="256" xmlns="http://www.w3.org/2000/svg" fill-opacity="0" stroke="black" stroke-width="3" ><path d="M141 7 145 8 147 9 163 18 176 28 183 35 191 45 199 69 202 80 203 89 204 125 204 129 199 152 193 162 183 172 175 176 118 187 114 187 93 184 76 181 67 179 63 178 59 175 48 166 46 164 32 147 28 142 17 122 16 111 16 108 17 88 18 72 19 68 20 65 24 54 26 49 28 45 38 33 40 31 50 22 60 15 66 13 92 7 141 7 "/><path d="M9 170 13 171 40 181 44 184 50 189 52 193 56 208 56 209 49 225 47 228 39 236 19 248 16 248 0 247 0 172 1 170 9 170 "/><path d="M142 210 146 211 159 215 184 227 184 230 176 245 171 249 107 249 104 235 104 231 105 227 106 225 136 211 139 210 142 210 "/><path d="M217 0 215 22 214 24 192 24 174 4 175 0 217 0 "/></svg>