<svg width="256" height="256" xmlns="http://www.w3.org/2000/svg" fill-opacity="0" stroke="black" stroke-width="3" ><path d="M153 0 155 3 158 13 157 39 152 50 145 62 136 73 134 75 71 114 67 114 61 111 55 106 53 103 38 80 36 76 32 67 32 59 44 5 48 0 153 0 "/><path d="M249 241 246 241 223 235 220 234 215 232 209 229 207 227 201 215 197 205 195 195 195 194 196 186 199 180 201 177 220 157 223 156 249 152 249 241 "/><path d="M2 196 18 204 32 217 45 249 0 249 0 197 1 196 2 196 "/><path d="M140 119 142 120 146 124 147 129 147 130 145 137 144 139 141 144 137 147 126 149 119 149 117 148 117 145 118 142 120 137 124 129 131 119 140 119 "/></svg>