<svg width="256" height="256" xmlns="http://www.w3.org/2000/svg" fill-opacity="0" stroke="black" stroke-width="3" ><path d="M137 15 145 17 153 23 155 25 160 31 165 38 167 41 169 45 176 61 179 76 180 85 180 96 179 101 177 106 174 111 169 119 160 127 156 130 151 133 143 137 134 140 117 144 110 145 108 145 98 144 77 138 74 137 73 136 72 134 71 130 79 56 80 50 81 49 110 21 121 17 136 15 137 15 "/><path d="M166 148 169 149 171 150 177 156 181 161 189 174 192 190 188 206 184 214 181 218 177 220 143 230 138 231 137 231 133 229 96 196 86 186 86 183 91 179 124 160 126 159 131 157 146 152 165 148 166 148 "/><path d="M111 0 111 2 110 4 106 8 38 45 36 46 23 52 7 57 3 58 0 58 0 0 111 0 "/></svg>