<svg width="256" height="256" xmlns="http://www.w3.org/2000/svg" fill-opacity="0" stroke="black" stroke-width="3" ><path d="M136 35 155 36 175 40 178 41 199 54 201 57 209 70 212 76 215 91 216 98 216 118 214 136 213 142 212 147 209 159 206 170 205 173 203 178 201 181 191 192 183 200 179 203 156 216 143 220 137 221 129 222 120 222 113 221 106 219 84 211 78 208 62 192 50 176 39 161 40 119 41 112 42 107 44 99 50 81 51 79 62 65 66 61 71 57 82 50 100 43 116 38 126 36 133 35 136 35 "/><path d="M249 205 248 205 244 203 233 195 226 189 221 181 219 177 219 166 220 155 223 125 226 104 230 93 234 83 236 79 238 76 241 73 249 66 249 205 "/><path d="M215 213 220 214 226 218 243 230 246 233 249 243 249 249 134 249 140 244 147 240 204 214 210 213 215 213 "/><path d="M249 0 249 33 245 35 239 37 221 39 220 39 212 36 210 35 202 27 191 15 187 7 187 1 188 0 249 0 "/><path d="M123 0 120 2 113 6 82 19 71 22 25 11 21 9 12 2 11 0 123 0 "/></svg>