<svg width="256" height="256" xmlns="http://www.w3.org/2000/svg" fill-opacity="0" stroke="black" stroke-width="3" ><path d="M118 29 123 30 126 31 136 35 140 37 176 64 181 68 210 96 211 97 218 107 220 115 220 135 217 145 214 154 200 177 190 190 184 196 181 198 165 204 159 205 103 210 90 208 83 206 81 205 78 203 65 194 37 167 33 161 32 159 23 135 19 107 19 106 21 99 23 95 41 67 45 61 53 53 68 41 88 30 104 29 118 29 "/><path d="M249 0 249 32 238 32 230 30 190 17 188 16 182 12 178 8 176 5 176 1 177 0 249 0 "/><path d="M10 0 26 10 28 16 29 20 25 29 24 31 21 34 19 35 16 36 10 36 6 35 4 34 0 31 0 0 10 0 "/></svg>