<svg width="256" height="256" xmlns="http://www.w3.org/2000/svg" fill-opacity="0" stroke="black" stroke-width="3" ><path d="M127 42 140 44 148 46 163 50 171 53 193 74 195 76 207 94 211 104 221 135 221 159 215 184 214 186 199 202 195 206 192 208 158 227 138 231 133 231 119 228 111 225 75 202 69 197 68 196 63 190 50 174 41 161 35 135 35 120 42 100 47 90 62 70 63 69 79 58 91 52 102 47 112 44 120 42 127 42 "/><path d="M249 0 249 88 247 110 246 112 244 112 228 110 226 109 221 106 217 102 215 98 209 82 193 9 193 6 220 0 249 0 "/><path d="M35 203 38 204 61 215 74 235 79 244 80 248 80 249 0 249 0 208 4 206 27 203 35 203 "/></svg>