<svg width="256" height="256" xmlns="http://www.w3.org/2000/svg" fill-opacity="0" stroke="black" stroke-width="3" ><path d="M60 64 105 81 133 95 136 97 142 103 156 120 156 142 154 147 152 150 102 214 100 216 88 226 84 228 79 230 77 230 54 227 47 226 36 224 34 223 6 207 2 204 0 199 0 89 2 84 6 78 7 77 17 72 22 70 25 69 54 62 60 64 "/><path d="M216 163 227 166 237 171 246 178 249 181 249 249 109 249 107 244 107 224 116 200 128 183 137 176 147 171 151 170 165 167 206 163 216 163 "/><path d="M190 0 192 8 186 21 182 28 177 34 160 51 127 69 117 73 107 76 104 76 85 68 66 56 64 54 55 39 51 29 51 17 59 0 190 0 "/></svg>