<svg width="256" height="256" xmlns="http://www.w3.org/2000/svg" fill-opacity="0" stroke="black" stroke-width="3" ><path d="M163 48 169 51 227 120 227 122 221 148 211 183 209 189 190 234 186 242 181 249 150 249 145 248 140 246 71 202 67 198 63 192 61 161 61 160 62 151 66 126 71 111 72 109 74 106 80 98 105 73 110 70 119 66 158 49 161 48 163 48 "/><path d="M27 149 34 151 36 152 39 154 45 159 47 166 48 171 48 176 46 187 45 189 41 195 40 196 37 198 30 202 25 203 14 203 6 201 0 197 0 162 3 157 4 156 15 151 26 149 27 149 "/><path d="M54 214 79 219 101 240 107 249 28 249 27 247 24 237 23 233 24 230 27 225 29 222 33 218 36 216 38 215 42 214 54 214 "/><path d="M24 39 39 47 46 51 53 58 59 65 64 76 63 87 61 91 54 98 48 101 44 101 40 100 38 99 28 89 26 86 15 67 14 65 13 59 13 48 14 43 22 38 24 39 "/></svg>