<svg width="256" height="256" xmlns="http://www.w3.org/2000/svg" fill-opacity="0" stroke="black" stroke-width="3" ><path d="M130 52 134 54 135 55 191 148 192 176 192 178 173 214 165 221 162 223 156 226 133 231 131 231 95 215 63 200 61 199 56 196 48 188 42 180 39 175 38 173 35 159 35 147 36 142 48 100 49 98 54 89 56 86 69 69 73 65 77 62 80 60 85 57 89 55 92 54 96 53 125 52 130 52 "/><path d="M213 186 217 188 229 195 242 205 246 210 249 214 249 249 192 249 178 210 178 209 179 207 185 196 188 191 191 188 196 186 209 185 213 186 "/></svg>