<svg width="256" height="256" xmlns="http://www.w3.org/2000/svg" fill-opacity="0" stroke="black" stroke-width="3" ><path d="M129 49 136 50 145 53 151 56 160 61 167 66 176 75 178 78 183 88 184 91 192 121 196 139 196 150 194 158 192 165 189 172 187 176 181 185 178 189 171 196 162 203 156 207 151 210 149 211 136 215 125 216 114 215 107 214 97 211 91 209 87 207 84 205 75 198 74 197 71 193 66 186 52 164 47 149 45 141 44 134 44 133 47 119 51 105 57 93 69 74 72 71 89 61 96 57 98 56 113 51 123 49 129 49 "/><path d="M249 142 234 139 224 134 222 132 217 125 205 99 204 96 203 89 202 79 202 77 203 75 213 59 217 54 219 52 227 46 249 35 249 142 "/><path d="M22 162 25 163 30 165 33 167 36 170 38 174 42 187 42 195 38 209 37 211 32 220 14 219 8 217 4 215 3 214 2 212 0 204 0 167 5 165 20 162 22 162 "/><path d="M104 0 107 4 108 12 108 21 107 24 105 26 102 28 100 29 78 38 74 38 70 37 67 35 59 27 39 1 39 0 104 0 "/><path d="M249 0 249 1 248 2 240 9 230 16 207 21 193 21 189 19 184 10 179 0 249 0 "/><path d="M249 249 202 249 203 247 208 242 225 233 227 232 249 229 249 249 "/></svg>