<svg width="256" height="256" xmlns="http://www.w3.org/2000/svg" fill-opacity="0" stroke="black" stroke-width="3" ><path d="M178 0 197 15 198 16 217 38 219 41 222 47 224 52 228 164 223 181 220 189 208 209 192 218 188 220 181 220 150 219 69 211 63 210 54 208 50 207 41 201 37 198 33 194 30 190 25 182 0 70 0 40 11 3 13 0 178 0 "/><path d="M102 216 109 217 111 218 122 224 147 240 148 241 150 245 151 249 51 249 60 235 72 226 91 217 94 216 102 216 "/><path d="M249 208 249 249 200 249 221 221 227 214 230 211 232 210 248 208 249 208 "/><path d="M249 117 240 108 238 105 226 78 226 75 227 72 239 44 249 41 249 117 "/></svg>