<svg width="256" height="256" xmlns="http://www.w3.org/2000/svg" fill-opacity="0" stroke="black" stroke-width="3" ><path d="M154 39 157 40 167 45 171 48 178 54 183 60 186 64 189 69 197 85 203 102 203 120 202 126 199 139 198 142 191 157 180 172 177 176 174 179 152 190 120 200 102 198 88 196 82 194 72 190 66 186 62 183 59 180 50 167 48 161 48 156 66 106 79 80 96 59 103 51 105 49 108 47 117 43 123 41 130 39 142 38 154 39 "/><path d="M54 36 56 37 61 40 62 41 73 55 78 63 79 67 80 72 80 76 50 132 47 134 32 135 8 135 0 131 0 60 2 47 5 45 29 30 54 36 "/><path d="M75 0 84 11 84 15 81 24 79 26 69 31 62 31 45 24 41 22 36 18 35 15 34 1 34 0 75 0 "/><path d="M71 228 84 230 91 233 115 245 117 247 118 249 32 249 48 236 57 229 68 228 71 228 "/></svg>