<svg width="256" height="256" xmlns="http://www.w3.org/2000/svg" fill-opacity="0" stroke="black" stroke-width="3" ><path d="M141 19 176 25 194 38 201 44 207 50 209 53 217 67 221 75 224 82 225 85 225 93 215 181 211 188 206 195 197 204 187 213 160 234 139 234 126 232 114 230 104 228 94 225 87 222 85 221 77 216 62 206 61 205 45 185 38 170 33 159 31 151 30 144 29 136 29 131 33 107 62 57 63 56 90 33 98 28 105 24 116 21 121 20 129 19 141 19 "/><path d="M84 0 86 7 87 15 87 19 86 22 84 27 39 84 20 108 17 110 14 110 0 97 0 0 84 0 "/><path d="M249 209 247 209 240 204 234 199 230 195 229 192 225 141 225 132 226 127 230 117 233 111 243 97 249 93 249 209 "/><path d="M233 213 239 214 249 217 249 249 221 249 189 243 189 237 192 230 193 229 209 219 217 216 229 213 233 213 "/></svg>