<svg width="256" height="256" xmlns="http://www.w3.org/2000/svg" fill-opacity="0" stroke="black" stroke-width="3" ><path d="M214 75 229 81 235 87 239 92 241 95 243 100 246 108 249 118 249 169 246 180 240 189 220 210 219 211 211 215 205 217 201 217 90 171 73 92 72 85 72 84 79 69 87 62 94 56 102 53 110 51 214 75 "/><path d="M22 82 37 88 51 94 53 98 76 148 79 155 79 160 75 184 69 192 66 195 50 208 38 213 26 216 25 216 0 202 0 85 2 84 20 82 22 82 "/><path d="M88 209 93 210 97 211 137 222 146 235 147 237 147 249 67 249 62 247 60 246 58 244 53 238 51 234 51 231 53 228 59 222 71 212 74 211 82 209 88 209 "/></svg>