<svg width="256" height="256" xmlns="http://www.w3.org/2000/svg" fill-opacity="0" stroke="black" stroke-width="3" ><path d="M31 39 121 52 123 53 138 61 169 81 170 82 174 87 176 90 177 95 178 103 179 121 178 134 176 139 174 143 172 146 157 162 154 165 124 183 121 184 108 184 0 152 0 59 2 57 19 42 23 39 31 39 "/><path d="M249 0 249 23 246 32 244 34 181 37 179 37 161 34 158 33 152 30 151 29 141 12 139 8 138 4 138 0 249 0 "/><path d="M57 201 73 203 81 207 84 209 87 213 88 215 90 221 90 229 89 235 87 240 85 243 83 245 79 247 73 249 39 249 36 245 35 210 35 208 38 205 41 203 55 201 57 201 "/><path d="M5 183 14 185 23 204 30 219 35 240 35 243 20 249 0 249 0 182 5 183 "/><path d="M249 130 241 130 235 128 230 126 228 125 225 123 223 121 219 115 218 107 218 99 219 95 234 75 238 71 249 63 249 130 "/></svg>