<svg width="256" height="256" xmlns="http://www.w3.org/2000/svg" fill-opacity="0" stroke="black" stroke-width="3" ><path d="M117 68 126 69 138 73 154 79 156 80 161 83 167 87 176 96 180 101 184 107 185 109 188 116 191 126 192 131 192 151 191 156 189 165 166 249 71 249 50 175 48 154 47 143 47 139 48 130 50 123 53 114 56 109 61 101 64 97 68 92 75 85 84 78 91 74 103 70 107 69 112 68 117 68 "/><path d="M177 0 193 16 194 18 194 26 192 35 189 40 184 46 183 47 181 48 176 48 170 46 168 45 156 38 148 16 148 0 177 0 "/></svg>