<svg width="256" height="256" xmlns="http://www.w3.org/2000/svg" fill-opacity="0" stroke="black" stroke-width="3" ><path d="M249 0 249 237 208 235 199 233 110 210 101 205 98 203 74 184 54 164 40 146 36 138 35 135 34 122 34 113 35 106 37 96 38 92 40 87 43 81 46 77 57 66 135 0 249 0 "/><path d="M51 195 57 197 63 200 66 202 71 207 74 214 75 222 75 228 71 236 67 241 66 242 63 244 56 246 5 247 0 247 0 211 5 207 43 195 51 195 "/><path d="M38 0 39 3 39 14 37 20 32 28 25 34 16 40 2 49 0 50 0 0 38 0 "/></svg>