<svg width="256" height="256" xmlns="http://www.w3.org/2000/svg" fill-opacity="0" stroke="black" stroke-width="3" ><path d="M127 47 136 50 173 63 189 76 191 78 197 106 202 138 202 142 197 160 195 163 191 168 173 186 170 188 164 190 151 194 142 195 112 195 106 194 87 187 83 185 77 181 67 173 65 171 60 165 54 154 50 145 48 140 43 122 42 118 43 108 46 95 58 78 69 63 71 61 81 53 83 52 97 47 127 47 "/><path d="M31 0 35 5 36 7 40 21 39 29 38 32 37 34 34 38 29 42 25 45 22 47 18 48 10 48 6 47 4 46 0 43 0 0 31 0 "/></svg>