<svg width="256" height="256" xmlns="http://www.w3.org/2000/svg" fill-opacity="0" stroke="black" stroke-width="3" ><path d="M178 81 182 82 249 100 249 249 185 249 142 203 137 187 137 184 148 106 149 102 151 98 154 93 164 85 167 83 173 81 178 81 "/><path d="M20 88 28 92 31 94 35 97 37 99 39 102 53 125 55 130 55 138 53 146 38 198 36 204 35 206 32 210 30 212 12 222 9 223 8 223 0 220 0 93 11 89 16 88 20 88 "/><path d="M71 0 75 12 75 15 74 21 72 32 69 38 55 52 43 60 41 60 33 58 20 47 17 44 14 38 6 17 5 13 4 8 4 0 71 0 "/><path d="M249 0 249 24 242 24 195 19 184 16 180 14 172 7 171 6 169 3 169 0 249 0 "/></svg>