<svg width="256" height="256" xmlns="http://www.w3.org/2000/svg" fill-opacity="0" stroke="black" stroke-width="3" ><path d="M139 48 147 49 150 50 153 52 207 108 215 126 217 133 217 141 216 145 210 159 200 179 186 194 184 196 147 214 135 216 129 216 97 210 92 208 90 207 78 197 76 195 67 181 60 164 59 161 55 146 55 127 58 111 65 95 79 70 88 61 94 56 99 54 119 48 139 48 "/><path d="M2 28 9 29 17 31 30 36 36 40 41 44 46 49 52 56 56 64 58 70 58 76 57 83 56 88 55 90 53 90 21 78 0 70 0 28 2 28 "/><path d="M162 0 163 1 165 10 163 14 162 15 134 34 132 35 122 36 94 36 75 35 69 30 67 28 49 8 45 3 44 1 44 0 162 0 "/><path d="M4 93 42 148 42 152 38 161 32 167 16 181 10 185 6 187 0 187 0 91 4 93 "/></svg>