<svg width="256" height="256" xmlns="http://www.w3.org/2000/svg" fill-opacity="0" stroke="black" stroke-width="3" ><path d="M133 14 141 15 146 16 153 18 159 20 165 23 176 30 184 36 186 38 193 46 195 49 201 61 204 70 206 77 208 88 208 109 207 115 206 119 204 123 196 134 180 154 178 156 171 160 169 161 161 164 146 169 135 170 129 170 118 169 110 167 103 165 89 159 86 157 76 149 68 141 65 137 55 119 53 113 51 105 50 93 50 81 51 77 61 52 63 48 66 44 78 32 81 30 92 24 96 22 103 19 106 18 114 16 125 14 133 14 "/></svg>