<svg width="256" height="256" xmlns="http://www.w3.org/2000/svg" fill-opacity="0" stroke="black" stroke-width="3" ><path d="M151 62 152 64 175 131 175 133 174 135 172 138 171 139 165 143 153 148 127 158 101 158 79 147 76 139 76 138 82 126 87 120 135 68 137 67 149 62 151 62 "/><path d="M104 3 125 5 129 6 132 7 137 11 141 15 145 23 147 32 147 51 146 52 89 67 79 69 66 59 66 55 68 50 77 29 78 27 88 15 100 3 104 3 "/><path d="M97 71 97 72 96 104 80 123 76 126 73 126 48 107 48 101 49 97 84 75 96 70 97 71 "/></svg>