<svg width="256" height="256" xmlns="http://www.w3.org/2000/svg" fill-opacity="0" stroke="black" stroke-width="3" ><path d="M132 47 194 60 206 63 211 65 212 66 222 77 225 84 228 95 228 99 216 162 214 164 171 198 147 210 135 213 125 213 73 201 71 200 29 178 27 176 25 172 21 162 20 145 20 140 21 128 29 110 42 85 44 83 73 58 89 51 92 50 98 49 106 48 116 47 132 47 "/><path d="M236 179 247 183 249 184 249 227 240 243 238 245 217 249 166 249 165 246 168 236 174 223 185 210 201 192 203 190 219 181 228 179 236 179 "/></svg>