<svg width="256" height="256" xmlns="http://www.w3.org/2000/svg" fill-opacity="0" stroke="black" stroke-width="3" ><path d="M169 59 176 60 188 66 194 70 197 74 220 105 222 108 228 122 229 134 229 150 190 213 188 216 187 217 186 217 113 201 106 197 97 189 93 183 92 181 80 155 74 141 73 133 73 126 74 111 75 101 77 98 95 80 106 71 156 60 165 59 169 59 "/><path d="M188 0 194 12 199 49 199 51 198 52 101 64 100 64 91 63 65 51 60 48 52 43 44 35 29 17 25 7 25 3 32 0 188 0 "/><path d="M51 170 57 172 62 175 77 189 80 194 89 210 91 228 91 232 84 249 0 249 0 196 1 194 8 186 10 184 16 180 28 174 33 172 36 171 47 170 51 170 "/><path d="M249 167 249 249 221 249 221 247 231 191 233 180 234 176 239 167 249 167 "/><path d="M240 102 246 105 249 108 249 160 248 160 244 159 240 153 239 147 237 134 234 106 234 103 238 102 240 102 "/></svg>