<svg width="256" height="256" xmlns="http://www.w3.org/2000/svg" fill-opacity="0" stroke="black" stroke-width="3" ><path d="M159 65 162 67 166 70 170 74 191 145 191 155 184 170 183 172 179 178 171 188 167 192 156 201 153 203 151 204 145 206 140 207 131 207 120 206 114 204 98 198 94 196 91 194 86 189 74 175 64 161 62 158 60 150 61 116 63 108 68 98 79 82 86 77 88 76 158 65 159 65 "/><path d="M249 161 249 217 246 240 245 243 242 249 193 249 186 231 184 204 184 203 186 198 196 185 210 173 215 169 230 163 248 161 249 161 "/><path d="M225 0 226 2 223 9 212 32 208 36 204 38 186 44 182 45 173 45 169 44 166 43 150 36 146 34 142 28 141 25 141 22 145 10 146 9 156 2 160 0 225 0 "/></svg>