<svg width="256" height="256" xmlns="http://www.w3.org/2000/svg" fill-opacity="0" stroke="black" stroke-width="3" ><path d="M154 48 160 50 170 54 180 62 184 66 195 78 196 90 197 115 197 147 196 156 190 165 154 195 131 190 89 169 85 165 80 159 69 144 66 138 64 130 64 106 65 97 69 80 85 64 96 60 105 57 109 56 138 49 152 48 154 48 "/><path d="M249 125 249 186 237 182 233 180 226 174 223 170 222 168 220 159 220 155 221 143 226 137 246 126 248 125 249 125 "/><path d="M203 232 209 234 211 235 214 237 220 246 220 249 170 249 171 248 184 237 190 233 193 232 203 232 "/></svg>