<svg width="256" height="256" xmlns="http://www.w3.org/2000/svg" fill-opacity="0" stroke="black" stroke-width="3" ><path d="M196 69 200 78 204 91 206 112 206 118 205 123 202 134 196 152 192 160 186 168 176 178 169 184 166 186 154 192 142 196 126 200 112 201 111 201 104 200 91 198 85 196 84 195 80 190 79 188 66 161 66 160 86 114 87 113 194 67 196 69 "/><path d="M201 0 205 4 205 5 199 14 195 18 170 40 125 35 124 34 123 32 110 1 110 0 201 0 "/><path d="M22 208 26 212 49 236 50 238 50 244 48 247 44 249 30 249 2 233 0 231 0 210 21 208 22 208 "/></svg>