<svg width="256" height="256" xmlns="http://www.w3.org/2000/svg" fill-opacity="0" stroke="black" stroke-width="3" ><path d="M146 26 162 30 188 38 202 52 220 77 222 80 224 84 228 93 230 98 231 101 233 113 234 139 234 146 233 149 230 157 226 165 210 191 187 221 182 225 160 237 148 240 138 242 128 242 122 241 107 238 103 237 86 231 78 226 69 220 65 217 59 210 47 194 43 188 39 181 32 168 31 166 29 161 28 157 25 139 24 131 24 128 27 106 29 98 30 95 37 80 44 70 49 64 55 58 64 51 80 41 101 32 118 28 125 27 135 26 146 26 "/><path d="M249 0 249 51 233 42 224 33 221 29 220 27 217 20 214 3 214 0 249 0 "/><path d="M143 0 140 4 138 6 134 8 128 10 121 12 112 14 102 16 101 16 96 15 87 13 83 11 74 5 72 3 70 0 143 0 "/></svg>