<svg width="256" height="256" xmlns="http://www.w3.org/2000/svg" fill-opacity="0" stroke="black" stroke-width="3" ><path d="M124 68 130 69 138 72 150 78 163 91 173 102 182 115 184 121 184 122 180 150 174 168 173 170 158 188 140 206 129 214 119 214 70 204 57 191 31 158 31 156 35 130 37 119 51 106 55 103 80 86 113 69 123 68 124 68 "/><path d="M6 165 16 166 31 172 35 176 43 186 47 192 48 194 51 201 52 206 52 219 48 232 38 245 37 246 30 249 0 249 0 166 2 165 6 165 "/><path d="M90 0 90 3 89 18 87 25 85 29 63 54 61 55 31 56 19 52 5 38 0 29 0 0 90 0 "/><path d="M209 197 227 212 228 213 230 219 230 223 224 249 140 249 140 248 141 238 142 235 170 200 173 199 204 197 209 197 "/></svg>