<svg width="256" height="256" xmlns="http://www.w3.org/2000/svg" fill-opacity="0" stroke="black" stroke-width="3" ><path d="M170 67 175 68 178 69 189 73 194 77 206 91 213 102 218 110 220 114 222 121 226 146 226 147 224 162 222 171 216 190 213 196 211 199 204 208 198 214 181 228 161 242 153 246 102 246 96 244 92 242 82 236 73 230 66 224 63 221 61 218 53 200 43 164 43 161 47 126 50 117 52 113 56 109 81 87 88 82 96 77 100 75 112 71 119 69 124 68 133 67 170 67 "/><path d="M249 0 249 57 246 63 237 69 222 72 218 72 205 60 191 36 191 28 192 22 193 17 195 11 198 4 200 0 249 0 "/><path d="M22 0 34 19 36 25 36 35 35 38 34 40 20 61 18 63 10 67 1 70 0 70 0 0 22 0 "/></svg>