<svg width="256" height="256" xmlns="http://www.w3.org/2000/svg" fill-opacity="0" stroke="black" stroke-width="3" ><path d="M105 51 117 52 136 55 164 62 166 63 167 64 188 87 219 122 220 124 220 128 168 188 143 200 115 210 101 211 100 211 81 208 63 205 40 190 35 184 34 182 24 159 21 109 21 102 64 64 76 58 104 51 105 51 "/><path d="M249 0 249 90 244 103 241 105 239 105 187 62 177 35 176 24 176 23 181 9 189 0 249 0 "/><path d="M47 223 63 231 65 233 72 243 72 249 0 249 0 245 4 234 5 232 6 231 8 230 17 227 36 223 47 223 "/></svg>