<svg width="256" height="256" xmlns="http://www.w3.org/2000/svg" fill-opacity="0" stroke="black" stroke-width="3" ><path d="M142 33 166 37 188 46 195 49 198 51 203 58 206 63 214 77 215 79 217 85 217 89 216 109 214 114 209 124 193 146 191 148 184 154 181 156 36 246 25 249 0 249 0 135 87 58 95 52 125 35 131 33 142 33 "/><path d="M65 0 69 4 72 8 74 19 75 28 75 36 73 46 72 50 62 72 50 84 40 92 32 98 30 99 27 99 0 97 0 0 65 0 "/><path d="M124 195 138 197 146 201 156 210 157 211 168 229 169 233 169 236 168 238 163 244 155 249 71 249 75 241 80 235 111 204 123 195 124 195 "/></svg>