<svg width="256" height="256" xmlns="http://www.w3.org/2000/svg" fill-opacity="0" stroke="black" stroke-width="3" ><path d="M106 22 123 27 128 29 147 38 151 40 159 45 178 58 181 61 189 70 191 73 193 77 195 82 197 88 199 102 199 122 197 131 191 147 181 167 176 173 175 174 171 177 151 187 146 189 133 194 121 198 118 198 103 197 87 191 0 152 0 78 82 32 86 30 105 22 106 22 "/><path d="M164 219 169 220 178 222 181 223 187 228 190 231 194 237 195 239 196 248 196 249 96 249 101 239 104 235 108 230 111 228 152 220 163 219 164 219 "/></svg>