<svg width="256" height="256" xmlns="http://www.w3.org/2000/svg" fill-opacity="0" stroke="black" stroke-width="3" ><path d="M159 0 197 87 202 101 202 110 201 133 200 142 199 146 197 152 196 154 193 159 172 179 154 193 120 218 117 220 105 226 95 227 90 227 71 224 57 217 42 202 29 184 23 172 19 156 19 144 67 20 71 14 79 6 89 0 159 0 "/><path d="M194 205 198 207 212 217 217 222 221 227 222 229 224 234 226 243 226 246 225 249 123 249 120 239 131 225 138 217 139 216 141 215 151 211 165 206 174 204 194 205 "/></svg>