<svg width="256" height="256" xmlns="http://www.w3.org/2000/svg" fill-opacity="0" stroke="black" stroke-width="3" ><path d="M133 15 169 25 171 26 191 37 207 52 208 53 221 70 229 83 235 95 237 105 239 116 239 129 232 160 223 180 221 184 217 190 213 195 208 201 205 204 187 219 183 222 157 235 150 238 140 242 131 244 101 249 4 249 3 246 3 238 18 123 20 112 23 104 27 97 64 41 76 27 77 26 81 24 102 19 129 15 133 15 "/><path d="M228 234 237 235 246 238 247 239 249 244 249 249 159 249 162 243 166 240 168 239 176 236 225 234 228 234 "/><path d="M249 22 249 94 244 89 241 84 228 53 228 43 230 37 239 26 248 22 249 22 "/></svg>