<svg width="256" height="256" xmlns="http://www.w3.org/2000/svg" fill-opacity="0" stroke="black" stroke-width="3" ><path d="M120 41 131 43 141 46 158 54 168 60 171 62 178 67 190 76 215 100 216 102 219 111 219 134 217 138 179 197 176 201 175 202 162 207 150 207 129 205 128 204 83 148 74 131 69 119 66 96 66 79 68 73 73 62 74 60 77 57 99 45 108 41 120 41 "/><path d="M90 0 108 19 105 21 69 44 63 47 55 49 46 51 42 49 30 42 25 38 21 30 18 21 18 1 19 0 90 0 "/><path d="M186 0 206 2 221 4 249 10 249 52 243 61 234 61 230 60 220 57 200 49 191 44 189 42 180 31 171 9 171 8 174 0 186 0 "/><path d="M147 0 148 7 135 19 132 20 127 20 113 17 109 15 105 12 103 10 95 1 95 0 147 0 "/></svg>