<svg width="256" height="256" xmlns="http://www.w3.org/2000/svg" fill-opacity="0" stroke="black" stroke-width="3" ><path d="M68 54 91 56 109 60 132 69 137 72 163 88 204 114 205 115 205 116 200 136 197 147 193 155 189 161 175 173 161 184 146 194 143 194 119 189 104 183 99 180 78 164 56 141 55 138 50 111 49 99 49 96 51 86 52 82 64 55 65 54 68 54 "/><path d="M212 172 218 174 242 193 249 207 249 249 160 249 148 224 148 222 151 214 158 200 161 197 171 189 189 178 194 176 208 172 212 172 "/><path d="M102 192 106 194 109 196 112 201 118 213 118 222 117 229 112 236 111 237 102 243 100 244 94 244 90 243 78 239 73 235 69 231 66 225 65 222 63 210 64 207 66 203 71 198 81 194 87 192 102 192 "/><path d="M141 0 150 13 151 17 152 24 152 25 151 28 150 29 146 30 143 30 130 29 101 26 96 25 87 21 84 18 79 12 77 8 76 1 76 0 141 0 "/><path d="M234 0 210 25 205 30 195 31 184 31 177 30 174 29 169 25 160 16 159 14 154 0 234 0 "/></svg>