<svg width="256" height="256" xmlns="http://www.w3.org/2000/svg" fill-opacity="0" stroke="black" stroke-width="3" ><path d="M123 34 127 35 165 57 173 63 175 65 179 70 193 96 207 129 207 130 201 152 186 177 162 186 137 191 119 190 92 186 81 183 78 182 76 180 51 146 50 133 50 131 64 94 76 67 103 39 106 37 114 34 123 34 "/><path d="M11 136 26 138 28 140 43 157 51 168 56 175 58 243 56 249 0 249 0 144 9 136 11 136 "/><path d="M210 204 223 221 235 249 136 249 142 239 175 204 187 199 197 196 210 204 "/><path d="M22 39 34 47 35 48 42 62 44 67 44 68 42 100 38 110 35 114 22 129 21 130 17 132 6 133 0 133 0 77 3 57 4 54 5 52 8 48 11 45 18 39 22 39 "/><path d="M161 0 172 7 173 8 174 18 174 19 163 22 119 26 107 24 89 10 85 6 82 0 161 0 "/><path d="M249 81 247 90 246 93 245 93 233 89 231 85 227 76 226 72 233 38 243 0 249 0 249 81 "/></svg>