<svg width="256" height="256" xmlns="http://www.w3.org/2000/svg" fill-opacity="0" stroke="black" stroke-width="3" ><path d="M99 43 125 51 154 62 166 67 176 73 179 75 190 86 200 101 203 112 204 118 206 136 204 148 202 155 200 160 197 167 193 175 186 186 184 189 175 198 157 210 143 216 134 218 125 219 124 219 115 218 102 216 98 215 59 204 40 192 33 186 28 181 17 161 15 157 14 154 13 150 11 117 11 116 12 113 30 78 33 73 35 71 49 59 60 52 68 47 70 46 76 44 88 41 99 43 "/><path d="M249 0 249 7 246 15 243 18 232 24 230 25 210 32 198 34 185 36 183 36 179 35 176 34 168 30 167 29 143 1 143 0 249 0 "/><path d="M79 214 94 218 102 233 103 235 104 247 104 249 20 249 20 248 21 244 22 242 30 230 33 227 41 221 45 219 50 217 56 216 74 214 79 214 "/><path d="M59 0 59 5 58 7 49 23 47 26 38 36 32 42 20 48 5 52 4 52 0 51 0 0 59 0 "/></svg>