<svg width="256" height="256" xmlns="http://www.w3.org/2000/svg" fill-opacity="0" stroke="black" stroke-width="3" ><path d="M229 174 240 179 249 189 249 249 181 249 181 248 183 199 203 179 211 175 226 173 229 174 "/><path d="M224 62 231 66 245 84 249 91 249 98 246 110 242 123 241 125 238 128 228 129 225 129 215 128 209 126 202 122 194 115 193 114 190 110 188 107 186 98 186 92 187 86 188 83 190 79 193 75 197 71 202 67 208 64 222 62 224 62 "/><path d="M114 207 116 208 119 210 122 214 127 226 128 231 129 240 129 246 128 249 22 249 21 247 21 232 23 228 25 225 28 223 32 221 40 218 101 207 114 207 "/><path d="M94 0 95 1 97 6 97 27 90 77 89 81 87 84 82 89 79 90 74 91 69 91 63 89 50 81 49 79 48 75 47 64 47 63 56 5 59 0 94 0 "/><path d="M146 0 165 19 171 34 171 45 163 62 159 68 154 75 150 79 138 84 126 84 122 82 114 70 110 2 110 0 146 0 "/></svg>