<svg width="256" height="256" xmlns="http://www.w3.org/2000/svg" fill-opacity="0" stroke="black" stroke-width="3" ><path d="M162 0 174 3 179 6 188 13 196 21 201 27 204 31 208 39 211 47 213 53 214 58 214 67 213 73 212 77 196 128 193 134 190 139 187 143 184 146 175 152 166 156 140 166 122 172 114 174 108 175 97 175 93 174 87 172 80 169 74 166 68 162 55 150 51 146 43 134 40 124 38 77 38 74 52 40 61 29 71 18 77 12 81 9 86 6 90 4 93 3 104 0 162 0 "/><path d="M249 73 249 173 245 170 240 166 235 161 234 159 229 141 229 140 231 124 241 80 248 73 249 73 "/></svg>