<svg width="256" height="256" xmlns="http://www.w3.org/2000/svg" fill-opacity="0" stroke="black" stroke-width="3" ><path d="M120 41 135 43 155 47 164 49 168 51 171 53 179 59 192 71 195 74 199 79 203 85 209 97 211 102 213 109 214 114 216 140 215 147 213 156 212 159 207 172 205 176 204 177 93 212 92 212 84 210 76 206 67 200 58 190 52 182 48 176 45 170 42 163 40 156 36 139 36 132 37 119 38 113 42 97 44 91 46 86 48 82 52 76 63 63 67 59 74 53 77 51 81 49 90 45 94 44 107 41 120 41 "/><path d="M178 0 178 3 173 15 170 19 165 25 162 27 147 30 145 30 129 28 115 19 107 12 104 1 104 0 178 0 "/><path d="M249 0 249 45 246 45 226 38 224 37 212 25 203 11 200 0 249 0 "/><path d="M249 133 249 193 243 193 240 192 238 191 234 187 231 183 229 178 226 169 225 160 225 159 226 154 227 150 228 147 230 144 238 136 243 133 249 133 "/><path d="M156 208 165 209 167 210 165 214 163 217 161 219 155 222 141 225 131 225 125 224 119 222 122 212 123 210 129 209 155 208 156 208 "/></svg>