<svg width="256" height="256" xmlns="http://www.w3.org/2000/svg" fill-opacity="0" stroke="black" stroke-width="3" ><path d="M116 50 172 75 174 76 181 82 185 86 187 90 190 98 196 124 196 132 194 143 190 153 170 183 158 195 126 203 121 203 113 201 90 193 53 123 52 121 51 118 50 113 50 110 56 94 58 90 68 73 70 71 85 61 93 57 109 50 116 50 "/><path d="M22 174 30 176 40 180 42 181 45 183 48 186 51 190 62 208 64 212 68 222 68 242 67 246 66 249 0 249 0 174 22 174 "/><path d="M53 0 58 11 58 22 55 28 51 33 49 35 44 39 41 41 35 43 25 43 15 36 8 31 5 28 3 25 0 19 0 0 53 0 "/></svg>