<svg width="256" height="256" xmlns="http://www.w3.org/2000/svg" fill-opacity="0" stroke="black" stroke-width="3" ><path d="M131 37 153 38 156 39 182 52 185 54 192 59 193 60 198 66 202 71 207 78 209 81 211 87 212 91 214 104 214 116 212 133 210 143 208 151 206 156 201 165 195 175 184 187 172 199 167 202 160 205 155 207 152 208 134 212 120 214 108 214 103 213 96 210 84 202 77 195 68 181 66 176 65 173 65 164 69 104 71 90 75 74 77 68 85 56 87 54 99 46 104 43 114 38 117 37 131 37 "/><path d="M44 59 56 63 60 65 63 69 64 75 64 83 59 110 58 113 57 114 55 115 17 125 15 125 2 123 0 119 0 80 39 59 44 59 "/><path d="M80 0 80 1 78 9 76 12 73 16 71 18 59 25 52 26 42 25 17 10 15 8 10 2 9 0 80 0 "/></svg>