<svg width="256" height="256" xmlns="http://www.w3.org/2000/svg" fill-opacity="0" stroke="black" stroke-width="3" ><path d="M104 29 124 31 130 33 158 44 165 48 198 69 203 73 207 77 214 88 218 131 218 138 213 232 211 235 203 246 202 247 193 249 162 249 80 224 74 221 64 215 61 213 53 206 51 204 45 192 41 183 21 134 19 129 19 117 21 86 23 78 24 75 27 69 29 67 63 39 73 33 102 29 104 29 "/><path d="M230 0 239 5 242 7 242 11 239 13 219 19 177 24 175 24 173 5 173 0 230 0 "/><path d="M241 195 249 202 249 249 224 249 223 248 222 230 222 228 230 208 238 195 241 195 "/></svg>