<svg width="256" height="256" xmlns="http://www.w3.org/2000/svg" fill-opacity="0" stroke="black" stroke-width="3" ><path d="M117 46 126 47 182 76 196 85 201 89 203 92 205 96 209 106 211 113 212 157 203 177 201 179 153 210 145 215 143 216 140 217 134 218 115 219 110 219 107 218 105 217 98 212 94 208 80 189 78 186 75 180 73 175 64 150 62 142 59 100 59 94 63 83 64 81 72 67 73 66 88 53 91 51 108 47 113 46 117 46 "/><path d="M34 12 41 13 45 15 53 23 55 28 59 43 59 52 58 56 51 71 46 79 36 86 34 87 31 88 27 89 15 89 4 87 3 86 0 82 0 15 6 13 13 12 22 11 34 12 "/><path d="M245 208 247 209 249 211 249 249 212 249 226 218 230 214 243 208 245 208 "/></svg>