<svg width="256" height="256" xmlns="http://www.w3.org/2000/svg" fill-opacity="0" stroke="black" stroke-width="3" ><path d="M131 64 144 66 154 68 184 88 187 91 205 114 208 120 209 127 209 128 207 153 196 172 191 179 157 206 153 208 132 215 129 215 99 212 88 209 80 206 78 205 71 199 62 188 60 185 53 173 48 164 44 154 41 145 41 142 42 139 54 117 87 68 88 67 127 64 131 64 "/><path d="M9 3 26 11 34 15 44 32 52 57 52 76 51 79 36 109 35 110 17 123 0 128 0 3 9 3 "/><path d="M130 0 130 1 126 14 121 19 117 20 114 20 81 15 79 0 130 0 "/></svg>