<svg width="256" height="256" xmlns="http://www.w3.org/2000/svg" fill-opacity="0" stroke="black" stroke-width="3" ><path d="M186 3 209 4 214 5 220 7 224 13 232 39 239 64 249 129 249 148 240 169 239 170 225 180 201 193 177 202 172 202 149 199 106 159 103 156 96 139 90 123 89 120 86 110 85 106 85 98 104 56 125 33 128 30 143 19 185 3 186 3 "/><path d="M81 159 84 160 90 165 99 173 106 181 114 193 118 201 120 210 120 216 119 222 118 225 117 227 113 234 108 240 99 245 97 246 80 249 73 249 67 244 64 241 59 235 43 199 42 193 45 181 61 165 67 161 71 159 81 159 "/></svg>