<svg width="256" height="256" xmlns="http://www.w3.org/2000/svg" fill-opacity="0" stroke="black" stroke-width="3" ><path d="M140 46 148 48 151 49 159 52 166 56 178 64 180 66 193 84 196 92 198 100 199 111 199 113 196 130 189 146 187 149 174 168 166 177 164 179 155 186 138 197 134 199 127 200 108 200 90 197 86 195 81 192 71 184 59 173 56 169 55 167 52 156 49 139 49 135 80 84 104 52 110 49 113 48 125 46 140 46 "/><path d="M74 0 74 3 73 15 70 24 66 32 61 40 59 43 54 50 47 58 39 66 33 71 30 73 23 77 15 81 7 83 0 83 0 0 74 0 "/><path d="M220 160 229 162 231 163 236 167 240 173 244 181 246 187 246 188 245 194 243 202 242 205 238 210 235 213 231 216 228 218 222 221 217 223 203 223 196 222 189 216 185 211 182 196 182 195 183 186 186 177 189 174 204 161 206 160 220 160 "/><path d="M50 216 58 219 60 220 89 246 90 248 90 249 0 249 0 228 14 220 19 218 29 215 39 214 50 216 "/><path d="M6 124 9 126 22 139 24 143 30 166 29 172 27 179 23 187 19 194 18 195 12 198 5 201 0 202 0 129 1 125 4 124 6 124 "/><path d="M249 68 249 131 241 131 239 130 236 128 229 121 222 113 221 111 217 101 217 97 224 82 229 77 234 73 237 71 239 70 248 68 249 68 "/></svg>