<svg width="256" height="256" xmlns="http://www.w3.org/2000/svg" fill-opacity="0" stroke="black" stroke-width="3" ><path d="M169 35 175 37 178 39 194 53 199 58 206 71 207 73 214 95 214 128 212 138 206 152 204 156 200 162 197 166 195 168 187 173 182 176 178 178 143 194 129 200 122 202 118 203 104 203 68 194 66 192 53 174 46 158 34 125 33 122 39 111 51 91 68 66 77 53 79 51 83 49 92 45 96 44 167 35 169 35 "/><path d="M42 0 55 13 59 18 61 22 62 25 63 32 64 41 64 48 62 56 58 64 55 68 44 80 32 88 26 90 16 92 8 93 3 93 0 92 0 0 42 0 "/><path d="M211 199 223 200 230 202 236 204 238 205 245 209 246 210 249 214 249 249 168 249 178 216 179 214 184 208 186 207 203 201 209 199 211 199 "/><path d="M4 115 14 125 16 128 20 152 20 162 8 180 3 184 0 184 0 113 4 115 "/></svg>