<svg width="256" height="256" xmlns="http://www.w3.org/2000/svg" fill-opacity="0" stroke="black" stroke-width="3" ><path d="M170 79 182 85 187 89 220 133 223 139 229 155 230 166 230 168 229 172 226 175 218 182 211 188 207 190 202 192 199 193 81 206 66 206 62 205 49 198 40 192 32 176 31 173 30 159 30 155 31 148 33 136 45 117 47 115 63 102 78 94 80 93 88 90 108 83 121 80 167 79 170 79 "/><path d="M118 0 139 44 39 92 37 92 16 26 16 14 17 10 20 1 21 0 118 0 "/><path d="M222 53 229 55 233 57 243 67 249 75 249 111 230 116 217 115 214 112 206 103 202 98 200 91 198 82 197 74 197 67 204 54 207 51 222 53 "/><path d="M249 0 249 18 242 25 217 36 209 36 207 35 197 28 184 13 180 0 249 0 "/><path d="M102 211 111 213 115 215 123 225 125 228 125 249 71 249 68 244 68 240 70 236 79 225 87 216 88 215 96 211 102 211 "/></svg>