<svg width="256" height="256" xmlns="http://www.w3.org/2000/svg" fill-opacity="0" stroke="black" stroke-width="3" ><path d="M121 46 157 52 161 53 169 57 175 61 177 63 183 70 185 73 189 80 191 90 191 98 189 169 188 172 185 177 137 249 0 249 0 168 37 97 42 89 51 78 56 73 73 60 76 58 78 57 89 52 97 49 116 46 121 46 "/><path d="M239 126 246 128 249 129 249 249 207 249 199 245 196 243 181 232 178 225 176 220 176 211 200 161 201 159 209 147 216 139 225 130 231 127 238 126 239 126 "/><path d="M218 0 218 4 217 11 215 17 213 20 206 26 202 28 197 30 185 29 181 28 158 17 154 15 149 12 145 8 142 4 141 2 141 0 218 0 "/></svg>