<svg width="256" height="256" xmlns="http://www.w3.org/2000/svg" fill-opacity="0" stroke="black" stroke-width="3" ><path d="M90 32 102 34 107 36 121 44 139 62 147 74 155 94 158 106 158 108 157 117 155 125 139 171 138 173 133 182 121 197 111 205 105 209 100 211 84 211 67 208 50 202 44 199 34 190 10 164 3 156 0 152 0 76 3 73 66 38 75 34 86 32 90 32 "/><path d="M205 0 209 3 214 8 215 19 215 21 201 44 195 52 193 54 189 57 186 59 181 61 170 63 167 62 148 55 146 54 141 49 140 47 135 31 135 28 136 16 137 13 138 11 144 3 148 0 205 0 "/><path d="M249 27 249 101 246 101 240 99 237 97 229 90 228 89 222 78 218 68 218 58 221 49 222 47 228 38 246 28 248 27 249 27 "/><path d="M12 204 15 208 17 211 21 219 21 229 20 232 17 240 11 249 0 249 0 192 12 204 "/><path d="M17 0 24 7 24 9 22 14 8 30 5 33 0 33 0 0 17 0 "/></svg>