<svg width="256" height="256" xmlns="http://www.w3.org/2000/svg" fill-opacity="0" stroke="black" stroke-width="3" ><path d="M169 28 171 30 176 37 184 62 185 67 194 197 193 200 188 204 152 211 137 211 133 210 130 209 128 208 85 184 80 181 70 171 49 115 48 109 49 103 51 97 56 88 85 56 93 48 97 46 102 44 160 28 169 28 "/><path d="M74 208 113 230 116 233 118 236 121 248 121 249 12 249 12 248 17 243 67 206 74 208 "/><path d="M36 136 41 139 44 141 55 150 56 152 61 175 62 182 52 202 19 213 18 213 17 212 13 205 13 201 20 160 28 138 29 137 32 136 36 136 "/><path d="M64 0 64 3 63 6 58 15 51 23 49 25 41 29 4 34 0 34 0 0 64 0 "/><path d="M159 0 157 3 152 9 145 14 141 16 136 17 130 18 121 19 111 19 103 15 100 13 97 10 92 3 91 1 91 0 159 0 "/></svg>