<svg width="256" height="256" xmlns="http://www.w3.org/2000/svg" fill-opacity="0" stroke="black" stroke-width="3" ><path d="M208 11 249 104 249 120 238 121 235 121 228 120 226 119 224 117 218 110 217 108 215 103 199 59 197 51 195 41 195 35 199 25 205 12 207 11 208 11 "/><path d="M159 84 167 88 188 116 188 118 159 125 120 130 119 130 114 98 114 95 118 89 119 88 128 85 137 84 159 84 "/><path d="M52 56 84 63 88 65 89 66 89 69 88 71 86 73 76 80 60 91 43 95 30 95 29 93 29 92 35 71 36 68 37 66 39 64 47 57 51 56 52 56 "/><path d="M194 150 196 152 196 156 195 158 192 162 190 164 181 172 150 194 146 196 119 208 115 209 114 209 101 208 97 207 88 201 88 198 89 192 90 190 92 188 193 150 194 150 "/><path d="M8 93 10 94 17 100 21 104 27 116 27 128 20 142 17 145 8 150 5 151 1 152 0 152 0 94 2 93 8 93 "/><path d="M149 0 154 5 152 9 146 16 145 17 142 19 140 20 123 27 118 27 113 26 110 24 110 6 112 4 120 0 149 0 "/><path d="M239 9 249 11 249 48 233 52 232 51 225 29 234 9 239 9 "/></svg>