<svg width="256" height="256" xmlns="http://www.w3.org/2000/svg" fill-opacity="0" stroke="black" stroke-width="3" ><path d="M165 0 171 2 175 4 180 10 188 20 192 27 196 37 200 53 202 62 203 70 203 78 202 87 201 90 199 95 196 102 182 132 176 141 168 149 160 156 149 165 142 170 140 171 116 177 95 179 81 179 72 177 68 176 65 175 14 98 9 90 9 81 14 56 27 27 29 23 41 5 43 3 49 0 165 0 "/><path d="M246 93 249 94 249 186 247 186 232 184 227 182 225 181 223 179 217 172 212 163 211 159 210 138 210 135 219 113 227 102 229 100 239 95 245 93 246 93 "/></svg>