<svg width="256" height="256" xmlns="http://www.w3.org/2000/svg" fill-opacity="0" stroke="black" stroke-width="3" ><path d="M162 9 172 11 186 14 191 16 194 18 219 37 220 38 232 58 236 72 244 113 244 119 242 128 230 158 229 160 200 194 190 205 179 216 169 221 139 233 137 233 80 225 73 223 67 221 49 206 43 198 33 179 30 171 25 152 24 147 24 133 25 121 26 116 29 103 36 86 37 84 41 79 87 29 90 26 107 12 112 10 123 6 138 5 162 9 "/><path d="M88 0 89 1 92 5 93 7 93 9 69 47 66 50 44 65 41 67 39 68 34 70 9 78 0 78 0 0 88 0 "/><path d="M89 234 138 236 141 237 143 238 144 239 147 245 147 246 146 248 145 249 49 249 53 246 67 236 77 234 89 234 "/></svg>