<svg width="256" height="256" xmlns="http://www.w3.org/2000/svg" fill-opacity="0" stroke="black" stroke-width="3" ><path d="M146 16 148 17 164 28 168 31 202 58 204 60 206 63 210 91 210 107 200 155 198 160 174 191 170 196 166 199 142 206 115 209 114 209 92 201 90 200 84 195 74 186 62 174 57 167 55 164 54 161 52 128 52 126 55 87 71 49 72 48 81 41 87 37 133 17 139 16 146 16 "/><path d="M28 181 37 184 42 186 48 189 68 207 73 213 76 218 79 233 80 244 76 249 21 249 16 244 0 226 0 185 4 183 27 181 28 181 "/><path d="M216 0 220 6 223 11 226 18 227 23 227 26 225 34 224 36 222 39 218 42 215 44 213 45 210 46 205 46 198 45 191 40 179 30 176 26 174 23 172 19 171 16 173 4 175 0 216 0 "/><path d="M124 0 114 16 112 18 98 31 95 31 88 30 82 29 70 23 67 21 65 17 62 2 62 0 124 0 "/><path d="M148 212 151 213 154 217 156 220 157 231 157 234 156 238 150 242 140 246 132 249 127 237 124 229 124 228 126 224 127 223 136 216 146 212 148 212 "/></svg>