<svg width="256" height="256" xmlns="http://www.w3.org/2000/svg" fill-opacity="0" stroke="black" stroke-width="3" ><path d="M107 46 148 63 152 65 162 71 188 88 192 115 195 146 195 147 190 186 188 196 184 202 182 204 178 206 120 197 115 196 91 187 65 177 58 173 42 157 41 155 39 150 37 137 37 136 50 84 51 81 54 76 61 68 65 64 70 60 73 58 82 53 88 50 96 47 103 45 107 46 "/><path d="M56 188 59 189 69 193 77 201 83 212 87 229 89 239 89 241 88 246 87 249 3 249 0 246 0 228 1 226 17 203 20 200 23 198 27 196 48 188 56 188 "/><path d="M37 3 59 16 62 19 62 29 40 53 27 67 23 71 20 73 16 73 12 71 0 57 0 3 37 3 "/></svg>