<svg width="256" height="256" xmlns="http://www.w3.org/2000/svg" fill-opacity="0" stroke="black" stroke-width="3" ><path d="M148 25 164 26 169 28 177 32 181 36 199 60 205 69 214 85 216 89 217 94 217 119 215 128 212 137 207 148 199 164 193 175 187 183 183 187 118 187 113 184 39 127 39 121 40 115 41 111 46 98 53 86 58 79 64 72 70 66 78 59 111 36 115 34 131 28 139 26 146 25 148 25 "/><path d="M237 3 245 4 249 5 249 71 245 71 238 70 236 69 228 63 212 42 210 38 208 31 212 15 219 4 222 3 237 3 "/></svg>