<svg width="256" height="256" xmlns="http://www.w3.org/2000/svg" fill-opacity="0" stroke="black" stroke-width="3" ><path d="M194 11 202 13 206 15 221 24 224 26 228 30 238 54 239 57 241 67 241 78 240 82 234 93 191 158 183 169 147 214 146 215 136 224 133 226 130 227 125 227 103 226 87 225 80 224 75 223 73 221 64 208 62 205 59 200 39 165 38 162 38 99 70 63 79 53 82 50 85 48 96 41 131 23 133 22 138 20 151 15 167 12 193 11 194 11 "/><path d="M9 173 34 181 35 182 38 186 43 194 64 230 69 239 70 241 61 249 0 249 0 174 5 173 9 173 "/><path d="M138 0 136 3 132 7 127 11 114 20 93 27 87 26 85 25 81 0 138 0 "/></svg>