<svg width="256" height="256" xmlns="http://www.w3.org/2000/svg" fill-opacity="0" stroke="black" stroke-width="3" ><path d="M202 0 223 6 225 8 229 14 231 24 226 84 217 156 215 169 213 176 211 180 208 185 203 193 196 201 193 204 187 208 180 212 172 216 104 243 103 243 98 241 97 240 71 212 68 208 51 182 50 180 44 165 38 145 35 134 34 121 34 120 36 105 43 83 44 80 45 78 55 63 85 30 86 29 185 0 202 0 "/><path d="M2 152 11 155 24 168 33 178 37 184 43 194 52 210 53 215 53 230 49 246 48 249 0 249 0 152 2 152 "/></svg>