<svg width="256" height="256" xmlns="http://www.w3.org/2000/svg" fill-opacity="0" stroke="black" stroke-width="3" ><path d="M136 45 162 46 166 47 169 48 173 50 182 58 189 65 192 69 199 79 211 114 211 136 209 149 203 161 199 168 192 179 189 182 184 186 177 191 161 199 153 201 140 204 135 205 127 206 115 205 105 203 69 187 65 185 62 183 53 175 50 171 47 165 42 147 42 131 44 117 51 90 54 84 62 75 63 74 69 69 74 65 86 57 94 52 97 51 108 48 116 46 133 45 136 45 "/><path d="M53 209 56 210 60 212 65 215 69 218 72 221 73 225 73 238 71 240 64 246 44 249 24 249 18 238 17 235 16 231 16 229 20 220 22 217 25 214 31 210 48 209 53 209 "/><path d="M236 44 239 45 249 62 249 120 246 120 243 119 232 109 224 100 220 92 218 81 217 73 218 68 222 58 224 54 233 45 235 44 236 44 "/></svg>