<svg width="256" height="256" xmlns="http://www.w3.org/2000/svg" fill-opacity="0" stroke="black" stroke-width="3" ><path d="M249 0 249 130 215 192 210 199 203 205 200 206 119 215 113 214 89 207 86 206 44 165 41 161 39 156 39 87 40 82 42 75 90 6 102 0 249 0 "/><path d="M48 0 48 3 46 11 21 56 20 57 14 61 5 65 0 65 0 0 48 0 "/><path d="M1 79 11 84 25 101 27 106 31 125 32 131 32 145 31 148 13 163 7 166 5 166 0 165 0 79 1 79 "/><path d="M249 249 233 249 230 244 228 240 225 225 231 199 234 188 236 181 240 170 244 162 249 155 249 249 "/></svg>