<svg width="256" height="256" xmlns="http://www.w3.org/2000/svg" fill-opacity="0" stroke="black" stroke-width="3" ><path d="M119 44 130 45 137 47 145 50 151 53 162 60 163 61 177 77 182 83 185 87 189 94 193 103 196 112 198 122 198 124 197 137 195 147 192 154 186 165 180 173 171 182 156 194 149 198 127 208 120 210 114 211 92 212 87 212 84 211 65 202 62 200 54 192 50 186 42 173 40 169 37 162 35 157 33 151 31 143 30 138 30 118 31 110 37 92 46 75 50 70 53 67 63 59 69 55 74 53 77 52 93 47 100 45 108 44 119 44 "/></svg>