<svg width="256" height="256" xmlns="http://www.w3.org/2000/svg" fill-opacity="0" stroke="black" stroke-width="3" ><path d="M180 34 196 44 208 56 215 69 198 118 191 138 189 143 181 160 180 162 177 167 151 178 134 183 120 184 118 184 104 183 93 178 91 177 76 167 68 159 56 143 51 136 50 134 49 130 47 121 47 99 48 92 52 75 57 65 58 64 72 57 81 53 87 51 128 40 153 34 180 34 "/><path d="M195 0 195 3 183 21 182 22 128 35 123 36 92 32 65 27 53 20 46 14 43 11 41 8 37 0 195 0 "/><path d="M1 158 3 159 12 168 13 170 18 184 19 188 20 193 21 219 21 235 17 247 16 249 0 249 0 158 1 158 "/><path d="M4 70 5 71 10 84 13 104 13 105 11 117 9 126 7 129 6 130 4 131 0 131 0 68 4 70 "/></svg>