<svg width="256" height="256" xmlns="http://www.w3.org/2000/svg" fill-opacity="0" stroke="black" stroke-width="3" ><path d="M145 34 158 40 160 41 163 43 167 46 208 78 212 82 215 86 221 113 224 134 224 136 223 142 220 152 218 155 214 159 188 183 168 201 145 220 139 224 131 229 115 234 112 234 107 229 28 113 26 110 25 105 24 92 24 85 29 80 56 60 63 55 75 47 82 43 84 42 91 40 137 34 145 34 "/><path d="M244 161 249 162 249 239 246 238 239 234 238 233 206 194 200 184 200 183 202 181 220 164 234 161 244 161 "/></svg>