<svg width="256" height="256" xmlns="http://www.w3.org/2000/svg" fill-opacity="0" stroke="black" stroke-width="3" ><path d="M121 54 148 56 198 88 203 95 204 98 204 112 202 126 196 151 186 174 173 183 163 186 152 189 139 192 134 193 122 193 111 191 107 190 98 187 83 180 81 179 59 161 57 159 50 145 47 135 47 126 67 80 69 77 79 68 83 65 85 64 96 59 99 58 118 54 121 54 "/><path d="M47 183 60 184 64 186 75 194 76 196 77 201 77 207 75 220 71 242 68 248 67 249 43 249 37 231 32 215 32 211 33 205 35 194 41 185 43 183 47 183 "/><path d="M29 41 30 42 31 44 35 56 35 57 33 67 32 70 24 87 21 92 8 106 7 107 5 108 2 109 0 109 0 73 15 50 18 46 27 41 29 41 "/><path d="M16 0 27 17 28 19 29 22 29 23 24 33 11 49 4 55 1 56 0 56 0 0 16 0 "/></svg>