<svg width="256" height="256" xmlns="http://www.w3.org/2000/svg" fill-opacity="0" stroke="black" stroke-width="3" ><path d="M141 60 148 63 198 96 207 103 212 107 216 111 220 116 223 122 226 132 228 141 228 148 225 163 224 167 222 173 218 180 216 183 210 191 198 205 186 213 180 216 170 220 162 222 156 223 137 223 123 221 114 217 110 215 100 209 97 207 86 196 79 185 76 179 73 171 72 167 70 153 70 148 71 140 73 130 77 122 79 119 134 63 135 62 138 60 141 60 "/><path d="M67 0 85 57 87 68 87 71 80 85 78 88 67 95 61 98 57 99 54 99 42 95 39 93 3 51 0 47 0 0 67 0 "/><path d="M249 0 249 101 241 104 240 104 236 103 225 98 223 97 217 93 200 76 197 69 196 66 195 62 194 6 194 0 249 0 "/></svg>