<svg width="256" height="256" xmlns="http://www.w3.org/2000/svg" fill-opacity="0" stroke="black" stroke-width="3" ><path d="M137 41 153 45 162 48 174 54 192 65 198 77 200 83 208 112 210 121 210 131 203 159 182 188 169 202 164 207 159 210 152 214 145 217 137 220 120 226 111 229 107 229 101 227 88 222 84 220 68 200 53 172 51 168 47 152 41 126 42 123 46 114 55 94 56 92 65 77 67 74 72 68 76 64 82 59 89 55 110 44 112 43 125 41 137 41 "/><path d="M20 173 73 211 76 215 79 228 80 235 78 249 0 249 0 171 20 173 "/><path d="M34 113 40 115 40 119 5 162 2 165 0 166 0 123 1 121 6 114 7 113 34 113 "/></svg>