<svg width="256" height="256" xmlns="http://www.w3.org/2000/svg" fill-opacity="0" stroke="black" stroke-width="3" ><path d="M160 50 163 53 188 82 192 90 202 112 206 121 210 131 210 137 202 165 194 176 177 193 175 194 174 194 86 187 66 169 0 103 0 99 15 71 20 65 32 53 38 48 59 33 65 30 80 25 160 50 "/><path d="M214 5 217 7 233 22 234 23 246 36 246 57 244 60 236 68 226 74 219 77 215 77 201 76 192 72 184 68 171 54 164 43 167 34 168 32 170 29 172 27 184 17 189 13 211 5 214 5 "/><path d="M8 122 12 124 18 128 22 132 29 140 31 155 31 171 30 191 28 196 25 202 24 203 5 213 0 213 0 121 8 122 "/><path d="M167 0 167 1 162 10 159 11 141 14 127 14 110 12 88 4 84 0 167 0 "/></svg>