<svg width="256" height="256" xmlns="http://www.w3.org/2000/svg" fill-opacity="0" stroke="black" stroke-width="3" ><path d="M149 58 151 59 194 82 215 100 216 101 226 116 230 123 238 169 238 171 230 187 198 249 170 249 130 246 127 245 110 238 98 232 88 226 79 212 74 204 73 202 71 120 71 115 78 98 80 96 113 74 141 60 146 58 149 58 "/><path d="M221 0 226 5 242 28 244 32 246 38 249 48 249 98 244 102 232 107 230 107 224 106 175 60 174 59 171 55 171 54 172 43 173 39 179 16 182 11 184 8 191 0 221 0 "/><path d="M249 217 249 249 219 249 219 240 222 221 226 217 249 217 "/></svg>