<svg width="256" height="256" xmlns="http://www.w3.org/2000/svg" fill-opacity="0" stroke="black" stroke-width="3" ><path d="M118 53 146 59 170 87 171 89 183 115 188 161 188 162 186 167 172 183 170 185 163 191 160 193 50 215 36 213 33 210 31 207 30 204 18 145 18 137 26 125 92 57 94 55 96 54 107 52 118 53 "/><path d="M22 1 41 5 45 7 65 21 69 26 74 38 75 54 75 55 69 71 66 75 56 85 46 94 18 115 15 116 2 119 0 119 0 0 22 1 "/><path d="M111 215 166 220 167 221 168 223 169 238 169 249 45 249 45 248 46 246 63 229 71 224 85 217 108 215 111 215 "/></svg>