<svg width="256" height="256" xmlns="http://www.w3.org/2000/svg" fill-opacity="0" stroke="black" stroke-width="3" ><path d="M99 54 168 77 185 83 205 99 211 105 229 130 241 170 241 171 231 210 71 195 66 194 48 178 42 172 40 169 35 160 32 154 30 149 29 146 23 127 23 124 27 101 31 93 35 89 78 61 90 54 99 54 "/><path d="M183 0 198 20 198 24 195 30 193 33 187 40 177 47 173 49 161 49 159 48 156 46 145 35 142 30 141 28 140 24 139 11 139 9 141 4 143 0 183 0 "/><path d="M19 231 31 240 33 242 39 249 0 249 0 221 19 231 "/></svg>