<svg width="256" height="256" xmlns="http://www.w3.org/2000/svg" fill-opacity="0" stroke="black" stroke-width="3" ><path d="M141 58 161 59 179 64 191 68 193 69 200 73 216 85 218 89 225 127 226 135 225 148 224 158 223 161 218 171 216 174 206 188 203 191 198 195 194 198 189 201 186 202 179 204 126 216 108 220 97 220 89 219 80 216 73 213 66 208 55 196 51 191 42 176 35 163 39 133 43 121 49 108 55 97 75 81 84 74 86 73 102 67 119 61 134 58 141 58 "/><path d="M142 0 144 4 144 10 141 15 114 50 101 55 79 60 48 60 36 49 10 20 8 8 8 6 9 4 10 3 22 0 142 0 "/><path d="M233 231 234 232 235 237 223 244 211 249 182 249 179 235 179 233 181 229 225 228 233 231 "/><path d="M156 222 157 223 157 224 156 236 154 243 153 244 134 249 114 249 110 240 110 238 111 237 116 235 155 222 156 222 "/></svg>