<svg width="256" height="256" xmlns="http://www.w3.org/2000/svg" fill-opacity="0" stroke="black" stroke-width="3" ><path d="M117 8 151 15 155 16 175 24 210 46 221 57 225 63 226 65 229 72 232 100 232 101 229 131 227 148 224 158 222 163 221 165 209 183 206 186 196 194 189 199 186 201 181 204 158 215 148 219 144 220 135 222 119 223 114 223 99 220 89 217 77 212 73 210 64 204 63 203 32 133 30 122 30 113 34 90 35 85 37 78 41 67 43 63 52 46 54 43 68 29 79 19 84 15 91 13 115 8 117 8 "/><path d="M6 137 17 144 20 146 32 164 52 205 52 211 51 225 45 231 19 249 0 249 0 141 1 139 3 137 6 137 "/></svg>