<svg width="256" height="256" xmlns="http://www.w3.org/2000/svg" fill-opacity="0" stroke="black" stroke-width="3" ><path d="M136 50 147 51 187 57 191 59 195 62 196 63 202 70 207 78 211 88 248 193 249 196 249 249 103 192 89 186 88 185 73 160 67 143 67 138 71 115 77 92 81 84 83 82 97 70 101 67 104 65 114 59 116 58 127 53 135 50 136 50 "/><path d="M21 15 41 21 52 33 59 42 60 44 63 51 66 61 68 70 68 75 58 103 56 106 33 121 9 128 5 128 0 126 0 34 16 15 21 15 "/><path d="M226 0 226 2 225 5 222 10 219 13 217 14 160 29 154 29 143 28 141 27 131 14 130 11 129 5 129 3 130 0 226 0 "/><path d="M54 205 66 211 71 246 71 249 29 249 7 209 7 206 9 205 54 205 "/></svg>