<svg width="256" height="256" xmlns="http://www.w3.org/2000/svg" fill-opacity="0" stroke="black" stroke-width="3" ><path d="M131 66 135 67 153 73 168 87 179 98 183 103 187 110 207 147 206 149 205 150 156 184 152 186 107 190 99 190 88 183 80 176 76 172 64 157 60 151 59 149 57 143 56 120 56 117 58 102 64 85 91 73 106 69 115 67 124 66 131 66 "/><path d="M249 0 249 90 242 96 228 94 208 81 196 69 185 54 184 52 179 40 178 34 178 27 181 10 183 0 249 0 "/><path d="M75 0 69 8 68 9 64 12 58 16 54 18 48 20 43 20 34 18 25 14 22 12 19 8 14 1 14 0 75 0 "/></svg>