<svg width="256" height="256" xmlns="http://www.w3.org/2000/svg" fill-opacity="0" stroke="black" stroke-width="3" ><path d="M160 44 167 47 173 51 178 55 194 73 202 84 206 92 211 103 214 113 214 136 213 143 208 156 205 163 203 166 195 177 191 182 188 185 182 190 176 194 165 200 162 201 155 203 150 204 138 205 125 205 119 204 114 203 108 201 100 198 87 191 76 182 65 169 61 163 56 153 54 147 53 142 52 130 53 121 60 104 68 86 72 79 84 64 85 63 88 61 93 58 113 48 137 41 160 44 "/><path d="M18 38 26 43 40 56 52 72 52 90 44 108 43 110 37 120 34 124 24 134 16 138 0 138 0 33 18 38 "/><path d="M22 169 27 170 31 172 38 177 40 179 51 191 55 196 56 198 58 203 60 209 63 219 63 221 61 228 60 231 53 243 48 249 0 249 0 169 22 169 "/><path d="M196 0 199 1 201 3 211 15 207 24 206 26 201 33 200 34 198 35 179 42 169 43 167 43 153 40 174 0 196 0 "/></svg>