<svg width="256" height="256" xmlns="http://www.w3.org/2000/svg" fill-opacity="0" stroke="black" stroke-width="3" ><path d="M73 43 162 54 169 55 176 57 189 63 191 64 198 69 202 73 207 79 214 91 215 93 218 100 216 120 214 131 212 139 211 141 194 168 178 184 170 189 152 198 144 201 140 202 127 205 112 206 111 206 104 205 85 202 82 201 78 199 66 192 56 184 51 179 47 172 45 167 38 148 32 111 32 91 35 80 39 67 44 57 56 45 65 43 73 43 "/><path d="M2 218 7 219 11 221 21 231 23 236 24 244 24 248 23 249 0 249 0 218 2 218 "/></svg>