<svg width="256" height="256" xmlns="http://www.w3.org/2000/svg" fill-opacity="0" stroke="black" stroke-width="3" ><path d="M119 62 123 63 147 75 149 77 163 97 173 112 177 140 177 148 131 174 111 183 108 184 85 191 82 191 78 189 65 182 59 178 58 177 51 169 49 160 43 113 42 105 42 96 52 85 53 84 69 74 92 64 117 62 119 62 "/><path d="M168 189 178 191 185 194 196 201 200 205 201 207 205 216 206 219 208 227 207 246 206 248 205 249 117 249 116 248 116 231 118 225 121 218 126 212 134 204 148 197 157 193 167 189 168 189 "/><path d="M30 194 36 195 41 197 43 198 64 212 66 215 67 217 69 230 69 234 67 247 65 249 0 249 0 199 13 194 30 194 "/><path d="M249 106 249 199 243 199 236 198 224 196 196 187 166 165 166 163 210 123 213 121 245 106 249 106 "/><path d="M123 0 127 17 123 25 113 38 112 39 97 47 74 45 66 41 62 33 61 30 61 24 63 0 123 0 "/><path d="M249 0 249 66 242 64 212 53 211 45 206 0 249 0 "/></svg>