<svg width="256" height="256" xmlns="http://www.w3.org/2000/svg" fill-opacity="0" stroke="black" stroke-width="3" ><path d="M116 39 130 40 139 41 144 42 152 45 157 47 172 55 175 57 181 62 182 63 194 78 204 92 204 120 203 131 202 138 200 147 198 155 196 159 190 169 182 181 177 187 175 189 168 193 166 194 148 201 119 203 114 203 93 199 78 194 62 188 60 187 55 182 52 178 45 168 27 134 25 129 23 118 25 107 27 97 36 77 51 61 52 60 63 52 98 41 112 39 116 39 "/><path d="M249 0 249 94 247 96 245 96 231 93 228 92 224 90 211 82 206 78 205 77 203 73 195 26 195 22 197 5 203 2 209 0 249 0 "/><path d="M243 127 249 130 249 224 245 226 212 221 211 220 207 191 207 184 208 174 232 128 233 127 243 127 "/><path d="M1 209 62 228 68 231 72 238 74 242 76 247 76 249 0 249 0 209 1 209 "/></svg>