<svg width="256" height="256" xmlns="http://www.w3.org/2000/svg" fill-opacity="0" stroke="black" stroke-width="3" ><path d="M246 0 246 12 245 18 194 152 188 164 176 180 171 185 150 201 126 211 123 211 105 210 89 206 72 199 69 196 61 184 47 155 46 151 46 109 52 95 53 93 91 25 93 23 117 5 123 3 157 0 246 0 "/><path d="M186 188 195 191 202 194 211 202 216 207 220 218 221 223 221 234 218 246 217 249 120 249 119 247 119 243 120 235 122 231 126 224 130 218 133 215 177 190 179 189 183 188 186 188 "/><path d="M249 249 243 249 240 248 239 247 234 241 231 236 230 234 230 221 232 214 236 203 238 199 240 196 244 192 249 189 249 249 "/></svg>