<svg width="256" height="256" xmlns="http://www.w3.org/2000/svg" fill-opacity="0" stroke="black" stroke-width="3" ><path d="M127 58 138 62 153 68 155 69 157 71 178 98 191 127 201 167 201 171 166 196 138 203 133 204 124 205 120 205 81 199 79 197 50 160 48 157 41 139 41 135 44 112 46 108 54 94 56 92 78 72 102 59 109 57 117 56 127 58 "/><path d="M40 3 43 4 45 8 46 11 46 57 43 66 41 71 37 80 29 88 12 101 5 103 0 103 0 19 1 14 2 13 11 9 34 3 40 3 "/><path d="M161 211 167 215 171 219 173 222 175 227 176 249 95 249 92 244 92 236 94 232 99 227 110 222 151 211 161 211 "/></svg>