<svg width="256" height="256" xmlns="http://www.w3.org/2000/svg" fill-opacity="0" stroke="black" stroke-width="3" ><path d="M161 68 173 74 179 79 199 96 214 112 222 123 229 144 230 152 230 156 220 191 206 209 205 210 196 216 92 249 54 249 54 247 55 242 63 204 79 136 84 122 86 117 87 115 91 108 105 84 106 83 117 78 138 71 147 69 159 68 161 68 "/><path d="M244 8 248 10 249 11 249 126 245 126 241 125 228 118 216 105 205 93 201 88 196 81 189 66 188 60 188 54 199 13 200 12 206 10 242 8 244 8 "/><path d="M58 36 61 37 67 43 72 49 76 54 78 58 79 81 79 83 77 101 74 104 60 117 50 122 47 122 37 120 31 118 28 116 8 98 3 93 3 86 5 77 7 73 19 55 34 40 37 38 51 36 58 36 "/></svg>