<svg width="256" height="256" xmlns="http://www.w3.org/2000/svg" fill-opacity="0" stroke="black" stroke-width="3" ><path d="M134 47 148 51 159 57 166 62 173 69 188 86 194 109 194 129 193 143 184 163 178 168 174 171 171 173 169 174 156 180 146 184 137 187 122 186 108 185 89 183 85 182 83 181 80 178 72 164 56 134 54 129 53 121 53 82 55 79 58 75 62 71 75 60 85 55 91 53 111 48 118 47 134 47 "/><path d="M249 0 249 115 240 112 220 104 209 97 208 96 160 46 155 40 144 21 141 15 148 0 249 0 "/><path d="M123 0 122 3 117 12 114 16 100 23 86 21 70 14 68 13 67 12 65 8 64 1 64 0 123 0 "/></svg>