<svg width="256" height="256" xmlns="http://www.w3.org/2000/svg" fill-opacity="0" stroke="black" stroke-width="3" ><path d="M139 59 152 61 155 62 167 68 176 74 183 79 184 80 189 86 193 91 201 102 203 107 205 115 207 132 207 137 206 149 203 164 201 170 199 174 195 180 187 190 175 198 171 200 165 202 155 203 144 204 141 204 132 202 127 200 119 196 76 174 72 170 65 160 62 154 60 146 58 137 56 127 56 109 60 78 62 71 64 69 72 65 121 59 139 59 "/><path d="M249 0 249 44 248 45 227 64 221 68 219 69 216 70 213 70 208 68 200 64 170 48 156 23 155 0 249 0 "/></svg>