<svg width="256" height="256" xmlns="http://www.w3.org/2000/svg" fill-opacity="0" stroke="black" stroke-width="3" ><path d="M42 7 57 47 58 53 58 55 54 66 53 67 15 93 9 97 6 98 1 99 0 98 0 16 40 2 42 7 "/><path d="M249 249 223 249 220 244 215 235 212 229 209 219 208 210 228 172 234 161 238 154 241 150 243 148 249 145 249 249 "/><path d="M137 186 165 203 166 204 166 209 162 216 160 217 157 218 148 219 130 217 122 214 122 199 126 190 127 188 133 184 137 186 "/><path d="M59 218 72 232 77 238 79 241 82 247 82 248 72 249 44 249 39 240 37 232 37 227 39 224 56 218 59 218 "/></svg>