<svg width="256" height="256" xmlns="http://www.w3.org/2000/svg" fill-opacity="0" stroke="black" stroke-width="3" ><path d="M164 40 179 41 189 43 196 45 199 46 201 47 208 51 249 78 249 196 141 231 137 232 115 232 109 231 96 227 69 212 68 211 59 196 55 189 53 185 50 159 55 133 62 104 69 88 80 73 89 63 93 61 115 51 120 49 141 41 159 40 164 40 "/><path d="M14 38 35 40 39 41 43 43 52 50 55 54 56 58 56 61 52 89 38 121 37 123 35 126 29 134 24 140 23 141 17 144 0 151 0 43 3 41 5 40 11 38 14 38 "/><path d="M1 212 22 215 27 218 36 226 37 228 37 234 36 249 0 249 0 212 1 212 "/></svg>