<svg width="256" height="256" xmlns="http://www.w3.org/2000/svg" fill-opacity="0" stroke="black" stroke-width="3" ><path d="M117 0 184 57 189 62 205 80 211 89 214 96 216 104 219 118 221 128 221 133 220 143 219 151 206 188 200 195 198 197 193 201 187 205 183 206 176 207 137 208 128 208 69 191 65 189 48 176 42 171 33 162 30 158 25 149 24 147 0 79 0 49 11 30 21 15 36 2 40 0 117 0 "/><path d="M3 211 6 212 30 233 30 235 28 246 25 249 0 249 0 211 3 211 "/><path d="M55 211 61 216 63 218 63 225 61 236 51 249 48 249 36 247 35 246 36 222 41 216 44 214 50 211 55 211 "/></svg>