<svg width="256" height="256" xmlns="http://www.w3.org/2000/svg" fill-opacity="0" stroke="black" stroke-width="3" ><path d="M132 54 145 55 154 57 168 63 171 65 187 78 191 82 204 99 206 102 213 115 214 120 215 126 216 133 216 144 215 150 214 154 207 178 205 183 203 186 193 197 189 200 178 208 176 209 135 219 128 219 119 216 111 212 58 173 54 168 50 157 49 152 47 140 48 122 52 109 66 89 69 85 90 67 93 65 100 61 104 59 110 57 121 55 130 54 132 54 "/><path d="M74 229 80 232 85 237 88 243 88 249 39 249 39 247 45 234 50 226 56 225 74 229 "/></svg>