<svg width="256" height="256" xmlns="http://www.w3.org/2000/svg" fill-opacity="0" stroke="black" stroke-width="3" ><path d="M139 26 143 27 160 35 171 41 177 46 184 53 207 81 208 83 211 91 212 95 212 98 207 129 206 134 202 152 198 164 196 169 194 173 188 182 184 186 178 188 162 193 118 202 116 202 101 199 90 194 86 192 54 163 51 160 46 153 43 148 42 146 39 139 37 131 33 109 33 85 37 75 40 69 47 59 51 54 56 48 61 43 65 40 79 33 88 30 112 26 134 25 139 26 "/><path d="M150 249 78 249 74 246 73 245 68 234 68 231 69 224 70 220 71 217 73 214 76 211 83 206 85 205 94 205 140 225 142 226 143 227 146 231 148 235 149 239 150 248 150 249 "/></svg>