<svg width="256" height="256" xmlns="http://www.w3.org/2000/svg" fill-opacity="0" stroke="black" stroke-width="3" ><path d="M137 42 150 43 159 45 163 47 173 54 184 63 186 65 192 73 196 79 202 90 207 133 207 142 204 154 200 164 196 170 182 183 173 188 167 191 162 193 149 196 133 196 114 195 109 194 103 192 87 182 84 180 68 164 61 156 55 142 53 135 51 124 51 117 52 111 53 108 57 99 66 82 69 78 73 73 93 55 104 49 106 48 111 46 124 42 137 42 "/><path d="M134 0 132 4 128 10 124 15 119 20 116 22 112 24 105 26 91 28 86 28 63 26 53 22 43 17 39 13 33 2 32 0 134 0 "/></svg>