<svg width="256" height="256" xmlns="http://www.w3.org/2000/svg" fill-opacity="0" stroke="black" stroke-width="3" ><path d="M136 30 151 33 160 35 173 41 188 48 191 51 195 57 203 73 216 105 219 115 220 128 220 137 219 144 217 153 215 157 208 170 191 194 182 201 178 204 173 207 92 249 0 249 0 156 50 70 53 66 80 38 94 33 134 30 136 30 "/><path d="M38 0 67 19 73 25 74 28 75 32 75 35 73 40 66 48 64 50 18 91 0 104 0 0 38 0 "/><path d="M232 212 249 217 249 249 150 249 153 244 166 234 170 232 205 216 226 212 232 212 "/></svg>