<svg width="256" height="256" xmlns="http://www.w3.org/2000/svg" fill-opacity="0" stroke="black" stroke-width="3" ><path d="M142 43 147 45 149 46 162 53 166 56 172 63 179 72 182 76 186 82 188 87 190 94 190 147 184 172 180 178 176 182 172 185 158 195 148 200 133 200 121 198 113 196 98 191 82 180 81 179 61 149 56 140 55 138 55 126 58 102 63 87 77 63 80 60 89 52 99 47 109 45 120 44 137 43 142 43 "/><path d="M157 214 168 215 172 217 186 225 191 233 195 240 196 242 196 245 195 249 90 249 86 246 74 233 73 231 73 229 81 224 139 215 152 214 157 214 "/><path d="M28 145 30 151 31 167 27 180 1 207 0 208 0 168 13 155 23 147 26 145 28 145 "/></svg>