<svg width="256" height="256" xmlns="http://www.w3.org/2000/svg" fill-opacity="0" stroke="black" stroke-width="3" ><path d="M153 0 158 4 188 29 189 30 195 38 198 44 213 91 220 128 219 146 215 160 212 164 210 166 169 199 152 204 132 205 98 205 68 188 61 184 58 182 57 181 52 174 13 83 11 78 0 48 0 3 1 0 153 0 "/><path d="M122 215 131 217 138 219 141 220 154 226 157 228 162 234 165 238 163 245 162 246 147 249 95 249 95 247 104 225 105 223 106 222 110 219 121 215 122 215 "/><path d="M249 228 249 249 203 249 209 243 217 237 223 234 230 231 233 230 242 228 249 228 "/></svg>