<svg width="256" height="256" xmlns="http://www.w3.org/2000/svg" fill-opacity="0" stroke="black" stroke-width="3" ><path d="M123 12 135 14 143 16 149 18 171 29 177 33 190 43 194 47 249 118 249 229 230 229 126 221 94 216 92 215 83 210 72 200 71 199 53 180 36 146 33 123 34 115 40 79 55 45 61 37 70 26 86 18 96 15 105 13 121 12 123 12 "/><path d="M9 138 27 143 59 194 61 198 67 225 67 231 60 238 38 249 0 249 0 138 9 138 "/><path d="M30 0 46 20 48 24 48 29 47 47 32 77 29 80 13 94 3 102 0 102 0 0 30 0 "/><path d="M235 7 249 14 249 87 245 89 241 89 235 87 227 84 224 82 167 10 218 7 235 7 "/></svg>