<svg width="256" height="256" xmlns="http://www.w3.org/2000/svg" fill-opacity="0" stroke="black" stroke-width="3" ><path d="M129 33 144 35 159 41 195 59 200 62 205 67 214 77 219 83 226 103 226 107 223 119 221 126 197 164 150 218 141 225 139 225 110 218 92 210 81 202 69 193 68 192 32 127 31 123 31 122 32 115 39 91 41 85 43 81 58 60 62 56 72 48 86 41 109 34 114 33 129 33 "/><path d="M235 175 240 176 246 178 249 182 249 249 200 249 198 246 197 243 197 240 198 234 217 182 222 177 232 175 235 175 "/></svg>