<svg width="256" height="256" xmlns="http://www.w3.org/2000/svg" fill-opacity="0" stroke="black" stroke-width="3" ><path d="M129 39 142 40 197 45 200 48 200 53 199 93 189 141 179 176 178 178 172 186 159 202 149 212 144 214 141 215 138 215 63 181 60 178 56 170 53 161 50 148 50 133 56 104 58 96 77 53 78 51 80 49 83 47 105 41 114 39 129 39 "/><path d="M37 19 42 21 51 25 55 27 59 31 60 33 68 56 68 61 65 72 47 114 46 116 35 123 0 140 0 60 2 57 17 35 23 27 26 24 33 19 37 19 "/><path d="M248 151 249 152 249 206 248 206 228 204 226 202 218 185 218 171 222 161 224 157 234 152 237 151 248 151 "/></svg>