<svg width="256" height="256" xmlns="http://www.w3.org/2000/svg" fill-opacity="0" stroke="black" stroke-width="3" ><path d="M143 39 154 40 160 41 174 46 181 50 192 58 203 68 224 88 229 116 229 137 228 141 226 145 221 154 209 173 195 190 194 191 186 197 176 204 154 213 147 214 120 214 110 213 101 211 80 200 69 192 55 178 47 163 43 151 42 146 40 130 40 122 47 98 50 92 60 77 81 49 82 48 125 39 143 39 "/><path d="M57 0 67 21 67 24 39 91 37 95 32 102 26 106 18 109 6 113 0 113 0 0 57 0 "/><path d="M249 0 249 72 241 78 239 77 215 62 204 51 182 27 180 0 249 0 "/><path d="M102 235 112 237 127 243 130 245 133 248 133 249 71 249 76 242 79 240 85 237 95 235 102 235 "/></svg>