<svg width="256" height="256" xmlns="http://www.w3.org/2000/svg" fill-opacity="0" stroke="black" stroke-width="3" ><path d="M210 0 206 136 204 141 108 215 106 216 98 216 56 208 53 206 52 205 51 203 50 200 21 19 21 18 30 7 31 6 38 0 210 0 "/><path d="M200 169 217 177 225 184 232 197 233 199 230 221 228 227 224 234 222 237 212 249 131 249 127 241 124 233 124 226 125 224 142 197 145 193 150 188 169 175 193 169 200 169 "/><path d="M249 156 229 142 227 138 226 131 226 111 242 92 249 86 249 156 "/></svg>