<svg width="256" height="256" xmlns="http://www.w3.org/2000/svg" fill-opacity="0" stroke="black" stroke-width="3" ><path d="M114 24 163 46 220 97 234 116 234 118 231 138 227 154 185 208 169 221 165 223 160 225 144 231 141 232 127 234 119 234 105 233 96 232 69 221 67 220 55 209 53 207 45 198 43 195 40 190 37 182 27 154 25 129 27 110 31 101 76 56 110 24 114 24 "/><path d="M3 17 28 23 48 43 55 53 58 58 58 60 51 69 43 79 41 81 33 88 12 99 5 101 1 102 0 102 0 18 1 17 3 17 "/><path d="M12 186 20 193 22 195 30 206 37 222 37 224 34 238 29 245 28 246 20 249 15 249 6 246 0 241 0 180 12 186 "/><path d="M249 227 247 225 241 214 237 202 237 188 238 184 240 178 245 168 249 164 249 227 "/></svg>