<svg width="256" height="256" xmlns="http://www.w3.org/2000/svg" fill-opacity="0" stroke="black" stroke-width="3" ><path d="M141 37 146 38 150 39 162 44 169 47 171 48 175 51 181 57 189 68 191 71 194 76 199 86 201 94 203 105 203 110 185 202 182 209 181 211 174 218 169 222 166 224 162 226 148 232 142 234 125 238 110 238 107 237 86 228 80 223 53 194 52 188 48 84 48 79 51 75 60 70 120 39 125 37 141 37 "/><path d="M215 159 249 179 249 241 242 237 228 228 211 199 209 195 206 184 205 177 205 170 208 160 212 158 215 159 "/></svg>