<svg width="256" height="256" xmlns="http://www.w3.org/2000/svg" fill-opacity="0" stroke="black" stroke-width="3" ><path d="M119 0 186 31 206 41 209 44 210 46 218 72 218 89 217 95 216 99 214 105 210 111 207 115 204 118 201 120 138 158 130 162 115 164 110 164 94 163 47 157 45 156 41 152 16 107 12 99 12 95 16 63 19 47 20 44 27 26 29 23 45 5 46 4 49 2 76 0 119 0 "/><path d="M74 184 106 213 119 227 120 229 120 236 119 238 117 241 109 249 2 249 2 235 3 231 16 218 21 214 25 211 44 198 57 191 71 184 74 184 "/></svg>