<svg width="256" height="256" xmlns="http://www.w3.org/2000/svg" fill-opacity="0" stroke="black" stroke-width="3" ><path d="M126 48 135 49 153 54 163 58 171 62 178 66 189 75 194 80 199 86 201 89 206 97 209 102 211 107 213 114 215 129 215 138 214 148 213 152 211 159 210 162 206 170 199 180 196 184 189 193 187 195 177 203 171 207 157 213 151 215 146 216 128 216 115 213 111 212 100 208 90 203 79 197 74 194 60 180 56 175 53 171 45 157 41 149 39 128 39 121 40 114 42 107 46 95 48 91 56 79 69 66 77 60 80 58 88 54 93 52 99 50 106 49 116 48 126 48 "/></svg>