<svg width="256" height="256" xmlns="http://www.w3.org/2000/svg" fill-opacity="0" stroke="black" stroke-width="3" ><path d="M136 74 168 85 177 91 225 125 233 139 235 148 235 151 232 162 196 209 195 210 193 211 182 215 149 223 144 224 131 222 115 217 103 210 101 208 84 188 82 185 75 170 70 143 70 142 73 127 74 124 82 108 92 93 94 91 97 89 117 79 124 76 132 74 136 74 "/><path d="M249 163 249 231 248 231 242 227 236 222 235 221 230 214 229 212 228 208 228 205 234 179 238 171 246 163 249 163 "/><path d="M249 117 247 117 243 116 241 115 236 112 234 110 232 106 231 102 231 97 232 91 242 68 244 64 248 59 249 58 249 117 "/><path d="M249 0 249 20 247 21 246 21 240 20 234 18 225 14 220 9 216 3 215 1 215 0 249 0 "/></svg>