<svg width="256" height="256" xmlns="http://www.w3.org/2000/svg" fill-opacity="0" stroke="black" stroke-width="3" ><path d="M138 53 148 59 161 69 170 76 175 81 180 91 182 97 186 110 187 114 188 136 186 145 185 148 180 158 175 167 172 170 169 172 140 190 106 190 84 184 82 183 79 180 68 153 66 147 65 136 64 123 64 113 65 105 77 77 79 73 82 70 104 57 116 54 130 52 138 53 "/><path d="M12 93 16 95 43 111 46 113 47 114 54 138 56 145 56 156 54 184 52 194 42 207 26 226 23 228 10 236 9 236 7 235 6 233 0 220 0 141 6 93 7 92 12 93 "/><path d="M73 210 92 227 98 233 101 237 103 240 103 249 13 249 17 245 59 217 71 210 73 210 "/><path d="M217 232 237 238 241 240 249 247 249 249 186 249 189 242 192 239 202 233 205 232 217 232 "/></svg>