<svg width="256" height="256" xmlns="http://www.w3.org/2000/svg" fill-opacity="0" stroke="black" stroke-width="3" ><path d="M125 32 137 33 154 37 164 41 166 42 181 54 191 63 200 74 204 82 205 85 209 98 210 102 210 103 209 114 206 129 205 133 199 146 197 150 189 163 170 182 167 184 165 185 156 188 149 190 143 191 128 193 102 194 94 194 57 191 54 188 52 179 43 99 43 85 46 77 53 65 57 59 65 52 79 41 83 39 94 34 100 32 125 32 "/><path d="M249 0 249 91 237 91 232 89 227 86 224 84 216 76 214 71 214 68 216 33 217 26 224 5 226 0 249 0 "/><path d="M10 111 43 148 43 160 42 163 33 182 23 196 12 210 11 211 8 213 0 206 0 105 10 111 "/><path d="M249 249 245 249 239 246 238 245 231 234 230 230 229 222 229 220 236 203 238 199 245 192 249 189 249 249 "/></svg>