<svg width="256" height="256" xmlns="http://www.w3.org/2000/svg" fill-opacity="0" stroke="black" stroke-width="3" ><path d="M112 53 117 54 132 59 136 61 150 69 158 74 174 85 184 95 188 100 196 116 199 125 200 129 200 135 166 182 164 183 140 183 132 180 78 145 51 126 49 124 48 121 48 118 51 103 53 97 58 84 60 80 61 79 76 69 99 56 108 53 112 53 "/><path d="M2 167 22 171 24 172 42 188 44 190 49 196 52 200 62 225 62 229 60 243 59 248 58 249 0 249 0 167 2 167 "/><path d="M249 140 248 160 247 161 243 163 238 163 231 156 206 105 205 89 205 78 209 69 227 35 231 28 232 27 249 24 249 140 "/></svg>