<svg width="256" height="256" xmlns="http://www.w3.org/2000/svg" fill-opacity="0" stroke="black" stroke-width="3" ><path d="M133 28 139 30 146 33 161 41 172 52 180 62 185 75 189 86 190 89 189 104 187 119 182 138 180 143 167 166 152 183 149 186 147 187 134 193 114 195 109 195 85 187 55 163 37 148 34 128 34 125 36 102 38 98 48 79 54 69 61 58 74 50 121 29 126 28 133 28 "/><path d="M223 138 235 140 249 146 249 219 246 222 236 229 233 231 223 233 218 233 210 232 203 229 199 226 191 219 182 208 180 201 179 197 178 185 182 174 190 160 195 154 199 150 203 147 209 143 214 140 222 138 223 138 "/><path d="M93 0 94 2 95 5 93 20 91 25 77 40 76 41 60 50 55 51 40 43 37 41 35 39 16 18 15 16 26 0 93 0 "/><path d="M21 35 25 39 28 44 37 60 38 73 38 76 37 84 33 93 29 97 21 104 16 108 12 109 5 110 0 110 0 23 5 21 21 35 "/><path d="M9 220 21 226 35 235 47 243 50 248 50 249 0 249 0 216 9 220 "/></svg>