<svg width="256" height="256" xmlns="http://www.w3.org/2000/svg" fill-opacity="0" stroke="black" stroke-width="3" ><path d="M144 53 154 54 169 64 182 74 184 76 190 85 202 107 206 116 207 128 207 129 206 145 204 153 200 159 197 162 177 179 169 185 162 188 159 189 137 194 134 194 112 191 87 184 77 179 66 173 47 151 45 148 44 135 44 130 45 119 47 100 48 97 51 93 55 88 61 82 65 79 67 78 78 73 126 55 130 54 137 53 144 53 "/><path d="M133 0 134 1 135 7 135 11 127 33 122 41 121 42 110 52 107 54 97 58 73 63 72 63 31 46 30 41 30 37 42 1 43 0 133 0 "/><path d="M37 212 37 213 35 249 0 249 0 228 36 212 37 212 "/></svg>