<svg width="256" height="256" xmlns="http://www.w3.org/2000/svg" fill-opacity="0" stroke="black" stroke-width="3" ><path d="M111 27 119 28 123 29 135 33 140 35 179 54 191 60 202 68 215 81 219 86 220 88 224 98 227 106 229 121 229 125 228 136 227 140 223 149 221 153 216 161 202 178 200 180 147 218 144 220 140 220 105 203 72 180 64 174 57 167 52 161 46 152 34 128 32 121 30 100 30 99 32 93 38 78 41 73 43 70 46 66 54 56 56 54 64 47 67 45 81 37 93 31 99 29 108 27 111 27 "/><path d="M237 0 249 17 249 31 221 38 163 4 162 3 162 0 237 0 "/><path d="M230 40 236 41 249 49 249 60 234 66 219 65 216 64 190 55 195 51 226 40 230 40 "/><path d="M3 199 12 215 13 217 14 223 14 240 13 243 10 249 0 249 0 196 3 199 "/></svg>