<svg width="256" height="256" xmlns="http://www.w3.org/2000/svg" fill-opacity="0" stroke="black" stroke-width="3" ><path d="M89 25 106 26 141 37 152 43 164 56 166 59 174 72 188 98 210 140 215 155 215 158 190 216 189 218 183 227 181 229 179 230 145 246 142 247 131 247 128 245 112 231 111 230 79 182 78 180 73 169 43 97 41 88 40 77 40 65 41 57 51 42 58 35 69 29 71 28 87 25 89 25 "/><path d="M249 0 249 21 193 52 189 54 187 52 184 48 179 40 179 30 182 21 184 17 193 6 195 5 234 0 249 0 "/><path d="M218 226 229 229 243 238 246 240 249 249 177 249 178 248 185 242 197 233 202 230 205 229 217 226 218 226 "/><path d="M146 0 146 2 145 4 138 11 135 13 133 14 130 15 125 16 94 16 73 11 70 10 64 0 146 0 "/><path d="M249 122 244 125 236 122 233 120 232 119 230 116 230 111 231 108 234 102 243 88 244 87 249 85 249 122 "/></svg>