<svg width="256" height="256" xmlns="http://www.w3.org/2000/svg" fill-opacity="0" stroke="black" stroke-width="3" ><path d="M181 72 215 74 219 76 222 78 240 92 249 111 249 199 246 205 242 208 230 216 228 217 225 218 215 219 208 219 199 217 194 215 139 183 137 181 132 172 118 130 118 126 119 109 120 106 121 104 124 102 170 72 181 72 "/><path d="M77 93 69 110 66 111 65 111 36 103 33 102 19 95 13 87 12 84 12 83 17 68 19 66 25 64 35 61 42 61 48 62 60 68 67 72 72 76 73 77 77 91 77 93 "/><path d="M26 123 43 133 56 141 65 147 72 155 72 165 58 178 30 173 26 172 23 171 6 153 3 148 3 136 7 128 15 120 26 123 "/><path d="M150 208 156 209 165 212 175 221 187 236 190 243 192 248 192 249 178 249 138 229 133 224 133 218 140 211 142 210 145 209 149 208 150 208 "/><path d="M10 0 12 1 16 35 16 37 15 39 12 43 11 44 4 50 0 53 0 0 10 0 "/></svg>