<svg width="256" height="256" xmlns="http://www.w3.org/2000/svg" fill-opacity="0" stroke="black" stroke-width="3" ><path d="M154 67 164 69 173 72 181 76 190 84 202 96 206 101 209 105 212 111 217 129 218 141 217 148 214 163 210 175 207 181 204 185 194 195 189 199 182 203 170 207 146 211 135 211 123 205 111 198 95 188 93 184 79 153 77 144 77 118 81 105 84 98 90 87 91 86 95 83 100 80 102 79 109 76 133 68 139 67 154 67 "/><path d="M22 37 31 39 40 47 45 54 48 63 50 70 50 77 49 90 47 101 46 105 44 108 8 149 3 151 0 151 0 39 10 37 22 37 "/><path d="M248 0 249 1 249 74 248 73 246 70 238 57 236 45 235 37 235 20 239 9 246 0 248 0 "/></svg>