<svg width="256" height="256" xmlns="http://www.w3.org/2000/svg" fill-opacity="0" stroke="black" stroke-width="3" ><path d="M150 39 155 40 160 42 163 44 196 72 198 74 190 139 189 144 161 216 159 217 152 220 137 223 122 224 104 224 91 221 78 215 75 213 70 209 51 190 48 184 41 168 36 152 34 145 34 130 37 115 38 113 52 89 66 73 75 63 78 61 121 41 132 39 150 39 "/><path d="M249 0 249 42 246 47 245 48 242 50 230 55 216 55 211 54 204 52 189 46 187 44 177 33 175 30 174 27 170 14 170 13 177 6 190 0 249 0 "/><path d="M202 226 229 227 249 235 249 249 121 249 136 239 142 237 164 231 172 229 181 227 201 226 202 226 "/><path d="M217 161 219 162 219 164 218 167 216 171 210 180 206 185 200 191 188 202 183 205 174 210 172 211 169 212 167 209 167 206 200 161 217 161 "/></svg>