<svg width="256" height="256" xmlns="http://www.w3.org/2000/svg" fill-opacity="0" stroke="black" stroke-width="3" ><path d="M168 18 197 30 200 32 242 70 244 72 248 78 249 80 249 226 244 230 237 233 164 223 162 222 159 219 117 144 116 142 110 121 106 89 106 86 164 18 168 18 "/><path d="M172 228 182 230 194 234 206 242 210 245 212 248 212 249 94 249 98 246 101 244 111 239 154 228 165 227 172 228 "/><path d="M49 92 52 94 55 105 55 111 45 151 41 151 40 150 29 134 29 130 31 117 32 114 34 109 37 105 47 92 49 92 "/></svg>