<svg width="256" height="256" xmlns="http://www.w3.org/2000/svg" fill-opacity="0" stroke="black" stroke-width="3" ><path d="M191 42 200 43 206 46 225 58 230 63 241 76 244 81 246 85 249 94 249 158 247 164 246 166 243 170 242 171 224 187 217 190 214 191 176 200 163 197 155 195 130 187 122 183 121 182 106 161 104 158 101 153 99 135 99 130 100 124 104 114 109 106 111 103 141 67 156 50 159 47 163 44 169 42 177 41 191 42 "/><path d="M98 3 126 15 128 17 132 39 132 54 128 63 123 72 118 78 114 81 72 105 69 105 65 103 47 89 42 83 29 67 29 48 30 44 33 34 41 22 47 16 60 6 66 3 98 3 "/><path d="M39 159 49 161 56 165 59 167 72 180 75 185 80 200 80 206 78 214 75 220 71 225 68 228 60 235 55 238 39 244 28 246 12 246 9 245 7 244 2 239 0 235 0 176 2 171 3 170 23 160 26 159 39 159 "/><path d="M148 236 148 249 49 249 51 247 105 225 148 236 "/><path d="M233 231 240 232 246 234 249 236 249 249 189 249 191 246 194 243 197 241 210 234 225 231 233 231 "/></svg>