<svg width="256" height="256" xmlns="http://www.w3.org/2000/svg" fill-opacity="0" stroke="black" stroke-width="3" ><path d="M249 0 249 148 162 216 154 221 131 231 103 233 102 233 89 231 86 230 84 229 73 223 65 213 59 205 58 200 40 72 40 70 41 68 45 64 88 36 210 4 214 3 236 0 249 0 "/><path d="M93 0 93 13 90 18 84 27 83 28 60 45 53 48 49 49 33 51 28 51 22 49 19 47 16 42 14 38 14 33 17 26 18 24 26 15 35 6 50 0 93 0 "/><path d="M3 72 5 73 16 86 18 89 21 97 26 112 28 125 28 132 27 141 25 149 17 177 16 178 15 178 3 177 0 176 0 73 2 72 3 72 "/></svg>