<svg width="256" height="256" xmlns="http://www.w3.org/2000/svg" fill-opacity="0" stroke="black" stroke-width="3" ><path d="M132 50 159 56 165 58 170 60 190 78 191 79 197 88 202 103 202 114 201 122 200 128 195 139 168 193 166 195 162 198 149 204 122 210 121 210 90 195 76 185 73 182 62 163 58 155 56 149 55 143 54 126 54 118 55 68 56 66 61 60 64 57 66 56 74 54 118 50 132 50 "/><path d="M21 0 25 4 27 8 29 13 31 20 33 31 33 36 32 62 31 65 25 74 17 85 1 101 0 101 0 0 21 0 "/><path d="M35 223 40 224 44 225 49 228 52 230 57 235 63 247 63 249 0 249 0 231 30 223 35 223 "/><path d="M249 248 247 249 204 249 198 246 194 242 187 228 187 225 188 220 198 215 249 213 249 248 "/><path d="M8 173 21 176 25 179 30 188 32 195 32 196 31 198 25 209 21 213 17 216 14 217 10 218 0 218 0 173 3 172 8 173 "/><path d="M249 146 249 184 241 198 240 199 237 199 235 197 222 182 220 179 218 174 217 170 217 169 218 167 226 156 229 153 231 152 244 146 249 146 "/></svg>