<svg width="256" height="256" xmlns="http://www.w3.org/2000/svg" fill-opacity="0" stroke="black" stroke-width="3" ><path d="M152 45 165 46 184 48 189 52 240 131 241 139 241 140 240 152 238 160 228 174 219 179 215 180 129 201 124 202 112 202 87 197 86 113 86 109 88 90 90 81 93 73 94 71 97 67 99 65 150 45 152 45 "/><path d="M167 0 168 7 168 9 167 11 152 30 113 50 107 53 76 64 74 64 69 60 69 56 71 51 72 49 101 3 103 0 167 0 "/><path d="M248 0 249 1 249 40 247 40 230 27 227 24 225 21 213 2 213 0 248 0 "/></svg>