<svg width="256" height="256" xmlns="http://www.w3.org/2000/svg" fill-opacity="0" stroke="black" stroke-width="3" ><path d="M184 63 186 64 191 67 194 69 197 72 200 76 209 94 210 98 211 106 211 107 210 119 209 128 205 138 196 156 192 163 182 173 99 247 89 249 0 249 0 14 184 63 "/><path d="M249 0 249 103 243 103 236 99 232 96 226 90 220 82 218 77 214 66 213 60 213 48 216 34 219 25 222 21 232 9 235 6 247 0 249 0 "/><path d="M200 0 194 6 171 22 168 23 163 23 155 22 150 21 146 18 137 6 140 0 200 0 "/><path d="M236 215 238 217 246 226 249 239 249 249 219 249 206 242 206 240 207 239 234 214 236 215 "/></svg>