<svg width="256" height="256" xmlns="http://www.w3.org/2000/svg" fill-opacity="0" stroke="black" stroke-width="3" ><path d="M134 42 161 44 181 50 184 51 187 53 191 56 200 63 205 68 214 81 216 84 219 93 224 128 224 133 208 169 202 178 185 194 172 203 168 205 159 209 148 211 129 212 125 211 91 201 76 194 74 193 63 184 60 181 58 178 51 165 50 163 48 158 44 147 43 143 42 138 41 132 40 125 40 123 41 105 43 98 55 78 57 75 62 71 71 64 83 56 89 53 94 51 106 47 118 44 132 42 134 42 "/><path d="M217 0 217 4 215 14 214 16 210 23 206 27 202 30 197 31 186 31 162 30 150 29 141 26 123 17 117 12 115 9 115 0 217 0 "/><path d="M66 0 66 5 65 31 63 33 30 45 17 49 15 49 7 46 5 45 0 41 0 0 66 0 "/></svg>