<svg width="256" height="256" xmlns="http://www.w3.org/2000/svg" fill-opacity="0" stroke="black" stroke-width="3" ><path d="M126 30 135 31 142 32 146 33 151 35 153 36 164 42 175 50 178 53 184 60 188 66 190 70 195 81 197 87 200 98 203 113 204 124 205 154 205 162 202 168 198 175 191 186 189 189 177 201 164 211 153 217 143 219 131 220 127 220 121 219 92 212 62 204 59 202 51 180 48 171 43 151 40 133 40 128 43 111 45 106 49 97 51 93 55 87 65 74 90 43 93 40 98 36 102 34 108 32 112 31 125 30 126 30 "/></svg>