<svg width="256" height="256" xmlns="http://www.w3.org/2000/svg" fill-opacity="0" stroke="black" stroke-width="3" ><path d="M130 36 134 37 151 181 149 202 85 240 83 241 74 244 73 244 34 241 20 239 19 238 16 234 15 230 15 227 16 212 39 118 41 111 43 105 47 94 49 90 73 62 84 51 99 41 103 39 111 37 129 36 130 36 "/><path d="M245 41 246 42 249 46 249 71 246 88 244 88 229 86 227 84 220 75 219 73 219 67 222 56 223 53 224 51 227 48 232 44 238 41 245 41 "/><path d="M233 98 245 99 246 100 249 105 249 139 244 137 242 136 235 128 229 117 228 111 228 99 229 98 233 98 "/></svg>