<svg width="256" height="256" xmlns="http://www.w3.org/2000/svg" fill-opacity="0" stroke="black" stroke-width="3" ><path d="M139 48 149 50 170 55 176 57 184 60 194 64 202 70 205 73 211 84 213 88 221 109 222 116 222 139 221 146 219 157 218 160 216 164 212 169 190 195 186 198 172 205 166 207 127 217 122 218 105 218 96 217 90 215 88 214 70 203 68 201 60 192 58 188 57 185 54 175 52 167 50 139 50 138 53 117 54 114 59 102 67 86 72 78 75 74 83 64 88 60 96 56 119 50 137 48 139 48 "/><path d="M181 227 198 232 203 234 205 235 213 240 215 244 216 249 140 249 135 246 144 240 170 230 178 227 181 227 "/></svg>