<svg width="256" height="256" xmlns="http://www.w3.org/2000/svg" fill-opacity="0" stroke="black" stroke-width="3" ><path d="M123 29 164 38 173 45 189 58 214 83 223 104 233 129 236 139 236 140 144 220 141 222 139 223 130 224 127 223 120 216 67 159 62 149 51 118 49 98 49 94 51 86 55 75 57 70 59 66 65 59 66 58 85 44 91 41 122 29 123 29 "/><path d="M249 0 249 66 248 67 244 65 242 63 215 26 203 5 202 1 202 0 249 0 "/><path d="M198 224 212 231 214 233 210 237 199 242 189 246 175 249 156 249 160 243 177 226 192 223 198 224 "/></svg>