<svg width="256" height="256" xmlns="http://www.w3.org/2000/svg" fill-opacity="0" stroke="black" stroke-width="3" ><path d="M132 47 146 50 149 51 164 57 166 58 179 67 197 85 204 101 206 109 207 122 207 123 206 137 202 146 192 166 190 168 186 171 126 215 125 215 81 190 66 176 57 167 53 162 48 155 47 153 43 140 42 133 42 117 43 107 49 95 57 80 63 71 67 67 73 63 91 53 99 51 117 47 132 47 "/><path d="M215 189 239 193 248 197 249 198 249 249 141 249 139 240 139 233 147 219 149 217 192 197 210 189 215 189 "/></svg>