<svg width="256" height="256" xmlns="http://www.w3.org/2000/svg" fill-opacity="0" stroke="black" stroke-width="3" ><path d="M127 48 138 49 143 50 166 55 169 56 180 86 183 107 183 111 180 138 178 152 173 161 166 172 165 173 162 175 136 191 132 191 72 155 70 151 69 144 69 138 76 89 81 69 91 57 94 54 96 53 103 51 124 48 127 48 "/><path d="M34 0 39 92 39 102 36 113 35 116 31 120 19 128 12 128 6 127 0 125 0 0 34 0 "/><path d="M249 104 249 149 244 148 241 147 237 145 232 140 227 131 226 128 225 123 225 116 227 112 235 102 249 104 "/><path d="M249 85 245 90 242 93 239 94 233 92 228 89 225 87 224 86 239 37 249 35 249 85 "/></svg>