<svg width="256" height="256" xmlns="http://www.w3.org/2000/svg" fill-opacity="0" stroke="black" stroke-width="3" ><path d="M133 63 151 67 155 70 167 81 181 100 186 112 187 121 187 129 186 136 184 149 182 160 172 178 168 183 164 187 158 190 155 191 142 194 117 195 115 195 105 190 99 186 95 183 89 178 79 168 73 161 71 158 69 154 67 149 65 138 65 117 69 101 72 95 87 77 95 72 101 69 109 66 115 64 123 63 133 63 "/><path d="M236 143 249 148 249 241 240 242 235 242 223 240 220 239 213 236 203 230 199 226 191 215 190 210 189 198 189 193 191 181 193 172 195 169 209 153 211 151 234 143 236 143 "/></svg>