<svg width="256" height="256" xmlns="http://www.w3.org/2000/svg" fill-opacity="0" stroke="black" stroke-width="3" ><path d="M151 57 203 81 215 128 213 140 211 150 132 210 109 226 105 226 100 225 96 221 72 174 66 158 65 128 65 124 73 97 74 95 76 93 96 74 110 64 112 63 133 57 151 57 "/><path d="M247 33 249 34 249 112 239 112 220 106 215 103 213 101 204 79 209 63 211 59 212 58 235 37 238 35 243 32 247 33 "/><path d="M211 0 211 3 208 15 205 22 203 25 192 27 184 28 181 28 89 9 87 8 85 4 85 3 88 0 211 0 "/><path d="M9 207 25 208 26 209 51 236 53 239 57 246 58 248 58 249 0 249 0 209 5 207 9 207 "/><path d="M15 92 19 93 27 101 28 103 30 108 30 109 29 117 28 120 26 124 21 131 16 136 4 142 1 143 0 143 0 94 4 93 13 92 15 92 "/></svg>