<svg width="256" height="256" xmlns="http://www.w3.org/2000/svg" fill-opacity="0" stroke="black" stroke-width="3" ><path d="M200 0 204 8 205 13 205 39 204 60 197 77 190 91 186 97 181 103 166 118 161 122 149 130 141 134 128 138 116 140 106 140 92 138 83 134 70 128 59 122 53 118 48 114 42 109 40 107 33 99 27 90 21 76 19 65 17 36 17 34 18 29 20 20 25 3 26 0 200 0 "/><path d="M71 193 78 194 84 196 89 198 95 201 103 207 114 217 118 221 120 224 125 233 128 239 130 247 130 249 11 249 11 246 32 220 54 195 55 194 57 193 71 193 "/><path d="M222 194 241 210 242 214 241 217 226 224 225 224 208 214 207 213 198 203 198 202 199 201 208 197 212 196 221 194 222 194 "/></svg>