<svg width="256" height="256" xmlns="http://www.w3.org/2000/svg" fill-opacity="0" stroke="black" stroke-width="3" ><path d="M142 56 156 58 168 62 176 68 178 70 198 96 204 111 204 137 200 147 195 156 187 166 185 168 175 177 170 181 164 185 142 197 134 199 127 200 118 201 95 201 86 198 83 196 76 191 71 187 57 173 53 165 51 157 49 135 49 129 51 116 53 110 60 101 71 88 73 86 94 72 115 62 129 58 139 56 142 56 "/><path d="M6 96 9 98 16 104 18 106 21 111 24 117 27 125 32 161 32 171 30 179 25 186 24 187 23 187 13 181 0 167 0 93 6 96 "/><path d="M14 0 24 13 26 21 26 32 24 37 23 39 12 52 6 55 2 56 0 56 0 0 14 0 "/></svg>