<svg width="256" height="256" xmlns="http://www.w3.org/2000/svg" fill-opacity="0" stroke="black" stroke-width="3" ><path d="M216 0 218 1 245 18 248 20 249 22 249 40 246 80 206 193 124 233 103 239 94 240 84 239 74 237 63 228 0 143 0 0 216 0 "/><path d="M3 191 45 212 48 220 51 230 54 242 55 249 0 249 0 191 3 191 "/><path d="M249 175 249 249 238 249 226 232 225 230 222 221 221 214 221 204 231 182 232 181 247 173 249 175 "/><path d="M208 225 209 227 217 249 133 249 139 244 183 224 193 221 208 225 "/></svg>