<svg width="256" height="256" xmlns="http://www.w3.org/2000/svg" fill-opacity="0" stroke="black" stroke-width="3" ><path d="M146 57 154 60 159 63 163 66 174 77 178 82 180 85 185 93 186 95 187 100 187 103 159 176 115 248 114 249 101 246 99 245 94 242 75 229 58 215 52 209 50 206 49 204 48 184 48 183 61 126 66 113 69 107 80 93 89 83 101 71 105 68 108 66 113 64 131 58 140 57 146 57 "/><path d="M217 113 236 124 240 128 241 131 246 150 249 179 249 192 246 200 226 249 206 249 193 247 191 246 189 243 188 241 187 236 181 189 181 188 183 171 190 136 195 125 207 113 217 113 "/><path d="M249 0 249 36 220 65 217 67 198 67 185 63 183 62 176 57 174 55 169 49 165 39 164 34 164 29 165 8 167 3 169 0 249 0 "/><path d="M62 0 68 9 66 20 60 33 54 45 50 51 42 59 37 61 30 63 21 65 11 66 1 60 0 59 0 46 9 0 62 0 "/><path d="M71 34 72 35 74 38 91 64 91 67 90 69 58 108 54 111 52 112 49 112 45 111 44 109 49 68 50 65 67 36 69 34 71 34 "/></svg>