<svg width="256" height="256" xmlns="http://www.w3.org/2000/svg" fill-opacity="0" stroke="black" stroke-width="3" ><path d="M134 47 176 81 184 101 187 112 187 117 169 168 167 171 157 182 155 184 143 190 128 196 113 196 104 192 67 174 58 159 56 155 48 138 46 132 46 131 47 121 50 100 52 95 94 47 95 46 134 47 "/><path d="M89 0 90 1 90 5 87 28 82 42 81 44 72 55 57 66 46 73 37 77 29 80 26 80 13 70 6 64 4 62 0 56 0 8 5 3 30 0 89 0 "/><path d="M242 95 246 97 249 99 249 196 248 196 246 195 241 192 217 177 215 175 209 167 204 155 202 150 202 146 204 120 209 111 220 100 226 97 232 95 242 95 "/></svg>