<svg width="256" height="256" xmlns="http://www.w3.org/2000/svg" fill-opacity="0" stroke="black" stroke-width="3" ><path d="M140 0 150 7 152 9 168 33 174 51 178 66 178 87 172 124 164 143 158 154 155 158 151 163 144 171 142 173 138 176 130 181 126 183 104 189 79 192 66 192 45 188 39 185 29 179 3 153 0 147 0 7 5 0 140 0 "/><path d="M249 0 249 202 221 208 207 205 195 202 189 197 173 156 172 151 172 146 173 137 187 77 210 10 215 0 249 0 "/><path d="M175 199 223 214 225 215 231 220 234 223 246 237 248 242 249 245 249 249 101 249 101 248 103 245 107 241 152 206 169 199 175 199 "/></svg>