<svg width="256" height="256" xmlns="http://www.w3.org/2000/svg" fill-opacity="0" stroke="black" stroke-width="3" ><path d="M123 23 132 26 161 39 163 40 172 45 196 64 199 67 204 74 206 77 209 84 213 108 213 143 212 148 211 152 209 158 201 174 198 179 196 182 186 192 177 200 173 203 166 208 163 210 152 216 134 225 131 226 127 227 106 227 103 226 26 192 23 190 18 185 14 180 0 139 0 84 6 73 11 66 24 53 44 43 76 29 81 27 89 25 98 23 106 22 123 23 "/><path d="M36 215 51 216 62 217 68 220 74 224 88 238 90 241 92 245 93 249 0 249 0 229 2 227 29 216 32 215 36 215 "/><path d="M55 0 55 2 54 5 49 19 39 26 33 30 31 31 30 31 7 30 4 28 0 25 0 0 55 0 "/></svg>