<svg width="256" height="256" xmlns="http://www.w3.org/2000/svg" fill-opacity="0" stroke="black" stroke-width="3" ><path d="M110 60 117 62 120 63 183 100 188 103 193 108 199 115 205 145 199 169 189 184 185 188 175 196 162 203 150 209 145 211 130 213 126 213 114 212 107 211 100 209 90 204 72 185 61 170 51 150 50 130 50 122 55 107 64 87 70 79 75 74 83 67 88 64 90 63 98 60 110 60 "/><path d="M200 0 223 30 227 47 227 51 213 71 208 76 205 78 193 83 187 83 173 81 155 74 142 63 141 61 133 37 134 33 139 14 151 0 200 0 "/><path d="M93 215 238 221 247 222 249 223 249 249 64 249 63 246 80 219 82 217 92 215 93 215 "/><path d="M125 0 127 4 127 6 124 19 123 21 121 24 111 37 104 41 101 42 89 42 80 39 67 32 62 29 60 24 59 20 59 14 60 10 62 4 65 0 125 0 "/><path d="M9 185 60 200 61 203 61 211 51 238 50 240 24 249 0 249 0 188 6 185 9 185 "/></svg>