<svg width="256" height="256" xmlns="http://www.w3.org/2000/svg" fill-opacity="0" stroke="black" stroke-width="3" ><path d="M95 35 115 36 120 37 123 38 131 42 141 51 142 52 155 66 171 85 172 87 178 103 187 130 189 145 189 152 188 162 184 170 167 191 158 200 150 207 145 211 143 212 132 213 105 213 84 210 75 207 73 206 28 171 19 152 17 146 16 142 13 123 12 108 12 104 13 81 20 69 21 68 45 45 70 37 78 35 95 35 "/><path d="M230 0 238 2 240 3 243 5 246 8 249 12 249 40 246 62 238 68 214 69 208 69 196 67 188 64 186 63 174 53 166 46 148 28 147 26 141 13 140 1 140 0 230 0 "/><path d="M11 166 17 168 26 172 52 199 53 201 53 218 49 224 45 228 36 235 30 239 15 245 13 245 6 243 4 242 3 241 0 228 0 167 6 166 11 166 "/><path d="M232 160 237 164 238 165 245 186 245 188 244 191 241 197 238 202 236 204 231 208 224 212 212 217 201 217 192 216 190 215 184 208 184 197 185 193 189 181 190 179 195 171 197 168 198 167 203 164 209 161 213 160 228 159 232 160 "/><path d="M27 0 39 12 42 16 44 20 45 26 45 36 44 41 32 52 26 57 20 60 17 61 14 61 8 60 0 57 0 0 27 0 "/><path d="M104 0 96 10 89 15 82 19 81 19 76 18 56 13 50 10 42 3 41 2 40 0 104 0 "/></svg>