<svg width="256" height="256" xmlns="http://www.w3.org/2000/svg" fill-opacity="0" stroke="black" stroke-width="3" ><path d="M249 0 249 67 216 218 215 221 212 224 203 231 199 233 187 238 183 239 173 239 164 236 88 209 86 208 78 203 69 196 54 181 51 177 49 174 41 158 37 148 32 134 32 133 33 120 35 113 36 110 39 102 40 100 57 72 59 69 65 63 84 47 88 44 98 37 113 32 217 0 249 0 "/><path d="M38 201 41 203 44 206 45 208 53 230 56 249 3 249 1 248 0 245 0 236 3 213 5 209 15 199 20 198 30 197 38 201 "/><path d="M3 75 15 89 25 105 26 107 26 108 22 144 13 163 12 165 0 168 0 75 3 75 "/><path d="M97 0 97 1 74 35 73 36 65 24 58 2 58 0 97 0 "/></svg>