<svg width="256" height="256" xmlns="http://www.w3.org/2000/svg" fill-opacity="0" stroke="black" stroke-width="3" ><path d="M134 39 145 40 154 41 159 42 167 44 177 48 179 49 189 56 199 65 207 77 213 87 222 106 226 115 226 129 225 133 221 145 217 155 215 159 208 172 207 173 203 176 185 188 181 190 155 202 136 209 135 209 116 207 100 203 92 198 68 182 58 172 51 161 41 141 37 129 37 123 40 102 43 91 52 73 59 66 69 59 75 56 128 39 134 39 "/><path d="M249 0 249 94 247 94 238 91 234 88 227 80 226 78 219 62 216 55 213 46 214 36 218 18 220 14 227 3 232 0 249 0 "/><path d="M141 0 131 14 128 17 117 25 97 33 80 33 71 31 58 26 42 19 40 17 34 8 30 0 141 0 "/></svg>