<svg width="256" height="256" xmlns="http://www.w3.org/2000/svg" fill-opacity="0" stroke="black" stroke-width="3" ><path d="M123 48 129 50 152 58 156 60 171 70 178 76 184 82 187 86 191 93 192 95 197 107 201 117 202 122 202 134 201 140 195 153 192 159 182 171 175 179 171 183 155 193 149 196 139 200 129 201 125 201 101 197 92 192 84 185 74 176 73 175 70 171 58 152 56 148 54 136 54 107 63 84 64 82 67 78 74 70 81 63 94 53 102 50 105 49 109 48 123 48 "/><path d="M249 152 249 249 191 249 190 248 188 244 186 239 186 225 187 220 188 216 195 198 197 194 203 186 211 176 225 164 228 162 233 159 246 152 249 152 "/><path d="M17 65 19 66 26 76 29 81 30 83 31 86 32 95 32 98 27 153 17 163 15 164 9 166 5 167 0 166 0 64 17 65 "/></svg>