<svg width="256" height="256" xmlns="http://www.w3.org/2000/svg" fill-opacity="0" stroke="black" stroke-width="3" ><path d="M116 15 162 31 202 73 212 84 220 95 221 103 222 115 222 134 221 150 219 156 218 158 204 177 192 186 162 207 156 210 142 212 77 221 76 221 58 220 51 218 38 205 28 181 13 125 13 122 14 113 15 106 19 87 25 63 41 39 46 36 80 17 98 15 116 15 "/><path d="M235 195 240 197 244 199 249 203 249 249 191 249 192 244 203 211 208 199 210 197 217 195 235 195 "/><path d="M34 0 34 4 33 8 28 19 27 21 22 29 21 30 2 41 0 41 0 0 34 0 "/></svg>