<svg width="256" height="256" xmlns="http://www.w3.org/2000/svg" fill-opacity="0" stroke="black" stroke-width="3" ><path d="M152 53 166 56 174 60 183 67 192 76 198 85 219 125 219 127 199 166 193 177 191 180 175 196 167 202 165 203 144 212 123 214 112 214 106 213 94 209 62 193 40 171 38 166 34 153 32 142 32 124 34 116 38 102 40 97 49 84 60 73 70 68 116 57 149 53 152 53 "/><path d="M237 0 249 29 249 101 247 101 245 100 242 98 239 95 165 20 156 7 156 0 237 0 "/><path d="M118 0 119 23 119 31 116 35 105 47 101 50 92 55 80 57 73 57 67 56 65 55 58 50 39 33 32 26 30 22 29 17 29 9 31 3 34 0 118 0 "/><path d="M229 169 233 171 244 180 245 181 249 192 249 235 248 235 243 234 238 232 230 227 228 225 212 202 210 197 209 193 209 186 210 182 212 178 213 177 220 171 228 169 229 169 "/><path d="M189 223 198 225 202 227 209 232 213 236 220 247 221 249 142 249 141 248 141 247 146 241 165 227 184 223 189 223 "/><path d="M3 201 8 206 18 242 17 249 0 249 0 201 1 200 3 201 "/></svg>