<svg width="256" height="256" xmlns="http://www.w3.org/2000/svg" fill-opacity="0" stroke="black" stroke-width="3" ><path d="M163 30 171 31 196 40 201 46 223 127 224 132 225 139 225 148 222 161 221 164 210 176 208 178 195 188 192 190 176 200 168 204 155 206 127 210 118 211 116 211 113 210 85 196 76 190 60 176 58 173 52 159 46 137 44 119 44 115 46 106 47 102 48 99 50 94 68 65 72 60 79 53 91 47 118 37 150 31 157 30 163 30 "/><path d="M78 0 80 2 89 19 89 25 88 29 85 32 71 37 47 37 41 36 26 32 18 17 17 15 17 7 18 5 23 0 78 0 "/><path d="M1 24 40 65 42 79 42 80 38 84 34 86 12 83 3 81 0 80 0 23 1 24 "/></svg>