<svg width="256" height="256" xmlns="http://www.w3.org/2000/svg" fill-opacity="0" stroke="black" stroke-width="3" ><path d="M120 28 137 30 144 32 162 43 165 45 169 48 188 64 198 80 206 103 208 114 208 115 207 128 206 134 203 145 201 149 195 159 151 193 145 197 141 199 131 203 111 205 104 205 97 203 94 202 80 195 70 189 65 185 62 182 52 170 49 164 46 157 44 152 40 141 38 135 37 124 37 114 38 108 40 97 41 93 45 81 46 79 48 76 57 64 67 52 73 46 77 43 79 42 100 32 109 29 118 28 120 28 "/><path d="M224 174 237 178 244 182 249 188 249 249 179 249 176 237 174 221 174 220 178 211 183 201 184 200 207 178 215 174 224 174 "/></svg>