<svg width="256" height="256" xmlns="http://www.w3.org/2000/svg" fill-opacity="0" stroke="black" stroke-width="3" ><path d="M118 48 153 51 165 54 185 63 194 70 200 76 203 80 205 85 211 111 211 113 208 130 203 153 198 164 192 175 185 183 179 189 170 196 164 199 155 201 144 203 137 202 110 197 91 187 84 183 77 177 75 175 72 171 67 163 64 158 62 154 58 145 56 135 55 125 55 112 59 95 60 92 61 90 66 81 76 68 80 64 88 58 92 56 112 48 118 48 "/><path d="M207 0 207 1 201 13 193 28 191 31 190 32 181 37 177 39 173 40 171 40 133 22 131 21 112 10 111 9 108 4 106 0 207 0 "/><path d="M249 249 195 249 195 247 196 244 202 238 205 236 212 232 223 228 249 220 249 249 "/><path d="M58 228 66 230 78 235 82 238 85 244 85 249 24 249 24 246 28 239 33 234 36 232 43 230 52 228 58 228 "/></svg>