<svg width="256" height="256" xmlns="http://www.w3.org/2000/svg" fill-opacity="0" stroke="black" stroke-width="3" ><path d="M106 94 114 95 121 96 124 97 164 111 172 115 181 123 185 127 191 134 200 145 206 156 207 158 209 165 211 173 211 195 210 201 205 223 203 229 201 234 197 242 193 249 30 249 27 242 23 230 22 225 19 207 19 198 21 187 24 175 31 159 35 150 38 145 43 137 48 130 51 126 56 120 61 115 70 107 73 105 84 99 93 96 105 94 106 94 "/><path d="M207 0 206 7 189 50 148 75 97 75 79 71 67 63 58 55 53 50 35 23 33 9 33 0 207 0 "/></svg>