<svg width="256" height="256" xmlns="http://www.w3.org/2000/svg" fill-opacity="0" stroke="black" stroke-width="3" ><path d="M132 9 143 11 166 21 171 24 177 28 181 31 186 35 190 39 194 44 196 47 198 51 206 69 212 86 212 94 210 112 206 124 204 128 158 203 146 221 144 222 141 222 100 203 96 201 75 187 63 175 61 171 47 142 42 126 41 112 41 102 42 95 44 84 51 53 61 36 64 31 68 27 72 24 79 19 91 13 100 11 113 9 132 9 "/><path d="M249 249 185 249 179 235 175 224 173 215 173 213 176 206 194 165 201 154 202 153 220 141 225 140 249 139 249 249 "/></svg>