<svg width="256" height="256" xmlns="http://www.w3.org/2000/svg" fill-opacity="0" stroke="black" stroke-width="3" ><path d="M133 48 152 49 157 50 201 66 206 68 209 70 212 73 225 88 227 91 231 101 235 116 236 123 236 130 235 136 233 145 231 150 227 155 223 158 148 213 145 215 142 216 137 216 84 207 82 206 78 203 71 197 60 186 56 180 52 173 49 167 46 160 44 151 43 145 43 135 44 128 48 118 70 81 73 76 77 71 81 67 88 62 96 57 102 54 114 50 128 48 133 48 "/><path d="M249 198 249 249 168 249 168 244 173 237 178 233 194 222 248 198 249 198 "/></svg>