<svg width="256" height="256" xmlns="http://www.w3.org/2000/svg" fill-opacity="0" stroke="black" stroke-width="3" ><path d="M221 91 248 96 249 98 249 196 245 202 237 206 234 207 230 208 226 208 210 204 205 200 196 192 195 191 192 178 192 161 195 112 196 110 202 103 219 91 221 91 "/><path d="M163 0 164 7 165 23 165 24 163 28 156 39 140 54 135 54 75 31 74 30 71 25 69 21 69 2 71 0 163 0 "/><path d="M202 0 206 3 207 5 209 17 209 21 208 43 204 48 202 50 196 54 189 54 185 52 181 47 180 45 178 10 178 9 183 0 202 0 "/></svg>