<svg width="256" height="256" xmlns="http://www.w3.org/2000/svg" fill-opacity="0" stroke="black" stroke-width="3" ><path d="M124 32 131 34 145 40 153 45 157 49 186 81 212 115 213 117 218 145 218 150 217 153 208 166 203 172 202 173 195 178 149 200 146 201 136 202 123 202 119 201 66 169 63 167 49 143 46 137 42 125 39 86 95 40 105 36 120 32 124 32 "/><path d="M4 147 27 157 40 173 48 183 48 189 44 239 40 247 38 249 0 249 0 150 3 147 4 147 "/><path d="M247 130 249 131 249 240 232 226 231 225 217 206 216 180 216 178 222 161 227 147 231 139 232 138 235 136 246 130 247 130 "/><path d="M163 227 171 231 174 233 175 234 177 237 178 239 178 248 177 249 110 249 116 232 162 227 163 227 "/></svg>