<svg width="256" height="256" xmlns="http://www.w3.org/2000/svg" fill-opacity="0" stroke="black" stroke-width="3" ><path d="M130 21 136 22 146 24 153 28 179 48 182 52 184 55 186 59 191 81 191 86 190 98 184 126 178 141 165 158 133 184 131 185 112 187 106 187 94 181 81 168 74 160 68 144 68 134 70 65 71 63 77 52 80 48 81 47 94 35 108 27 114 24 124 21 130 21 "/><path d="M61 178 71 180 78 182 90 186 102 195 135 222 136 224 142 239 138 243 134 245 121 249 0 249 0 198 29 180 33 179 50 178 61 178 "/><path d="M57 6 65 10 67 12 71 17 72 26 71 34 49 28 34 19 28 15 27 14 28 13 34 8 41 6 57 6 "/></svg>