<svg width="256" height="256" xmlns="http://www.w3.org/2000/svg" fill-opacity="0" stroke="black" stroke-width="3" ><path d="M129 39 139 40 144 41 169 50 183 60 186 63 190 69 198 85 200 90 212 127 212 134 208 155 206 162 201 173 200 175 198 178 188 192 186 194 178 201 171 205 161 209 120 210 112 210 103 208 100 207 78 196 75 194 68 189 65 186 60 180 49 159 46 149 45 143 43 130 43 126 45 116 47 111 59 86 65 76 69 70 72 66 80 58 89 51 115 39 129 39 "/><path d="M83 222 95 225 117 231 120 232 137 239 138 240 139 243 140 247 140 249 35 249 34 231 35 229 61 219 83 222 "/></svg>