<svg width="256" height="256" xmlns="http://www.w3.org/2000/svg" fill-opacity="0" stroke="black" stroke-width="3" ><path d="M117 14 198 73 202 76 204 79 206 84 206 86 198 121 197 123 180 145 172 154 159 167 115 200 109 201 90 199 87 197 83 194 61 173 59 171 56 167 55 165 55 162 82 40 88 32 92 28 96 25 115 14 117 14 "/><path d="M249 76 249 171 243 185 240 188 224 189 223 189 214 187 207 182 199 174 196 169 194 151 194 150 195 147 212 106 232 80 234 78 245 76 249 76 "/><path d="M142 208 147 209 149 210 161 217 162 218 160 230 158 235 156 239 152 246 151 247 144 249 101 249 96 244 93 239 93 231 94 225 99 217 105 211 109 209 120 207 142 208 "/><path d="M249 203 249 249 219 249 212 242 211 234 211 226 217 211 219 208 222 205 232 203 249 203 "/><path d="M220 0 220 1 207 15 187 24 184 24 165 23 138 7 136 5 136 0 220 0 "/><path d="M1 179 12 188 51 220 51 221 50 222 27 233 23 233 1 221 0 220 0 179 1 179 "/><path d="M82 0 85 3 86 6 78 16 68 22 4 10 0 8 0 0 82 0 "/></svg>