<svg width="256" height="256" xmlns="http://www.w3.org/2000/svg" fill-opacity="0" stroke="black" stroke-width="3" ><path d="M155 48 163 49 168 50 175 52 181 54 191 61 194 64 201 74 201 88 200 94 199 99 198 103 196 107 160 158 151 167 147 169 140 172 127 177 110 179 87 181 53 183 42 183 40 182 39 181 39 179 48 112 51 100 54 89 56 86 60 82 64 79 66 78 116 58 152 48 155 48 "/><path d="M174 190 215 195 231 199 237 202 249 214 249 249 146 249 134 221 134 220 137 209 143 199 146 196 161 191 169 190 174 190 "/><path d="M17 0 54 21 55 22 54 25 48 36 47 37 40 37 19 27 8 11 6 8 6 0 17 0 "/></svg>