<svg width="256" height="256" xmlns="http://www.w3.org/2000/svg" fill-opacity="0" stroke="black" stroke-width="3" ><path d="M143 40 168 47 177 50 179 51 184 54 190 59 199 67 200 68 204 74 208 82 212 100 214 110 216 121 216 129 214 137 213 139 178 196 173 203 168 207 148 215 135 218 109 218 93 213 81 207 72 201 66 196 60 188 58 184 51 169 40 133 40 119 41 113 43 104 48 96 50 93 53 89 64 75 69 69 70 68 85 54 100 46 102 45 109 42 117 40 143 40 "/><path d="M249 166 249 249 217 249 216 248 208 233 197 204 204 193 246 162 249 166 "/></svg>