<svg width="256" height="256" xmlns="http://www.w3.org/2000/svg" fill-opacity="0" stroke="black" stroke-width="3" ><path d="M163 47 175 52 183 60 187 66 189 70 191 75 198 100 197 144 195 152 189 165 185 173 183 175 180 175 53 118 44 111 42 109 37 91 37 89 40 76 41 73 42 71 44 68 46 66 49 64 137 50 158 47 163 47 "/><path d="M96 213 105 216 115 221 118 223 121 227 122 230 123 234 123 246 122 249 33 249 34 246 36 242 42 233 44 231 58 219 62 217 65 216 77 214 91 213 96 213 "/><path d="M249 60 249 115 246 116 244 116 228 115 226 114 220 108 217 102 216 98 215 91 215 87 216 80 224 70 227 67 231 64 238 60 249 60 "/><path d="M35 108 48 120 49 121 62 139 75 164 75 167 60 177 59 177 55 175 53 173 49 168 41 156 38 151 36 147 34 142 30 127 30 121 32 110 33 108 35 108 "/></svg>