<svg width="256" height="256" xmlns="http://www.w3.org/2000/svg" fill-opacity="0" stroke="black" stroke-width="3" ><path d="M179 61 181 62 195 71 196 72 199 76 201 79 210 99 214 110 217 123 218 128 218 135 217 140 209 159 205 165 202 167 186 175 180 177 146 188 103 201 96 203 94 203 88 201 20 105 20 104 43 74 47 69 56 59 62 53 73 44 79 40 91 34 179 61 "/><path d="M241 0 249 18 249 28 236 52 235 53 221 60 220 60 204 59 198 57 196 56 194 52 194 45 195 34 196 26 197 24 213 0 241 0 "/><path d="M29 26 43 31 44 32 41 44 37 56 34 63 29 73 26 78 24 81 17 91 13 93 7 94 5 94 0 89 0 66 17 34 22 26 29 26 "/></svg>