<svg width="256" height="256" xmlns="http://www.w3.org/2000/svg" fill-opacity="0" stroke="black" stroke-width="3" ><path d="M130 83 145 84 149 85 156 90 160 96 183 132 190 146 191 152 191 155 190 161 184 183 182 187 174 198 171 202 166 208 164 210 159 214 156 216 142 223 137 225 134 226 129 227 120 228 110 227 101 225 93 223 80 218 73 215 69 213 66 211 57 202 44 183 43 181 41 176 39 165 39 147 41 142 49 124 51 120 55 115 61 109 65 107 114 86 123 83 130 83 "/><path d="M98 0 101 11 102 19 102 25 101 35 90 50 88 52 86 53 68 61 50 67 46 67 20 53 16 47 0 20 0 0 98 0 "/><path d="M212 48 218 49 220 50 223 53 244 81 246 84 246 95 245 100 244 102 242 105 239 109 236 112 232 115 225 119 214 121 208 121 205 120 199 115 193 109 188 103 184 98 181 92 176 77 176 70 177 66 181 58 182 57 190 52 200 49 204 48 212 48 "/><path d="M230 0 224 6 196 21 183 23 178 23 173 21 166 17 159 11 157 8 155 1 155 0 230 0 "/></svg>