<svg width="256" height="256" xmlns="http://www.w3.org/2000/svg" fill-opacity="0" stroke="black" stroke-width="3" ><path d="M158 68 168 72 171 74 177 80 185 90 189 96 193 104 199 117 200 120 200 129 199 137 189 152 184 157 178 162 155 179 152 181 134 187 126 189 120 190 103 190 100 189 80 181 76 179 62 165 54 151 52 147 52 127 58 110 61 104 65 98 69 94 90 78 98 74 105 72 111 71 136 68 158 68 "/><path d="M159 0 164 7 167 12 168 16 168 18 167 25 164 35 163 38 159 42 149 47 142 49 128 51 115 51 110 49 102 43 97 37 94 31 93 28 93 24 94 13 98 5 99 4 106 0 159 0 "/><path d="M34 210 41 211 53 214 55 215 65 222 69 226 73 233 74 235 74 249 0 249 0 229 11 219 16 215 22 212 25 211 33 210 34 210 "/><path d="M4 85 8 89 13 95 17 101 21 115 21 121 20 126 19 129 15 139 0 153 0 82 4 85 "/></svg>