<svg width="256" height="256" xmlns="http://www.w3.org/2000/svg" fill-opacity="0" stroke="black" stroke-width="3" ><path d="M137 51 146 53 150 54 158 57 182 69 188 75 196 84 202 93 212 113 214 119 216 126 216 141 202 179 199 183 195 188 191 192 167 210 157 216 132 220 124 220 114 218 102 214 67 200 51 186 45 178 40 169 35 159 30 140 30 132 31 112 34 97 41 89 53 76 54 75 69 65 73 63 84 59 92 57 113 53 125 51 137 51 "/><path d="M63 217 112 238 113 243 113 249 0 249 0 204 6 199 9 198 63 217 "/></svg>