<svg width="256" height="256" xmlns="http://www.w3.org/2000/svg" fill-opacity="0" stroke="black" stroke-width="3" ><path d="M138 25 157 27 160 28 181 40 186 44 196 54 198 59 199 62 199 63 195 100 177 175 172 188 168 191 158 193 148 193 136 192 123 189 116 187 105 183 99 180 92 175 83 166 73 151 69 142 61 118 60 109 60 100 61 94 67 80 73 67 78 60 96 42 105 36 117 30 132 26 136 25 138 25 "/><path d="M2 51 6 52 8 53 13 56 20 63 23 69 43 124 44 128 44 131 42 135 40 138 39 139 36 141 1 132 0 131 0 51 2 51 "/><path d="M218 108 219 111 220 120 220 122 218 137 216 145 212 152 205 163 196 173 188 181 184 183 181 182 181 180 182 165 200 125 217 107 218 108 "/></svg>