<svg width="256" height="256" xmlns="http://www.w3.org/2000/svg" fill-opacity="0" stroke="black" stroke-width="3" ><path d="M136 83 148 84 156 86 158 87 161 89 166 93 175 102 181 111 182 114 183 118 183 190 181 197 175 210 170 217 155 229 137 243 134 245 132 246 77 246 69 243 62 239 48 227 36 215 30 203 29 200 28 194 28 191 29 176 30 163 32 156 34 150 38 139 41 132 44 126 48 120 64 98 68 94 116 84 121 83 136 83 "/><path d="M227 92 249 103 249 122 235 186 232 189 225 189 223 188 208 177 206 174 205 169 203 107 204 105 205 104 212 98 223 92 227 92 "/></svg>