<svg width="256" height="256" xmlns="http://www.w3.org/2000/svg" fill-opacity="0" stroke="black" stroke-width="3" ><path d="M117 25 141 27 146 28 158 32 164 38 170 45 174 50 182 62 206 101 209 107 210 112 210 118 206 143 204 150 200 160 198 164 191 171 168 193 154 200 139 205 127 206 126 206 101 205 80 198 72 193 70 191 61 181 49 163 44 154 41 148 40 135 40 124 59 62 64 55 77 40 79 38 85 34 89 32 105 26 108 25 117 25 "/><path d="M246 182 248 183 249 184 249 249 183 249 179 233 178 227 178 225 179 221 182 215 183 214 214 188 224 184 244 182 246 182 "/><path d="M243 0 249 8 249 67 248 68 246 68 237 65 227 60 221 55 219 52 212 38 211 33 209 22 214 0 243 0 "/><path d="M102 227 113 228 122 230 126 232 124 241 121 249 51 249 51 246 60 240 75 232 80 230 86 228 96 227 102 227 "/></svg>