<svg width="256" height="256" xmlns="http://www.w3.org/2000/svg" fill-opacity="0" stroke="black" stroke-width="3" ><path d="M69 12 86 14 108 17 124 22 139 28 157 36 159 37 164 40 198 76 199 80 198 130 193 140 179 163 176 167 164 179 152 185 139 191 131 192 121 192 103 191 98 190 67 177 55 167 53 165 29 137 21 122 17 113 7 90 6 85 3 69 3 63 12 44 19 32 21 30 34 19 42 16 48 14 57 12 69 12 "/><path d="M249 165 245 163 240 159 236 146 234 136 234 134 235 128 239 115 240 114 243 112 249 110 249 165 "/></svg>