<svg width="256" height="256" xmlns="http://www.w3.org/2000/svg" fill-opacity="0" stroke="black" stroke-width="3" ><path d="M137 36 142 37 146 38 148 39 164 50 175 58 187 70 191 75 193 78 206 98 207 100 214 116 214 127 212 138 204 156 202 160 186 183 182 187 170 197 165 200 148 209 140 213 113 225 99 223 81 217 73 213 65 208 59 204 51 196 38 175 37 172 32 129 32 127 42 94 46 87 48 84 57 72 67 63 71 60 105 41 107 40 115 37 122 36 137 36 "/><path d="M4 91 12 95 14 97 32 151 33 157 28 171 22 174 16 176 14 176 5 171 0 168 0 91 4 91 "/><path d="M78 0 78 5 77 9 74 13 62 20 56 23 54 23 10 21 5 18 2 16 0 12 0 0 78 0 "/></svg>