<svg width="256" height="256" xmlns="http://www.w3.org/2000/svg" fill-opacity="0" stroke="black" stroke-width="3" ><path d="M134 36 140 38 146 41 151 44 166 54 178 64 186 72 198 86 201 90 211 110 211 118 204 166 203 170 201 175 199 179 197 182 191 189 189 191 184 195 176 201 170 205 160 209 157 210 141 211 130 210 116 206 107 203 87 193 84 191 44 111 43 108 43 101 46 90 50 76 63 63 66 61 78 54 86 50 106 41 113 38 126 36 134 36 "/><path d="M238 3 240 4 241 6 245 17 249 33 249 67 229 52 220 45 218 43 216 40 214 33 212 22 212 16 214 11 216 8 221 4 223 3 238 3 "/><path d="M240 132 249 141 249 186 245 186 235 181 229 175 227 172 218 158 217 154 218 144 219 140 220 138 224 135 235 132 240 132 "/></svg>