<svg width="256" height="256" xmlns="http://www.w3.org/2000/svg" fill-opacity="0" stroke="black" stroke-width="3" ><path d="M90 44 123 45 126 46 138 51 142 53 174 72 187 129 187 133 158 198 108 220 105 221 101 222 96 223 95 223 82 219 80 218 76 214 71 207 69 204 68 202 44 137 39 122 39 118 41 104 43 97 53 75 55 72 63 64 89 44 90 44 "/><path d="M240 210 249 212 249 238 247 242 246 243 187 249 163 249 163 248 165 243 166 241 190 222 196 218 198 217 217 211 238 210 240 210 "/><path d="M1 1 16 8 22 15 24 21 10 61 8 63 7 63 1 60 0 59 0 1 1 1 "/></svg>