<svg width="256" height="256" xmlns="http://www.w3.org/2000/svg" fill-opacity="0" stroke="black" stroke-width="3" ><path d="M140 40 150 42 154 43 157 44 170 50 178 58 190 73 200 94 206 110 208 125 208 130 206 151 204 157 201 164 198 167 147 213 140 217 134 219 128 219 117 217 92 207 86 203 69 189 65 185 59 176 49 147 45 134 45 131 46 111 52 80 53 76 55 71 73 52 84 48 102 42 106 41 113 40 140 40 "/><path d="M230 181 235 182 249 185 249 249 161 249 161 240 163 227 165 223 167 220 208 185 211 183 213 182 216 181 230 181 "/><path d="M24 196 34 198 43 201 44 202 46 205 49 211 58 232 60 238 60 241 59 249 0 249 0 210 2 206 6 202 11 198 15 196 24 196 "/><path d="M175 0 172 3 157 17 154 18 87 20 85 20 77 19 69 17 67 16 63 12 61 9 60 2 60 0 175 0 "/></svg>