<svg width="256" height="256" xmlns="http://www.w3.org/2000/svg" fill-opacity="0" stroke="black" stroke-width="3" ><path d="M104 47 141 48 145 49 150 51 164 57 170 60 179 65 201 83 202 84 208 91 212 103 216 128 216 132 213 146 210 159 204 175 200 185 170 249 95 249 0 200 0 187 3 173 33 75 45 47 47 46 104 47 "/><path d="M249 0 249 70 248 71 246 72 236 76 233 76 230 74 225 54 222 24 222 14 223 10 225 8 246 0 249 0 "/><path d="M2 79 8 84 12 90 14 96 16 105 15 113 14 117 12 121 9 126 7 129 5 131 1 133 0 133 0 79 2 79 "/></svg>