<svg width="256" height="256" xmlns="http://www.w3.org/2000/svg" fill-opacity="0" stroke="black" stroke-width="3" ><path d="M149 49 170 53 177 55 183 57 192 61 194 62 197 64 208 73 214 80 220 89 222 94 225 110 226 121 226 133 224 142 223 145 218 158 216 163 215 165 212 169 208 174 199 185 192 191 190 192 168 200 154 202 143 202 133 201 128 200 117 196 113 194 103 187 93 178 79 157 76 152 74 148 71 135 70 124 70 120 71 113 73 104 76 95 77 93 83 82 87 76 92 70 101 61 110 56 116 53 124 50 130 49 149 49 "/><path d="M245 0 243 4 235 16 222 28 219 30 215 32 200 36 187 36 170 34 139 29 134 26 127 21 118 14 114 10 110 4 108 0 245 0 "/></svg>