<svg width="256" height="256" xmlns="http://www.w3.org/2000/svg" fill-opacity="0" stroke="black" stroke-width="3" ><path d="M146 39 175 72 191 96 194 104 200 124 200 131 192 176 191 180 190 183 176 197 170 201 158 207 145 210 132 211 123 211 107 207 95 203 82 196 81 195 73 185 67 177 45 140 31 110 31 109 65 64 70 58 76 54 78 53 93 47 104 45 145 39 146 39 "/><path d="M249 217 248 217 245 216 243 215 240 213 235 208 229 201 223 192 222 183 222 167 223 163 231 142 245 128 249 125 249 217 "/><path d="M3 133 5 134 8 136 9 137 24 154 28 160 30 166 32 173 32 184 30 194 29 197 26 204 24 207 23 208 4 221 0 219 0 134 1 133 3 133 "/><path d="M3 0 11 3 13 4 26 18 28 22 29 27 29 30 26 39 25 41 18 49 17 50 9 51 8 51 0 46 0 0 3 0 "/><path d="M114 0 114 3 108 15 105 20 102 23 98 25 88 25 85 23 82 19 80 15 78 9 78 7 80 3 82 0 114 0 "/><path d="M249 5 249 42 244 42 227 34 226 33 225 31 225 24 228 17 229 15 232 12 240 7 244 5 249 5 "/></svg>