<svg width="256" height="256" xmlns="http://www.w3.org/2000/svg" fill-opacity="0" stroke="black" stroke-width="3" ><path d="M128 42 157 53 166 57 171 60 175 63 180 68 193 82 239 145 245 165 246 173 246 214 244 249 141 249 137 246 31 164 28 159 27 157 26 151 24 136 22 114 22 113 23 108 25 103 26 101 59 68 79 56 81 55 88 52 91 51 124 42 128 42 "/><path d="M56 206 62 207 72 209 78 212 84 216 85 217 87 220 88 223 92 246 92 249 18 249 18 240 19 229 21 223 25 217 29 213 37 209 40 208 55 206 56 206 "/><path d="M158 0 157 2 148 11 144 14 130 24 126 26 124 26 113 22 94 14 93 13 88 0 158 0 "/></svg>