<svg width="256" height="256" xmlns="http://www.w3.org/2000/svg" fill-opacity="0" stroke="black" stroke-width="3" ><path d="M150 51 158 53 167 57 177 62 187 68 188 70 198 92 200 109 201 146 200 158 196 166 192 173 186 180 178 189 174 192 160 202 157 204 155 205 149 207 145 208 138 209 101 202 88 197 80 193 75 190 69 186 65 183 56 173 52 166 50 162 49 159 48 155 47 147 47 131 49 113 50 111 62 91 67 84 76 75 82 70 95 61 103 57 110 55 114 54 120 53 133 52 148 51 150 51 "/><path d="M210 0 219 6 221 8 243 40 245 44 245 47 242 52 210 79 207 81 206 81 196 74 193 71 175 51 169 43 157 25 157 24 159 18 160 16 164 10 172 3 176 0 210 0 "/><path d="M70 219 112 223 123 226 129 229 134 234 138 239 140 243 140 249 0 249 0 226 1 225 12 223 20 222 68 219 70 219 "/><path d="M1 68 5 69 9 71 16 78 17 90 17 101 16 106 13 114 11 118 7 122 2 125 0 126 0 68 1 68 "/></svg>