<svg width="256" height="256" xmlns="http://www.w3.org/2000/svg" fill-opacity="0" stroke="black" stroke-width="3" ><path d="M102 50 155 53 162 54 170 57 187 64 200 77 201 79 202 82 203 86 204 93 204 115 198 137 192 151 189 155 180 165 178 166 119 168 98 157 95 155 79 143 72 76 72 73 73 70 74 68 79 63 91 52 97 50 102 50 "/><path d="M224 0 222 12 220 20 219 23 217 27 216 28 212 31 208 33 198 36 170 37 160 37 152 35 116 22 112 20 91 9 89 0 224 0 "/><path d="M29 0 31 7 31 9 30 20 28 26 26 29 23 33 18 39 12 43 8 45 0 45 0 0 29 0 "/></svg>