<svg width="256" height="256" xmlns="http://www.w3.org/2000/svg" fill-opacity="0" stroke="black" stroke-width="3" ><path d="M215 46 227 49 243 65 246 77 246 122 238 135 236 137 227 145 222 148 202 159 194 162 172 162 145 154 135 146 123 133 120 117 120 101 124 75 129 70 143 61 145 60 161 53 183 47 189 46 215 46 "/><path d="M7 11 15 12 21 13 36 21 41 24 52 32 70 63 74 71 74 74 69 90 23 151 10 154 0 155 0 11 7 11 "/><path d="M207 0 209 5 209 9 208 11 200 16 142 40 137 40 136 39 115 6 114 2 114 0 207 0 "/></svg>