<svg width="256" height="256" xmlns="http://www.w3.org/2000/svg" fill-opacity="0" stroke="black" stroke-width="3" ><path d="M170 56 182 58 187 60 191 62 198 66 205 73 215 84 218 89 220 93 222 98 224 109 224 115 222 127 220 136 219 138 204 157 193 168 183 176 180 178 172 182 159 186 149 188 145 188 133 187 126 186 122 185 103 178 98 175 84 166 74 156 71 151 64 136 62 131 60 125 58 115 59 107 60 104 65 94 67 91 73 83 77 79 95 72 166 56 170 56 "/><path d="M179 220 216 222 226 224 234 230 236 233 241 248 240 249 167 249 155 244 154 243 153 241 153 240 156 237 172 223 176 220 179 220 "/><path d="M35 218 51 223 54 224 63 230 69 236 72 241 73 244 73 246 72 249 3 249 3 240 5 236 10 231 16 226 22 222 33 218 35 218 "/></svg>