<svg width="256" height="256" xmlns="http://www.w3.org/2000/svg" fill-opacity="0" stroke="black" stroke-width="3" ><path d="M122 34 162 36 228 69 229 72 229 74 224 139 211 172 168 201 141 213 139 213 90 202 79 198 77 197 69 186 67 183 60 172 58 168 53 155 52 152 52 148 71 66 83 45 87 41 90 39 97 36 116 34 122 34 "/><path d="M4 15 19 21 31 27 43 38 46 41 59 61 64 81 62 96 60 105 56 113 50 124 48 127 44 132 35 138 33 139 16 142 8 142 6 141 1 138 0 137 0 16 3 15 4 15 "/><path d="M5 151 29 156 37 162 42 167 44 171 49 185 51 199 51 213 50 222 48 227 32 243 21 247 13 249 1 249 0 246 0 153 3 151 5 151 "/><path d="M249 217 249 249 181 249 179 244 179 240 180 235 185 229 186 228 191 224 199 221 204 220 241 217 249 217 "/></svg>