<svg width="256" height="256" xmlns="http://www.w3.org/2000/svg" fill-opacity="0" stroke="black" stroke-width="3" ><path d="M143 45 169 49 188 59 199 67 201 71 211 93 215 109 216 114 216 115 215 117 192 150 175 172 86 219 84 220 81 220 76 217 56 202 55 201 54 199 49 187 43 172 38 129 38 118 39 107 42 98 47 87 56 71 59 67 63 63 75 53 80 50 101 39 143 45 "/><path d="M5 1 35 11 49 25 51 29 56 44 56 46 55 51 54 55 30 94 26 98 18 104 15 106 13 107 10 108 9 108 1 104 0 103 0 1 5 1 "/><path d="M19 167 26 175 31 183 33 191 34 209 34 214 32 225 30 231 28 236 27 238 22 245 19 249 0 249 0 219 14 165 15 164 19 167 "/></svg>