<svg width="256" height="256" xmlns="http://www.w3.org/2000/svg" fill-opacity="0" stroke="black" stroke-width="3" ><path d="M135 36 149 38 164 41 175 48 186 56 199 71 202 75 208 86 211 92 215 102 216 107 217 115 217 144 213 163 210 170 204 181 200 188 194 196 189 202 182 207 169 216 154 225 148 227 134 228 119 228 111 227 102 225 97 223 80 216 78 215 69 208 55 193 52 189 48 183 42 171 39 162 36 147 35 139 35 137 36 124 40 97 45 90 70 58 82 48 102 38 116 36 135 36 "/><path d="M39 22 45 24 49 26 52 29 54 32 57 37 59 42 60 46 61 52 61 56 56 65 43 79 42 80 38 83 33 83 26 81 14 73 11 68 9 64 8 61 6 54 7 49 8 45 11 37 16 30 24 22 39 22 "/><path d="M5 179 8 180 10 181 12 183 14 187 16 194 18 205 18 207 13 220 11 224 6 233 3 236 0 238 0 181 3 179 5 179 "/></svg>