<svg width="256" height="256" xmlns="http://www.w3.org/2000/svg" fill-opacity="0" stroke="black" stroke-width="3" ><path d="M245 0 246 4 249 88 249 249 224 249 63 198 60 196 54 191 53 190 51 187 49 183 45 170 32 127 31 120 31 110 32 103 34 98 36 94 39 89 41 86 71 45 151 0 245 0 "/><path d="M65 0 68 3 68 4 53 40 30 62 27 63 0 61 0 2 5 0 65 0 "/><path d="M117 216 120 218 128 234 131 247 131 249 46 249 45 230 45 229 54 223 57 222 61 221 66 220 111 216 117 216 "/><path d="M8 130 9 131 17 158 21 175 21 204 18 217 16 222 12 230 4 241 0 245 0 134 6 129 8 130 "/><path d="M33 73 27 126 25 128 22 130 20 131 17 131 15 129 10 116 12 99 13 93 15 89 18 84 23 77 27 74 33 72 33 73 "/></svg>