<svg width="256" height="256" xmlns="http://www.w3.org/2000/svg" fill-opacity="0" stroke="black" stroke-width="3" ><path d="M153 27 165 33 175 41 189 53 203 67 205 71 210 84 213 92 218 109 219 114 220 135 214 168 212 176 208 182 203 189 198 194 189 201 184 204 171 207 165 207 155 206 90 199 85 198 81 196 74 191 68 185 0 106 0 90 34 39 138 27 153 27 "/><path d="M249 249 190 249 194 243 198 239 201 237 222 225 230 223 249 222 249 249 "/><path d="M249 173 237 178 236 178 224 169 223 168 223 164 225 153 230 132 241 117 246 112 249 110 249 173 "/></svg>