<svg width="256" height="256" xmlns="http://www.w3.org/2000/svg" fill-opacity="0" stroke="black" stroke-width="3" ><path d="M158 3 162 4 181 13 183 14 190 18 196 22 198 24 213 40 218 46 228 67 229 70 229 81 228 96 227 100 224 110 223 112 220 117 214 123 206 129 182 143 178 145 164 151 119 157 114 157 104 155 97 153 93 151 63 127 52 108 51 103 49 87 49 84 51 67 52 62 57 51 65 40 82 18 85 15 90 11 93 9 98 6 104 3 158 3 "/><path d="M249 164 249 224 195 241 190 241 185 239 178 233 177 232 169 222 168 220 168 212 169 203 170 200 172 197 175 194 241 166 247 164 249 164 "/><path d="M70 0 70 1 34 57 26 63 20 66 16 67 9 67 4 66 0 64 0 38 24 1 25 0 70 0 "/><path d="M2 95 4 96 7 98 11 101 14 105 22 118 24 122 24 132 15 170 14 174 13 177 6 188 4 190 0 190 0 95 2 95 "/><path d="M249 0 249 51 242 51 233 47 229 43 221 28 220 26 215 12 215 9 217 1 218 0 249 0 "/></svg>