<svg width="256" height="256" xmlns="http://www.w3.org/2000/svg" fill-opacity="0" stroke="black" stroke-width="3" ><path d="M124 50 136 52 151 55 177 81 191 100 193 103 195 107 197 114 198 120 198 134 196 151 195 157 191 167 190 169 187 173 185 175 167 192 159 196 148 200 134 203 105 203 96 201 82 194 78 191 62 177 46 154 40 137 37 125 36 118 36 108 41 86 44 80 48 75 54 69 76 56 80 54 85 52 120 50 124 50 "/><path d="M249 116 247 120 231 111 220 98 219 96 216 89 215 72 215 71 216 64 218 58 226 37 228 33 231 29 249 14 249 116 "/></svg>