<svg width="256" height="256" xmlns="http://www.w3.org/2000/svg" fill-opacity="0" stroke="black" stroke-width="3" ><path d="M125 50 139 51 145 52 150 53 160 56 163 57 183 77 189 85 193 91 194 93 199 108 201 151 201 152 194 166 187 178 184 183 136 249 4 249 1 243 0 238 0 161 76 73 82 67 97 57 101 55 111 52 115 51 121 50 125 50 "/><path d="M249 47 249 161 248 161 218 151 216 150 213 148 209 144 209 138 211 100 213 85 215 75 216 72 218 67 220 63 232 44 235 42 249 47 "/><path d="M85 0 83 4 81 6 73 12 70 13 46 18 31 18 21 14 15 10 14 9 12 6 12 4 14 2 24 0 85 0 "/></svg>