<svg width="256" height="256" xmlns="http://www.w3.org/2000/svg" fill-opacity="0" stroke="black" stroke-width="3" ><path d="M108 44 116 46 120 48 129 53 145 64 153 72 160 80 169 91 185 124 184 136 173 159 172 161 166 169 163 172 118 212 114 212 108 209 105 206 52 150 46 141 42 133 42 129 48 105 54 89 68 67 94 46 97 44 108 44 "/><path d="M249 0 249 29 242 44 241 45 234 50 207 62 171 62 109 30 108 29 112 0 249 0 "/><path d="M14 149 25 153 27 154 37 160 41 164 48 185 47 196 45 198 30 209 4 227 2 227 0 226 0 149 14 149 "/><path d="M7 34 18 35 23 37 25 38 26 39 32 52 34 58 34 64 32 73 30 77 27 80 24 82 16 86 2 87 0 86 0 35 1 34 7 34 "/></svg>