<svg width="256" height="256" xmlns="http://www.w3.org/2000/svg" fill-opacity="0" stroke="black" stroke-width="3" ><path d="M119 30 129 31 137 33 144 35 164 44 199 63 200 65 212 94 213 97 215 104 216 109 219 127 219 130 218 144 217 147 203 175 194 190 189 195 172 210 168 213 150 220 142 222 122 224 112 224 105 223 101 222 90 218 75 211 59 200 50 192 49 191 41 182 37 177 35 174 29 162 25 149 24 144 22 133 22 122 23 113 25 102 29 90 32 84 40 72 51 60 54 57 63 50 67 47 70 45 75 42 84 37 101 31 117 30 119 30 "/><path d="M228 0 228 3 223 12 220 17 214 22 212 23 203 26 185 30 180 30 160 25 147 20 116 5 113 1 113 0 228 0 "/></svg>