<svg width="256" height="256" xmlns="http://www.w3.org/2000/svg" fill-opacity="0" stroke="black" stroke-width="3" ><path d="M176 0 195 109 198 129 198 131 196 138 194 144 191 152 188 158 186 161 183 165 176 173 174 175 158 189 146 193 139 195 129 197 102 197 92 193 74 183 70 179 51 150 42 135 35 121 29 108 29 94 41 26 42 22 43 20 47 14 58 1 59 0 176 0 "/><path d="M4 132 20 148 34 166 40 175 49 191 50 193 52 201 53 207 54 215 54 230 53 238 51 245 50 248 49 249 0 249 0 129 4 132 "/><path d="M249 156 248 156 244 155 240 153 237 151 215 129 214 113 214 98 215 83 217 70 218 68 231 47 232 46 236 43 239 41 249 37 249 156 "/></svg>