<svg width="256" height="256" xmlns="http://www.w3.org/2000/svg" fill-opacity="0" stroke="black" stroke-width="3" ><path d="M132 24 140 25 146 26 155 28 159 29 168 33 176 37 192 47 195 49 202 55 213 66 218 74 222 85 228 104 225 138 222 147 216 161 215 163 212 168 209 172 204 177 192 187 178 198 164 208 162 209 147 214 132 218 126 219 106 217 103 216 80 208 53 194 39 180 32 168 29 162 25 148 24 139 24 126 25 120 29 111 55 64 63 51 68 46 83 37 100 29 114 25 122 24 132 24 "/><path d="M143 227 151 231 156 236 162 244 163 246 163 249 100 249 103 242 107 236 109 234 114 231 116 230 128 227 143 227 "/><path d="M5 0 9 1 11 2 18 7 19 8 22 12 23 14 24 24 24 27 23 30 15 40 13 41 10 42 2 43 0 43 0 0 5 0 "/></svg>