<svg width="256" height="256" xmlns="http://www.w3.org/2000/svg" fill-opacity="0" stroke="black" stroke-width="3" ><path d="M249 14 249 154 246 173 240 181 239 182 237 183 218 191 217 191 215 189 160 75 160 73 161 72 242 16 246 14 249 14 "/><path d="M15 128 30 130 39 132 43 134 53 143 56 146 58 150 60 155 60 156 59 163 58 166 56 170 46 184 43 187 35 193 24 199 19 199 12 195 0 187 0 132 1 131 7 128 15 128 "/><path d="M131 194 133 197 136 209 135 215 133 223 123 243 119 248 118 249 116 249 102 248 98 246 96 242 122 197 125 193 127 191 131 194 "/></svg>