<svg width="256" height="256" xmlns="http://www.w3.org/2000/svg" fill-opacity="0" stroke="black" stroke-width="3" ><path d="M139 52 143 53 149 55 168 63 186 75 195 86 204 101 204 129 202 146 198 159 195 165 189 171 173 183 168 186 158 191 142 198 136 200 120 202 110 202 96 198 84 193 82 192 71 184 61 174 57 168 43 136 42 133 42 131 44 125 45 123 62 99 74 83 75 82 107 55 110 54 120 52 139 52 "/><path d="M74 11 93 29 94 30 95 33 95 35 94 38 81 60 79 63 64 84 62 86 52 95 40 101 24 104 15 101 7 93 0 84 0 39 19 22 21 21 73 11 74 11 "/></svg>