<svg width="256" height="256" xmlns="http://www.w3.org/2000/svg" fill-opacity="0" stroke="black" stroke-width="3" ><path d="M109 20 122 23 125 24 135 29 153 40 160 46 164 50 181 70 190 84 194 92 196 99 197 103 200 122 200 124 199 133 198 141 196 152 192 162 182 179 180 181 170 189 164 193 157 197 155 198 147 200 125 200 105 177 89 154 75 132 58 101 55 95 53 87 53 76 54 72 57 63 60 56 62 52 66 45 72 39 83 30 88 27 90 26 102 21 108 20 109 20 "/><path d="M24 122 28 123 34 127 95 177 106 188 107 190 108 197 108 205 106 212 105 215 103 219 95 232 92 236 89 239 84 242 82 243 77 245 67 245 61 242 12 202 6 197 5 196 0 189 0 144 3 127 4 126 10 123 19 122 24 122 "/><path d="M96 0 96 1 93 21 91 21 45 14 19 10 17 5 16 2 16 0 96 0 "/></svg>