<svg width="256" height="256" xmlns="http://www.w3.org/2000/svg" fill-opacity="0" stroke="black" stroke-width="3" ><path d="M145 38 152 39 160 42 165 44 174 49 183 56 198 70 207 82 211 94 216 118 216 125 215 134 201 176 200 178 196 183 187 191 181 195 167 201 157 205 153 206 141 207 139 207 132 206 120 203 100 197 95 195 74 183 69 179 66 175 60 161 53 144 52 141 50 126 50 105 52 96 59 82 81 58 97 46 99 45 104 43 124 38 132 37 145 38 "/><path d="M97 224 111 226 135 235 141 238 145 242 150 249 51 249 53 246 56 242 62 236 70 229 74 227 84 224 97 224 "/><path d="M240 117 244 118 247 119 249 121 249 194 221 197 217 197 215 196 214 195 213 192 213 189 214 173 225 140 234 121 237 118 239 117 240 117 "/></svg>