<svg width="256" height="256" xmlns="http://www.w3.org/2000/svg" fill-opacity="0" stroke="black" stroke-width="3" ><path d="M78 71 85 72 106 77 111 79 119 84 122 86 133 94 145 106 151 114 154 120 156 128 156 142 154 150 152 157 149 164 96 246 93 249 22 249 17 244 9 232 3 220 3 132 4 128 13 108 17 100 25 89 32 83 38 79 44 76 51 73 54 72 59 71 78 71 "/><path d="M183 162 200 163 213 166 229 173 233 175 244 183 247 188 249 204 249 249 139 249 131 240 127 232 127 211 129 206 132 200 154 178 181 162 183 162 "/><path d="M249 0 249 46 246 45 234 35 233 34 217 5 215 0 249 0 "/></svg>