<svg width="256" height="256" xmlns="http://www.w3.org/2000/svg" fill-opacity="0" stroke="black" stroke-width="3" ><path d="M156 58 167 62 194 83 196 91 196 117 189 154 188 156 184 162 182 164 179 166 171 171 154 180 152 181 149 182 134 184 131 184 116 182 106 180 99 178 89 174 78 166 67 155 65 152 62 146 61 143 59 132 59 112 61 104 64 102 89 88 118 73 122 71 142 62 151 59 155 58 156 58 "/><path d="M216 179 225 188 248 229 249 232 249 249 163 249 160 240 160 239 163 223 169 211 172 206 180 195 181 194 204 182 215 179 216 179 "/><path d="M221 66 226 67 233 70 249 89 249 165 247 165 244 164 239 162 229 152 213 122 212 120 211 115 210 108 210 96 211 73 212 71 215 67 219 66 221 66 "/><path d="M2 99 15 103 23 108 30 115 30 142 27 147 16 165 14 168 11 172 9 174 6 175 1 176 0 176 0 99 2 99 "/><path d="M249 0 249 8 246 11 240 16 231 22 217 22 211 20 208 18 201 12 199 9 198 7 197 4 197 0 249 0 "/><path d="M55 235 67 237 82 243 87 247 89 249 7 249 15 244 23 240 26 239 36 237 53 235 55 235 "/></svg>