<svg width="256" height="256" xmlns="http://www.w3.org/2000/svg" fill-opacity="0" stroke="black" stroke-width="3" ><path d="M146 89 168 138 171 150 171 153 148 202 145 205 142 207 138 209 126 212 124 212 108 204 97 198 73 182 72 181 55 155 55 150 80 99 82 96 85 93 127 86 146 89 "/><path d="M245 111 246 112 247 114 249 127 249 177 248 177 242 175 240 174 237 172 234 168 227 156 225 151 226 120 227 118 229 116 233 114 243 110 245 111 "/><path d="M188 220 192 224 200 235 196 241 194 243 182 249 160 249 157 246 156 244 156 242 157 238 159 236 178 222 181 220 188 220 "/></svg>