<svg width="256" height="256" xmlns="http://www.w3.org/2000/svg" fill-opacity="0" stroke="black" stroke-width="3" ><path d="M132 45 153 51 156 53 160 57 216 126 219 132 220 135 221 143 221 156 217 168 215 172 203 189 199 192 195 194 115 216 113 216 59 166 54 161 52 158 48 150 46 144 46 108 48 104 57 90 71 71 72 70 107 51 115 47 118 46 123 45 132 45 "/><path d="M26 47 31 49 37 53 38 54 45 62 48 67 49 70 50 76 49 87 48 89 44 96 40 100 28 103 24 103 15 102 7 98 3 95 0 91 0 57 8 51 15 48 19 47 26 47 "/><path d="M76 16 81 17 87 21 93 27 95 32 96 35 97 40 97 49 95 52 91 56 86 60 74 65 71 66 69 66 66 65 56 61 48 53 46 50 44 45 44 40 46 34 51 27 55 23 61 19 65 17 69 16 76 16 "/><path d="M73 201 76 202 78 203 83 207 88 212 91 216 92 220 90 232 89 236 88 239 84 249 41 249 40 248 44 237 56 215 64 203 66 201 73 201 "/></svg>