<svg width="256" height="256" xmlns="http://www.w3.org/2000/svg" fill-opacity="0" stroke="black" stroke-width="3" ><path d="M60 44 135 60 166 70 193 82 196 84 234 116 235 117 249 132 249 249 232 249 91 204 69 193 52 181 20 155 11 142 7 133 4 126 3 122 3 101 11 69 12 67 17 59 19 57 28 52 55 44 60 44 "/><path d="M173 0 174 1 174 5 173 15 172 24 164 34 153 41 143 45 121 51 106 47 104 46 97 37 79 1 79 0 173 0 "/><path d="M249 15 249 89 248 91 245 93 239 87 230 72 224 61 223 59 222 53 226 33 231 25 239 17 241 16 246 15 249 15 "/></svg>