<svg width="256" height="256" xmlns="http://www.w3.org/2000/svg" fill-opacity="0" stroke="black" stroke-width="3" ><path d="M105 24 127 26 151 34 193 64 201 70 204 74 208 82 210 87 214 99 215 104 216 111 216 120 192 182 189 187 182 196 181 197 178 199 141 223 139 224 135 225 130 226 129 226 121 225 117 223 87 206 79 201 71 195 61 187 39 166 31 155 20 138 19 136 15 127 14 124 14 117 25 80 41 60 59 42 77 27 81 25 86 24 105 24 "/><path d="M27 211 58 213 60 214 67 218 76 224 85 233 91 243 91 249 0 249 0 227 7 220 25 211 27 211 "/></svg>