<svg width="256" height="256" xmlns="http://www.w3.org/2000/svg" fill-opacity="0" stroke="black" stroke-width="3" ><path d="M84 44 150 48 163 50 170 52 174 54 177 56 180 59 196 77 198 80 204 93 206 98 212 114 214 124 213 133 208 145 206 149 192 168 187 174 174 189 158 206 154 210 147 215 141 218 132 221 120 223 100 223 83 219 73 215 70 213 66 210 56 200 47 188 29 162 23 153 19 143 18 139 18 123 20 112 21 109 23 104 27 96 37 78 49 59 54 55 58 52 61 50 68 47 78 44 84 44 "/><path d="M15 190 16 191 18 195 22 204 23 211 23 228 22 237 19 249 0 249 0 195 3 179 15 190 "/><path d="M249 0 249 43 248 43 242 42 227 32 209 17 208 16 208 14 213 0 249 0 "/><path d="M235 218 249 224 249 249 209 249 207 244 207 238 209 228 213 222 217 219 219 218 235 218 "/></svg>