<svg width="256" height="256" xmlns="http://www.w3.org/2000/svg" fill-opacity="0" stroke="black" stroke-width="3" ><path d="M164 53 168 56 174 62 182 72 189 83 192 88 206 116 209 127 210 131 211 137 211 144 210 153 208 158 204 166 199 174 194 179 178 191 173 194 171 195 170 195 86 182 84 181 77 177 66 153 66 152 68 145 132 67 144 60 157 55 163 53 164 53 "/><path d="M116 0 134 10 137 12 138 13 138 14 136 19 127 26 124 28 118 31 113 33 89 41 85 41 78 40 67 37 55 31 54 30 50 24 47 18 47 2 49 0 116 0 "/><path d="M241 186 246 187 249 188 249 209 248 210 236 217 155 249 147 249 148 246 150 242 157 231 161 226 175 213 187 204 193 200 200 196 204 194 231 186 241 186 "/><path d="M249 1 249 28 241 55 239 56 237 56 226 52 224 51 210 41 204 35 201 31 201 27 202 24 204 20 208 16 214 13 247 1 249 1 "/></svg>