<svg width="256" height="256" xmlns="http://www.w3.org/2000/svg" fill-opacity="0" stroke="black" stroke-width="3" ><path d="M158 0 204 69 212 97 215 112 215 114 213 124 206 145 204 149 201 154 191 163 144 189 25 196 24 196 22 195 13 189 9 185 7 182 6 180 3 168 0 142 0 49 81 0 158 0 "/><path d="M249 243 241 249 199 249 193 246 184 239 183 238 180 229 180 216 181 210 185 202 233 118 249 102 249 243 "/><path d="M249 0 249 10 248 15 239 53 234 57 222 57 218 54 202 39 184 21 178 11 175 5 175 4 177 1 178 0 249 0 "/><path d="M58 228 71 232 76 237 80 243 80 249 22 249 29 236 31 234 35 231 40 228 58 228 "/></svg>