<svg width="256" height="256" xmlns="http://www.w3.org/2000/svg" fill-opacity="0" stroke="black" stroke-width="3" ><path d="M109 49 115 50 137 64 162 89 173 101 179 108 181 111 182 113 184 125 184 131 183 146 178 180 177 183 174 184 170 184 120 181 96 179 84 175 81 173 74 167 66 159 61 153 50 133 44 120 44 115 46 101 48 94 59 70 79 56 86 52 91 50 103 49 109 49 "/><path d="M132 190 150 195 156 197 160 199 163 201 168 206 173 216 173 217 172 221 170 228 169 231 166 235 165 236 142 249 92 249 86 239 84 233 85 216 87 214 121 192 123 191 126 190 132 190 "/><path d="M1 67 6 74 7 77 10 87 15 105 15 117 14 121 8 140 7 143 0 146 0 67 1 67 "/></svg>