<svg width="256" height="256" xmlns="http://www.w3.org/2000/svg" fill-opacity="0" stroke="black" stroke-width="3" ><path d="M148 41 151 42 159 45 166 49 171 53 180 61 184 65 196 81 202 91 205 99 206 102 207 109 208 122 208 142 206 150 201 160 197 166 183 184 177 191 174 193 169 195 165 196 143 201 130 201 122 199 115 197 83 181 61 168 43 157 38 153 33 140 30 131 29 125 29 115 30 109 34 99 35 97 41 86 43 83 56 69 63 65 65 64 125 38 148 41 "/><path d="M249 243 240 239 238 238 233 234 228 229 226 225 217 199 216 194 217 189 223 168 225 162 229 154 236 143 246 131 249 128 249 243 "/><path d="M203 230 207 232 223 249 161 249 144 240 141 237 136 229 136 220 139 215 140 214 203 230 "/></svg>