<svg width="256" height="256" xmlns="http://www.w3.org/2000/svg" fill-opacity="0" stroke="black" stroke-width="3" ><path d="M102 37 150 58 168 68 186 93 188 96 193 104 194 106 197 147 197 149 195 152 192 156 170 172 162 177 153 182 146 185 140 186 124 186 111 184 97 178 91 175 88 173 83 169 79 165 69 154 65 147 61 136 59 128 56 109 56 106 57 102 70 61 71 59 83 47 86 45 91 42 101 37 102 37 "/><path d="M21 129 30 133 34 135 48 144 49 145 56 159 56 160 54 173 42 222 38 226 21 236 8 236 0 232 0 132 1 131 3 130 6 129 21 129 "/><path d="M14 32 22 33 26 34 32 36 34 37 51 56 52 58 52 68 48 80 40 92 37 95 29 100 16 104 12 104 0 103 0 35 5 33 12 32 14 32 "/></svg>