<svg width="256" height="256" xmlns="http://www.w3.org/2000/svg" fill-opacity="0" stroke="black" stroke-width="3" ><path d="M130 28 153 30 158 31 161 32 177 41 189 48 190 49 190 54 183 167 182 168 179 170 142 194 140 195 117 195 101 193 92 190 85 187 59 166 57 164 55 161 52 156 48 148 45 139 43 132 43 104 44 91 45 86 46 83 52 71 57 66 66 58 80 46 90 39 93 37 98 34 114 30 121 29 129 28 130 28 "/><path d="M249 115 237 127 230 131 229 131 215 127 212 122 210 116 209 110 209 105 210 101 217 91 221 86 233 74 234 74 238 77 248 96 249 100 249 115 "/></svg>