<svg width="256" height="256" xmlns="http://www.w3.org/2000/svg" fill-opacity="0" stroke="black" stroke-width="3" ><path d="M118 42 135 46 139 47 152 53 160 62 208 123 208 139 206 151 203 157 198 163 185 177 183 179 180 181 164 189 159 191 139 196 122 195 94 183 91 181 53 146 52 145 47 135 47 124 48 110 56 82 75 52 79 49 117 42 118 42 "/><path d="M233 20 242 21 249 24 249 109 240 118 225 117 219 113 197 96 193 89 185 60 185 51 187 48 189 46 230 20 233 20 "/><path d="M243 182 249 193 249 247 243 249 228 249 227 248 224 237 219 218 219 216 224 198 227 195 241 182 243 182 "/></svg>