<svg width="256" height="256" xmlns="http://www.w3.org/2000/svg" fill-opacity="0" stroke="black" stroke-width="3" ><path d="M195 39 201 44 203 46 204 48 206 67 206 70 204 160 202 179 201 182 199 184 150 201 131 207 127 208 88 204 79 202 65 198 52 185 51 183 51 181 103 71 110 65 116 62 139 51 154 44 163 40 173 38 195 39 "/><path d="M7 96 24 100 28 101 39 111 40 115 40 151 39 158 34 181 32 187 29 192 25 194 24 194 0 167 0 96 7 96 "/><path d="M51 0 55 3 60 10 66 21 67 23 67 32 66 34 49 56 46 59 39 63 37 64 20 70 17 71 8 72 6 72 2 70 1 69 0 67 0 21 1 12 13 3 19 0 51 0 "/></svg>