<svg width="256" height="256" xmlns="http://www.w3.org/2000/svg" fill-opacity="0" stroke="black" stroke-width="3" ><path d="M113 44 133 45 160 50 166 53 177 63 179 65 191 82 198 97 201 104 202 111 207 163 207 166 105 225 99 226 97 226 75 215 62 206 61 205 59 202 55 195 53 191 48 176 47 170 47 157 53 99 85 66 87 64 111 44 113 44 "/><path d="M44 12 52 13 54 14 68 24 77 33 77 35 70 49 64 60 61 65 56 71 55 72 52 74 47 74 43 73 0 56 0 27 3 23 10 15 12 14 37 12 44 12 "/><path d="M1 77 3 78 8 83 17 93 24 106 26 111 29 128 29 130 28 135 26 141 10 157 2 161 1 161 0 155 0 77 1 77 "/></svg>