<svg width="256" height="256" xmlns="http://www.w3.org/2000/svg" fill-opacity="0" stroke="black" stroke-width="3" ><path d="M156 8 169 10 179 12 194 17 198 20 227 62 231 88 233 107 234 117 234 121 228 140 227 143 222 152 219 157 217 160 197 179 191 184 179 192 172 196 163 199 159 200 149 201 142 201 133 200 127 199 117 196 110 193 98 186 84 176 80 172 70 161 65 155 61 149 52 134 49 126 47 120 46 115 46 100 48 90 51 80 53 74 55 70 67 51 73 42 93 28 96 26 101 23 103 22 114 17 129 12 136 10 149 8 156 8 "/><path d="M20 82 22 83 31 91 35 96 36 98 38 111 38 119 37 126 25 138 15 142 12 143 10 143 5 141 3 139 0 135 0 84 6 82 20 82 "/><path d="M195 225 207 237 213 244 215 247 215 249 124 249 124 248 128 246 194 225 195 225 "/><path d="M7 7 9 11 11 17 13 28 12 38 6 59 4 65 1 71 0 72 0 0 7 7 "/></svg>