<svg width="256" height="256" xmlns="http://www.w3.org/2000/svg" fill-opacity="0" stroke="black" stroke-width="3" ><path d="M159 0 179 70 181 91 179 95 138 155 124 165 121 167 99 177 77 177 64 173 58 171 54 169 48 164 47 163 44 158 43 156 40 147 36 131 35 111 47 50 76 0 159 0 "/><path d="M24 0 39 45 39 49 37 77 35 87 34 89 16 124 14 126 3 131 0 131 0 0 24 0 "/><path d="M130 189 139 193 143 195 144 196 147 200 149 203 152 209 153 218 153 228 151 232 147 239 141 243 123 243 114 238 102 231 99 229 96 223 94 218 93 213 93 212 94 208 96 204 108 194 118 189 130 189 "/><path d="M235 137 236 138 236 140 225 190 192 237 186 239 181 239 171 233 164 224 161 217 159 211 159 196 160 193 165 181 168 177 178 166 181 163 185 160 227 137 235 137 "/><path d="M27 169 34 173 37 175 44 182 54 195 53 201 51 203 42 211 37 215 29 219 22 220 20 220 13 219 9 217 3 213 2 211 0 200 0 183 2 177 4 175 7 173 14 170 18 169 27 169 "/><path d="M249 0 249 51 247 51 238 49 228 37 224 28 222 21 222 5 225 0 249 0 "/><path d="M12 131 15 133 19 136 30 146 31 148 32 152 32 154 30 157 28 159 13 166 4 166 0 165 0 138 11 131 12 131 "/></svg>