<svg width="256" height="256" xmlns="http://www.w3.org/2000/svg" fill-opacity="0" stroke="black" stroke-width="3" ><path d="M152 58 165 61 173 64 178 67 188 75 189 76 191 79 192 81 197 95 192 111 183 126 163 151 150 163 141 169 102 182 101 180 94 159 90 143 87 123 116 76 128 61 129 60 134 56 152 58 "/><path d="M47 17 49 18 62 38 85 83 85 87 76 99 66 111 63 114 56 119 50 122 39 126 35 127 17 128 8 128 1 125 0 124 0 18 6 17 47 17 "/><path d="M57 153 64 155 66 156 69 159 70 161 73 169 75 175 80 192 80 195 67 207 65 208 59 209 41 209 31 208 11 202 4 192 6 188 12 178 21 169 28 163 35 159 50 153 57 153 "/></svg>