<svg width="256" height="256" xmlns="http://www.w3.org/2000/svg" fill-opacity="0" stroke="black" stroke-width="3" ><path d="M138 54 139 55 185 104 188 109 190 117 190 135 189 140 188 144 186 149 184 153 168 174 166 176 161 178 145 180 128 180 116 178 106 176 99 174 95 172 85 166 79 162 71 156 65 143 62 128 62 120 65 108 67 103 73 90 79 81 81 79 90 74 137 54 138 54 "/><path d="M82 187 149 196 152 197 154 199 159 240 159 242 155 249 49 249 48 246 48 244 52 205 53 202 61 194 72 187 82 187 "/><path d="M244 37 243 40 236 56 231 65 228 69 225 72 203 84 200 84 184 80 169 68 152 49 149 43 149 38 166 15 172 7 179 0 219 0 229 3 235 9 236 11 244 35 244 37 "/><path d="M146 0 140 7 139 8 132 13 124 17 120 18 106 20 99 20 85 19 82 18 80 17 68 10 58 0 146 0 "/></svg>