<svg width="256" height="256" xmlns="http://www.w3.org/2000/svg" fill-opacity="0" stroke="black" stroke-width="3" ><path d="M122 35 131 38 166 53 175 62 179 86 179 89 178 100 177 107 175 119 170 133 160 156 159 157 137 173 122 179 85 177 81 176 78 175 63 169 58 166 57 165 50 157 40 141 38 137 36 129 36 128 38 113 43 99 45 95 67 63 70 59 78 51 100 35 122 35 "/><path d="M25 0 30 1 38 11 39 13 42 23 42 28 40 46 37 59 31 67 11 89 7 92 1 96 0 96 0 0 25 0 "/><path d="M223 39 228 41 234 45 241 51 243 55 245 63 245 67 241 78 240 80 236 85 230 89 226 91 214 91 211 89 206 84 201 78 200 76 200 72 201 58 203 54 210 45 211 44 215 41 219 39 223 39 "/><path d="M243 197 249 199 249 249 213 249 212 247 210 238 209 230 209 226 215 212 217 210 228 200 232 199 242 197 243 197 "/></svg>