<svg width="256" height="256" xmlns="http://www.w3.org/2000/svg" fill-opacity="0" stroke="black" stroke-width="3" ><path d="M106 34 129 35 137 37 142 39 158 51 163 56 166 62 182 100 186 110 190 123 194 142 194 144 193 160 192 164 190 171 188 177 183 187 175 198 172 202 168 207 156 219 150 222 147 223 139 225 22 249 0 249 0 92 71 46 88 36 91 35 95 34 106 34 "/><path d="M204 14 209 21 249 143 249 171 230 153 229 152 223 145 216 134 213 129 210 123 201 104 198 97 194 85 192 78 191 73 189 50 189 46 193 30 201 16 203 14 204 14 "/></svg>