<svg width="256" height="256" xmlns="http://www.w3.org/2000/svg" fill-opacity="0" stroke="black" stroke-width="3" ><path d="M97 43 108 45 125 51 130 53 145 61 157 70 169 80 179 89 181 91 193 105 199 120 201 131 201 138 197 165 195 174 193 179 191 183 189 186 171 209 168 212 159 218 157 218 130 213 125 212 101 206 56 188 50 182 47 176 45 168 36 124 35 115 35 113 39 91 40 87 42 81 44 76 53 63 66 52 71 49 73 48 88 43 97 43 "/><path d="M249 0 246 5 236 20 217 48 208 50 182 49 177 48 155 42 148 37 143 26 142 22 141 8 141 0 249 0 "/><path d="M249 131 246 131 241 129 237 127 235 125 230 117 227 107 226 103 223 88 223 78 224 59 226 56 235 46 240 42 249 37 249 131 "/></svg>