<svg width="256" height="256" xmlns="http://www.w3.org/2000/svg" fill-opacity="0" stroke="black" stroke-width="3" ><path d="M141 59 157 61 198 82 202 86 205 90 208 95 216 111 220 124 220 140 216 146 215 147 86 215 76 215 67 214 64 212 49 198 47 196 35 174 31 162 29 150 29 143 31 128 32 123 37 115 44 105 53 93 74 71 89 63 91 62 110 59 141 59 "/><path d="M208 0 220 3 222 5 229 14 236 31 236 45 234 49 230 56 224 64 223 65 220 67 213 70 198 74 197 74 178 68 166 55 162 50 150 17 148 7 148 4 150 2 158 0 208 0 "/><path d="M101 0 104 12 86 35 74 49 71 50 67 50 60 49 33 44 25 41 0 16 0 12 16 0 101 0 "/><path d="M230 188 239 189 247 190 249 191 249 249 194 249 194 235 195 228 196 224 197 221 202 215 229 188 230 188 "/><path d="M249 182 247 182 240 181 235 180 230 176 228 173 226 166 226 157 227 145 228 137 229 134 231 130 237 121 249 109 249 182 "/></svg>