<svg width="256" height="256" xmlns="http://www.w3.org/2000/svg" fill-opacity="0" stroke="black" stroke-width="3" ><path d="M103 43 137 51 144 53 151 56 180 75 188 81 202 98 206 107 207 112 208 120 208 137 198 178 197 180 196 181 193 183 123 216 50 171 49 170 42 161 40 158 37 153 35 145 34 135 33 114 33 112 35 91 51 68 57 61 86 47 96 44 101 43 103 43 "/><path d="M249 0 249 69 242 74 240 75 229 78 218 78 208 77 201 75 198 74 194 72 147 45 146 44 139 36 137 33 134 19 134 18 135 0 249 0 "/><path d="M34 198 75 200 94 209 98 211 100 214 102 225 102 230 90 243 72 249 16 249 13 222 18 201 19 198 34 198 "/></svg>