<svg width="256" height="256" xmlns="http://www.w3.org/2000/svg" fill-opacity="0" stroke="black" stroke-width="3" ><path d="M139 28 150 30 152 31 171 42 178 48 180 50 193 65 198 72 202 80 214 110 214 114 210 140 180 190 179 191 169 199 140 222 134 224 123 225 116 225 103 223 86 217 84 216 62 203 56 199 49 193 48 192 43 185 39 178 32 165 29 151 27 141 26 131 26 128 28 106 32 94 33 92 66 52 67 51 70 49 107 33 138 28 139 28 "/><path d="M249 249 237 249 210 216 208 211 205 200 205 185 207 179 214 163 232 144 244 136 249 133 249 249 "/><path d="M249 0 249 103 225 90 222 87 216 56 214 41 214 37 219 0 249 0 "/></svg>