<svg width="256" height="256" xmlns="http://www.w3.org/2000/svg" fill-opacity="0" stroke="black" stroke-width="3" ><path d="M142 30 160 34 171 40 197 61 204 68 208 73 213 80 217 90 223 114 223 116 216 143 215 145 210 154 194 172 193 173 185 179 167 191 163 193 152 193 123 191 107 187 87 175 24 123 24 122 102 39 108 35 117 32 139 30 142 30 "/><path d="M248 164 249 165 249 215 233 216 232 216 229 215 216 205 206 193 202 187 202 183 212 168 217 166 220 165 237 162 248 164 "/><path d="M60 0 65 2 69 6 73 12 73 25 71 35 70 37 58 38 53 38 50 37 42 32 35 25 33 21 27 3 27 0 60 0 "/><path d="M2 35 5 36 20 65 20 67 18 75 15 83 12 86 5 90 3 91 0 91 0 35 2 35 "/></svg>