<svg width="256" height="256" xmlns="http://www.w3.org/2000/svg" fill-opacity="0" stroke="black" stroke-width="3" ><path d="M140 55 155 61 173 73 188 87 190 89 201 103 205 109 207 114 208 120 208 129 207 136 199 163 198 165 182 184 167 196 164 198 162 199 159 200 137 201 136 201 90 190 82 186 76 181 64 163 59 151 58 148 59 136 60 127 62 116 70 95 72 91 76 86 84 78 105 66 121 57 125 55 140 55 "/><path d="M238 0 239 1 241 9 246 32 249 48 249 88 244 93 237 96 234 97 227 98 216 98 211 96 209 95 182 58 154 4 158 0 238 0 "/><path d="M11 49 23 53 35 59 37 61 45 71 49 82 50 87 49 106 47 123 43 136 41 140 29 155 25 159 20 162 4 165 0 165 0 50 2 49 11 49 "/></svg>