<svg width="256" height="256" xmlns="http://www.w3.org/2000/svg" fill-opacity="0" stroke="black" stroke-width="3" ><path d="M134 3 149 4 158 6 165 8 169 10 202 28 210 34 211 35 217 42 221 49 226 59 234 76 238 85 239 88 240 93 240 98 222 171 214 185 212 188 197 203 190 208 182 212 177 214 171 216 151 219 141 220 115 222 4 228 0 228 0 54 111 5 119 3 134 3 "/><path d="M158 221 166 224 167 225 168 228 169 237 165 249 77 249 77 247 78 246 99 233 120 224 128 222 157 221 158 221 "/><path d="M18 0 18 10 16 18 12 28 11 30 9 33 6 37 2 42 1 43 0 43 0 0 18 0 "/></svg>