<svg width="256" height="256" xmlns="http://www.w3.org/2000/svg" fill-opacity="0" stroke="black" stroke-width="3" ><path d="M148 54 155 58 161 62 176 74 178 76 190 92 191 95 196 111 199 122 200 126 200 131 198 143 188 163 182 173 181 174 171 183 158 191 131 205 120 208 90 200 81 197 59 182 55 177 51 171 42 157 33 140 32 122 32 113 34 106 37 97 43 85 53 74 61 68 83 57 87 56 112 55 143 54 148 54 "/><path d="M249 163 245 161 229 146 225 142 221 137 220 135 217 121 210 88 210 87 219 63 221 58 223 55 244 36 247 34 249 33 249 163 "/><path d="M249 199 249 249 173 249 172 248 184 219 187 214 197 203 240 189 246 188 249 199 "/><path d="M169 0 168 3 166 7 160 15 156 19 150 23 143 27 141 27 103 22 99 21 75 10 73 9 71 5 70 1 71 0 169 0 "/></svg>