<svg width="256" height="256" xmlns="http://www.w3.org/2000/svg" fill-opacity="0" stroke="black" stroke-width="3" ><path d="M117 41 123 42 136 45 151 51 160 55 182 76 185 79 196 103 193 138 188 150 184 157 179 163 173 169 152 178 148 179 117 184 40 132 38 130 34 121 37 112 45 96 77 57 84 50 91 46 107 42 114 41 117 41 "/><path d="M13 158 93 175 100 182 104 189 117 217 118 234 118 235 116 249 0 249 0 166 7 161 12 158 13 158 "/><path d="M3 31 37 33 40 34 46 38 47 39 50 45 52 51 52 55 51 68 23 102 20 105 9 115 7 116 0 119 0 32 1 31 3 31 "/></svg>