<svg width="256" height="256" xmlns="http://www.w3.org/2000/svg" fill-opacity="0" stroke="black" stroke-width="3" ><path d="M132 35 135 36 141 40 152 51 195 106 196 108 199 115 199 126 195 142 192 151 184 163 180 168 177 171 159 183 152 186 137 189 131 190 130 190 119 189 114 187 105 183 91 176 86 172 77 164 63 145 58 132 55 108 55 101 56 81 59 72 61 67 62 65 68 55 70 54 123 33 132 35 "/><path d="M240 0 242 2 249 11 249 17 248 29 243 54 234 68 233 69 227 72 226 72 212 69 208 66 207 65 200 42 193 0 240 0 "/><path d="M249 196 249 233 244 249 214 249 218 217 220 214 228 204 230 202 237 199 247 196 249 196 "/></svg>