<svg width="256" height="256" xmlns="http://www.w3.org/2000/svg" fill-opacity="0" stroke="black" stroke-width="3" ><path d="M146 67 151 68 159 70 164 72 170 75 178 80 181 82 187 89 194 99 197 104 199 111 201 123 201 125 199 148 197 159 193 171 187 180 184 184 183 185 175 192 168 198 162 203 159 205 148 208 129 209 127 209 117 208 73 203 68 202 62 199 61 198 58 194 56 191 54 187 52 182 51 178 49 169 49 164 51 156 57 134 62 119 70 106 82 91 88 85 93 82 101 78 114 73 120 71 130 68 135 67 146 67 "/><path d="M249 209 249 249 206 249 206 248 207 246 214 236 219 229 230 218 235 215 247 209 249 209 "/></svg>