<svg width="256" height="256" xmlns="http://www.w3.org/2000/svg" fill-opacity="0" stroke="black" stroke-width="3" ><path d="M157 25 168 28 177 33 183 37 188 42 191 46 195 52 196 54 197 59 197 63 194 86 188 123 180 142 176 150 174 153 168 160 164 164 154 170 136 180 126 184 119 184 109 180 105 178 97 172 80 159 79 158 69 143 65 136 63 132 63 121 65 109 67 103 69 98 76 85 79 81 93 67 99 62 143 28 145 27 151 25 157 25 "/><path d="M198 196 203 197 206 198 213 205 217 210 224 220 232 232 232 238 230 245 228 249 140 249 147 227 151 219 163 205 164 204 173 197 178 196 198 196 "/><path d="M20 166 48 175 50 176 59 185 72 207 78 221 79 224 81 231 81 232 80 236 74 239 68 239 0 236 0 176 19 166 20 166 "/><path d="M1 43 8 45 20 51 33 60 36 63 42 76 43 80 43 95 42 100 38 106 26 116 19 121 17 122 4 127 0 127 0 43 1 43 "/><path d="M249 150 249 222 248 222 226 210 225 209 223 205 219 194 224 169 227 162 229 160 242 152 247 150 249 150 "/></svg>