<svg width="256" height="256" xmlns="http://www.w3.org/2000/svg" fill-opacity="0" stroke="black" stroke-width="3" ><path d="M151 14 155 16 158 18 163 22 166 25 217 115 220 121 221 124 222 129 222 136 221 140 220 143 218 147 217 148 161 195 56 196 52 196 16 173 16 170 19 107 51 56 53 54 58 51 148 14 151 14 "/><path d="M229 0 243 3 246 6 249 15 249 72 239 83 234 86 232 87 229 88 212 88 203 80 199 76 196 71 188 55 184 42 180 27 178 13 178 9 180 5 186 0 229 0 "/><path d="M121 211 124 213 127 216 131 222 132 227 132 233 131 236 118 249 98 249 86 231 86 230 87 226 90 223 106 212 113 208 121 211 "/></svg>