<svg width="256" height="256" xmlns="http://www.w3.org/2000/svg" fill-opacity="0" stroke="black" stroke-width="3" ><path d="M249 0 249 111 183 186 182 187 175 193 146 211 94 225 92 225 89 222 86 217 84 213 54 151 47 125 51 102 57 88 58 86 67 70 73 63 83 52 99 39 102 37 108 34 196 0 249 0 "/><path d="M56 0 61 9 62 11 66 24 66 34 62 44 47 74 43 80 37 85 34 87 25 90 23 90 0 85 0 51 9 0 56 0 "/><path d="M36 195 41 196 49 198 52 199 60 203 66 207 70 211 80 223 85 231 90 240 93 249 0 249 0 219 2 211 4 207 12 200 14 199 17 198 25 196 31 195 36 195 "/></svg>