<svg width="256" height="256" xmlns="http://www.w3.org/2000/svg" fill-opacity="0" stroke="black" stroke-width="3" ><path d="M249 0 249 53 244 80 231 127 224 141 216 153 209 163 201 171 196 175 178 183 133 199 120 200 119 200 93 194 83 191 75 188 63 183 54 176 49 172 42 163 41 161 35 148 29 120 27 109 27 83 32 72 34 68 37 64 42 61 44 60 194 0 249 0 "/><path d="M45 0 48 2 49 3 56 15 57 17 57 18 52 29 46 33 18 44 1 34 0 33 0 0 45 0 "/><path d="M140 0 140 1 139 3 118 17 114 19 80 29 72 31 68 31 65 23 64 15 67 0 140 0 "/></svg>