<svg width="256" height="256" xmlns="http://www.w3.org/2000/svg" fill-opacity="0" stroke="black" stroke-width="3" ><path d="M135 32 143 34 163 41 182 50 184 51 192 57 195 60 204 70 210 79 215 89 216 92 218 100 218 113 214 122 180 193 175 200 174 201 163 209 144 216 139 217 130 217 122 216 116 215 102 211 100 210 91 204 83 197 77 191 65 176 63 173 57 158 53 147 52 138 51 128 51 112 53 105 60 83 61 80 68 65 72 59 79 52 86 46 88 45 111 36 117 34 128 32 135 32 "/><path d="M249 249 211 249 211 248 213 239 215 236 217 234 221 232 240 223 249 219 249 249 "/></svg>