<svg width="256" height="256" xmlns="http://www.w3.org/2000/svg" fill-opacity="0" stroke="black" stroke-width="3" ><path d="M142 47 147 48 151 49 154 50 229 81 218 144 214 155 179 236 166 249 77 182 60 167 57 164 55 160 51 150 48 139 47 130 47 103 49 96 50 93 53 87 57 81 63 75 72 69 94 55 105 50 122 47 134 46 142 47 "/><path d="M205 0 207 3 208 6 208 18 206 23 203 27 198 33 194 35 190 36 186 36 179 34 171 30 167 26 165 23 164 21 163 16 163 9 165 5 168 0 205 0 "/><path d="M230 228 249 231 249 242 238 246 229 249 174 249 174 247 176 243 229 228 230 228 "/></svg>