<svg width="256" height="256" xmlns="http://www.w3.org/2000/svg" fill-opacity="0" stroke="black" stroke-width="3" ><path d="M151 51 167 57 174 61 192 78 194 81 198 88 200 93 202 100 204 110 204 132 193 162 191 166 179 182 176 185 164 192 159 194 149 195 111 195 88 189 76 183 71 180 67 177 66 176 64 173 61 168 59 164 58 161 56 130 56 95 57 92 59 89 61 87 65 85 138 53 143 51 151 51 "/><path d="M120 0 122 4 122 20 119 24 112 31 71 54 67 55 58 54 55 53 53 52 48 48 47 47 44 43 38 34 36 30 36 16 37 9 38 6 39 4 43 0 120 0 "/><path d="M8 109 27 120 28 121 31 125 35 134 35 150 34 163 31 172 27 179 22 186 20 188 8 194 4 195 3 195 0 194 0 134 3 109 4 108 8 109 "/><path d="M235 0 240 16 240 19 237 21 177 41 162 34 153 29 144 22 143 21 137 2 138 1 142 0 235 0 "/><path d="M8 0 22 1 23 4 24 11 23 44 22 47 20 52 16 59 3 73 0 73 0 1 1 0 8 0 "/></svg>