<svg width="256" height="256" xmlns="http://www.w3.org/2000/svg" fill-opacity="0" stroke="black" stroke-width="3" ><path d="M32 0 142 41 144 42 153 48 194 148 194 154 180 187 168 209 162 218 160 220 157 222 143 231 130 237 116 242 106 244 105 244 50 221 30 203 21 191 9 167 5 157 4 149 3 135 0 13 0 0 32 0 "/><path d="M230 0 249 11 249 112 248 113 214 124 213 124 209 123 207 121 175 55 171 41 171 37 172 36 213 0 230 0 "/><path d="M249 154 249 195 242 237 240 245 239 247 225 246 203 241 196 235 195 234 187 222 187 219 204 193 243 154 246 153 249 154 "/></svg>