<svg width="256" height="256" xmlns="http://www.w3.org/2000/svg" fill-opacity="0" stroke="black" stroke-width="3" ><path d="M116 15 121 16 127 18 129 19 134 22 163 46 180 63 192 77 204 134 204 141 202 154 200 164 199 168 198 171 183 211 182 213 180 215 178 216 173 218 160 222 137 226 118 221 91 208 83 203 75 197 68 189 64 184 52 154 44 116 43 110 45 101 46 97 51 83 55 72 59 64 91 26 96 21 102 18 107 16 112 15 116 15 "/><path d="M23 113 34 124 36 128 37 132 44 161 46 171 46 176 44 182 34 199 27 208 3 231 0 231 0 122 1 119 20 113 23 113 "/><path d="M223 0 226 5 228 10 229 14 229 16 228 24 227 28 226 31 223 37 217 43 210 48 206 50 198 50 186 46 182 44 179 42 174 37 172 34 169 28 168 25 167 18 167 17 169 9 170 6 175 0 223 0 "/><path d="M228 164 233 166 242 175 243 177 249 208 249 222 230 220 228 219 215 212 210 209 203 203 201 199 201 198 223 167 224 166 227 164 228 164 "/><path d="M34 0 42 11 44 14 46 18 49 25 49 36 48 50 47 55 46 59 35 74 32 78 27 83 6 92 5 92 0 87 0 82 12 5 17 0 34 0 "/></svg>