<svg width="256" height="256" xmlns="http://www.w3.org/2000/svg" fill-opacity="0" stroke="black" stroke-width="3" ><path d="M153 39 155 40 171 53 179 61 195 90 196 93 196 100 195 117 193 126 185 145 183 149 169 165 160 174 156 176 121 188 113 190 107 190 91 184 79 178 69 172 63 167 61 165 57 160 55 156 51 143 49 136 47 122 47 118 59 75 66 68 71 65 95 53 149 39 153 39 "/><path d="M220 77 223 78 230 81 232 83 240 100 240 105 239 115 238 118 234 124 228 128 220 129 219 129 216 128 213 125 211 122 209 118 201 99 200 93 200 87 201 85 207 79 210 78 214 77 220 77 "/></svg>