<svg width="256" height="256" xmlns="http://www.w3.org/2000/svg" fill-opacity="0" stroke="black" stroke-width="3" ><path d="M10 52 22 60 41 75 42 76 57 175 57 176 0 209 0 53 1 52 10 52 "/><path d="M170 105 173 108 178 114 184 136 184 138 180 157 164 182 153 195 148 200 144 203 142 204 138 205 133 205 125 201 93 171 92 170 77 153 73 145 68 134 63 112 64 110 68 105 170 105 "/><path d="M219 170 231 176 243 187 247 195 247 197 195 249 179 249 178 248 165 226 165 222 166 207 167 204 180 183 181 182 185 179 189 177 208 169 211 168 219 170 "/><path d="M53 190 58 193 61 195 66 202 70 208 71 211 71 232 60 249 19 249 18 247 18 231 20 219 36 196 40 192 42 191 48 190 53 190 "/><path d="M113 73 136 79 139 80 141 85 141 88 140 89 88 99 83 99 81 98 79 96 75 90 75 89 76 88 97 72 113 73 "/></svg>