<svg width="256" height="256" xmlns="http://www.w3.org/2000/svg" fill-opacity="0" stroke="black" stroke-width="3" ><path d="M137 57 142 58 157 66 166 71 169 73 176 80 186 92 192 100 199 116 200 119 206 150 206 156 198 172 194 177 184 187 181 189 177 191 155 201 109 207 107 207 101 205 79 194 61 178 49 160 48 155 47 139 47 136 49 119 50 111 52 100 53 97 55 92 59 84 61 81 65 76 69 72 75 68 86 62 90 60 96 58 103 56 137 57 "/><path d="M208 0 205 5 199 12 190 19 183 22 170 23 161 23 149 19 141 15 136 12 123 4 121 2 120 0 208 0 "/></svg>