<svg width="256" height="256" xmlns="http://www.w3.org/2000/svg" fill-opacity="0" stroke="black" stroke-width="3" ><path d="M128 23 151 25 155 26 158 27 174 33 189 43 194 47 203 56 206 60 208 63 219 83 220 85 224 98 228 117 228 118 224 144 221 154 218 160 208 175 200 184 199 185 187 195 183 198 179 200 166 205 158 208 149 211 142 213 132 214 122 214 111 213 106 212 92 208 89 207 74 200 67 195 63 192 57 187 54 184 46 173 38 161 35 155 33 149 31 141 30 134 30 107 31 99 36 83 39 78 46 67 54 57 63 48 77 38 83 35 90 32 111 25 115 24 125 23 128 23 "/></svg>