<svg width="256" height="256" xmlns="http://www.w3.org/2000/svg" fill-opacity="0" stroke="black" stroke-width="3" ><path d="M157 35 180 47 190 53 195 58 199 63 209 77 212 83 216 93 217 100 217 120 215 127 213 132 210 139 197 169 196 171 192 178 186 184 173 193 167 196 156 201 147 204 134 206 115 206 98 204 88 200 80 195 77 193 67 186 61 180 56 174 45 153 44 151 43 126 45 113 46 107 48 96 52 83 53 81 66 66 83 51 89 48 101 43 111 40 119 38 128 36 137 35 157 35 "/><path d="M249 114 249 217 244 217 230 215 218 210 216 209 207 199 203 194 202 189 202 179 203 175 206 167 208 162 218 141 224 129 231 120 236 117 240 115 246 114 249 114 "/></svg>