<svg width="256" height="256" xmlns="http://www.w3.org/2000/svg" fill-opacity="0" stroke="black" stroke-width="3" ><path d="M121 34 128 35 139 37 151 41 167 48 174 53 185 62 193 70 205 86 216 108 221 135 220 150 219 159 218 162 215 170 214 172 187 200 172 215 151 225 138 230 132 232 126 233 118 233 101 231 93 230 70 216 58 208 49 200 48 199 32 179 28 172 27 170 25 165 24 162 22 151 21 145 21 143 24 106 25 102 29 93 30 91 42 71 51 61 54 58 62 52 65 50 70 47 76 44 81 42 95 37 102 36 118 34 121 34 "/><path d="M108 249 1 249 0 247 0 241 16 205 21 202 27 202 61 218 67 221 96 238 108 249 "/></svg>