<svg width="256" height="256" xmlns="http://www.w3.org/2000/svg" fill-opacity="0" stroke="black" stroke-width="3" ><path d="M191 47 195 48 199 51 209 60 222 73 230 82 232 85 233 87 238 98 243 116 246 127 246 150 241 179 224 211 222 214 219 217 212 222 195 231 142 231 134 229 121 223 105 207 98 199 85 182 78 171 77 169 76 166 74 155 72 143 71 133 71 120 73 110 75 103 79 93 85 81 105 65 125 50 130 48 143 43 160 40 191 47 "/><path d="M52 0 68 3 73 6 78 11 83 19 85 24 89 37 89 47 88 51 87 54 84 60 80 67 78 70 74 75 71 78 65 83 51 89 48 90 42 90 39 89 29 84 23 80 18 76 14 72 10 67 0 44 0 23 2 12 3 10 5 8 12 3 25 0 52 0 "/><path d="M4 86 9 88 18 93 20 96 22 102 22 123 20 139 6 140 1 140 0 139 0 86 4 86 "/><path d="M23 144 24 145 30 154 31 157 32 162 32 166 31 169 18 183 17 184 13 186 0 188 0 148 21 143 23 144 "/></svg>