<svg width="256" height="256" xmlns="http://www.w3.org/2000/svg" fill-opacity="0" stroke="black" stroke-width="3" ><path d="M98 50 119 57 132 62 136 64 145 70 155 78 178 98 179 99 181 102 198 144 198 145 177 179 173 185 115 197 113 197 98 195 62 175 61 174 45 140 42 127 42 116 44 97 45 94 47 90 54 81 55 80 60 76 97 50 98 50 "/><path d="M237 17 247 20 248 21 249 26 249 108 240 108 230 104 202 84 198 81 194 77 191 64 187 29 187 23 193 16 196 14 206 12 237 17 "/><path d="M183 196 207 202 220 210 229 220 235 229 245 248 245 249 149 249 148 246 147 242 147 233 148 229 152 215 157 208 161 204 170 197 174 196 183 196 "/></svg>