<svg width="256" height="256" xmlns="http://www.w3.org/2000/svg" fill-opacity="0" stroke="black" stroke-width="3" ><path d="M63 0 139 32 150 38 155 41 167 49 181 65 182 67 189 86 194 122 194 123 193 141 179 185 178 187 153 228 151 230 119 241 95 249 24 249 23 248 0 169 0 0 63 0 "/><path d="M246 30 248 31 249 32 249 152 248 153 227 162 226 162 225 161 216 151 207 134 202 118 201 113 196 82 197 64 202 53 215 35 219 33 228 31 241 30 246 30 "/><path d="M237 0 238 3 238 5 237 8 234 15 233 16 229 19 224 22 221 23 214 25 194 25 183 22 179 20 170 14 169 13 166 9 160 0 237 0 "/></svg>