<svg width="256" height="256" xmlns="http://www.w3.org/2000/svg" fill-opacity="0" stroke="black" stroke-width="3" ><path d="M160 42 171 49 177 55 188 67 189 70 199 114 200 120 200 136 197 145 195 150 184 170 178 180 157 200 143 206 129 210 108 210 96 209 90 208 73 199 49 184 48 183 42 172 40 168 38 157 38 151 42 120 46 108 52 96 54 93 72 73 80 65 84 62 92 57 97 55 139 42 160 42 "/><path d="M249 185 249 249 149 249 149 246 150 238 152 232 154 228 160 220 165 214 195 192 206 189 235 185 249 185 "/></svg>