<svg width="256" height="256" xmlns="http://www.w3.org/2000/svg" fill-opacity="0" stroke="black" stroke-width="3" ><path d="M148 23 166 29 171 31 176 34 183 39 188 43 194 49 198 54 204 63 218 86 220 90 222 95 226 109 226 119 225 130 224 139 222 149 218 164 214 172 205 185 192 200 183 207 178 210 174 212 165 216 151 220 143 222 134 224 116 226 102 226 89 223 86 222 82 220 65 210 53 202 42 191 41 189 33 171 27 153 26 126 26 117 27 104 28 101 34 84 35 82 47 63 59 51 70 43 73 41 78 38 80 37 125 23 148 23 "/><path d="M8 128 15 144 16 147 18 156 18 182 17 185 13 192 5 198 2 199 0 198 0 122 8 128 "/></svg>