<svg width="256" height="256" xmlns="http://www.w3.org/2000/svg" fill-opacity="0" stroke="black" stroke-width="3" ><path d="M139 64 144 65 147 66 153 69 175 81 185 87 192 97 196 120 197 128 203 191 203 192 202 194 199 199 180 223 178 225 175 227 172 228 106 241 102 241 97 239 92 236 84 231 67 208 66 206 42 143 42 134 44 130 60 99 64 92 71 84 75 81 97 70 112 65 131 64 139 64 "/><path d="M206 6 213 7 219 9 222 11 233 22 237 29 238 32 239 36 239 44 237 52 235 57 231 62 230 63 223 69 215 73 210 74 199 74 195 73 193 72 183 66 177 62 176 61 173 57 171 53 169 46 168 42 168 41 169 31 170 27 171 25 174 20 177 17 181 14 188 10 193 8 201 6 206 6 "/><path d="M15 176 17 177 21 180 35 196 37 199 47 227 48 235 48 236 47 242 44 249 0 249 0 177 7 176 15 176 "/></svg>