<svg width="256" height="256" xmlns="http://www.w3.org/2000/svg" fill-opacity="0" stroke="black" stroke-width="3" ><path d="M106 25 113 27 125 32 133 39 175 81 181 90 187 100 188 102 189 105 194 129 194 148 191 155 188 161 174 178 171 181 77 203 67 203 51 201 30 165 30 164 33 141 35 126 36 122 40 110 70 47 74 40 78 34 97 25 101 24 106 25 "/><path d="M238 121 241 122 246 124 249 126 249 161 246 169 245 170 232 177 230 177 219 173 211 166 207 150 207 147 209 136 211 130 214 126 218 123 220 122 223 121 238 121 "/><path d="M22 168 31 201 32 205 32 216 28 226 11 249 0 249 0 180 12 164 22 168 "/><path d="M116 0 116 1 115 5 112 10 110 12 104 15 93 17 75 17 66 11 61 6 57 1 57 0 116 0 "/><path d="M249 66 248 66 233 63 218 58 210 55 205 45 202 38 203 35 231 30 249 27 249 66 "/><path d="M207 0 209 4 209 5 201 33 196 36 189 33 181 29 169 18 168 16 168 15 176 0 207 0 "/></svg>