<svg width="256" height="256" xmlns="http://www.w3.org/2000/svg" fill-opacity="0" stroke="black" stroke-width="3" ><path d="M79 55 113 56 117 57 132 62 145 68 169 84 172 87 174 91 178 102 180 108 185 127 185 134 184 143 183 150 180 159 176 167 174 170 158 187 154 190 145 195 134 200 123 203 113 204 97 205 85 205 80 203 71 199 41 185 38 183 35 180 18 159 17 157 15 151 13 144 13 138 15 99 16 98 25 90 57 63 71 55 79 55 "/><path d="M249 219 249 249 209 249 211 242 215 236 220 232 228 226 231 224 242 219 249 219 "/><path d="M121 229 130 234 135 239 137 242 138 244 140 249 82 249 83 246 93 236 98 232 105 229 115 227 121 229 "/></svg>