<svg width="256" height="256" xmlns="http://www.w3.org/2000/svg" fill-opacity="0" stroke="black" stroke-width="3" ><path d="M139 42 163 46 176 53 184 59 185 60 194 70 198 81 199 86 201 98 204 118 204 124 200 149 190 182 178 199 166 212 164 213 136 224 104 224 91 223 87 222 80 220 57 200 56 199 35 175 32 170 31 165 31 157 35 121 37 104 43 83 44 81 57 62 59 60 85 46 89 45 106 43 115 42 139 42 "/><path d="M133 229 142 233 145 236 152 248 152 249 102 249 102 247 103 245 106 240 109 237 114 233 116 232 119 231 130 229 133 229 "/></svg>