<svg width="256" height="256" xmlns="http://www.w3.org/2000/svg" fill-opacity="0" stroke="black" stroke-width="3" ><path d="M177 0 181 1 182 2 183 4 204 120 205 133 205 137 187 155 125 190 115 190 109 189 96 185 91 183 83 179 74 172 67 165 57 151 54 145 48 132 42 114 41 107 41 101 43 98 129 0 177 0 "/><path d="M2 121 39 159 46 177 47 180 47 188 45 200 43 205 36 216 34 218 30 221 27 222 24 221 20 218 13 210 6 195 3 188 0 159 0 119 2 121 "/><path d="M61 0 61 11 59 19 56 25 38 35 32 35 27 34 22 32 19 30 9 20 4 4 4 0 61 0 "/></svg>