<svg width="256" height="256" xmlns="http://www.w3.org/2000/svg" fill-opacity="0" stroke="black" stroke-width="3" ><path d="M107 11 112 13 114 14 117 16 172 54 173 56 182 107 182 122 181 125 179 130 178 132 168 147 164 152 163 153 114 171 97 177 95 177 73 89 72 80 71 56 71 55 89 19 94 16 104 11 107 11 "/><path d="M249 221 247 221 226 209 221 205 215 198 209 190 207 186 201 170 199 162 199 146 204 122 210 103 215 95 223 85 230 78 249 72 249 221 "/><path d="M24 94 35 99 45 104 57 116 62 123 65 129 67 134 68 137 71 148 71 156 68 168 64 178 60 185 57 187 50 191 45 193 39 193 33 191 23 187 11 177 5 171 0 158 0 108 3 102 4 101 17 94 24 94 "/></svg>