<svg width="256" height="256" xmlns="http://www.w3.org/2000/svg" fill-opacity="0" stroke="black" stroke-width="3" ><path d="M152 15 157 17 164 20 168 23 171 26 175 33 179 43 180 47 192 98 192 100 183 118 177 125 176 126 169 131 157 138 139 144 130 145 104 146 102 146 90 141 80 136 62 124 52 117 43 110 41 108 37 102 34 97 33 95 32 83 32 80 33 61 40 50 47 43 55 36 59 33 62 31 88 21 95 19 114 17 136 15 152 15 "/><path d="M60 140 85 144 95 149 108 156 109 157 115 164 116 166 115 193 79 238 76 240 61 249 0 249 0 199 3 173 4 168 5 165 8 160 10 157 15 152 24 147 28 145 39 142 43 141 59 140 60 140 "/><path d="M231 33 233 34 249 44 249 122 244 123 230 123 205 102 201 98 196 85 194 74 194 72 195 69 200 55 212 39 230 33 231 33 "/><path d="M25 0 34 3 41 23 41 28 32 40 22 48 8 56 0 59 0 0 25 0 "/><path d="M117 0 115 2 113 3 80 12 58 16 54 16 50 14 44 6 44 0 117 0 "/></svg>