<svg width="256" height="256" xmlns="http://www.w3.org/2000/svg" fill-opacity="0" stroke="black" stroke-width="3" ><path d="M135 9 249 14 249 32 229 118 219 145 207 169 197 185 189 191 172 202 170 203 167 204 162 205 138 205 126 204 94 196 88 193 68 180 62 176 55 169 50 163 48 160 41 148 31 107 33 94 36 81 38 76 41 69 42 67 46 60 48 57 51 53 69 34 89 17 91 16 107 10 110 9 135 9 "/><path d="M49 30 54 32 55 33 55 35 52 40 25 84 15 100 13 102 10 104 8 105 3 107 0 108 0 31 38 29 49 30 "/><path d="M66 0 66 3 64 7 54 17 48 21 40 25 26 25 22 24 18 22 15 20 3 11 0 5 0 0 66 0 "/><path d="M123 229 129 231 159 249 81 249 80 248 78 243 78 242 90 234 95 231 101 229 123 229 "/></svg>