<svg width="256" height="256" xmlns="http://www.w3.org/2000/svg" fill-opacity="0" stroke="black" stroke-width="3" ><path d="M73 19 80 20 86 21 114 29 212 63 216 65 216 77 178 198 162 214 154 219 148 222 138 226 125 226 120 224 0 141 0 49 40 26 56 21 71 19 73 19 "/><path d="M68 196 70 197 73 199 92 233 96 241 96 249 16 249 5 247 3 246 3 234 5 227 6 225 8 222 11 218 18 211 21 209 36 201 44 199 54 197 63 196 68 196 "/><path d="M178 0 169 11 164 16 159 17 149 17 138 14 128 9 118 1 118 0 178 0 "/></svg>