<svg width="256" height="256" xmlns="http://www.w3.org/2000/svg" fill-opacity="0" stroke="black" stroke-width="3" ><path d="M146 47 151 48 159 52 208 87 212 91 213 93 213 97 199 195 197 197 163 201 135 194 121 190 118 189 99 178 97 176 86 161 71 129 73 94 76 86 82 79 103 56 105 55 110 53 137 47 146 47 "/><path d="M157 0 157 2 151 26 147 30 131 41 129 42 110 46 102 47 98 47 92 45 90 44 85 41 82 39 79 36 70 24 66 16 64 8 64 0 157 0 "/><path d="M243 0 243 2 238 18 236 21 232 25 223 31 221 32 219 32 211 30 204 28 201 27 200 26 199 24 196 14 195 0 243 0 "/></svg>