<svg width="256" height="256" xmlns="http://www.w3.org/2000/svg" fill-opacity="0" stroke="black" stroke-width="3" ><path d="M109 42 120 43 129 44 134 45 141 47 158 55 170 63 193 86 195 89 201 99 205 107 208 116 209 120 212 140 212 145 203 165 197 176 192 183 186 190 181 194 178 196 170 201 164 204 159 206 135 214 118 216 117 216 98 215 66 204 59 201 55 199 49 194 47 192 38 180 35 175 32 169 27 154 27 149 41 103 50 80 53 73 57 65 61 60 64 57 70 52 73 50 83 46 86 45 96 43 106 42 109 42 "/><path d="M11 31 16 32 19 33 22 36 23 38 33 70 38 87 39 93 39 94 36 105 29 129 21 138 19 140 11 147 7 147 0 144 0 34 10 31 11 31 "/><path d="M4 174 23 181 28 184 29 185 39 199 45 211 46 218 46 219 45 249 0 249 0 174 4 174 "/><path d="M201 227 204 231 214 247 215 249 136 249 148 242 150 241 164 235 188 227 199 226 201 227 "/></svg>