<svg width="256" height="256" xmlns="http://www.w3.org/2000/svg" fill-opacity="0" stroke="black" stroke-width="3" ><path d="M129 48 134 49 141 51 147 53 155 57 159 60 169 68 170 69 176 76 181 82 193 98 198 108 199 111 201 123 201 129 200 141 199 149 197 161 193 169 187 180 173 194 164 200 156 204 153 205 145 207 129 208 125 208 116 207 110 206 107 205 87 197 82 193 74 186 68 178 52 153 50 149 46 137 45 123 45 109 46 103 48 96 62 74 64 71 70 65 76 61 81 58 91 53 94 52 101 50 110 48 129 48 "/></svg>