<svg width="256" height="256" xmlns="http://www.w3.org/2000/svg" fill-opacity="0" stroke="black" stroke-width="3" ><path d="M142 56 163 63 182 74 190 82 196 90 205 113 206 116 206 122 203 132 202 135 155 208 151 211 148 213 66 191 63 188 60 182 48 143 48 132 50 110 52 105 54 102 66 89 68 87 77 82 122 59 126 57 132 56 142 56 "/><path d="M223 145 230 150 240 159 241 160 248 175 249 219 249 249 172 249 168 240 167 237 167 212 169 206 173 199 193 169 220 145 223 145 "/><path d="M2 116 5 117 7 118 31 142 36 152 37 157 37 158 33 173 30 177 24 184 23 185 13 194 9 197 6 198 4 198 0 197 0 116 2 116 "/><path d="M167 2 196 42 196 46 178 61 176 61 159 54 149 49 148 48 146 45 146 40 150 24 151 21 156 9 158 7 166 2 167 2 "/><path d="M124 225 127 227 129 230 133 237 134 241 134 246 133 249 94 249 93 234 93 231 95 229 107 225 124 225 "/></svg>