<svg width="256" height="256" xmlns="http://www.w3.org/2000/svg" fill-opacity="0" stroke="black" stroke-width="3" ><path d="M116 50 149 51 163 53 176 58 188 64 196 72 204 81 211 91 218 119 218 151 214 175 209 185 206 189 202 193 198 196 193 199 165 207 148 211 135 213 117 210 96 205 88 201 77 195 76 194 69 186 64 180 52 162 47 147 45 136 45 126 49 106 57 91 63 81 80 64 92 58 106 53 115 50 116 50 "/><path d="M10 185 17 188 24 194 29 199 36 212 37 214 37 220 36 222 34 224 21 232 8 234 7 234 1 229 0 217 0 186 5 185 10 185 "/></svg>