<svg width="256" height="256" xmlns="http://www.w3.org/2000/svg" fill-opacity="0" stroke="black" stroke-width="3" ><path d="M143 49 146 50 160 55 178 63 187 72 193 80 198 88 199 92 201 101 208 145 209 154 210 164 208 169 206 173 198 187 196 190 191 195 188 197 166 208 153 210 125 210 111 206 90 198 85 196 81 194 76 189 65 173 64 171 62 166 61 160 59 136 59 121 69 89 70 87 77 78 80 75 97 61 109 55 116 52 120 51 142 49 143 49 "/><path d="M82 0 90 8 91 10 95 27 96 33 96 36 95 42 92 48 90 51 80 60 77 62 75 63 63 67 56 67 53 66 43 62 35 54 30 47 28 23 29 18 31 13 34 9 35 8 39 5 49 0 82 0 "/><path d="M249 66 249 170 248 170 238 168 237 167 234 163 227 150 225 145 220 126 219 119 218 104 218 97 225 83 233 74 234 73 244 66 249 66 "/></svg>