<svg width="256" height="256" xmlns="http://www.w3.org/2000/svg" fill-opacity="0" stroke="black" stroke-width="3" ><path d="M132 61 142 63 146 65 160 78 200 132 200 133 187 190 186 192 184 194 175 198 171 199 166 199 117 196 113 194 58 158 55 156 47 148 43 140 42 137 41 129 42 127 66 94 78 78 85 71 89 68 92 66 94 65 107 62 118 61 132 61 "/><path d="M133 0 135 1 140 8 141 10 143 16 144 23 144 24 143 28 135 37 131 41 123 44 117 45 114 45 107 44 100 41 95 38 90 27 89 22 89 17 90 11 91 7 93 3 95 1 97 0 133 0 "/><path d="M50 207 55 208 59 209 75 216 79 220 96 240 99 244 100 247 100 249 0 249 0 233 25 213 31 209 33 208 37 207 50 207 "/><path d="M249 7 249 55 246 58 195 51 191 50 189 49 184 37 186 33 188 31 191 29 199 25 235 8 238 7 244 6 249 7 "/></svg>