<svg width="256" height="256" xmlns="http://www.w3.org/2000/svg" fill-opacity="0" stroke="black" stroke-width="3" ><path d="M111 22 127 26 203 54 208 56 211 58 221 65 223 67 227 76 235 106 235 132 231 157 227 167 225 171 213 191 210 195 203 203 197 209 194 211 190 213 183 215 172 215 159 214 115 209 106 207 91 203 88 202 71 195 67 193 64 191 58 185 53 177 40 155 38 151 36 146 35 143 33 134 32 120 32 112 33 98 38 80 43 69 46 64 50 58 76 32 85 26 93 23 96 22 111 22 "/><path d="M227 0 227 3 225 9 223 11 215 17 213 18 170 25 162 25 159 23 149 16 146 13 145 10 145 7 153 0 227 0 "/><path d="M106 233 133 248 134 249 77 249 75 248 67 240 67 239 69 236 72 234 84 231 106 233 "/></svg>