<svg width="256" height="256" xmlns="http://www.w3.org/2000/svg" fill-opacity="0" stroke="black" stroke-width="3" ><path d="M221 35 231 36 235 37 241 39 249 43 249 208 238 219 229 221 227 221 206 220 192 219 183 215 147 197 126 168 122 161 119 149 117 140 116 134 117 126 121 104 125 96 137 76 142 70 143 69 178 42 188 37 191 36 206 35 221 35 "/><path d="M46 43 66 46 93 65 96 68 100 85 100 96 99 106 96 112 88 124 80 133 78 134 57 141 56 141 30 140 19 135 15 133 12 128 4 109 3 106 3 85 6 75 14 64 27 48 35 44 44 43 46 43 "/><path d="M33 161 55 170 68 180 82 194 84 197 87 203 102 238 103 242 104 248 104 249 0 249 0 175 3 169 5 167 9 165 12 164 27 161 33 161 "/><path d="M170 0 171 1 171 25 139 43 120 47 106 49 86 43 75 38 54 28 49 22 48 17 48 15 54 0 170 0 "/><path d="M29 0 29 12 22 25 10 37 1 45 0 45 0 0 29 0 "/></svg>