<svg width="256" height="256" xmlns="http://www.w3.org/2000/svg" fill-opacity="0" stroke="black" stroke-width="3" ><path d="M224 0 249 16 249 65 205 77 189 45 189 42 193 19 194 18 216 0 224 0 "/><path d="M170 221 174 222 177 223 183 226 186 228 194 236 199 246 199 249 135 249 126 242 123 236 123 234 125 232 131 229 158 221 170 221 "/><path d="M189 112 191 114 197 123 198 136 199 160 199 161 193 173 184 187 180 192 172 200 168 203 165 205 163 206 153 210 150 211 148 211 140 210 137 207 137 206 186 112 187 111 189 112 "/><path d="M55 89 76 96 83 100 83 107 74 136 72 140 70 141 67 141 54 135 53 133 50 123 49 115 54 89 55 89 "/><path d="M123 66 127 71 127 73 110 97 109 98 105 100 104 100 88 93 72 80 71 79 71 78 73 74 79 68 122 66 123 66 "/><path d="M115 231 119 247 119 249 78 249 75 247 75 246 80 232 90 227 104 222 115 231 "/></svg>