<svg width="256" height="256" xmlns="http://www.w3.org/2000/svg" fill-opacity="0" stroke="black" stroke-width="3" ><path d="M118 45 123 46 159 62 172 68 178 72 245 164 246 166 249 203 249 207 245 220 244 222 233 239 231 241 219 249 168 249 138 233 75 175 69 169 53 144 49 133 48 130 48 122 50 113 53 106 55 102 73 72 87 55 90 52 109 46 117 45 118 45 "/><path d="M47 166 56 170 60 173 68 181 74 190 76 203 76 206 75 210 73 215 70 221 68 223 64 226 62 227 47 233 33 235 22 235 18 234 15 233 10 231 7 228 4 224 2 221 0 209 0 192 2 183 3 181 8 176 11 174 31 166 37 164 47 166 "/><path d="M227 0 228 1 233 14 233 21 232 23 218 37 195 44 193 44 190 43 126 18 123 16 114 9 112 7 106 0 227 0 "/><path d="M14 84 18 85 21 86 22 87 35 105 42 116 43 125 35 151 33 153 22 161 20 162 13 165 0 165 0 85 4 84 14 84 "/></svg>