<svg width="256" height="256" xmlns="http://www.w3.org/2000/svg" fill-opacity="0" stroke="black" stroke-width="3" ><path d="M161 44 169 45 174 46 178 47 191 51 198 54 200 55 222 70 226 74 230 79 234 88 244 113 246 122 246 163 244 170 243 172 237 182 236 183 228 190 222 195 214 201 211 203 204 206 200 207 186 210 169 209 155 207 152 206 142 201 133 196 108 176 106 174 100 167 95 161 93 158 89 150 88 147 86 139 83 126 82 117 82 112 83 106 87 88 90 81 100 68 110 58 113 56 117 54 126 50 138 46 157 44 161 44 "/></svg>