<svg width="256" height="256" xmlns="http://www.w3.org/2000/svg" fill-opacity="0" stroke="black" stroke-width="3" ><path d="M133 52 138 53 150 57 163 64 171 71 174 74 183 84 190 96 202 117 204 121 205 126 207 139 208 152 208 172 204 182 198 194 195 199 191 204 188 206 184 207 179 208 105 209 102 209 63 198 36 182 31 179 28 177 19 168 19 157 34 94 35 93 86 60 117 52 133 52 "/><path d="M249 0 249 107 237 119 233 119 229 116 219 107 207 94 196 81 195 79 189 61 187 54 187 33 192 15 195 11 205 0 249 0 "/><path d="M18 180 50 196 52 201 52 203 45 218 42 222 35 224 1 226 0 226 0 184 14 180 18 180 "/><path d="M81 0 81 2 75 8 51 20 50 20 45 18 38 15 34 11 31 7 27 0 81 0 "/><path d="M191 0 190 2 169 25 161 29 158 30 147 33 141 0 191 0 "/></svg>