<svg width="256" height="256" xmlns="http://www.w3.org/2000/svg" fill-opacity="0" stroke="black" stroke-width="3" ><path d="M127 27 144 29 159 35 169 41 181 49 191 59 197 66 200 70 209 89 211 99 212 108 212 122 211 131 205 146 197 162 183 188 177 195 167 205 149 217 141 222 139 223 133 224 120 226 106 226 99 225 89 220 82 216 78 213 54 192 46 184 44 181 43 179 28 136 23 121 22 117 22 105 24 91 26 86 32 77 39 71 48 64 68 49 88 36 96 31 101 29 109 27 127 27 "/><path d="M249 249 224 249 220 246 209 224 208 221 207 212 207 210 211 193 216 182 228 169 245 159 249 157 249 249 "/><path d="M72 0 72 6 68 12 55 26 33 41 30 42 18 42 16 40 10 32 10 30 15 9 21 3 27 0 72 0 "/><path d="M46 223 50 225 66 240 68 243 69 246 69 249 0 249 0 233 12 227 24 225 42 223 46 223 "/></svg>