<svg width="256" height="256" xmlns="http://www.w3.org/2000/svg" fill-opacity="0" stroke="black" stroke-width="3" ><path d="M128 45 135 47 143 51 148 54 204 108 207 128 208 135 209 145 209 147 203 176 201 184 195 199 194 201 192 204 180 217 175 222 169 227 161 232 154 235 151 236 143 237 139 237 128 234 120 230 117 228 86 200 84 198 78 190 62 154 56 140 54 135 48 117 47 113 46 106 46 99 48 93 50 89 59 73 63 66 69 58 74 53 81 49 87 47 109 43 128 45 "/><path d="M4 96 18 105 21 108 27 117 29 121 30 125 30 128 29 140 17 225 15 229 5 245 1 247 0 247 0 97 2 96 4 96 "/></svg>