<svg width="256" height="256" xmlns="http://www.w3.org/2000/svg" fill-opacity="0" stroke="black" stroke-width="3" ><path d="M105 32 128 34 135 36 153 43 167 50 183 62 191 70 194 74 201 84 203 87 207 98 208 101 209 105 211 119 211 124 209 143 205 155 195 174 191 178 181 183 153 196 141 201 138 202 118 205 115 205 106 204 82 198 76 195 66 189 60 183 54 173 46 157 44 152 39 93 45 74 48 66 54 56 64 42 74 37 77 36 93 33 99 32 105 32 "/><path d="M249 0 249 80 241 90 239 92 234 92 228 90 226 89 223 87 209 74 193 55 192 53 190 48 189 45 186 35 186 20 189 8 190 6 195 0 249 0 "/><path d="M177 231 199 234 209 237 237 248 238 249 148 249 149 248 158 240 167 235 169 234 176 231 177 231 "/></svg>