<svg width="256" height="256" xmlns="http://www.w3.org/2000/svg" fill-opacity="0" stroke="black" stroke-width="3" ><path d="M156 42 171 44 180 47 192 53 193 54 195 57 203 73 204 76 204 78 203 81 168 181 139 249 17 249 16 227 16 224 17 109 24 91 33 76 36 73 38 72 150 42 156 42 "/><path d="M248 163 249 166 249 249 197 249 196 247 196 243 205 185 227 169 247 162 248 163 "/><path d="M39 0 47 8 58 20 59 22 60 30 60 37 58 39 51 39 43 37 37 35 20 26 19 13 19 7 20 0 39 0 "/><path d="M100 14 115 21 117 24 117 33 116 35 113 38 92 46 78 46 74 42 72 36 72 32 74 27 78 20 79 19 83 16 87 14 100 14 "/><path d="M225 0 229 11 229 12 228 13 226 14 222 15 205 19 194 19 173 14 159 7 156 4 154 0 225 0 "/><path d="M212 132 213 134 213 146 205 157 194 169 175 187 172 184 171 182 178 162 186 144 200 136 210 132 212 132 "/></svg>