<svg width="256" height="256" xmlns="http://www.w3.org/2000/svg" fill-opacity="0" stroke="black" stroke-width="3" ><path d="M182 67 195 71 199 73 200 74 224 100 224 101 197 155 190 166 170 192 165 198 160 202 152 204 132 202 117 200 93 190 91 189 75 179 66 172 62 168 57 161 56 157 55 148 55 127 61 103 63 99 66 94 75 83 79 79 105 72 116 70 124 69 169 67 182 67 "/><path d="M44 9 62 11 64 12 70 24 73 31 74 44 73 48 71 52 68 56 56 68 39 81 36 83 30 86 22 89 13 92 7 92 0 91 0 55 39 12 42 9 44 9 "/><path d="M163 0 172 41 172 52 169 53 152 58 147 59 145 59 125 55 121 54 111 50 107 48 105 38 107 21 109 10 111 7 117 0 163 0 "/></svg>