<svg width="256" height="256" xmlns="http://www.w3.org/2000/svg" fill-opacity="0" stroke="black" stroke-width="3" ><path d="M128 56 152 59 159 62 172 71 177 75 193 92 197 98 201 106 203 128 203 138 201 149 200 153 187 171 179 179 171 186 169 187 145 195 135 197 128 197 119 196 103 191 96 188 94 187 86 182 68 165 64 160 62 157 56 146 54 140 53 135 53 124 54 121 56 116 65 99 77 87 84 81 87 79 104 68 120 58 124 56 128 56 "/><path d="M61 0 119 30 110 52 109 54 106 57 92 70 64 87 59 90 55 91 42 92 39 92 26 89 0 68 0 60 38 17 56 0 61 0 "/><path d="M3 134 8 139 26 159 54 198 54 199 51 203 43 207 3 226 0 227 0 132 3 134 "/><path d="M47 226 54 228 64 233 67 236 69 241 69 249 16 249 20 240 26 233 27 232 32 228 35 227 44 226 47 226 "/></svg>