<svg width="256" height="256" xmlns="http://www.w3.org/2000/svg" fill-opacity="0" stroke="black" stroke-width="3" ><path d="M184 16 188 17 190 19 249 102 249 188 240 230 235 249 71 249 59 240 58 239 58 236 64 51 142 25 170 17 182 16 184 16 "/><path d="M120 0 120 1 111 10 105 15 101 18 95 22 61 36 30 32 29 31 26 9 26 6 28 0 120 0 "/><path d="M37 149 45 151 47 152 50 154 52 156 53 158 54 161 57 176 57 178 56 183 55 185 40 200 36 202 32 203 30 203 27 202 22 200 20 198 15 189 15 186 16 181 17 178 20 170 22 165 27 153 29 149 30 148 37 149 "/><path d="M22 216 34 218 36 220 46 240 50 249 0 249 0 217 13 216 22 216 "/></svg>