<svg width="256" height="256" xmlns="http://www.w3.org/2000/svg" fill-opacity="0" stroke="black" stroke-width="3" ><path d="M109 48 128 51 144 56 160 62 162 63 177 73 190 82 192 84 198 93 199 95 204 109 205 112 205 125 202 145 201 149 196 162 194 166 192 169 186 176 168 194 151 204 141 205 110 205 105 204 90 198 65 186 57 174 51 162 48 153 44 137 44 124 45 120 50 105 57 90 58 88 66 73 69 69 85 55 101 49 105 48 109 48 "/><path d="M158 227 159 228 168 239 168 249 115 249 116 245 120 240 125 235 133 231 138 229 141 228 151 227 158 227 "/></svg>