<svg width="256" height="256" xmlns="http://www.w3.org/2000/svg" fill-opacity="0" stroke="black" stroke-width="3" ><path d="M108 39 153 49 174 54 186 59 188 60 196 66 199 69 208 86 210 90 212 96 213 101 214 112 214 114 212 129 210 136 209 139 205 148 198 162 184 182 183 183 178 187 159 196 150 200 147 201 131 205 130 205 118 204 111 203 90 197 87 195 77 186 73 182 65 173 47 134 44 127 38 91 38 82 39 73 41 69 48 59 51 55 62 49 73 45 91 39 108 39 "/><path d="M23 121 25 122 42 141 52 157 54 161 55 169 56 184 54 213 53 222 51 230 42 241 40 243 33 249 0 249 0 164 5 141 6 137 8 131 11 128 16 124 20 121 23 121 "/><path d="M232 0 232 7 213 20 201 26 195 28 192 28 162 26 147 19 120 3 119 1 119 0 232 0 "/><path d="M68 3 71 4 76 6 82 9 84 13 85 17 84 20 79 30 78 31 73 35 48 45 39 47 22 47 19 46 15 44 12 42 11 41 4 33 4 29 5 25 7 18 10 16 13 15 67 3 68 3 "/></svg>