<svg width="256" height="256" xmlns="http://www.w3.org/2000/svg" fill-opacity="0" stroke="black" stroke-width="3" ><path d="M144 24 161 27 163 28 184 42 192 48 195 51 210 70 215 78 219 86 223 96 229 116 230 120 231 130 231 157 228 169 225 177 223 179 203 195 179 213 163 218 159 219 141 223 128 225 106 225 94 223 65 212 31 173 26 167 24 164 22 159 21 150 21 148 22 113 23 106 24 102 29 92 32 87 40 74 42 71 48 64 66 46 71 42 76 40 137 24 144 24 "/><path d="M29 0 38 3 39 5 43 22 43 23 41 29 37 40 33 45 31 47 16 61 6 67 2 68 0 68 0 0 29 0 "/><path d="M3 191 13 196 23 206 25 210 27 218 28 227 28 235 25 243 22 249 5 249 4 247 3 244 0 221 0 191 3 191 "/></svg>