<svg width="256" height="256" xmlns="http://www.w3.org/2000/svg" fill-opacity="0" stroke="black" stroke-width="3" ><path d="M132 64 141 66 145 67 160 72 171 79 174 81 178 84 186 93 190 100 196 125 196 145 194 157 193 159 190 163 180 176 174 182 167 188 164 190 160 192 148 196 130 198 111 198 95 196 91 194 78 185 75 182 71 177 61 164 55 151 35 98 37 94 52 79 60 73 68 69 106 64 132 64 "/><path d="M14 3 20 5 24 7 32 12 42 19 44 21 48 29 48 41 47 52 46 57 31 101 8 105 7 105 2 103 0 102 0 3 14 3 "/></svg>