<svg width="256" height="256" xmlns="http://www.w3.org/2000/svg" fill-opacity="0" stroke="black" stroke-width="3" ><path d="M117 34 138 38 142 39 174 57 184 70 186 73 190 81 200 102 203 128 203 132 200 163 199 167 198 170 195 177 194 179 190 186 182 196 172 206 168 209 158 215 128 223 124 224 111 225 106 225 97 221 89 217 77 209 63 196 57 190 53 185 47 175 46 173 43 165 39 150 38 145 36 112 36 111 41 88 42 84 44 79 49 69 53 62 57 57 71 43 75 40 114 34 117 34 "/><path d="M2 91 12 111 14 127 14 140 12 157 8 170 4 176 0 178 0 91 2 91 "/></svg>