<svg width="256" height="256" xmlns="http://www.w3.org/2000/svg" fill-opacity="0" stroke="black" stroke-width="3" ><path d="M99 57 160 88 183 103 185 106 199 200 191 209 188 211 175 219 163 224 153 227 148 227 116 220 114 219 109 215 93 200 92 199 68 173 66 168 65 160 59 86 59 81 61 69 74 56 94 55 99 57 "/><path d="M38 126 41 129 51 142 55 149 56 151 61 162 62 166 62 167 60 186 39 249 0 249 0 182 20 149 28 136 36 126 38 126 "/><path d="M220 127 242 129 244 130 249 135 249 178 248 178 235 175 217 162 216 159 214 138 214 135 216 128 217 127 220 127 "/><path d="M173 18 226 30 227 31 227 33 225 35 221 38 200 46 197 47 193 47 189 46 187 45 174 37 172 35 168 21 168 19 169 18 173 18 "/></svg>