<svg width="256" height="256" xmlns="http://www.w3.org/2000/svg" fill-opacity="0" stroke="black" stroke-width="3" ><path d="M249 0 249 124 243 148 239 162 237 168 205 201 201 204 198 206 182 210 176 211 155 214 143 214 126 209 90 192 88 191 73 180 69 177 59 169 56 166 48 156 43 147 38 137 34 126 32 117 31 110 31 90 36 61 40 51 46 40 51 32 53 29 57 24 81 0 249 0 "/><path d="M228 212 243 216 246 217 248 218 249 219 249 249 144 249 145 246 176 226 178 225 212 215 227 212 228 212 "/><path d="M60 0 59 2 46 8 11 16 3 14 0 13 0 0 60 0 "/></svg>