<svg width="256" height="256" xmlns="http://www.w3.org/2000/svg" fill-opacity="0" stroke="black" stroke-width="3" ><path d="M149 34 155 36 160 38 180 48 187 54 192 59 194 62 197 67 198 69 200 74 202 84 204 96 206 113 206 128 204 135 198 149 187 165 178 174 175 176 173 177 168 179 155 183 122 176 110 171 87 157 68 136 66 133 65 131 63 121 61 110 61 100 63 94 66 86 69 80 73 74 79 68 84 64 119 38 122 36 126 35 136 34 149 34 "/><path d="M91 0 94 4 101 14 104 20 106 29 106 30 105 33 99 39 94 43 88 47 84 49 81 50 73 51 67 51 63 50 60 49 50 43 39 36 31 27 14 5 13 3 12 0 91 0 "/><path d="M222 0 222 2 221 4 210 15 207 16 194 16 186 15 181 13 179 12 178 11 176 8 175 3 175 0 222 0 "/></svg>