<svg width="256" height="256" xmlns="http://www.w3.org/2000/svg" fill-opacity="0" stroke="black" stroke-width="3" ><path d="M144 55 173 63 179 65 182 67 193 79 194 81 195 85 198 107 197 108 174 128 171 130 162 135 147 141 143 142 119 147 97 140 90 136 87 126 85 111 87 105 110 73 115 68 132 55 144 55 "/><path d="M216 161 221 165 230 173 231 174 234 199 237 228 237 229 236 231 233 235 219 249 134 249 129 244 126 240 110 216 109 210 109 205 110 201 215 161 216 161 "/><path d="M207 45 229 50 230 51 234 57 235 68 235 91 234 93 229 99 227 101 221 106 210 106 209 105 208 103 198 75 198 51 199 50 206 45 207 45 "/><path d="M249 0 249 51 245 56 241 54 222 39 220 36 218 30 221 6 224 0 249 0 "/></svg>