<svg width="256" height="256" xmlns="http://www.w3.org/2000/svg" fill-opacity="0" stroke="black" stroke-width="3" ><path d="M163 49 176 53 180 55 187 60 188 61 192 67 193 69 204 100 205 104 207 123 207 129 206 134 203 146 201 150 195 161 193 164 175 182 171 185 166 188 157 191 140 194 124 194 112 192 98 186 90 182 85 177 76 167 70 160 68 157 66 153 65 149 58 119 60 105 62 98 64 92 80 62 82 59 83 58 88 55 113 47 118 46 163 49 "/><path d="M249 147 248 147 241 143 240 142 230 130 228 125 222 84 221 75 221 74 223 62 225 57 231 51 241 46 249 44 249 147 "/><path d="M7 0 16 17 17 19 17 21 12 42 4 68 3 70 0 73 0 0 7 0 "/></svg>