<svg width="256" height="256" xmlns="http://www.w3.org/2000/svg" fill-opacity="0" stroke="black" stroke-width="3" ><path d="M149 31 158 32 165 33 178 41 203 63 215 78 220 85 222 88 224 92 227 104 228 117 228 142 227 145 219 164 211 180 209 182 188 196 179 200 173 202 159 206 137 206 131 204 122 200 103 190 94 184 68 163 62 157 59 153 51 134 50 131 48 123 48 109 49 97 50 92 51 89 54 82 56 78 71 55 80 47 96 37 104 33 116 31 149 31 "/><path d="M80 0 80 9 78 21 77 24 75 28 66 38 45 51 35 56 29 58 20 58 14 56 9 52 3 46 0 40 0 16 3 11 14 0 80 0 "/><path d="M249 181 249 245 245 246 233 246 227 243 220 238 214 228 213 226 213 223 218 201 222 193 225 190 233 184 235 183 238 182 243 181 249 181 "/><path d="M63 208 75 210 103 216 105 217 109 221 110 225 110 226 109 228 107 231 100 238 35 247 34 247 32 244 31 240 32 231 34 227 47 213 53 209 61 208 63 208 "/></svg>