<svg width="256" height="256" xmlns="http://www.w3.org/2000/svg" fill-opacity="0" stroke="black" stroke-width="3" ><path d="M144 9 207 10 211 12 212 13 214 17 232 174 232 184 231 187 230 188 227 190 213 197 191 206 182 209 173 211 166 211 149 210 137 209 118 205 92 197 83 193 80 191 74 186 66 179 58 170 53 161 52 159 46 144 45 141 42 121 42 98 44 83 48 70 53 58 54 56 59 47 64 41 69 36 77 30 92 20 97 17 106 12 111 10 121 9 144 9 "/><path d="M105 213 111 214 133 218 141 223 150 235 151 238 152 243 149 249 62 249 62 248 63 240 65 234 70 224 71 223 75 220 82 216 87 215 93 214 102 213 105 213 "/><path d="M249 249 195 249 198 235 199 231 200 228 202 224 212 213 218 207 230 200 249 192 249 249 "/></svg>