<svg width="256" height="256" xmlns="http://www.w3.org/2000/svg" fill-opacity="0" stroke="black" stroke-width="3" ><path d="M170 60 186 71 209 96 210 104 210 105 209 108 190 162 188 165 170 185 158 195 150 201 137 206 34 235 16 235 14 234 0 223 0 111 2 110 92 74 130 64 151 61 169 60 170 60 "/><path d="M170 0 170 1 154 36 145 45 130 57 123 59 118 60 98 62 86 63 85 63 71 61 53 57 42 51 30 44 29 43 25 26 24 13 24 12 26 6 29 0 170 0 "/><path d="M226 4 243 42 245 53 245 54 244 59 237 67 233 71 229 72 223 73 204 75 203 75 201 74 191 65 182 53 184 29 195 18 207 7 209 6 223 4 226 4 "/></svg>