<svg width="256" height="256" xmlns="http://www.w3.org/2000/svg" fill-opacity="0" stroke="black" stroke-width="3" ><path d="M152 18 157 19 169 22 172 23 176 26 178 28 187 38 203 60 216 84 218 102 218 109 217 115 210 143 207 152 204 159 202 163 192 180 190 183 172 201 157 212 151 215 134 219 121 220 116 220 113 219 101 212 96 209 93 207 82 197 76 191 71 184 62 167 54 105 54 104 57 97 69 75 73 68 76 63 83 53 89 47 107 34 123 24 134 18 152 18 "/><path d="M1 88 19 92 22 94 30 102 34 108 35 110 40 121 41 143 40 149 37 159 16 172 8 176 3 176 1 175 0 173 0 88 1 88 "/><path d="M249 249 228 249 225 232 225 229 227 223 230 219 239 210 242 208 245 207 249 206 249 249 "/><path d="M16 222 30 225 32 227 37 234 38 240 28 249 0 249 0 226 11 223 15 222 16 222 "/></svg>