<svg width="256" height="256" xmlns="http://www.w3.org/2000/svg" fill-opacity="0" stroke="black" stroke-width="3" ><path d="M95 40 104 42 110 44 115 46 125 51 149 66 150 67 166 97 170 105 172 111 174 119 175 128 175 134 174 139 165 173 158 190 157 192 155 195 145 205 139 209 135 211 121 215 113 217 104 219 90 221 68 221 58 220 54 219 48 217 44 215 39 211 30 203 28 201 22 194 19 190 13 181 7 169 5 163 3 153 3 146 11 98 17 86 19 83 28 71 35 64 43 58 49 54 65 46 76 42 81 41 87 40 95 40 "/><path d="M233 32 240 33 242 34 247 39 249 43 249 115 247 115 236 113 229 110 225 107 217 97 197 70 197 69 199 58 201 49 204 42 205 41 213 36 218 33 232 32 233 32 "/></svg>