<svg width="256" height="256" xmlns="http://www.w3.org/2000/svg" fill-opacity="0" stroke="black" stroke-width="3" ><path d="M163 77 178 81 189 85 205 94 212 98 229 111 231 117 231 119 230 122 226 125 126 173 123 174 104 178 92 178 88 177 72 163 68 158 66 155 65 153 60 138 60 120 64 105 66 102 69 99 78 92 86 86 102 78 106 77 163 77 "/><path d="M14 117 19 119 35 133 40 139 43 145 45 184 45 189 38 215 37 218 33 224 27 230 17 234 12 234 4 232 0 229 0 119 4 117 14 117 "/><path d="M88 211 96 216 135 248 136 249 32 249 36 237 39 232 44 227 56 218 65 213 68 212 73 211 88 211 "/></svg>