<svg width="256" height="256" xmlns="http://www.w3.org/2000/svg" fill-opacity="0" stroke="black" stroke-width="3" ><path d="M113 30 130 31 145 33 159 37 168 41 171 43 179 49 208 71 213 76 223 89 227 97 231 108 233 119 234 131 234 133 227 156 219 173 217 176 212 181 208 184 153 218 143 222 140 223 123 226 115 226 68 214 45 70 48 64 56 55 58 53 68 45 78 39 88 35 94 33 103 31 111 30 113 30 "/><path d="M74 222 88 225 100 229 112 235 124 249 34 249 35 247 42 237 44 235 49 231 55 227 63 223 72 222 74 222 "/><path d="M237 215 241 217 248 223 249 224 249 249 223 249 211 241 210 240 210 223 212 220 216 216 218 215 237 215 "/></svg>