<svg width="256" height="256" xmlns="http://www.w3.org/2000/svg" fill-opacity="0" stroke="black" stroke-width="3" ><path d="M222 194 233 195 243 199 246 201 249 212 249 249 147 249 147 241 155 221 175 201 178 200 219 194 222 194 "/><path d="M152 65 226 116 227 117 228 119 229 123 230 130 231 141 231 142 230 153 228 159 220 172 210 183 202 189 200 189 192 188 128 87 128 83 150 65 152 65 "/><path d="M84 209 93 211 119 217 123 220 125 222 130 228 131 230 135 244 135 245 129 249 44 249 42 247 49 229 54 219 65 211 71 210 83 209 84 209 "/><path d="M1 180 32 201 33 204 34 208 34 211 32 213 27 214 0 218 0 180 1 180 "/></svg>