<svg width="256" height="256" xmlns="http://www.w3.org/2000/svg" fill-opacity="0" stroke="black" stroke-width="3" ><path d="M133 9 213 53 218 56 224 61 237 72 240 77 243 85 244 101 244 112 242 122 232 156 225 178 224 181 216 199 212 206 210 209 204 217 170 246 165 249 0 249 0 115 3 94 4 90 5 88 13 76 16 72 49 45 65 33 97 15 104 13 117 11 131 9 133 9 "/><path d="M84 0 84 1 20 65 14 68 2 71 0 71 0 0 84 0 "/><path d="M248 0 249 1 249 34 232 42 227 41 178 23 176 22 159 11 153 5 152 3 151 0 248 0 "/></svg>