<svg width="256" height="256" xmlns="http://www.w3.org/2000/svg" fill-opacity="0" stroke="black" stroke-width="3" ><path d="M148 32 172 33 219 39 220 40 238 65 249 81 249 135 246 148 245 152 243 159 239 167 194 186 117 213 111 212 99 204 67 168 59 152 48 125 48 124 49 122 71 84 85 67 99 51 109 45 128 37 131 36 142 33 147 32 148 32 "/><path d="M29 145 33 147 46 157 47 158 52 167 53 170 56 187 56 189 54 208 53 211 51 216 30 234 24 237 1 236 0 233 0 149 24 145 29 145 "/><path d="M245 191 246 192 249 198 249 249 231 249 229 248 225 244 220 235 219 233 219 227 220 219 222 209 224 205 227 201 231 197 238 193 242 191 245 191 "/><path d="M182 0 182 5 175 12 169 17 154 24 151 25 139 28 136 28 117 19 115 18 110 15 106 0 182 0 "/><path d="M249 16 245 19 238 24 232 26 222 27 217 27 193 9 192 8 192 7 194 0 241 0 249 8 249 16 "/></svg>