<svg width="256" height="256" xmlns="http://www.w3.org/2000/svg" fill-opacity="0" stroke="black" stroke-width="3" ><path d="M130 45 133 46 137 48 162 62 168 66 187 79 195 87 196 89 199 99 199 110 197 133 187 202 178 235 174 241 172 243 169 245 167 246 161 247 160 247 133 246 128 244 112 233 94 218 70 184 68 181 66 177 58 156 55 114 55 113 56 102 59 96 62 91 66 85 84 66 88 62 94 57 102 51 115 46 119 45 130 45 "/><path d="M8 90 13 94 15 96 17 99 20 106 21 113 21 114 20 160 17 170 16 171 4 182 3 182 0 180 0 90 8 90 "/></svg>