<svg width="256" height="256" xmlns="http://www.w3.org/2000/svg" fill-opacity="0" stroke="black" stroke-width="3" ><path d="M144 58 149 60 166 68 174 72 180 76 192 88 202 100 208 115 210 123 212 132 213 144 210 163 208 168 205 175 204 177 195 189 192 192 184 199 155 220 140 229 134 231 126 233 115 235 96 236 94 236 73 233 57 221 51 216 49 214 43 205 37 194 31 174 30 154 30 153 32 134 36 121 39 114 43 106 46 102 57 88 61 84 72 74 109 59 135 58 144 58 "/><path d="M2 8 10 16 15 24 16 26 20 42 19 46 12 63 0 75 0 7 2 8 "/><path d="M1 152 7 157 10 160 14 168 16 179 16 181 15 190 14 194 12 198 6 206 2 211 0 211 0 152 1 152 "/></svg>