<svg width="256" height="256" xmlns="http://www.w3.org/2000/svg" fill-opacity="0" stroke="black" stroke-width="3" ><path d="M120 15 129 16 134 17 150 23 157 27 193 62 197 66 200 71 206 83 210 92 214 102 216 108 218 116 219 128 219 130 218 150 216 156 214 161 211 166 204 176 175 200 170 204 162 208 153 210 140 212 134 212 128 211 123 210 115 208 103 204 85 195 80 192 71 185 68 182 45 156 43 153 38 145 35 140 27 124 26 117 25 108 25 88 29 71 35 57 37 53 43 43 49 35 62 24 64 23 80 17 84 16 92 15 120 15 "/></svg>