<svg width="256" height="256" xmlns="http://www.w3.org/2000/svg" fill-opacity="0" stroke="black" stroke-width="3" ><path d="M113 40 125 42 160 57 177 65 212 88 219 96 224 102 228 109 229 111 231 119 231 139 229 159 227 165 225 170 223 174 221 177 213 187 205 195 197 200 169 215 167 216 162 217 146 217 143 216 141 215 72 177 62 168 54 159 40 134 40 124 52 94 54 90 69 64 72 59 79 52 93 44 105 40 113 40 "/><path d="M214 0 221 3 225 9 227 14 229 23 230 31 230 32 228 38 202 61 190 61 184 60 177 57 154 44 153 43 148 29 147 17 147 16 154 6 157 3 162 0 214 0 "/></svg>