<svg width="256" height="256" xmlns="http://www.w3.org/2000/svg" fill-opacity="0" stroke="black" stroke-width="3" ><path d="M214 46 217 47 221 49 231 55 244 66 249 71 249 191 247 198 238 208 187 243 185 244 178 245 168 246 151 246 142 241 141 240 108 182 105 176 102 163 101 142 100 120 100 117 101 113 107 90 108 87 113 81 120 74 131 65 146 55 150 53 159 50 169 47 182 44 214 46 "/><path d="M238 223 246 224 249 227 249 249 202 249 202 248 203 245 209 233 212 230 214 229 236 223 238 223 "/><path d="M15 4 17 5 25 10 25 21 14 37 12 39 0 42 0 12 11 5 14 4 15 4 "/></svg>