<svg width="256" height="256" xmlns="http://www.w3.org/2000/svg" fill-opacity="0" stroke="black" stroke-width="3" ><path d="M136 45 143 46 156 48 172 52 179 54 191 60 204 71 208 76 212 82 216 89 220 99 221 108 218 127 217 132 216 134 183 187 182 188 173 192 123 203 116 203 100 193 57 166 50 160 47 155 43 146 41 139 40 132 40 126 41 111 43 104 57 83 72 68 81 61 101 50 126 45 136 45 "/><path d="M40 179 48 180 84 196 105 208 108 210 111 215 114 234 116 248 116 249 0 249 0 243 3 237 33 184 39 179 40 179 "/><path d="M249 245 242 239 240 237 235 230 233 224 231 201 231 196 235 182 241 165 244 159 246 156 249 153 249 245 "/><path d="M1 136 2 137 7 143 11 148 17 159 20 168 20 176 18 182 8 210 2 222 0 224 0 136 1 136 "/></svg>