<svg width="256" height="256" xmlns="http://www.w3.org/2000/svg" fill-opacity="0" stroke="black" stroke-width="3" ><path d="M120 72 146 79 149 80 155 83 163 91 187 129 189 139 190 168 190 177 188 187 185 193 181 199 173 210 169 214 158 214 136 212 112 203 100 198 89 193 76 186 62 178 42 149 42 148 50 116 60 93 62 89 71 80 76 76 82 73 117 72 120 72 "/><path d="M37 182 45 184 50 189 51 191 57 221 57 224 52 236 51 238 41 249 0 249 0 183 21 182 37 182 "/><path d="M105 212 173 219 175 220 177 222 179 225 183 249 71 249 71 246 80 232 84 226 85 225 90 221 99 214 101 213 104 212 105 212 "/></svg>