<svg width="256" height="256" xmlns="http://www.w3.org/2000/svg" fill-opacity="0" stroke="black" stroke-width="3" ><path d="M104 50 113 51 119 52 124 53 179 69 190 73 210 179 210 182 208 190 206 194 199 206 197 209 195 210 187 211 149 214 138 214 107 207 103 206 89 192 81 180 49 128 47 122 46 116 46 113 47 95 51 86 52 84 55 80 75 57 77 55 80 53 83 52 91 50 104 50 "/><path d="M249 0 249 23 202 53 198 55 187 55 170 53 164 51 162 50 147 42 138 36 132 31 111 10 109 6 108 1 108 0 249 0 "/><path d="M249 182 243 182 238 180 226 171 220 166 218 164 204 135 203 129 203 127 205 84 208 77 209 75 220 66 249 56 249 182 "/><path d="M37 143 39 144 48 153 50 156 51 158 53 163 55 170 56 175 56 182 45 217 43 220 33 230 17 238 5 240 0 240 0 182 4 161 23 147 35 143 37 143 "/><path d="M160 231 195 233 198 234 206 237 208 239 213 247 214 249 132 249 133 240 134 238 135 237 141 235 157 231 160 231 "/></svg>