<svg width="256" height="256" xmlns="http://www.w3.org/2000/svg" fill-opacity="0" stroke="black" stroke-width="3" ><path d="M186 26 191 27 195 28 208 34 213 37 227 46 230 48 242 60 246 65 247 67 249 72 249 152 182 196 180 197 176 198 122 186 120 185 115 182 94 168 89 163 83 151 79 142 72 124 71 114 71 88 83 63 98 45 99 44 103 41 106 39 122 30 128 27 143 26 186 26 "/><path d="M16 166 21 167 27 170 30 172 36 178 40 183 45 193 46 196 47 200 48 208 48 220 46 229 43 235 40 240 36 246 33 249 0 249 0 166 16 166 "/><path d="M130 204 135 205 138 206 147 210 150 213 160 224 162 241 162 249 69 249 71 243 77 228 79 224 81 221 101 209 129 204 130 204 "/><path d="M249 171 249 234 248 234 215 205 212 202 211 197 211 192 216 184 219 180 221 179 240 172 246 171 249 171 "/></svg>