<svg width="256" height="256" xmlns="http://www.w3.org/2000/svg" fill-opacity="0" stroke="black" stroke-width="3" ><path d="M178 35 181 36 189 40 197 47 202 54 204 58 208 68 212 96 220 159 220 164 216 180 215 183 210 189 199 200 188 209 182 212 175 215 104 222 94 222 87 221 84 220 82 219 74 213 63 203 55 193 51 187 47 175 46 156 46 155 47 135 51 100 67 71 69 69 90 58 105 52 126 45 136 42 167 36 176 35 178 35 "/><path d="M26 102 30 106 33 112 33 113 30 136 28 144 27 147 24 155 14 171 12 174 10 176 7 178 0 181 0 152 11 112 12 110 17 106 21 103 24 102 26 102 "/><path d="M15 40 20 43 26 49 28 52 33 65 19 69 17 69 0 64 0 50 2 44 3 42 5 40 15 40 "/></svg>