<svg width="256" height="256" xmlns="http://www.w3.org/2000/svg" fill-opacity="0" stroke="black" stroke-width="3" ><path d="M121 74 130 75 135 76 144 79 151 82 156 85 164 92 171 99 173 102 178 111 180 117 183 144 183 156 175 171 167 181 162 186 158 189 151 192 143 195 135 196 132 196 127 194 120 191 112 187 104 181 98 176 81 156 77 151 76 149 70 134 68 124 68 122 69 117 70 114 78 94 86 86 93 80 101 77 113 74 121 74 "/><path d="M57 169 62 172 72 181 81 190 101 211 107 221 110 236 110 245 109 249 0 249 0 187 1 184 6 179 54 169 57 169 "/></svg>