<svg width="256" height="256" xmlns="http://www.w3.org/2000/svg" fill-opacity="0" stroke="black" stroke-width="3" ><path d="M125 34 142 36 148 38 158 42 166 46 183 56 189 62 194 68 202 84 206 96 207 106 208 122 208 127 207 143 206 148 205 151 202 159 201 161 179 188 178 189 166 199 156 205 150 207 138 210 129 212 115 212 104 211 101 210 93 207 86 204 76 199 69 194 63 189 60 185 56 179 40 145 35 133 33 125 33 112 34 108 36 102 37 100 41 94 63 63 71 53 73 51 77 48 87 41 89 40 96 38 106 36 114 35 123 34 125 34 "/><path d="M3 132 6 134 10 138 14 144 58 214 59 217 59 220 58 223 56 228 54 232 42 244 34 249 0 249 0 131 3 132 "/><path d="M31 40 37 42 42 45 50 59 50 66 47 72 44 75 26 79 25 79 18 76 10 68 9 65 9 55 11 50 15 45 17 43 21 41 24 40 31 40 "/></svg>