<svg width="256" height="256" xmlns="http://www.w3.org/2000/svg" fill-opacity="0" stroke="black" stroke-width="3" ><path d="M125 43 141 49 150 53 152 54 159 61 200 110 202 113 204 120 206 129 207 134 207 140 206 146 192 178 189 182 185 186 180 190 168 198 160 202 150 206 144 208 140 209 128 210 106 206 102 205 100 204 75 191 66 185 61 180 53 171 48 163 47 161 43 149 39 136 39 110 41 98 47 89 60 70 68 61 72 58 98 45 111 43 125 43 "/><path d="M249 0 249 120 247 120 244 119 238 116 183 87 182 86 168 65 161 33 161 27 166 8 167 5 175 0 249 0 "/></svg>