<svg width="256" height="256" xmlns="http://www.w3.org/2000/svg" fill-opacity="0" stroke="black" stroke-width="3" ><path d="M139 35 161 63 167 72 179 95 179 96 178 107 174 124 168 138 167 139 148 151 122 165 114 169 100 172 92 171 73 162 61 154 58 151 57 149 55 143 48 120 47 111 46 100 51 77 63 61 97 43 135 35 139 35 "/><path d="M186 218 188 220 192 225 199 239 200 243 201 249 139 249 139 245 141 239 147 229 153 224 155 223 183 217 186 218 "/><path d="M163 24 167 25 196 37 203 41 218 55 226 67 230 77 232 83 232 90 229 90 212 81 157 33 155 31 154 28 154 26 155 25 157 24 163 24 "/></svg>