<svg width="256" height="256" xmlns="http://www.w3.org/2000/svg" fill-opacity="0" stroke="black" stroke-width="3" ><path d="M18 134 165 139 167 141 168 143 168 184 166 188 165 189 154 197 142 205 135 208 122 212 111 213 102 213 91 212 85 210 81 208 38 180 35 178 33 176 28 170 22 162 21 160 19 155 17 146 16 139 16 134 18 134 "/><path d="M216 0 218 2 220 8 220 20 214 37 213 38 202 46 199 48 186 54 185 54 178 53 162 49 160 47 151 34 147 23 147 20 148 7 149 0 216 0 "/><path d="M239 73 249 75 249 147 248 148 221 148 219 147 216 145 215 144 213 140 208 127 207 122 205 107 203 89 203 86 212 75 214 74 237 73 239 73 "/><path d="M105 39 120 42 145 53 157 59 160 61 164 67 163 69 162 70 156 72 70 77 67 77 63 76 59 73 58 70 61 55 63 51 67 49 82 44 101 39 105 39 "/><path d="M19 227 46 233 54 235 67 240 68 241 70 246 70 249 0 249 0 229 2 228 5 227 19 227 "/><path d="M35 199 48 203 50 204 57 211 60 217 61 221 61 222 46 228 35 228 30 227 27 225 22 221 19 218 18 215 17 211 17 208 18 202 21 199 35 199 "/></svg>