<svg width="256" height="256" xmlns="http://www.w3.org/2000/svg" fill-opacity="0" stroke="black" stroke-width="3" ><path d="M146 30 163 33 170 35 180 39 184 41 192 46 194 48 201 56 203 59 212 74 213 76 216 83 221 100 222 104 223 117 223 132 222 137 220 143 216 153 213 158 203 171 197 178 187 189 174 202 169 206 166 208 163 209 147 212 135 214 121 216 117 216 108 214 92 208 84 204 77 200 68 193 57 183 56 182 48 173 43 166 39 158 37 153 33 133 33 113 34 106 37 92 38 90 44 79 48 74 53 68 55 66 59 63 115 35 120 33 126 31 142 30 146 30 "/><path d="M249 249 209 249 203 247 200 244 199 242 197 237 194 226 193 215 193 214 196 209 218 182 221 179 224 177 230 174 249 165 249 249 "/><path d="M113 0 113 1 111 8 110 11 97 24 92 28 88 30 63 42 59 43 53 44 47 44 40 42 37 41 29 38 23 33 17 27 11 20 8 10 7 5 7 0 113 0 "/></svg>