<svg width="256" height="256" xmlns="http://www.w3.org/2000/svg" fill-opacity="0" stroke="black" stroke-width="3" ><path d="M139 58 149 60 151 61 165 70 169 73 184 87 187 90 191 95 193 98 197 107 199 113 201 125 202 136 202 145 200 165 195 181 187 198 185 201 176 210 134 225 127 225 104 217 98 213 94 210 85 201 79 194 75 189 60 168 56 158 52 146 48 124 48 121 50 117 73 84 81 75 85 72 107 62 114 60 128 58 139 58 "/><path d="M249 5 249 129 233 132 229 131 224 127 211 110 207 102 198 75 198 62 200 53 205 39 216 19 218 17 225 12 236 8 243 6 248 5 249 5 "/><path d="M86 0 87 3 90 30 90 37 85 49 83 53 79 57 70 63 58 68 57 68 51 66 48 63 0 7 0 0 86 0 "/><path d="M5 159 8 160 17 165 22 170 24 173 26 177 29 186 36 226 36 230 35 236 33 245 32 249 0 249 0 159 5 159 "/></svg>