<svg width="256" height="256" xmlns="http://www.w3.org/2000/svg" fill-opacity="0" stroke="black" stroke-width="3" ><path d="M123 31 193 61 196 63 211 76 214 79 224 95 225 97 227 104 227 115 223 162 221 167 219 171 217 174 211 181 209 183 205 186 198 189 195 190 80 207 77 205 64 194 62 189 42 135 40 128 38 115 38 105 46 85 49 78 50 76 63 65 74 56 87 46 106 35 120 31 123 31 "/><path d="M196 0 196 1 194 4 185 13 176 19 173 20 163 22 156 23 135 23 125 19 113 14 110 5 109 1 109 0 196 0 "/><path d="M9 143 15 144 21 146 25 150 29 159 29 166 28 169 13 201 11 204 2 213 0 214 0 146 6 143 9 143 "/><path d="M90 0 90 2 87 11 85 15 79 24 73 31 72 32 63 40 51 46 44 49 35 52 22 54 10 54 1 52 0 51 0 40 51 8 54 7 77 0 90 0 "/></svg>