<svg width="256" height="256" xmlns="http://www.w3.org/2000/svg" fill-opacity="0" stroke="black" stroke-width="3" ><path d="M118 46 126 49 128 50 162 68 165 70 173 78 178 84 183 91 185 94 187 100 192 117 193 123 194 134 194 139 193 143 191 149 187 157 183 163 175 174 167 183 165 185 163 186 159 187 150 188 139 186 97 177 94 176 56 151 54 148 50 138 49 135 49 134 50 127 60 89 63 84 74 67 85 56 89 53 91 52 101 48 109 46 118 46 "/><path d="M102 186 115 188 155 204 165 216 166 218 172 234 175 249 26 249 26 246 32 231 37 222 48 208 49 207 60 197 65 194 69 192 74 190 80 188 87 187 98 186 102 186 "/><path d="M249 236 240 248 239 249 237 249 182 240 180 231 177 212 177 211 178 205 180 199 232 63 245 48 249 44 249 236 "/><path d="M249 0 249 19 247 33 246 34 243 35 190 48 181 48 174 47 166 45 160 43 152 39 127 21 126 20 121 14 118 10 116 5 116 0 249 0 "/><path d="M11 28 16 29 19 30 25 33 36 41 40 45 45 51 50 59 51 61 52 65 53 70 54 79 54 81 42 104 33 112 30 114 28 115 18 119 9 119 2 116 0 115 0 28 11 28 "/></svg>