<svg width="256" height="256" xmlns="http://www.w3.org/2000/svg" fill-opacity="0" stroke="black" stroke-width="3" ><path d="M146 61 164 69 165 70 167 75 173 116 172 149 163 165 147 181 140 184 131 185 130 185 99 180 94 179 92 178 87 175 83 172 82 170 78 159 69 124 69 120 72 109 81 98 111 68 116 65 125 61 146 61 "/><path d="M249 78 249 194 239 198 237 198 217 195 210 192 200 185 199 184 199 167 201 126 204 117 205 115 221 87 222 86 225 84 242 79 248 78 249 78 "/><path d="M29 102 37 108 40 111 41 113 41 118 40 137 38 158 36 163 23 178 18 183 16 184 15 184 6 183 0 180 0 126 1 123 8 111 18 104 20 103 24 102 29 102 "/></svg>