<svg width="256" height="256" xmlns="http://www.w3.org/2000/svg" fill-opacity="0" stroke="black" stroke-width="3" ><path d="M112 60 156 64 161 65 163 66 177 84 187 99 224 165 222 167 127 197 109 200 106 200 92 197 86 194 68 181 62 175 53 162 45 143 42 120 42 117 43 108 46 90 49 87 79 68 81 67 109 60 112 60 "/><path d="M203 184 215 185 219 186 226 189 234 193 249 204 249 249 248 249 204 231 202 230 189 220 179 211 177 209 176 207 176 202 180 194 190 186 196 184 203 184 "/><path d="M249 42 249 106 247 109 244 109 239 104 227 89 226 85 225 70 225 68 226 62 228 56 232 50 236 46 238 45 248 42 249 42 "/></svg>