<svg width="256" height="256" xmlns="http://www.w3.org/2000/svg" fill-opacity="0" stroke="black" stroke-width="3" ><path d="M116 34 133 36 138 37 142 38 157 42 162 44 170 48 176 53 188 65 194 74 198 81 200 85 206 101 208 112 208 133 204 147 198 159 193 168 191 171 176 186 172 189 144 202 117 211 104 209 94 207 84 202 77 197 65 185 57 176 47 157 41 141 39 133 38 128 38 120 39 109 40 103 45 81 46 78 48 73 49 71 51 68 63 56 70 50 74 47 79 44 91 37 93 36 96 35 102 34 116 34 "/><path d="M184 206 193 207 199 209 212 214 214 215 216 217 219 221 222 226 227 235 230 249 179 249 157 240 156 239 155 237 154 229 154 225 158 220 178 208 180 207 183 206 184 206 "/></svg>