<svg width="256" height="256" xmlns="http://www.w3.org/2000/svg" fill-opacity="0" stroke="black" stroke-width="3" ><path d="M145 28 151 30 156 32 158 33 192 54 197 58 200 61 206 68 212 76 216 83 219 89 224 104 226 113 228 124 228 160 224 172 216 190 208 204 194 227 186 235 180 239 176 241 173 242 168 243 126 245 123 245 49 197 47 195 15 159 12 153 11 150 11 141 17 97 19 90 20 87 25 76 29 70 51 45 52 44 56 42 73 35 76 34 83 32 87 31 92 30 106 29 126 28 145 28 "/><path d="M152 0 152 1 151 3 149 6 145 10 136 17 132 19 123 21 109 21 100 20 93 17 87 13 83 10 78 5 75 0 152 0 "/><path d="M249 170 246 167 229 74 229 62 230 60 239 48 242 45 244 44 249 42 249 170 "/></svg>