<svg width="256" height="256" xmlns="http://www.w3.org/2000/svg" fill-opacity="0" stroke="black" stroke-width="3" ><path d="M131 57 137 58 141 59 152 64 156 66 170 79 204 124 206 131 206 135 197 164 165 194 147 197 144 197 109 183 103 180 94 175 89 172 86 170 80 165 76 160 72 154 68 146 66 141 64 134 63 130 62 124 62 122 63 112 64 106 69 95 74 85 78 79 88 69 91 67 95 65 107 60 110 59 121 57 131 57 "/><path d="M82 185 96 187 102 188 117 197 122 201 125 204 137 219 145 231 147 236 149 242 150 249 0 249 0 202 18 193 23 191 47 185 82 185 "/><path d="M247 169 249 170 249 249 176 249 174 243 173 239 172 234 172 230 179 210 180 208 184 201 188 196 201 183 212 175 214 174 218 173 242 169 247 169 "/></svg>