<svg width="256" height="256" xmlns="http://www.w3.org/2000/svg" fill-opacity="0" stroke="black" stroke-width="3" ><path d="M121 41 129 43 160 53 165 55 179 69 202 99 204 102 210 112 211 116 212 122 214 136 214 137 213 150 212 155 208 171 205 178 200 185 187 200 185 202 134 249 0 249 0 119 46 70 51 65 59 59 66 55 70 53 76 51 109 42 115 41 121 41 "/><path d="M249 0 249 104 245 105 235 105 221 103 210 95 204 89 193 73 190 66 185 51 186 38 188 30 189 27 194 19 203 10 209 7 245 0 249 0 "/><path d="M144 0 105 26 102 27 99 27 57 18 45 15 37 7 34 1 34 0 144 0 "/></svg>