<svg width="256" height="256" xmlns="http://www.w3.org/2000/svg" fill-opacity="0" stroke="black" stroke-width="3" ><path d="M153 49 162 51 168 53 173 55 187 67 189 69 199 84 210 122 211 126 211 127 209 141 202 162 197 174 189 187 184 192 176 199 166 204 158 206 145 206 67 202 61 200 57 198 52 195 48 192 39 183 36 178 32 171 24 153 21 146 20 140 20 126 22 113 23 108 24 104 26 99 31 87 41 72 57 56 71 45 153 49 "/><path d="M246 210 249 211 249 249 215 249 211 244 211 227 213 224 216 220 221 215 226 213 234 211 245 210 246 210 "/><path d="M3 0 25 13 26 16 26 20 22 35 21 38 17 47 13 54 7 62 0 69 0 0 3 0 "/><path d="M208 248 208 249 146 249 155 240 207 226 208 248 "/></svg>