<svg width="256" height="256" xmlns="http://www.w3.org/2000/svg" fill-opacity="0" stroke="black" stroke-width="3" ><path d="M129 3 150 22 208 80 215 90 219 102 215 129 213 140 209 151 207 156 201 169 197 177 193 184 184 193 156 213 100 249 3 249 3 248 30 51 70 22 80 16 101 7 112 3 129 3 "/><path d="M249 138 249 204 229 240 216 249 166 249 159 247 153 245 151 243 151 242 228 150 234 144 239 141 241 140 248 138 249 138 "/><path d="M249 0 249 16 221 61 220 62 214 65 210 65 203 61 195 56 183 48 161 31 158 14 158 0 249 0 "/></svg>