<svg width="256" height="256" xmlns="http://www.w3.org/2000/svg" fill-opacity="0" stroke="black" stroke-width="3" ><path d="M141 21 161 25 170 27 192 37 208 62 210 66 213 73 219 89 220 93 220 109 217 124 210 151 208 155 206 158 195 169 147 200 142 203 140 204 133 205 118 207 109 207 103 206 98 205 59 197 57 196 54 194 49 189 40 176 37 158 37 141 39 133 41 127 71 61 77 50 85 38 107 26 111 24 114 23 119 22 135 21 141 21 "/><path d="M26 31 44 34 47 36 53 44 61 55 62 57 63 61 63 70 59 82 55 88 50 95 48 97 31 107 19 110 5 112 0 112 0 40 4 35 7 32 25 31 26 31 "/><path d="M175 196 249 215 249 249 140 249 140 248 143 238 153 214 167 200 172 197 174 196 175 196 "/></svg>