<svg width="256" height="256" xmlns="http://www.w3.org/2000/svg" fill-opacity="0" stroke="black" stroke-width="3" ><path d="M99 13 135 15 154 22 158 24 171 36 172 37 182 49 186 54 196 70 204 93 205 115 205 117 204 128 196 154 195 157 188 168 173 187 156 200 100 210 98 210 88 209 55 198 54 197 42 178 35 156 29 133 23 107 23 105 26 55 39 39 43 35 59 23 86 13 99 13 "/><path d="M249 177 249 249 181 249 178 242 178 241 179 237 180 234 219 186 220 185 226 180 241 177 249 177 "/><path d="M14 229 35 233 38 235 40 244 40 245 32 249 0 249 0 231 2 230 12 229 14 229 "/></svg>