<svg width="256" height="256" xmlns="http://www.w3.org/2000/svg" fill-opacity="0" stroke="black" stroke-width="3" ><path d="M202 136 201 144 196 160 184 188 177 196 174 199 159 210 156 212 151 214 145 216 132 216 125 214 122 213 63 190 39 173 38 171 11 97 12 94 14 89 22 71 24 67 28 61 34 53 44 43 50 39 61 33 65 31 130 28 133 29 137 31 158 42 161 44 171 52 173 54 185 68 187 72 197 93 198 96 199 100 200 108 201 117 202 133 202 136 "/><path d="M108 223 114 227 129 239 130 240 131 249 55 249 61 238 86 225 95 224 106 223 108 223 "/></svg>