<svg width="256" height="256" xmlns="http://www.w3.org/2000/svg" fill-opacity="0" stroke="black" stroke-width="3" ><path d="M231 32 249 76 249 168 248 169 232 180 225 184 217 187 207 189 126 197 117 197 101 193 99 192 91 187 88 184 73 165 70 161 68 156 67 150 67 144 70 139 106 97 154 50 157 48 166 43 172 40 181 37 185 36 230 32 231 32 "/><path d="M151 201 161 203 166 208 175 220 182 231 182 234 181 235 160 249 79 249 79 248 106 211 108 209 140 201 151 201 "/><path d="M239 0 237 2 223 9 212 13 198 15 180 15 175 13 166 9 162 5 161 2 161 0 239 0 "/></svg>