<svg width="256" height="256" xmlns="http://www.w3.org/2000/svg" fill-opacity="0" stroke="black" stroke-width="3" ><path d="M93 38 114 39 119 40 122 41 135 46 137 47 163 62 168 65 191 83 196 88 199 92 202 97 207 106 209 111 211 119 213 129 213 156 212 168 211 172 207 182 203 190 201 193 192 202 188 205 185 207 175 213 169 215 165 216 154 217 140 217 133 216 127 214 123 212 112 206 86 188 77 180 70 173 60 162 56 156 48 143 44 135 40 124 38 118 36 111 35 105 34 98 34 93 35 79 36 75 38 70 41 65 48 57 50 55 55 51 58 49 63 46 65 45 70 43 82 39 90 38 93 38 "/></svg>