<svg width="256" height="256" xmlns="http://www.w3.org/2000/svg" fill-opacity="0" stroke="black" stroke-width="3" ><path d="M120 24 135 26 156 33 159 35 228 87 229 89 229 98 226 157 225 161 216 196 213 204 98 249 0 249 0 178 64 51 67 47 70 44 76 41 103 28 115 24 120 24 "/><path d="M207 0 207 2 205 7 204 9 201 13 193 22 189 24 172 24 169 23 164 21 162 20 155 15 154 14 147 6 145 3 145 0 207 0 "/><path d="M249 208 249 249 229 249 223 246 222 234 222 233 224 226 227 220 237 210 242 208 249 208 "/><path d="M213 18 213 29 209 45 203 50 201 50 190 47 182 40 182 39 183 37 192 27 206 14 213 18 "/></svg>