<svg width="256" height="256" xmlns="http://www.w3.org/2000/svg" fill-opacity="0" stroke="black" stroke-width="3" ><path d="M30 192 37 193 75 202 93 207 105 213 108 215 108 231 106 242 104 246 102 249 14 249 3 246 1 228 1 222 6 212 13 204 15 202 29 192 30 192 "/><path d="M91 0 93 2 93 4 89 23 84 30 68 45 65 45 54 40 53 39 38 11 38 3 39 0 91 0 "/><path d="M166 143 171 172 169 181 158 190 155 192 124 192 123 191 137 152 164 139 166 143 "/><path d="M130 49 131 52 132 57 132 62 119 102 118 105 113 107 112 107 111 106 94 87 94 67 100 62 108 57 117 52 129 49 130 49 "/><path d="M124 129 134 130 135 131 131 161 129 162 103 166 88 163 87 153 87 149 89 147 104 139 123 129 124 129 "/><path d="M160 79 172 80 176 84 176 85 163 110 159 117 158 117 137 101 134 93 134 92 136 88 154 80 159 79 160 79 "/></svg>