<svg width="256" height="256" xmlns="http://www.w3.org/2000/svg" fill-opacity="0" stroke="black" stroke-width="3" ><path d="M144 34 151 35 156 36 168 40 176 43 181 45 188 48 191 50 195 53 208 66 211 70 214 76 220 90 221 94 222 105 222 117 221 130 220 135 219 139 216 150 213 156 196 178 185 189 175 196 170 199 168 200 165 201 155 203 129 203 120 202 117 201 96 189 93 187 86 182 74 170 69 164 67 159 64 150 62 133 62 111 63 103 65 95 68 87 73 76 78 67 85 57 86 56 103 44 111 40 123 36 130 34 144 34 "/></svg>