<svg width="256" height="256" xmlns="http://www.w3.org/2000/svg" fill-opacity="0" stroke="black" stroke-width="3" ><path d="M154 30 177 36 179 37 186 41 189 43 195 48 203 55 212 67 225 90 231 113 231 126 230 133 229 138 223 156 222 158 219 163 209 178 194 193 188 197 181 201 171 206 168 207 152 211 130 211 115 210 107 208 98 205 86 198 82 195 77 191 68 183 58 172 53 165 51 161 48 154 45 146 43 140 41 132 41 131 42 110 43 105 47 94 57 73 66 62 73 55 85 46 107 33 112 31 121 30 154 30 "/><path d="M249 181 249 249 205 249 201 240 199 229 198 220 198 217 206 197 214 187 222 182 239 181 249 181 "/><path d="M50 0 51 13 47 19 36 30 28 36 26 37 18 38 6 39 0 39 0 0 50 0 "/></svg>