<svg width="256" height="256" xmlns="http://www.w3.org/2000/svg" fill-opacity="0" stroke="black" stroke-width="3" ><path d="M143 15 167 22 174 26 188 36 189 37 196 45 198 48 204 58 209 67 210 71 212 87 211 99 207 138 204 153 203 156 199 167 194 173 191 176 186 180 183 182 169 190 167 191 129 209 119 213 112 215 99 215 89 213 85 212 81 210 73 205 67 199 21 132 20 130 18 118 19 111 20 107 26 88 33 72 37 67 42 61 44 59 55 51 117 17 119 16 123 15 131 14 143 15 "/><path d="M11 140 29 148 38 158 47 174 47 198 46 201 43 206 33 213 28 215 18 216 12 215 3 213 0 212 0 141 5 140 11 140 "/><path d="M249 187 248 187 245 186 239 183 233 177 228 171 221 153 221 152 222 120 226 104 227 101 233 85 236 78 237 76 245 68 249 66 249 187 "/><path d="M160 218 176 226 187 242 188 244 170 249 128 249 128 248 131 240 135 232 142 223 145 221 155 218 160 218 "/><path d="M225 222 238 223 240 225 245 235 246 241 246 249 204 249 204 248 205 246 220 222 225 222 "/></svg>