<svg width="256" height="256" xmlns="http://www.w3.org/2000/svg" fill-opacity="0" stroke="black" stroke-width="3" ><path d="M129 33 145 35 155 38 158 39 167 45 179 63 183 71 185 78 185 93 183 118 177 130 169 144 150 163 125 174 119 176 97 180 86 180 83 179 75 176 70 173 64 168 58 162 49 148 41 132 40 129 37 115 36 109 37 103 38 98 39 94 44 85 46 82 54 71 65 57 76 49 93 41 114 35 123 33 129 33 "/><path d="M8 8 11 10 17 15 20 18 34 36 43 48 43 49 37 75 36 78 33 85 30 88 20 94 10 94 6 92 0 86 0 7 3 6 8 8 "/></svg>