<svg width="256" height="256" xmlns="http://www.w3.org/2000/svg" fill-opacity="0" stroke="black" stroke-width="3" ><path d="M158 25 163 27 196 41 225 58 234 76 234 77 225 156 224 160 220 169 207 190 169 217 167 218 138 221 127 222 120 222 90 214 56 198 54 196 48 187 40 173 39 167 39 137 54 75 55 73 59 69 74 55 143 29 157 25 158 25 "/><path d="M1 80 11 88 19 99 21 104 25 120 25 137 21 147 19 151 16 154 6 163 2 164 0 164 0 80 1 80 "/><path d="M249 152 238 144 236 142 233 138 231 135 230 132 230 126 231 119 232 114 248 64 249 62 249 152 "/></svg>