<svg width="256" height="256" xmlns="http://www.w3.org/2000/svg" fill-opacity="0" stroke="black" stroke-width="3" ><path d="M133 36 137 37 143 39 164 48 170 51 188 63 192 66 201 75 203 78 207 85 208 87 212 97 213 118 213 128 212 136 211 143 210 146 202 159 200 162 193 172 187 180 178 191 170 199 152 208 142 210 136 211 132 211 109 209 102 208 96 206 77 193 73 190 68 186 65 183 48 158 46 154 44 146 42 132 42 130 46 101 47 98 51 88 57 74 59 71 62 67 77 55 101 43 106 41 117 37 129 36 133 36 "/><path d="M56 0 57 1 63 14 64 17 67 37 67 38 35 50 31 51 29 51 25 50 13 44 6 38 0 32 0 3 53 0 56 0 "/></svg>