<svg width="256" height="256" xmlns="http://www.w3.org/2000/svg" fill-opacity="0" stroke="black" stroke-width="3" ><path d="M138 31 143 32 147 34 202 69 205 71 213 79 218 98 219 103 220 112 220 121 219 127 215 141 213 147 209 155 203 165 198 172 191 181 179 195 170 204 164 209 161 211 157 213 152 215 139 219 127 221 106 221 102 220 97 218 54 191 46 181 30 151 28 147 26 141 25 137 25 126 26 108 28 100 30 94 38 75 41 70 45 64 57 56 61 54 121 32 125 31 138 31 "/><path d="M249 28 249 94 247 94 239 92 236 91 223 78 221 75 220 70 219 54 219 52 221 47 222 45 226 39 231 34 237 30 239 29 247 28 249 28 "/><path d="M121 0 119 3 113 10 111 12 103 16 67 26 56 27 53 26 44 19 42 17 38 3 38 0 121 0 "/><path d="M231 177 249 179 249 207 218 208 216 208 211 207 205 205 203 204 201 202 201 200 202 196 212 185 213 184 218 180 222 178 225 177 231 177 "/></svg>