<svg width="256" height="256" xmlns="http://www.w3.org/2000/svg" fill-opacity="0" stroke="black" stroke-width="3" ><path d="M124 50 127 51 132 53 151 61 154 63 170 75 174 79 178 85 179 88 182 100 183 105 195 173 195 177 194 182 193 186 192 188 188 193 182 199 179 201 170 206 168 207 163 208 150 208 140 205 138 204 131 200 125 194 85 146 65 114 64 112 59 98 55 86 55 84 59 75 80 59 83 57 91 53 96 51 100 50 124 50 "/><path d="M49 120 52 123 94 182 98 188 98 194 95 196 78 204 59 211 23 221 17 221 0 198 0 139 5 134 15 126 17 125 46 119 49 120 "/><path d="M118 214 156 230 160 234 168 246 169 248 169 249 73 249 73 248 75 241 87 223 89 221 93 219 105 214 118 214 "/></svg>