<svg width="256" height="256" xmlns="http://www.w3.org/2000/svg" fill-opacity="0" stroke="black" stroke-width="3" ><path d="M124 36 130 37 133 38 140 41 144 43 147 45 152 49 158 56 162 61 179 89 180 91 185 102 189 114 188 131 184 143 166 172 157 178 150 182 146 184 141 186 138 187 131 188 111 189 106 189 95 188 82 184 75 181 69 178 59 168 48 151 48 149 50 119 53 86 57 71 62 66 67 62 76 55 87 47 93 43 103 39 109 37 118 36 124 36 "/><path d="M92 201 122 202 141 203 165 211 168 214 169 216 168 218 150 230 127 240 110 246 107 247 73 246 70 242 69 240 67 235 66 228 65 215 65 214 67 210 73 204 76 203 85 201 92 201 "/><path d="M5 185 10 187 14 189 19 193 22 196 29 207 32 212 36 228 36 240 35 246 34 249 0 249 0 185 5 185 "/><path d="M40 0 40 1 38 8 28 27 22 33 18 36 14 38 0 39 0 0 40 0 "/></svg>