<svg width="256" height="256" xmlns="http://www.w3.org/2000/svg" fill-opacity="0" stroke="black" stroke-width="3" ><path d="M139 33 145 34 150 35 165 40 174 44 177 46 194 60 197 63 202 71 203 73 210 89 213 98 214 102 217 121 217 128 212 158 210 169 196 184 191 188 182 195 166 203 150 209 144 210 131 210 111 207 104 205 82 195 76 192 58 175 55 172 49 165 44 155 42 148 41 144 39 134 38 117 38 115 39 110 45 98 51 88 67 63 72 58 81 50 89 44 108 38 120 35 133 33 139 33 "/><path d="M12 216 18 217 31 220 34 221 44 226 47 228 54 234 64 244 65 246 66 249 0 249 0 216 12 216 "/></svg>