<svg width="256" height="256" xmlns="http://www.w3.org/2000/svg" fill-opacity="0" stroke="black" stroke-width="3" ><path d="M110 0 188 73 188 78 187 82 183 96 179 108 155 160 153 164 149 171 131 196 127 200 123 203 114 209 113 209 2 190 1 189 1 188 3 124 18 75 33 33 41 17 58 0 110 0 "/><path d="M233 0 249 16 249 80 242 83 229 86 222 86 216 85 213 84 209 82 196 69 195 67 194 62 183 0 233 0 "/><path d="M181 143 213 154 216 157 216 158 214 198 210 220 202 249 188 249 187 248 180 229 170 198 168 188 167 175 167 168 170 155 171 151 172 149 174 146 179 143 181 143 "/></svg>