<svg width="256" height="256" xmlns="http://www.w3.org/2000/svg" fill-opacity="0" stroke="black" stroke-width="3" ><path d="M138 39 146 40 155 43 167 48 174 53 186 63 195 73 204 88 208 99 209 104 210 110 211 128 210 141 209 146 204 161 200 169 197 174 194 178 190 183 179 194 165 202 155 206 152 207 140 210 135 211 125 212 120 212 110 211 100 208 88 203 86 202 79 198 75 195 61 183 52 170 48 162 43 151 41 144 40 127 40 114 41 97 43 91 45 87 53 74 59 67 67 59 77 51 84 47 88 45 96 42 102 40 110 39 138 39 "/></svg>