<svg width="256" height="256" xmlns="http://www.w3.org/2000/svg" fill-opacity="0" stroke="black" stroke-width="3" ><path d="M110 183 121 184 128 185 132 186 135 187 139 189 149 196 156 203 159 208 161 212 164 219 164 225 160 232 155 237 142 249 98 249 88 245 86 244 85 243 74 202 74 198 75 195 76 194 80 191 86 188 103 183 110 183 "/><path d="M24 71 26 72 46 107 48 112 49 115 52 127 52 130 50 135 41 152 32 167 30 170 24 178 12 182 3 184 0 183 0 62 24 71 "/><path d="M57 0 58 1 58 3 56 13 54 18 47 30 44 35 42 38 40 40 31 46 16 50 15 50 10 48 3 44 1 42 0 40 0 0 57 0 "/><path d="M240 72 242 74 244 78 244 111 239 120 233 126 231 124 210 81 210 77 211 73 212 70 213 68 224 64 240 72 "/></svg>