<svg width="256" height="256" xmlns="http://www.w3.org/2000/svg" fill-opacity="0" stroke="black" stroke-width="3" ><path d="M152 9 159 11 166 14 172 17 175 19 179 24 182 28 184 31 228 100 230 104 232 111 232 121 231 129 230 134 229 137 227 142 224 148 214 162 211 166 194 183 184 189 172 195 169 196 165 197 152 200 140 201 130 201 127 200 122 198 113 194 109 192 102 188 87 179 82 175 78 171 73 164 55 136 52 130 50 124 49 120 49 109 51 98 57 83 61 74 64 68 71 55 81 41 88 33 89 32 93 29 102 23 122 13 126 12 131 11 146 9 152 9 "/><path d="M249 0 249 80 248 80 245 79 239 73 235 68 218 43 216 40 211 31 197 5 197 0 249 0 "/></svg>