<svg width="256" height="256" xmlns="http://www.w3.org/2000/svg" fill-opacity="0" stroke="black" stroke-width="3" ><path d="M132 28 147 31 158 34 178 40 180 42 191 55 199 65 208 79 211 84 215 130 215 132 210 146 203 159 199 165 190 176 182 185 181 186 174 191 156 203 149 207 127 215 116 217 109 218 30 218 18 156 18 120 19 116 22 108 29 94 41 76 51 62 57 56 70 44 74 41 82 36 86 34 95 31 105 30 128 28 132 28 "/><path d="M94 224 101 230 107 236 108 238 110 246 110 249 51 249 52 246 54 242 60 232 62 229 68 226 80 222 94 224 "/></svg>