<svg width="256" height="256" xmlns="http://www.w3.org/2000/svg" fill-opacity="0" stroke="black" stroke-width="3" ><path d="M137 43 164 44 169 46 173 48 176 50 189 63 197 72 201 78 204 83 205 85 207 90 207 138 205 144 204 146 201 149 145 203 141 205 133 208 117 210 106 211 104 211 96 207 88 201 48 159 45 155 44 153 42 145 42 143 46 122 48 118 62 94 64 91 66 89 88 70 91 68 123 49 132 44 136 43 137 43 "/><path d="M233 134 246 150 249 166 249 201 246 207 242 212 228 227 206 249 185 249 169 241 166 238 164 231 163 224 163 210 164 207 172 194 178 185 189 174 232 133 233 134 "/><path d="M22 172 35 174 50 182 55 188 60 195 69 210 71 220 71 227 70 231 67 235 60 242 50 249 30 249 22 247 14 241 6 234 4 231 3 229 0 192 0 179 6 173 14 172 22 172 "/><path d="M51 22 65 26 73 29 75 30 78 32 84 39 85 41 86 44 86 49 85 55 84 57 80 62 76 66 62 73 53 75 52 75 49 74 39 69 28 52 28 46 30 35 31 31 37 25 43 22 51 22 "/><path d="M126 0 126 2 116 12 106 18 94 20 82 20 64 14 56 6 52 0 126 0 "/></svg>