<svg width="256" height="256" xmlns="http://www.w3.org/2000/svg" fill-opacity="0" stroke="black" stroke-width="3" ><path d="M121 75 140 78 166 85 176 89 186 96 190 100 196 108 198 112 201 120 202 124 203 130 203 138 202 144 200 149 191 170 190 172 182 182 146 221 136 225 128 227 115 228 113 228 100 227 89 225 87 224 83 221 65 204 44 173 38 164 35 158 34 149 34 140 40 122 46 111 50 106 58 98 74 86 90 77 94 76 104 75 121 75 "/><path d="M6 158 11 159 14 160 20 163 27 169 43 185 53 199 59 211 66 226 67 230 69 239 69 242 68 246 67 249 0 249 0 161 5 158 6 158 "/><path d="M50 40 53 44 54 46 57 54 59 61 59 63 58 71 57 76 56 79 52 84 45 91 32 103 24 109 16 113 4 113 2 111 0 97 0 67 43 33 50 40 "/><path d="M192 197 197 198 199 199 200 200 211 234 212 239 212 249 130 249 130 246 149 222 177 200 179 199 191 197 192 197 "/><path d="M238 164 242 165 245 167 249 170 249 207 242 228 240 229 239 229 226 217 208 194 208 190 209 187 215 175 219 170 223 166 233 164 238 164 "/></svg>