<svg width="256" height="256" xmlns="http://www.w3.org/2000/svg" fill-opacity="0" stroke="black" stroke-width="3" ><path d="M157 51 161 52 172 55 190 60 210 84 215 92 216 95 222 121 223 137 223 140 222 150 216 172 213 178 201 196 198 200 193 204 184 210 174 215 150 224 141 225 130 225 113 222 109 221 93 214 92 213 68 186 61 172 59 167 56 156 55 152 52 137 52 124 55 106 64 93 67 89 81 72 85 69 88 67 101 60 109 56 112 55 147 51 157 51 "/><path d="M2 135 5 137 17 149 23 158 38 187 42 196 47 209 50 217 51 220 51 222 50 224 47 228 33 242 25 246 10 246 7 244 0 233 0 134 2 135 "/><path d="M234 0 234 1 232 6 225 14 221 17 219 18 206 20 163 19 151 15 146 10 141 4 139 0 234 0 "/></svg>