<svg width="256" height="256" xmlns="http://www.w3.org/2000/svg" fill-opacity="0" stroke="black" stroke-width="3" ><path d="M176 53 183 55 197 62 205 67 219 77 222 80 233 94 236 99 237 102 241 115 243 123 244 132 244 135 243 140 239 153 236 160 235 162 230 170 222 180 210 192 201 199 194 204 183 208 177 210 157 213 155 213 148 212 127 207 104 198 99 196 97 195 82 180 72 160 70 154 68 146 67 139 67 134 68 127 72 109 79 94 82 90 84 89 171 53 176 53 "/><path d="M233 210 235 211 243 217 246 220 249 228 249 249 173 249 175 245 178 242 195 228 202 223 223 212 230 210 233 210 "/></svg>