<svg width="256" height="256" xmlns="http://www.w3.org/2000/svg" fill-opacity="0" stroke="black" stroke-width="3" ><path d="M83 31 91 32 98 34 130 51 131 52 148 75 173 129 173 134 170 153 169 157 159 177 147 191 138 197 131 201 122 206 116 209 95 213 76 213 57 211 47 209 40 207 30 204 10 193 7 191 0 185 0 60 1 58 18 46 27 40 34 37 50 34 81 31 83 31 "/><path d="M249 0 249 66 223 106 218 112 207 122 203 125 195 125 182 122 167 106 148 66 147 63 146 39 146 38 163 0 249 0 "/><path d="M249 89 249 249 121 249 121 245 131 230 204 129 233 97 238 92 242 90 246 89 249 89 "/><path d="M30 0 30 3 29 9 13 29 8 34 6 35 0 36 0 0 30 0 "/><path d="M157 0 157 2 142 21 136 25 133 26 130 26 128 25 93 1 93 0 157 0 "/></svg>