<svg width="256" height="256" xmlns="http://www.w3.org/2000/svg" fill-opacity="0" stroke="black" stroke-width="3" ><path d="M69 0 97 4 115 10 141 24 159 39 167 47 202 87 223 113 225 122 223 128 203 177 194 188 183 201 166 212 163 213 136 221 124 223 109 221 105 220 95 217 86 213 82 211 55 187 41 172 36 164 4 36 5 30 6 25 10 14 11 12 17 4 18 3 26 0 69 0 "/><path d="M12 204 16 205 19 206 20 207 26 214 27 216 29 222 27 232 23 239 19 245 18 246 10 249 0 249 0 206 4 204 12 204 "/><path d="M201 230 206 232 217 238 227 248 227 249 163 249 165 246 168 243 179 233 184 231 191 229 201 230 "/></svg>