<svg width="256" height="256" xmlns="http://www.w3.org/2000/svg" fill-opacity="0" stroke="black" stroke-width="3" ><path d="M146 59 166 60 171 61 177 63 183 66 186 68 191 73 208 115 208 116 205 123 188 153 187 154 166 173 163 175 158 178 145 182 140 183 126 184 111 182 103 179 94 174 66 151 55 139 53 136 53 133 60 109 62 104 63 102 69 93 92 74 96 71 102 68 111 64 122 61 130 60 144 59 146 59 "/><path d="M192 210 211 213 213 215 215 219 216 241 216 243 215 244 207 249 81 249 81 248 83 244 85 241 89 237 97 231 121 219 124 218 128 217 142 215 189 210 192 210 "/></svg>