<svg width="256" height="256" xmlns="http://www.w3.org/2000/svg" fill-opacity="0" stroke="black" stroke-width="3" ><path d="M101 44 136 48 158 56 179 68 192 76 198 85 202 92 203 95 204 99 206 112 206 115 205 162 203 168 201 172 199 175 184 190 173 200 139 216 136 217 128 217 103 216 98 215 57 198 45 184 41 178 40 176 38 168 35 147 37 103 44 81 51 73 52 72 75 51 77 50 100 44 101 44 "/><path d="M164 0 165 2 163 11 150 26 148 28 144 30 133 35 129 36 87 36 80 35 56 17 53 14 42 2 41 0 164 0 "/><path d="M4 58 16 71 23 79 26 85 26 94 23 127 14 146 12 150 9 155 4 162 0 166 0 59 1 58 4 58 "/></svg>