<svg width="256" height="256" xmlns="http://www.w3.org/2000/svg" fill-opacity="0" stroke="black" stroke-width="3" ><path d="M125 30 138 32 143 34 145 35 222 76 230 85 236 95 238 99 240 104 242 110 244 117 245 125 249 201 249 249 201 249 117 225 111 223 99 217 94 214 85 208 81 205 75 199 68 191 59 179 56 174 52 165 47 149 44 138 44 119 47 101 48 98 60 72 66 64 73 55 83 45 97 37 117 31 122 30 125 30 "/><path d="M62 0 68 2 70 3 71 4 74 12 74 16 72 34 71 37 70 39 56 61 54 64 45 75 42 78 37 81 33 83 26 85 7 85 0 83 0 0 62 0 "/></svg>