<svg width="256" height="256" xmlns="http://www.w3.org/2000/svg" fill-opacity="0" stroke="black" stroke-width="3" ><path d="M134 48 171 63 195 84 196 85 199 91 203 105 211 150 211 155 207 165 164 223 161 226 159 226 127 210 109 197 75 112 72 95 72 93 83 69 88 60 90 59 95 57 104 54 108 53 121 50 131 48 134 48 "/><path d="M131 0 133 1 135 3 137 6 143 22 133 37 132 38 122 44 116 47 110 49 101 51 87 51 80 50 73 46 68 42 67 41 63 30 68 14 73 8 74 7 77 5 79 4 92 0 131 0 "/><path d="M202 33 216 36 218 37 223 41 227 45 233 54 233 58 232 64 226 76 225 77 220 81 211 86 207 86 202 84 190 76 182 63 181 61 181 53 182 48 184 42 186 39 189 37 193 35 196 34 200 33 202 33 "/></svg>