<svg width="256" height="256" xmlns="http://www.w3.org/2000/svg" fill-opacity="0" stroke="black" stroke-width="3" ><path d="M154 11 167 12 182 16 185 17 211 34 215 37 233 63 235 66 249 98 249 150 149 190 136 195 130 195 123 194 121 193 117 190 108 181 79 151 69 139 61 127 60 125 60 105 64 88 69 78 79 59 93 43 98 38 106 31 139 13 141 12 147 11 154 11 "/><path d="M232 182 246 185 249 187 249 232 241 249 208 249 207 243 207 228 208 198 212 190 219 184 229 182 232 182 "/><path d="M12 204 35 207 81 247 83 249 0 249 0 212 7 205 9 204 12 204 "/><path d="M20 95 25 97 29 99 30 100 34 106 36 110 37 114 37 120 33 133 32 135 29 138 25 141 17 145 11 146 7 146 0 144 0 98 5 96 8 95 20 95 "/></svg>