<svg width="256" height="256" xmlns="http://www.w3.org/2000/svg" fill-opacity="0" stroke="black" stroke-width="3" ><path d="M129 50 133 51 138 53 150 59 155 62 180 80 184 83 194 93 198 104 199 107 200 111 200 127 198 140 197 143 191 156 189 160 183 169 179 174 176 177 149 202 146 204 140 206 133 207 101 204 83 201 78 198 63 187 57 180 49 168 47 164 41 149 40 144 39 136 39 122 45 101 51 89 63 68 65 66 68 64 84 54 87 53 92 52 107 51 127 50 129 50 "/><path d="M249 0 249 33 248 38 223 66 207 66 198 65 195 64 185 60 171 52 168 50 161 45 157 42 155 40 149 32 145 26 143 21 141 12 145 7 146 6 155 0 249 0 "/></svg>