<svg width="256" height="256" xmlns="http://www.w3.org/2000/svg" fill-opacity="0" stroke="black" stroke-width="3" ><path d="M177 0 185 11 186 13 187 16 197 65 206 123 206 144 205 154 203 159 200 164 198 166 193 170 190 172 173 181 169 183 166 184 159 186 153 184 148 181 145 179 140 174 28 19 28 14 30 10 31 9 35 6 41 3 63 0 177 0 "/><path d="M127 213 137 223 140 228 141 230 143 236 145 246 144 249 40 249 38 241 43 228 46 224 60 218 124 213 127 213 "/><path d="M4 75 49 119 50 141 46 148 33 165 28 168 25 167 24 166 0 107 0 73 4 75 "/><path d="M39 71 48 79 52 88 52 89 51 90 41 99 37 101 35 100 19 88 17 85 16 83 16 81 24 71 39 71 "/></svg>