<svg width="256" height="256" xmlns="http://www.w3.org/2000/svg" fill-opacity="0" stroke="black" stroke-width="3" ><path d="M138 23 146 24 168 29 183 35 187 37 215 67 224 80 225 82 233 105 237 117 240 132 240 144 239 153 233 172 230 181 229 183 216 204 211 207 183 219 166 226 159 228 141 232 131 233 126 233 111 228 89 218 81 214 68 204 58 195 57 194 42 171 34 154 31 146 30 143 28 131 28 120 30 107 34 95 37 88 41 80 44 75 48 69 56 60 59 57 65 52 69 49 94 33 101 29 113 25 120 24 133 23 138 23 "/></svg>