<svg width="256" height="256" xmlns="http://www.w3.org/2000/svg" fill-opacity="0" stroke="black" stroke-width="3" ><path d="M193 37 195 38 210 52 212 54 227 72 228 74 229 77 231 84 233 102 233 108 232 114 230 120 223 138 185 196 181 197 145 203 144 203 109 188 105 186 93 178 67 151 63 143 62 140 61 121 61 114 62 109 64 105 107 41 109 39 111 38 115 37 193 37 "/><path d="M50 168 56 169 68 179 87 203 95 216 97 225 97 233 95 246 94 249 0 249 0 188 1 187 28 169 46 168 50 168 "/><path d="M70 0 79 13 81 20 80 49 79 53 77 57 70 64 65 68 62 69 29 71 10 71 7 69 2 64 0 60 0 29 45 0 70 0 "/><path d="M170 0 166 4 141 23 138 25 131 27 124 27 119 26 117 25 106 17 102 13 98 5 96 0 170 0 "/></svg>