<svg width="256" height="256" xmlns="http://www.w3.org/2000/svg" fill-opacity="0" stroke="black" stroke-width="3" ><path d="M145 20 154 24 165 29 167 30 176 36 191 51 193 54 203 70 206 76 208 81 223 119 224 129 224 134 223 141 221 147 213 159 210 163 198 178 190 187 187 190 161 209 141 217 128 220 123 221 98 221 84 217 68 209 62 205 57 201 48 191 44 186 38 174 30 154 14 99 14 89 15 82 20 61 38 40 47 33 76 28 131 20 145 20 "/><path d="M103 0 99 6 98 7 93 11 83 17 81 18 77 18 73 17 51 5 44 1 43 0 103 0 "/></svg>