<svg width="256" height="256" xmlns="http://www.w3.org/2000/svg" fill-opacity="0" stroke="black" stroke-width="3" ><path d="M79 73 91 75 93 76 101 83 132 145 139 165 132 179 126 185 119 190 115 192 112 193 89 198 85 197 67 190 65 189 50 177 48 175 37 154 32 142 31 135 31 123 33 105 34 103 35 102 78 73 79 73 "/><path d="M210 49 216 50 220 52 226 56 228 58 230 61 233 66 235 70 235 85 234 90 230 97 229 98 225 101 215 108 213 109 209 110 202 110 199 109 189 104 185 100 183 96 182 93 181 86 180 74 180 71 183 64 184 62 186 59 188 57 191 55 208 49 210 49 "/><path d="M85 201 88 202 90 203 95 206 101 212 104 217 104 229 102 234 100 237 98 239 93 243 89 245 83 246 80 246 74 245 60 235 57 232 55 229 53 221 53 219 59 210 67 201 85 201 "/><path d="M220 0 220 1 219 8 218 9 212 11 204 13 184 15 174 15 152 11 146 9 139 6 137 5 134 0 220 0 "/></svg>