<svg width="256" height="256" xmlns="http://www.w3.org/2000/svg" fill-opacity="0" stroke="black" stroke-width="3" ><path d="M126 48 155 53 159 55 162 58 168 65 177 77 179 80 181 85 185 96 202 144 202 146 171 180 166 185 146 200 133 200 108 196 92 192 69 182 42 120 42 119 43 114 45 109 50 97 64 75 68 70 74 64 76 63 108 49 115 48 126 48 "/><path d="M249 249 145 249 142 246 141 243 141 236 151 205 159 194 242 136 249 133 249 249 "/><path d="M249 110 244 113 242 114 235 114 211 101 208 98 202 87 192 67 190 51 190 45 191 42 200 31 202 29 215 23 249 16 249 110 "/></svg>