<svg width="256" height="256" xmlns="http://www.w3.org/2000/svg" fill-opacity="0" stroke="black" stroke-width="3" ><path d="M139 48 153 49 157 50 166 54 184 69 185 70 195 81 199 86 208 108 211 116 213 129 213 130 209 155 206 163 201 175 197 181 191 188 186 193 179 199 170 205 164 208 157 211 154 212 134 216 116 216 91 208 67 192 60 185 52 175 48 169 46 165 42 155 40 149 36 136 35 131 35 117 36 111 37 106 38 103 43 92 47 85 51 79 56 72 64 65 69 61 76 57 78 56 81 55 97 52 109 50 135 48 139 48 "/><path d="M249 0 249 81 228 97 222 97 220 96 211 88 189 53 186 22 186 11 188 0 249 0 "/><path d="M163 0 163 1 157 10 149 17 143 21 138 23 130 25 124 26 86 32 78 32 75 31 73 30 69 27 63 21 55 11 53 7 50 0 163 0 "/><path d="M46 0 57 19 58 21 29 53 28 54 24 57 3 60 0 57 0 0 46 0 "/></svg>