<svg width="256" height="256" xmlns="http://www.w3.org/2000/svg" fill-opacity="0" stroke="black" stroke-width="3" ><path d="M140 24 148 26 161 31 175 38 183 44 188 48 192 52 199 61 204 71 208 80 214 95 218 116 219 130 218 144 216 156 212 178 203 196 194 211 192 214 188 218 185 220 151 237 139 238 112 240 105 240 98 239 75 231 73 230 55 218 51 215 48 212 43 206 39 199 34 189 29 178 27 168 24 151 23 133 23 131 24 114 31 88 33 83 38 72 42 64 58 47 69 39 91 29 102 26 117 24 140 24 "/><path d="M7 38 8 39 14 46 18 56 22 92 20 127 16 146 11 156 1 165 0 165 0 32 7 38 "/></svg>