<svg width="256" height="256" xmlns="http://www.w3.org/2000/svg" fill-opacity="0" stroke="black" stroke-width="3" ><path d="M123 33 144 35 154 37 160 39 178 48 188 58 196 67 212 87 215 91 220 100 222 104 226 113 228 122 228 130 226 152 222 163 220 166 216 171 211 176 187 196 178 202 174 204 163 209 114 226 107 228 95 228 83 224 77 221 73 218 61 205 59 202 51 188 41 168 39 160 39 135 44 103 45 97 47 91 56 73 61 65 71 53 75 49 85 41 97 35 106 33 123 33 "/><path d="M46 0 46 1 44 7 42 11 40 14 36 18 30 22 13 27 12 27 5 26 2 25 0 24 0 0 46 0 "/></svg>