<svg width="256" height="256" xmlns="http://www.w3.org/2000/svg" fill-opacity="0" stroke="black" stroke-width="3" ><path d="M96 49 155 66 158 67 160 68 182 81 185 85 193 115 194 129 194 133 192 146 190 153 182 169 180 172 179 173 163 182 161 183 144 191 124 197 119 198 117 198 111 197 96 194 93 193 88 191 71 182 64 177 62 175 56 168 49 158 47 155 39 140 37 134 36 130 36 120 46 75 54 65 59 60 75 52 93 49 96 49 "/><path d="M249 152 249 237 236 239 235 239 218 232 216 231 214 229 205 213 204 210 203 206 203 190 212 169 213 167 216 164 230 153 232 152 248 151 249 152 "/><path d="M213 61 216 62 228 70 234 77 236 80 238 85 241 105 241 108 239 111 236 114 232 116 223 116 220 115 211 111 208 109 201 103 199 101 196 97 194 93 191 86 190 78 190 75 192 69 197 63 201 62 207 61 213 61 "/></svg>