<svg width="256" height="256" xmlns="http://www.w3.org/2000/svg" fill-opacity="0" stroke="black" stroke-width="3" ><path d="M171 4 188 5 201 6 210 7 215 8 217 9 221 13 225 18 227 27 229 37 230 46 181 150 180 152 178 155 170 163 161 170 147 176 68 178 66 178 58 156 58 133 62 114 65 103 114 22 118 16 124 11 129 9 135 7 149 4 171 4 "/><path d="M60 195 94 216 107 228 112 233 117 239 119 242 119 249 37 249 19 228 19 224 20 221 22 217 25 212 32 203 49 195 60 195 "/><path d="M49 36 54 37 58 38 62 41 71 52 71 53 69 62 65 77 55 90 45 101 43 103 37 105 33 106 29 106 19 102 18 101 12 94 9 88 8 82 10 70 12 64 15 57 18 53 26 43 33 38 35 37 47 36 49 36 "/><path d="M216 169 204 193 202 196 193 205 189 207 169 214 162 216 156 217 148 218 141 218 115 216 100 214 88 194 89 191 214 167 216 169 "/><path d="M2 122 36 125 42 151 31 164 29 165 12 167 8 167 5 163 0 143 0 122 2 122 "/><path d="M28 0 31 6 31 10 24 24 22 27 9 42 0 47 0 0 28 0 "/></svg>