<svg width="256" height="256" xmlns="http://www.w3.org/2000/svg" fill-opacity="0" stroke="black" stroke-width="3" ><path d="M136 19 166 62 176 97 180 115 181 121 181 122 175 141 171 153 161 173 152 188 138 200 117 212 72 219 71 219 31 218 17 216 14 214 4 207 0 203 0 68 3 66 32 48 37 45 92 23 98 21 107 19 117 17 128 15 136 19 "/><path d="M203 19 242 24 249 79 249 121 248 121 206 92 202 88 201 85 195 20 195 18 203 19 "/><path d="M63 0 63 1 62 6 59 11 52 20 32 43 25 48 13 56 8 59 4 61 0 61 0 0 63 0 "/></svg>