<svg width="256" height="256" xmlns="http://www.w3.org/2000/svg" fill-opacity="0" stroke="black" stroke-width="3" ><path d="M187 47 192 49 196 53 200 58 215 82 216 84 225 105 225 107 208 162 201 169 168 198 165 200 157 205 153 205 142 204 134 203 125 200 111 192 85 175 71 161 64 150 60 142 59 138 58 125 58 119 61 102 64 95 68 87 75 79 81 74 90 69 185 47 187 47 "/><path d="M42 187 48 188 63 191 74 195 103 211 110 216 120 225 126 232 131 238 131 239 130 240 109 249 0 249 0 213 2 205 8 199 24 191 30 189 39 187 42 187 "/><path d="M177 0 177 3 176 5 163 29 162 30 145 40 140 41 120 44 108 42 91 38 82 33 73 26 69 22 61 12 58 7 57 5 57 4 60 0 177 0 "/></svg>