<svg width="256" height="256" xmlns="http://www.w3.org/2000/svg" fill-opacity="0" stroke="black" stroke-width="3" ><path d="M107 73 125 80 164 107 167 110 197 161 196 164 194 169 190 174 184 181 177 186 134 207 128 209 124 210 123 210 78 182 58 169 54 144 49 105 50 103 67 83 101 73 107 73 "/><path d="M246 19 247 20 249 26 249 89 243 96 242 97 239 97 215 96 210 95 208 93 193 72 190 62 190 61 196 45 198 41 201 38 204 36 220 27 238 19 246 19 "/><path d="M222 193 238 195 247 197 249 203 249 240 200 240 199 239 191 229 190 225 190 223 191 217 193 211 195 206 198 203 208 196 210 195 216 193 222 193 "/></svg>