<svg width="256" height="256" xmlns="http://www.w3.org/2000/svg" fill-opacity="0" stroke="black" stroke-width="3" ><path d="M121 22 161 29 165 30 185 36 206 54 207 56 208 59 217 97 221 115 223 130 223 133 219 151 215 164 214 167 205 177 199 183 189 190 176 197 153 207 145 209 97 212 96 212 94 211 64 186 63 185 58 178 55 173 52 167 50 162 44 141 40 125 40 115 42 108 75 47 80 40 82 38 87 34 94 30 98 28 109 24 120 22 121 22 "/><path d="M207 213 223 217 230 224 233 228 239 237 241 247 241 249 155 249 147 244 146 241 146 239 151 232 154 230 161 226 179 219 202 213 207 213 "/></svg>