<svg width="256" height="256" xmlns="http://www.w3.org/2000/svg" fill-opacity="0" stroke="black" stroke-width="3" ><path d="M194 0 195 1 197 4 199 9 200 37 195 55 187 73 184 76 179 80 175 83 167 88 159 92 150 96 143 98 139 99 131 100 121 100 115 98 110 96 106 94 95 86 77 71 74 68 67 55 59 38 59 29 61 7 62 2 63 0 194 0 "/><path d="M165 231 174 234 180 237 187 241 197 249 128 249 126 245 126 244 127 241 128 239 129 238 139 230 152 229 165 231 "/><path d="M34 0 35 1 35 2 29 21 28 23 27 24 23 26 20 26 3 24 0 23 0 0 34 0 "/></svg>