<svg width="256" height="256" xmlns="http://www.w3.org/2000/svg" fill-opacity="0" stroke="black" stroke-width="3" ><path d="M156 13 157 14 196 64 202 89 202 96 199 113 194 139 191 146 190 148 180 165 164 191 156 198 154 199 131 204 130 204 98 200 83 196 76 194 73 193 71 191 34 127 33 124 45 70 49 62 51 59 52 58 70 42 107 21 135 15 148 13 156 13 "/><path d="M230 154 231 155 249 180 249 195 241 247 240 249 212 249 181 239 179 234 175 206 175 205 185 178 188 174 189 173 226 154 230 154 "/><path d="M249 22 249 110 246 110 243 108 239 103 237 99 233 86 232 82 230 62 231 39 235 22 237 20 240 19 249 22 "/></svg>