<svg width="256" height="256" xmlns="http://www.w3.org/2000/svg" fill-opacity="0" stroke="black" stroke-width="3" ><path d="M163 18 167 19 181 23 185 25 196 37 207 52 211 60 214 69 218 90 210 118 204 132 202 136 189 160 187 163 182 168 174 174 167 178 156 184 143 190 136 193 118 197 116 197 101 195 78 186 76 185 71 182 70 181 60 169 58 166 50 151 49 149 45 138 44 134 41 115 41 107 42 100 43 94 45 85 48 76 50 71 51 69 57 60 64 53 69 49 87 37 98 32 105 29 138 20 162 18 163 18 "/><path d="M249 0 249 72 242 72 231 70 228 69 225 67 223 64 203 24 203 7 207 3 213 0 249 0 "/><path d="M1 159 30 168 32 169 50 182 51 183 56 191 56 197 55 201 53 206 45 215 42 218 38 220 30 223 27 224 26 224 24 223 7 212 5 210 3 207 0 201 0 159 1 159 "/><path d="M7 30 11 32 25 44 26 45 27 49 27 64 16 102 14 106 7 113 4 115 0 117 0 31 3 30 7 30 "/><path d="M158 0 158 2 154 11 141 16 114 19 110 19 93 14 87 12 78 7 75 5 70 0 158 0 "/></svg>