<svg width="256" height="256" xmlns="http://www.w3.org/2000/svg" fill-opacity="0" stroke="black" stroke-width="3" ><path d="M145 41 165 45 171 47 196 58 217 96 221 107 222 112 224 126 224 127 223 138 211 169 209 173 204 181 198 190 191 197 181 205 167 213 153 218 150 219 143 220 134 221 126 221 106 218 96 213 91 210 69 188 63 178 55 154 51 137 51 135 54 111 57 100 61 93 65 87 70 80 91 59 95 56 108 50 125 44 130 43 144 41 145 41 "/><path d="M14 136 29 142 55 162 56 163 69 195 68 197 23 212 18 213 16 213 13 212 11 209 0 190 0 147 12 136 14 136 "/><path d="M249 149 249 245 247 243 244 239 240 233 234 222 233 220 232 200 232 192 235 176 238 164 248 149 249 149 "/><path d="M107 226 119 229 121 230 132 242 134 246 134 249 67 249 69 243 72 239 84 229 98 226 107 226 "/><path d="M189 0 192 2 192 6 188 11 186 13 182 15 174 18 161 19 158 19 149 17 138 14 133 12 125 0 189 0 "/><path d="M1 71 7 79 8 81 14 99 14 111 6 132 3 133 0 133 0 70 1 71 "/></svg>