<svg width="256" height="256" xmlns="http://www.w3.org/2000/svg" fill-opacity="0" stroke="black" stroke-width="3" ><path d="M129 40 135 41 138 42 140 43 146 48 150 52 160 68 165 101 169 161 169 181 166 191 165 192 121 218 119 218 117 217 96 203 89 198 85 192 71 169 67 150 67 109 68 105 69 102 72 94 93 62 97 57 108 46 116 41 121 40 129 40 "/><path d="M92 212 96 213 143 247 144 249 90 249 73 243 69 241 66 239 65 233 65 226 67 223 77 210 92 212 "/><path d="M6 138 8 140 24 159 28 172 30 188 30 191 29 195 28 197 24 200 21 201 4 204 0 204 0 134 6 138 "/><path d="M51 0 52 2 54 8 54 11 52 14 31 25 26 26 13 27 0 27 0 0 51 0 "/></svg>