<svg width="256" height="256" xmlns="http://www.w3.org/2000/svg" fill-opacity="0" stroke="black" stroke-width="3" ><path d="M130 40 145 43 154 46 156 47 165 52 169 55 182 68 186 73 196 86 204 98 205 100 208 110 211 129 211 135 210 138 206 149 205 151 197 166 194 171 192 174 185 180 180 184 144 212 142 213 131 217 127 218 114 220 107 220 101 218 97 215 90 209 88 207 63 180 50 157 39 137 38 130 38 119 40 110 43 98 46 89 57 73 65 65 75 59 85 54 109 45 128 40 130 40 "/><path d="M240 183 249 185 249 249 142 249 142 244 143 241 154 223 156 220 160 215 165 209 172 201 185 193 211 184 216 183 240 183 "/><path d="M122 0 122 3 119 10 111 26 103 30 90 34 82 36 74 37 65 37 59 35 45 26 42 20 43 9 45 7 48 5 58 3 79 0 122 0 "/></svg>