<svg width="256" height="256" xmlns="http://www.w3.org/2000/svg" fill-opacity="0" stroke="black" stroke-width="3" ><path d="M127 41 135 42 140 43 143 44 148 46 162 53 168 58 179 69 188 79 193 87 198 97 200 102 202 108 204 122 204 149 203 157 202 162 195 179 190 187 188 190 176 202 160 213 158 214 150 217 137 221 131 222 119 223 116 223 104 220 97 217 85 209 78 204 69 196 67 194 59 185 56 181 55 179 51 170 48 161 47 156 45 140 45 130 46 124 49 109 52 99 55 92 60 82 69 67 73 63 80 57 84 54 87 52 101 45 113 42 118 41 127 41 "/><path d="M4 203 23 222 24 224 28 233 31 248 31 249 0 249 0 201 4 203 "/></svg>