<svg width="256" height="256" xmlns="http://www.w3.org/2000/svg" fill-opacity="0" stroke="black" stroke-width="3" ><path d="M111 50 123 52 146 62 164 70 168 72 178 78 192 92 194 96 194 103 191 174 188 179 167 195 163 197 154 200 150 201 133 201 122 199 107 193 101 190 92 185 86 179 83 175 79 169 77 165 75 160 68 141 67 138 66 127 66 118 67 105 69 94 71 89 75 81 81 70 84 66 96 56 101 52 106 50 111 50 "/><path d="M19 176 36 185 39 189 43 195 44 207 44 214 40 226 37 229 34 231 28 234 19 236 17 236 2 233 0 232 0 179 1 178 5 176 19 176 "/></svg>