<svg width="256" height="256" xmlns="http://www.w3.org/2000/svg" fill-opacity="0" stroke="black" stroke-width="3" ><path d="M147 57 157 59 166 63 184 72 191 76 203 84 214 93 219 98 233 114 241 130 243 135 245 144 245 147 241 159 232 185 231 187 230 188 218 191 144 202 131 202 119 198 97 190 77 181 62 173 52 153 50 144 49 138 49 137 50 124 51 121 54 113 58 103 62 94 64 90 68 86 96 70 108 64 114 62 123 60 133 58 140 57 147 57 "/><path d="M249 0 249 86 248 86 246 85 241 82 210 57 181 33 178 30 176 23 176 21 180 13 182 10 192 0 249 0 "/><path d="M59 8 85 33 86 34 86 36 81 61 78 63 74 65 0 101 0 28 3 24 18 15 55 8 59 8 "/></svg>