<svg width="256" height="256" xmlns="http://www.w3.org/2000/svg" fill-opacity="0" stroke="black" stroke-width="3" ><path d="M134 59 148 69 152 75 152 79 150 85 129 129 115 139 113 139 99 124 80 93 79 90 77 82 77 80 81 73 84 70 102 65 131 57 134 59 "/><path d="M157 214 160 215 174 225 176 229 177 233 175 249 100 249 100 244 107 231 109 229 119 221 124 218 126 217 133 214 157 214 "/><path d="M77 104 78 105 103 134 105 137 96 155 95 156 75 166 70 168 68 168 62 160 61 158 61 126 62 120 64 113 65 112 75 104 77 104 "/><path d="M6 28 10 30 13 32 18 36 26 46 28 53 28 58 24 71 21 76 16 83 12 87 8 89 5 90 2 90 0 89 0 28 6 28 "/><path d="M173 161 176 164 176 171 175 173 171 178 166 184 164 186 155 193 150 195 143 197 122 197 115 195 109 193 107 192 106 191 85 163 85 162 96 161 171 160 173 161 "/><path d="M101 28 117 33 123 36 125 38 125 39 124 40 48 77 41 71 41 70 45 60 62 39 68 34 73 30 75 29 90 28 101 28 "/><path d="M235 133 237 135 243 148 249 167 249 174 248 174 244 173 233 169 219 162 216 160 216 151 219 135 221 134 232 133 235 133 "/><path d="M243 89 248 94 249 96 249 126 245 130 243 130 233 127 209 119 208 118 208 117 210 102 216 97 228 92 239 89 243 89 "/></svg>