<svg width="256" height="256" xmlns="http://www.w3.org/2000/svg" fill-opacity="0" stroke="black" stroke-width="3" ><path d="M139 32 143 33 150 35 170 43 172 44 207 69 208 70 210 73 219 89 221 99 221 126 219 137 217 143 203 171 185 191 179 197 156 213 145 220 140 223 136 225 130 226 109 227 99 225 85 220 73 214 71 212 64 204 58 190 30 119 30 107 31 98 32 90 36 82 42 71 48 65 53 61 69 49 81 41 95 36 135 32 139 32 "/><path d="M194 201 196 202 203 206 204 207 213 219 219 231 220 236 221 245 221 246 220 247 213 249 122 249 122 247 123 238 131 230 165 210 178 203 180 202 187 201 194 201 "/><path d="M249 214 228 216 218 210 217 206 217 199 222 170 223 167 225 163 231 155 237 149 249 143 249 214 "/><path d="M193 0 195 9 195 12 194 15 191 20 185 26 180 30 174 31 171 31 168 30 154 24 152 23 148 18 145 13 145 7 146 3 147 0 193 0 "/></svg>