<svg width="256" height="256" xmlns="http://www.w3.org/2000/svg" fill-opacity="0" stroke="black" stroke-width="3" ><path d="M144 36 160 37 167 38 171 39 173 40 190 52 195 57 199 63 205 75 209 90 212 102 213 109 214 123 214 124 213 131 204 161 202 167 198 174 194 179 181 192 175 196 167 200 155 205 145 208 143 208 126 206 116 204 107 202 99 198 89 192 85 188 82 184 76 175 62 152 56 140 55 133 58 121 64 100 68 88 86 63 87 62 93 57 123 42 132 38 135 37 142 36 144 36 "/><path d="M120 0 120 3 118 10 110 23 102 31 97 34 84 35 82 35 64 32 53 23 43 13 41 6 40 0 120 0 "/><path d="M30 244 25 249 0 249 0 214 2 214 8 216 13 218 15 220 24 231 28 238 30 243 30 244 "/></svg>