<svg width="256" height="256" xmlns="http://www.w3.org/2000/svg" fill-opacity="0" stroke="black" stroke-width="3" ><path d="M172 24 178 26 194 32 236 51 241 54 246 58 249 64 249 176 221 214 216 219 206 225 197 228 189 227 105 210 101 208 99 206 79 117 79 101 85 85 93 70 114 47 115 46 122 41 140 32 145 30 165 24 172 24 "/><path d="M25 120 43 125 46 127 76 158 79 163 81 167 84 180 85 185 78 215 67 228 54 241 39 249 0 249 0 133 11 122 18 120 25 120 "/><path d="M118 222 131 223 136 224 151 229 153 230 160 234 173 244 178 249 81 249 81 246 85 234 88 231 94 228 107 222 118 222 "/></svg>