<svg width="256" height="256" xmlns="http://www.w3.org/2000/svg" fill-opacity="0" stroke="black" stroke-width="3" ><path d="M150 33 157 34 162 35 170 37 186 43 192 46 198 50 207 57 210 60 236 125 236 140 235 147 233 158 232 162 230 168 222 185 221 187 215 197 212 201 203 211 202 212 198 215 184 225 173 230 170 231 163 233 154 235 144 235 130 234 119 233 110 232 101 228 91 223 85 219 81 216 67 202 63 197 57 189 51 180 45 168 41 158 40 154 39 143 39 140 40 118 41 110 43 104 49 92 52 87 61 76 69 67 78 57 85 51 97 43 112 37 132 33 150 33 "/></svg>