<svg width="256" height="256" xmlns="http://www.w3.org/2000/svg" fill-opacity="0" stroke="black" stroke-width="3" ><path d="M170 119 181 121 184 140 184 207 150 232 148 233 147 233 113 219 85 194 84 189 91 171 92 170 108 156 134 134 166 120 169 119 170 119 "/><path d="M11 18 27 20 36 25 39 27 41 29 44 33 49 44 52 53 53 58 53 62 52 65 47 75 40 87 34 93 31 95 27 97 18 101 15 102 8 102 3 100 0 98 0 19 2 18 11 18 "/><path d="M245 0 249 10 249 25 247 27 243 30 232 38 213 42 206 43 186 43 175 41 165 37 156 30 151 25 146 19 144 16 140 9 142 2 143 0 245 0 "/><path d="M65 214 79 243 79 245 74 249 67 249 37 247 35 246 26 237 23 231 22 228 22 226 34 206 39 199 65 214 "/></svg>