<svg width="256" height="256" xmlns="http://www.w3.org/2000/svg" fill-opacity="0" stroke="black" stroke-width="3" ><path d="M82 67 165 71 174 74 180 77 190 87 194 92 195 95 202 117 203 123 203 124 202 130 198 147 196 152 184 168 172 183 144 207 140 209 137 209 133 208 93 193 70 181 65 176 56 148 45 99 45 96 53 83 63 73 68 69 73 68 79 67 82 67 "/><path d="M148 0 150 7 150 8 148 15 127 31 112 36 110 36 93 35 61 32 55 27 42 1 42 0 148 0 "/><path d="M244 166 249 171 249 179 245 190 242 196 215 249 207 249 200 207 199 189 199 186 234 168 241 166 244 166 "/></svg>