<svg width="256" height="256" xmlns="http://www.w3.org/2000/svg" fill-opacity="0" stroke="black" stroke-width="3" ><path d="M124 36 160 49 173 56 181 67 199 92 200 94 203 102 206 111 207 115 207 133 197 161 195 166 189 177 178 197 172 204 159 215 156 217 117 230 91 223 72 217 70 216 50 199 42 190 40 187 38 183 32 167 30 152 29 118 36 81 38 76 43 70 49 64 73 48 106 39 118 36 124 36 "/><path d="M234 132 242 134 249 138 249 203 244 204 233 206 228 206 221 205 218 203 217 201 210 178 210 176 212 157 216 139 219 134 221 133 226 132 234 132 "/><path d="M7 17 11 18 15 20 25 28 31 34 33 37 35 43 36 48 36 54 35 56 31 62 23 70 18 74 16 75 10 77 4 78 0 77 0 18 6 17 7 17 "/><path d="M20 207 22 208 24 210 29 216 31 219 34 225 37 232 38 235 40 247 40 249 0 249 0 215 2 214 18 207 20 207 "/><path d="M3 102 6 108 7 111 9 118 13 134 13 141 9 156 6 159 0 162 0 99 3 102 "/><path d="M61 0 64 6 64 7 63 9 50 16 48 17 15 8 8 6 2 3 0 1 0 0 61 0 "/></svg>