<svg width="256" height="256" xmlns="http://www.w3.org/2000/svg" fill-opacity="0" stroke="black" stroke-width="3" ><path d="M128 28 132 29 139 33 145 37 167 53 169 55 207 103 211 111 215 123 215 127 210 206 208 210 201 220 194 228 191 231 187 234 178 239 172 241 161 242 148 242 100 236 91 230 90 229 74 194 70 182 70 119 81 37 84 35 90 33 96 32 118 29 127 28 128 28 "/><path d="M1 180 9 183 14 186 15 187 25 199 32 209 41 227 42 231 41 234 38 238 29 249 0 249 0 180 1 180 "/><path d="M227 0 239 2 241 3 245 8 249 15 249 29 248 31 246 34 244 35 219 35 173 24 157 12 154 6 156 0 227 0 "/></svg>