<svg width="256" height="256" xmlns="http://www.w3.org/2000/svg" fill-opacity="0" stroke="black" stroke-width="3" ><path d="M92 37 141 49 168 63 171 65 188 80 190 82 203 100 206 129 206 136 205 143 203 150 194 173 192 178 183 190 173 196 161 201 158 202 147 204 136 205 129 205 105 202 64 193 52 189 0 109 0 85 18 65 23 60 28 58 90 37 92 37 "/><path d="M249 200 249 249 160 249 133 240 133 239 144 228 151 225 210 204 227 201 248 200 249 200 "/><path d="M78 0 79 3 80 7 80 11 79 18 77 23 74 27 73 28 67 33 53 37 36 37 29 36 19 32 14 27 1 10 0 8 0 0 78 0 "/><path d="M247 88 249 90 249 156 244 156 243 155 233 142 233 138 239 91 242 88 247 88 "/></svg>