<svg width="256" height="256" xmlns="http://www.w3.org/2000/svg" fill-opacity="0" stroke="black" stroke-width="3" ><path d="M118 42 128 45 132 47 147 56 154 61 156 63 162 70 164 73 176 101 178 108 181 144 181 146 180 152 177 158 168 173 166 176 152 190 143 196 140 197 136 198 114 200 97 200 91 199 89 198 86 196 66 181 60 175 55 168 51 160 47 149 47 125 49 112 51 103 54 97 57 92 77 64 80 61 92 50 103 44 106 43 112 42 118 42 "/><path d="M227 149 229 150 232 152 237 157 242 165 245 173 246 177 249 195 249 249 183 249 181 245 175 230 174 225 174 219 175 212 182 186 183 183 184 181 188 175 192 170 201 161 205 158 211 154 216 151 222 149 227 149 "/><path d="M220 0 222 4 222 5 218 15 216 19 214 22 186 46 184 47 182 47 174 46 158 32 156 30 153 24 153 18 159 0 220 0 "/></svg>