<svg width="256" height="256" xmlns="http://www.w3.org/2000/svg" fill-opacity="0" stroke="black" stroke-width="3" ><path d="M168 5 173 7 180 10 182 11 188 15 193 23 200 38 217 92 227 125 227 133 219 208 209 214 65 206 47 200 44 196 39 186 35 173 33 160 33 133 36 104 51 75 56 67 74 42 76 40 82 35 90 29 103 21 120 11 136 7 153 5 168 5 "/><path d="M239 38 241 39 243 41 249 55 249 128 248 127 246 124 228 74 225 47 225 42 226 41 228 40 236 38 239 38 "/><path d="M249 195 249 249 229 249 227 247 220 237 227 206 246 196 248 195 249 195 "/><path d="M1 87 5 89 11 94 15 99 17 104 18 116 18 124 17 127 9 139 8 140 5 142 3 143 0 143 0 87 1 87 "/></svg>