<svg width="256" height="256" xmlns="http://www.w3.org/2000/svg" fill-opacity="0" stroke="black" stroke-width="3" ><path d="M117 45 132 46 142 48 158 52 164 54 166 55 172 59 184 70 189 75 190 77 198 102 199 110 201 136 200 143 198 154 192 171 188 179 180 192 177 195 172 199 168 201 158 205 133 207 128 207 118 206 114 205 109 203 57 177 51 173 47 167 45 158 45 150 46 107 50 85 51 81 53 77 59 67 63 63 67 60 76 54 84 50 93 48 105 46 115 45 117 45 "/><path d="M92 0 91 7 88 17 87 19 85 22 82 25 77 29 60 37 55 39 46 39 37 37 35 36 0 5 0 0 92 0 "/><path d="M44 198 53 200 57 201 62 203 64 204 65 205 74 225 74 226 72 233 70 239 66 249 24 249 21 247 20 246 21 211 22 208 23 206 24 205 32 199 34 198 44 198 "/></svg>