<svg width="256" height="256" xmlns="http://www.w3.org/2000/svg" fill-opacity="0" stroke="black" stroke-width="3" ><path d="M152 12 196 86 198 90 201 98 202 103 203 116 203 121 202 135 196 154 194 157 189 163 184 168 160 188 146 194 141 196 133 198 114 199 113 199 105 198 97 196 91 194 77 187 65 180 59 176 56 172 51 164 46 155 43 148 41 141 37 120 38 110 42 83 71 42 150 12 152 12 "/><path d="M9 0 14 3 17 5 18 6 21 10 36 41 37 44 38 48 38 50 36 55 35 57 33 60 32 61 16 66 0 69 0 0 9 0 "/><path d="M249 41 249 75 247 77 230 82 229 82 224 81 212 78 206 75 205 74 199 67 194 59 194 56 195 55 201 51 204 50 223 46 248 41 249 41 "/><path d="M232 230 249 234 249 249 156 249 148 243 146 230 150 228 211 226 232 230 "/><path d="M249 100 249 167 235 154 234 152 229 138 226 128 226 122 228 116 236 106 245 100 249 100 "/><path d="M217 0 218 7 211 12 201 18 197 20 182 16 176 12 173 9 171 6 170 3 170 0 217 0 "/></svg>