<svg width="256" height="256" xmlns="http://www.w3.org/2000/svg" fill-opacity="0" stroke="black" stroke-width="3" ><path d="M156 59 175 62 207 91 208 92 211 116 208 151 200 169 144 186 123 189 117 189 43 158 27 147 25 145 23 142 22 137 25 133 26 132 39 120 52 110 133 64 137 62 147 58 156 59 "/><path d="M240 0 243 1 249 7 249 35 245 46 222 54 215 56 209 56 199 53 185 43 176 25 171 4 171 3 175 0 240 0 "/><path d="M68 192 82 193 89 196 92 198 94 200 101 209 109 220 109 222 106 247 102 249 21 249 21 242 30 228 63 193 67 192 68 192 "/><path d="M229 219 239 222 242 223 246 227 246 239 237 246 205 249 145 249 145 247 147 242 150 235 152 232 158 225 164 221 167 220 227 219 229 219 "/><path d="M1 50 41 72 43 76 48 87 48 88 47 91 44 94 27 103 23 105 14 107 4 107 0 106 0 50 1 50 "/><path d="M248 91 249 92 249 159 238 157 236 155 227 123 227 122 232 107 247 91 248 91 "/></svg>