<svg width="256" height="256" xmlns="http://www.w3.org/2000/svg" fill-opacity="0" stroke="black" stroke-width="3" ><path d="M122 50 132 51 151 56 191 72 197 97 201 125 201 127 200 149 194 169 191 176 190 178 181 192 174 198 166 202 163 203 146 204 141 204 66 194 54 191 52 189 48 184 42 176 41 174 39 168 36 158 35 153 34 144 34 134 36 120 42 100 55 86 68 73 73 69 76 67 89 59 93 57 98 55 106 52 110 51 115 50 122 50 "/><path d="M217 0 217 2 202 51 199 55 198 56 194 58 182 60 177 60 78 38 57 32 41 23 38 20 25 0 217 0 "/></svg>