<svg width="256" height="256" xmlns="http://www.w3.org/2000/svg" fill-opacity="0" stroke="black" stroke-width="3" ><path d="M120 36 125 37 129 38 143 42 156 46 161 48 170 52 182 60 200 76 201 77 211 88 220 100 224 108 225 111 226 119 227 128 227 132 226 138 222 151 219 158 217 162 214 167 210 173 207 177 188 196 175 206 173 207 164 211 152 215 144 217 118 217 111 216 99 213 85 209 77 206 75 205 64 198 61 196 53 189 49 185 43 177 35 164 34 162 32 157 29 149 28 141 27 132 27 114 28 104 33 88 39 76 41 73 47 65 52 60 57 56 69 48 76 44 83 41 92 38 103 36 120 36 "/><path d="M249 0 249 62 247 64 218 65 210 65 203 63 177 46 171 42 169 39 155 16 147 2 147 0 249 0 "/></svg>