<svg width="256" height="256" xmlns="http://www.w3.org/2000/svg" fill-opacity="0" stroke="black" stroke-width="3" ><path d="M134 34 170 50 174 52 186 60 194 66 200 72 202 75 210 88 216 108 218 118 222 142 222 151 219 157 204 178 200 182 196 185 190 187 149 197 96 208 85 209 77 209 72 208 69 207 61 203 56 199 44 187 40 181 37 175 36 171 36 169 67 88 71 78 79 70 120 35 130 34 134 34 "/><path d="M168 212 187 218 202 223 211 232 213 235 214 237 215 240 216 246 216 249 81 249 81 248 82 246 83 245 90 239 109 228 118 223 146 214 164 212 168 212 "/></svg>