<svg width="256" height="256" xmlns="http://www.w3.org/2000/svg" fill-opacity="0" stroke="black" stroke-width="3" ><path d="M109 41 114 42 158 55 174 60 176 61 190 73 204 121 206 130 206 137 164 204 160 208 156 210 150 212 146 213 141 214 129 214 117 212 99 208 95 206 88 201 87 200 84 196 38 108 37 106 36 103 36 99 37 94 47 79 55 71 66 61 73 55 79 50 82 48 87 45 91 43 107 41 109 41 "/><path d="M60 0 61 11 61 12 60 17 56 32 54 37 53 39 48 46 8 86 4 89 2 90 0 90 0 0 60 0 "/><path d="M24 160 27 161 29 162 40 172 52 189 53 191 57 200 57 204 56 209 48 217 45 217 10 198 3 193 0 188 0 159 24 160 "/><path d="M177 0 178 2 179 9 179 16 175 24 171 28 167 30 162 32 157 33 150 33 143 32 138 30 132 27 127 22 125 18 123 10 123 5 125 0 177 0 "/><path d="M3 203 9 205 18 209 33 219 35 221 35 225 34 226 21 234 19 235 16 236 10 237 9 237 3 235 0 233 0 203 3 203 "/></svg>