<svg width="256" height="256" xmlns="http://www.w3.org/2000/svg" fill-opacity="0" stroke="black" stroke-width="3" ><path d="M160 0 177 3 179 4 184 8 195 22 199 28 202 33 204 37 206 42 208 50 209 56 212 79 213 89 212 103 208 123 206 130 204 134 200 141 194 150 189 157 184 163 178 169 160 181 156 183 150 185 141 187 130 188 120 187 113 185 109 183 68 157 63 152 55 143 48 129 45 118 42 97 42 83 43 75 45 66 48 58 54 46 59 39 63 34 73 23 94 4 96 3 103 0 160 0 "/><path d="M98 214 102 215 108 218 116 224 117 225 121 245 121 249 0 249 0 239 7 233 32 217 96 214 98 214 "/></svg>