<svg width="256" height="256" xmlns="http://www.w3.org/2000/svg" fill-opacity="0" stroke="black" stroke-width="3" ><path d="M146 46 149 47 179 59 183 61 190 68 193 73 195 77 196 80 197 84 198 106 198 137 195 149 192 158 188 166 175 179 167 185 165 186 161 187 135 189 126 189 85 181 84 178 79 157 71 107 72 104 73 102 81 90 94 76 142 47 145 46 146 46 "/><path d="M249 34 249 163 247 164 246 164 236 154 230 147 223 135 221 131 218 106 218 83 223 63 224 60 236 42 237 41 242 37 245 35 247 34 249 34 "/><path d="M249 0 249 17 246 22 237 29 217 39 206 36 202 34 199 31 188 16 181 6 179 2 179 0 249 0 "/><path d="M109 0 109 1 104 8 101 12 79 27 75 29 66 33 62 33 58 31 55 29 54 28 48 21 41 8 40 6 40 0 109 0 "/></svg>