<svg width="256" height="256" xmlns="http://www.w3.org/2000/svg" fill-opacity="0" stroke="black" stroke-width="3" ><path d="M69 40 152 81 159 85 199 114 200 115 200 121 196 159 195 164 194 166 193 167 171 187 166 191 155 199 120 205 104 206 102 206 88 199 75 191 71 188 66 184 60 178 53 167 52 165 50 160 44 144 43 138 43 120 44 114 52 68 55 57 57 52 65 42 68 40 69 40 "/><path d="M32 177 43 179 48 182 61 193 64 197 67 203 68 208 68 217 65 228 63 231 51 248 50 249 15 249 2 246 0 241 0 187 7 183 9 182 14 180 17 179 30 177 32 177 "/><path d="M23 31 26 32 28 33 36 38 38 41 38 57 24 123 22 130 20 135 12 142 0 150 0 64 13 41 20 32 22 31 23 31 "/><path d="M117 29 123 30 129 32 167 46 173 50 175 52 182 60 190 72 191 74 194 91 193 91 71 39 71 38 75 34 94 30 110 29 117 29 "/></svg>