<svg width="256" height="256" xmlns="http://www.w3.org/2000/svg" fill-opacity="0" stroke="black" stroke-width="3" ><path d="M154 47 169 50 171 51 176 54 182 58 190 66 200 83 202 87 205 96 206 102 206 113 200 133 198 139 192 152 187 161 182 166 176 171 160 181 146 185 137 187 127 189 118 190 99 189 94 188 83 183 79 180 70 172 69 171 61 161 55 151 51 141 47 129 51 104 57 82 58 80 61 77 65 74 69 72 113 58 132 52 143 49 147 48 153 47 154 47 "/><path d="M170 0 166 9 162 17 158 23 149 32 147 33 97 53 89 56 83 57 53 57 49 56 42 53 40 52 35 47 31 41 24 30 23 28 21 20 19 1 20 0 170 0 "/><path d="M249 126 249 208 237 214 233 214 225 209 224 208 221 204 216 195 214 190 213 181 213 168 214 165 222 143 223 141 225 138 227 136 232 132 235 130 241 127 246 126 249 126 "/></svg>