<svg width="256" height="256" xmlns="http://www.w3.org/2000/svg" fill-opacity="0" stroke="black" stroke-width="3" ><path d="M133 36 201 42 211 47 219 53 224 59 227 63 231 71 241 93 245 105 249 118 249 146 219 176 194 200 183 209 179 210 92 220 83 218 73 213 63 203 61 200 36 153 35 150 32 133 32 107 34 101 37 93 42 83 52 67 58 60 61 57 64 55 91 41 93 40 109 38 132 36 133 36 "/><path d="M10 169 21 170 27 173 28 174 79 233 79 234 78 237 71 248 70 249 0 249 0 169 10 169 "/><path d="M132 0 131 5 126 9 123 11 115 16 97 25 83 25 80 23 77 20 73 15 69 7 70 0 132 0 "/><path d="M249 199 249 245 235 249 211 249 212 238 214 235 243 203 246 200 248 199 249 199 "/><path d="M10 47 17 82 17 89 16 99 15 101 11 107 7 111 0 114 0 40 10 47 "/></svg>