<svg width="256" height="256" xmlns="http://www.w3.org/2000/svg" fill-opacity="0" stroke="black" stroke-width="3" ><path d="M149 45 180 51 183 53 227 109 227 113 225 116 198 151 186 165 180 169 166 173 134 182 124 184 117 185 113 185 104 184 94 181 91 180 80 176 68 168 66 166 64 163 53 140 52 108 52 98 53 91 54 87 87 52 90 50 100 45 130 42 149 45 "/><path d="M221 160 224 161 230 167 231 169 249 234 249 249 175 249 172 245 170 242 165 231 163 222 162 203 162 194 164 191 169 184 174 179 181 173 214 160 221 160 "/></svg>