<svg width="256" height="256" xmlns="http://www.w3.org/2000/svg" fill-opacity="0" stroke="black" stroke-width="3" ><path d="M117 44 127 46 133 48 150 54 152 55 161 61 170 68 180 76 184 81 190 91 191 93 210 141 216 161 216 162 142 198 139 199 125 201 103 201 90 200 86 199 83 198 76 195 68 191 61 184 49 170 45 165 41 159 39 155 37 145 34 122 34 109 36 100 37 96 47 77 61 62 63 60 70 55 86 47 92 45 102 44 117 44 "/><path d="M41 187 48 221 48 229 44 239 38 246 20 249 0 249 0 182 1 181 3 180 9 179 41 187 "/><path d="M249 182 237 172 228 159 226 156 225 151 224 142 223 131 223 126 225 112 226 108 229 102 232 98 239 91 249 86 249 182 "/><path d="M230 188 232 192 233 196 234 241 234 244 231 249 173 249 173 238 175 235 226 184 230 188 "/></svg>