<svg width="256" height="256" xmlns="http://www.w3.org/2000/svg" fill-opacity="0" stroke="black" stroke-width="3" ><path d="M128 58 145 64 155 70 161 76 169 87 175 96 178 122 178 146 177 150 175 154 169 161 152 174 121 187 97 187 91 186 86 185 77 183 73 181 70 179 65 175 54 163 53 161 52 158 51 153 49 134 49 133 57 107 62 99 71 86 90 67 94 64 102 62 125 58 128 58 "/><path d="M249 73 249 196 203 185 194 166 191 159 190 107 190 101 191 97 192 95 195 90 201 84 205 82 210 80 213 79 225 76 242 73 249 73 "/><path d="M249 0 249 53 248 54 247 54 237 49 231 44 230 43 196 0 249 0 "/></svg>