<svg width="256" height="256" xmlns="http://www.w3.org/2000/svg" fill-opacity="0" stroke="black" stroke-width="3" ><path d="M205 80 210 81 248 103 249 104 249 204 239 243 233 246 219 246 203 242 198 240 188 235 183 231 179 227 170 217 150 174 149 171 147 164 145 153 145 134 149 120 164 102 170 96 177 91 185 86 200 80 205 80 "/><path d="M45 13 51 16 58 20 59 21 111 110 111 114 106 124 104 126 96 133 67 149 59 153 44 155 43 155 20 151 12 147 9 145 1 139 0 138 0 64 3 48 6 39 14 22 16 20 23 16 32 13 45 13 "/><path d="M59 177 72 179 77 180 81 183 85 187 124 228 127 233 129 238 133 249 49 249 29 204 29 193 30 191 36 182 44 178 55 177 59 177 "/></svg>