<svg width="256" height="256" xmlns="http://www.w3.org/2000/svg" fill-opacity="0" stroke="black" stroke-width="3" ><path d="M110 0 166 57 175 68 179 74 185 84 188 90 191 97 193 102 196 113 197 133 197 138 195 148 192 157 190 160 182 169 170 181 158 192 142 200 131 204 126 205 99 205 91 204 85 203 75 199 69 196 62 191 59 188 52 180 43 169 0 45 0 0 110 0 "/><path d="M12 208 24 211 32 214 34 215 57 232 60 247 60 249 0 249 0 206 12 208 "/><path d="M201 206 209 207 217 210 246 223 248 227 249 236 249 249 196 249 195 216 195 209 196 207 199 206 201 206 "/></svg>