<svg width="256" height="256" xmlns="http://www.w3.org/2000/svg" fill-opacity="0" stroke="black" stroke-width="3" ><path d="M201 220 199 225 196 231 186 245 184 247 177 249 77 249 71 240 70 236 70 229 71 224 72 220 73 217 76 211 79 207 82 204 89 200 138 179 146 176 214 162 201 220 "/><path d="M120 0 135 4 148 8 150 10 156 20 157 22 159 37 159 42 155 53 153 56 143 61 134 61 118 60 111 59 99 51 98 50 91 39 90 37 74 1 74 0 120 0 "/><path d="M164 85 169 89 178 98 185 107 187 113 188 123 187 138 186 148 185 153 182 157 176 163 173 165 127 179 122 180 120 180 101 173 99 169 101 161 109 151 163 85 164 85 "/><path d="M239 0 239 3 237 13 231 22 225 27 209 29 202 27 201 26 196 20 194 17 192 13 190 8 190 0 239 0 "/><path d="M249 0 249 103 248 103 241 99 235 92 233 86 232 74 232 63 234 45 235 40 236 36 248 0 249 0 "/></svg>