<svg width="256" height="256" xmlns="http://www.w3.org/2000/svg" fill-opacity="0" stroke="black" stroke-width="3" ><path d="M197 75 200 79 202 86 218 143 218 150 215 162 213 166 212 167 140 214 136 216 108 216 99 212 91 208 82 202 57 179 57 132 59 118 61 113 68 97 69 95 82 73 85 68 90 62 115 40 126 35 138 34 197 75 "/><path d="M190 196 208 200 223 205 230 210 234 213 238 219 240 223 241 243 241 244 239 247 235 249 172 249 160 241 158 239 158 235 166 212 174 202 175 201 178 199 182 197 187 196 190 196 "/><path d="M25 19 66 54 66 57 54 85 50 88 46 90 31 90 11 82 3 78 0 71 0 35 20 19 22 18 25 19 "/><path d="M208 0 221 2 222 3 231 41 228 52 226 55 221 58 216 60 204 60 187 55 183 51 181 48 179 1 179 0 208 0 "/><path d="M96 0 98 2 102 11 106 22 106 25 105 28 104 30 103 31 97 34 85 34 21 13 20 12 20 11 25 1 26 0 96 0 "/><path d="M249 142 248 142 242 140 240 139 237 136 231 126 230 124 226 113 225 108 225 101 227 93 232 78 235 72 247 50 249 49 249 142 "/></svg>