<svg width="256" height="256" xmlns="http://www.w3.org/2000/svg" fill-opacity="0" stroke="black" stroke-width="3" ><path d="M98 39 114 43 117 44 138 55 162 71 170 78 174 83 177 89 178 92 186 152 186 160 184 165 182 168 178 173 164 190 139 214 128 224 125 226 114 232 112 233 109 234 96 238 84 238 71 236 55 230 51 228 45 224 40 220 17 199 15 197 8 188 3 179 0 170 0 99 2 92 3 89 6 83 9 79 22 66 31 59 43 51 53 45 64 41 74 39 89 38 98 39 "/><path d="M195 199 199 204 228 248 228 249 141 249 141 247 147 229 155 218 158 215 174 201 177 199 195 199 "/><path d="M169 0 168 3 166 8 163 12 162 13 152 18 138 22 137 22 133 21 123 16 112 5 110 1 110 0 169 0 "/></svg>