<svg width="256" height="256" xmlns="http://www.w3.org/2000/svg" fill-opacity="0" stroke="black" stroke-width="3" ><path d="M124 56 132 58 150 65 152 66 165 75 171 81 183 99 185 105 186 111 187 127 187 130 185 147 181 159 173 173 169 179 160 187 157 189 152 192 146 195 140 197 134 198 127 199 118 199 110 197 92 190 76 183 62 176 56 172 55 171 48 163 43 154 41 150 39 143 38 138 37 131 37 127 38 114 39 109 40 106 53 84 62 71 65 68 68 66 80 60 86 58 103 56 124 56 "/><path d="M15 222 23 224 31 228 35 233 41 249 0 249 0 226 2 225 10 222 15 222 "/><path d="M79 222 87 225 93 229 99 236 99 240 97 243 95 245 91 247 70 240 58 235 55 232 55 231 60 226 63 224 68 222 79 222 "/></svg>