<svg width="256" height="256" xmlns="http://www.w3.org/2000/svg" fill-opacity="0" stroke="black" stroke-width="3" ><path d="M124 31 132 32 154 38 164 41 167 42 179 48 184 51 189 55 197 62 203 68 207 73 210 78 213 86 217 99 219 112 219 140 215 161 211 171 203 182 199 187 191 194 177 206 111 240 88 240 67 237 63 236 59 230 52 215 51 211 38 158 37 151 37 144 38 72 61 52 87 39 98 35 112 32 120 31 124 31 "/><path d="M10 81 15 82 19 83 23 86 26 89 32 97 32 103 12 153 9 157 2 161 0 162 0 84 6 81 10 81 "/></svg>