<svg width="256" height="256" xmlns="http://www.w3.org/2000/svg" fill-opacity="0" stroke="black" stroke-width="3" ><path d="M127 49 129 50 164 68 165 69 175 81 180 91 182 96 184 102 188 120 185 138 184 143 181 148 168 163 165 166 149 180 142 184 130 187 115 188 114 188 90 187 85 186 82 185 76 182 69 178 63 172 51 159 49 156 46 150 41 138 40 135 39 125 39 113 40 107 41 102 42 99 51 85 65 71 81 58 126 49 127 49 "/><path d="M167 0 167 4 164 10 162 13 148 30 147 31 136 36 124 39 111 40 88 40 83 39 80 38 66 31 56 21 50 11 50 10 59 0 167 0 "/><path d="M240 0 246 13 247 16 247 17 246 25 244 29 235 45 232 50 231 51 226 52 214 54 213 54 206 52 199 45 193 32 191 26 190 22 190 9 191 4 192 0 240 0 "/><path d="M26 0 30 3 31 4 36 20 37 34 37 36 36 44 35 47 28 59 27 60 19 66 16 68 12 70 3 67 1 66 0 65 0 0 26 0 "/></svg>