<svg width="256" height="256" xmlns="http://www.w3.org/2000/svg" fill-opacity="0" stroke="black" stroke-width="3" ><path d="M125 36 141 38 147 40 163 46 178 54 186 60 198 76 199 78 206 95 209 107 211 120 211 121 209 131 207 139 206 142 203 149 201 153 191 171 189 174 187 176 181 180 157 195 129 209 124 211 118 212 111 213 101 212 80 205 66 198 52 187 42 176 39 172 35 164 28 140 27 129 27 107 28 100 29 97 32 89 36 82 39 77 42 73 46 68 56 58 60 55 79 44 83 42 94 38 103 36 125 36 "/><path d="M224 171 242 172 249 174 249 249 162 249 142 216 142 213 143 212 162 196 186 181 188 180 216 172 221 171 224 171 "/><path d="M249 61 249 133 248 133 245 132 229 122 226 119 224 115 223 112 222 107 222 102 228 86 230 82 233 77 240 67 245 62 248 61 249 61 "/></svg>