<svg width="256" height="256" xmlns="http://www.w3.org/2000/svg" fill-opacity="0" stroke="black" stroke-width="3" ><path d="M135 44 153 45 163 47 186 54 189 55 199 59 216 70 229 79 233 82 246 102 249 124 249 136 247 140 245 143 238 152 223 171 221 173 210 183 207 185 197 191 179 200 157 209 150 211 142 213 134 214 131 214 101 210 84 205 76 202 74 201 67 195 57 185 56 183 53 175 44 122 44 117 50 87 51 85 76 54 78 52 93 48 105 45 116 44 135 44 "/><path d="M1 62 5 67 43 134 45 141 46 147 49 172 49 174 43 195 39 203 31 213 29 215 9 216 3 216 1 215 0 214 0 61 1 62 "/><path d="M245 0 246 4 246 15 245 18 241 23 238 26 231 29 227 30 217 30 212 29 206 27 204 26 196 20 190 11 190 0 245 0 "/></svg>