<svg width="256" height="256" xmlns="http://www.w3.org/2000/svg" fill-opacity="0" stroke="black" stroke-width="3" ><path d="M153 75 158 76 191 106 192 107 196 120 196 135 195 139 194 141 187 150 173 164 136 185 115 186 96 186 86 180 68 166 60 155 51 138 50 136 45 117 46 114 51 106 61 91 62 90 66 87 152 75 153 75 "/><path d="M1 112 6 113 12 115 22 120 25 122 29 125 39 135 50 150 52 160 52 162 50 183 49 190 45 198 33 210 16 222 12 224 5 227 0 227 0 112 1 112 "/><path d="M229 241 220 249 181 249 181 247 188 209 198 196 199 195 212 196 215 197 224 206 226 209 229 216 229 241 "/><path d="M245 113 249 115 249 214 248 214 245 212 243 210 230 194 226 183 224 175 224 167 237 121 238 119 243 113 245 113 "/></svg>