<svg width="256" height="256" xmlns="http://www.w3.org/2000/svg" fill-opacity="0" stroke="black" stroke-width="3" ><path d="M130 31 155 32 173 36 181 40 190 46 196 51 206 60 207 61 214 70 219 77 225 88 226 91 228 100 228 102 222 160 219 170 218 173 216 178 214 182 212 185 208 190 204 194 201 196 170 212 147 222 138 224 115 224 105 221 97 218 93 216 87 212 59 190 57 188 49 175 41 150 39 143 38 136 38 131 42 101 48 85 54 76 57 72 72 53 96 37 115 31 130 31 "/><path d="M213 211 239 219 249 223 249 249 170 249 170 243 176 229 180 222 190 216 209 210 213 211 "/></svg>