<svg width="256" height="256" xmlns="http://www.w3.org/2000/svg" fill-opacity="0" stroke="black" stroke-width="3" ><path d="M115 32 133 35 136 36 154 45 157 48 172 77 174 96 174 103 169 121 161 138 108 213 104 214 102 214 98 213 77 201 70 195 67 192 61 185 45 163 41 157 32 135 31 132 29 122 28 115 27 101 27 98 28 90 29 86 32 77 37 68 41 61 43 58 44 57 64 43 67 42 84 37 108 32 115 32 "/><path d="M213 138 214 139 214 167 212 175 206 191 204 194 201 198 196 203 178 217 172 220 168 221 157 222 156 222 155 219 164 197 167 191 190 147 192 145 211 138 213 138 "/></svg>