<svg width="256" height="256" xmlns="http://www.w3.org/2000/svg" fill-opacity="0" stroke="black" stroke-width="3" ><path d="M116 7 119 8 151 29 154 32 156 35 157 37 188 100 188 106 187 122 183 131 179 139 177 142 170 152 103 217 63 218 52 218 51 216 44 201 43 198 43 196 45 180 84 21 86 17 88 14 91 11 96 8 102 7 116 7 "/><path d="M15 42 18 43 46 57 52 61 53 62 55 65 56 67 58 72 59 75 59 84 56 95 55 98 53 101 33 124 27 129 13 137 9 137 0 136 0 47 3 45 5 44 11 42 15 42 "/><path d="M1 181 13 187 19 193 25 200 29 206 30 208 33 222 33 224 31 234 29 240 27 244 22 249 0 249 0 181 1 181 "/></svg>