<svg width="256" height="256" xmlns="http://www.w3.org/2000/svg" fill-opacity="0" stroke="black" stroke-width="3" ><path d="M151 70 249 74 249 200 156 249 155 249 153 248 146 244 97 211 94 158 95 131 98 120 113 100 128 82 141 73 145 71 149 70 151 70 "/><path d="M129 0 132 4 136 10 140 18 141 22 141 29 140 35 138 42 130 66 86 88 83 87 52 58 51 46 55 19 74 0 129 0 "/><path d="M245 2 249 3 249 63 247 64 233 68 222 68 210 66 202 62 196 56 194 53 186 40 185 30 185 28 187 23 192 19 223 2 245 2 "/><path d="M80 136 82 141 83 145 85 184 64 194 62 194 57 192 55 191 44 185 34 175 52 142 54 139 55 138 69 125 80 136 "/></svg>