<svg width="256" height="256" xmlns="http://www.w3.org/2000/svg" fill-opacity="0" stroke="black" stroke-width="3" ><path d="M138 21 154 24 156 25 170 33 183 43 186 46 193 55 196 61 201 75 204 91 204 92 201 185 200 197 196 208 192 214 190 216 185 220 159 238 154 241 152 242 149 243 138 244 137 244 125 243 118 241 116 240 47 197 43 193 37 185 33 177 31 171 29 164 28 160 27 154 25 138 26 126 29 112 31 103 37 86 38 84 45 71 47 68 63 47 67 43 70 41 75 38 93 28 97 26 103 24 123 21 138 21 "/><path d="M201 224 208 228 213 232 216 237 218 241 219 244 219 249 163 249 163 243 164 240 165 239 190 226 194 224 201 224 "/><path d="M32 0 32 6 23 19 21 21 17 23 5 25 0 25 0 0 32 0 "/></svg>