<svg width="256" height="256" xmlns="http://www.w3.org/2000/svg" fill-opacity="0" stroke="black" stroke-width="3" ><path d="M176 0 184 2 186 3 190 6 200 16 202 19 208 29 210 34 230 90 234 104 235 110 235 115 234 120 227 146 217 163 211 173 203 184 198 190 192 197 180 209 174 214 169 218 166 220 161 223 157 225 139 232 132 234 123 236 112 238 100 238 88 236 80 233 66 226 63 224 59 221 51 213 45 206 43 203 39 194 36 186 35 183 33 170 31 147 31 123 32 103 34 93 37 81 41 67 42 64 47 52 52 42 55 37 57 34 69 17 72 13 81 6 85 3 93 0 176 0 "/><path d="M246 136 249 138 249 249 233 249 215 237 209 228 204 208 204 207 205 204 245 136 246 136 "/><path d="M249 4 249 80 245 77 239 71 235 65 233 61 228 44 230 31 233 24 243 9 247 4 249 4 "/></svg>