<svg width="256" height="256" xmlns="http://www.w3.org/2000/svg" fill-opacity="0" stroke="black" stroke-width="3" ><path d="M135 68 148 72 151 73 161 78 164 80 179 101 181 104 182 106 184 111 190 137 190 158 185 184 142 210 140 211 128 214 115 213 109 212 86 203 82 201 77 198 69 192 58 182 54 178 51 172 48 165 46 145 46 135 49 118 55 108 58 104 64 98 87 81 109 73 130 68 135 68 "/><path d="M249 0 249 10 241 18 238 19 225 21 217 21 210 18 208 17 190 3 189 1 189 0 249 0 "/><path d="M174 232 192 237 194 238 199 241 202 247 202 249 132 249 133 247 147 237 150 236 173 232 174 232 "/></svg>