<svg width="256" height="256" xmlns="http://www.w3.org/2000/svg" fill-opacity="0" stroke="black" stroke-width="3" ><path d="M219 142 218 152 215 162 211 171 210 173 201 188 193 198 191 200 185 205 179 208 172 211 162 214 141 220 123 220 106 217 98 215 91 213 83 209 74 204 51 190 42 184 34 178 31 175 27 170 17 156 11 144 8 133 7 128 5 89 5 74 6 70 7 67 13 58 16 55 27 48 33 46 38 45 120 31 138 31 143 33 156 39 158 40 170 47 186 59 198 76 213 108 217 129 219 142 "/><path d="M244 0 246 6 249 23 249 107 242 108 238 108 231 107 225 104 219 100 216 97 170 28 162 11 161 8 161 7 164 0 244 0 "/></svg>