<svg width="256" height="256" xmlns="http://www.w3.org/2000/svg" fill-opacity="0" stroke="black" stroke-width="3" ><path d="M133 24 151 26 163 30 191 48 193 50 202 62 205 67 219 101 220 117 220 120 219 137 217 151 209 167 205 174 192 187 180 195 163 206 146 212 129 212 121 210 101 203 99 202 91 196 75 180 71 175 68 166 63 147 61 134 61 115 62 101 63 97 73 71 87 46 94 38 99 33 118 25 131 24 133 24 "/><path d="M39 39 42 49 42 54 27 156 25 162 24 164 19 169 16 170 12 170 0 164 0 67 28 34 39 39 "/><path d="M249 0 249 55 247 57 234 66 231 68 153 5 150 0 249 0 "/><path d="M5 190 22 232 23 238 23 240 22 244 20 249 0 249 0 183 5 190 "/></svg>