<svg width="256" height="256" xmlns="http://www.w3.org/2000/svg" fill-opacity="0" stroke="black" stroke-width="3" ><path d="M116 57 137 58 147 60 152 62 160 66 168 71 176 79 189 95 191 99 194 107 198 119 200 128 200 132 198 143 194 159 190 167 185 174 171 188 166 192 160 196 150 202 142 206 136 207 116 207 111 206 98 203 75 192 67 184 59 174 54 164 53 160 50 136 50 123 51 98 56 88 63 79 65 77 70 73 79 67 83 65 92 61 99 59 103 58 108 57 116 57 "/><path d="M234 17 243 21 247 24 249 26 249 61 235 68 225 68 215 66 211 64 205 60 200 54 194 44 193 42 193 40 194 36 196 31 203 24 213 17 216 16 234 17 "/><path d="M248 123 249 124 249 189 243 187 231 178 224 157 224 153 226 138 234 128 239 125 247 123 248 123 "/></svg>