<svg width="256" height="256" xmlns="http://www.w3.org/2000/svg" fill-opacity="0" stroke="black" stroke-width="3" ><path d="M126 33 139 40 147 45 150 47 154 50 158 54 163 60 205 118 207 121 208 123 210 143 210 146 200 170 196 179 195 181 194 182 168 205 163 208 139 222 137 223 132 225 121 228 92 232 90 232 81 231 77 230 69 226 60 220 54 214 15 162 7 151 3 145 2 143 0 133 0 37 125 33 126 33 "/><path d="M196 207 207 211 216 216 229 226 230 227 234 245 234 248 232 249 143 249 143 246 144 238 146 232 151 227 171 215 183 209 186 208 195 207 196 207 "/><path d="M223 0 206 68 198 82 196 83 186 83 184 81 181 76 175 63 174 60 172 51 170 37 172 26 173 23 183 4 186 0 223 0 "/><path d="M80 0 80 2 79 5 71 13 69 14 35 21 24 20 12 18 8 16 0 8 0 0 80 0 "/></svg>