<svg width="256" height="256" xmlns="http://www.w3.org/2000/svg" fill-opacity="0" stroke="black" stroke-width="3" ><path d="M134 29 149 31 160 37 171 48 223 107 226 115 228 123 229 133 229 144 228 150 226 155 223 160 216 171 202 187 187 201 182 205 168 212 151 214 139 214 126 213 110 210 95 205 83 199 75 193 65 184 57 176 47 163 45 159 41 150 39 140 39 123 42 114 49 100 76 60 89 43 93 38 98 34 112 30 125 29 134 29 "/><path d="M108 0 107 2 52 75 43 81 33 86 25 89 23 89 13 86 6 81 5 80 0 72 0 0 108 0 "/><path d="M249 0 249 90 248 91 239 91 229 88 223 86 207 77 205 75 199 68 182 45 179 40 175 31 181 22 183 20 214 0 249 0 "/><path d="M239 153 248 155 249 156 249 249 235 249 226 234 225 232 224 199 224 196 225 192 233 166 236 157 238 153 239 153 "/><path d="M185 216 189 217 193 220 201 228 204 233 204 237 203 239 198 244 196 245 185 245 179 242 178 241 176 238 174 234 174 225 176 220 179 217 183 216 185 216 "/></svg>