<svg width="256" height="256" xmlns="http://www.w3.org/2000/svg" fill-opacity="0" stroke="black" stroke-width="3" ><path d="M157 34 167 36 170 37 173 39 183 49 187 59 205 110 200 191 198 193 186 202 182 204 177 206 170 208 158 210 138 211 135 210 79 187 59 174 58 173 45 156 37 127 38 119 42 103 43 100 48 87 69 59 76 53 80 51 111 40 117 38 142 33 157 34 "/><path d="M75 0 75 4 73 9 64 25 62 28 55 38 38 59 28 71 27 72 18 78 14 80 2 85 0 85 0 17 5 0 75 0 "/><path d="M237 94 249 107 249 212 246 215 245 215 221 204 214 198 213 197 212 195 212 185 214 123 229 98 232 95 234 94 237 94 "/><path d="M175 223 211 225 213 226 216 228 234 241 238 244 239 246 240 249 153 249 153 244 159 232 162 228 164 226 167 224 171 223 175 223 "/></svg>