<svg width="256" height="256" xmlns="http://www.w3.org/2000/svg" fill-opacity="0" stroke="black" stroke-width="3" ><path d="M118 41 152 54 154 55 164 72 165 74 168 84 170 92 170 110 169 112 164 119 133 162 131 163 116 165 103 166 90 164 72 160 69 145 63 110 63 109 67 60 88 42 117 41 118 41 "/><path d="M91 0 92 7 92 8 91 17 87 25 86 26 74 37 61 47 46 56 24 65 23 65 2 51 0 47 0 36 6 14 7 13 13 8 25 0 91 0 "/><path d="M63 175 77 182 84 186 89 195 90 197 91 200 93 215 93 216 91 222 89 226 85 232 82 234 74 235 66 235 55 232 44 226 40 223 37 218 33 210 33 195 35 188 43 180 53 175 63 175 "/><path d="M249 98 249 151 248 160 242 160 237 159 230 157 228 156 223 153 219 150 216 147 214 143 214 130 216 126 219 123 248 98 249 98 "/><path d="M241 58 249 60 249 84 234 96 221 99 217 99 208 95 207 93 207 90 208 83 209 81 218 66 221 63 227 60 234 58 241 58 "/></svg>