<svg width="256" height="256" xmlns="http://www.w3.org/2000/svg" fill-opacity="0" stroke="black" stroke-width="3" ><path d="M111 44 154 61 156 62 186 82 192 88 193 90 194 94 194 100 192 119 187 135 186 138 179 152 176 156 162 168 143 183 140 185 131 185 100 179 94 177 91 175 69 157 53 141 47 129 45 122 45 108 47 99 48 96 53 86 55 83 67 66 87 45 89 44 111 44 "/><path d="M249 167 249 249 202 249 200 243 200 238 201 228 202 222 204 212 205 210 211 200 218 190 236 172 239 170 241 169 247 167 249 167 "/></svg>