<svg width="256" height="256" xmlns="http://www.w3.org/2000/svg" fill-opacity="0" stroke="black" stroke-width="3" ><path d="M60 0 64 4 65 6 65 9 63 20 56 34 47 43 43 46 34 49 30 50 27 50 25 49 12 41 11 40 3 31 0 20 0 8 2 2 3 0 60 0 "/><path d="M162 188 171 197 184 218 182 220 175 223 170 225 140 227 132 227 123 226 118 225 109 223 93 215 90 213 81 206 74 199 73 196 155 188 162 188 "/><path d="M72 42 77 51 77 53 52 104 50 108 32 117 30 117 30 105 35 84 36 80 37 78 42 70 44 67 53 57 62 48 70 42 72 42 "/></svg>