<svg width="256" height="256" xmlns="http://www.w3.org/2000/svg" fill-opacity="0" stroke="black" stroke-width="3" ><path d="M110 38 150 43 166 52 185 63 187 65 188 68 200 120 201 131 201 151 198 165 196 169 189 181 187 184 183 189 180 192 176 194 136 210 117 215 108 215 84 203 81 200 58 171 57 169 54 162 47 137 39 101 39 98 45 77 47 71 48 69 51 66 74 46 83 41 88 39 98 38 110 38 "/><path d="M7 149 12 152 23 159 29 163 37 169 38 170 40 173 41 175 51 196 53 216 53 218 52 225 51 226 36 229 33 229 6 219 5 218 2 212 0 205 0 150 6 149 7 149 "/><path d="M217 0 217 1 216 3 203 18 201 20 185 34 180 35 171 36 167 36 152 35 115 24 112 23 97 13 95 11 95 9 99 1 101 0 217 0 "/></svg>