<svg width="256" height="256" xmlns="http://www.w3.org/2000/svg" fill-opacity="0" stroke="black" stroke-width="3" ><path d="M145 67 151 68 158 70 162 72 179 89 182 95 184 100 185 103 192 148 193 157 193 165 189 180 187 186 186 188 183 193 181 195 170 204 167 206 158 209 153 210 152 210 142 207 125 200 87 169 77 133 77 132 80 123 86 108 91 100 98 92 100 90 106 85 111 81 126 71 128 70 133 68 140 67 145 67 "/><path d="M42 140 48 146 53 152 56 156 76 187 82 206 82 208 80 211 48 229 38 229 10 227 7 225 5 223 3 220 0 207 0 154 8 146 39 140 42 140 "/><path d="M248 30 249 31 249 111 229 142 227 144 225 145 217 145 214 142 212 139 211 137 203 112 197 90 197 85 201 68 202 66 212 50 217 45 229 34 233 31 237 30 248 30 "/><path d="M164 232 172 234 185 238 196 244 198 248 198 249 123 249 123 245 125 242 133 234 137 233 142 232 164 232 "/><path d="M30 0 31 3 31 6 30 13 24 25 22 28 14 37 10 39 1 43 0 43 0 0 30 0 "/></svg>