<svg width="256" height="256" xmlns="http://www.w3.org/2000/svg" fill-opacity="0" stroke="black" stroke-width="3" ><path d="M92 9 108 11 115 12 127 15 140 19 153 25 165 31 180 39 183 42 185 45 199 69 204 81 212 101 213 105 213 106 209 123 200 147 178 190 175 195 168 203 159 212 141 219 138 220 123 222 116 222 91 218 82 214 76 211 39 184 35 179 33 176 31 171 30 165 19 90 19 87 21 75 28 60 31 54 33 51 39 44 54 32 65 24 88 10 90 9 92 9 "/><path d="M246 105 249 106 249 244 244 248 233 249 232 249 194 244 192 242 180 224 177 218 178 206 195 164 218 113 219 112 243 105 246 105 "/><path d="M2 84 8 90 11 94 13 98 14 101 15 106 22 171 22 172 21 181 20 184 16 192 4 201 3 201 0 195 0 83 2 84 "/></svg>