<svg width="256" height="256" xmlns="http://www.w3.org/2000/svg" fill-opacity="0" stroke="black" stroke-width="3" ><path d="M133 54 143 56 160 64 172 70 197 84 203 88 208 92 209 93 223 111 225 114 231 130 231 150 227 161 218 181 216 184 215 185 184 203 181 203 45 162 42 159 37 150 34 144 32 139 32 134 33 131 50 94 64 78 65 77 95 57 112 54 133 54 "/><path d="M222 211 235 215 238 216 242 218 246 223 249 232 249 249 169 249 166 242 166 240 170 230 172 228 175 226 191 218 217 211 222 211 "/><path d="M75 227 79 229 82 233 83 239 83 242 82 248 81 249 5 249 0 244 0 224 16 217 30 214 75 227 "/></svg>