<svg width="256" height="256" xmlns="http://www.w3.org/2000/svg" fill-opacity="0" stroke="black" stroke-width="3" ><path d="M168 0 175 6 221 56 221 59 220 61 197 99 192 107 102 245 98 249 41 249 21 246 0 231 0 55 3 48 9 40 10 39 21 29 31 20 35 17 46 10 51 7 61 2 69 0 168 0 "/><path d="M217 176 224 177 230 180 239 188 244 195 246 198 249 205 249 249 190 249 190 212 195 188 200 183 210 178 216 176 217 176 "/><path d="M249 75 249 170 219 155 215 151 210 143 201 122 213 100 214 99 234 81 240 77 248 75 249 75 "/><path d="M181 222 182 249 142 249 144 242 146 238 149 235 157 228 160 226 180 222 181 222 "/></svg>