<svg width="256" height="256" xmlns="http://www.w3.org/2000/svg" fill-opacity="0" stroke="black" stroke-width="3" ><path d="M101 45 104 46 112 50 177 101 178 102 179 139 179 145 177 169 175 172 172 175 169 177 165 179 151 185 125 189 114 190 102 191 84 183 56 169 51 165 46 159 27 126 26 124 20 106 20 91 26 78 36 63 41 58 47 53 51 50 99 45 101 45 "/><path d="M231 0 231 3 230 6 223 24 184 61 174 61 164 55 139 37 127 25 120 17 119 15 115 1 115 0 231 0 "/><path d="M173 213 177 214 189 218 191 219 192 220 197 227 209 247 209 249 126 249 129 241 138 230 145 223 157 214 172 213 173 213 "/></svg>