<svg width="256" height="256" xmlns="http://www.w3.org/2000/svg" fill-opacity="0" stroke="black" stroke-width="3" ><path d="M135 63 142 66 155 73 162 78 169 84 177 93 183 103 187 113 188 130 188 135 179 164 177 168 174 172 169 177 153 191 145 194 120 203 118 203 116 201 57 138 56 136 53 121 53 119 58 109 60 106 78 85 94 69 114 64 121 63 135 63 "/><path d="M35 153 42 154 51 157 53 158 61 164 62 165 67 174 87 225 89 231 91 240 91 249 37 249 8 191 5 182 5 171 9 158 18 156 32 153 35 153 "/><path d="M16 24 20 26 27 30 56 49 58 51 60 68 58 74 55 80 45 90 28 105 21 109 0 116 0 20 16 24 "/></svg>