<svg width="256" height="256" xmlns="http://www.w3.org/2000/svg" fill-opacity="0" stroke="black" stroke-width="3" ><path d="M131 0 167 20 168 21 223 78 249 105 249 119 246 176 243 207 242 211 241 213 225 234 224 235 220 235 107 223 90 221 88 220 86 218 86 214 104 25 120 1 122 0 131 0 "/><path d="M103 0 97 15 76 30 69 33 55 33 43 32 38 29 32 24 31 23 28 19 26 16 25 12 24 7 24 0 103 0 "/><path d="M96 31 98 34 98 54 95 57 8 111 6 109 3 105 0 99 0 85 4 80 20 68 29 62 36 58 89 32 94 31 96 31 "/><path d="M38 165 40 167 70 198 70 200 69 210 57 213 43 216 41 216 12 199 0 190 0 165 38 165 "/></svg>