<svg width="256" height="256" xmlns="http://www.w3.org/2000/svg" fill-opacity="0" stroke="black" stroke-width="3" ><path d="M156 0 199 97 199 101 194 176 190 187 186 191 170 199 165 201 161 202 152 202 123 199 92 192 89 191 77 185 68 174 67 172 55 143 53 138 51 131 47 111 42 15 50 6 58 0 156 0 "/><path d="M246 100 248 101 249 102 249 152 236 152 222 149 219 147 218 146 214 135 214 131 217 120 219 114 223 109 228 105 232 102 234 101 237 100 246 100 "/><path d="M231 14 234 15 245 20 249 22 249 60 235 60 227 59 223 57 221 55 219 52 213 29 213 24 216 19 222 16 225 15 229 14 231 14 "/><path d="M1 14 7 20 11 25 14 29 18 39 18 66 14 81 12 88 6 100 1 105 0 105 0 14 1 14 "/></svg>