<svg width="256" height="256" xmlns="http://www.w3.org/2000/svg" fill-opacity="0" stroke="black" stroke-width="3" ><path d="M114 36 124 37 146 40 167 49 177 58 192 73 203 86 208 95 209 97 210 111 210 124 209 129 198 160 196 162 147 196 120 197 119 197 105 196 102 195 27 137 26 136 25 133 25 131 27 105 28 102 35 86 41 74 49 63 55 58 62 54 103 38 106 37 113 36 114 36 "/><path d="M249 0 249 87 226 101 224 102 215 98 213 95 191 48 187 39 186 35 188 19 189 17 191 14 198 4 200 3 210 0 249 0 "/><path d="M248 110 249 111 249 201 246 202 241 202 234 201 231 199 229 197 224 189 223 187 215 164 214 161 212 150 212 149 216 139 223 125 224 124 240 112 244 110 248 110 "/><path d="M3 131 5 132 16 140 21 152 27 173 28 181 28 189 25 195 20 203 13 208 8 211 3 212 0 212 0 131 3 131 "/></svg>