<svg width="256" height="256" xmlns="http://www.w3.org/2000/svg" fill-opacity="0" stroke="black" stroke-width="3" ><path d="M130 20 159 28 164 30 177 38 186 44 189 48 197 60 200 65 206 82 208 97 208 101 206 113 200 143 182 208 181 210 178 215 170 221 167 223 163 225 132 229 131 229 122 227 107 222 105 221 91 213 66 196 59 191 52 185 48 181 46 178 43 172 39 162 38 159 36 152 36 129 37 118 52 70 53 67 60 51 61 49 65 45 77 34 83 30 99 22 105 21 114 20 130 20 "/><path d="M34 194 48 200 97 232 100 234 107 239 112 244 113 246 113 249 0 249 0 204 15 199 33 194 34 194 "/><path d="M1 28 4 30 11 36 27 52 31 59 32 64 32 87 28 167 25 173 21 177 17 179 12 181 9 182 4 182 0 180 0 28 1 28 "/><path d="M249 91 249 214 248 214 241 207 228 188 223 178 222 173 220 148 220 139 221 129 227 114 228 112 231 108 248 91 249 91 "/></svg>