<svg width="256" height="256" xmlns="http://www.w3.org/2000/svg" fill-opacity="0" stroke="black" stroke-width="3" ><path d="M139 33 150 34 155 36 163 40 177 48 183 52 188 56 194 62 205 80 209 90 213 102 215 133 215 135 214 142 213 147 209 163 207 169 206 171 201 179 193 191 191 193 181 201 169 207 159 211 148 213 141 214 118 214 103 212 99 211 87 207 82 205 76 202 68 197 64 194 56 187 44 169 40 162 34 144 32 132 30 117 30 106 34 91 35 88 38 82 42 76 58 57 68 47 75 43 81 41 138 33 139 33 "/><path d="M249 55 248 55 245 53 238 47 231 37 227 29 226 25 225 19 225 18 226 15 232 4 233 3 249 0 249 55 "/></svg>