<svg width="256" height="256" xmlns="http://www.w3.org/2000/svg" fill-opacity="0" stroke="black" stroke-width="3" ><path d="M142 36 154 39 168 44 188 55 195 62 202 70 212 83 218 98 220 124 220 131 217 156 210 189 208 192 207 193 178 212 176 213 153 221 136 221 118 219 113 217 97 209 91 205 73 192 68 188 65 185 61 180 55 168 53 163 45 137 43 130 49 100 51 92 53 88 59 78 62 74 67 68 75 61 85 53 88 51 94 48 103 44 109 42 116 40 135 36 142 36 "/><path d="M2 214 19 215 50 221 54 223 80 249 15 249 10 247 8 246 0 239 0 214 2 214 "/><path d="M249 178 249 227 246 225 243 221 235 210 233 206 233 199 234 194 235 191 244 180 248 178 249 178 "/></svg>