<svg width="256" height="256" xmlns="http://www.w3.org/2000/svg" fill-opacity="0" stroke="black" stroke-width="3" ><path d="M113 52 126 55 134 59 137 61 196 117 215 139 216 141 213 176 188 189 175 195 164 200 158 200 134 199 126 198 106 195 99 193 94 190 91 187 68 157 62 149 60 146 56 137 52 126 52 118 56 100 66 72 68 70 78 63 88 58 98 54 102 53 107 52 113 52 "/><path d="M31 169 50 172 53 174 63 192 65 205 65 223 64 227 55 249 0 249 0 203 3 194 12 181 13 180 16 178 30 169 31 169 "/><path d="M137 214 155 220 178 228 189 234 194 238 198 242 200 246 200 249 80 249 80 246 83 240 94 229 102 222 107 219 116 216 128 214 137 214 "/></svg>