<svg width="256" height="256" xmlns="http://www.w3.org/2000/svg" fill-opacity="0" stroke="black" stroke-width="3" ><path d="M184 34 196 46 225 86 229 94 229 110 228 115 227 119 225 126 224 129 222 133 209 148 204 153 202 153 162 149 151 140 140 129 130 90 130 85 138 73 160 45 164 41 175 33 184 34 "/><path d="M101 211 106 213 112 216 121 225 124 248 124 249 71 249 70 248 68 245 71 232 73 226 79 218 81 216 97 211 101 211 "/><path d="M201 157 201 158 196 166 194 169 187 178 183 182 173 191 147 207 131 210 124 211 114 207 110 205 95 195 88 189 88 185 199 157 201 157 "/><path d="M184 0 185 1 186 3 187 6 187 15 185 18 177 22 170 24 145 16 133 9 131 7 131 5 132 4 137 0 184 0 "/><path d="M119 18 122 20 123 21 123 24 96 47 78 50 75 49 72 47 70 41 70 38 72 35 73 34 79 29 86 24 90 22 100 19 104 18 119 18 "/></svg>