<svg width="256" height="256" xmlns="http://www.w3.org/2000/svg" fill-opacity="0" stroke="black" stroke-width="3" ><path d="M151 33 154 36 182 67 190 78 195 85 197 89 198 92 200 99 201 113 199 143 197 147 181 172 178 176 173 181 167 185 157 190 136 195 103 200 102 200 95 199 83 195 75 188 59 173 56 170 55 168 50 151 49 143 49 135 50 123 51 119 55 112 58 108 65 99 75 89 83 82 119 52 147 33 151 33 "/><path d="M128 0 126 10 124 12 112 22 71 40 38 51 35 51 8 47 2 45 0 43 0 0 128 0 "/><path d="M239 0 240 1 244 8 245 11 245 13 244 26 241 33 238 37 234 41 231 43 221 48 212 50 201 50 192 46 188 43 185 39 183 36 180 30 180 15 188 0 239 0 "/><path d="M249 249 224 249 222 246 219 235 217 223 217 214 221 203 224 198 232 192 244 186 249 184 249 249 "/></svg>