<svg width="256" height="256" xmlns="http://www.w3.org/2000/svg" fill-opacity="0" stroke="black" stroke-width="3" ><path d="M124 55 132 57 154 63 159 65 163 67 191 83 208 100 213 109 215 115 215 118 214 128 213 136 201 157 182 176 161 191 159 192 154 194 147 196 138 198 126 200 114 200 103 197 94 194 85 190 79 186 72 180 70 178 59 163 58 161 47 120 47 110 48 105 50 97 58 87 64 81 90 64 98 59 107 57 121 55 124 55 "/><path d="M244 149 249 154 249 226 216 236 212 236 209 235 200 230 195 226 194 225 190 220 187 214 186 210 185 205 185 201 186 193 187 190 190 183 195 176 210 161 237 148 244 149 "/><path d="M2 88 10 92 18 97 27 103 37 117 40 122 42 128 43 132 45 146 45 157 43 164 37 174 31 180 21 188 13 191 5 193 0 193 0 88 2 88 "/></svg>