<svg width="256" height="256" xmlns="http://www.w3.org/2000/svg" fill-opacity="0" stroke="black" stroke-width="3" ><path d="M113 34 126 36 129 37 201 65 207 68 215 74 224 87 226 93 226 95 225 103 224 107 223 110 207 147 206 149 202 155 199 159 185 174 178 181 170 188 160 193 147 198 133 200 131 200 119 199 115 198 97 191 88 186 75 176 65 164 62 160 56 149 50 135 49 132 46 119 46 111 49 93 54 82 58 74 62 68 69 58 71 56 80 49 83 47 97 38 108 34 113 34 "/><path d="M240 0 249 7 249 29 245 34 237 40 235 41 214 49 200 49 186 46 172 41 156 33 127 15 119 9 118 8 117 0 240 0 "/><path d="M249 225 229 218 228 217 221 206 219 202 219 199 221 166 224 157 225 155 248 123 249 122 249 225 "/></svg>