<svg width="256" height="256" xmlns="http://www.w3.org/2000/svg" fill-opacity="0" stroke="black" stroke-width="3" ><path d="M90 85 101 86 104 87 138 101 143 104 144 105 146 108 168 149 169 151 170 154 170 163 169 168 168 172 163 188 160 195 158 199 146 214 143 217 128 228 122 232 119 233 103 238 98 239 90 240 74 239 68 238 57 236 54 234 35 220 24 209 21 203 9 176 8 172 7 162 7 144 8 140 11 131 13 126 17 119 25 107 29 103 37 99 50 93 60 89 74 85 90 85 "/><path d="M218 28 221 29 249 52 249 101 246 114 242 118 230 126 213 134 210 134 185 122 183 121 180 118 179 116 163 74 163 56 171 40 174 37 182 32 184 31 187 30 213 28 218 28 "/><path d="M145 0 145 4 144 10 140 24 136 32 128 40 119 46 112 48 107 49 101 49 91 48 57 33 49 25 44 16 43 12 55 0 145 0 "/></svg>