<svg width="256" height="256" xmlns="http://www.w3.org/2000/svg" fill-opacity="0" stroke="black" stroke-width="3" ><path d="M131 9 173 18 177 19 184 22 192 26 193 27 227 84 227 85 223 107 221 115 191 233 163 249 85 249 79 245 78 244 76 241 73 234 71 228 70 219 74 128 80 52 93 32 96 29 113 13 118 11 126 9 131 9 "/><path d="M249 0 249 56 248 58 245 59 241 58 235 56 232 54 228 50 220 41 216 35 212 27 211 18 214 5 219 0 249 0 "/><path d="M28 141 31 147 31 150 22 172 20 175 14 182 5 191 2 193 0 193 0 110 28 141 "/></svg>