<svg width="256" height="256" xmlns="http://www.w3.org/2000/svg" fill-opacity="0" stroke="black" stroke-width="3" ><path d="M112 42 120 43 125 44 129 45 135 47 149 53 158 57 163 61 164 62 171 70 175 75 180 82 185 90 191 100 249 201 249 249 123 249 56 198 50 193 39 182 32 170 28 161 25 154 24 151 23 145 22 135 22 134 24 120 28 101 35 85 36 83 38 80 42 75 50 67 57 61 68 54 76 49 89 45 100 43 108 42 112 42 "/><path d="M249 0 249 63 246 63 232 62 216 57 210 53 188 36 185 22 184 16 184 15 194 0 249 0 "/></svg>