<svg width="256" height="256" xmlns="http://www.w3.org/2000/svg" fill-opacity="0" stroke="black" stroke-width="3" ><path d="M191 69 194 70 196 73 205 91 206 98 206 102 204 129 198 145 188 157 175 166 158 175 154 177 146 179 125 179 119 178 103 173 89 168 85 165 85 163 98 135 106 125 107 124 189 69 191 69 "/><path d="M50 187 55 188 60 190 64 192 67 194 71 197 72 198 75 202 76 204 77 207 77 210 75 219 74 221 70 227 65 231 36 249 0 249 0 196 41 187 50 187 "/><path d="M244 204 249 209 249 249 159 249 156 241 156 240 157 237 233 203 241 202 244 204 "/><path d="M66 91 72 93 85 100 86 101 89 116 89 117 83 162 81 162 79 161 74 157 72 155 69 150 61 135 60 127 59 110 59 108 61 99 63 93 64 91 66 91 "/><path d="M168 70 169 71 168 73 163 79 160 81 130 96 120 99 117 99 115 94 112 74 112 71 122 61 127 58 168 70 "/><path d="M112 44 113 45 113 47 89 96 88 97 86 97 71 89 68 83 68 76 69 74 81 59 85 56 110 44 112 44 "/></svg>