<svg width="256" height="256" xmlns="http://www.w3.org/2000/svg" fill-opacity="0" stroke="black" stroke-width="3" ><path d="M105 13 152 21 167 25 169 26 176 30 179 33 182 43 188 68 184 83 176 91 172 94 149 111 143 115 114 134 91 145 75 149 74 149 67 142 60 134 55 128 37 81 36 78 36 75 56 41 68 29 104 13 105 13 "/><path d="M79 200 84 203 87 205 68 229 50 248 45 249 9 249 9 246 12 240 19 232 39 215 57 205 68 201 77 199 79 200 "/><path d="M189 143 189 144 187 149 180 156 177 158 157 171 153 173 144 177 137 180 124 183 120 183 119 182 113 167 113 166 114 165 119 163 166 147 186 142 189 143 "/></svg>