<svg width="256" height="256" xmlns="http://www.w3.org/2000/svg" fill-opacity="0" stroke="black" stroke-width="3" ><path d="M124 51 138 54 149 57 188 73 196 83 201 91 206 100 208 104 211 113 211 137 206 155 204 160 201 166 199 169 194 174 182 184 171 191 169 192 156 194 151 194 112 193 103 191 99 190 93 188 77 182 59 174 49 166 41 157 40 115 40 113 41 110 47 94 48 92 50 89 53 85 74 67 113 54 123 51 124 51 "/><path d="M148 225 152 226 160 230 163 233 164 235 169 246 170 249 82 249 84 241 87 237 95 229 97 228 105 226 118 225 148 225 "/></svg>