<svg width="256" height="256" xmlns="http://www.w3.org/2000/svg" fill-opacity="0" stroke="black" stroke-width="3" ><path d="M116 32 124 33 131 34 146 37 154 39 160 41 165 43 172 49 173 50 176 54 185 67 191 79 193 85 193 95 191 149 189 155 187 160 182 167 175 175 172 178 169 180 154 188 146 192 122 198 109 200 100 201 84 201 80 200 74 198 65 194 49 182 43 176 33 162 29 156 26 149 23 141 22 136 21 130 21 123 22 109 23 102 24 96 25 93 30 83 36 72 41 65 52 52 55 49 61 45 68 42 84 36 87 35 97 33 104 32 116 32 "/><path d="M173 198 197 205 203 208 209 214 215 222 217 226 221 246 221 249 89 249 74 233 69 227 67 224 67 221 72 214 73 213 77 211 172 198 173 198 "/><path d="M249 65 249 169 248 171 247 172 245 172 220 147 209 125 209 107 210 101 212 94 215 88 221 80 224 77 236 70 247 65 249 65 "/><path d="M94 0 94 2 89 11 88 12 84 15 48 33 42 34 22 34 15 29 6 22 4 20 3 18 0 11 0 0 94 0 "/><path d="M162 0 163 1 165 5 166 9 166 16 158 24 156 25 153 26 99 18 94 11 94 10 95 7 98 2 102 0 162 0 "/></svg>