<svg width="256" height="256" xmlns="http://www.w3.org/2000/svg" fill-opacity="0" stroke="black" stroke-width="3" ><path d="M122 44 132 45 144 48 162 54 168 58 176 64 185 72 186 73 192 82 201 103 206 115 207 118 208 128 208 135 202 161 200 168 198 173 192 182 183 191 174 199 171 201 162 205 158 206 135 208 121 208 72 201 69 199 68 197 49 155 41 119 41 106 49 84 51 80 63 61 68 57 85 49 88 48 102 44 122 44 "/><path d="M2 142 4 143 7 145 10 148 12 151 15 158 16 161 16 174 13 180 9 185 5 189 1 191 0 191 0 142 2 142 "/></svg>