<svg width="256" height="256" xmlns="http://www.w3.org/2000/svg" fill-opacity="0" stroke="black" stroke-width="3" ><path d="M131 27 192 45 202 52 203 53 208 59 213 72 215 82 215 88 212 148 200 184 192 196 184 199 178 201 128 208 120 208 109 207 96 201 87 196 72 186 67 181 60 167 56 158 50 142 47 118 46 106 46 104 49 89 58 68 60 65 65 59 70 54 76 49 87 41 117 31 130 27 131 27 "/><path d="M12 117 20 119 28 125 30 127 34 132 36 136 44 157 50 178 52 186 52 200 51 203 50 204 39 212 32 217 18 223 8 226 1 228 0 228 0 121 1 120 5 118 10 117 12 117 "/><path d="M59 0 62 5 60 21 58 27 48 44 47 45 16 50 12 50 0 39 0 0 59 0 "/><path d="M65 208 66 209 76 242 77 247 77 249 0 249 0 240 5 237 62 206 65 208 "/></svg>