<svg width="256" height="256" xmlns="http://www.w3.org/2000/svg" fill-opacity="0" stroke="black" stroke-width="3" ><path d="M136 59 148 61 174 67 184 71 188 73 198 79 200 81 206 88 210 99 214 111 214 112 209 150 199 177 191 193 185 204 184 205 175 212 167 218 155 220 153 220 115 210 110 208 103 205 97 202 91 198 82 191 79 188 75 182 72 177 67 167 65 162 63 141 63 118 64 113 65 109 67 103 69 100 81 85 90 74 95 69 107 63 120 59 136 59 "/><path d="M249 136 249 249 207 249 205 245 198 226 198 225 199 186 205 175 222 151 231 144 239 138 242 137 246 136 249 136 "/><path d="M249 0 249 4 244 13 238 23 236 26 230 32 216 41 209 42 183 43 181 43 168 42 150 37 138 32 136 30 121 14 119 11 118 8 118 7 121 0 249 0 "/><path d="M28 14 45 23 55 32 66 47 67 51 67 54 65 56 63 56 11 24 9 14 9 12 11 9 28 14 "/></svg>