<svg width="256" height="256" xmlns="http://www.w3.org/2000/svg" fill-opacity="0" stroke="black" stroke-width="3" ><path d="M112 49 140 54 149 57 157 60 172 68 181 74 183 76 189 84 196 98 201 111 203 122 203 130 202 151 201 154 196 162 192 168 178 185 174 189 171 191 163 195 144 202 130 204 118 205 107 203 91 199 88 198 84 196 79 192 68 181 58 167 56 163 51 145 51 142 56 128 62 112 64 107 83 68 91 60 96 56 106 50 110 49 112 49 "/><path d="M19 30 28 37 48 54 50 58 51 61 51 69 47 79 25 129 23 132 17 138 14 140 11 141 4 141 1 140 0 139 0 75 3 45 4 43 13 31 14 30 19 30 "/><path d="M249 0 249 57 235 70 232 71 229 71 227 70 217 62 198 42 194 34 191 26 190 8 190 5 193 0 249 0 "/><path d="M12 192 20 194 24 196 27 198 29 201 31 206 32 209 33 213 35 229 35 234 32 243 29 249 0 249 0 196 4 194 9 192 12 192 "/><path d="M118 230 139 246 139 249 69 249 69 248 70 245 80 236 87 234 110 230 118 230 "/></svg>