<svg width="256" height="256" xmlns="http://www.w3.org/2000/svg" fill-opacity="0" stroke="black" stroke-width="3" ><path d="M129 33 146 42 160 56 198 107 199 109 199 110 194 154 177 173 174 176 164 185 69 249 0 249 0 165 50 84 54 78 69 60 89 40 92 38 97 35 111 31 119 30 129 33 "/><path d="M207 28 220 29 223 32 228 43 228 47 226 56 224 64 221 67 214 70 208 70 207 69 193 51 191 46 191 38 194 31 197 28 207 28 "/><path d="M184 3 183 7 163 42 157 48 154 45 139 17 139 15 140 5 143 0 180 0 184 2 184 3 "/><path d="M232 0 232 8 231 12 230 15 220 27 204 16 202 14 201 11 201 1 203 0 232 0 "/></svg>