<svg width="256" height="256" xmlns="http://www.w3.org/2000/svg" fill-opacity="0" stroke="black" stroke-width="3" ><path d="M131 35 158 37 166 39 170 41 178 46 189 54 199 62 205 67 216 78 222 88 225 94 227 101 231 121 232 136 231 146 230 152 229 157 227 162 224 169 219 178 216 183 204 195 193 204 190 206 185 209 183 210 165 218 161 219 142 223 132 224 113 224 104 222 95 219 90 217 69 208 65 206 45 194 38 189 32 183 27 177 22 169 20 164 18 157 18 146 20 132 22 126 24 121 28 112 44 80 52 69 58 62 69 53 76 48 79 46 91 39 104 37 127 35 131 35 "/><path d="M191 0 189 2 183 7 179 10 177 11 167 14 111 17 106 16 95 11 85 1 85 0 191 0 "/></svg>