<svg width="256" height="256" xmlns="http://www.w3.org/2000/svg" fill-opacity="0" stroke="black" stroke-width="3" ><path d="M136 54 141 55 155 58 158 59 163 61 192 78 196 84 205 110 207 117 207 127 204 148 203 153 199 162 193 172 188 179 179 190 157 212 134 217 116 218 107 217 96 215 91 214 84 211 80 209 75 206 59 190 53 182 49 175 41 154 40 151 39 145 39 130 40 126 44 113 45 110 48 103 50 99 54 93 69 78 83 69 104 58 121 54 136 54 "/><path d="M177 0 177 2 172 22 169 31 168 32 151 47 50 61 48 61 39 59 33 56 30 54 25 50 17 43 14 40 9 33 6 27 6 0 177 0 "/></svg>