<svg width="256" height="256" xmlns="http://www.w3.org/2000/svg" fill-opacity="0" stroke="black" stroke-width="3" ><path d="M118 7 128 8 140 11 157 16 166 20 188 34 199 44 211 56 213 59 223 78 226 84 235 110 235 141 234 146 231 157 230 160 224 175 210 191 208 193 190 209 171 223 165 226 158 229 73 247 62 246 60 245 54 239 21 172 14 157 11 141 10 134 9 120 9 111 10 90 12 83 13 80 16 74 20 68 40 45 45 40 54 32 63 25 70 20 78 16 89 11 101 8 114 7 118 7 "/><path d="M249 249 166 249 173 233 174 231 182 219 218 186 225 180 241 172 246 170 249 169 249 249 "/><path d="M249 0 249 88 247 87 237 81 228 69 219 53 217 49 214 38 212 30 211 23 211 20 213 5 217 0 249 0 "/></svg>