<svg width="256" height="256" xmlns="http://www.w3.org/2000/svg" fill-opacity="0" stroke="black" stroke-width="3" ><path d="M102 0 189 43 202 56 212 72 220 93 221 96 221 132 220 138 218 147 216 153 214 157 209 165 208 166 191 182 184 188 172 197 169 199 162 203 160 204 146 206 105 207 104 207 93 205 78 199 69 195 64 192 61 190 55 185 49 179 44 173 42 170 37 162 35 158 33 153 32 150 29 138 28 130 28 128 38 0 102 0 "/><path d="M12 0 23 3 26 5 33 12 33 14 31 46 13 71 5 79 3 80 0 80 0 0 12 0 "/></svg>