<svg width="256" height="256" xmlns="http://www.w3.org/2000/svg" fill-opacity="0" stroke="black" stroke-width="3" ><path d="M90 71 116 72 142 87 151 94 200 142 200 144 177 175 162 188 138 196 128 196 52 187 48 185 27 169 26 168 17 96 17 95 18 92 19 90 21 88 24 86 26 85 53 74 57 73 67 71 90 71 "/><path d="M190 0 191 2 193 14 193 30 192 39 191 44 189 52 188 55 182 71 172 78 164 79 143 80 140 79 128 67 79 0 190 0 "/><path d="M67 0 69 4 69 5 17 49 15 47 0 30 0 0 67 0 "/><path d="M248 0 249 1 249 17 236 23 233 24 225 22 221 19 215 12 213 8 212 3 212 0 248 0 "/><path d="M10 163 11 164 41 210 46 220 46 226 44 226 28 215 22 210 7 197 3 192 2 189 0 182 0 170 8 163 10 163 "/><path d="M211 155 214 158 215 162 212 167 201 185 197 185 192 184 187 180 185 176 185 173 191 159 192 158 194 157 209 155 211 155 "/></svg>