<svg width="256" height="256" xmlns="http://www.w3.org/2000/svg" fill-opacity="0" stroke="black" stroke-width="3" ><path d="M174 47 183 51 187 53 194 57 198 62 202 68 203 70 204 73 209 89 210 110 210 113 208 122 203 136 200 140 188 153 157 172 144 178 138 180 130 182 125 182 106 181 102 180 98 178 71 163 60 155 57 152 48 141 45 134 44 129 44 127 46 117 49 110 56 96 73 76 76 73 85 67 102 61 111 58 141 51 154 48 159 47 174 47 "/><path d="M144 0 146 4 147 9 147 15 144 28 138 37 131 42 125 45 35 87 28 89 26 89 14 83 11 81 8 78 5 73 3 69 0 59 0 0 144 0 "/><path d="M47 171 57 177 69 186 72 189 74 192 77 197 81 205 82 208 83 212 83 219 81 227 80 230 78 233 71 240 64 246 62 247 57 249 0 249 0 211 24 185 33 176 39 172 41 171 47 171 "/><path d="M249 0 249 68 226 57 212 35 210 20 213 7 215 3 219 0 249 0 "/></svg>