<svg width="256" height="256" xmlns="http://www.w3.org/2000/svg" fill-opacity="0" stroke="black" stroke-width="3" ><path d="M135 48 156 50 165 53 171 56 179 62 183 66 195 82 197 86 197 91 188 196 187 202 185 206 183 209 177 216 173 219 167 223 163 225 157 227 149 227 139 225 33 169 30 167 28 165 25 158 15 113 16 111 19 108 115 52 119 50 132 48 135 48 "/><path d="M29 199 39 201 45 203 95 230 102 235 103 236 107 241 108 244 109 248 109 249 0 249 0 224 1 221 2 219 6 213 10 209 14 206 25 200 28 199 29 199 "/><path d="M249 191 249 249 204 249 193 247 193 245 195 231 198 221 214 205 223 197 227 194 242 191 249 191 "/><path d="M249 107 249 171 238 171 235 170 229 167 226 165 221 159 220 157 217 150 216 142 216 141 218 131 220 124 222 121 231 112 243 107 249 107 "/></svg>