<svg width="256" height="256" xmlns="http://www.w3.org/2000/svg" fill-opacity="0" stroke="black" stroke-width="3" ><path d="M168 25 191 28 209 32 221 36 240 52 246 58 247 60 249 66 249 169 246 178 204 231 195 240 189 243 182 246 173 249 156 249 39 188 37 186 31 178 21 163 20 160 21 157 24 150 27 144 106 53 107 52 113 49 163 25 168 25 "/><path d="M46 0 65 14 73 20 76 23 93 42 93 44 84 61 81 66 79 69 76 72 61 84 57 86 39 91 38 91 32 89 27 86 25 83 15 64 3 41 0 35 0 0 46 0 "/><path d="M145 0 145 16 144 18 138 26 129 35 122 36 120 36 90 15 82 2 81 0 145 0 "/><path d="M237 0 237 1 236 4 229 11 226 13 210 17 197 19 189 19 183 16 179 13 170 6 167 3 166 1 166 0 237 0 "/></svg>