<svg width="256" height="256" xmlns="http://www.w3.org/2000/svg" fill-opacity="0" stroke="black" stroke-width="3" ><path d="M141 63 152 66 158 69 167 75 181 92 182 94 182 95 178 116 173 130 171 134 168 139 148 160 133 163 132 163 116 161 110 157 85 136 75 127 74 126 70 120 67 112 67 111 69 105 95 70 122 64 131 63 141 63 "/><path d="M76 0 112 25 114 27 119 36 119 39 116 42 106 48 63 60 61 60 47 52 43 49 42 48 27 27 25 18 24 13 24 0 76 0 "/><path d="M58 62 58 64 21 138 19 140 18 140 16 139 12 134 0 39 0 36 17 33 58 62 "/></svg>