<svg width="256" height="256" xmlns="http://www.w3.org/2000/svg" fill-opacity="0" stroke="black" stroke-width="3" ><path d="M83 0 186 33 188 35 199 48 202 54 210 76 214 95 216 118 216 138 215 141 214 143 193 162 185 169 173 179 153 189 124 200 121 201 117 202 103 202 92 200 80 195 33 163 29 159 27 156 0 78 0 0 83 0 "/><path d="M209 188 233 193 241 213 243 224 243 227 240 231 229 239 218 245 213 246 184 246 171 239 169 237 167 234 166 232 165 227 165 216 173 201 183 191 186 189 201 188 209 188 "/></svg>