<svg width="256" height="256" xmlns="http://www.w3.org/2000/svg" fill-opacity="0" stroke="black" stroke-width="3" ><path d="M106 50 125 52 206 76 222 84 238 98 243 103 246 107 249 127 249 155 246 168 244 172 240 179 237 183 230 190 220 198 212 204 197 211 180 216 179 216 102 213 81 207 79 205 74 199 43 141 41 136 40 132 35 106 35 105 36 103 48 88 59 76 62 73 87 54 89 53 97 51 103 50 106 50 "/><path d="M13 106 20 109 22 110 30 117 34 121 36 126 38 143 38 144 37 151 34 162 7 249 0 249 0 107 12 106 13 106 "/><path d="M144 225 150 227 152 228 159 234 164 241 166 244 167 249 110 249 109 245 109 244 117 232 119 230 123 227 127 225 144 225 "/></svg>