<svg width="256" height="256" xmlns="http://www.w3.org/2000/svg" fill-opacity="0" stroke="black" stroke-width="3" ><path d="M124 35 131 37 146 42 158 50 179 78 206 115 210 122 212 127 214 137 214 143 213 146 211 151 210 152 184 166 110 183 77 178 67 170 66 169 63 165 62 163 57 152 55 147 54 142 59 89 60 85 65 70 68 64 70 61 73 57 81 49 84 47 91 43 95 41 109 36 112 35 124 35 "/><path d="M3 148 7 151 16 159 22 166 24 169 27 174 32 187 36 199 39 217 39 229 32 247 31 248 29 249 0 249 0 146 3 148 "/><path d="M249 140 249 222 231 219 196 196 187 190 187 188 201 166 210 157 237 142 241 140 249 140 "/></svg>