<svg width="256" height="256" xmlns="http://www.w3.org/2000/svg" fill-opacity="0" stroke="black" stroke-width="3" ><path d="M155 49 159 50 181 58 185 60 188 62 191 65 201 78 207 86 209 92 213 128 213 140 212 142 202 157 166 205 161 210 152 217 132 223 122 224 89 220 85 218 84 217 68 193 60 178 49 133 49 114 51 85 52 82 55 78 81 49 82 48 120 43 155 49 "/><path d="M16 3 22 5 37 11 47 25 47 31 45 44 42 49 32 65 11 87 10 88 0 87 0 3 16 3 "/><path d="M249 86 249 188 236 181 228 175 226 172 224 167 222 158 222 154 224 128 229 102 230 100 238 92 244 88 248 86 249 86 "/></svg>