<svg width="256" height="256" xmlns="http://www.w3.org/2000/svg" fill-opacity="0" stroke="black" stroke-width="3" ><path d="M145 38 170 44 177 46 193 51 202 65 203 68 231 166 223 182 220 186 200 206 187 215 155 221 118 221 112 219 75 205 68 199 58 187 50 175 49 172 44 155 44 145 45 127 48 110 66 74 70 69 84 55 88 52 94 49 101 46 119 40 132 38 145 38 "/><path d="M249 230 225 237 221 237 221 230 226 219 229 214 232 210 239 201 249 194 249 230 "/><path d="M249 0 249 34 247 33 241 29 234 23 228 14 226 9 226 0 249 0 "/></svg>