<svg width="256" height="256" xmlns="http://www.w3.org/2000/svg" fill-opacity="0" stroke="black" stroke-width="3" ><path d="M121 52 132 53 137 54 157 59 169 65 181 73 189 81 193 87 199 98 200 100 211 132 215 145 217 153 217 179 215 186 213 190 207 200 196 209 185 217 183 218 175 221 172 222 147 226 135 226 122 222 102 212 74 193 66 179 64 175 55 150 54 147 54 122 56 105 57 102 64 84 84 64 88 61 92 59 109 54 113 53 118 52 121 52 "/><path d="M249 83 249 146 244 142 237 135 233 129 230 107 233 98 236 94 240 89 241 88 246 84 248 83 249 83 "/><path d="M243 0 249 4 249 35 248 35 233 29 225 10 224 7 223 1 223 0 243 0 "/></svg>