<svg width="256" height="256" xmlns="http://www.w3.org/2000/svg" fill-opacity="0" stroke="black" stroke-width="3" ><path d="M197 13 203 14 209 16 215 20 222 26 226 30 227 32 229 38 231 45 231 53 227 67 222 79 221 81 185 132 164 136 163 136 149 133 142 129 106 104 99 93 92 64 92 59 93 55 178 15 184 13 197 13 "/><path d="M84 54 89 55 90 58 112 177 112 182 108 184 105 185 97 185 86 184 84 183 79 178 72 170 67 164 65 161 63 157 60 137 60 135 62 83 64 67 65 65 68 62 81 54 84 54 "/><path d="M14 43 16 44 22 49 31 59 38 78 41 89 41 91 40 95 35 100 28 101 24 101 20 97 17 92 9 78 2 65 0 52 0 47 3 43 14 43 "/></svg>