<svg width="256" height="256" xmlns="http://www.w3.org/2000/svg" fill-opacity="0" stroke="black" stroke-width="3" ><path d="M155 0 167 3 170 5 177 11 187 20 202 45 202 48 195 87 193 97 192 100 185 114 179 124 164 139 158 143 142 151 135 153 122 156 116 157 106 157 95 155 83 152 7 119 3 117 3 107 7 44 8 39 10 30 14 17 16 14 24 5 26 3 30 0 155 0 "/><path d="M13 144 21 146 51 156 53 157 71 168 72 169 90 195 94 203 97 210 99 221 99 223 92 233 90 234 70 243 35 244 31 244 22 243 8 235 0 229 0 149 3 146 6 144 13 144 "/><path d="M212 206 219 208 247 228 249 230 249 249 164 249 164 248 174 225 176 222 178 220 185 214 192 210 194 209 202 207 209 206 212 206 "/></svg>