<svg width="256" height="256" xmlns="http://www.w3.org/2000/svg" fill-opacity="0" stroke="black" stroke-width="3" ><path d="M191 50 206 53 211 55 249 76 249 188 124 199 118 199 115 198 74 177 70 173 53 151 52 149 45 124 45 116 46 110 47 108 52 101 60 93 67 88 84 76 102 68 106 67 170 52 179 50 191 50 "/><path d="M69 38 68 45 67 49 65 54 61 60 53 68 45 75 42 77 40 78 39 78 29 77 24 76 0 64 0 0 51 0 62 9 65 15 69 37 69 38 "/><path d="M194 209 196 211 197 214 197 246 196 249 113 249 112 248 111 246 107 230 107 229 108 227 111 222 112 221 118 217 122 215 125 214 191 209 194 209 "/><path d="M5 143 15 146 21 152 28 161 31 169 31 171 29 176 17 195 15 197 11 199 3 201 2 201 0 200 0 143 5 143 "/></svg>