<svg width="256" height="256" xmlns="http://www.w3.org/2000/svg" fill-opacity="0" stroke="black" stroke-width="3" ><path d="M139 46 154 48 179 62 185 68 187 72 193 86 195 93 195 99 186 132 172 148 162 159 161 160 145 175 141 177 135 179 131 180 128 180 107 177 102 175 98 173 91 169 88 166 76 148 74 139 72 121 72 117 78 82 84 73 88 68 96 59 97 58 102 54 105 52 110 49 115 47 118 46 139 46 "/><path d="M240 130 249 132 249 243 226 249 174 249 165 239 162 234 158 225 156 217 156 192 158 185 161 179 204 134 207 132 215 130 224 129 240 130 "/><path d="M62 171 66 172 92 192 93 194 97 219 97 221 95 227 94 228 62 245 60 246 51 249 33 249 29 246 16 233 13 225 10 204 10 201 11 197 16 188 18 185 24 179 37 172 45 171 62 171 "/><path d="M210 0 213 3 220 11 222 14 227 24 227 31 224 41 223 43 221 44 218 45 199 50 190 51 188 51 182 48 167 39 162 33 154 22 154 21 156 14 160 6 166 0 210 0 "/><path d="M61 0 87 27 89 30 85 41 74 43 70 42 67 41 62 39 54 32 53 31 50 27 46 21 42 13 41 0 61 0 "/><path d="M149 0 149 6 147 12 145 15 140 21 136 24 127 30 113 39 106 39 104 36 104 32 121 0 149 0 "/></svg>