<svg width="256" height="256" xmlns="http://www.w3.org/2000/svg" fill-opacity="0" stroke="black" stroke-width="3" ><path d="M199 0 243 22 244 23 246 26 249 31 249 164 208 247 199 249 104 249 100 248 39 156 31 131 27 112 28 94 36 73 40 67 47 59 54 52 132 3 137 0 199 0 "/><path d="M20 174 27 176 30 178 31 179 36 187 38 191 45 226 46 234 46 236 45 241 44 243 43 244 37 249 7 249 5 237 3 196 3 186 4 181 6 178 9 176 14 174 20 174 "/><path d="M99 0 99 3 97 6 94 9 49 23 38 22 31 21 20 16 14 13 11 11 10 10 7 6 5 3 4 0 99 0 "/></svg>