<svg width="256" height="256" xmlns="http://www.w3.org/2000/svg" fill-opacity="0" stroke="black" stroke-width="3" ><path d="M27 87 51 90 58 95 108 133 112 137 116 144 118 155 118 159 116 190 113 196 92 225 79 235 77 236 65 238 44 238 41 237 0 221 0 104 4 99 15 90 18 88 21 87 27 87 "/><path d="M167 0 170 1 185 24 186 26 186 51 185 72 180 92 178 96 171 103 165 108 163 109 147 114 135 116 130 116 107 113 90 106 87 104 75 95 72 92 63 81 56 65 53 56 53 49 55 31 56 23 58 11 60 5 62 0 167 0 "/><path d="M249 0 249 132 234 124 228 120 215 106 207 94 205 90 202 83 201 78 200 72 199 64 198 53 198 52 199 21 206 6 207 4 211 0 249 0 "/></svg>