<svg width="256" height="256" xmlns="http://www.w3.org/2000/svg" fill-opacity="0" stroke="black" stroke-width="3" ><path d="M187 56 191 58 200 64 211 76 219 87 220 89 221 92 222 97 222 108 215 129 198 162 193 169 185 179 183 181 167 193 153 201 151 202 142 205 137 205 111 201 96 195 90 191 82 184 81 183 77 178 74 173 70 166 69 164 68 161 67 152 66 139 66 132 68 115 85 86 92 79 96 76 110 68 114 66 154 56 187 56 "/><path d="M6 20 8 21 18 27 32 37 33 38 42 50 47 58 49 62 51 70 54 84 54 92 53 110 51 115 48 122 47 123 35 133 30 137 25 139 19 141 12 143 8 144 5 144 0 143 0 20 1 19 6 20 "/><path d="M178 207 190 214 191 215 196 221 200 233 201 237 201 244 200 249 114 249 114 238 116 232 118 229 121 225 126 219 131 216 134 215 144 212 157 209 166 207 173 206 178 207 "/></svg>