<svg width="256" height="256" xmlns="http://www.w3.org/2000/svg" fill-opacity="0" stroke="black" stroke-width="3" ><path d="M128 58 159 89 161 95 161 96 132 189 130 191 121 192 114 190 86 176 62 130 62 125 70 93 76 74 77 71 80 64 87 58 128 58 "/><path d="M19 68 21 69 22 70 27 80 35 121 37 132 37 153 36 155 32 161 29 164 22 168 20 169 12 169 1 167 0 165 0 68 1 67 19 68 "/><path d="M164 0 164 1 156 21 153 24 131 36 117 39 111 39 105 38 100 37 88 34 81 32 79 31 74 24 73 22 72 17 72 16 74 5 75 0 164 0 "/><path d="M249 0 249 39 245 47 242 52 238 55 236 56 232 57 220 58 210 54 207 51 206 49 200 35 200 33 201 10 209 0 249 0 "/><path d="M180 195 196 197 205 200 208 207 208 208 206 220 200 248 199 249 148 249 146 248 146 241 149 231 150 228 152 225 178 195 180 195 "/><path d="M70 228 96 237 113 248 114 249 27 249 25 248 24 247 23 245 23 240 24 239 27 237 43 229 58 226 70 228 "/></svg>