<svg width="256" height="256" xmlns="http://www.w3.org/2000/svg" fill-opacity="0" stroke="black" stroke-width="3" ><path d="M148 0 154 4 155 5 197 69 199 82 200 94 200 125 199 135 198 143 195 157 168 245 164 249 129 249 119 246 62 195 61 194 58 190 57 188 54 177 28 79 27 70 27 65 28 58 44 0 148 0 "/><path d="M249 147 246 146 244 145 213 121 209 117 202 106 202 86 228 72 232 70 236 69 249 67 249 147 "/><path d="M24 0 32 16 35 23 35 27 33 32 27 39 23 43 15 44 13 44 10 43 0 35 0 0 24 0 "/><path d="M65 212 69 214 70 215 71 219 72 244 72 249 28 249 28 248 35 239 50 221 57 213 58 212 65 212 "/><path d="M243 228 249 233 249 249 209 249 210 242 212 239 216 235 226 228 241 227 243 228 "/></svg>