<svg width="256" height="256" xmlns="http://www.w3.org/2000/svg" fill-opacity="0" stroke="black" stroke-width="3" ><path d="M106 56 132 57 137 58 151 61 156 63 177 73 187 79 198 86 201 88 211 97 216 104 220 112 226 127 229 135 232 144 234 169 232 189 229 200 225 207 223 210 218 216 212 222 204 228 193 233 142 244 132 246 95 249 65 249 59 246 57 244 52 238 35 215 28 205 25 199 23 191 19 174 18 164 18 157 19 131 20 126 21 122 24 114 27 107 29 103 33 99 66 71 70 68 72 67 93 59 105 56 106 56 "/><path d="M249 126 249 182 246 182 245 181 241 176 239 172 237 165 236 157 236 143 237 139 238 137 245 129 248 126 249 126 "/></svg>