<svg width="256" height="256" xmlns="http://www.w3.org/2000/svg" fill-opacity="0" stroke="black" stroke-width="3" ><path d="M119 63 133 67 139 69 149 77 157 85 163 93 165 96 178 121 179 123 181 149 181 152 179 165 177 173 176 175 166 192 164 195 147 210 117 225 114 226 109 226 96 223 89 221 86 220 72 212 69 210 60 203 52 194 47 188 45 183 42 174 42 125 43 123 58 99 68 87 74 80 86 71 102 66 117 63 119 63 "/><path d="M249 213 249 249 216 249 221 239 223 236 239 220 248 213 249 213 "/><path d="M1 173 3 174 7 177 11 182 16 189 17 192 17 199 15 204 10 214 5 215 0 214 0 173 1 173 "/></svg>