<svg width="256" height="256" xmlns="http://www.w3.org/2000/svg" fill-opacity="0" stroke="black" stroke-width="3" ><path d="M133 24 139 25 144 26 152 29 168 39 184 52 185 53 200 69 208 82 215 97 217 102 219 110 220 122 221 143 221 144 216 159 210 172 203 185 198 191 189 201 183 207 172 215 149 221 138 223 124 224 121 224 104 223 85 215 81 213 67 205 56 194 44 175 40 167 34 142 34 118 40 84 55 63 73 45 80 39 89 33 101 27 104 26 108 25 120 24 133 24 "/><path d="M249 0 249 61 242 62 241 62 203 51 183 41 174 34 171 31 168 27 166 24 164 20 165 14 166 11 168 6 169 4 170 3 237 0 249 0 "/><path d="M2 42 3 43 17 59 18 61 19 66 21 79 21 80 17 157 16 160 15 162 14 163 12 163 0 157 0 42 2 42 "/><path d="M13 168 15 174 21 195 22 199 22 201 17 223 3 249 0 249 0 171 9 168 13 168 "/><path d="M87 0 87 1 82 7 81 8 71 17 68 19 65 20 57 20 54 19 50 17 42 11 32 1 32 0 87 0 "/></svg>