<svg width="256" height="256" xmlns="http://www.w3.org/2000/svg" fill-opacity="0" stroke="black" stroke-width="3" ><path d="M86 64 97 65 164 88 166 89 175 98 182 108 183 110 186 118 188 129 189 135 189 143 187 150 186 153 183 160 178 167 176 169 166 176 164 177 105 187 104 187 98 185 89 180 81 172 73 162 71 158 69 151 68 147 68 133 69 116 75 72 78 66 81 64 86 64 "/><path d="M202 0 200 20 198 29 190 39 182 47 163 61 159 61 105 58 101 57 93 53 91 51 91 50 93 24 96 14 97 11 105 0 202 0 "/><path d="M249 0 249 87 245 87 243 86 242 85 225 63 223 59 221 53 217 32 221 6 223 1 224 0 249 0 "/></svg>