<svg width="256" height="256" xmlns="http://www.w3.org/2000/svg" fill-opacity="0" stroke="black" stroke-width="3" ><path d="M113 36 144 54 194 85 231 117 233 128 233 136 224 155 216 163 199 177 194 180 179 188 176 189 90 191 82 191 79 190 77 189 70 185 60 175 51 163 50 161 42 144 40 126 40 59 42 55 43 54 46 52 59 44 63 42 69 40 74 39 112 36 113 36 "/><path d="M235 0 235 5 231 17 225 24 218 32 206 45 202 48 196 52 188 57 186 58 183 58 179 57 172 54 163 47 162 46 156 39 152 32 148 12 149 8 153 0 235 0 "/><path d="M104 219 118 220 122 222 126 225 127 226 137 238 139 241 140 243 141 246 141 249 50 249 50 247 51 245 76 226 81 223 84 222 99 219 104 219 "/></svg>