<svg width="256" height="256" xmlns="http://www.w3.org/2000/svg" fill-opacity="0" stroke="black" stroke-width="3" ><path d="M144 64 156 65 159 66 166 73 172 80 186 102 187 104 191 127 191 132 181 214 178 219 166 220 145 220 56 190 53 187 46 175 44 171 43 168 33 134 32 130 30 112 30 109 31 105 39 89 43 83 48 77 52 74 56 72 64 69 75 67 84 66 140 64 144 64 "/><path d="M217 142 239 153 242 155 247 159 248 160 249 163 249 214 246 214 231 206 222 198 215 185 213 180 212 168 214 147 216 142 217 142 "/><path d="M65 0 78 18 78 19 73 23 66 26 62 26 51 25 44 17 43 14 40 0 65 0 "/><path d="M249 143 235 141 223 129 223 128 228 120 236 110 243 106 249 103 249 143 "/></svg>