<svg width="256" height="256" xmlns="http://www.w3.org/2000/svg" fill-opacity="0" stroke="black" stroke-width="3" ><path d="M120 28 132 32 137 34 141 37 146 42 147 44 185 126 187 131 188 141 188 144 187 152 183 161 180 167 175 174 165 185 153 194 148 197 143 199 137 201 133 202 122 204 102 204 95 203 77 199 73 198 58 191 54 189 49 186 45 183 35 175 32 172 29 168 20 143 19 135 18 123 18 113 19 102 22 92 26 82 27 80 32 71 35 68 48 56 61 48 96 29 104 28 120 28 "/><path d="M249 0 249 80 246 89 240 96 239 97 234 99 220 103 218 103 212 102 206 100 192 93 188 89 175 63 169 38 169 19 170 10 174 0 249 0 "/></svg>