<svg width="256" height="256" xmlns="http://www.w3.org/2000/svg" fill-opacity="0" stroke="black" stroke-width="3" ><path d="M100 40 112 42 144 50 152 54 173 67 174 68 191 94 192 96 196 106 197 114 197 123 194 133 187 144 157 181 146 192 140 196 128 202 106 202 84 201 81 200 75 197 72 195 57 181 53 176 47 166 43 152 42 147 39 129 39 109 51 79 62 65 67 59 72 54 77 51 89 44 97 40 100 40 "/><path d="M214 0 214 2 211 17 198 27 192 31 150 31 134 26 118 19 117 18 116 14 116 11 119 1 120 0 214 0 "/><path d="M249 3 249 41 246 46 240 51 233 52 229 52 223 51 219 50 217 49 212 42 210 36 210 32 213 26 221 15 222 14 231 6 233 5 240 3 249 3 "/></svg>