<svg width="256" height="256" xmlns="http://www.w3.org/2000/svg" fill-opacity="0" stroke="black" stroke-width="3" ><path d="M121 29 130 31 134 32 169 45 171 46 174 48 183 56 191 65 194 70 195 72 198 80 200 93 200 111 190 151 186 162 183 165 161 185 152 192 150 193 138 197 118 199 117 199 102 198 97 196 81 189 68 183 50 168 48 162 45 151 37 102 37 99 45 75 47 70 74 54 117 30 119 29 121 29 "/><path d="M240 94 249 96 249 176 246 199 242 204 240 206 236 208 220 207 217 206 211 203 202 194 197 185 195 181 194 177 194 175 208 114 211 103 213 99 214 98 217 96 219 95 222 94 240 94 "/><path d="M114 202 129 204 133 205 136 206 140 208 142 210 147 219 150 229 151 234 151 244 150 249 77 249 74 246 73 244 72 238 72 231 73 227 75 223 81 214 85 210 95 203 102 202 114 202 "/><path d="M249 0 249 51 248 51 225 47 211 33 209 25 209 24 210 6 213 0 249 0 "/></svg>