<svg width="256" height="256" xmlns="http://www.w3.org/2000/svg" fill-opacity="0" stroke="black" stroke-width="3" ><path d="M248 0 249 1 249 19 248 51 247 55 245 59 232 78 222 92 177 135 167 144 143 160 118 170 115 171 101 174 93 170 75 154 74 153 71 149 69 146 67 140 66 128 72 97 73 95 76 90 81 83 138 15 144 9 155 0 248 0 "/><path d="M28 194 32 196 34 198 39 204 41 207 43 212 44 219 43 224 41 230 36 240 30 246 18 249 0 249 0 195 20 194 28 194 "/><path d="M60 0 61 9 48 24 28 20 18 17 13 15 10 13 1 5 0 4 0 0 60 0 "/></svg>