<svg width="256" height="256" xmlns="http://www.w3.org/2000/svg" fill-opacity="0" stroke="black" stroke-width="3" ><path d="M138 17 147 18 164 22 170 24 178 28 197 40 201 43 224 68 228 74 233 83 235 87 239 102 240 106 242 133 242 134 240 144 236 161 235 164 229 177 222 191 217 200 212 206 204 213 196 219 180 230 177 232 166 236 163 237 153 239 134 241 115 241 107 239 100 237 79 227 77 226 74 224 50 203 43 196 40 192 30 172 27 164 22 149 21 135 21 131 22 120 23 114 25 105 26 101 31 84 32 81 38 70 49 54 57 46 77 34 103 21 110 18 124 17 138 17 "/></svg>