<svg width="256" height="256" xmlns="http://www.w3.org/2000/svg" fill-opacity="0" stroke="black" stroke-width="3" ><path d="M249 0 249 98 156 187 152 189 147 191 98 191 95 190 90 188 88 187 84 183 82 180 77 171 50 117 45 94 44 89 44 82 52 68 144 0 249 0 "/><path d="M133 0 125 10 124 11 0 92 0 0 133 0 "/><path d="M125 201 131 203 138 206 140 207 145 212 150 222 151 226 151 233 145 248 144 249 89 249 85 246 83 244 80 240 79 237 79 232 82 222 87 215 92 210 95 208 104 203 108 201 125 201 "/><path d="M2 121 17 125 42 160 41 163 38 170 30 178 24 178 0 170 0 123 1 121 2 121 "/><path d="M24 183 27 186 28 191 28 207 27 210 26 211 12 219 4 223 3 223 1 222 0 221 0 190 22 182 24 183 "/></svg>