<svg width="256" height="256" xmlns="http://www.w3.org/2000/svg" fill-opacity="0" stroke="black" stroke-width="3" ><path d="M147 0 152 3 246 76 249 79 249 163 173 180 153 184 149 184 144 183 138 181 123 175 93 100 90 86 90 82 94 16 96 14 102 9 119 0 147 0 "/><path d="M56 99 60 100 67 104 75 112 81 124 82 130 83 137 83 138 81 144 79 149 74 155 63 164 51 165 49 165 35 158 30 153 28 150 24 138 23 134 23 131 24 127 28 117 32 111 38 105 43 102 52 99 56 99 "/><path d="M225 224 228 226 245 241 249 247 249 249 159 249 166 244 169 242 177 237 197 229 215 224 225 224 "/></svg>