<svg width="256" height="256" xmlns="http://www.w3.org/2000/svg" fill-opacity="0" stroke="black" stroke-width="3" ><path d="M136 37 144 39 147 40 154 43 160 46 180 63 211 107 213 116 211 128 209 138 201 157 197 163 194 166 189 170 121 202 114 203 105 203 96 202 90 200 85 198 76 192 65 183 59 177 53 169 47 158 42 148 40 141 38 124 37 113 38 106 40 99 43 89 46 81 48 78 53 71 58 65 77 53 84 49 99 41 126 36 136 37 "/><path d="M189 0 194 2 196 3 208 13 222 30 223 32 230 49 230 50 218 74 217 75 214 76 210 74 209 73 179 41 166 17 164 13 163 9 163 2 164 0 189 0 "/><path d="M215 195 228 197 240 207 242 209 243 211 245 222 245 228 241 237 237 245 235 246 226 249 179 249 180 245 206 198 209 195 215 195 "/><path d="M24 0 25 1 25 7 23 36 21 59 14 71 13 71 0 58 0 5 1 4 6 1 14 0 24 0 "/><path d="M72 0 74 36 74 43 73 48 72 50 71 51 66 53 61 53 57 52 36 41 34 36 34 17 36 0 72 0 "/><path d="M153 223 155 224 167 231 171 235 174 242 175 246 175 248 173 249 118 249 126 236 127 235 136 228 145 223 153 223 "/><path d="M131 0 133 2 133 8 131 14 129 18 125 24 122 27 106 35 80 45 77 22 77 21 95 0 131 0 "/><path d="M225 0 230 5 249 29 249 56 248 58 244 54 239 47 213 1 213 0 225 0 "/></svg>