<svg width="256" height="256" xmlns="http://www.w3.org/2000/svg" fill-opacity="0" stroke="black" stroke-width="3" ><path d="M121 42 135 44 165 57 167 58 183 67 188 70 196 75 199 77 203 80 208 84 211 87 219 98 222 104 224 110 224 113 214 160 213 164 211 170 209 175 208 177 204 184 198 191 188 202 182 207 174 211 78 215 56 215 48 211 43 208 35 202 29 193 24 183 23 180 23 161 29 112 30 108 35 95 37 91 49 75 59 64 60 63 64 60 70 56 78 52 88 48 91 47 101 44 110 42 121 42 "/><path d="M1 192 3 193 6 195 24 213 29 223 38 243 38 249 0 249 0 192 1 192 "/><path d="M168 233 178 237 184 241 190 247 191 249 135 249 135 247 136 246 147 237 150 235 167 233 168 233 "/></svg>