<svg width="256" height="256" xmlns="http://www.w3.org/2000/svg" fill-opacity="0" stroke="black" stroke-width="3" ><path d="M129 8 182 23 190 29 209 47 213 53 216 59 217 62 220 72 221 80 222 94 222 97 205 177 196 193 193 197 179 211 173 216 166 220 156 225 152 226 147 227 134 227 111 223 104 221 67 205 55 194 52 191 32 168 29 163 27 157 24 146 23 142 23 108 30 80 33 72 45 46 47 42 55 32 67 22 71 19 77 16 91 11 100 9 108 8 129 8 "/><path d="M29 193 34 194 36 195 61 215 60 217 3 225 0 225 0 197 1 196 28 193 29 193 "/></svg>