<svg width="256" height="256" xmlns="http://www.w3.org/2000/svg" fill-opacity="0" stroke="black" stroke-width="3" ><path d="M184 39 192 47 213 70 217 75 225 89 227 94 229 103 229 123 225 146 222 155 220 159 205 175 135 208 127 210 125 210 96 203 90 201 74 195 54 185 43 179 37 175 32 171 29 166 26 160 21 140 21 134 23 130 39 103 53 80 59 75 64 72 178 40 183 39 184 39 "/><path d="M128 0 129 6 129 8 125 36 111 51 108 53 104 55 97 57 92 57 88 56 60 34 50 11 48 3 48 0 128 0 "/><path d="M23 27 38 39 39 40 44 50 45 53 45 59 44 67 40 71 33 76 30 77 26 77 22 75 18 72 17 71 14 67 10 59 9 43 11 27 19 26 23 27 "/></svg>