<svg width="256" height="256" xmlns="http://www.w3.org/2000/svg" fill-opacity="0" stroke="black" stroke-width="3" ><path d="M135 54 141 55 145 56 164 63 166 64 171 67 183 79 187 85 189 89 193 100 195 112 203 161 203 165 201 176 197 186 195 190 193 193 188 199 187 200 177 209 174 211 164 217 162 218 159 219 143 219 98 200 92 197 84 191 81 187 77 181 72 173 68 166 66 162 60 147 59 143 59 122 60 114 62 106 67 91 86 72 96 64 99 62 103 60 114 56 124 54 135 54 "/><path d="M102 0 103 1 103 15 98 31 97 34 89 42 85 45 75 51 73 52 37 57 31 57 7 51 4 49 0 45 0 0 102 0 "/><path d="M249 84 249 174 242 171 240 170 232 165 230 163 224 155 214 134 214 120 216 112 218 105 224 96 230 90 232 89 247 84 249 84 "/></svg>