<svg width="256" height="256" xmlns="http://www.w3.org/2000/svg" fill-opacity="0" stroke="black" stroke-width="3" ><path d="M123 45 129 47 145 55 151 60 152 61 169 79 175 88 181 100 183 106 184 110 187 127 187 135 185 145 182 158 181 160 177 165 172 170 162 177 159 179 157 180 152 182 117 195 114 196 110 197 106 197 97 195 90 192 88 191 78 184 76 182 69 174 56 158 54 155 48 141 44 131 43 126 43 108 44 102 46 97 50 89 58 75 62 69 76 55 86 50 101 45 123 45 "/><path d="M150 213 158 216 160 217 163 220 173 233 173 244 171 248 170 249 114 249 113 243 113 237 114 232 119 221 123 217 126 215 134 214 146 213 150 213 "/></svg>