<svg width="256" height="256" xmlns="http://www.w3.org/2000/svg" fill-opacity="0" stroke="black" stroke-width="3" ><path d="M144 58 168 63 174 66 192 77 208 93 214 105 216 110 217 122 217 125 216 143 214 150 208 169 204 174 189 188 178 196 164 205 155 210 153 211 126 219 122 220 92 226 77 221 65 208 62 204 57 196 55 192 51 180 49 169 48 154 48 149 49 142 53 131 67 99 73 93 83 84 89 79 97 74 122 61 127 59 141 58 144 58 "/><path d="M1 9 4 11 26 39 34 51 38 60 41 72 42 83 42 88 41 95 39 101 32 117 25 131 23 134 13 142 0 142 0 9 1 9 "/><path d="M234 237 249 241 249 249 184 249 185 248 193 243 202 239 205 238 233 237 234 237 "/></svg>