<svg width="256" height="256" xmlns="http://www.w3.org/2000/svg" fill-opacity="0" stroke="black" stroke-width="3" ><path d="M137 51 146 54 154 58 170 68 178 76 180 79 187 94 188 97 192 114 192 127 189 190 188 194 184 200 182 202 178 205 173 207 170 208 166 209 152 210 146 209 135 205 131 203 77 156 76 155 63 141 61 138 61 129 62 119 64 105 65 99 66 96 73 82 81 71 84 68 91 62 94 60 102 55 109 52 134 51 137 51 "/><path d="M31 163 38 168 40 170 42 174 43 177 46 194 46 204 37 243 35 249 0 249 0 191 3 178 5 174 9 169 13 166 19 164 24 163 31 163 "/></svg>