<svg width="256" height="256" xmlns="http://www.w3.org/2000/svg" fill-opacity="0" stroke="black" stroke-width="3" ><path d="M67 0 68 1 76 17 80 29 80 32 78 37 76 41 56 68 52 73 50 75 40 83 34 86 29 87 19 88 14 88 10 87 7 86 0 80 0 0 67 0 "/><path d="M249 71 249 150 246 151 244 151 242 150 232 140 227 127 222 95 222 93 224 87 225 85 229 81 238 75 240 74 247 71 249 71 "/><path d="M90 79 119 105 119 116 107 140 105 142 103 142 77 137 75 135 64 117 64 106 65 104 82 78 85 75 90 79 "/><path d="M55 228 78 241 80 243 81 249 0 249 0 233 1 232 7 229 53 228 55 228 "/><path d="M237 0 218 12 213 14 210 15 207 15 181 14 177 12 156 1 155 0 237 0 "/></svg>