<svg width="256" height="256" xmlns="http://www.w3.org/2000/svg" fill-opacity="0" stroke="black" stroke-width="3" ><path d="M127 30 139 31 155 38 164 42 177 50 180 52 196 64 198 67 206 80 208 84 214 103 216 111 216 120 215 138 214 142 212 146 165 220 163 222 154 227 150 229 140 231 131 232 118 233 105 233 83 230 69 223 62 219 58 216 47 205 31 185 28 180 27 178 24 171 23 168 20 109 20 93 21 90 34 71 35 70 71 38 77 35 81 34 101 30 127 30 "/><path d="M21 3 26 5 29 7 36 12 42 20 44 24 46 33 46 38 35 50 33 52 30 54 24 55 19 55 4 51 0 49 0 3 21 3 "/></svg>