<svg width="256" height="256" xmlns="http://www.w3.org/2000/svg" fill-opacity="0" stroke="black" stroke-width="3" ><path d="M132 55 140 57 151 61 156 63 164 67 171 72 175 75 180 79 186 85 190 91 194 98 202 119 203 131 203 147 195 170 176 182 146 196 133 197 132 197 122 196 113 194 103 191 95 188 91 186 81 179 73 173 68 168 55 151 47 135 46 131 46 112 53 94 62 81 68 75 85 65 98 60 110 56 129 55 132 55 "/><path d="M217 174 242 195 243 196 249 204 249 208 246 230 238 242 232 249 169 249 164 244 162 238 162 237 163 223 164 220 169 212 173 207 179 201 208 176 211 174 215 173 217 174 "/><path d="M153 213 160 218 162 248 162 249 133 249 132 246 132 243 133 229 142 216 143 215 151 213 153 213 "/></svg>