<svg width="256" height="256" xmlns="http://www.w3.org/2000/svg" fill-opacity="0" stroke="black" stroke-width="3" ><path d="M121 47 131 49 136 51 140 53 151 59 171 73 181 83 184 87 191 100 193 105 194 108 199 126 199 143 197 154 194 162 189 172 185 178 179 185 171 193 169 194 151 200 144 202 136 203 120 204 109 204 93 202 88 201 78 196 74 192 65 182 60 170 52 146 52 124 56 109 59 100 68 76 70 73 75 67 79 63 83 60 100 50 102 49 106 48 117 47 121 47 "/><path d="M11 3 14 4 16 5 19 7 26 13 27 14 31 19 39 31 43 45 45 64 41 79 29 116 27 121 22 126 19 128 7 130 0 130 0 3 11 3 "/></svg>