<svg width="256" height="256" xmlns="http://www.w3.org/2000/svg" fill-opacity="0" stroke="black" stroke-width="3" ><path d="M174 55 180 58 183 60 190 66 191 67 195 72 214 102 218 123 218 124 217 167 213 179 212 181 211 182 196 196 153 234 147 237 146 237 139 235 61 198 57 196 53 192 15 122 11 113 11 108 13 85 17 77 22 68 30 55 47 40 60 33 65 31 71 29 99 25 174 55 "/><path d="M183 0 186 3 189 23 176 39 175 40 169 43 163 44 161 44 155 43 145 40 140 38 124 26 121 23 119 20 111 7 109 2 109 0 183 0 "/><path d="M249 197 249 249 208 249 207 245 207 243 211 224 222 212 227 207 240 197 243 196 249 197 "/></svg>