<svg width="256" height="256" xmlns="http://www.w3.org/2000/svg" fill-opacity="0" stroke="black" stroke-width="3" ><path d="M68 63 142 65 179 69 192 81 193 82 199 89 203 96 205 100 211 113 215 123 215 137 213 148 208 160 207 162 203 167 198 172 124 224 121 226 117 228 111 228 107 227 105 226 102 224 60 183 57 180 52 172 50 167 46 154 43 129 43 124 52 78 56 73 64 65 67 63 68 63 "/><path d="M51 195 59 199 67 205 71 209 83 225 89 239 90 248 90 249 0 249 0 234 3 223 5 219 8 215 14 208 15 207 20 204 29 200 32 199 47 195 51 195 "/><path d="M8 96 11 97 20 101 33 111 34 113 37 122 40 132 42 140 42 157 37 167 31 174 30 175 26 178 20 181 15 182 0 182 0 102 6 96 8 96 "/><path d="M215 197 237 208 238 209 246 219 249 225 249 249 180 249 177 239 178 227 179 225 183 218 187 215 213 197 215 197 "/><path d="M153 25 154 26 169 46 169 48 166 51 165 51 155 50 95 42 91 39 88 35 101 30 151 25 153 25 "/></svg>