<svg width="256" height="256" xmlns="http://www.w3.org/2000/svg" fill-opacity="0" stroke="black" stroke-width="3" ><path d="M124 61 136 63 138 65 148 87 93 181 88 181 85 180 69 169 66 166 59 153 58 150 56 140 56 138 57 110 61 98 63 93 66 87 69 82 77 74 120 61 124 61 "/><path d="M51 168 70 178 77 185 80 189 81 197 83 214 83 221 76 243 74 245 66 249 40 249 0 206 0 187 6 180 9 177 15 174 35 170 49 168 51 168 "/><path d="M6 55 30 60 31 62 37 88 42 116 42 117 36 126 23 139 12 141 3 140 0 139 0 59 1 57 3 55 6 55 "/><path d="M154 125 158 126 162 130 163 151 159 155 156 156 154 156 133 152 131 150 132 140 134 136 138 132 153 125 154 125 "/></svg>