<svg width="256" height="256" xmlns="http://www.w3.org/2000/svg" fill-opacity="0" stroke="black" stroke-width="3" ><path d="M141 35 152 38 171 58 174 62 176 65 178 69 184 82 189 108 191 126 178 173 177 175 160 184 150 189 126 199 114 199 98 194 95 193 80 187 76 185 59 168 47 150 46 147 41 129 44 118 56 80 57 78 75 51 87 39 96 33 109 31 118 30 141 35 "/><path d="M249 0 249 84 247 84 235 83 222 77 214 72 207 65 198 39 195 27 195 26 197 15 201 6 202 4 204 2 209 0 249 0 "/><path d="M217 192 241 204 249 209 249 249 201 249 164 237 164 236 166 228 194 196 195 195 200 194 212 192 217 192 "/><path d="M21 38 30 43 39 53 42 61 42 67 39 71 6 101 1 104 0 104 0 72 11 45 12 43 13 42 20 38 21 38 "/><path d="M249 106 249 147 236 150 228 150 227 149 221 122 221 119 225 108 246 106 249 106 "/></svg>