<svg width="256" height="256" xmlns="http://www.w3.org/2000/svg" fill-opacity="0" stroke="black" stroke-width="3" ><path d="M91 21 105 26 112 29 116 31 123 35 126 37 179 80 180 81 189 92 190 94 194 105 197 126 197 134 196 144 195 147 192 155 190 159 184 168 178 175 167 187 159 192 137 200 132 201 122 202 114 202 95 194 84 189 79 186 70 180 67 177 65 174 53 150 50 137 50 125 51 113 56 68 58 62 61 54 63 49 64 47 82 23 88 21 91 21 "/><path d="M1 167 39 192 45 198 48 203 49 205 51 210 51 212 50 220 48 226 36 230 5 239 4 239 0 238 0 167 1 167 "/><path d="M34 0 40 3 44 9 45 14 45 23 44 31 42 34 39 37 36 39 28 44 24 46 11 46 8 45 2 39 0 35 0 0 34 0 "/></svg>