<svg width="256" height="256" xmlns="http://www.w3.org/2000/svg" fill-opacity="0" stroke="black" stroke-width="3" ><path d="M161 23 185 28 187 29 189 31 195 50 201 138 201 147 189 174 187 178 181 187 179 189 174 193 170 196 167 198 160 202 156 204 151 206 140 210 137 211 133 212 126 213 122 213 114 211 92 200 87 196 82 191 70 175 66 167 62 154 61 128 61 112 64 93 83 62 92 49 106 31 112 27 130 24 145 23 161 23 "/><path d="M37 0 39 2 41 9 41 16 40 22 33 40 26 48 23 51 20 52 11 54 0 52 0 0 37 0 "/></svg>