<svg width="256" height="256" xmlns="http://www.w3.org/2000/svg" fill-opacity="0" stroke="black" stroke-width="3" ><path d="M123 34 132 35 143 38 153 43 174 59 217 97 221 103 223 108 234 151 234 154 233 162 229 179 224 189 219 194 207 202 203 204 193 208 170 214 168 214 81 194 74 188 68 182 36 114 35 110 35 107 36 88 40 77 41 75 45 68 50 63 55 59 66 52 73 48 86 41 94 39 118 34 123 34 "/><path d="M33 0 44 5 46 6 47 7 53 15 56 20 58 26 58 37 56 42 55 44 52 49 29 76 22 83 7 88 3 89 0 89 0 0 33 0 "/><path d="M244 205 249 207 249 249 186 249 186 245 187 238 188 234 194 225 195 224 231 205 244 205 "/><path d="M100 202 102 203 105 205 109 208 115 213 123 221 124 223 125 227 125 233 118 241 115 244 112 245 106 246 84 249 70 249 70 224 71 221 74 215 82 207 85 205 90 202 100 202 "/><path d="M2 135 6 141 13 153 18 167 19 171 19 173 18 178 12 192 11 194 5 205 3 208 2 209 0 210 0 133 2 135 "/></svg>