<svg width="256" height="256" xmlns="http://www.w3.org/2000/svg" fill-opacity="0" stroke="black" stroke-width="3" ><path d="M132 32 139 33 153 36 157 37 167 41 171 43 180 49 193 60 198 65 202 70 216 96 217 100 217 103 190 197 189 198 172 211 156 216 146 218 133 218 125 217 119 216 112 214 100 208 88 200 86 198 48 140 47 134 49 124 52 110 64 71 75 55 84 48 102 39 108 37 125 32 132 32 "/><path d="M46 150 71 185 78 199 78 214 76 220 73 224 52 248 51 249 0 249 0 161 32 152 44 149 46 150 "/><path d="M20 38 23 39 38 48 41 51 48 82 48 88 47 92 42 107 40 110 37 114 35 115 21 121 7 123 0 123 0 40 2 39 10 38 20 38 "/><path d="M101 0 104 4 106 9 107 12 107 23 106 26 98 37 95 39 90 42 88 43 76 47 72 47 65 45 59 43 57 42 52 37 43 15 43 7 46 1 48 0 101 0 "/><path d="M28 0 29 7 19 29 17 32 14 34 7 35 0 35 0 0 28 0 "/></svg>