<svg width="256" height="256" xmlns="http://www.w3.org/2000/svg" fill-opacity="0" stroke="black" stroke-width="3" ><path d="M110 48 125 49 134 52 150 60 159 67 172 79 177 85 181 91 183 95 187 104 189 113 191 127 192 138 191 145 190 151 189 156 187 162 183 170 180 175 178 178 171 187 160 198 155 201 153 202 140 206 132 208 126 209 110 209 100 208 92 206 89 205 72 199 66 196 63 194 59 191 54 187 48 181 44 176 39 168 36 162 34 157 33 153 33 135 34 116 39 107 64 63 92 52 100 49 108 48 110 48 "/><path d="M28 21 32 22 36 24 41 27 53 36 61 47 63 55 63 61 27 121 23 125 21 126 16 126 5 124 0 121 0 36 3 30 9 25 15 22 19 21 28 21 "/><path d="M1 173 9 181 23 199 27 206 27 216 23 233 16 243 13 247 7 249 0 249 0 173 1 173 "/></svg>