<svg width="256" height="256" xmlns="http://www.w3.org/2000/svg" fill-opacity="0" stroke="black" stroke-width="3" ><path d="M113 54 122 55 129 56 134 57 137 58 151 65 161 71 177 88 181 94 186 103 187 109 188 118 187 133 184 147 181 151 177 155 165 164 162 166 159 167 152 169 144 171 131 174 122 174 106 172 91 165 89 164 71 152 64 144 61 140 56 131 52 120 51 117 50 113 49 84 49 83 52 71 53 69 62 60 88 56 96 55 106 54 113 54 "/><path d="M75 178 80 180 90 189 93 192 95 197 97 203 102 219 102 230 101 232 93 245 87 249 40 249 33 246 31 245 31 242 36 205 40 196 42 193 51 185 55 183 62 181 73 178 75 178 "/><path d="M219 46 226 49 228 50 232 53 237 57 238 58 243 65 246 74 246 80 245 85 243 93 239 100 235 105 233 107 229 109 219 111 212 111 207 110 204 109 202 108 199 106 193 100 185 87 184 84 184 71 185 67 186 65 192 56 203 49 205 48 208 47 218 46 219 46 "/><path d="M249 134 249 238 248 238 246 236 218 202 216 199 216 179 217 175 228 152 233 143 238 136 247 134 249 134 "/><path d="M198 222 213 228 219 241 220 244 220 246 219 249 142 249 146 241 149 238 166 225 181 222 198 222 "/></svg>