<svg width="256" height="256" xmlns="http://www.w3.org/2000/svg" fill-opacity="0" stroke="black" stroke-width="3" ><path d="M38 63 146 87 154 89 166 98 168 100 189 156 189 162 171 226 170 228 160 243 159 244 156 246 99 246 93 245 89 244 84 242 70 235 63 231 60 229 55 224 41 206 32 190 16 131 16 121 18 109 22 87 23 83 26 76 32 65 34 63 38 63 "/><path d="M10 128 20 191 21 199 22 215 18 229 16 234 14 237 5 249 0 249 0 129 3 128 10 128 "/><path d="M1 39 4 41 5 42 13 51 15 54 17 59 17 67 12 77 7 83 1 88 0 88 0 39 1 39 "/></svg>