<svg width="256" height="256" xmlns="http://www.w3.org/2000/svg" fill-opacity="0" stroke="black" stroke-width="3" ><path d="M124 34 128 35 131 36 134 38 140 44 182 95 191 107 194 142 194 143 193 148 192 152 189 160 180 179 176 184 168 192 157 201 153 204 146 209 144 210 134 213 130 214 121 216 111 218 107 218 81 214 80 213 79 211 56 164 54 91 54 88 60 60 62 55 63 53 67 49 81 39 87 37 104 34 124 34 "/><path d="M34 0 35 1 40 11 44 20 50 120 50 131 46 136 39 138 27 138 21 137 0 131 0 0 34 0 "/><path d="M228 0 249 62 249 69 247 80 246 83 244 85 239 88 230 89 212 89 202 87 188 80 184 77 172 65 161 41 160 38 159 32 159 30 163 12 167 0 228 0 "/></svg>