<svg width="256" height="256" xmlns="http://www.w3.org/2000/svg" fill-opacity="0" stroke="black" stroke-width="3" ><path d="M146 4 159 9 182 23 184 25 189 32 192 38 194 44 198 61 198 68 197 79 188 104 187 106 178 123 174 127 165 133 151 142 133 148 108 149 106 149 94 148 90 147 70 135 69 134 57 120 43 100 43 96 45 83 67 20 145 4 146 4 "/><path d="M108 171 117 172 120 173 125 177 133 188 134 193 134 197 133 200 132 202 98 249 53 249 49 245 48 243 47 238 48 234 51 223 73 182 75 180 88 172 95 171 108 171 "/><path d="M233 0 233 7 232 8 224 14 214 19 213 19 192 15 184 10 176 2 176 0 233 0 "/></svg>