<svg width="256" height="256" xmlns="http://www.w3.org/2000/svg" fill-opacity="0" stroke="black" stroke-width="3" ><path d="M19 35 158 44 171 54 171 55 89 210 87 211 80 211 60 201 53 195 48 190 38 177 0 114 0 40 18 35 19 35 "/><path d="M240 169 249 170 249 249 201 249 182 238 177 220 177 219 178 212 179 209 184 197 205 173 234 169 240 169 "/><path d="M27 223 30 225 39 234 39 245 37 249 3 249 0 234 0 226 21 223 27 223 "/><path d="M6 159 7 161 9 166 13 179 17 200 17 206 12 211 2 217 0 217 0 153 6 159 "/><path d="M249 0 249 40 248 40 235 37 233 36 232 35 220 2 220 1 221 0 249 0 "/></svg>