<svg width="256" height="256" xmlns="http://www.w3.org/2000/svg" fill-opacity="0" stroke="black" stroke-width="3" ><path d="M114 45 120 46 125 49 184 96 186 98 188 101 189 103 191 110 193 129 193 130 189 150 187 155 182 163 175 173 170 180 167 182 155 189 153 190 150 191 137 193 136 193 64 189 56 187 51 185 42 177 40 175 29 162 27 159 26 157 24 135 27 122 28 120 82 60 84 58 100 48 104 46 112 45 114 45 "/><path d="M130 203 145 204 156 205 159 206 168 211 179 224 195 244 196 246 197 249 3 249 3 245 6 234 9 227 10 225 13 222 23 216 26 215 59 210 112 204 128 203 130 203 "/><path d="M249 0 249 25 242 27 236 28 192 28 175 23 148 7 145 0 249 0 "/><path d="M29 0 31 26 24 44 6 76 4 77 3 77 0 72 0 4 3 0 29 0 "/><path d="M249 90 249 149 240 137 238 133 234 123 234 107 239 98 247 90 249 90 "/></svg>