<svg width="256" height="256" xmlns="http://www.w3.org/2000/svg" fill-opacity="0" stroke="black" stroke-width="3" ><path d="M128 55 163 62 170 65 184 74 192 82 196 87 246 178 246 203 240 210 222 230 207 246 204 249 146 249 134 245 121 240 117 236 74 188 70 183 66 176 61 167 51 147 49 141 49 138 53 118 55 112 83 75 86 73 123 56 126 55 128 55 "/><path d="M150 0 150 1 146 11 142 20 140 24 134 32 123 44 119 48 106 60 100 63 74 68 70 68 63 67 43 55 42 54 35 46 26 34 20 1 20 0 150 0 "/><path d="M241 0 242 15 242 18 233 35 232 36 229 35 227 34 205 17 199 12 194 5 193 0 241 0 "/></svg>