<svg width="256" height="256" xmlns="http://www.w3.org/2000/svg" fill-opacity="0" stroke="black" stroke-width="3" ><path d="M143 26 148 27 175 38 183 42 191 47 197 53 201 58 207 67 209 71 210 74 215 92 216 110 216 116 215 123 210 139 207 147 205 152 201 160 192 170 185 177 176 184 172 187 169 189 159 194 158 194 106 193 88 191 82 190 56 172 39 155 18 130 18 120 26 97 27 95 42 67 44 64 50 58 54 56 135 26 143 26 "/><path d="M113 0 106 11 104 13 90 25 85 29 81 32 46 34 38 30 29 25 4 10 0 6 0 0 113 0 "/><path d="M207 222 217 224 220 225 225 227 233 232 238 236 239 237 241 240 242 243 242 249 172 249 172 247 174 243 176 240 184 231 190 225 193 224 204 222 207 222 "/></svg>