<svg width="256" height="256" xmlns="http://www.w3.org/2000/svg" fill-opacity="0" stroke="black" stroke-width="3" ><path d="M106 37 167 61 172 64 175 66 176 67 178 70 191 98 197 118 198 132 198 145 194 156 188 167 182 177 163 197 160 200 157 202 155 203 142 207 134 208 116 209 109 209 106 208 93 203 84 199 75 189 69 179 68 177 63 163 57 142 57 140 61 113 65 96 75 74 99 42 104 37 106 37 "/><path d="M245 131 247 132 249 134 249 164 241 203 237 215 235 218 234 219 225 219 219 217 215 213 209 202 207 197 206 187 206 182 207 178 210 171 211 169 214 164 229 145 234 139 237 136 242 132 244 131 245 131 "/></svg>