<svg width="256" height="256" xmlns="http://www.w3.org/2000/svg" fill-opacity="0" stroke="black" stroke-width="3" ><path d="M139 51 153 54 156 55 178 66 184 70 186 72 196 85 205 100 211 111 212 115 214 127 214 132 212 140 177 249 145 249 86 207 76 198 75 197 66 187 62 177 50 146 49 136 49 122 50 118 52 111 54 105 60 96 69 84 76 75 81 71 97 61 112 54 115 53 120 52 130 51 139 51 "/><path d="M249 0 249 94 248 94 244 93 235 88 225 81 220 77 217 74 210 58 210 53 211 31 212 28 218 12 219 10 226 0 249 0 "/><path d="M1 190 34 211 35 212 35 221 32 235 20 246 16 249 0 249 0 190 1 190 "/><path d="M98 229 112 231 114 234 114 235 113 238 103 249 81 249 80 237 80 232 81 231 84 229 98 229 "/></svg>