<svg width="256" height="256" xmlns="http://www.w3.org/2000/svg" fill-opacity="0" stroke="black" stroke-width="3" ><path d="M87 77 151 81 157 83 167 88 175 93 185 103 192 114 193 116 198 127 199 147 199 157 198 160 195 166 187 176 185 178 171 190 153 204 149 206 140 208 139 208 123 205 112 202 110 201 89 189 87 187 76 172 75 170 70 158 65 141 59 98 59 97 62 91 67 83 69 81 71 80 74 79 82 77 87 77 "/><path d="M201 0 201 9 200 17 199 20 182 36 168 49 163 52 155 54 150 55 137 56 104 57 90 55 87 54 75 46 62 36 41 4 40 1 41 0 201 0 "/><path d="M235 182 247 185 249 186 249 221 220 249 183 249 181 246 181 245 186 228 188 225 204 203 215 189 218 186 229 182 235 182 "/><path d="M65 215 83 220 112 233 115 236 118 240 122 247 123 249 11 249 24 235 46 216 54 215 65 215 "/></svg>