<svg width="256" height="256" xmlns="http://www.w3.org/2000/svg" fill-opacity="0" stroke="black" stroke-width="3" ><path d="M127 31 143 35 164 42 166 43 169 45 179 52 187 59 190 63 198 76 202 83 204 87 210 113 211 121 211 126 208 144 206 150 201 160 196 169 184 187 178 195 164 210 153 216 151 217 144 220 138 222 134 223 129 224 117 224 109 223 91 216 77 204 69 196 67 193 43 97 43 92 44 86 45 81 47 77 50 72 52 69 59 59 75 43 79 41 88 37 93 35 115 31 127 31 "/><path d="M11 92 15 95 18 98 22 103 27 110 42 136 44 140 48 149 50 157 50 175 49 192 42 200 40 201 14 208 13 208 4 207 0 206 0 87 11 92 "/><path d="M243 173 249 177 249 249 210 249 203 245 202 244 198 238 192 214 192 213 193 207 194 204 201 192 207 183 209 181 216 177 221 175 224 174 228 173 243 173 "/></svg>