<svg width="256" height="256" xmlns="http://www.w3.org/2000/svg" fill-opacity="0" stroke="black" stroke-width="3" ><path d="M118 28 131 29 138 31 147 34 154 37 169 50 176 57 184 67 188 73 191 79 203 106 208 121 209 138 209 139 208 151 205 158 196 172 189 180 167 198 163 201 155 205 152 206 145 208 136 209 112 209 99 206 92 204 89 202 83 197 81 195 43 154 37 143 34 136 33 132 32 127 31 120 31 101 35 81 39 73 42 68 48 59 51 55 63 45 70 40 81 35 91 31 94 30 103 28 118 28 "/><path d="M249 14 249 131 248 131 238 126 226 115 225 114 211 85 209 78 209 66 215 45 216 42 217 40 222 31 225 28 238 19 245 15 248 14 249 14 "/><path d="M5 67 17 82 18 84 22 126 22 129 20 142 17 146 5 159 2 161 0 161 0 62 5 67 "/><path d="M10 220 21 222 30 231 36 249 0 249 0 220 10 220 "/></svg>