<svg width="256" height="256" xmlns="http://www.w3.org/2000/svg" fill-opacity="0" stroke="black" stroke-width="3" ><path d="M100 12 111 13 115 15 131 24 182 60 195 73 203 83 207 89 213 101 216 116 216 121 215 134 214 145 213 149 203 172 200 177 191 186 182 194 174 199 160 206 140 210 129 211 115 212 111 212 107 211 79 202 77 201 50 183 46 179 36 166 32 160 30 156 22 136 18 122 18 120 20 102 22 96 79 23 87 15 90 13 98 12 100 12 "/><path d="M219 0 225 9 226 11 227 27 227 28 220 43 215 48 213 49 206 50 199 50 194 47 150 20 143 12 140 8 140 6 141 2 142 0 219 0 "/><path d="M11 17 15 21 21 29 21 39 20 42 13 51 11 53 8 55 6 56 0 58 0 16 7 15 11 17 "/></svg>