<svg width="256" height="256" xmlns="http://www.w3.org/2000/svg" fill-opacity="0" stroke="black" stroke-width="3" ><path d="M142 30 155 34 158 35 160 36 176 47 249 103 249 249 161 249 117 226 87 198 85 195 67 153 62 139 60 133 59 123 60 103 62 94 63 90 67 80 69 76 76 65 89 50 95 45 99 42 110 36 115 34 118 33 125 31 132 30 142 30 "/><path d="M21 202 35 213 42 222 44 225 45 227 47 236 41 248 39 249 0 249 0 206 20 202 21 202 "/><path d="M2 79 9 84 13 89 15 92 16 94 26 118 28 124 28 140 25 146 18 148 13 149 0 149 0 79 2 79 "/><path d="M249 0 249 29 244 29 237 28 235 27 215 15 208 9 206 6 203 0 249 0 "/><path d="M40 172 44 175 55 186 62 197 66 208 72 237 72 248 69 249 60 249 57 246 52 240 38 173 38 172 40 172 "/><path d="M83 0 79 6 75 8 66 11 62 12 43 12 39 11 36 10 27 6 20 1 19 0 83 0 "/></svg>