<svg width="256" height="256" xmlns="http://www.w3.org/2000/svg" fill-opacity="0" stroke="black" stroke-width="3" ><path d="M153 40 157 41 160 42 172 49 179 55 187 62 189 64 203 79 209 88 219 112 220 122 220 123 219 131 216 147 214 155 206 172 201 180 187 199 170 211 167 213 150 219 147 220 143 221 126 223 115 223 102 221 97 219 87 214 84 212 70 202 54 190 48 185 41 178 38 173 32 161 29 150 27 140 26 133 26 124 27 104 31 92 39 76 48 65 56 57 65 52 69 50 79 46 87 44 125 40 153 40 "/><path d="M17 198 32 201 33 202 67 244 69 249 0 249 0 198 17 198 "/><path d="M141 0 147 2 147 4 145 8 141 14 139 16 136 18 122 21 105 23 93 24 88 24 77 22 62 15 59 13 52 7 50 5 46 0 141 0 "/><path d="M249 0 249 53 227 47 222 42 220 39 210 19 211 16 221 0 249 0 "/></svg>