<svg width="256" height="256" xmlns="http://www.w3.org/2000/svg" fill-opacity="0" stroke="black" stroke-width="3" ><path d="M70 46 102 48 139 115 132 159 130 162 127 165 112 177 110 177 108 176 64 106 53 87 52 84 50 76 53 59 54 57 69 46 70 46 "/><path d="M249 0 249 5 248 7 242 10 219 15 194 15 188 14 183 12 180 10 178 5 178 0 249 0 "/><path d="M132 0 135 1 138 4 139 6 143 17 143 19 141 22 139 23 98 19 93 16 92 15 92 0 132 0 "/><path d="M34 0 35 3 35 7 34 9 31 12 22 16 10 20 0 22 0 0 34 0 "/></svg>