<svg width="256" height="256" xmlns="http://www.w3.org/2000/svg" fill-opacity="0" stroke="black" stroke-width="3" ><path d="M117 18 123 19 131 21 136 23 140 25 178 46 182 49 196 62 199 65 202 71 204 76 206 83 209 97 210 110 208 127 195 172 190 184 186 192 172 207 171 208 160 216 157 218 150 221 133 228 130 228 3 226 0 225 0 111 91 31 103 22 115 18 117 18 "/><path d="M249 243 242 241 238 238 230 231 228 229 220 217 219 215 216 205 214 195 213 187 213 186 214 173 216 162 220 153 241 113 247 106 249 104 249 243 "/><path d="M64 0 65 4 65 8 62 19 61 21 56 29 43 43 30 43 21 34 19 27 18 23 18 20 19 15 24 0 64 0 "/></svg>