<svg width="256" height="256" xmlns="http://www.w3.org/2000/svg" fill-opacity="0" stroke="black" stroke-width="3" ><path d="M109 15 129 23 145 31 168 47 175 54 176 56 190 89 191 93 191 95 190 99 182 123 166 150 160 158 158 160 152 165 148 168 118 182 106 184 86 184 77 182 69 178 59 172 49 165 42 160 30 146 27 142 25 138 12 100 11 97 12 92 16 83 17 81 24 68 31 58 39 49 67 21 74 18 77 17 86 15 99 14 109 15 "/><path d="M184 188 191 189 199 191 203 193 214 203 216 206 224 222 224 232 223 236 220 240 217 243 215 244 207 246 186 249 111 249 111 245 115 226 117 221 120 215 126 207 127 206 134 200 152 191 183 188 184 188 "/><path d="M249 11 249 154 243 147 235 137 227 121 220 106 217 97 215 74 215 70 221 45 223 40 229 27 243 13 245 12 248 11 249 11 "/></svg>