<svg width="256" height="256" xmlns="http://www.w3.org/2000/svg" fill-opacity="0" stroke="black" stroke-width="3" ><path d="M95 0 186 58 196 71 197 76 211 166 212 182 204 197 202 200 201 201 195 206 186 213 183 215 174 220 162 226 152 228 143 229 121 229 115 228 103 223 89 215 84 211 81 208 75 199 60 176 47 155 46 153 45 150 28 15 29 14 42 7 82 0 95 0 "/><path d="M35 172 37 173 38 174 50 192 63 217 63 218 62 230 55 238 52 241 50 242 38 245 33 246 23 246 2 239 0 238 0 188 2 185 3 184 11 178 16 175 18 174 21 173 26 172 32 171 35 172 "/><path d="M249 0 249 144 238 146 237 146 222 129 199 81 199 78 207 40 219 5 244 0 249 0 "/></svg>