<svg width="256" height="256" xmlns="http://www.w3.org/2000/svg" fill-opacity="0" stroke="black" stroke-width="3" ><path d="M101 0 162 44 171 52 172 53 176 61 197 152 197 153 196 160 194 164 180 180 165 195 157 199 139 200 135 200 131 199 126 197 0 105 0 0 101 0 "/><path d="M13 125 37 135 39 136 69 167 77 182 78 184 84 218 84 219 82 225 80 227 33 241 30 241 13 240 10 239 7 235 0 170 0 136 7 125 13 125 "/><path d="M249 8 249 164 243 163 239 162 236 161 228 157 222 153 217 149 211 144 210 143 201 125 200 119 196 67 196 64 197 39 198 38 231 15 237 12 242 10 248 8 249 8 "/><path d="M137 229 145 230 150 232 155 235 156 236 157 238 161 248 161 249 96 249 97 246 98 245 101 243 124 231 135 229 137 229 "/><path d="M236 217 248 225 249 226 249 249 206 249 233 218 234 217 236 217 "/></svg>