<svg width="256" height="256" xmlns="http://www.w3.org/2000/svg" fill-opacity="0" stroke="black" stroke-width="3" ><path d="M153 65 176 69 185 71 187 72 192 75 193 76 194 78 197 87 199 98 199 112 198 119 197 123 193 135 191 138 160 162 127 174 113 176 112 176 74 158 69 154 56 142 56 141 73 72 74 70 96 67 140 65 153 65 "/><path d="M226 157 238 164 249 175 249 217 243 221 215 236 211 238 206 238 159 227 141 220 140 219 139 217 139 216 140 208 141 203 149 192 150 191 201 160 225 157 226 157 "/><path d="M249 0 249 73 244 77 240 79 236 80 230 81 229 81 224 80 220 79 214 76 206 65 206 62 236 0 249 0 "/><path d="M98 0 105 1 113 8 113 18 109 25 102 37 101 37 60 25 41 14 36 4 35 1 35 0 98 0 "/><path d="M1 57 13 69 15 83 15 87 14 112 13 121 11 127 10 129 7 132 0 132 0 57 1 57 "/></svg>