<svg width="256" height="256" xmlns="http://www.w3.org/2000/svg" fill-opacity="0" stroke="black" stroke-width="3" ><path d="M119 0 177 61 187 82 189 87 194 106 196 119 196 121 194 132 192 137 186 149 182 155 158 187 144 201 130 208 127 208 123 206 51 157 50 156 23 119 19 113 17 106 17 97 21 85 27 74 65 5 68 2 71 0 119 0 "/><path d="M223 168 236 172 238 174 246 190 246 249 147 249 205 178 222 168 223 168 "/><path d="M246 80 249 85 249 162 230 152 225 148 222 145 211 133 209 130 207 126 212 108 214 104 216 101 219 97 220 96 230 88 234 85 245 80 246 80 "/><path d="M31 0 32 3 32 10 31 12 23 23 15 33 2 47 0 48 0 0 31 0 "/></svg>