<svg width="256" height="256" xmlns="http://www.w3.org/2000/svg" fill-opacity="0" stroke="black" stroke-width="3" ><path d="M142 47 149 48 153 49 160 51 165 53 171 56 194 72 212 87 214 89 226 105 235 131 235 134 230 171 228 175 212 202 210 205 205 211 195 221 185 226 165 234 159 236 136 236 96 221 90 218 83 214 73 204 59 187 47 172 41 157 37 141 39 120 41 108 42 105 43 103 49 92 53 86 56 82 63 75 72 67 77 63 80 61 88 57 109 51 122 48 131 47 142 47 "/><path d="M30 209 38 213 50 225 52 238 52 249 0 249 0 220 3 214 4 213 10 211 19 209 30 209 "/></svg>