<svg width="256" height="256" xmlns="http://www.w3.org/2000/svg" fill-opacity="0" stroke="black" stroke-width="3" ><path d="M144 33 150 35 156 38 204 71 205 72 215 113 217 124 218 134 217 142 216 145 210 161 207 166 199 176 183 190 145 223 141 226 136 229 127 234 125 235 120 237 106 237 103 236 95 233 89 230 80 222 65 203 63 200 58 190 54 180 52 174 48 160 48 119 50 108 52 98 56 86 61 72 66 67 90 46 102 40 110 37 116 35 121 34 129 33 144 33 "/><path d="M66 3 74 7 81 13 83 15 85 18 88 27 89 34 89 37 87 42 81 50 74 57 62 65 51 65 42 62 37 60 34 58 28 51 26 48 24 44 21 35 22 30 26 19 27 17 37 7 43 4 47 3 66 3 "/><path d="M187 210 214 213 236 221 244 227 246 229 249 249 153 249 151 234 152 231 159 223 177 211 180 210 187 210 "/></svg>