<svg width="256" height="256" xmlns="http://www.w3.org/2000/svg" fill-opacity="0" stroke="black" stroke-width="3" ><path d="M107 42 142 43 149 44 170 51 181 59 191 67 201 77 205 86 211 109 213 117 213 119 209 151 207 159 203 170 199 178 187 200 185 203 178 212 172 217 168 220 160 223 146 226 140 227 124 227 105 224 98 222 79 210 72 204 62 194 59 190 54 183 35 154 26 138 24 133 22 125 22 108 24 97 26 93 34 81 50 65 63 55 71 49 81 43 100 42 107 42 "/><path d="M1 134 6 136 10 139 20 149 61 207 61 212 60 217 21 248 18 249 0 249 0 134 1 134 "/><path d="M69 218 75 222 80 231 81 235 81 249 62 249 55 235 55 232 56 229 67 218 69 218 "/></svg>