<svg width="256" height="256" xmlns="http://www.w3.org/2000/svg" fill-opacity="0" stroke="black" stroke-width="3" ><path d="M230 0 245 5 246 6 249 25 249 116 246 121 243 124 204 156 195 161 167 165 144 162 133 160 130 159 116 153 114 152 111 150 90 134 86 130 82 122 77 95 77 91 128 19 144 3 153 0 230 0 "/><path d="M193 173 233 180 244 185 247 187 249 189 249 211 246 220 241 226 208 243 207 243 129 236 119 235 111 234 103 232 95 228 95 219 96 215 98 211 101 208 122 189 133 185 156 177 188 173 193 173 "/></svg>