<svg width="256" height="256" xmlns="http://www.w3.org/2000/svg" fill-opacity="0" stroke="black" stroke-width="3" ><path d="M129 47 147 48 152 49 156 50 165 55 175 65 192 89 193 93 203 136 204 142 204 148 157 207 138 208 110 207 99 205 94 203 86 198 75 187 71 182 56 163 55 160 53 153 52 148 52 143 58 111 59 107 70 85 74 80 78 76 93 64 97 61 108 54 121 49 127 47 129 47 "/><path d="M249 0 249 103 240 101 224 94 219 91 211 84 207 80 201 72 193 59 190 49 189 45 189 44 195 21 196 19 200 12 209 3 213 0 249 0 "/><path d="M71 0 71 5 69 10 67 13 63 18 51 29 41 38 35 42 33 43 22 43 8 42 3 41 1 40 0 39 0 0 71 0 "/><path d="M249 249 193 249 192 246 192 241 195 232 200 222 218 202 220 200 222 199 225 198 240 194 249 193 249 249 "/></svg>