<svg width="256" height="256" xmlns="http://www.w3.org/2000/svg" fill-opacity="0" stroke="black" stroke-width="3" ><path d="M132 60 142 62 212 90 212 104 210 120 208 123 156 186 118 191 109 192 95 192 92 191 91 190 65 161 57 150 53 144 52 141 49 124 49 110 55 96 58 90 66 82 72 78 93 65 100 62 106 60 132 60 "/><path d="M141 213 149 214 156 218 169 231 182 247 182 249 73 249 73 248 76 242 77 241 93 226 113 216 119 214 127 213 141 213 "/><path d="M8 189 14 192 19 198 21 203 22 208 22 219 21 223 18 229 16 232 11 238 7 242 1 246 0 246 0 189 8 189 "/><path d="M249 77 249 136 246 136 233 123 232 120 232 114 234 84 235 82 236 81 248 77 249 77 "/></svg>