<svg width="256" height="256" xmlns="http://www.w3.org/2000/svg" fill-opacity="0" stroke="black" stroke-width="3" ><path d="M148 46 156 47 160 48 177 54 185 57 188 60 195 69 198 73 206 88 208 92 216 116 216 135 215 143 189 216 187 219 186 220 184 221 180 222 177 222 133 216 126 215 114 213 105 211 97 208 68 187 64 184 46 167 39 156 38 152 38 140 39 129 51 92 52 89 58 80 88 58 94 56 135 46 148 46 "/><path d="M60 0 61 1 64 6 67 16 70 31 70 39 68 45 66 47 63 49 61 50 20 67 0 74 0 0 60 0 "/><path d="M161 0 164 20 164 31 160 35 149 37 147 37 131 36 123 34 116 31 107 27 101 23 98 20 93 13 91 8 91 6 92 3 96 0 161 0 "/><path d="M28 197 32 199 46 211 47 212 52 226 54 234 56 243 56 245 55 249 6 249 5 229 5 217 6 214 7 212 20 198 24 197 28 197 "/></svg>