<svg width="256" height="256" xmlns="http://www.w3.org/2000/svg" fill-opacity="0" stroke="black" stroke-width="3" ><path d="M113 42 118 43 127 46 138 51 145 58 179 102 181 108 182 112 184 142 181 154 180 157 170 177 168 180 159 189 156 191 151 194 149 195 139 198 118 199 116 199 96 198 90 197 67 187 56 162 49 144 46 98 49 92 63 74 79 58 82 56 102 45 108 42 113 42 "/><path d="M230 0 238 3 240 5 241 7 242 11 244 22 245 31 245 47 241 65 236 70 221 82 213 86 202 87 200 87 188 85 171 68 152 48 151 46 152 32 154 24 160 14 164 9 165 8 176 1 178 0 230 0 "/><path d="M1 196 6 198 10 200 13 203 32 223 42 237 43 239 46 246 46 249 0 249 0 196 1 196 "/></svg>