<svg width="256" height="256" xmlns="http://www.w3.org/2000/svg" fill-opacity="0" stroke="black" stroke-width="3" ><path d="M133 45 143 46 146 47 153 50 170 58 180 64 188 72 202 90 209 103 210 119 210 129 209 138 207 148 203 156 197 167 191 175 182 185 173 194 169 196 161 199 150 203 138 205 115 205 107 204 102 203 89 200 86 199 84 198 79 195 70 188 64 183 60 179 46 155 45 153 43 148 41 137 40 124 40 111 41 106 42 102 44 97 50 89 54 84 67 70 68 69 75 63 83 57 90 53 97 50 101 49 111 47 126 45 133 45 "/></svg>