<svg width="256" height="256" xmlns="http://www.w3.org/2000/svg" fill-opacity="0" stroke="black" stroke-width="3" ><path d="M140 55 165 70 167 72 183 90 187 95 187 98 170 185 164 192 163 193 157 196 120 213 118 213 90 198 82 183 81 181 77 170 72 143 69 126 69 124 70 102 72 87 78 77 87 68 97 62 119 55 140 55 "/><path d="M215 68 223 70 225 71 249 94 249 246 243 246 226 239 222 236 220 234 219 232 215 218 214 214 203 163 202 79 202 75 207 70 209 69 213 68 215 68 "/><path d="M21 120 38 124 64 167 65 169 67 191 67 197 66 205 65 207 62 211 51 225 34 239 15 247 12 247 0 244 0 129 1 126 2 125 5 123 20 120 21 120 "/><path d="M249 0 249 86 245 84 210 56 200 46 198 43 198 38 210 5 212 1 213 0 249 0 "/><path d="M189 0 189 4 187 9 182 18 179 21 175 24 173 25 170 26 163 26 146 20 144 19 128 6 126 4 126 0 189 0 "/></svg>