<svg width="256" height="256" xmlns="http://www.w3.org/2000/svg" fill-opacity="0" stroke="black" stroke-width="3" ><path d="M127 52 136 54 160 62 164 65 165 66 184 90 190 99 192 103 196 113 198 121 200 133 199 146 196 158 187 176 181 183 162 200 154 206 152 207 134 214 133 214 118 213 107 209 79 195 76 192 61 173 58 168 55 162 50 146 49 140 47 127 47 114 49 106 52 96 54 90 55 88 59 81 64 75 68 71 72 68 92 57 95 56 119 52 127 52 "/><path d="M8 186 23 192 27 194 34 198 36 200 52 217 58 230 59 234 62 248 62 249 0 249 0 184 8 186 "/><path d="M146 0 146 1 143 12 140 17 126 29 123 31 119 32 112 33 101 33 88 30 82 28 75 24 71 21 62 14 57 9 54 1 54 0 146 0 "/><path d="M225 16 245 17 249 18 249 86 247 86 237 85 229 84 218 67 216 62 215 58 213 45 213 44 214 24 216 21 220 17 223 16 225 16 "/></svg>