<svg width="256" height="256" xmlns="http://www.w3.org/2000/svg" fill-opacity="0" stroke="black" stroke-width="3" ><path d="M137 36 152 37 162 41 166 43 173 49 174 50 178 55 192 74 194 80 195 87 195 90 177 148 157 195 156 196 140 200 126 200 101 195 78 183 73 178 65 169 59 158 47 115 45 105 45 96 50 81 58 70 59 69 63 66 71 61 95 47 99 45 112 39 118 37 125 36 137 36 "/><path d="M57 186 74 190 96 197 106 202 131 224 139 243 139 246 138 249 3 249 2 245 2 241 10 223 42 194 50 187 52 186 57 186 "/><path d="M2 113 23 131 32 139 37 144 39 147 40 149 42 155 44 165 44 175 34 199 33 201 14 212 12 213 1 201 0 197 0 113 2 113 "/><path d="M9 0 24 17 34 29 35 32 35 35 34 37 32 40 28 44 25 45 13 48 2 48 0 47 0 3 5 0 9 0 "/></svg>