<svg width="256" height="256" xmlns="http://www.w3.org/2000/svg" fill-opacity="0" stroke="black" stroke-width="3" ><path d="M189 0 206 29 208 33 218 56 219 59 223 89 224 107 224 109 223 121 221 143 218 162 217 166 210 184 206 190 200 196 195 200 189 204 175 210 163 214 157 215 135 215 112 214 98 210 84 204 82 203 55 178 52 175 48 170 46 167 42 160 40 156 36 144 35 140 35 139 40 91 72 0 189 0 "/><path d="M249 247 238 248 234 248 225 241 224 240 219 231 216 223 214 213 214 211 221 185 222 182 246 152 249 149 249 247 "/></svg>