<svg width="256" height="256" xmlns="http://www.w3.org/2000/svg" fill-opacity="0" stroke="black" stroke-width="3" ><path d="M98 200 118 206 121 208 131 219 141 237 145 245 145 249 35 249 35 241 36 239 47 218 49 216 67 203 70 202 77 200 98 200 "/><path d="M198 98 216 147 216 159 215 163 208 179 205 185 203 187 195 179 193 175 185 123 184 114 184 111 185 105 189 83 190 82 198 98 "/><path d="M141 79 149 81 151 82 167 104 170 109 178 129 180 136 180 137 177 142 153 147 151 147 150 146 122 114 119 110 119 106 132 85 138 80 140 79 141 79 "/><path d="M224 34 227 36 238 45 238 50 236 57 235 59 218 77 217 78 216 78 213 77 203 69 202 68 199 62 199 50 204 42 207 38 217 34 224 34 "/><path d="M249 125 247 126 234 126 231 125 227 123 225 121 223 117 222 107 222 103 224 99 227 96 246 86 249 85 249 125 "/><path d="M189 182 195 184 196 185 198 190 198 192 195 199 190 204 186 207 174 213 167 215 162 216 148 216 144 213 142 211 142 208 143 207 180 182 189 182 "/></svg>