<svg width="256" height="256" xmlns="http://www.w3.org/2000/svg" fill-opacity="0" stroke="black" stroke-width="3" ><path d="M138 49 148 51 163 57 171 65 177 73 179 76 185 86 187 90 189 100 189 122 187 129 170 157 166 161 162 164 148 174 139 180 131 184 127 185 121 186 101 186 90 180 87 178 85 176 68 158 65 152 55 127 69 91 70 89 74 83 94 63 99 60 101 59 121 50 124 49 138 49 "/><path d="M60 0 66 3 69 6 71 9 73 14 77 29 77 30 75 35 74 37 72 40 68 44 52 55 46 58 43 59 39 60 30 62 25 62 20 60 17 58 13 54 9 46 6 39 5 36 4 31 3 20 3 19 4 0 60 0 "/><path d="M1 87 33 98 36 100 41 105 45 110 45 115 39 138 38 141 33 155 27 167 23 173 20 176 12 180 6 182 0 182 0 87 1 87 "/></svg>