<svg width="256" height="256" xmlns="http://www.w3.org/2000/svg" fill-opacity="0" stroke="black" stroke-width="3" ><path d="M66 121 133 154 149 165 150 166 152 171 152 173 150 178 140 183 100 200 97 200 85 194 77 188 68 180 62 172 58 166 55 160 52 147 52 146 53 125 61 121 66 121 "/><path d="M126 84 193 98 195 103 200 131 200 136 193 155 183 175 182 176 180 176 101 121 93 113 93 112 111 84 126 84 "/><path d="M139 208 158 217 179 232 179 243 178 244 169 248 165 249 118 249 117 246 115 219 116 216 118 215 138 208 139 208 "/><path d="M14 221 35 223 42 225 44 226 45 227 46 229 51 240 52 244 52 246 51 249 0 249 0 225 8 221 14 221 "/></svg>