<svg width="256" height="256" xmlns="http://www.w3.org/2000/svg" fill-opacity="0" stroke="black" stroke-width="3" ><path d="M113 65 127 67 132 68 135 69 139 71 144 74 159 89 164 97 170 107 175 118 176 121 177 126 177 140 176 145 168 164 162 173 154 180 146 186 138 191 132 193 127 193 97 188 88 185 82 182 79 180 65 166 62 162 58 155 57 151 56 144 56 128 57 119 59 106 63 99 68 93 82 77 85 74 94 68 99 65 113 65 "/><path d="M87 3 92 5 94 7 98 13 102 22 102 27 101 32 100 36 98 43 97 46 95 50 88 56 85 57 83 57 75 56 70 55 67 53 57 42 57 40 58 35 60 27 68 9 74 3 87 3 "/><path d="M50 0 50 15 45 28 42 30 34 35 29 36 12 36 4 34 0 32 0 0 50 0 "/><path d="M171 225 183 226 201 230 204 231 211 235 218 242 220 245 221 249 151 249 150 248 151 240 152 236 160 228 164 226 170 225 171 225 "/></svg>