<svg width="256" height="256" xmlns="http://www.w3.org/2000/svg" fill-opacity="0" stroke="black" stroke-width="3" ><path d="M122 52 133 54 146 58 152 60 160 64 169 70 179 78 183 82 196 100 190 143 185 167 184 170 166 189 163 192 158 195 146 197 123 197 87 188 79 184 69 174 56 156 49 142 49 131 51 120 63 92 67 84 77 70 83 64 97 58 100 57 116 52 122 52 "/><path d="M14 30 28 31 33 34 49 59 50 61 47 79 39 92 37 94 31 99 7 104 5 104 3 102 0 79 0 30 14 30 "/><path d="M248 116 249 117 249 187 243 187 236 185 224 181 218 177 217 176 215 164 215 163 218 150 219 146 222 138 224 133 228 128 231 125 242 116 248 116 "/><path d="M98 0 98 4 97 5 84 15 74 18 72 18 54 15 38 10 22 3 22 0 98 0 "/></svg>