<svg width="256" height="256" xmlns="http://www.w3.org/2000/svg" fill-opacity="0" stroke="black" stroke-width="3" ><path d="M102 67 110 68 116 69 121 70 168 89 172 91 176 95 184 107 188 117 188 122 173 139 147 166 139 173 138 173 56 164 53 162 52 160 47 144 46 137 46 129 48 118 51 103 53 98 67 84 83 73 86 71 88 70 97 67 102 67 "/><path d="M75 0 83 5 85 8 87 12 88 22 88 31 87 38 84 43 81 46 75 50 68 54 51 63 34 70 7 70 4 69 0 67 0 0 75 0 "/><path d="M180 0 187 5 192 10 197 21 198 32 198 37 189 57 188 59 184 63 181 65 164 72 161 72 144 64 140 62 138 59 132 46 132 42 157 0 180 0 "/><path d="M190 133 190 155 189 161 187 170 186 171 184 172 165 171 158 164 157 162 157 159 168 146 180 136 183 134 189 131 190 133 "/></svg>