<svg width="256" height="256" xmlns="http://www.w3.org/2000/svg" fill-opacity="0" stroke="black" stroke-width="3" ><path d="M123 30 151 34 163 36 188 42 196 50 201 56 203 59 206 64 232 134 233 140 233 146 232 151 218 193 214 199 208 207 202 210 194 213 158 224 148 227 137 230 131 231 117 231 111 230 80 221 66 215 61 211 54 204 33 179 30 175 26 164 25 161 23 154 21 136 21 123 31 89 32 86 35 80 51 61 73 46 94 36 106 32 117 30 123 30 "/><path d="M37 0 42 9 43 12 43 21 42 46 39 55 37 59 35 61 15 77 7 77 0 75 0 7 4 0 37 0 "/></svg>