<svg width="256" height="256" xmlns="http://www.w3.org/2000/svg" fill-opacity="0" stroke="black" stroke-width="3" ><path d="M157 22 184 34 202 43 203 45 211 62 220 84 225 99 232 123 244 169 244 171 226 199 223 202 158 232 103 234 84 234 79 233 77 232 72 229 69 226 41 183 32 159 31 156 27 100 27 93 28 87 31 73 56 39 58 37 64 34 140 22 157 22 "/><path d="M247 9 248 10 249 12 249 134 246 142 245 144 242 135 213 47 213 42 218 24 221 21 246 9 247 9 "/><path d="M5 56 9 60 13 65 15 69 17 75 19 82 25 133 25 145 24 148 23 149 17 152 9 154 7 154 1 152 0 151 0 61 1 56 5 56 "/></svg>