<svg width="256" height="256" xmlns="http://www.w3.org/2000/svg" fill-opacity="0" stroke="black" stroke-width="3" ><path d="M23 4 40 7 50 12 64 20 68 23 73 27 82 36 90 45 91 47 75 177 73 179 62 186 58 188 55 189 51 190 25 196 17 197 4 197 0 196 0 6 11 4 23 4 "/><path d="M94 223 100 224 106 227 114 233 118 237 120 240 122 244 124 249 50 249 50 248 51 245 57 236 60 232 63 229 69 226 72 225 83 223 94 223 "/><path d="M184 0 174 10 160 18 150 22 144 24 137 25 128 26 121 26 120 24 120 22 128 7 146 0 184 0 "/></svg>