<svg width="256" height="256" xmlns="http://www.w3.org/2000/svg" fill-opacity="0" stroke="black" stroke-width="3" ><path d="M124 25 137 27 156 33 165 37 176 43 183 47 196 56 207 66 214 73 219 79 222 83 223 85 229 99 231 104 232 109 235 127 235 128 234 142 233 151 231 156 201 209 195 217 187 225 179 230 169 236 162 238 142 242 129 243 110 238 56 208 42 198 40 196 17 162 9 135 9 131 12 98 15 87 18 79 20 76 25 71 48 49 62 36 64 35 73 32 89 27 106 25 124 25 "/><path d="M239 13 246 14 249 15 249 64 245 66 241 67 236 67 231 66 227 65 224 63 218 58 214 51 211 44 211 33 213 29 215 26 224 17 229 15 236 13 239 13 "/><path d="M240 196 249 201 249 245 245 249 231 249 226 247 224 246 220 242 218 239 216 227 216 222 217 215 218 212 220 208 223 205 231 199 237 196 240 196 "/></svg>