<svg width="256" height="256" xmlns="http://www.w3.org/2000/svg" fill-opacity="0" stroke="black" stroke-width="3" ><path d="M121 16 144 23 170 34 183 40 189 45 191 47 201 58 213 73 214 75 215 81 218 119 218 120 216 133 213 137 201 150 128 223 125 223 121 222 91 205 86 202 79 197 67 185 30 139 29 135 29 123 31 110 36 99 38 95 58 60 61 56 77 40 95 26 99 24 114 17 118 16 121 16 "/><path d="M205 211 217 213 226 222 236 249 154 249 154 243 163 227 167 224 170 222 179 217 190 212 193 211 205 211 "/><path d="M249 154 243 149 242 148 237 142 233 134 230 127 229 123 228 118 227 111 227 91 231 72 235 64 238 59 248 44 249 43 249 154 "/></svg>