<svg width="256" height="256" xmlns="http://www.w3.org/2000/svg" fill-opacity="0" stroke="black" stroke-width="3" ><path d="M155 54 164 58 175 65 180 70 185 76 190 84 192 88 194 94 196 102 198 121 198 148 197 156 196 159 192 164 180 177 158 194 155 195 142 198 124 201 101 199 72 191 61 182 55 174 50 167 46 159 44 152 42 136 46 113 47 110 49 105 50 103 56 93 63 83 73 71 74 70 84 61 92 56 95 55 105 54 155 54 "/><path d="M249 3 249 153 247 152 241 147 231 137 230 135 225 124 220 111 216 74 216 55 226 32 233 22 236 18 247 4 248 3 249 3 "/><path d="M249 249 229 249 228 238 229 207 235 197 237 194 244 186 247 183 249 182 249 249 "/></svg>