<svg width="256" height="256" xmlns="http://www.w3.org/2000/svg" fill-opacity="0" stroke="black" stroke-width="3" ><path d="M147 21 155 25 159 28 165 33 167 35 179 49 180 51 181 56 185 80 185 90 174 129 170 141 169 143 160 155 155 161 153 163 139 164 130 164 123 163 109 159 102 155 89 116 89 107 96 34 97 33 116 22 141 21 147 21 "/><path d="M245 80 248 81 249 85 249 186 240 188 237 188 225 184 222 182 211 172 210 171 200 159 197 155 195 152 194 150 190 130 190 121 193 114 199 101 209 91 217 85 224 82 227 81 240 80 245 80 "/><path d="M84 206 92 210 109 222 116 229 118 235 120 244 120 249 22 249 37 221 53 212 79 205 84 206 "/><path d="M228 195 242 199 245 201 246 202 249 209 249 240 246 244 244 246 223 246 192 244 189 242 188 241 187 238 187 230 195 209 203 199 206 198 210 197 219 195 228 195 "/><path d="M105 180 121 182 133 188 144 197 153 211 155 215 160 237 160 249 148 249 143 246 106 208 101 186 100 181 102 180 105 180 "/><path d="M247 0 249 15 249 44 248 44 222 32 218 29 213 25 210 22 208 18 204 9 203 0 247 0 "/></svg>