<svg width="256" height="256" xmlns="http://www.w3.org/2000/svg" fill-opacity="0" stroke="black" stroke-width="3" ><path d="M124 12 139 14 145 19 191 98 191 130 190 139 188 149 182 165 178 175 177 177 172 185 170 188 166 193 164 195 133 221 131 221 74 207 48 180 38 165 34 156 30 142 29 135 28 123 28 122 29 113 33 94 37 86 53 62 55 60 105 20 121 12 124 12 "/><path d="M221 194 226 196 230 198 236 205 240 210 242 214 246 223 246 227 243 242 242 245 239 249 165 249 158 248 157 247 155 244 155 221 165 206 180 192 183 191 191 189 196 188 203 187 221 194 "/><path d="M233 109 241 116 244 119 246 122 249 139 249 183 243 187 231 188 228 188 218 185 212 182 209 180 205 176 203 173 202 171 198 156 198 143 199 132 200 127 202 121 208 114 209 113 222 109 233 109 "/><path d="M17 41 23 44 27 48 30 53 34 61 34 66 32 69 30 71 25 71 16 64 11 58 9 55 7 49 7 43 13 41 17 41 "/></svg>