<svg width="256" height="256" xmlns="http://www.w3.org/2000/svg" fill-opacity="0" stroke="black" stroke-width="3" ><path d="M136 16 139 17 141 18 142 19 194 80 194 91 190 134 188 141 184 153 177 167 175 169 172 169 140 162 68 140 61 133 61 132 91 64 92 62 118 21 121 18 124 16 136 16 "/><path d="M66 0 74 2 80 13 81 15 82 27 81 39 79 48 70 58 53 73 43 80 8 85 6 85 4 76 0 29 0 12 1 11 57 0 66 0 "/><path d="M237 119 248 124 249 125 249 143 227 197 226 199 224 201 213 205 211 205 209 204 200 197 198 195 193 180 193 174 195 164 206 141 214 125 216 122 228 119 237 119 "/><path d="M246 53 249 56 249 79 246 92 245 94 242 99 237 103 231 106 221 108 215 108 211 106 203 100 199 79 203 70 206 66 207 65 211 62 219 58 226 55 231 53 234 52 242 51 246 53 "/></svg>