<svg width="256" height="256" xmlns="http://www.w3.org/2000/svg" fill-opacity="0" stroke="black" stroke-width="3" ><path d="M147 16 164 22 175 28 180 31 188 38 198 48 210 64 214 70 218 78 222 90 224 97 225 103 226 115 226 116 224 127 218 150 216 155 212 164 204 179 193 193 184 202 176 209 172 212 169 214 165 216 146 221 130 225 78 229 75 229 69 227 64 225 58 221 52 215 46 208 45 206 42 199 38 188 37 182 37 176 47 28 49 25 51 24 137 16 147 16 "/><path d="M7 69 14 88 18 99 18 103 17 116 15 123 11 131 9 134 6 138 0 144 0 64 1 63 7 69 "/></svg>