<svg width="256" height="256" xmlns="http://www.w3.org/2000/svg" fill-opacity="0" stroke="black" stroke-width="3" ><path d="M147 31 151 32 168 42 179 49 183 53 187 60 195 75 211 109 213 116 214 125 214 146 213 152 212 155 207 165 197 177 195 179 169 200 158 207 154 209 134 216 131 217 109 220 90 220 86 219 83 218 81 217 74 212 61 201 50 190 46 185 40 176 36 169 33 161 30 152 30 148 31 136 33 126 34 123 46 94 58 72 61 68 76 50 82 44 85 42 97 38 125 32 141 30 147 31 "/><path d="M249 181 249 249 195 249 195 245 196 239 197 236 198 234 231 190 234 187 240 183 247 179 249 181 "/><path d="M49 0 49 1 41 13 36 20 25 27 9 37 1 39 0 39 0 0 49 0 "/></svg>