<svg width="256" height="256" xmlns="http://www.w3.org/2000/svg" fill-opacity="0" stroke="black" stroke-width="3" ><path d="M186 0 194 3 205 8 208 10 210 12 214 18 215 20 217 25 222 44 224 52 225 74 225 83 224 92 222 101 220 106 218 110 214 117 199 137 192 145 179 157 172 161 164 164 161 165 151 167 130 169 118 168 100 165 65 154 57 150 43 137 28 122 26 117 25 108 25 105 26 96 31 75 37 51 40 44 42 40 48 33 59 21 72 7 76 3 82 0 186 0 "/><path d="M137 197 149 201 157 208 159 210 170 237 170 249 72 249 72 248 73 241 75 235 78 229 84 219 94 209 97 207 102 204 108 201 118 197 137 197 "/></svg>