<svg width="256" height="256" xmlns="http://www.w3.org/2000/svg" fill-opacity="0" stroke="black" stroke-width="3" ><path d="M133 56 143 58 147 59 156 63 170 74 177 80 184 94 186 102 186 117 183 132 181 140 175 161 174 163 170 168 167 171 160 177 154 181 146 185 127 187 64 165 55 155 49 148 48 146 47 139 54 106 68 88 79 75 82 72 91 66 103 59 124 56 133 56 "/><path d="M240 98 249 99 249 230 247 231 244 232 243 232 235 229 223 221 219 218 213 213 205 202 203 199 199 179 199 171 211 103 212 102 216 99 233 98 240 98 "/><path d="M104 212 118 215 121 216 126 218 134 222 135 223 141 230 147 239 150 248 150 249 50 249 53 240 59 229 61 226 64 222 69 217 77 213 80 212 104 212 "/><path d="M249 0 249 57 239 51 237 49 227 30 226 28 234 6 236 3 237 2 239 1 247 0 249 0 "/></svg>