<svg width="256" height="256" xmlns="http://www.w3.org/2000/svg" fill-opacity="0" stroke="black" stroke-width="3" ><path d="M150 7 152 8 155 10 194 41 196 43 201 49 205 56 207 62 208 68 210 90 210 95 209 98 177 145 165 162 162 165 147 175 135 182 128 186 126 187 90 198 82 199 71 199 67 197 64 195 53 185 51 183 47 177 46 175 39 108 39 107 41 104 43 102 142 8 144 7 150 7 "/><path d="M46 3 49 4 51 6 62 20 66 30 67 33 54 74 53 77 52 79 45 86 35 91 27 91 24 90 22 89 19 87 18 86 0 66 0 8 3 3 46 3 "/></svg>