<svg width="256" height="256" xmlns="http://www.w3.org/2000/svg" fill-opacity="0" stroke="black" stroke-width="3" ><path d="M147 48 153 49 161 53 171 59 191 79 200 117 200 118 199 132 177 174 171 184 169 187 166 189 164 190 151 196 146 198 138 200 114 203 106 203 98 200 88 196 86 195 81 192 64 175 53 162 48 152 48 139 50 117 61 90 63 87 66 84 76 75 84 68 122 49 125 48 147 48 "/><path d="M248 138 249 139 249 227 237 234 215 239 212 239 209 238 203 225 194 200 194 195 196 191 203 182 212 172 228 155 231 152 246 138 248 138 "/></svg>