<svg width="256" height="256" xmlns="http://www.w3.org/2000/svg" fill-opacity="0" stroke="black" stroke-width="3" ><path d="M127 32 142 37 157 43 173 59 191 85 194 94 195 100 195 103 174 190 173 194 167 201 98 249 42 249 52 83 54 75 58 64 60 60 70 47 72 45 82 37 96 33 100 32 115 30 127 32 "/><path d="M54 0 61 15 61 16 57 24 39 41 37 42 23 47 18 48 4 48 0 46 0 0 54 0 "/><path d="M179 0 179 2 178 11 172 21 166 27 160 30 157 31 153 32 150 32 141 29 135 26 128 20 126 18 125 16 124 13 122 4 122 0 179 0 "/></svg>