<svg width="256" height="256" xmlns="http://www.w3.org/2000/svg" fill-opacity="0" stroke="black" stroke-width="3" ><path d="M135 33 189 39 205 46 224 69 226 72 227 74 228 77 229 101 229 114 227 128 221 156 171 183 154 191 145 195 120 205 113 205 111 204 19 80 19 75 20 73 32 56 101 36 109 34 117 33 135 33 "/><path d="M208 187 210 188 224 205 225 207 226 213 226 216 225 220 224 223 223 225 221 228 218 232 204 239 198 239 191 235 186 232 183 230 173 220 173 206 174 202 180 194 182 192 203 187 208 187 "/><path d="M15 0 70 14 73 20 73 23 49 39 44 42 40 44 37 45 33 45 30 44 19 36 14 32 11 29 4 20 0 13 0 0 15 0 "/><path d="M236 22 237 23 241 28 243 31 249 42 249 101 248 101 247 100 241 89 234 68 226 43 226 41 229 31 231 25 232 23 233 22 236 22 "/></svg>