<svg width="256" height="256" xmlns="http://www.w3.org/2000/svg" fill-opacity="0" stroke="black" stroke-width="3" ><path d="M105 88 132 97 144 102 146 103 149 111 157 137 159 145 160 154 160 158 159 168 136 198 134 200 131 202 121 200 71 185 68 184 65 181 62 176 61 173 59 166 59 162 73 90 74 88 77 86 105 88 "/><path d="M190 0 182 20 165 45 149 53 120 55 117 55 102 54 90 53 73 45 70 42 60 26 54 0 190 0 "/><path d="M187 107 195 109 209 113 217 118 220 120 234 130 239 134 249 143 249 165 228 188 227 189 220 193 218 194 217 194 203 192 199 191 196 188 192 183 191 181 186 170 183 159 180 141 179 119 179 115 180 108 183 107 187 107 "/><path d="M215 13 224 16 225 17 231 24 249 64 249 111 247 116 246 118 244 118 241 117 237 115 229 110 225 107 216 97 195 56 194 48 194 41 195 33 196 29 202 17 206 13 215 13 "/><path d="M10 0 30 34 31 36 32 40 32 43 31 49 29 51 19 59 14 59 3 55 2 53 0 48 0 0 10 0 "/></svg>