<svg width="256" height="256" xmlns="http://www.w3.org/2000/svg" fill-opacity="0" stroke="black" stroke-width="3" ><path d="M139 42 149 44 152 45 163 50 167 52 177 58 180 61 198 81 200 84 206 101 208 113 207 135 206 139 200 148 183 168 172 179 148 194 135 195 127 195 112 194 100 191 94 189 67 169 57 159 51 151 47 145 46 143 45 140 45 130 49 116 77 62 84 56 87 54 91 52 131 42 139 42 "/><path d="M234 179 239 182 242 184 246 188 249 192 249 207 246 223 240 229 237 231 195 249 54 249 52 247 52 244 53 241 54 239 57 234 60 231 68 224 72 221 83 216 89 214 167 189 227 179 234 179 "/><path d="M6 30 50 43 52 44 56 49 59 59 59 60 57 67 56 70 50 86 40 99 26 114 24 116 19 120 6 125 2 126 0 126 0 30 6 30 "/></svg>