<svg width="256" height="256" xmlns="http://www.w3.org/2000/svg" fill-opacity="0" stroke="black" stroke-width="3" ><path d="M137 42 153 45 171 61 177 71 179 75 200 127 200 128 199 143 194 157 190 167 187 173 174 186 166 192 163 194 137 200 132 201 128 201 123 200 106 196 99 194 88 187 77 178 75 176 69 167 64 154 59 137 58 132 58 115 60 106 68 89 70 85 76 75 80 71 119 43 130 42 137 42 "/><path d="M243 0 249 1 249 76 247 77 223 82 220 82 216 81 214 80 203 73 200 70 197 65 196 62 193 50 193 48 196 40 201 33 204 29 210 23 238 0 243 0 "/><path d="M249 176 249 235 194 239 192 239 188 237 188 236 204 193 206 191 228 175 249 176 "/></svg>