<svg width="256" height="256" xmlns="http://www.w3.org/2000/svg" fill-opacity="0" stroke="black" stroke-width="3" ><path d="M249 61 249 165 226 181 223 183 213 188 210 189 199 192 194 192 182 190 172 185 140 165 134 136 133 124 133 121 153 91 181 74 186 71 198 67 219 63 230 61 249 61 "/><path d="M85 178 92 182 99 189 104 202 104 208 102 215 101 218 96 224 88 232 85 233 80 234 77 234 63 226 60 224 55 218 53 213 53 198 55 193 56 191 61 186 69 179 80 178 85 178 "/><path d="M30 134 40 139 42 141 45 146 46 153 46 154 42 172 41 176 35 182 28 188 11 196 6 198 2 198 0 196 0 162 23 136 25 135 28 134 30 134 "/></svg>