<svg width="256" height="256" xmlns="http://www.w3.org/2000/svg" fill-opacity="0" stroke="black" stroke-width="3" ><path d="M137 63 167 76 175 80 178 82 185 88 189 92 196 104 200 114 202 121 205 136 205 137 202 155 200 159 194 169 190 173 165 192 161 194 144 197 140 197 117 195 98 192 67 182 61 176 57 171 53 164 51 160 45 145 43 139 42 135 40 123 40 114 42 99 43 95 44 92 46 88 49 83 54 77 55 76 59 73 69 68 129 61 137 63 "/><path d="M125 215 140 222 148 230 156 243 158 249 78 249 79 244 87 228 90 225 101 215 110 214 125 215 "/><path d="M212 0 206 6 175 25 168 26 118 1 117 0 212 0 "/><path d="M249 224 249 249 183 249 183 248 185 245 202 229 211 226 245 224 249 224 "/></svg>