<svg width="256" height="256" xmlns="http://www.w3.org/2000/svg" fill-opacity="0" stroke="black" stroke-width="3" ><path d="M84 39 119 43 123 44 128 46 130 48 149 68 167 95 170 102 171 105 173 112 174 116 177 139 177 162 173 173 172 175 163 189 159 194 157 196 144 207 109 225 101 228 98 229 93 229 77 225 63 221 30 208 28 207 26 205 0 151 0 117 3 105 10 87 18 70 82 39 84 39 "/><path d="M249 46 249 121 245 124 235 129 227 132 223 133 222 133 215 132 211 131 208 129 203 124 198 118 197 116 194 107 191 60 197 48 205 39 206 38 209 36 249 46 "/></svg>