<svg width="256" height="256" xmlns="http://www.w3.org/2000/svg" fill-opacity="0" stroke="black" stroke-width="3" ><path d="M154 20 159 21 163 22 166 23 170 26 185 42 186 44 198 70 199 74 200 82 202 108 202 109 194 149 191 157 190 159 184 170 182 173 171 187 158 198 133 213 104 218 101 218 97 216 90 211 55 183 40 131 39 125 38 107 38 106 39 94 40 90 41 88 61 60 65 56 74 50 86 44 151 20 154 20 "/><path d="M51 0 59 3 60 4 64 9 65 14 65 16 64 32 62 37 55 51 32 88 29 91 18 97 14 97 7 93 0 87 0 15 2 4 3 3 7 2 16 0 51 0 "/><path d="M10 155 25 161 27 162 28 163 32 175 33 180 34 192 34 203 32 209 28 217 26 219 18 223 14 224 1 225 0 225 0 156 8 155 10 155 "/><path d="M249 0 249 69 244 69 239 65 221 47 217 36 212 21 212 20 219 0 249 0 "/></svg>