<svg width="256" height="256" xmlns="http://www.w3.org/2000/svg" fill-opacity="0" stroke="black" stroke-width="3" ><path d="M140 58 149 59 174 65 180 67 190 73 199 79 215 92 226 103 234 113 239 125 245 141 246 145 249 160 249 187 246 199 245 201 243 204 240 208 238 210 231 216 225 220 215 226 213 227 192 234 181 234 141 230 137 228 75 190 72 188 62 178 59 174 56 168 55 165 53 157 53 128 56 116 57 113 63 97 67 91 72 84 91 65 99 61 105 59 136 58 140 58 "/><path d="M12 0 90 24 91 26 81 35 65 45 63 46 55 49 36 56 13 63 5 63 0 62 0 0 12 0 "/></svg>