<svg width="256" height="256" xmlns="http://www.w3.org/2000/svg" fill-opacity="0" stroke="black" stroke-width="3" ><path d="M115 0 142 36 142 41 133 87 126 101 66 166 64 165 56 157 51 151 50 149 44 130 43 120 43 119 69 13 78 4 84 0 115 0 "/><path d="M240 156 245 158 249 167 249 246 243 247 235 247 220 245 215 243 208 239 196 227 194 223 191 216 189 210 189 202 192 187 206 170 208 168 215 162 219 159 223 157 228 155 234 154 240 156 "/><path d="M229 87 229 108 225 141 218 149 216 151 189 177 185 180 183 181 182 181 181 180 181 177 208 98 209 97 221 86 227 84 229 87 "/><path d="M33 4 37 5 39 6 45 12 55 37 55 48 52 51 13 59 8 59 0 58 0 44 32 4 33 4 "/><path d="M249 0 249 19 248 20 243 21 231 22 216 19 205 15 200 13 197 9 195 6 194 2 194 0 249 0 "/><path d="M159 68 167 70 173 72 182 77 186 82 190 93 191 97 193 111 191 111 148 103 141 90 141 86 158 68 159 68 "/></svg>