<svg width="256" height="256" xmlns="http://www.w3.org/2000/svg" fill-opacity="0" stroke="black" stroke-width="3" ><path d="M136 57 152 59 167 63 173 66 178 71 194 90 197 106 200 151 200 155 198 161 180 205 179 207 175 213 174 213 78 152 75 150 72 147 69 142 69 110 70 100 71 96 75 88 77 86 107 66 125 57 136 57 "/><path d="M77 187 114 190 118 191 130 196 144 217 150 230 151 233 151 234 149 249 50 249 43 228 43 226 44 221 46 215 51 205 58 195 62 191 66 189 74 187 77 187 "/><path d="M249 0 249 60 239 66 228 63 216 57 207 49 196 37 189 28 187 25 179 2 179 0 249 0 "/></svg>