<svg width="256" height="256" xmlns="http://www.w3.org/2000/svg" fill-opacity="0" stroke="black" stroke-width="3" ><path d="M218 0 222 3 224 5 230 16 232 22 233 32 233 39 232 50 230 56 228 60 225 65 222 69 215 75 213 76 200 81 193 82 192 82 180 81 177 80 170 77 167 75 162 71 160 69 153 61 148 51 145 36 146 25 152 17 169 0 218 0 "/><path d="M76 79 88 83 91 86 94 92 96 97 96 169 95 183 94 185 92 188 88 192 57 194 56 194 39 192 38 191 13 158 12 153 11 139 11 138 17 122 21 114 34 100 36 98 53 83 56 81 58 80 65 77 76 79 "/><path d="M19 45 23 47 26 49 28 51 30 55 30 63 11 83 3 91 0 93 0 37 19 45 "/><path d="M157 0 143 17 142 18 132 21 123 22 122 22 118 21 115 20 107 16 102 13 94 5 92 2 91 0 157 0 "/><path d="M1 226 6 227 14 229 17 230 20 232 30 242 33 246 34 248 34 249 0 249 0 226 1 226 "/></svg>