<svg width="256" height="256" xmlns="http://www.w3.org/2000/svg" fill-opacity="0" stroke="black" stroke-width="3" ><path d="M124 44 140 45 143 46 148 48 164 56 167 58 172 62 182 73 192 88 198 103 200 111 201 116 202 122 202 130 200 145 196 160 194 167 172 189 158 197 150 201 144 202 136 203 131 203 124 202 110 198 102 195 100 194 87 185 83 182 73 171 65 160 57 147 55 139 54 117 54 115 55 106 56 99 57 94 59 86 61 81 65 73 71 62 77 56 84 51 88 49 114 44 124 44 "/><path d="M184 210 189 212 199 220 201 222 202 224 205 231 206 234 208 244 208 247 207 249 155 249 150 245 148 239 148 235 149 230 153 224 157 220 167 214 171 212 177 210 184 210 "/><path d="M15 65 24 70 31 80 35 88 35 92 30 108 29 111 28 112 18 117 13 118 3 118 0 116 0 65 13 64 15 65 "/><path d="M28 136 29 149 29 153 28 157 15 168 11 171 5 173 0 173 0 125 3 122 25 118 28 136 "/></svg>