<svg width="256" height="256" xmlns="http://www.w3.org/2000/svg" fill-opacity="0" stroke="black" stroke-width="3" ><path d="M150 42 159 43 161 44 170 50 208 86 209 87 210 89 210 90 207 114 198 145 195 153 189 168 187 170 166 180 154 185 151 186 144 188 133 191 96 198 93 198 88 196 85 194 77 187 73 183 71 180 70 178 55 106 55 96 57 89 61 82 71 69 84 56 87 54 92 51 98 48 115 43 125 42 150 42 "/><path d="M249 0 249 77 247 77 242 75 238 73 235 70 228 60 227 58 223 49 223 39 229 4 230 1 231 0 249 0 "/><path d="M249 209 249 243 231 247 225 247 223 246 219 242 215 235 214 233 214 229 217 223 221 219 224 217 228 215 248 209 249 209 "/><path d="M14 170 16 172 18 175 20 180 22 186 23 193 18 203 12 211 10 213 5 216 2 217 0 217 0 163 14 170 "/></svg>