<svg width="256" height="256" xmlns="http://www.w3.org/2000/svg" fill-opacity="0" stroke="black" stroke-width="3" ><path d="M174 47 179 48 182 49 203 61 205 63 208 70 217 93 217 99 216 113 211 128 206 137 197 150 179 168 170 176 143 193 141 194 132 197 116 200 106 201 97 201 91 200 89 199 88 197 59 121 58 95 58 94 59 91 65 86 76 77 140 50 170 47 174 47 "/><path d="M56 196 62 197 81 202 93 208 95 210 119 236 124 244 126 249 0 249 0 228 5 217 11 210 12 209 17 206 24 202 26 201 33 199 53 196 56 196 "/><path d="M249 75 249 133 247 133 244 132 242 131 236 127 228 119 224 111 224 99 225 95 228 89 232 83 237 79 247 75 249 75 "/></svg>