<svg width="256" height="256" xmlns="http://www.w3.org/2000/svg" fill-opacity="0" stroke="black" stroke-width="3" ><path d="M121 47 128 48 138 51 142 53 145 55 150 59 156 64 189 95 190 96 194 104 195 108 195 111 190 144 187 160 180 172 170 182 161 189 155 193 150 196 144 198 139 199 121 199 115 198 105 196 98 194 95 193 89 190 84 187 58 166 50 158 44 146 43 140 42 130 42 123 43 114 44 107 48 95 55 81 60 75 69 65 70 64 75 61 92 51 111 47 121 47 "/><path d="M239 0 240 2 249 40 249 64 248 65 247 65 195 49 192 48 187 46 182 43 179 41 176 37 174 32 170 21 169 15 168 8 168 4 172 0 239 0 "/><path d="M249 106 249 188 243 187 237 185 228 179 227 178 224 174 220 168 216 158 216 154 218 139 219 136 225 126 229 120 233 115 236 113 244 108 248 106 249 106 "/></svg>