<svg width="256" height="256" xmlns="http://www.w3.org/2000/svg" fill-opacity="0" stroke="black" stroke-width="3" ><path d="M150 55 153 56 160 59 175 68 177 70 195 95 197 98 201 108 203 114 203 123 200 137 198 143 192 153 190 156 184 164 180 169 174 175 128 212 126 213 118 214 112 214 90 208 85 206 72 198 68 191 45 150 45 132 47 104 65 78 81 62 111 56 140 55 150 55 "/><path d="M226 183 232 185 238 188 249 204 249 249 144 249 134 245 133 243 133 242 146 226 156 216 172 203 176 201 211 185 220 183 226 183 "/><path d="M8 177 27 191 37 201 44 210 45 214 45 219 43 223 38 231 37 232 28 240 19 246 11 249 0 249 0 172 8 177 "/><path d="M35 0 46 6 48 8 49 13 48 17 27 86 23 94 20 97 19 97 13 95 1 87 0 83 0 0 35 0 "/><path d="M226 124 232 128 236 131 238 133 242 139 242 149 238 156 232 160 230 160 216 140 214 136 215 133 219 126 221 124 223 123 226 124 "/></svg>