<svg width="256" height="256" xmlns="http://www.w3.org/2000/svg" fill-opacity="0" stroke="black" stroke-width="3" ><path d="M131 51 141 52 153 57 157 59 170 67 174 71 183 82 186 88 187 91 190 101 191 106 193 120 193 139 192 146 191 152 190 157 187 164 183 173 182 175 178 182 169 192 165 196 152 208 137 212 128 214 118 216 101 216 88 214 77 210 70 207 67 205 58 197 56 195 51 189 47 183 44 178 41 172 40 168 40 153 53 92 58 83 62 77 74 65 78 62 91 56 94 55 106 52 128 51 131 51 "/><path d="M16 97 22 98 27 100 31 105 30 119 25 145 13 159 0 161 0 111 14 97 16 97 "/></svg>