<svg width="256" height="256" xmlns="http://www.w3.org/2000/svg" fill-opacity="0" stroke="black" stroke-width="3" ><path d="M114 39 125 40 140 42 153 47 160 50 172 57 182 64 189 71 198 83 200 87 202 92 206 106 208 115 208 127 207 134 206 139 205 142 199 156 198 158 188 172 183 178 178 182 174 185 165 190 159 192 143 194 141 194 130 192 72 181 63 176 49 160 45 155 39 134 38 128 38 97 40 90 43 80 45 76 47 73 52 66 61 56 71 50 107 39 114 39 "/><path d="M106 0 108 13 106 20 104 24 97 31 91 35 87 37 69 40 67 40 59 38 55 36 45 30 41 26 38 21 33 3 33 2 35 0 106 0 "/><path d="M20 174 25 175 31 177 34 179 40 185 42 188 44 194 44 206 40 215 33 223 25 228 15 230 7 230 0 225 0 186 2 181 4 179 8 176 10 175 16 174 20 174 "/><path d="M234 0 232 7 230 13 228 18 223 21 219 23 196 21 174 19 166 17 164 16 163 13 163 0 234 0 "/><path d="M84 219 88 221 90 223 97 237 97 242 96 244 93 249 51 249 51 240 53 232 57 223 58 221 59 220 76 217 84 219 "/></svg>