<svg width="256" height="256" xmlns="http://www.w3.org/2000/svg" fill-opacity="0" stroke="black" stroke-width="3" ><path d="M143 47 147 48 164 55 173 61 177 64 183 69 184 70 191 78 194 82 198 89 201 95 204 107 205 113 205 151 204 157 201 167 199 172 191 182 184 189 177 194 166 201 153 206 147 208 135 208 115 207 105 206 101 205 83 199 68 184 55 169 53 166 51 159 77 69 78 67 83 61 84 60 88 57 97 52 99 51 112 47 143 47 "/><path d="M28 13 45 29 49 37 57 54 60 63 62 70 64 84 61 113 60 117 57 126 56 128 37 164 32 170 23 177 14 181 0 181 0 16 8 13 25 12 28 13 "/><path d="M249 0 249 42 247 42 241 40 233 36 228 33 227 32 220 20 217 10 218 3 220 0 249 0 "/></svg>