<svg width="256" height="256" xmlns="http://www.w3.org/2000/svg" fill-opacity="0" stroke="black" stroke-width="3" ><path d="M129 33 139 36 150 40 160 45 171 54 196 78 197 79 199 82 201 86 202 89 211 146 211 147 209 159 208 164 207 168 203 174 196 184 193 188 192 189 183 195 179 197 174 199 167 201 158 203 151 203 134 199 85 185 58 169 52 163 39 140 38 132 38 120 39 109 48 93 86 49 111 36 124 33 129 33 "/><path d="M49 0 61 14 62 25 62 33 60 45 59 49 58 51 51 61 49 63 31 78 28 80 13 86 10 86 0 85 0 7 1 6 23 0 49 0 "/><path d="M33 182 122 218 125 220 128 226 134 249 22 249 0 220 0 197 3 192 4 191 6 190 31 182 33 182 "/></svg>