<svg width="256" height="256" xmlns="http://www.w3.org/2000/svg" fill-opacity="0" stroke="black" stroke-width="3" ><path d="M140 37 158 41 162 42 165 43 174 47 182 53 193 63 213 91 221 116 222 131 222 137 220 157 217 163 213 169 205 180 202 184 180 207 174 212 162 218 129 226 128 226 110 222 92 217 89 215 82 210 65 194 62 190 50 170 48 166 44 156 43 140 43 133 44 127 50 97 52 94 80 58 112 39 122 38 134 37 140 37 "/><path d="M249 249 163 249 163 248 170 238 173 234 202 205 209 199 211 198 249 184 249 249 "/></svg>