<svg width="256" height="256" xmlns="http://www.w3.org/2000/svg" fill-opacity="0" stroke="black" stroke-width="3" ><path d="M145 53 151 55 157 61 183 94 185 98 189 118 189 129 187 136 177 167 176 168 159 180 157 181 100 189 98 189 96 188 86 182 46 132 43 101 43 100 44 96 48 81 137 53 145 53 "/><path d="M246 53 249 54 249 123 247 122 238 113 231 105 226 98 223 86 223 82 224 78 230 64 231 62 235 57 236 56 240 53 246 53 "/><path d="M7 89 9 91 13 97 18 115 19 120 19 125 16 146 14 150 6 156 1 158 0 158 0 85 7 89 "/></svg>