<svg width="256" height="256" xmlns="http://www.w3.org/2000/svg" fill-opacity="0" stroke="black" stroke-width="3" ><path d="M136 73 151 75 160 77 172 85 176 88 177 89 183 98 185 102 189 113 189 117 188 134 187 140 185 144 180 150 174 157 163 168 160 170 136 179 128 179 119 178 114 177 110 175 97 168 91 162 88 158 86 155 82 148 80 144 79 141 78 130 78 123 80 115 86 101 90 94 92 91 95 87 103 79 114 75 128 73 136 73 "/><path d="M1 18 12 21 54 34 57 36 65 44 71 51 72 53 73 60 73 61 61 96 60 98 57 102 53 106 49 107 35 110 30 111 24 112 2 114 0 114 0 18 1 18 "/><path d="M10 145 51 161 55 163 58 165 62 168 69 174 75 181 77 188 77 203 73 208 55 226 52 227 45 229 34 232 26 232 22 231 16 228 6 218 0 206 0 146 4 145 10 145 "/><path d="M249 134 249 247 243 246 240 245 235 241 214 220 212 216 204 197 204 193 205 187 210 173 217 159 235 138 237 136 248 133 249 134 "/><path d="M159 212 167 215 172 220 195 248 195 249 76 249 77 247 94 230 98 227 101 225 124 215 153 210 159 212 "/></svg>