<svg width="256" height="256" xmlns="http://www.w3.org/2000/svg" fill-opacity="0" stroke="black" stroke-width="3" ><path d="M155 48 190 87 207 150 205 172 200 181 191 192 190 193 175 205 169 209 81 249 68 249 55 112 55 105 57 86 60 81 88 53 111 50 154 48 155 48 "/><path d="M249 7 249 154 247 154 245 153 238 148 229 139 220 127 217 121 207 91 206 74 206 61 208 47 211 40 216 30 221 23 229 15 236 10 240 8 248 7 249 7 "/><path d="M249 201 249 249 186 249 186 246 191 235 192 233 198 224 203 219 211 213 222 207 232 203 240 201 249 201 "/><path d="M8 99 22 106 29 114 35 124 36 134 36 138 33 142 29 146 24 148 23 148 8 146 5 144 0 137 0 100 4 99 8 99 "/><path d="M2 155 17 168 18 169 18 186 16 191 14 194 8 200 2 201 0 201 0 154 2 155 "/></svg>