<svg width="256" height="256" xmlns="http://www.w3.org/2000/svg" fill-opacity="0" stroke="black" stroke-width="3" ><path d="M133 32 140 34 146 36 151 38 159 42 164 46 169 51 188 85 192 93 194 107 196 127 196 129 187 155 168 185 139 217 136 219 132 221 124 223 121 223 101 221 83 219 75 217 55 205 49 201 46 198 43 194 41 191 37 181 35 174 35 166 36 161 37 157 77 60 81 52 84 48 90 42 95 38 103 34 114 32 133 32 "/><path d="M12 51 20 52 26 55 31 59 35 65 42 79 46 88 53 106 53 110 52 114 47 126 46 128 41 136 22 155 0 166 0 55 10 51 12 51 "/></svg>