<svg width="256" height="256" xmlns="http://www.w3.org/2000/svg" fill-opacity="0" stroke="black" stroke-width="3" ><path d="M161 44 198 55 213 62 215 63 216 64 221 71 226 79 228 97 232 137 232 145 228 163 224 174 214 190 207 198 203 202 200 204 168 215 153 219 142 219 114 215 110 214 102 210 90 202 79 192 75 183 72 172 71 166 71 164 75 128 80 99 81 97 135 47 146 44 161 44 "/><path d="M34 95 41 96 46 97 48 98 54 102 60 107 61 108 65 114 69 123 69 124 67 144 65 156 63 164 62 166 56 174 55 175 44 183 28 181 24 180 17 176 5 168 3 166 0 146 0 136 2 112 3 109 15 97 32 95 34 95 "/><path d="M115 227 139 233 149 236 151 237 154 240 156 243 155 246 154 248 153 249 61 249 63 245 68 240 91 227 101 225 115 227 "/><path d="M68 0 70 5 69 12 58 56 53 56 46 54 37 48 34 43 31 37 28 25 28 23 30 16 32 12 44 0 68 0 "/><path d="M110 29 119 30 120 31 120 35 118 41 115 49 112 54 110 56 102 61 97 64 90 67 87 68 81 68 72 62 68 58 68 57 80 40 81 39 84 37 95 30 101 29 110 29 "/></svg>