<svg width="256" height="256" xmlns="http://www.w3.org/2000/svg" fill-opacity="0" stroke="black" stroke-width="3" ><path d="M172 0 173 1 196 44 207 70 211 80 212 83 214 90 215 98 214 110 213 113 196 122 193 122 89 109 85 102 85 99 90 86 124 0 172 0 "/><path d="M3 32 11 33 15 34 27 40 29 42 37 51 44 59 47 63 48 65 50 74 50 76 49 79 48 81 44 86 41 89 20 109 11 112 3 113 0 113 0 32 3 32 "/><path d="M177 221 195 224 217 240 221 248 221 249 151 249 151 245 152 237 155 228 156 227 171 221 177 221 "/></svg>