<svg width="256" height="256" xmlns="http://www.w3.org/2000/svg" fill-opacity="0" stroke="black" stroke-width="3" ><path d="M112 35 140 42 144 44 164 55 169 60 174 66 177 71 179 76 189 103 191 110 192 117 192 133 189 144 185 158 181 165 170 177 167 180 159 185 155 187 148 189 139 190 127 190 106 189 95 183 86 177 83 174 58 146 57 144 54 137 52 132 52 121 58 86 76 61 82 56 111 35 112 35 "/><path d="M249 128 249 174 247 174 238 170 228 160 225 156 221 144 222 142 225 137 231 128 232 127 249 128 "/></svg>