<svg width="256" height="256" xmlns="http://www.w3.org/2000/svg" fill-opacity="0" stroke="black" stroke-width="3" ><path d="M153 74 164 78 166 79 172 83 175 87 179 96 181 102 184 114 176 146 175 147 150 170 127 187 113 189 112 189 96 185 93 184 86 179 84 177 80 164 77 154 77 138 81 125 86 112 98 90 99 89 110 82 134 72 137 71 153 74 "/><path d="M196 197 199 200 206 209 209 214 209 245 208 247 206 249 126 249 129 230 140 215 141 214 162 201 174 197 196 197 "/><path d="M249 151 242 146 241 145 238 141 235 135 232 123 229 107 228 98 228 96 230 72 249 53 249 151 "/></svg>