<svg width="256" height="256" xmlns="http://www.w3.org/2000/svg" fill-opacity="0" stroke="black" stroke-width="3" ><path d="M119 38 159 46 162 47 188 61 202 80 206 89 219 121 220 124 219 138 217 144 215 148 211 155 196 178 194 181 179 199 174 204 170 207 159 213 155 215 144 219 135 221 130 221 114 220 78 200 76 198 73 193 65 177 63 153 62 131 62 130 63 127 85 64 86 62 93 52 94 51 114 39 116 38 119 38 "/><path d="M249 171 249 249 214 249 213 247 212 225 212 221 213 213 214 209 221 193 228 181 229 180 237 175 246 171 249 171 "/><path d="M83 216 96 222 100 224 104 227 105 229 107 235 106 249 20 249 20 246 26 235 30 229 34 225 39 221 48 216 83 216 "/></svg>