<svg width="256" height="256" xmlns="http://www.w3.org/2000/svg" fill-opacity="0" stroke="black" stroke-width="3" ><path d="M124 25 145 32 157 37 161 39 170 44 176 48 183 54 203 72 210 94 212 101 215 116 215 118 214 136 211 156 210 162 204 176 199 183 195 188 186 198 180 203 168 211 163 214 142 226 133 228 121 230 107 231 100 231 97 230 93 227 80 216 73 210 59 191 55 185 36 155 24 135 23 133 21 124 21 119 22 109 24 101 27 91 34 75 35 73 37 70 49 56 50 55 56 50 66 42 70 39 81 32 85 30 91 28 95 27 116 25 124 25 "/><path d="M6 160 9 162 29 179 63 215 71 224 79 236 83 244 84 249 0 249 0 160 6 160 "/><path d="M247 0 249 1 249 92 230 75 221 52 220 49 220 40 224 28 225 26 236 9 243 0 247 0 "/></svg>