<svg width="256" height="256" xmlns="http://www.w3.org/2000/svg" fill-opacity="0" stroke="black" stroke-width="3" ><path d="M114 49 131 50 138 51 147 53 150 54 160 58 178 69 183 73 190 80 194 88 217 138 217 140 214 156 210 165 174 209 167 214 164 216 158 219 150 221 144 222 129 222 123 221 114 218 103 211 100 209 91 202 90 201 76 186 65 171 61 165 59 161 55 148 53 138 52 132 52 120 54 107 55 103 59 95 79 68 82 64 92 54 96 52 101 50 106 49 114 49 "/><path d="M54 21 68 24 71 32 71 68 61 82 56 88 55 88 0 85 0 25 52 21 54 21 "/><path d="M231 4 237 10 249 44 249 86 248 87 245 89 239 89 228 87 226 86 215 76 213 74 209 69 207 65 200 50 198 39 198 38 199 20 201 16 206 11 210 9 225 5 230 4 231 4 "/><path d="M177 0 177 10 174 19 168 25 162 29 155 31 120 32 119 31 103 9 99 3 98 1 98 0 177 0 "/><path d="M6 117 20 122 29 130 32 134 34 137 37 151 37 157 34 164 32 168 31 169 24 175 21 177 19 178 10 178 3 177 0 176 0 117 6 117 "/></svg>