<svg width="256" height="256" xmlns="http://www.w3.org/2000/svg" fill-opacity="0" stroke="black" stroke-width="3" ><path d="M127 54 137 57 148 62 151 64 168 78 169 79 187 117 189 126 189 132 187 143 184 154 183 156 177 164 170 173 165 179 157 187 141 194 121 201 102 199 98 198 83 194 74 189 71 187 59 178 48 169 47 167 41 153 39 148 37 117 37 116 45 102 52 90 60 78 70 71 85 61 94 58 106 55 112 54 127 54 "/><path d="M249 0 249 94 248 94 194 45 192 32 191 25 191 24 194 17 197 11 207 3 214 0 249 0 "/><path d="M219 173 234 180 236 182 243 199 243 202 235 212 225 220 217 220 203 218 199 214 194 207 192 204 191 199 192 195 195 188 197 184 200 181 211 173 219 173 "/></svg>