<svg width="256" height="256" xmlns="http://www.w3.org/2000/svg" fill-opacity="0" stroke="black" stroke-width="3" ><path d="M129 27 137 28 144 31 146 32 149 34 156 39 167 47 196 76 201 82 203 86 210 109 211 113 212 126 212 151 211 162 209 169 206 178 199 189 196 193 188 203 185 206 176 212 171 215 166 217 154 221 145 222 141 222 134 221 126 219 112 215 95 209 90 207 72 194 62 184 50 169 45 152 44 147 43 141 40 107 40 101 46 80 47 77 53 63 56 59 63 52 73 44 82 38 90 34 103 30 115 28 122 27 129 27 "/><path d="M17 31 19 33 20 35 33 68 33 70 16 130 12 142 11 144 9 146 0 146 0 21 17 31 "/><path d="M249 184 247 183 244 180 236 168 234 163 232 137 232 136 235 124 238 118 240 115 243 111 249 105 249 184 "/></svg>