<svg width="256" height="256" xmlns="http://www.w3.org/2000/svg" fill-opacity="0" stroke="black" stroke-width="3" ><path d="M120 81 126 83 135 87 139 89 142 91 145 94 161 115 167 126 169 131 171 140 172 146 172 159 171 165 169 176 166 184 165 186 159 196 157 199 149 210 140 220 127 233 123 236 105 246 94 249 23 249 22 247 16 233 10 215 6 202 4 190 4 186 5 160 6 156 20 122 24 116 30 109 31 108 44 99 55 93 64 89 71 87 84 84 89 83 95 82 102 81 120 81 "/><path d="M45 0 87 31 94 37 100 43 98 50 93 57 90 59 81 64 77 66 45 71 39 71 29 69 6 58 4 56 0 49 0 0 45 0 "/><path d="M228 14 239 15 243 16 246 17 249 24 249 50 246 51 227 54 178 53 176 52 175 51 173 48 172 45 172 41 173 38 176 35 183 29 193 21 201 18 210 15 226 14 228 14 "/><path d="M199 70 202 71 221 102 221 106 217 110 205 114 199 114 196 113 191 111 189 110 179 97 175 86 175 84 178 76 179 74 182 71 184 70 199 70 "/><path d="M176 0 160 8 151 12 141 13 133 13 130 12 120 8 103 0 176 0 "/></svg>