<svg width="256" height="256" xmlns="http://www.w3.org/2000/svg" fill-opacity="0" stroke="black" stroke-width="3" ><path d="M141 106 142 107 174 178 174 179 173 185 172 188 167 199 144 213 133 214 127 214 74 212 70 211 58 205 49 195 47 192 44 184 44 175 89 90 93 86 109 84 141 106 "/><path d="M1 52 4 53 16 59 18 61 25 70 26 72 35 97 44 224 44 231 43 243 42 245 40 246 30 249 0 249 0 52 1 52 "/><path d="M236 197 249 199 249 249 197 249 194 247 192 245 190 237 190 235 191 233 199 219 210 206 211 205 227 199 234 197 236 197 "/><path d="M78 0 78 4 76 10 74 15 71 18 66 22 60 26 55 28 49 30 41 32 27 33 25 33 0 24 0 0 78 0 "/><path d="M160 0 160 16 159 18 156 21 152 24 148 26 145 27 142 27 127 26 110 16 105 13 101 8 99 3 99 0 160 0 "/><path d="M249 37 249 93 237 91 230 84 228 81 215 51 217 49 219 48 245 38 248 37 249 37 "/><path d="M137 49 145 50 150 52 163 59 164 61 164 64 162 66 130 75 127 75 112 69 108 63 108 61 109 59 128 51 136 49 137 49 "/></svg>