<svg width="256" height="256" xmlns="http://www.w3.org/2000/svg" fill-opacity="0" stroke="black" stroke-width="3" ><path d="M231 0 249 17 249 205 242 205 222 202 219 200 215 197 207 189 202 183 198 177 190 157 180 128 180 121 201 0 231 0 "/><path d="M141 116 157 152 159 182 159 183 158 190 151 208 147 214 145 216 117 220 99 221 96 221 93 220 79 215 72 206 59 185 58 183 55 175 56 170 64 158 65 157 132 111 135 110 141 116 "/><path d="M154 0 154 4 153 7 144 32 137 41 122 53 116 54 105 54 102 53 89 48 85 44 76 32 75 29 71 16 70 12 72 7 73 6 84 0 154 0 "/><path d="M54 232 87 240 91 241 101 246 104 249 24 249 24 248 25 245 28 242 34 238 40 235 47 232 54 232 "/></svg>