<svg width="256" height="256" xmlns="http://www.w3.org/2000/svg" fill-opacity="0" stroke="black" stroke-width="3" ><path d="M120 16 142 20 153 24 163 28 180 39 186 44 188 46 198 57 206 69 208 73 210 78 212 119 212 123 211 136 209 141 208 143 202 153 190 167 180 177 174 182 169 185 129 197 114 196 107 195 93 191 90 190 84 185 71 174 49 152 47 142 47 138 75 31 76 28 78 26 85 20 101 16 113 15 120 16 "/><path d="M14 172 19 173 21 174 24 176 30 182 34 190 35 194 35 199 34 202 32 205 24 214 23 215 15 221 12 223 7 224 0 224 0 174 3 172 14 172 "/><path d="M25 88 27 89 26 118 15 145 13 146 8 146 0 141 0 90 5 88 19 87 25 88 "/></svg>