<svg width="256" height="256" xmlns="http://www.w3.org/2000/svg" fill-opacity="0" stroke="black" stroke-width="3" ><path d="M120 52 151 55 164 59 167 60 169 61 178 69 194 91 194 110 192 159 182 178 180 181 166 192 151 198 136 202 101 202 99 201 80 186 63 155 59 142 59 123 69 85 70 82 83 69 105 54 108 53 119 52 120 52 "/><path d="M249 57 249 180 232 180 224 176 215 165 209 152 208 149 205 109 205 106 208 97 212 87 213 85 223 70 235 60 243 57 249 57 "/><path d="M249 191 249 249 172 249 172 243 173 229 179 218 191 207 195 204 202 199 226 191 247 190 249 191 "/><path d="M55 0 56 4 58 31 57 32 37 43 7 47 5 46 4 45 0 28 0 0 55 0 "/></svg>