<svg width="256" height="256" xmlns="http://www.w3.org/2000/svg" fill-opacity="0" stroke="black" stroke-width="3" ><path d="M118 31 127 32 145 36 177 52 179 55 194 87 196 92 206 130 206 132 190 176 189 178 185 182 169 191 150 201 139 206 130 210 128 210 114 209 87 204 81 202 73 198 65 193 62 191 58 187 53 181 48 173 41 157 31 130 31 126 33 102 45 69 47 65 49 62 55 55 68 42 79 35 82 34 86 33 92 32 105 31 118 31 "/><path d="M46 0 48 9 48 22 46 29 45 31 32 52 30 53 16 58 11 58 5 55 0 52 0 17 5 0 46 0 "/></svg>