<svg width="256" height="256" xmlns="http://www.w3.org/2000/svg" fill-opacity="0" stroke="black" stroke-width="3" ><path d="M143 55 147 56 152 58 162 64 171 70 174 73 184 87 187 92 189 96 190 99 192 108 193 113 193 122 189 142 187 150 185 153 178 162 174 167 170 171 69 249 0 249 0 174 45 104 57 92 77 77 123 52 143 55 "/><path d="M249 76 249 190 240 216 208 222 207 222 195 220 190 214 189 212 189 210 206 110 208 103 210 98 216 89 217 88 237 77 239 76 249 76 "/><path d="M249 0 249 13 206 49 202 48 200 47 170 7 170 0 249 0 "/><path d="M249 249 218 249 216 245 216 242 230 223 249 213 249 249 "/></svg>