<svg width="256" height="256" xmlns="http://www.w3.org/2000/svg" fill-opacity="0" stroke="black" stroke-width="3" ><path d="M133 49 143 51 150 53 163 57 180 70 181 71 189 81 192 85 194 88 196 92 197 96 200 110 200 132 197 142 196 145 190 157 186 163 179 172 176 175 164 185 162 186 113 186 103 184 95 182 70 163 69 162 61 151 59 145 57 133 57 117 59 106 61 96 65 83 66 81 70 75 83 65 88 62 90 61 99 57 127 49 133 49 "/><path d="M65 0 60 13 56 22 54 26 44 44 40 48 30 57 12 63 1 64 0 64 0 0 65 0 "/></svg>