<svg width="256" height="256" xmlns="http://www.w3.org/2000/svg" fill-opacity="0" stroke="black" stroke-width="3" ><path d="M134 53 150 55 154 57 172 71 176 77 179 82 182 88 188 103 191 112 194 123 197 154 197 157 196 159 194 162 187 169 147 200 141 204 137 206 134 207 126 207 117 206 107 204 91 198 85 192 39 139 39 137 62 81 63 79 65 76 69 72 74 68 84 61 92 57 95 56 105 53 134 53 "/><path d="M34 175 40 177 45 179 63 190 66 193 69 197 74 205 80 232 81 246 81 248 80 249 0 249 0 217 3 197 9 189 10 188 16 183 22 179 27 177 33 175 34 175 "/><path d="M249 0 249 92 213 80 211 79 210 78 206 72 187 18 187 13 188 12 199 2 205 0 249 0 "/><path d="M193 195 245 219 249 223 249 249 237 249 194 239 186 236 180 232 177 228 173 213 173 211 178 203 186 198 191 195 193 195 "/><path d="M51 0 25 36 24 37 17 38 0 22 0 0 51 0 "/></svg>