<svg width="256" height="256" xmlns="http://www.w3.org/2000/svg" fill-opacity="0" stroke="black" stroke-width="3" ><path d="M89 59 95 60 98 61 119 71 125 74 130 77 134 80 150 95 152 97 157 103 162 112 168 124 174 145 176 158 176 162 175 177 174 184 168 199 164 207 162 210 156 217 135 238 121 246 97 249 51 249 39 246 25 238 20 235 12 229 3 220 2 218 0 212 0 103 2 95 3 93 8 88 23 75 28 72 43 65 55 61 59 60 70 59 89 59 "/><path d="M240 73 240 84 239 96 216 152 215 154 212 158 211 159 209 159 199 155 198 154 194 148 183 128 167 97 165 84 165 81 167 74 169 69 173 62 176 57 177 56 197 47 202 46 231 42 240 73 "/><path d="M249 191 246 188 241 182 231 151 229 144 228 138 228 136 229 126 234 111 236 109 249 100 249 191 "/></svg>