<svg width="256" height="256" xmlns="http://www.w3.org/2000/svg" fill-opacity="0" stroke="black" stroke-width="3" ><path d="M106 26 132 30 143 32 147 33 150 34 157 38 160 40 168 46 169 47 189 70 197 80 200 85 206 97 209 104 209 106 208 134 203 145 199 152 196 157 194 160 191 164 185 170 178 174 170 177 157 180 149 181 140 181 129 180 118 178 109 175 95 169 68 153 65 151 60 146 52 136 47 121 46 116 45 108 45 94 46 89 48 81 51 72 52 70 66 48 68 46 83 32 87 30 104 26 106 26 "/><path d="M249 0 249 44 246 48 214 61 199 64 198 64 185 61 177 50 176 39 176 11 178 0 249 0 "/></svg>