<svg width="256" height="256" xmlns="http://www.w3.org/2000/svg" fill-opacity="0" stroke="black" stroke-width="3" ><path d="M137 19 146 22 156 26 167 33 195 51 201 55 205 58 210 63 213 67 215 70 218 75 224 86 227 93 231 104 233 112 233 119 232 134 231 143 223 172 221 178 219 181 215 186 203 200 201 202 193 209 187 214 184 216 170 222 165 224 132 233 86 228 83 227 76 224 70 221 60 215 52 207 41 190 38 184 23 150 21 145 18 127 17 112 17 101 18 93 19 91 21 88 44 57 51 52 56 49 67 43 104 25 119 20 124 19 137 19 "/><path d="M5 160 6 162 9 170 11 179 17 241 17 242 12 246 10 247 5 249 0 249 0 156 5 160 "/><path d="M225 230 240 232 243 233 249 242 249 249 192 249 195 241 196 240 201 237 215 232 222 230 225 230 "/></svg>