<svg width="256" height="256" xmlns="http://www.w3.org/2000/svg" fill-opacity="0" stroke="black" stroke-width="3" ><path d="M120 36 152 38 160 41 178 48 182 50 185 53 198 72 204 87 205 90 209 103 216 141 219 162 219 164 205 189 201 196 195 203 179 213 177 214 157 222 144 225 121 225 113 224 106 223 102 222 94 219 84 214 70 203 61 195 56 189 54 186 45 168 41 159 38 151 36 141 35 134 38 122 46 94 52 81 54 78 64 65 68 61 96 43 98 42 106 39 116 36 120 36 "/><path d="M86 0 87 8 87 13 85 19 83 23 78 32 71 38 69 39 62 42 57 43 50 43 46 42 43 41 41 40 30 29 28 25 27 21 26 16 26 8 28 0 86 0 "/><path d="M249 68 249 162 247 162 244 160 234 153 230 150 226 144 224 140 220 128 216 112 216 111 218 102 222 91 229 82 239 72 245 68 249 68 "/><path d="M229 0 243 9 249 21 249 27 245 30 243 31 222 38 204 41 184 41 179 40 176 39 172 37 171 36 145 6 144 3 144 2 160 0 229 0 "/></svg>