<svg width="256" height="256" xmlns="http://www.w3.org/2000/svg" fill-opacity="0" stroke="black" stroke-width="3" ><path d="M181 50 184 53 209 85 210 88 213 99 216 115 216 118 201 176 198 182 190 192 188 194 176 196 168 196 110 190 92 184 74 170 72 168 66 159 56 141 55 131 54 116 54 102 55 73 57 71 75 57 82 56 179 50 181 50 "/><path d="M246 105 249 107 249 192 248 192 240 190 233 188 226 184 220 180 218 178 216 175 212 158 212 145 213 142 220 129 223 125 243 105 246 105 "/><path d="M22 87 25 89 33 96 37 103 39 109 39 118 37 126 33 132 29 136 22 139 16 139 11 138 0 132 0 94 2 90 5 87 15 85 22 87 "/><path d="M49 177 47 183 46 185 44 188 40 193 39 194 36 196 22 197 20 197 9 189 7 186 5 180 7 172 10 164 12 161 17 155 19 154 23 153 31 153 35 155 41 161 49 172 49 177 "/><path d="M39 223 56 228 72 235 79 239 91 247 92 249 12 249 14 239 15 237 18 233 24 227 28 225 35 223 39 223 "/></svg>