<svg width="256" height="256" xmlns="http://www.w3.org/2000/svg" fill-opacity="0" stroke="black" stroke-width="3" ><path d="M140 15 184 38 210 59 211 60 218 69 221 73 228 83 239 111 240 114 241 122 241 139 240 147 237 158 233 168 225 183 220 189 216 193 199 207 185 215 173 219 147 222 144 222 132 219 104 209 96 206 87 202 81 199 75 195 74 194 66 185 61 179 53 169 46 158 43 153 34 128 35 113 38 94 49 70 53 65 65 51 69 47 82 38 85 36 94 32 109 26 139 15 140 15 "/><path d="M6 187 14 195 22 206 23 208 23 223 9 249 0 249 0 196 3 185 6 187 "/></svg>