<svg width="256" height="256" xmlns="http://www.w3.org/2000/svg" fill-opacity="0" stroke="black" stroke-width="3" ><path d="M151 22 160 23 166 25 176 29 183 33 204 59 207 65 211 75 215 90 216 96 217 112 210 131 204 147 201 154 200 156 194 167 189 173 183 180 166 194 156 198 138 200 136 200 130 198 82 180 78 178 69 172 61 164 54 153 51 147 49 138 47 124 49 103 51 88 53 82 58 74 70 59 83 47 96 38 106 33 122 27 138 23 148 22 151 22 "/><path d="M60 194 85 199 93 202 107 210 111 215 119 227 127 240 127 249 4 249 1 245 0 243 0 211 1 210 29 198 44 195 58 194 60 194 "/><path d="M249 0 249 76 241 69 221 49 217 44 215 40 211 31 209 25 208 21 207 16 207 2 208 0 249 0 "/><path d="M249 188 249 249 241 249 240 248 239 246 236 235 235 231 235 227 236 212 237 205 240 193 243 190 246 188 249 188 "/></svg>