<svg width="256" height="256" xmlns="http://www.w3.org/2000/svg" fill-opacity="0" stroke="black" stroke-width="3" ><path d="M249 36 249 153 248 154 247 154 241 152 239 151 189 94 189 80 190 75 225 41 228 39 246 36 249 36 "/><path d="M214 0 232 16 234 18 234 24 233 25 219 38 190 42 188 42 154 36 147 28 147 27 151 17 160 2 161 1 163 0 214 0 "/><path d="M106 25 106 26 54 96 49 99 43 101 41 99 38 95 37 53 37 41 41 37 43 36 47 35 105 25 106 25 "/><path d="M40 108 44 109 45 111 45 114 44 117 25 151 16 156 9 159 0 160 0 147 36 109 37 108 40 108 "/></svg>