<svg width="256" height="256" xmlns="http://www.w3.org/2000/svg" fill-opacity="0" stroke="black" stroke-width="3" ><path d="M153 30 172 32 182 34 190 36 204 40 222 48 228 54 235 64 237 70 238 76 238 88 235 123 223 142 214 154 183 185 171 195 162 202 159 204 157 205 142 210 132 211 114 211 109 210 100 207 93 204 79 196 76 194 72 191 68 187 60 178 56 173 47 155 40 134 44 88 47 81 51 76 64 60 74 50 77 48 93 41 103 37 124 32 144 30 153 30 "/><path d="M249 0 249 48 242 48 239 47 237 46 233 43 223 35 220 31 218 26 216 19 217 1 218 0 249 0 "/></svg>