<svg width="256" height="256" xmlns="http://www.w3.org/2000/svg" fill-opacity="0" stroke="black" stroke-width="3" ><path d="M120 43 144 44 166 49 170 50 173 51 181 59 186 65 194 77 198 85 203 100 204 106 204 111 202 130 201 137 196 155 188 175 185 182 183 186 179 190 170 195 165 196 152 198 113 198 99 195 90 193 73 185 42 154 36 140 28 120 28 101 30 97 36 88 53 70 59 65 73 57 79 54 107 43 120 43 "/><path d="M130 0 130 1 126 6 121 11 117 14 110 18 95 24 75 30 70 31 57 29 43 26 27 21 20 18 4 2 3 0 130 0 "/></svg>