<svg width="256" height="256" xmlns="http://www.w3.org/2000/svg" fill-opacity="0" stroke="black" stroke-width="3" ><path d="M133 43 144 46 158 51 163 54 170 59 192 83 198 99 199 119 193 152 190 161 182 178 173 187 154 192 128 196 106 197 83 197 60 192 56 191 49 188 21 174 9 167 0 157 0 150 3 140 74 60 79 55 82 53 94 46 103 44 126 43 133 43 "/><path d="M9 5 22 13 34 21 40 26 41 27 55 43 57 46 58 48 59 51 59 57 57 67 56 70 51 80 43 92 25 110 16 117 4 124 2 124 0 123 0 9 4 5 9 5 "/><path d="M249 108 249 249 224 249 213 211 211 204 210 199 209 189 209 176 210 164 217 141 219 135 229 123 240 112 246 108 249 108 "/></svg>