<svg width="256" height="256" xmlns="http://www.w3.org/2000/svg" fill-opacity="0" stroke="black" stroke-width="3" ><path d="M149 41 169 45 176 47 182 50 189 55 190 56 214 87 218 95 220 104 221 114 221 131 219 141 218 144 214 154 210 162 204 172 194 185 188 190 176 198 166 202 155 205 150 206 133 209 132 209 122 208 115 207 110 206 101 202 99 201 94 198 91 196 83 189 80 186 67 168 59 152 57 142 57 111 59 101 60 98 62 93 63 91 67 84 71 79 77 72 82 67 89 61 92 59 116 47 123 45 132 43 144 41 149 41 "/><path d="M37 201 64 208 80 216 90 225 91 226 100 242 102 249 28 249 1 228 0 225 0 216 36 201 37 201 "/></svg>