<svg width="256" height="256" xmlns="http://www.w3.org/2000/svg" fill-opacity="0" stroke="black" stroke-width="3" ><path d="M108 10 120 11 124 12 135 17 152 29 153 30 158 37 162 43 166 50 168 54 170 59 172 65 174 72 175 86 175 96 174 108 172 118 168 131 165 138 162 144 159 148 150 158 147 161 140 167 132 172 127 175 121 178 116 180 110 182 100 184 93 185 74 184 62 181 59 180 54 178 50 176 38 168 33 164 27 157 21 149 16 142 14 138 10 126 9 122 7 107 7 90 8 86 13 71 15 66 19 58 23 52 31 41 37 34 38 33 45 27 53 21 57 19 72 13 96 10 108 10 "/></svg>