<svg width="256" height="256" xmlns="http://www.w3.org/2000/svg" fill-opacity="0" stroke="black" stroke-width="3" ><path d="M120 38 126 39 153 50 157 52 164 56 169 60 178 70 189 86 192 91 193 93 196 110 200 133 200 134 198 151 189 172 184 179 175 187 140 203 129 203 118 202 105 200 100 199 93 197 87 195 71 188 65 185 51 172 49 170 45 164 33 142 29 129 29 114 30 103 37 80 41 74 48 66 50 64 66 51 77 45 80 44 85 43 116 38 120 38 "/><path d="M154 212 161 223 168 246 168 249 73 249 76 243 81 234 83 231 89 223 97 216 116 211 152 210 154 212 "/><path d="M231 181 233 182 248 192 249 193 249 249 212 249 211 248 207 234 207 227 219 189 222 184 225 182 227 181 231 181 "/><path d="M16 182 30 185 32 186 38 203 37 211 34 220 27 225 18 231 12 233 9 233 3 231 0 229 0 186 11 182 16 182 "/><path d="M249 82 229 65 228 64 222 48 222 45 248 17 249 16 249 82 "/><path d="M198 0 195 3 142 29 138 29 137 28 137 6 139 2 141 1 148 0 198 0 "/></svg>