<svg width="256" height="256" xmlns="http://www.w3.org/2000/svg" fill-opacity="0" stroke="black" stroke-width="3" ><path d="M139 49 147 51 160 57 168 61 173 64 181 70 182 71 187 77 190 81 192 84 195 89 197 93 199 99 201 118 201 140 198 159 192 176 191 178 185 187 177 195 174 197 168 200 163 202 103 204 94 204 90 203 78 196 73 192 68 187 60 176 57 169 54 160 52 152 51 143 51 140 52 137 66 104 121 50 123 49 139 49 "/><path d="M249 0 249 52 243 52 229 47 224 45 221 42 212 28 210 21 208 13 207 6 207 5 210 0 249 0 "/></svg>