<svg width="256" height="256" xmlns="http://www.w3.org/2000/svg" fill-opacity="0" stroke="black" stroke-width="3" ><path d="M148 69 152 71 157 74 170 84 186 97 188 100 189 103 192 113 194 123 194 126 187 156 178 176 177 177 152 198 137 204 134 204 110 202 107 201 65 179 62 177 61 176 37 148 35 144 33 132 33 127 36 119 42 105 59 81 69 74 72 73 85 69 136 67 148 69 "/><path d="M48 189 89 203 140 232 142 248 142 249 0 249 0 220 2 199 5 195 45 188 48 189 "/><path d="M113 0 114 1 122 13 124 19 124 22 122 30 114 38 110 39 99 41 78 44 75 44 72 43 70 42 64 38 63 37 60 33 52 22 50 18 48 13 46 1 46 0 113 0 "/><path d="M182 202 190 205 192 208 192 215 190 221 188 224 186 226 179 226 144 224 143 223 143 215 163 207 171 204 178 202 182 202 "/></svg>