<svg width="256" height="256" xmlns="http://www.w3.org/2000/svg" fill-opacity="0" stroke="black" stroke-width="3" ><path d="M184 88 185 89 188 94 192 102 193 115 193 121 190 150 188 158 187 161 184 169 183 171 172 182 168 185 159 191 152 195 139 198 108 193 102 190 100 186 96 160 97 157 101 149 106 143 176 88 184 88 "/><path d="M27 152 36 168 40 176 46 189 48 197 48 210 37 236 28 249 0 249 0 145 2 144 27 152 "/><path d="M220 21 246 36 249 49 249 103 241 109 237 111 215 116 212 115 210 113 206 108 198 89 195 79 190 49 190 46 195 35 197 33 210 24 219 21 220 21 "/><path d="M188 0 188 1 186 13 182 17 175 22 167 27 165 28 148 28 146 27 137 20 131 14 129 9 128 6 127 0 188 0 "/><path d="M140 42 145 43 156 48 162 52 170 58 174 62 175 64 179 73 180 76 180 81 179 81 98 70 92 67 91 66 92 51 95 48 97 47 106 44 123 42 140 42 "/><path d="M151 236 151 238 150 246 140 249 83 249 90 242 125 236 148 234 151 236 "/></svg>