<svg width="256" height="256" xmlns="http://www.w3.org/2000/svg" fill-opacity="0" stroke="black" stroke-width="3" ><path d="M143 26 148 27 167 39 171 42 212 75 219 81 220 82 229 92 235 101 237 105 238 109 240 119 240 131 239 137 238 141 237 144 235 147 227 155 214 166 179 195 166 204 145 218 134 224 132 225 129 226 117 227 113 227 105 225 100 223 93 220 72 208 65 203 63 201 51 183 45 170 43 165 42 162 33 131 32 125 32 95 33 88 34 83 36 78 39 72 43 65 45 62 51 54 60 44 64 40 76 34 81 32 123 27 132 26 143 26 "/><path d="M249 0 249 71 245 72 232 72 204 60 194 53 193 52 174 31 165 21 163 16 162 12 162 10 166 1 167 0 249 0 "/><path d="M212 199 226 200 248 202 249 203 249 249 158 249 159 230 166 222 189 201 211 199 212 199 "/><path d="M143 0 141 3 127 17 114 21 103 23 89 23 82 21 73 12 71 9 68 1 68 0 143 0 "/></svg>