<svg width="256" height="256" xmlns="http://www.w3.org/2000/svg" fill-opacity="0" stroke="black" stroke-width="3" ><path d="M131 50 155 54 170 57 180 60 184 62 188 65 191 68 209 89 211 92 214 97 216 101 218 110 218 120 217 134 215 142 206 165 195 179 187 187 179 194 163 202 148 207 137 208 131 208 115 205 102 201 89 195 85 193 81 190 76 185 70 178 67 173 65 169 63 163 54 132 53 128 53 127 54 120 57 104 69 80 91 58 97 56 107 53 122 50 131 50 "/><path d="M212 0 213 3 213 5 212 8 210 12 202 23 195 30 190 33 185 35 173 38 171 38 133 29 127 26 126 25 124 21 123 17 123 16 127 5 128 4 130 3 185 0 212 0 "/></svg>