<svg width="256" height="256" xmlns="http://www.w3.org/2000/svg" fill-opacity="0" stroke="black" stroke-width="3" ><path d="M179 94 180 95 189 113 191 128 191 129 189 148 188 157 186 161 178 167 174 169 168 171 131 181 126 182 124 182 101 181 96 179 80 171 74 165 66 154 58 142 56 135 56 110 60 96 65 84 71 74 74 73 179 94 "/><path d="M199 184 204 186 205 187 206 191 206 194 203 226 202 229 192 249 142 249 129 226 128 224 126 216 126 213 132 201 135 198 144 194 148 193 198 184 199 184 "/><path d="M30 148 32 150 34 153 41 164 44 170 49 187 50 194 50 195 43 213 35 222 32 225 26 228 18 231 0 230 0 147 4 145 20 143 30 148 "/></svg>