<svg width="256" height="256" xmlns="http://www.w3.org/2000/svg" fill-opacity="0" stroke="black" stroke-width="3" ><path d="M115 54 127 56 147 61 149 62 249 124 249 191 150 199 149 199 99 195 85 184 84 183 62 128 60 117 59 109 59 105 61 90 63 84 64 82 66 80 88 62 93 58 99 54 115 54 "/><path d="M21 174 28 177 49 195 52 201 53 207 54 217 55 233 55 244 53 248 52 249 0 249 0 174 6 171 21 174 "/><path d="M231 204 249 205 249 235 218 249 187 249 190 243 210 209 211 208 229 204 231 204 "/><path d="M245 0 249 22 249 68 246 68 224 52 223 45 219 13 219 12 221 10 244 0 245 0 "/></svg>