<svg width="256" height="256" xmlns="http://www.w3.org/2000/svg" fill-opacity="0" stroke="black" stroke-width="3" ><path d="M147 46 148 47 152 53 152 54 69 206 65 207 63 206 58 197 35 133 35 108 38 95 39 91 45 77 51 67 53 64 58 58 89 28 147 46 "/><path d="M40 0 62 8 64 10 72 27 72 29 44 57 41 59 33 62 21 65 15 65 12 64 0 59 0 0 40 0 "/><path d="M167 0 166 2 163 7 155 15 148 20 141 23 134 25 121 25 109 24 104 21 91 8 88 3 87 1 87 0 167 0 "/><path d="M249 0 249 34 243 36 239 36 229 33 225 31 222 29 216 24 209 17 206 12 204 8 203 5 203 0 249 0 "/><path d="M169 136 195 151 201 158 202 160 201 161 171 187 159 193 157 192 143 158 142 155 143 153 162 136 169 136 "/><path d="M1 192 9 193 15 200 18 206 21 217 22 234 22 244 20 246 4 246 0 245 0 192 1 192 "/><path d="M201 79 206 84 210 90 213 102 216 119 216 130 215 135 212 148 210 152 208 154 206 153 203 150 195 86 195 78 201 79 "/></svg>