<svg width="256" height="256" xmlns="http://www.w3.org/2000/svg" fill-opacity="0" stroke="black" stroke-width="3" ><path d="M152 52 158 53 178 64 179 65 192 80 194 83 204 106 205 109 205 112 199 177 197 183 195 186 193 188 185 194 164 206 153 211 151 211 135 208 95 198 85 194 81 192 69 182 67 180 58 165 51 121 51 105 52 103 72 77 76 73 87 63 90 61 95 59 107 55 116 53 146 52 152 52 "/><path d="M43 3 48 5 67 21 68 22 71 26 74 31 75 33 75 34 73 42 70 49 66 55 61 60 50 70 42 76 39 77 31 77 15 76 1 72 0 71 0 3 43 3 "/><path d="M22 169 28 180 28 185 27 188 22 194 21 195 14 201 11 203 2 208 1 208 0 207 0 174 2 173 14 168 19 167 22 169 "/><path d="M249 212 249 240 234 249 211 249 217 233 218 231 220 229 237 217 245 213 248 212 249 212 "/></svg>