<svg width="256" height="256" xmlns="http://www.w3.org/2000/svg" fill-opacity="0" stroke="black" stroke-width="3" ><path d="M119 34 158 37 170 43 171 44 225 135 226 143 226 144 224 155 216 171 212 177 200 187 168 212 166 213 159 215 139 216 117 216 108 214 105 213 81 201 68 191 60 183 56 177 53 172 47 160 46 157 41 140 39 129 39 121 41 109 43 102 45 97 49 89 61 69 69 58 78 49 81 47 95 40 100 38 103 37 114 34 119 34 "/><path d="M68 0 68 2 67 5 58 15 55 17 46 22 37 22 11 16 9 15 9 11 22 0 68 0 "/><path d="M10 63 11 65 29 146 32 166 32 176 30 178 29 178 26 176 24 174 0 80 0 68 6 63 9 62 10 63 "/></svg>