<svg width="256" height="256" xmlns="http://www.w3.org/2000/svg" fill-opacity="0" stroke="black" stroke-width="3" ><path d="M149 29 159 31 165 33 173 37 182 43 189 48 193 51 200 58 205 64 208 69 216 84 228 111 228 129 226 141 223 150 222 152 216 163 207 179 202 186 194 194 174 210 169 213 163 216 159 217 121 226 115 226 109 225 101 223 66 199 54 187 51 183 40 161 38 155 37 150 35 135 34 122 34 114 35 108 36 103 37 99 40 90 44 81 47 76 49 73 54 67 60 61 67 55 79 47 99 37 111 33 133 29 140 28 149 29 "/></svg>