<svg width="256" height="256" xmlns="http://www.w3.org/2000/svg" fill-opacity="0" stroke="black" stroke-width="3" ><path d="M168 37 175 39 181 41 185 43 196 49 205 55 214 64 220 72 222 76 228 93 232 105 234 114 234 115 233 126 232 135 230 146 228 151 222 161 214 170 194 188 191 190 186 191 170 194 164 195 160 195 146 192 122 180 112 173 104 167 93 156 89 151 86 146 80 135 79 133 75 122 74 112 74 103 75 93 77 83 78 80 79 78 83 73 91 64 105 55 135 39 141 37 168 37 "/><path d="M7 100 12 101 19 104 28 109 43 124 46 130 48 135 52 146 54 161 54 166 52 173 51 176 50 178 42 188 14 221 11 222 0 222 0 100 7 100 "/><path d="M126 0 127 1 127 6 123 15 108 41 84 50 81 51 76 51 64 47 43 32 37 3 37 0 126 0 "/><path d="M93 192 94 193 96 199 93 249 23 249 23 246 25 243 41 221 44 217 60 200 65 195 68 193 81 192 93 192 "/></svg>