<svg width="256" height="256" xmlns="http://www.w3.org/2000/svg" fill-opacity="0" stroke="black" stroke-width="3" ><path d="M131 38 145 39 156 41 190 54 192 55 196 61 206 77 210 86 212 91 214 102 216 123 216 127 214 143 212 152 208 164 206 167 203 170 175 196 165 200 121 215 106 220 98 222 88 223 87 223 73 220 69 218 63 214 58 210 49 201 47 198 43 191 42 189 33 169 31 162 30 158 31 133 35 117 40 100 41 97 45 92 46 91 96 48 102 45 109 42 120 39 124 38 131 38 "/><path d="M204 206 208 207 244 231 246 234 249 239 249 249 92 249 96 245 100 243 168 213 174 211 192 206 204 206 "/></svg>