<svg width="256" height="256" xmlns="http://www.w3.org/2000/svg" fill-opacity="0" stroke="black" stroke-width="3" ><path d="M101 126 110 129 155 157 157 159 160 179 160 180 159 182 115 230 114 231 105 237 88 244 44 203 31 186 26 177 24 154 27 142 31 130 33 126 39 119 101 126 "/><path d="M220 103 227 104 249 111 249 191 247 191 237 190 221 187 218 186 208 176 204 171 200 153 197 128 197 125 211 103 220 103 "/><path d="M244 194 249 195 249 249 186 249 186 242 187 231 188 227 190 223 200 209 215 199 224 195 240 194 244 194 "/><path d="M120 21 166 35 168 36 170 39 176 61 179 79 179 81 177 82 161 85 158 85 111 74 107 73 95 68 87 61 85 59 83 55 82 52 85 45 86 44 115 21 120 21 "/></svg>