<svg width="256" height="256" xmlns="http://www.w3.org/2000/svg" fill-opacity="0" stroke="black" stroke-width="3" ><path d="M111 64 132 65 138 66 143 68 149 72 156 78 164 85 166 88 174 101 177 111 178 122 178 126 176 157 174 171 172 176 160 188 157 190 155 191 139 197 132 199 127 200 121 201 120 201 111 199 100 195 95 193 85 184 75 174 47 141 46 139 45 136 45 133 47 123 51 117 69 96 79 86 90 76 99 70 104 67 110 64 111 64 "/><path d="M231 110 242 116 248 120 249 121 249 249 205 249 203 247 185 212 183 208 181 202 180 197 179 191 179 186 181 174 187 141 190 134 191 132 197 122 203 116 210 112 216 110 231 110 "/><path d="M18 159 28 162 31 163 40 168 41 169 53 182 59 191 76 220 78 224 80 230 82 241 82 246 81 249 0 249 0 229 6 167 15 159 18 159 "/></svg>