<svg width="256" height="256" xmlns="http://www.w3.org/2000/svg" fill-opacity="0" stroke="black" stroke-width="3" ><path d="M126 0 143 3 151 5 159 8 167 12 215 49 218 52 224 60 226 64 232 79 234 86 234 160 233 172 232 177 230 182 229 184 220 197 212 206 203 214 197 218 188 223 186 224 176 228 160 234 155 235 134 239 130 239 108 236 102 235 98 234 89 231 76 226 70 223 56 214 53 212 47 205 33 186 19 163 17 156 13 141 12 124 12 112 13 103 15 93 19 81 26 64 29 59 36 48 46 37 74 13 77 11 89 5 110 0 126 0 "/><path d="M241 0 242 1 249 10 249 30 248 31 246 31 234 30 224 27 215 24 202 18 200 17 190 8 185 0 241 0 "/><path d="M62 0 62 9 60 16 58 18 53 22 49 25 46 27 42 29 36 29 29 28 26 26 25 25 16 15 11 8 10 3 10 2 11 0 62 0 "/></svg>