<svg width="256" height="256" xmlns="http://www.w3.org/2000/svg" fill-opacity="0" stroke="black" stroke-width="3" ><path d="M91 38 117 40 144 48 160 53 166 56 168 58 183 75 189 86 192 112 192 113 189 143 188 150 184 159 183 161 181 164 178 167 160 179 119 205 118 205 92 199 76 189 67 179 47 154 42 137 39 107 39 102 43 86 44 84 69 46 76 40 80 38 91 38 "/><path d="M249 61 249 207 237 207 225 200 213 189 205 181 202 176 194 162 192 149 192 146 198 112 202 104 206 98 216 85 226 75 235 68 247 61 249 61 "/><path d="M151 228 153 229 166 236 171 241 174 245 175 248 175 249 120 249 120 248 121 243 122 241 124 238 125 237 129 234 132 232 138 229 141 228 151 228 "/></svg>