<svg width="256" height="256" xmlns="http://www.w3.org/2000/svg" fill-opacity="0" stroke="black" stroke-width="3" ><path d="M172 35 179 37 205 50 219 63 220 64 221 67 228 127 228 133 222 150 208 185 206 189 205 190 187 202 170 208 164 210 156 211 154 211 149 210 143 207 138 204 124 194 116 186 114 183 98 153 91 132 91 118 92 105 94 91 97 80 106 61 108 57 115 49 122 43 126 40 132 37 140 35 172 35 "/><path d="M32 0 47 12 47 57 26 103 25 104 15 104 2 103 0 101 0 0 32 0 "/><path d="M70 231 73 232 81 235 109 246 115 249 80 249 36 238 35 237 35 236 36 234 46 224 70 231 "/></svg>