<svg width="256" height="256" xmlns="http://www.w3.org/2000/svg" fill-opacity="0" stroke="black" stroke-width="3" ><path d="M125 46 147 49 158 53 167 58 175 64 190 76 192 78 197 88 201 97 205 111 206 121 206 122 205 132 197 158 194 165 186 176 185 177 172 189 161 197 159 198 147 201 138 203 126 203 116 201 99 195 71 185 69 184 63 180 60 177 53 168 44 149 35 114 35 113 44 95 48 88 61 71 78 56 89 51 113 46 125 46 "/><path d="M75 195 84 197 89 199 101 205 104 207 116 216 117 217 124 225 130 233 135 243 135 247 133 249 14 249 14 242 16 237 17 235 23 226 26 222 36 209 42 203 47 200 55 196 66 195 75 195 "/><path d="M249 244 244 249 199 249 206 211 209 206 210 205 249 202 249 244 "/></svg>