<svg width="256" height="256" xmlns="http://www.w3.org/2000/svg" fill-opacity="0" stroke="black" stroke-width="3" ><path d="M130 19 149 26 161 31 166 34 177 43 184 49 189 54 193 59 201 73 203 78 209 96 210 101 212 122 212 128 211 139 209 148 180 219 179 221 175 225 173 226 158 229 101 221 90 219 65 208 59 205 37 192 33 187 31 184 21 162 16 150 15 147 13 137 13 104 14 96 17 87 22 76 23 74 32 60 39 52 47 45 51 42 57 38 65 34 74 30 81 27 95 23 115 19 130 19 "/><path d="M249 172 249 235 245 242 244 243 240 246 226 249 215 249 212 247 210 245 208 239 205 229 204 225 215 196 216 194 218 192 235 179 243 173 247 172 249 172 "/></svg>