<svg width="256" height="256" xmlns="http://www.w3.org/2000/svg" fill-opacity="0" stroke="black" stroke-width="3" ><path d="M130 41 142 42 159 46 165 48 180 54 184 56 194 62 200 68 203 72 207 82 208 85 208 87 184 179 179 184 176 186 174 187 163 192 156 195 150 197 144 198 133 199 124 198 116 197 108 195 94 189 82 182 73 173 69 167 64 157 63 154 62 143 62 114 63 106 65 94 70 79 72 75 74 72 80 64 88 56 100 48 112 44 119 42 127 41 130 41 "/><path d="M24 62 28 64 35 70 36 72 37 76 38 114 38 115 37 118 35 121 33 123 3 151 0 150 0 88 3 77 5 73 12 66 17 63 19 62 24 62 "/><path d="M24 143 26 144 28 146 30 149 30 155 29 159 28 161 24 168 20 172 16 175 12 177 0 177 0 165 4 158 7 154 16 146 19 144 21 143 24 143 "/></svg>