<svg width="256" height="256" xmlns="http://www.w3.org/2000/svg" fill-opacity="0" stroke="black" stroke-width="3" ><path d="M128 22 145 23 152 24 164 26 168 28 179 34 186 38 196 50 201 57 214 76 220 91 223 104 224 111 225 125 225 128 224 143 221 158 218 167 216 171 214 174 188 200 180 206 168 213 157 219 149 222 138 221 83 203 79 199 36 152 30 145 29 142 26 131 25 127 24 119 24 110 27 95 31 84 36 74 40 68 43 64 50 57 59 49 63 46 70 41 82 35 90 32 105 27 121 22 128 22 "/><path d="M30 166 71 205 72 206 83 245 83 249 38 249 14 246 0 234 0 172 5 168 13 166 30 166 "/></svg>