<svg width="256" height="256" xmlns="http://www.w3.org/2000/svg" fill-opacity="0" stroke="black" stroke-width="3" ><path d="M133 41 141 42 215 57 221 60 229 65 232 68 233 70 237 80 237 90 231 148 229 161 225 178 223 182 216 193 214 196 205 207 202 210 200 211 185 217 168 221 142 218 80 198 77 197 72 193 62 183 56 175 55 172 54 163 54 162 55 157 56 154 78 95 80 91 90 74 104 54 112 44 114 42 120 41 133 41 "/><path d="M47 222 54 223 76 235 79 237 81 239 82 249 6 249 7 247 14 240 35 224 38 222 47 222 "/></svg>