<svg width="256" height="256" xmlns="http://www.w3.org/2000/svg" fill-opacity="0" stroke="black" stroke-width="3" ><path d="M136 34 154 36 178 40 181 41 194 48 197 50 202 54 216 69 232 94 233 102 234 116 234 147 230 163 218 187 216 189 205 197 200 200 194 203 183 207 177 208 100 217 91 217 79 215 73 212 66 208 61 205 49 194 35 176 33 169 32 153 30 115 32 105 35 98 42 84 44 81 48 76 54 70 72 54 80 51 109 41 132 34 136 34 "/><path d="M128 224 173 239 184 248 185 249 127 249 114 247 113 246 112 237 112 233 114 228 116 226 118 225 122 224 128 224 "/></svg>