<svg width="256" height="256" xmlns="http://www.w3.org/2000/svg" fill-opacity="0" stroke="black" stroke-width="3" ><path d="M141 0 200 51 208 58 222 72 231 85 233 88 236 93 238 100 238 108 216 187 214 191 212 194 208 199 200 207 196 210 189 214 178 220 176 221 171 223 166 224 161 224 156 223 0 189 0 0 141 0 "/><path d="M249 0 249 5 244 43 242 52 239 57 235 58 234 58 232 57 198 34 191 29 176 14 174 8 174 0 249 0 "/><path d="M32 231 39 232 91 248 93 249 2 249 2 247 15 234 18 232 23 231 32 231 "/></svg>