<svg width="256" height="256" xmlns="http://www.w3.org/2000/svg" fill-opacity="0" stroke="black" stroke-width="3" ><path d="M147 33 162 35 165 36 176 40 185 46 197 56 198 57 205 65 221 84 228 94 233 103 236 120 236 145 235 160 231 176 229 179 215 197 213 199 201 207 197 209 186 214 143 233 133 237 123 239 110 241 94 241 86 239 81 237 64 229 46 213 38 205 28 185 26 179 24 169 23 162 23 157 36 87 37 85 44 72 48 67 58 56 62 52 74 44 76 43 88 38 93 36 100 35 125 33 147 33 "/><path d="M249 0 249 4 246 20 240 28 234 34 229 37 223 40 213 41 202 39 199 38 192 35 188 32 179 23 176 14 174 4 174 0 249 0 "/><path d="M193 226 197 228 203 234 204 236 207 244 208 247 208 249 136 249 143 242 157 234 168 229 171 228 179 226 193 226 "/></svg>