<svg width="256" height="256" xmlns="http://www.w3.org/2000/svg" fill-opacity="0" stroke="black" stroke-width="3" ><path d="M101 33 158 39 177 43 192 49 211 63 220 72 224 78 231 89 234 98 234 110 233 129 231 138 229 145 223 162 202 207 201 209 198 214 196 215 148 217 128 217 124 216 97 207 62 183 57 179 52 174 50 171 41 146 34 123 34 112 36 104 44 85 45 83 54 67 57 63 67 53 75 47 93 36 95 35 100 33 101 33 "/><path d="M6 169 26 175 48 186 52 190 58 197 58 203 57 208 41 241 39 244 36 246 30 249 26 249 0 216 0 170 3 169 6 169 "/><path d="M249 155 249 244 217 230 211 224 212 213 216 206 246 155 249 155 "/><path d="M42 19 48 23 50 25 51 27 51 30 50 41 49 44 47 48 0 73 0 31 25 21 34 18 42 19 "/></svg>