<svg width="256" height="256" xmlns="http://www.w3.org/2000/svg" fill-opacity="0" stroke="black" stroke-width="3" ><path d="M153 56 176 63 180 65 199 77 203 81 211 94 204 129 203 132 202 134 177 173 176 174 153 184 101 184 72 168 67 164 66 163 61 152 55 132 55 129 56 107 57 99 64 84 68 77 72 71 78 67 83 65 89 63 96 61 108 58 120 57 137 56 153 56 "/><path d="M4 84 20 89 28 97 30 100 38 121 40 149 40 161 34 173 26 187 23 190 16 193 1 199 0 199 0 84 4 84 "/><path d="M148 0 146 8 139 18 134 24 130 28 126 30 122 30 107 28 96 22 92 17 90 7 90 4 91 0 148 0 "/></svg>