<svg width="256" height="256" xmlns="http://www.w3.org/2000/svg" fill-opacity="0" stroke="black" stroke-width="3" ><path d="M136 46 140 47 148 50 170 63 174 67 182 76 184 79 190 92 195 103 197 109 200 131 200 149 195 169 186 179 176 189 167 195 154 203 148 205 143 206 107 209 106 209 97 206 87 202 85 201 71 188 62 172 61 170 54 150 47 129 47 126 61 91 69 77 88 47 90 45 93 44 136 46 "/><path d="M249 85 249 221 248 221 219 212 215 208 205 189 202 166 202 164 210 128 211 125 215 116 218 110 225 102 227 100 237 92 246 86 248 85 249 85 "/><path d="M160 214 214 225 215 226 219 231 229 246 230 248 230 249 103 249 103 242 116 230 127 220 131 218 134 217 147 214 160 214 "/><path d="M249 0 249 57 245 55 240 51 226 35 207 13 205 9 204 4 204 3 205 0 249 0 "/></svg>