<svg width="256" height="256" xmlns="http://www.w3.org/2000/svg" fill-opacity="0" stroke="black" stroke-width="3" ><path d="M169 54 176 55 238 76 240 77 246 111 246 118 245 127 244 133 242 139 241 141 239 143 228 151 220 156 163 183 147 187 128 190 117 190 105 187 95 183 91 181 89 179 83 167 80 160 75 140 75 128 76 122 87 101 92 92 96 86 105 78 113 73 127 66 156 55 159 54 169 54 "/><path d="M216 184 223 185 236 190 242 198 248 210 249 213 249 249 186 249 183 248 181 247 171 233 171 222 173 211 174 209 181 200 183 198 190 192 199 186 205 184 216 184 "/></svg>