<svg width="256" height="256" xmlns="http://www.w3.org/2000/svg" fill-opacity="0" stroke="black" stroke-width="3" ><path d="M136 66 151 68 156 70 172 78 189 87 239 120 242 122 243 123 246 129 249 145 249 154 246 158 155 238 151 241 143 243 137 244 127 244 124 243 122 242 120 240 73 173 62 152 58 144 56 138 54 130 53 125 53 119 54 113 64 92 66 88 76 78 100 69 116 66 136 66 "/><path d="M232 0 231 2 219 15 213 21 206 26 185 39 182 40 169 44 168 44 141 38 139 37 135 34 130 30 123 22 122 20 116 2 116 0 232 0 "/><path d="M31 193 47 196 57 198 66 206 81 223 89 238 90 240 92 249 32 249 0 227 0 200 3 198 24 193 31 193 "/><path d="M50 0 49 3 46 10 44 14 41 19 31 27 28 28 20 30 14 30 10 29 2 26 0 25 0 0 50 0 "/><path d="M37 87 39 92 39 115 29 122 17 128 15 128 14 127 9 105 8 87 37 87 "/></svg>