<svg width="256" height="256" xmlns="http://www.w3.org/2000/svg" fill-opacity="0" stroke="black" stroke-width="3" ><path d="M139 28 155 30 167 32 191 40 195 42 217 56 231 70 237 78 241 86 243 93 244 99 244 114 243 120 241 127 235 145 231 153 225 164 223 167 220 171 213 176 206 180 204 181 177 191 174 192 167 194 152 197 140 197 123 195 117 194 113 193 103 190 100 189 96 187 88 182 82 177 72 167 66 157 60 146 57 136 50 111 50 96 51 88 52 82 54 78 59 69 61 66 67 58 69 56 81 46 84 44 92 40 108 33 121 30 126 29 135 28 139 28 "/></svg>