<svg width="256" height="256" xmlns="http://www.w3.org/2000/svg" fill-opacity="0" stroke="black" stroke-width="3" ><path d="M145 26 148 27 162 32 166 34 180 45 186 52 188 106 189 155 189 156 187 160 168 185 166 187 138 197 134 198 115 196 90 188 70 173 56 159 50 132 45 85 45 82 75 58 91 47 133 26 145 26 "/><path d="M249 0 249 130 248 130 246 129 242 126 232 117 227 112 210 82 208 77 201 45 200 40 200 39 201 37 224 0 249 0 "/><path d="M22 0 32 20 32 24 31 27 30 29 26 33 23 35 21 36 19 36 13 32 10 28 8 23 2 0 22 0 "/></svg>