<svg width="256" height="256" xmlns="http://www.w3.org/2000/svg" fill-opacity="0" stroke="black" stroke-width="3" ><path d="M174 14 205 35 206 36 210 46 211 49 214 60 215 64 215 68 214 71 166 214 162 220 159 223 148 227 78 249 0 249 0 155 89 45 109 31 121 24 132 20 170 14 174 14 "/><path d="M249 82 249 215 246 215 220 207 216 204 211 200 206 195 196 180 192 161 191 152 193 142 203 121 224 86 246 82 249 82 "/><path d="M86 0 87 26 87 29 86 31 64 56 50 71 47 73 33 57 33 53 54 0 86 0 "/><path d="M29 23 33 27 34 30 34 31 25 56 15 66 8 67 0 63 0 12 1 11 29 23 "/></svg>