<svg width="256" height="256" xmlns="http://www.w3.org/2000/svg" fill-opacity="0" stroke="black" stroke-width="3" ><path d="M110 48 135 49 180 76 187 82 190 85 197 93 198 104 198 105 195 158 193 175 192 178 190 183 189 185 183 191 179 194 84 249 1 249 0 248 0 176 36 93 39 88 43 82 46 78 54 69 61 62 63 61 84 52 98 48 110 48 "/><path d="M248 83 249 84 249 199 244 200 243 200 234 198 230 197 224 195 219 193 208 187 206 185 197 173 197 166 199 124 201 108 202 104 203 102 219 89 226 84 245 83 248 83 "/><path d="M91 0 93 3 93 5 89 15 87 19 76 31 64 38 62 39 50 44 40 45 26 41 17 38 15 37 0 27 0 0 91 0 "/><path d="M212 206 216 207 238 218 245 222 249 226 249 249 199 249 199 227 201 214 204 210 205 209 210 206 212 206 "/></svg>