<svg width="256" height="256" xmlns="http://www.w3.org/2000/svg" fill-opacity="0" stroke="black" stroke-width="3" ><path d="M135 56 151 58 162 63 164 64 178 72 182 76 189 84 191 89 195 102 196 108 197 121 189 144 163 185 161 187 157 189 128 201 124 202 118 203 111 203 98 198 88 192 80 187 70 180 60 171 59 170 55 165 54 163 53 158 53 144 54 131 56 117 57 111 59 102 60 100 68 85 70 82 76 75 77 74 80 72 100 62 110 58 121 56 135 56 "/><path d="M143 0 146 3 157 22 158 24 158 25 149 37 147 39 128 46 125 46 118 44 79 30 77 29 72 26 67 22 66 21 61 5 61 0 143 0 "/></svg>