<svg width="256" height="256" xmlns="http://www.w3.org/2000/svg" fill-opacity="0" stroke="black" stroke-width="3" ><path d="M133 59 141 61 145 63 156 73 159 76 163 81 169 93 175 107 176 110 177 116 178 129 178 130 177 142 175 148 171 157 170 159 168 162 163 169 156 176 144 183 134 188 123 192 106 193 105 193 98 192 80 186 79 184 69 118 68 110 69 106 71 100 74 94 82 86 113 61 127 59 133 59 "/><path d="M226 159 249 170 249 202 241 214 237 219 235 220 203 234 166 246 147 246 145 245 134 235 133 233 129 219 131 215 207 160 213 159 226 159 "/><path d="M249 13 249 113 231 111 220 107 211 102 209 100 194 80 190 72 189 66 189 64 191 60 216 28 221 23 232 17 235 16 246 13 249 13 "/></svg>