<svg width="256" height="256" xmlns="http://www.w3.org/2000/svg" fill-opacity="0" stroke="black" stroke-width="3" ><path d="M176 57 178 58 179 59 181 62 183 123 183 130 180 151 175 158 173 160 122 176 98 177 94 177 50 144 49 139 49 133 51 112 54 100 55 97 57 94 58 93 67 85 75 78 80 74 89 69 109 63 117 61 125 60 173 57 176 57 "/><path d="M191 160 194 162 195 163 213 183 219 190 220 192 220 195 219 199 201 229 195 237 188 240 175 242 169 242 164 241 159 237 153 229 151 225 150 222 149 217 148 211 147 204 147 201 148 193 149 191 160 175 166 168 168 166 172 164 185 160 191 160 "/><path d="M248 87 249 88 249 186 248 187 244 186 241 185 235 182 230 179 221 170 217 165 214 159 211 152 209 139 208 121 208 120 210 116 213 111 218 104 224 98 229 94 239 89 247 87 248 87 "/><path d="M13 230 40 234 48 237 51 239 58 249 0 249 0 232 4 230 13 230 "/></svg>