<svg width="256" height="256" xmlns="http://www.w3.org/2000/svg" fill-opacity="0" stroke="black" stroke-width="3" ><path d="M122 24 163 28 165 29 179 41 180 42 188 66 191 108 186 141 185 144 169 191 167 194 166 195 162 198 159 199 155 199 129 195 87 184 81 178 79 175 55 123 55 118 121 24 122 24 "/><path d="M149 208 185 209 200 211 209 213 238 223 240 225 249 238 249 240 236 249 60 249 60 243 61 235 73 218 76 215 114 211 148 208 149 208 "/><path d="M101 0 99 12 98 16 84 44 76 56 66 66 50 76 18 92 14 93 11 93 7 92 0 88 0 29 46 0 101 0 "/></svg>