<svg width="256" height="256" xmlns="http://www.w3.org/2000/svg" fill-opacity="0" stroke="black" stroke-width="3" ><path d="M132 13 154 15 158 17 188 33 201 43 211 55 214 59 217 64 221 71 222 73 249 139 249 237 231 249 228 249 94 238 88 236 70 227 59 220 41 206 32 194 26 185 20 174 18 168 15 151 13 136 12 119 13 114 16 103 20 89 28 72 38 57 46 48 53 41 77 24 79 23 95 17 99 16 127 13 132 13 "/><path d="M68 0 71 7 71 8 68 14 66 17 58 27 48 33 43 34 23 37 20 37 10 32 5 28 3 25 0 20 0 0 68 0 "/><path d="M218 0 218 2 215 8 212 11 209 13 193 18 190 18 188 17 171 6 169 0 218 0 "/></svg>