<svg width="256" height="256" xmlns="http://www.w3.org/2000/svg" fill-opacity="0" stroke="black" stroke-width="3" ><path d="M130 56 138 57 168 74 182 82 184 85 185 87 193 104 194 108 194 109 191 135 186 152 180 161 154 190 151 193 140 197 138 197 97 192 93 191 90 190 87 188 83 185 73 177 63 165 57 152 53 139 53 133 57 122 71 90 73 86 80 78 84 74 97 64 104 60 123 56 130 56 "/><path d="M121 206 124 207 134 212 136 214 148 230 150 233 151 235 152 239 152 249 82 249 81 247 79 242 79 229 83 221 87 215 90 212 97 208 101 207 117 206 121 206 "/><path d="M3 23 15 29 20 32 27 37 30 40 36 50 35 58 33 65 29 73 23 80 18 85 16 86 2 89 0 89 0 23 3 23 "/><path d="M249 72 249 125 243 123 237 119 234 116 230 110 229 108 229 101 231 92 232 89 235 82 240 77 248 72 249 72 "/></svg>