<svg width="256" height="256" xmlns="http://www.w3.org/2000/svg" fill-opacity="0" stroke="black" stroke-width="3" ><path d="M95 46 162 50 226 79 228 80 249 96 249 149 244 155 171 207 160 214 154 217 144 220 137 220 133 219 84 202 73 198 71 197 59 189 55 185 50 178 44 168 43 166 36 138 35 133 34 125 34 114 37 99 39 92 43 88 91 47 94 46 95 46 "/><path d="M249 192 249 249 207 249 205 247 205 243 207 233 208 229 216 211 225 204 234 198 239 195 248 192 249 192 "/><path d="M91 224 96 228 98 230 100 233 102 243 102 245 100 248 99 249 50 249 45 247 44 245 63 230 69 226 86 224 91 224 "/></svg>