<svg width="256" height="256" xmlns="http://www.w3.org/2000/svg" fill-opacity="0" stroke="black" stroke-width="3" ><path d="M157 65 164 67 173 71 191 89 202 111 211 155 211 156 207 171 206 173 204 176 196 183 185 190 176 195 155 200 152 200 131 199 103 193 81 182 66 173 60 167 60 165 69 122 70 119 82 94 85 91 89 89 148 66 155 65 157 65 "/><path d="M76 0 77 2 78 6 78 12 77 21 75 28 73 33 69 40 64 47 63 48 54 56 48 61 43 63 38 64 27 66 13 66 5 64 0 62 0 0 76 0 "/><path d="M21 190 41 193 44 194 48 196 51 198 57 204 59 207 63 214 64 216 66 221 73 242 74 247 74 249 0 249 0 198 10 192 17 190 21 190 "/><path d="M249 0 249 33 242 36 237 38 234 38 220 37 210 32 199 23 195 19 194 17 190 1 190 0 249 0 "/></svg>