<svg width="256" height="256" xmlns="http://www.w3.org/2000/svg" fill-opacity="0" stroke="black" stroke-width="3" ><path d="M123 40 138 45 147 49 151 51 161 57 169 63 174 69 180 77 182 80 186 89 189 100 190 106 192 122 192 126 190 135 189 139 179 162 173 171 167 178 161 184 155 188 145 193 137 196 134 197 124 200 117 200 99 197 97 196 81 185 80 184 47 137 42 129 42 124 51 71 58 57 82 45 87 43 112 40 123 40 "/><path d="M7 135 12 137 36 171 49 190 49 191 44 197 27 215 15 223 13 224 6 227 2 228 0 228 0 134 7 135 "/><path d="M249 0 249 19 246 25 241 30 238 32 233 34 218 34 212 32 209 30 205 27 203 25 200 21 197 15 196 11 196 2 197 0 249 0 "/><path d="M249 114 249 188 247 188 230 186 229 185 219 161 218 157 218 155 219 148 222 137 227 128 236 118 237 117 248 114 249 114 "/></svg>