<svg width="256" height="256" xmlns="http://www.w3.org/2000/svg" fill-opacity="0" stroke="black" stroke-width="3" ><path d="M249 0 249 190 169 246 164 246 160 244 82 204 72 198 62 191 52 169 49 161 42 141 38 103 38 102 39 83 44 53 45 50 48 46 52 44 57 42 130 14 211 0 249 0 "/><path d="M118 0 118 1 109 14 108 15 99 22 96 24 92 26 87 27 69 30 51 25 43 21 40 19 38 17 31 9 25 2 24 0 118 0 "/><path d="M1 70 21 73 24 76 25 78 23 95 21 106 9 152 6 158 2 159 0 153 0 70 1 70 "/><path d="M1 9 3 10 6 12 18 26 20 30 27 48 27 54 20 59 19 59 5 56 0 49 0 9 1 9 "/><path d="M249 249 229 249 237 217 238 214 241 208 249 202 249 249 "/></svg>