<svg width="256" height="256" xmlns="http://www.w3.org/2000/svg" fill-opacity="0" stroke="black" stroke-width="3" ><path d="M236 0 237 3 237 4 215 110 213 117 209 129 204 139 199 147 190 157 185 161 183 162 87 207 67 208 64 208 48 204 44 202 37 197 30 190 26 182 24 172 23 157 23 151 25 128 31 71 32 63 52 26 55 23 58 21 62 19 103 0 236 0 "/><path d="M234 208 249 242 249 249 144 249 144 247 145 245 162 221 178 210 188 206 207 202 225 200 234 208 "/><path d="M8 201 34 206 57 223 61 227 68 237 71 244 70 246 67 249 0 249 0 203 6 201 8 201 "/><path d="M87 0 82 3 65 11 55 15 44 15 38 14 32 12 24 5 21 0 87 0 "/></svg>