<svg width="256" height="256" xmlns="http://www.w3.org/2000/svg" fill-opacity="0" stroke="black" stroke-width="3" ><path d="M120 61 133 64 140 67 142 68 181 104 187 110 190 114 194 120 195 122 196 127 196 134 195 141 194 143 142 172 137 173 136 173 131 172 88 152 54 108 54 103 55 99 61 87 63 84 66 80 68 78 79 68 82 66 91 62 119 61 120 61 "/><path d="M199 0 227 33 229 47 229 50 227 56 224 62 220 65 208 71 207 71 174 64 166 58 162 53 159 38 157 27 157 25 158 3 159 1 160 0 199 0 "/><path d="M105 0 108 10 104 18 97 28 94 31 87 36 77 40 50 43 46 43 35 41 18 25 16 23 11 5 11 0 105 0 "/></svg>