<svg width="256" height="256" xmlns="http://www.w3.org/2000/svg" fill-opacity="0" stroke="black" stroke-width="3" ><path d="M131 43 145 45 153 47 160 49 171 55 180 61 187 67 188 68 195 77 197 81 201 90 205 104 206 110 207 118 207 129 205 139 203 146 201 152 197 158 189 169 179 182 173 188 160 198 157 200 153 202 148 204 141 206 123 208 118 208 113 207 92 200 76 193 70 189 66 186 62 182 59 178 50 160 44 147 43 140 43 126 44 117 48 103 60 83 67 75 78 64 86 58 91 55 98 51 102 49 111 45 117 44 124 43 131 43 "/><path d="M249 0 249 20 248 29 247 30 240 33 234 35 231 35 215 34 205 32 196 26 189 15 182 1 182 0 249 0 "/></svg>