<svg width="256" height="256" xmlns="http://www.w3.org/2000/svg" fill-opacity="0" stroke="black" stroke-width="3" ><path d="M174 33 196 40 199 41 211 47 217 51 223 56 232 65 237 78 242 96 242 106 240 116 235 131 225 145 216 155 212 159 205 163 196 168 182 175 161 175 154 174 139 171 123 159 120 156 117 152 110 142 102 124 102 109 103 93 104 89 109 75 113 67 117 61 123 53 124 52 139 41 142 40 167 34 172 33 174 33 "/><path d="M12 64 49 76 59 80 63 82 66 84 80 94 82 96 86 116 86 118 54 155 36 162 15 168 10 168 4 167 1 166 0 165 0 78 7 64 12 64 "/><path d="M195 0 199 8 199 10 192 16 162 26 155 28 142 31 133 31 130 29 123 23 120 0 195 0 "/><path d="M34 214 35 215 36 217 36 234 34 240 28 249 0 249 0 192 34 214 "/></svg>