<svg width="256" height="256" xmlns="http://www.w3.org/2000/svg" fill-opacity="0" stroke="black" stroke-width="3" ><path d="M128 49 137 51 143 53 151 57 158 61 161 63 169 71 181 84 182 86 193 117 194 120 195 127 195 158 146 192 132 196 112 196 95 192 88 189 86 188 66 172 63 169 55 150 52 142 51 139 49 132 48 125 48 115 49 108 51 101 53 96 55 92 63 77 67 71 73 65 81 59 84 57 88 55 93 53 99 51 103 50 108 49 128 49 "/><path d="M9 26 16 30 27 39 29 42 34 57 35 77 35 80 34 84 31 91 27 98 1 119 0 119 0 27 7 26 9 26 "/></svg>