<svg width="256" height="256" xmlns="http://www.w3.org/2000/svg" fill-opacity="0" stroke="black" stroke-width="3" ><path d="M131 29 142 32 148 35 163 45 181 65 184 69 197 104 208 136 208 137 206 141 164 194 147 205 142 207 115 207 108 206 95 204 91 203 77 198 61 189 56 186 47 180 40 169 40 123 41 112 42 108 47 99 54 89 59 84 96 50 112 36 116 34 128 29 131 29 "/><path d="M87 0 98 1 99 3 99 14 98 17 94 25 86 38 60 67 58 69 41 76 14 80 7 78 0 68 0 0 87 0 "/><path d="M46 191 70 197 72 198 83 215 84 219 87 232 87 249 8 249 8 247 9 244 26 207 28 203 30 201 37 195 45 191 46 191 "/><path d="M39 139 36 157 34 168 25 190 5 210 3 211 2 209 0 193 0 94 5 97 37 129 38 131 39 138 39 139 "/><path d="M249 197 248 197 245 195 244 194 239 186 236 180 232 163 231 156 234 148 237 142 243 136 247 133 249 132 249 197 "/></svg>