<svg width="256" height="256" xmlns="http://www.w3.org/2000/svg" fill-opacity="0" stroke="black" stroke-width="3" ><path d="M113 38 172 53 177 55 191 69 193 72 195 76 203 96 204 99 204 106 203 120 201 130 197 141 194 149 191 154 185 162 180 168 169 177 163 181 148 188 142 190 130 193 94 193 78 188 66 181 63 178 56 169 48 158 46 155 36 138 31 129 30 127 25 115 30 99 36 86 46 71 52 63 58 57 64 52 66 51 79 45 90 41 97 39 111 38 113 38 "/><path d="M126 205 140 207 151 211 156 213 160 215 166 219 173 224 184 235 187 239 189 243 190 247 190 249 52 249 52 248 54 241 58 235 65 226 78 213 82 211 92 207 104 205 126 205 "/><path d="M20 177 32 178 34 181 35 183 42 198 49 217 49 218 32 244 24 249 0 249 0 178 12 177 20 177 "/></svg>