<svg width="256" height="256" xmlns="http://www.w3.org/2000/svg" fill-opacity="0" stroke="black" stroke-width="3" ><path d="M149 39 161 42 168 44 177 48 200 61 201 62 210 73 220 88 223 93 228 107 229 110 230 117 230 130 229 135 227 142 226 145 224 149 213 166 193 189 179 200 175 203 165 209 161 211 142 218 139 219 134 220 123 219 113 217 99 213 96 212 91 210 75 202 65 195 63 193 56 184 51 176 41 152 40 147 39 133 39 122 40 117 41 113 43 106 46 98 48 93 50 89 56 79 61 73 71 63 80 56 86 53 107 44 113 42 120 40 127 39 149 39 "/><path d="M249 249 148 249 150 246 188 205 240 163 249 158 249 249 "/></svg>