<svg width="256" height="256" xmlns="http://www.w3.org/2000/svg" fill-opacity="0" stroke="black" stroke-width="3" ><path d="M134 42 152 50 155 52 172 69 174 72 180 84 185 100 190 138 190 172 188 179 184 184 173 195 168 198 163 200 145 202 132 203 96 203 78 197 66 188 57 179 44 154 41 144 41 140 42 135 45 124 48 118 82 56 90 48 96 44 99 43 103 42 134 42 "/><path d="M218 86 231 87 236 88 241 90 249 95 249 160 244 163 207 177 205 177 203 175 198 169 196 166 189 122 188 109 188 106 196 95 199 92 204 90 215 86 218 86 "/><path d="M138 0 141 13 130 27 127 30 119 34 90 34 87 33 84 31 82 28 81 26 80 21 78 4 78 3 79 0 138 0 "/><path d="M42 0 42 2 38 29 36 31 27 36 20 37 19 37 14 34 7 26 0 11 0 0 42 0 "/><path d="M249 226 246 223 242 218 239 213 238 211 236 206 235 202 234 194 234 192 235 187 236 184 238 179 239 177 242 172 249 165 249 226 "/></svg>