<svg width="256" height="256" xmlns="http://www.w3.org/2000/svg" fill-opacity="0" stroke="black" stroke-width="3" ><path d="M102 0 98 10 93 17 84 24 74 29 70 30 60 30 52 28 49 27 42 23 29 13 28 12 19 1 21 0 102 0 "/><path d="M160 13 185 22 193 29 196 33 208 50 209 52 209 55 207 67 198 79 197 79 160 38 152 28 151 25 151 22 156 13 160 13 "/><path d="M178 193 187 238 187 243 185 249 163 249 141 231 138 227 134 215 134 214 175 193 178 193 "/><path d="M110 230 116 231 132 235 139 238 145 242 147 244 151 249 66 249 67 246 68 245 79 236 97 230 110 230 "/><path d="M213 123 243 138 248 141 249 142 249 144 242 156 201 166 199 166 199 165 210 123 213 123 "/></svg>