<svg width="256" height="256" xmlns="http://www.w3.org/2000/svg" fill-opacity="0" stroke="black" stroke-width="3" ><path d="M127 0 136 3 249 108 249 186 248 191 247 193 238 202 216 220 192 229 158 229 153 227 143 220 141 218 95 150 93 147 91 141 75 65 74 59 74 58 90 24 92 20 113 0 127 0 "/><path d="M41 188 87 191 95 192 120 197 122 198 124 200 128 207 129 209 130 212 130 219 129 240 128 244 124 249 71 249 4 235 0 234 0 204 2 201 5 198 20 192 33 189 39 188 41 188 "/><path d="M230 0 232 4 245 42 249 54 249 90 239 86 233 83 226 78 202 60 201 59 195 51 194 46 198 30 202 16 203 13 210 1 211 0 230 0 "/><path d="M197 0 197 1 196 3 192 9 183 14 181 15 177 16 172 17 169 17 145 9 139 0 197 0 "/></svg>