<svg width="256" height="256" xmlns="http://www.w3.org/2000/svg" fill-opacity="0" stroke="black" stroke-width="3" ><path d="M135 44 149 48 155 50 160 52 167 56 175 62 188 76 194 85 209 113 213 126 213 143 212 152 211 156 209 163 207 168 203 176 201 179 191 193 189 195 182 200 179 202 175 204 159 210 156 211 151 212 145 213 131 214 128 214 109 210 94 205 89 203 85 201 76 195 66 185 58 173 53 164 52 162 50 157 44 135 43 128 43 115 45 103 46 99 48 93 54 81 56 78 60 73 71 62 84 53 86 52 94 49 97 48 103 47 118 45 126 44 135 44 "/><path d="M249 0 249 41 231 34 223 30 219 27 214 23 204 11 201 3 201 0 249 0 "/></svg>