<svg width="256" height="256" xmlns="http://www.w3.org/2000/svg" fill-opacity="0" stroke="black" stroke-width="3" ><path d="M66 46 164 50 168 51 171 52 177 55 189 63 193 66 221 93 225 101 225 103 223 107 181 189 149 232 144 235 139 236 131 237 124 237 112 236 109 235 107 234 102 231 98 228 97 227 90 218 88 215 66 174 24 72 24 69 32 61 40 55 43 53 48 50 57 46 66 46 "/><path d="M11 166 18 168 26 171 28 172 35 176 38 178 44 183 55 194 61 203 64 212 64 220 63 223 62 225 61 226 57 229 55 230 42 236 26 238 23 238 17 237 0 231 0 169 9 166 11 166 "/><path d="M233 0 236 4 249 28 249 54 244 61 242 63 240 61 238 57 216 0 233 0 "/><path d="M21 95 33 118 27 151 25 151 22 150 20 149 16 146 15 145 12 141 10 138 9 131 9 130 14 98 15 96 17 95 21 95 "/></svg>