<svg width="256" height="256" xmlns="http://www.w3.org/2000/svg" fill-opacity="0" stroke="black" stroke-width="3" ><path d="M117 41 136 42 149 44 156 46 173 54 183 61 195 73 229 122 233 131 235 143 236 151 236 159 235 164 233 168 225 180 219 186 199 200 195 202 181 208 166 213 158 215 133 216 132 216 121 213 105 208 98 205 86 197 70 182 44 141 42 137 41 133 39 93 39 91 40 81 42 75 44 71 50 65 54 63 100 44 113 41 117 41 "/><path d="M248 0 249 6 249 34 248 37 241 41 225 48 220 49 218 49 211 48 196 39 195 38 186 28 184 25 182 17 179 1 179 0 248 0 "/><path d="M92 212 95 214 102 220 103 221 111 232 112 234 113 237 115 245 115 249 53 249 60 235 64 229 74 220 91 212 92 212 "/></svg>