<svg width="256" height="256" xmlns="http://www.w3.org/2000/svg" fill-opacity="0" stroke="black" stroke-width="3" ><path d="M153 59 168 61 183 64 187 67 207 87 209 91 214 103 215 106 217 123 217 125 216 128 212 138 208 145 171 209 167 214 159 219 157 220 144 226 136 226 125 225 118 224 114 223 111 222 102 218 94 212 90 208 87 202 68 145 67 135 67 127 68 116 70 108 72 102 74 98 78 92 81 88 87 82 92 78 96 75 101 72 105 70 120 63 126 61 133 59 153 59 "/><path d="M221 172 227 175 249 188 249 240 241 245 239 246 236 247 227 249 223 249 203 246 199 244 198 243 183 212 183 204 185 199 204 179 210 173 216 172 221 172 "/><path d="M249 3 249 108 244 106 234 100 221 84 218 69 217 49 217 47 219 35 222 25 224 21 230 13 236 7 242 3 249 3 "/><path d="M28 187 36 188 37 189 41 216 41 219 40 221 37 225 34 228 30 230 15 235 8 236 0 236 0 191 27 187 28 187 "/></svg>