<svg width="256" height="256" xmlns="http://www.w3.org/2000/svg" fill-opacity="0" stroke="black" stroke-width="3" ><path d="M127 43 150 49 164 56 166 58 176 69 199 101 199 106 196 129 195 132 183 156 163 171 151 178 126 179 100 171 82 162 72 155 62 147 56 141 46 125 45 123 44 120 39 100 40 90 41 82 46 75 48 73 52 70 72 57 86 50 89 49 116 43 127 43 "/><path d="M47 163 60 168 74 178 98 199 101 202 111 221 114 227 117 235 118 239 120 249 0 249 0 162 1 160 14 158 47 163 "/><path d="M249 129 249 249 172 249 171 245 170 231 170 228 172 213 173 210 181 194 196 166 198 163 200 161 220 143 239 131 241 130 248 129 249 129 "/><path d="M19 0 32 14 33 16 33 21 32 39 31 41 30 42 15 56 14 56 0 51 0 0 19 0 "/></svg>