<svg width="256" height="256" xmlns="http://www.w3.org/2000/svg" fill-opacity="0" stroke="black" stroke-width="3" ><path d="M90 0 126 21 126 23 118 45 108 69 92 90 77 98 73 100 53 106 28 110 20 110 18 109 17 108 0 78 0 47 3 39 14 15 28 3 30 2 35 0 90 0 "/><path d="M161 55 170 57 173 58 178 60 191 66 193 67 196 69 197 70 203 78 207 87 209 94 209 98 171 148 157 155 151 155 106 139 102 129 102 110 110 69 114 60 115 59 135 56 148 55 161 55 "/><path d="M249 163 248 164 243 164 240 162 235 157 234 155 232 149 232 143 233 132 234 130 249 114 249 163 "/></svg>