<svg width="256" height="256" xmlns="http://www.w3.org/2000/svg" fill-opacity="0" stroke="black" stroke-width="3" ><path d="M114 54 128 56 139 60 151 66 154 68 162 74 180 90 181 91 191 108 197 122 194 151 193 159 191 166 187 173 181 183 178 187 166 199 147 208 137 212 134 213 117 213 110 212 96 209 87 207 74 202 69 199 60 191 54 185 42 168 40 164 37 155 36 149 34 129 34 126 35 121 44 93 47 84 52 76 53 75 69 64 72 62 88 55 96 54 114 54 "/><path d="M245 0 247 5 249 11 249 38 239 77 237 81 234 85 233 86 230 88 224 91 215 92 206 86 167 44 167 40 172 34 176 30 215 0 245 0 "/></svg>