<svg width="256" height="256" xmlns="http://www.w3.org/2000/svg" fill-opacity="0" stroke="black" stroke-width="3" ><path d="M148 31 152 32 175 50 177 52 182 58 208 90 216 102 218 109 220 119 220 126 219 131 218 135 206 161 202 166 193 176 190 179 181 187 172 191 160 196 142 196 110 183 108 182 88 171 83 168 71 157 65 151 64 149 61 141 59 127 58 118 58 116 59 113 62 106 67 96 77 80 88 69 129 41 144 32 146 31 148 31 "/><path d="M142 0 142 11 141 17 138 21 136 23 103 48 101 49 93 50 83 51 54 51 23 31 11 15 5 3 5 0 142 0 "/></svg>