<svg width="256" height="256" xmlns="http://www.w3.org/2000/svg" fill-opacity="0" stroke="black" stroke-width="3" ><path d="M229 132 228 135 222 152 221 154 218 159 207 176 196 189 195 190 172 206 160 212 157 212 150 211 134 208 122 205 117 203 68 183 63 180 57 174 52 167 51 165 48 156 39 126 38 119 38 113 39 102 40 97 45 85 51 76 54 72 72 54 100 40 110 36 121 32 124 31 129 31 138 32 168 39 184 49 187 51 208 67 220 87 223 94 229 126 229 132 "/><path d="M73 209 84 210 89 211 92 212 103 216 124 224 139 230 155 243 156 244 156 249 7 249 13 239 20 228 46 212 56 210 67 209 73 209 "/><path d="M249 0 249 35 221 41 215 42 185 42 177 39 172 37 169 35 165 32 163 29 161 24 157 11 155 4 155 0 249 0 "/><path d="M1 87 11 90 14 93 17 101 27 157 27 184 26 185 17 191 0 202 0 87 1 87 "/></svg>