<svg width="256" height="256" xmlns="http://www.w3.org/2000/svg" fill-opacity="0" stroke="black" stroke-width="3" ><path d="M104 54 139 59 170 84 171 85 177 95 186 112 190 144 191 159 190 163 189 166 187 171 186 173 178 185 175 189 173 191 160 201 150 206 141 209 133 211 124 212 122 212 112 211 104 210 101 209 97 207 51 166 49 164 39 137 39 133 42 105 43 100 54 81 55 80 81 61 84 59 98 54 104 54 "/><path d="M72 0 72 23 56 50 54 53 53 54 50 55 27 62 2 62 0 46 0 33 5 20 6 19 20 6 23 4 47 0 72 0 "/></svg>