<svg width="256" height="256" xmlns="http://www.w3.org/2000/svg" fill-opacity="0" stroke="black" stroke-width="3" ><path d="M141 25 146 26 154 28 166 32 171 34 175 36 182 40 185 42 196 52 199 56 202 62 206 73 208 82 209 105 209 108 205 180 204 185 200 194 195 200 194 201 190 204 187 206 182 209 154 220 151 221 141 222 127 222 116 221 105 219 98 217 93 215 81 209 77 206 60 192 51 181 48 177 44 171 41 166 40 164 38 159 37 156 35 148 27 107 27 104 29 96 33 83 35 79 37 76 39 74 91 35 99 30 110 26 116 24 122 23 141 25 "/><path d="M218 209 224 210 244 219 249 224 249 249 207 249 206 247 206 246 211 212 212 210 213 209 218 209 "/><path d="M38 0 38 5 34 15 32 18 29 21 21 28 8 34 0 37 0 0 38 0 "/><path d="M249 106 249 182 246 181 243 177 231 148 231 144 236 121 238 115 242 109 248 106 249 106 "/></svg>