<svg width="256" height="256" xmlns="http://www.w3.org/2000/svg" fill-opacity="0" stroke="black" stroke-width="3" ><path d="M127 42 133 43 140 45 149 49 167 59 171 63 177 70 180 74 183 80 185 85 188 98 199 160 199 164 197 181 195 190 193 196 189 204 185 210 162 224 153 226 146 226 124 221 73 209 45 192 42 190 34 181 22 166 15 140 15 134 16 119 17 113 19 103 23 97 28 91 30 89 46 77 103 45 108 43 117 42 127 42 "/><path d="M239 52 249 57 249 214 235 212 223 207 218 204 217 203 212 197 210 194 193 110 193 99 198 88 200 85 214 66 217 63 232 53 236 52 239 52 "/><path d="M121 0 121 5 119 9 110 21 109 22 84 35 76 38 48 41 45 41 24 38 12 31 8 28 6 26 4 23 2 18 0 12 0 0 121 0 "/><path d="M223 0 222 2 217 7 210 13 206 16 193 25 190 26 180 26 163 20 145 7 145 3 146 0 223 0 "/><path d="M114 229 128 233 131 234 148 242 154 245 159 248 158 249 82 249 82 246 86 241 91 235 92 234 94 233 99 231 110 229 114 229 "/></svg>