<svg width="256" height="256" xmlns="http://www.w3.org/2000/svg" fill-opacity="0" stroke="black" stroke-width="3" ><path d="M136 33 150 35 155 37 170 49 177 59 183 71 194 94 195 116 195 122 193 139 192 144 190 150 186 160 174 184 164 194 160 197 157 199 147 205 138 208 130 210 118 210 110 208 104 206 101 204 87 192 50 158 47 154 34 136 31 129 31 117 34 85 35 80 40 69 43 63 49 57 53 55 120 35 128 33 136 33 "/><path d="M249 205 249 249 139 249 141 245 144 240 153 226 155 223 179 198 181 196 197 188 216 186 249 205 "/><path d="M161 0 160 2 157 5 104 32 78 40 51 44 50 44 37 42 33 40 31 38 28 32 26 27 25 22 24 12 25 8 29 0 161 0 "/><path d="M92 199 102 226 104 232 106 242 105 244 104 245 97 249 4 249 8 241 87 197 92 199 "/><path d="M249 132 249 197 247 197 243 195 236 191 233 189 221 177 220 174 220 163 221 157 223 147 235 135 248 132 249 132 "/></svg>