<svg width="256" height="256" xmlns="http://www.w3.org/2000/svg" fill-opacity="0" stroke="black" stroke-width="3" ><path d="M126 51 130 52 149 58 152 60 162 68 170 75 187 94 194 104 198 110 199 112 200 115 200 126 184 163 183 165 169 192 167 194 150 199 120 203 106 203 95 200 90 197 86 193 79 173 71 115 71 112 72 92 76 69 77 67 85 53 86 52 110 51 126 51 "/><path d="M249 215 248 216 244 219 227 229 224 230 218 230 214 229 197 215 190 206 187 196 187 195 200 148 211 110 213 106 215 104 221 103 230 102 249 100 249 215 "/><path d="M44 0 46 5 48 16 48 26 44 49 43 51 42 52 41 52 0 45 0 0 44 0 "/><path d="M144 0 144 2 142 21 141 23 138 25 134 26 103 28 92 27 85 24 81 22 78 20 74 17 63 5 63 4 67 0 144 0 "/><path d="M211 0 249 3 249 27 234 29 215 29 212 27 191 8 190 3 190 0 211 0 "/></svg>