<svg width="256" height="256" xmlns="http://www.w3.org/2000/svg" fill-opacity="0" stroke="black" stroke-width="3" ><path d="M249 0 249 121 230 155 171 215 170 216 168 216 114 205 97 197 83 190 62 169 47 153 35 137 35 136 40 106 41 102 49 82 51 79 58 72 65 66 91 44 94 42 208 0 249 0 "/><path d="M22 175 26 176 29 177 33 179 122 235 125 247 124 249 0 249 0 178 8 175 22 175 "/><path d="M17 87 24 89 32 102 33 105 33 118 32 125 25 140 18 148 4 162 0 162 0 92 9 86 17 87 "/><path d="M60 0 57 7 56 9 52 13 46 18 42 21 20 33 13 36 1 40 0 40 0 0 60 0 "/><path d="M249 213 249 249 224 249 218 248 208 241 207 240 211 225 212 224 241 201 249 213 "/></svg>