<svg width="256" height="256" xmlns="http://www.w3.org/2000/svg" fill-opacity="0" stroke="black" stroke-width="3" ><path d="M148 0 150 1 197 64 202 73 203 75 207 84 213 114 213 124 211 137 207 156 206 158 202 165 198 170 190 178 173 192 158 199 151 201 143 203 132 204 127 204 114 202 100 198 95 196 93 195 84 190 77 184 41 147 37 141 15 25 15 23 17 13 19 11 34 0 148 0 "/><path d="M5 141 13 144 22 148 31 153 39 159 50 173 53 177 59 189 63 201 66 215 67 222 67 226 55 244 54 245 42 249 0 249 0 141 5 141 "/><path d="M249 194 249 232 247 236 244 238 230 247 216 249 212 249 209 244 211 233 244 196 248 193 249 194 "/></svg>