<svg width="256" height="256" xmlns="http://www.w3.org/2000/svg" fill-opacity="0" stroke="black" stroke-width="3" ><path d="M184 0 195 3 200 5 207 10 226 29 246 59 249 75 249 115 245 123 242 128 238 134 231 144 215 163 198 173 187 179 175 183 127 183 111 175 104 171 99 167 92 161 87 155 71 130 65 120 63 112 63 94 67 66 70 57 73 50 76 44 82 36 99 16 102 13 110 7 113 5 117 3 125 0 184 0 "/><path d="M94 202 116 209 119 211 136 242 137 244 137 247 136 249 41 249 40 240 41 233 42 230 45 224 49 218 50 217 58 210 76 205 92 202 94 202 "/></svg>