<svg width="256" height="256" xmlns="http://www.w3.org/2000/svg" fill-opacity="0" stroke="black" stroke-width="3" ><path d="M127 40 131 41 153 49 177 58 179 59 188 64 192 67 195 70 200 76 210 95 216 111 216 115 214 142 212 153 211 155 205 164 188 181 158 206 140 215 129 217 107 220 95 219 89 218 81 214 73 209 55 195 45 186 41 178 38 170 37 167 35 159 35 145 43 89 61 57 92 46 109 42 124 40 127 40 "/><path d="M241 0 241 1 237 20 236 21 218 34 215 36 200 45 195 45 184 44 169 42 167 41 155 15 155 12 159 0 241 0 "/><path d="M249 200 249 249 173 249 162 245 162 244 178 223 184 217 248 200 249 200 "/><path d="M1 63 6 64 10 65 18 69 20 71 26 81 30 101 30 104 11 149 2 165 1 166 0 166 0 63 1 63 "/></svg>