<svg width="256" height="256" xmlns="http://www.w3.org/2000/svg" fill-opacity="0" stroke="black" stroke-width="3" ><path d="M96 25 102 27 108 30 171 64 181 70 187 77 189 80 202 118 203 121 203 126 201 141 190 171 188 175 185 179 177 187 174 189 169 191 139 195 128 195 107 190 105 189 86 175 82 171 73 161 70 157 68 153 66 147 60 119 58 56 58 52 62 42 63 40 71 33 76 29 79 27 81 26 84 25 96 25 "/><path d="M220 0 185 29 170 27 153 19 151 17 149 14 146 8 146 6 147 1 148 0 220 0 "/><path d="M249 0 249 46 226 61 212 70 210 67 209 60 209 48 220 27 224 21 225 20 248 0 249 0 "/></svg>