<svg width="256" height="256" xmlns="http://www.w3.org/2000/svg" fill-opacity="0" stroke="black" stroke-width="3" ><path d="M8 43 113 55 120 57 127 61 133 65 156 83 158 86 160 90 163 97 169 117 170 121 171 145 171 151 168 161 160 186 154 198 137 215 130 219 126 221 123 222 15 222 5 221 0 214 0 46 7 43 8 43 "/><path d="M249 8 249 147 227 144 220 142 194 134 189 129 184 122 173 85 173 81 177 71 202 35 213 23 220 16 231 12 245 8 249 8 "/><path d="M132 0 131 45 130 47 128 50 127 51 122 53 111 51 98 46 93 43 91 36 90 26 90 24 91 19 95 0 132 0 "/><path d="M47 0 47 18 45 38 23 38 0 28 0 0 47 0 "/></svg>