<svg width="256" height="256" xmlns="http://www.w3.org/2000/svg" fill-opacity="0" stroke="black" stroke-width="3" ><path d="M127 47 136 48 144 50 150 52 160 56 175 66 188 79 192 84 194 87 196 91 202 107 203 115 203 124 202 139 200 150 198 158 196 164 194 168 186 181 183 185 180 188 173 194 170 196 156 203 148 205 126 209 110 209 87 201 79 197 71 192 67 189 60 183 55 177 49 168 47 164 46 159 46 150 47 143 68 77 69 75 73 69 82 60 87 56 95 52 103 50 121 47 127 47 "/><path d="M19 50 34 54 39 56 40 57 40 58 38 93 35 114 28 150 26 157 22 165 18 171 5 184 1 185 0 185 0 55 6 50 13 49 19 50 "/></svg>