<svg width="256" height="256" xmlns="http://www.w3.org/2000/svg" fill-opacity="0" stroke="black" stroke-width="3" ><path d="M113 62 173 64 174 67 174 71 167 218 165 220 163 220 138 207 120 193 117 190 97 168 83 132 81 102 86 83 95 70 101 66 108 62 113 62 "/><path d="M240 62 249 89 249 203 239 208 210 208 202 206 191 195 180 181 175 172 174 170 172 134 177 119 181 108 182 106 183 105 237 62 239 61 240 62 "/><path d="M218 0 220 3 221 6 222 11 223 19 223 24 220 40 216 46 212 50 207 54 203 56 191 60 167 62 165 62 141 56 138 53 135 49 123 19 123 18 127 13 138 0 218 0 "/><path d="M70 233 75 235 86 247 87 249 18 249 51 234 67 233 70 233 "/></svg>