<svg width="256" height="256" xmlns="http://www.w3.org/2000/svg" fill-opacity="0" stroke="black" stroke-width="3" ><path d="M135 49 140 50 152 55 162 61 169 66 176 72 178 74 184 81 188 86 191 90 196 99 198 103 200 108 202 115 204 135 204 143 202 153 200 159 196 167 188 179 185 183 182 186 176 191 169 196 161 201 153 205 147 207 140 209 132 210 112 211 91 211 87 210 84 209 76 205 71 202 61 195 52 186 47 180 43 174 40 169 37 163 33 151 31 139 31 113 33 105 35 98 40 88 50 78 80 57 86 54 92 52 101 50 119 49 135 49 "/></svg>