<svg width="256" height="256" xmlns="http://www.w3.org/2000/svg" fill-opacity="0" stroke="black" stroke-width="3" ><path d="M182 0 205 75 206 79 207 85 208 93 208 95 207 140 205 148 204 150 198 160 195 164 190 170 186 174 174 183 169 186 158 190 149 192 146 192 132 191 117 189 96 185 93 184 84 179 79 176 74 171 68 162 16 72 14 68 14 56 19 21 27 0 182 0 "/><path d="M142 197 153 202 155 203 158 205 169 215 171 219 171 227 169 233 163 247 162 249 70 249 70 244 72 237 78 219 83 208 85 205 86 204 92 199 97 197 105 196 120 195 142 197 "/><path d="M246 46 249 47 249 132 242 127 233 120 228 113 226 110 224 106 221 98 219 90 220 78 223 70 231 55 232 54 240 48 242 47 245 46 246 46 "/></svg>