<svg width="256" height="256" xmlns="http://www.w3.org/2000/svg" fill-opacity="0" stroke="black" stroke-width="3" ><path d="M131 55 156 58 167 60 171 62 177 66 190 75 219 121 221 128 223 139 222 146 220 154 217 163 213 173 201 189 193 197 186 202 175 209 169 211 162 212 154 213 153 213 138 212 127 210 117 208 100 202 94 199 86 191 74 173 72 168 66 152 64 141 64 124 66 113 67 108 71 93 72 91 84 71 89 66 102 59 106 58 116 56 126 55 131 55 "/><path d="M167 0 167 5 165 11 153 39 150 40 126 39 120 37 112 33 110 31 101 18 99 15 91 2 91 0 167 0 "/><path d="M178 228 191 230 193 232 207 249 121 249 121 248 122 246 124 244 133 238 135 237 150 230 163 228 178 228 "/></svg>