<svg width="256" height="256" xmlns="http://www.w3.org/2000/svg" fill-opacity="0" stroke="black" stroke-width="3" ><path d="M112 36 123 40 204 79 210 89 210 139 208 148 206 154 204 157 186 175 162 191 114 202 111 202 101 201 90 199 83 196 12 165 9 163 0 147 0 109 72 57 84 50 110 36 112 36 "/><path d="M129 0 129 2 126 8 124 11 113 23 106 30 100 35 92 39 80 41 69 39 58 34 56 33 48 28 42 24 39 21 37 18 35 13 33 0 129 0 "/><path d="M53 229 61 232 65 234 68 236 70 238 79 248 79 249 19 249 22 242 23 240 26 236 28 234 43 229 53 229 "/></svg>