<svg width="256" height="256" xmlns="http://www.w3.org/2000/svg" fill-opacity="0" stroke="black" stroke-width="3" ><path d="M132 15 152 18 156 20 165 25 175 34 190 49 194 55 199 63 203 72 205 78 206 147 205 153 193 177 181 191 167 205 157 211 141 216 130 219 124 219 104 217 94 213 78 205 72 200 68 196 62 189 46 167 42 157 40 151 38 140 38 128 44 87 52 71 57 62 60 58 67 49 76 39 83 32 88 28 97 22 109 18 131 15 132 15 "/><path d="M249 163 249 249 242 249 237 248 232 246 230 245 226 241 222 235 218 227 215 211 215 210 222 188 224 183 236 166 238 164 241 163 249 163 "/></svg>