<svg width="256" height="256" xmlns="http://www.w3.org/2000/svg" fill-opacity="0" stroke="black" stroke-width="3" ><path d="M148 60 158 62 162 64 165 66 180 78 182 80 186 87 195 116 196 128 196 129 186 171 185 174 167 210 163 213 152 216 142 217 123 217 116 213 108 207 103 203 99 199 68 165 67 163 63 153 60 145 59 140 59 126 60 121 62 117 74 98 76 95 93 74 97 70 113 62 120 60 125 59 132 58 148 60 "/><path d="M65 0 69 3 70 5 71 8 73 17 73 23 72 31 71 35 63 48 61 51 49 61 47 62 14 76 1 81 0 81 0 43 28 5 30 3 34 0 65 0 "/><path d="M49 177 61 182 64 201 62 211 50 242 43 249 0 249 0 234 10 205 19 192 22 188 34 178 48 177 49 177 "/></svg>