<svg width="256" height="256" xmlns="http://www.w3.org/2000/svg" fill-opacity="0" stroke="black" stroke-width="3" ><path d="M132 42 143 44 167 50 170 52 175 56 196 81 197 83 202 98 208 117 208 140 203 156 202 159 194 175 187 185 183 190 178 196 177 197 145 207 134 210 130 211 126 211 116 209 94 199 87 195 80 190 69 181 66 178 60 169 53 158 48 145 45 137 44 131 43 120 43 117 48 87 63 68 72 58 73 57 88 43 96 42 132 42 "/><path d="M242 198 248 204 249 209 249 249 159 249 159 248 162 236 187 207 188 206 240 198 242 198 "/><path d="M5 0 78 3 83 4 81 9 23 84 22 85 6 94 5 94 0 92 0 0 5 0 "/><path d="M219 10 222 12 235 30 236 32 242 45 242 48 239 52 237 53 230 52 197 43 190 36 203 10 219 10 "/></svg>