<svg width="256" height="256" xmlns="http://www.w3.org/2000/svg" fill-opacity="0" stroke="black" stroke-width="3" ><path d="M128 40 134 41 145 43 153 45 168 51 184 63 186 65 196 77 198 82 208 111 210 127 210 133 208 147 207 150 204 158 202 162 194 175 179 190 176 192 164 198 125 207 114 208 113 208 102 206 97 204 53 168 52 167 50 164 47 158 41 137 40 132 39 125 39 120 40 106 45 91 51 81 53 78 66 64 69 61 78 55 85 51 98 45 106 43 117 41 125 40 128 40 "/><path d="M5 201 12 203 18 205 20 206 23 209 26 214 28 218 30 226 30 228 29 236 26 245 25 246 23 247 18 249 0 249 0 201 5 201 "/><path d="M123 229 129 233 133 237 136 246 136 249 91 249 93 244 95 240 97 237 100 233 103 231 107 229 117 228 123 229 "/></svg>