<svg width="256" height="256" xmlns="http://www.w3.org/2000/svg" fill-opacity="0" stroke="black" stroke-width="3" ><path d="M144 18 170 23 173 24 179 28 193 42 203 56 206 61 210 69 212 75 217 93 218 101 218 113 217 123 212 144 210 152 206 161 198 175 184 192 161 207 152 210 147 211 140 212 130 213 115 213 107 211 100 209 97 208 85 201 75 191 67 178 60 166 55 157 53 153 45 135 43 129 40 114 39 108 39 106 40 97 45 75 48 69 54 59 57 55 68 44 77 38 101 26 124 19 129 18 144 18 "/><path d="M1 23 44 41 46 43 50 49 38 77 36 79 23 90 6 97 1 98 0 98 0 23 1 23 "/><path d="M133 0 129 4 124 8 118 12 113 14 105 17 71 25 62 26 59 26 43 22 37 18 30 12 28 9 26 5 25 2 25 0 133 0 "/></svg>