<svg width="256" height="256" xmlns="http://www.w3.org/2000/svg" fill-opacity="0" stroke="black" stroke-width="3" ><path d="M104 19 115 20 177 40 193 87 194 90 195 95 197 107 199 126 199 135 194 151 176 176 174 178 150 200 128 216 121 219 111 222 24 243 14 243 0 242 0 109 41 54 49 45 51 43 65 31 69 28 92 21 102 19 104 19 "/><path d="M249 179 249 245 246 246 211 249 129 249 128 246 128 243 136 221 167 193 170 191 175 188 184 183 186 182 248 176 249 179 "/><path d="M249 0 249 8 215 34 198 37 196 37 168 31 107 8 104 5 103 0 249 0 "/><path d="M6 24 9 28 11 31 17 49 18 72 18 73 6 89 0 93 0 18 6 24 "/></svg>