<svg width="256" height="256" xmlns="http://www.w3.org/2000/svg" fill-opacity="0" stroke="black" stroke-width="3" ><path d="M140 0 225 21 232 23 238 25 243 29 247 33 249 36 249 49 247 63 246 68 245 70 243 73 240 76 184 131 180 134 177 136 161 145 157 147 146 150 145 150 63 119 61 118 58 116 52 105 51 103 50 99 50 94 65 49 85 21 115 4 135 0 140 0 "/><path d="M179 197 188 198 191 199 197 207 199 210 203 217 205 238 205 249 172 249 152 235 148 231 147 228 147 222 149 217 150 215 154 208 156 205 161 200 172 197 179 197 "/></svg>