<svg width="256" height="256" xmlns="http://www.w3.org/2000/svg" fill-opacity="0" stroke="black" stroke-width="3" ><path d="M127 48 139 50 142 51 155 57 158 59 159 60 172 74 176 79 179 84 183 94 188 120 188 141 187 144 184 150 178 161 170 173 165 178 161 181 158 183 147 188 129 192 115 192 97 188 94 187 92 186 87 183 83 180 81 178 75 171 65 156 62 148 59 135 59 109 60 99 62 93 68 77 73 71 80 64 84 61 87 59 92 56 94 55 108 51 124 48 127 48 "/><path d="M1 104 9 115 12 122 14 130 15 135 15 145 14 148 12 153 9 159 5 164 0 169 0 103 1 104 "/></svg>