<svg width="256" height="256" xmlns="http://www.w3.org/2000/svg" fill-opacity="0" stroke="black" stroke-width="3" ><path d="M185 51 197 64 200 69 201 71 202 74 207 90 220 243 220 244 219 249 65 249 64 244 54 124 54 120 55 108 56 104 59 94 60 91 62 87 71 74 84 60 93 55 98 54 104 53 178 51 185 51 "/><path d="M188 0 188 2 186 9 171 30 168 32 160 36 145 42 144 42 119 36 103 15 103 9 105 3 107 0 188 0 "/><path d="M249 122 249 192 247 192 232 182 225 176 222 158 223 149 228 140 234 134 246 123 248 122 249 122 "/></svg>