<svg width="256" height="256" xmlns="http://www.w3.org/2000/svg" fill-opacity="0" stroke="black" stroke-width="3" ><path d="M122 42 147 45 153 46 156 47 164 51 170 56 176 63 180 69 184 77 185 81 198 137 198 143 197 152 191 172 185 186 182 190 174 200 157 210 147 212 133 213 105 206 100 204 96 202 89 198 79 190 75 186 69 179 58 166 52 155 50 151 45 125 45 115 46 104 47 99 51 88 61 73 75 56 80 50 83 47 94 42 97 41 102 40 122 42 "/><path d="M249 48 249 171 246 171 236 166 233 163 218 143 196 86 200 71 201 69 206 61 215 50 220 48 249 48 "/><path d="M238 199 239 200 244 207 246 210 247 212 249 219 249 237 242 249 182 249 175 240 175 228 181 207 186 201 189 199 200 192 224 189 238 199 "/><path d="M49 0 49 3 40 25 39 27 35 34 32 39 29 42 19 48 14 49 3 49 0 48 0 0 49 0 "/><path d="M189 0 181 10 176 15 159 25 151 26 147 26 138 24 133 21 120 13 119 12 112 2 112 0 189 0 "/></svg>