<svg width="256" height="256" xmlns="http://www.w3.org/2000/svg" fill-opacity="0" stroke="black" stroke-width="3" ><path d="M185 12 203 14 214 16 220 18 226 21 232 26 234 28 249 47 249 128 209 162 206 164 189 170 188 170 179 167 146 148 136 142 124 133 123 132 107 100 106 95 105 88 103 71 103 69 109 56 123 40 133 29 134 28 137 26 171 13 183 12 185 12 "/><path d="M37 67 41 68 51 74 54 76 66 92 67 94 70 103 80 149 80 152 78 158 77 160 72 167 71 168 65 173 62 175 28 181 18 181 14 180 11 179 7 175 0 163 0 152 13 81 17 75 18 74 28 68 30 67 37 67 "/><path d="M58 211 68 212 73 215 80 220 82 223 87 233 88 236 88 249 31 249 30 246 30 238 31 232 32 230 38 222 43 217 49 214 54 212 57 211 58 211 "/><path d="M114 0 125 1 129 5 128 7 116 21 110 27 108 28 83 33 82 33 55 31 53 30 45 22 30 1 30 0 114 0 "/><path d="M152 230 158 232 160 233 166 237 169 240 172 244 172 249 111 249 112 245 115 241 120 235 132 230 152 230 "/></svg>