<svg width="256" height="256" xmlns="http://www.w3.org/2000/svg" fill-opacity="0" stroke="black" stroke-width="3" ><path d="M148 42 157 51 193 124 195 137 193 148 191 155 190 157 185 163 182 166 144 185 131 187 111 187 103 185 90 178 89 177 79 166 77 163 76 161 63 131 61 118 60 107 60 102 64 86 65 84 73 70 78 65 87 58 124 35 148 42 "/><path d="M54 0 58 1 59 2 60 4 76 37 76 39 74 42 14 85 11 87 9 88 6 89 3 89 0 88 0 1 1 0 54 0 "/><path d="M242 9 249 12 249 28 236 81 233 86 232 87 224 88 218 88 209 81 203 76 200 73 198 69 197 54 199 45 202 38 240 9 242 9 "/><path d="M29 174 60 194 67 208 68 213 67 236 66 249 0 249 0 188 15 176 21 175 28 174 29 174 "/></svg>