<svg width="256" height="256" xmlns="http://www.w3.org/2000/svg" fill-opacity="0" stroke="black" stroke-width="3" ><path d="M126 27 130 28 133 29 163 41 175 47 181 51 185 54 187 56 192 63 195 69 202 97 204 113 204 139 203 141 201 144 197 149 188 158 185 160 177 164 151 173 148 174 139 175 132 175 123 174 85 165 82 164 77 160 68 152 66 150 56 130 54 123 52 111 51 103 50 90 50 89 55 69 57 64 75 39 76 38 98 27 112 25 126 27 "/><path d="M179 191 196 193 201 194 209 197 213 199 217 202 218 203 225 212 227 215 229 219 231 224 233 231 235 245 235 249 114 249 117 220 118 218 119 217 136 201 165 193 173 191 179 191 "/></svg>