<svg width="256" height="256" xmlns="http://www.w3.org/2000/svg" fill-opacity="0" stroke="black" stroke-width="3" ><path d="M124 36 146 37 167 44 175 47 189 55 204 70 212 82 216 89 220 98 223 121 223 126 221 138 220 143 218 149 212 161 196 183 188 190 185 192 174 198 168 201 163 203 155 206 142 208 127 209 105 209 91 206 85 204 79 201 71 196 62 190 55 185 54 184 44 173 41 168 36 158 34 153 33 150 30 136 29 128 29 121 31 110 34 98 39 87 45 78 53 68 65 56 71 51 74 49 88 42 91 41 99 39 108 37 115 36 124 36 "/><path d="M138 226 144 231 148 235 160 249 71 249 72 248 82 239 88 235 110 229 114 228 123 226 138 226 "/></svg>