<svg width="256" height="256" xmlns="http://www.w3.org/2000/svg" fill-opacity="0" stroke="black" stroke-width="3" ><path d="M176 0 201 3 227 36 228 39 205 162 204 167 200 179 198 182 186 197 174 209 163 215 155 219 148 221 139 222 130 222 112 221 103 219 91 214 73 205 69 201 63 193 44 127 41 115 41 103 85 0 176 0 "/><path d="M3 98 6 101 22 122 24 125 40 152 43 165 44 174 44 180 43 191 37 205 35 209 10 244 8 246 2 249 0 249 0 98 3 98 "/><path d="M94 232 106 245 107 249 30 249 30 245 31 242 33 237 34 235 36 233 41 229 49 224 59 221 78 220 94 232 "/><path d="M249 0 249 40 247 40 233 39 203 3 202 1 202 0 249 0 "/></svg>