<svg width="256" height="256" xmlns="http://www.w3.org/2000/svg" fill-opacity="0" stroke="black" stroke-width="3" ><path d="M145 18 154 19 158 20 176 26 179 28 186 33 200 44 212 56 214 59 216 63 219 75 222 93 223 106 223 114 222 123 220 135 216 147 214 152 203 174 198 181 194 186 189 192 178 200 165 208 163 209 139 219 136 220 128 222 107 222 65 215 51 209 47 207 35 199 34 198 24 186 8 165 0 151 0 94 29 67 40 60 95 27 109 22 115 20 130 18 145 18 "/><path d="M80 0 82 12 81 14 72 27 69 30 55 38 30 52 21 54 20 54 7 52 3 50 0 48 0 15 10 0 80 0 "/></svg>