<svg width="256" height="256" xmlns="http://www.w3.org/2000/svg" fill-opacity="0" stroke="black" stroke-width="3" ><path d="M140 55 159 57 161 58 167 67 185 95 193 108 199 121 199 141 197 145 165 172 163 173 143 174 141 174 129 173 120 168 101 154 95 148 84 132 74 98 70 78 70 76 72 73 74 71 80 67 90 62 98 60 122 55 140 55 "/><path d="M51 160 67 169 72 172 77 177 94 196 110 216 120 238 117 246 96 249 57 249 52 247 50 246 43 239 42 237 34 218 33 212 32 171 32 168 42 160 51 160 "/><path d="M249 0 249 101 245 106 244 107 231 108 230 108 228 107 197 76 195 73 191 61 189 52 189 51 198 19 202 9 203 8 210 2 216 0 249 0 "/><path d="M216 178 223 179 228 180 238 186 243 190 246 193 249 198 249 215 246 227 244 230 238 238 236 240 233 242 226 246 200 246 196 244 186 235 183 232 182 230 179 220 178 215 183 205 190 194 192 191 195 187 200 182 203 180 210 178 216 178 "/><path d="M160 0 164 7 140 25 134 28 128 29 126 29 123 28 119 26 116 24 110 10 111 7 116 3 118 2 129 0 160 0 "/><path d="M104 182 109 183 127 190 138 197 161 213 164 216 158 220 140 224 135 224 129 222 119 215 108 196 104 189 102 185 102 184 103 182 104 182 "/></svg>