<svg width="256" height="256" xmlns="http://www.w3.org/2000/svg" fill-opacity="0" stroke="black" stroke-width="3" ><path d="M150 30 155 31 157 32 165 38 167 40 187 61 191 66 194 71 195 74 198 86 201 103 205 129 205 130 203 145 197 163 196 165 185 184 183 187 177 193 169 199 153 210 143 215 138 217 131 219 119 221 117 221 94 219 70 213 47 202 42 197 26 179 18 167 16 163 14 150 14 123 15 117 16 112 18 106 21 99 22 98 85 49 125 32 141 30 150 30 "/><path d="M245 60 249 62 249 120 244 121 238 121 233 120 226 117 224 116 221 113 218 108 214 99 213 84 213 81 214 76 220 68 225 65 232 62 243 60 245 60 "/><path d="M157 233 162 234 164 235 165 236 169 241 169 246 168 248 167 249 119 249 120 247 124 243 129 240 131 239 149 233 157 233 "/></svg>