<svg width="256" height="256" xmlns="http://www.w3.org/2000/svg" fill-opacity="0" stroke="black" stroke-width="3" ><path d="M128 0 133 1 135 2 141 12 169 65 110 182 107 182 69 175 64 173 37 146 35 143 34 141 33 137 30 1 30 0 128 0 "/><path d="M232 186 235 187 249 192 249 213 200 249 169 249 159 245 158 244 158 242 163 204 164 202 174 192 177 191 227 186 232 186 "/><path d="M218 83 249 88 249 150 240 150 239 149 206 94 206 91 208 84 209 83 211 82 218 83 "/><path d="M241 0 245 2 245 3 231 24 217 38 214 38 210 37 202 34 200 27 198 5 198 2 199 1 203 0 241 0 "/><path d="M1 132 16 145 17 146 19 149 19 153 18 163 16 182 13 186 9 190 6 191 5 191 0 183 0 132 1 132 "/></svg>