<svg width="256" height="256" xmlns="http://www.w3.org/2000/svg" fill-opacity="0" stroke="black" stroke-width="3" ><path d="M149 28 168 29 210 59 219 72 220 74 230 96 231 100 232 106 233 119 233 128 231 140 218 167 215 172 204 185 195 194 189 198 180 201 138 214 120 217 112 217 101 216 91 212 79 206 76 204 66 196 59 189 46 174 40 161 38 153 36 142 36 131 37 120 39 109 40 106 44 95 50 83 52 80 61 68 68 61 82 49 93 41 101 36 106 34 116 31 123 29 139 28 149 28 "/><path d="M206 211 209 212 225 220 226 221 232 230 235 239 237 248 237 249 108 249 108 248 109 246 110 245 127 234 148 221 166 215 203 211 206 211 "/><path d="M223 0 226 5 227 8 227 20 224 26 221 31 217 34 212 37 208 39 200 40 199 40 195 39 190 37 180 29 177 23 176 19 176 13 177 8 181 0 223 0 "/></svg>