<svg width="256" height="256" xmlns="http://www.w3.org/2000/svg" fill-opacity="0" stroke="black" stroke-width="3" ><path d="M214 13 223 18 230 31 237 76 187 174 171 202 153 220 127 229 114 233 113 233 96 232 86 230 67 226 65 224 43 182 40 175 40 149 50 119 64 89 69 83 82 71 86 69 203 13 214 13 "/><path d="M242 149 249 154 249 249 182 249 182 246 184 222 186 214 188 209 198 189 218 161 224 155 227 153 234 150 237 149 242 149 "/><path d="M3 193 11 196 12 197 14 200 41 247 42 249 0 249 0 193 3 193 "/></svg>