<svg width="256" height="256" xmlns="http://www.w3.org/2000/svg" fill-opacity="0" stroke="black" stroke-width="3" ><path d="M176 26 204 35 225 48 229 55 234 65 237 74 240 85 249 166 249 188 246 192 206 237 163 249 139 249 137 248 41 198 38 182 88 65 90 61 95 52 101 45 102 44 116 31 118 30 138 28 166 26 176 26 "/><path d="M130 0 130 1 121 12 48 72 40 78 36 80 33 81 29 82 19 82 18 79 19 77 57 35 61 31 69 26 81 19 116 0 130 0 "/><path d="M210 0 245 31 249 35 249 55 241 53 160 4 156 1 155 0 210 0 "/></svg>