<svg width="256" height="256" xmlns="http://www.w3.org/2000/svg" fill-opacity="0" stroke="black" stroke-width="3" ><path d="M146 8 154 10 160 12 171 18 180 24 190 32 202 47 208 56 218 76 222 87 227 103 227 118 226 135 224 143 220 153 217 158 213 164 208 171 202 177 188 189 181 193 157 205 154 205 128 199 110 189 107 187 96 178 95 177 76 155 68 139 67 136 61 117 59 83 59 77 69 49 73 40 75 37 86 27 103 16 109 13 119 10 126 9 145 8 146 8 "/><path d="M58 0 65 7 70 18 71 24 26 105 24 107 22 108 18 109 12 110 10 110 0 109 0 0 58 0 "/><path d="M249 0 249 60 248 60 232 52 220 27 218 22 215 8 215 6 218 0 249 0 "/></svg>