<svg width="256" height="256" xmlns="http://www.w3.org/2000/svg" fill-opacity="0" stroke="black" stroke-width="3" ><path d="M154 197 173 205 175 206 188 217 190 219 193 224 195 228 196 231 197 236 197 238 192 249 106 249 105 246 103 237 104 235 117 211 130 204 146 197 154 197 "/><path d="M31 181 40 183 47 187 56 196 58 199 59 201 62 210 61 218 59 225 55 230 50 235 46 238 44 239 41 240 34 242 33 242 21 241 18 240 10 234 8 232 4 226 3 224 0 217 0 203 3 196 6 192 11 187 15 184 23 181 31 181 "/><path d="M71 134 167 152 175 162 177 165 179 170 178 172 174 179 173 180 156 188 109 195 103 195 97 193 93 191 79 182 75 178 68 168 64 162 57 149 56 147 53 138 53 136 54 135 58 134 71 134 "/><path d="M7 76 17 77 27 79 29 80 39 87 40 89 41 92 42 109 42 111 41 117 40 120 32 131 28 135 15 146 13 147 4 150 0 150 0 77 6 76 7 76 "/><path d="M249 141 249 189 229 195 228 195 225 194 208 181 208 166 229 144 230 143 241 141 249 141 "/><path d="M187 48 190 49 197 55 205 70 206 72 212 114 211 119 209 128 207 130 194 118 190 114 170 73 170 72 171 70 185 49 186 48 187 48 "/><path d="M148 21 153 22 155 23 164 29 164 31 156 73 153 76 148 77 98 48 97 47 97 45 101 36 102 35 133 22 136 21 148 21 "/><path d="M97 56 108 58 119 63 121 68 121 73 117 81 116 82 109 87 94 91 86 88 83 83 83 82 91 55 97 56 "/><path d="M199 124 200 129 199 144 197 146 185 156 183 157 177 157 167 145 167 144 173 120 199 124 "/></svg>