<svg width="256" height="256" xmlns="http://www.w3.org/2000/svg" fill-opacity="0" stroke="black" stroke-width="3" ><path d="M82 47 154 65 160 67 168 76 175 85 177 89 182 100 186 112 189 141 189 142 182 160 181 162 179 165 176 169 168 178 162 184 159 186 155 188 142 194 129 196 108 197 107 197 88 188 83 184 77 179 69 171 55 152 53 137 53 116 55 103 79 47 82 47 "/><path d="M221 0 209 15 196 28 184 38 178 41 164 44 149 44 141 43 132 41 122 38 117 36 111 33 102 28 95 23 93 21 81 0 221 0 "/><path d="M6 175 28 193 34 198 42 206 46 211 49 215 54 224 59 235 62 244 62 249 0 249 0 175 6 175 "/><path d="M14 0 35 9 48 22 50 26 50 36 48 44 47 47 40 54 29 62 26 64 21 65 18 65 5 60 3 58 0 34 0 0 14 0 "/><path d="M249 17 249 57 248 58 224 63 223 63 216 62 214 58 212 53 210 47 210 42 212 38 216 31 224 22 227 19 231 17 249 17 "/><path d="M249 71 249 111 236 119 228 119 224 118 216 111 214 104 214 102 217 95 221 89 236 75 241 72 247 71 249 71 "/></svg>