<svg width="256" height="256" xmlns="http://www.w3.org/2000/svg" fill-opacity="0" stroke="black" stroke-width="3" ><path d="M114 52 140 55 173 63 237 91 241 95 246 105 249 125 249 180 245 186 241 188 224 194 214 196 100 198 96 198 83 197 71 193 68 191 29 164 29 160 30 150 32 140 55 92 59 85 65 75 73 67 81 63 102 54 107 52 114 52 "/><path d="M205 225 210 226 228 235 234 239 240 245 240 248 238 249 181 249 181 248 185 232 188 229 192 227 201 225 205 225 "/><path d="M148 205 155 206 166 217 168 223 168 227 166 231 163 235 148 235 139 232 138 222 138 218 142 206 143 205 148 205 "/></svg>