<svg width="256" height="256" xmlns="http://www.w3.org/2000/svg" fill-opacity="0" stroke="black" stroke-width="3" ><path d="M140 69 159 79 176 91 181 96 188 118 189 122 185 143 183 147 168 164 167 165 151 174 127 183 102 191 101 191 70 185 64 181 57 175 53 155 50 128 51 125 57 108 59 105 82 85 107 76 139 69 140 69 "/><path d="M249 0 249 17 246 26 242 30 233 36 231 37 222 40 220 40 210 39 202 37 192 34 183 31 176 27 166 15 159 5 158 2 158 0 249 0 "/><path d="M248 204 249 208 249 249 197 249 197 244 207 230 214 221 225 213 239 205 245 204 248 204 "/></svg>