<svg width="256" height="256" xmlns="http://www.w3.org/2000/svg" fill-opacity="0" stroke="black" stroke-width="3" ><path d="M146 48 177 62 192 75 193 76 198 83 218 129 219 133 219 135 212 152 210 156 204 165 196 176 185 187 180 191 172 195 136 208 93 200 89 197 87 195 79 84 79 81 81 77 83 75 129 46 146 48 "/><path d="M249 0 249 7 241 30 239 35 234 40 228 44 225 45 205 51 194 53 190 53 179 51 161 45 144 37 140 35 131 30 128 28 126 25 125 18 125 16 126 13 137 0 249 0 "/><path d="M226 203 234 204 243 213 249 221 249 249 215 249 205 236 198 223 197 220 197 219 205 208 206 207 216 202 226 203 "/></svg>