<svg width="256" height="256" xmlns="http://www.w3.org/2000/svg" fill-opacity="0" stroke="black" stroke-width="3" ><path d="M135 18 145 19 151 20 156 22 167 30 170 33 203 68 210 77 226 101 228 110 238 182 238 186 236 241 233 249 134 249 79 237 57 221 54 218 39 189 34 176 31 165 23 130 21 120 21 117 28 90 34 78 38 72 55 50 70 37 88 28 94 26 101 24 134 18 135 18 "/><path d="M6 172 9 176 11 180 20 202 24 213 26 222 29 236 29 239 28 243 26 249 13 249 0 219 0 166 6 172 "/><path d="M1 67 4 68 6 69 11 72 14 74 17 77 18 79 20 85 20 96 18 104 16 109 13 115 9 118 5 120 2 120 0 115 0 67 1 67 "/><path d="M243 44 248 45 249 46 249 88 246 89 236 86 222 76 220 69 222 65 241 45 242 44 243 44 "/></svg>