<svg width="256" height="256" xmlns="http://www.w3.org/2000/svg" fill-opacity="0" stroke="black" stroke-width="3" ><path d="M145 54 152 55 156 56 159 57 170 62 182 70 184 72 187 76 191 82 198 93 225 139 226 141 230 153 230 155 229 158 220 174 219 175 170 209 164 213 162 214 158 215 147 217 144 217 8 191 8 190 10 140 11 136 13 133 31 109 33 107 52 94 119 57 122 56 132 54 145 54 "/><path d="M249 237 217 248 215 247 214 246 201 228 200 226 199 217 200 210 203 201 204 199 212 185 214 182 231 169 235 166 237 165 249 162 249 237 "/></svg>