<svg width="256" height="256" xmlns="http://www.w3.org/2000/svg" fill-opacity="0" stroke="black" stroke-width="3" ><path d="M140 67 147 69 152 71 165 77 168 80 173 86 178 93 180 96 181 98 182 101 188 124 189 138 189 140 188 146 184 162 180 170 178 173 170 182 160 188 144 194 124 199 101 200 87 200 78 198 75 197 73 196 67 190 65 187 57 171 56 167 49 137 49 127 51 118 53 113 62 94 67 86 71 81 78 74 89 68 103 67 140 67 "/><path d="M88 0 88 9 87 15 86 20 81 28 64 45 61 47 48 53 44 54 31 54 20 51 12 47 0 39 0 0 88 0 "/><path d="M97 219 107 221 140 230 143 231 145 233 152 247 152 249 48 249 47 248 43 241 43 237 45 235 66 222 73 219 97 219 "/><path d="M241 28 249 31 249 70 247 76 243 80 240 82 237 83 233 84 227 84 219 80 213 75 211 72 210 70 208 64 207 60 207 55 209 49 213 38 217 34 223 29 230 28 241 28 "/><path d="M10 129 16 132 24 137 32 147 33 149 34 153 35 166 34 170 32 174 26 182 23 185 16 190 13 191 0 191 0 129 10 129 "/></svg>