<svg width="256" height="256" xmlns="http://www.w3.org/2000/svg" fill-opacity="0" stroke="black" stroke-width="3" ><path d="M249 199 246 200 230 200 223 198 220 197 218 196 211 189 201 174 200 170 200 168 201 156 204 140 209 122 211 119 216 112 218 110 223 107 237 102 249 99 249 199 "/><path d="M249 0 249 48 246 59 242 63 237 65 221 65 201 59 198 57 192 52 186 41 185 38 184 34 183 26 183 21 185 14 194 0 249 0 "/><path d="M74 24 88 26 96 30 111 41 112 43 116 53 116 64 114 71 38 145 27 145 13 138 11 136 0 122 0 49 9 40 30 28 34 27 50 25 65 24 74 24 "/><path d="M116 89 120 91 148 116 149 117 150 120 151 126 153 141 150 163 149 165 146 168 139 169 106 155 86 141 83 133 83 130 95 96 99 92 113 89 116 89 "/><path d="M223 206 249 207 249 249 199 249 198 245 199 234 200 229 201 225 203 221 206 217 210 213 216 208 220 206 223 206 "/><path d="M173 0 173 2 172 8 170 11 163 17 154 23 142 25 132 25 107 20 95 10 89 1 89 0 173 0 "/></svg>