<svg width="256" height="256" xmlns="http://www.w3.org/2000/svg" fill-opacity="0" stroke="black" stroke-width="3" ><path d="M118 48 124 49 137 52 149 55 162 60 178 70 182 73 196 85 203 93 206 98 208 104 208 117 206 122 158 172 151 178 92 202 87 202 79 201 63 194 57 191 44 180 41 177 33 165 27 155 23 147 21 142 19 135 19 129 21 121 60 79 83 58 89 53 93 51 102 49 117 48 118 48 "/><path d="M201 0 202 3 209 32 209 40 208 49 207 50 199 56 197 57 193 58 192 58 110 32 108 31 93 19 89 13 87 6 87 0 201 0 "/><path d="M38 191 42 193 52 199 60 205 62 207 68 216 70 240 70 246 69 249 0 249 0 213 3 207 7 202 10 200 21 193 28 191 38 191 "/><path d="M39 0 38 8 36 19 26 49 23 53 20 55 18 56 15 57 14 57 12 56 0 40 0 0 39 0 "/><path d="M230 41 236 46 238 48 235 60 234 62 228 69 226 71 220 73 218 73 213 72 211 71 208 69 205 66 205 61 208 57 229 41 230 41 "/></svg>