<svg width="256" height="256" xmlns="http://www.w3.org/2000/svg" fill-opacity="0" stroke="black" stroke-width="3" ><path d="M132 41 136 42 139 43 144 45 150 48 161 56 168 63 176 72 179 77 181 81 187 95 191 154 189 161 184 171 172 183 162 190 151 194 138 196 118 196 86 192 78 190 63 181 60 178 51 168 48 164 40 152 38 148 31 89 31 88 35 81 37 78 51 64 66 53 70 51 75 49 104 43 113 42 125 41 132 41 "/><path d="M115 207 132 208 147 210 168 214 171 215 174 217 179 222 184 228 189 235 193 242 194 244 194 247 192 249 80 249 79 245 79 242 80 240 105 207 115 207 "/><path d="M249 65 249 70 228 174 227 177 226 178 215 179 214 179 204 155 204 148 205 122 207 104 220 76 222 73 223 72 246 65 249 65 "/></svg>