<svg width="256" height="256" xmlns="http://www.w3.org/2000/svg" fill-opacity="0" stroke="black" stroke-width="3" ><path d="M126 0 144 19 195 83 202 94 205 148 202 153 201 154 173 179 168 182 162 185 138 195 137 195 122 192 104 187 98 184 88 177 64 156 62 154 53 144 48 138 42 118 41 113 37 35 37 31 39 26 45 18 46 17 68 0 126 0 "/><path d="M36 177 58 179 68 183 115 202 132 221 130 249 19 249 16 246 14 243 12 239 10 226 8 212 8 211 9 205 10 202 15 192 27 180 33 177 36 177 "/><path d="M249 0 249 31 230 42 226 44 221 46 210 35 203 27 201 23 200 20 200 18 201 15 203 10 212 0 249 0 "/><path d="M244 220 249 223 249 249 212 249 203 242 203 235 204 232 205 230 211 223 213 222 222 219 236 218 244 220 "/></svg>