<svg width="256" height="256" xmlns="http://www.w3.org/2000/svg" fill-opacity="0" stroke="black" stroke-width="3" ><path d="M181 10 198 25 213 42 215 45 219 53 219 70 213 102 212 105 206 117 200 127 191 139 190 140 185 144 176 150 168 155 162 156 127 159 121 159 81 149 70 144 68 142 54 122 44 98 42 86 42 76 45 65 54 45 66 28 73 21 78 20 178 9 181 10 "/><path d="M173 172 187 175 192 177 193 178 197 189 198 197 199 247 199 249 71 249 71 247 72 239 78 223 91 204 94 200 108 189 114 185 133 178 142 175 146 174 162 172 173 172 "/><path d="M52 0 53 1 55 4 55 5 53 9 23 58 10 61 9 61 3 60 0 59 0 0 52 0 "/><path d="M249 214 243 214 242 213 229 196 224 154 229 148 230 147 233 145 244 139 249 137 249 214 "/><path d="M249 0 249 24 247 25 243 26 237 26 226 24 223 23 217 20 209 15 192 0 249 0 "/><path d="M249 68 249 116 246 116 241 115 237 114 233 112 226 105 223 101 222 95 222 91 223 86 224 83 226 79 230 75 235 71 239 69 244 68 249 68 "/></svg>