<svg width="256" height="256" xmlns="http://www.w3.org/2000/svg" fill-opacity="0" stroke="black" stroke-width="3" ><path d="M132 70 184 84 193 93 200 103 209 136 210 144 210 147 199 176 197 181 191 190 189 192 165 208 143 216 127 220 98 224 60 152 60 151 61 148 69 130 74 119 77 115 91 101 113 80 130 70 132 70 "/><path d="M9 143 13 145 19 153 31 170 32 172 33 189 33 195 32 202 31 207 30 211 28 216 19 227 13 233 0 232 0 144 8 143 9 143 "/><path d="M77 0 78 2 84 29 82 31 80 32 70 35 68 35 33 31 28 28 12 9 11 0 77 0 "/></svg>