<svg width="256" height="256" xmlns="http://www.w3.org/2000/svg" fill-opacity="0" stroke="black" stroke-width="3" ><path d="M150 64 167 66 187 80 197 90 204 99 205 101 205 110 203 123 172 180 154 198 88 218 85 218 82 217 78 215 58 203 55 200 43 185 32 167 30 162 29 157 28 150 28 134 30 125 34 111 46 92 61 77 65 74 70 71 72 70 81 68 104 65 115 64 150 64 "/><path d="M185 214 209 233 219 243 223 249 104 249 100 246 109 227 113 223 122 219 131 216 142 213 185 214 "/><path d="M241 30 244 34 245 36 245 39 234 61 229 66 225 66 210 64 206 63 204 62 199 54 197 46 197 44 200 36 214 12 241 30 "/></svg>