<svg width="256" height="256" xmlns="http://www.w3.org/2000/svg" fill-opacity="0" stroke="black" stroke-width="3" ><path d="M119 60 136 64 150 71 166 87 170 93 172 97 175 104 177 110 180 121 182 130 182 142 180 154 178 159 176 163 152 199 148 203 145 205 132 213 126 215 114 217 108 216 103 215 89 207 59 189 51 181 47 176 45 173 39 162 37 158 33 145 31 134 32 113 33 109 35 104 37 100 55 78 56 77 74 67 76 66 81 64 104 60 119 60 "/><path d="M232 192 240 193 246 196 249 199 249 249 186 249 185 247 184 242 184 241 186 232 189 220 190 218 191 217 207 203 226 193 230 192 232 192 "/><path d="M195 0 188 5 182 9 178 11 172 13 149 20 145 21 139 21 96 13 87 11 83 9 81 7 77 0 195 0 "/></svg>