<svg width="256" height="256" xmlns="http://www.w3.org/2000/svg" fill-opacity="0" stroke="black" stroke-width="3" ><path d="M167 37 168 39 180 103 180 122 179 130 168 194 161 202 101 221 100 221 97 220 63 175 61 172 60 170 59 162 59 158 84 73 86 71 110 54 134 41 138 39 142 38 152 36 162 35 167 37 "/><path d="M7 116 9 117 13 121 28 145 31 151 35 166 37 181 37 188 30 202 13 231 11 234 6 238 0 240 0 124 5 116 7 116 "/><path d="M249 235 241 236 231 233 207 217 206 216 205 213 202 201 202 199 242 144 249 136 249 235 "/></svg>