<svg width="256" height="256" xmlns="http://www.w3.org/2000/svg" fill-opacity="0" stroke="black" stroke-width="3" ><path d="M177 45 180 47 191 102 198 146 198 153 195 158 179 176 167 188 58 229 54 225 53 222 42 120 42 110 43 105 44 101 61 71 66 64 71 59 86 48 94 43 119 32 123 31 147 30 177 45 "/><path d="M6 105 11 106 20 111 23 115 28 123 36 139 37 144 38 152 38 154 37 163 33 190 32 194 29 203 25 208 23 210 18 213 14 215 11 216 9 216 3 215 0 214 0 106 4 105 6 105 "/><path d="M249 0 249 77 228 73 217 68 205 62 200 55 197 44 197 34 199 28 204 18 206 15 210 11 222 2 226 0 249 0 "/><path d="M198 0 199 4 199 7 198 13 193 23 187 28 180 32 172 35 169 35 154 27 151 25 149 23 145 17 144 14 143 9 143 0 198 0 "/></svg>