<svg width="256" height="256" xmlns="http://www.w3.org/2000/svg" fill-opacity="0" stroke="black" stroke-width="3" ><path d="M210 0 211 127 211 133 210 153 204 179 187 202 182 207 166 221 156 228 151 231 101 249 19 249 0 51 0 46 171 0 210 0 "/><path d="M249 47 249 135 248 135 241 128 232 115 229 99 228 93 229 77 231 68 232 65 246 49 248 47 249 47 "/><path d="M30 0 31 3 31 18 20 33 17 35 10 39 9 39 0 37 0 0 30 0 "/><path d="M95 0 94 2 87 12 74 22 72 23 56 29 46 16 43 11 42 9 42 8 49 0 95 0 "/></svg>