<svg width="256" height="256" xmlns="http://www.w3.org/2000/svg" fill-opacity="0" stroke="black" stroke-width="3" ><path d="M132 42 138 43 154 48 157 49 173 57 178 61 181 65 197 87 199 90 200 93 204 107 204 118 203 124 201 135 197 146 182 164 137 211 129 218 123 222 117 224 113 225 106 226 104 226 94 224 74 214 63 207 57 202 52 197 42 184 37 177 35 174 32 169 28 156 27 149 27 146 28 140 41 87 47 78 48 77 51 75 57 72 101 51 109 48 128 42 132 42 "/><path d="M246 141 249 142 249 249 160 249 158 247 147 219 146 216 146 215 147 213 174 174 207 150 220 144 223 143 230 141 246 141 "/><path d="M19 0 48 14 49 15 49 16 45 32 43 35 42 36 35 40 33 41 18 42 16 42 13 41 7 37 0 32 0 0 19 0 "/><path d="M1 61 7 68 11 74 16 94 16 105 15 113 13 119 8 127 0 135 0 61 1 61 "/><path d="M103 0 103 1 101 4 91 14 89 15 82 18 77 20 75 20 69 19 60 17 58 15 57 10 57 8 59 0 103 0 "/></svg>