<svg width="256" height="256" xmlns="http://www.w3.org/2000/svg" fill-opacity="0" stroke="black" stroke-width="3" ><path d="M113 35 115 36 127 47 129 49 130 51 143 152 143 154 117 188 115 190 114 190 90 185 89 184 40 126 32 107 30 98 30 93 33 83 42 59 43 58 63 39 71 34 101 31 113 35 "/><path d="M82 0 82 2 76 21 74 23 52 36 28 50 23 52 22 52 20 51 9 16 7 6 7 0 82 0 "/><path d="M183 0 184 2 184 5 181 17 179 21 177 24 175 25 168 28 154 31 153 31 146 30 114 21 112 20 103 12 98 7 95 2 95 0 183 0 "/><path d="M249 21 249 99 246 104 235 110 234 110 232 108 227 102 225 98 224 95 222 82 221 48 221 41 222 39 232 27 236 25 248 21 249 21 "/></svg>