<svg width="256" height="256" xmlns="http://www.w3.org/2000/svg" fill-opacity="0" stroke="black" stroke-width="3" ><path d="M169 3 172 4 174 5 179 9 216 41 243 68 249 75 249 140 239 167 223 188 203 210 201 212 193 218 183 223 174 227 169 229 165 230 147 234 135 235 133 235 124 234 108 232 104 231 99 229 87 224 83 222 76 218 64 210 52 200 50 198 43 189 41 186 34 175 31 170 22 152 20 146 18 139 16 124 16 103 17 97 20 85 22 79 29 65 36 53 49 36 56 30 62 26 79 15 86 11 88 10 104 3 169 3 "/><path d="M249 0 249 43 242 43 233 41 225 38 202 22 200 20 197 15 196 13 194 8 192 2 192 0 249 0 "/></svg>