<svg width="256" height="256" xmlns="http://www.w3.org/2000/svg" fill-opacity="0" stroke="black" stroke-width="3" ><path d="M124 49 129 50 141 54 143 55 175 77 180 81 185 86 191 94 193 98 196 105 198 111 199 116 200 123 200 139 199 144 198 148 195 154 190 162 188 165 180 173 171 177 137 191 113 191 108 190 105 189 100 187 96 185 75 173 68 167 59 159 55 155 48 145 46 141 41 129 40 125 40 109 41 104 44 97 45 95 49 88 59 77 65 71 73 65 81 60 88 56 90 55 93 54 111 50 119 49 124 49 "/><path d="M20 156 27 158 64 186 72 200 77 214 78 217 80 231 81 245 77 249 0 249 0 160 6 158 17 156 20 156 "/><path d="M164 202 202 227 203 228 203 229 197 247 196 249 92 249 91 248 91 241 93 237 106 216 133 203 142 202 164 202 "/></svg>