<svg width="256" height="256" xmlns="http://www.w3.org/2000/svg" fill-opacity="0" stroke="black" stroke-width="3" ><path d="M240 0 240 4 216 159 214 164 204 187 203 188 196 194 188 198 185 199 97 207 90 207 69 199 45 177 38 163 34 153 32 144 31 128 32 111 33 104 40 90 46 80 126 0 240 0 "/><path d="M73 0 73 33 70 41 69 43 66 46 61 50 57 52 50 55 43 57 39 57 33 55 26 50 24 48 23 46 21 41 21 33 24 0 73 0 "/><path d="M249 235 247 235 233 229 226 223 225 222 219 215 218 213 213 202 211 196 211 193 212 186 222 166 231 156 246 148 249 147 249 235 "/><path d="M147 222 168 227 195 236 198 239 206 249 112 249 118 243 142 223 145 222 147 222 "/></svg>