<svg width="256" height="256" xmlns="http://www.w3.org/2000/svg" fill-opacity="0" stroke="black" stroke-width="3" ><path d="M180 28 206 47 236 70 245 79 246 81 249 96 249 101 229 136 227 139 222 145 199 159 154 172 83 156 76 151 71 147 69 145 65 139 58 122 57 118 57 96 59 79 61 77 117 36 150 29 155 28 180 28 "/><path d="M85 201 91 202 148 229 154 243 153 248 152 249 39 249 39 248 42 222 43 220 61 198 85 201 "/><path d="M249 190 246 195 245 196 237 203 214 211 208 211 198 207 167 183 165 181 249 152 249 190 "/><path d="M5 183 11 189 12 191 15 198 17 203 17 216 15 236 14 239 7 249 0 249 0 179 5 183 "/></svg>