<svg width="256" height="256" xmlns="http://www.w3.org/2000/svg" fill-opacity="0" stroke="black" stroke-width="3" ><path d="M162 46 163 47 211 119 225 142 231 159 233 165 233 182 230 197 229 201 227 207 222 217 217 223 212 228 208 231 205 233 194 238 191 239 185 240 137 238 134 237 128 234 46 182 40 178 38 176 36 173 35 171 32 164 32 157 89 84 90 83 102 75 143 48 147 46 162 46 "/><path d="M83 41 84 42 85 45 86 49 58 103 39 132 35 137 30 137 28 130 27 121 28 115 32 93 34 85 38 71 40 65 42 61 45 56 53 48 56 46 64 42 69 41 83 41 "/><path d="M73 226 84 227 93 230 97 233 104 249 50 249 50 242 52 240 67 227 71 226 73 226 "/></svg>