<svg width="256" height="256" xmlns="http://www.w3.org/2000/svg" fill-opacity="0" stroke="black" stroke-width="3" ><path d="M148 46 153 47 168 52 174 55 176 57 186 69 189 74 206 107 211 117 214 127 214 129 213 141 208 168 205 176 204 178 198 187 190 195 179 204 176 206 174 207 170 208 117 208 79 190 69 184 63 179 60 176 55 168 53 164 52 161 51 157 51 148 53 128 57 105 58 102 60 98 67 88 69 86 118 51 122 49 129 47 136 46 148 46 "/><path d="M102 21 110 23 114 27 116 30 117 32 118 36 117 43 116 47 114 49 104 58 85 64 81 64 75 62 73 61 66 56 63 52 59 43 59 42 76 27 89 21 102 21 "/><path d="M249 0 249 76 248 76 246 75 230 61 226 33 225 21 225 20 227 15 228 13 233 4 237 0 249 0 "/></svg>