<svg width="256" height="256" xmlns="http://www.w3.org/2000/svg" fill-opacity="0" stroke="black" stroke-width="3" ><path d="M129 0 145 3 174 19 186 28 205 47 207 51 219 95 221 105 220 109 219 112 209 131 205 137 163 179 161 180 135 189 131 190 33 172 22 168 17 166 13 164 11 161 5 149 0 125 0 42 5 33 13 23 27 11 30 9 35 6 37 5 42 3 51 0 129 0 "/><path d="M249 136 249 236 248 238 218 242 213 242 210 240 202 230 201 228 198 219 198 207 199 202 228 148 231 144 232 143 242 137 247 136 249 136 "/><path d="M249 0 249 26 245 27 229 27 226 26 221 24 220 23 214 12 208 0 249 0 "/></svg>