<svg width="256" height="256" xmlns="http://www.w3.org/2000/svg" fill-opacity="0" stroke="black" stroke-width="3" ><path d="M249 0 249 78 212 192 210 194 201 200 193 204 188 206 154 212 131 212 113 208 98 203 83 196 77 192 57 174 47 150 43 140 43 118 45 108 59 63 97 3 99 0 249 0 "/><path d="M6 180 14 181 22 183 31 186 48 197 64 213 71 221 74 226 76 230 78 238 78 241 77 245 74 249 0 249 0 180 6 180 "/><path d="M154 225 187 233 197 237 198 238 200 241 200 244 195 249 100 249 101 247 105 244 108 242 110 241 152 225 154 225 "/><path d="M19 0 24 27 24 32 23 36 5 78 2 84 0 86 0 0 19 0 "/><path d="M38 13 43 33 44 44 41 61 37 75 34 81 33 81 32 80 25 67 22 55 22 51 26 23 31 17 34 14 36 13 38 13 "/><path d="M31 93 32 94 28 107 26 113 21 123 16 130 10 138 9 139 1 139 0 138 0 128 5 110 6 107 9 99 10 98 19 94 26 93 31 93 "/></svg>