<svg width="256" height="256" xmlns="http://www.w3.org/2000/svg" fill-opacity="0" stroke="black" stroke-width="3" ><path d="M144 45 154 47 157 48 178 59 193 74 201 86 203 96 205 108 205 110 203 125 198 144 191 154 170 183 167 187 154 198 134 208 120 210 117 210 101 208 94 207 84 203 78 200 69 194 56 182 52 176 44 163 36 140 36 129 37 114 38 111 39 109 68 70 74 63 77 60 87 55 98 50 125 45 144 45 "/><path d="M249 129 249 249 230 249 184 246 174 197 174 194 175 192 187 172 193 164 200 156 202 154 210 147 214 144 217 142 224 138 230 135 239 131 243 130 248 129 249 129 "/><path d="M249 0 249 58 246 60 242 60 216 57 214 56 203 47 191 35 180 23 176 17 175 15 174 5 175 0 249 0 "/></svg>