<svg width="256" height="256" xmlns="http://www.w3.org/2000/svg" fill-opacity="0" stroke="black" stroke-width="3" ><path d="M142 30 154 32 165 35 172 38 174 39 185 46 189 49 197 57 206 67 216 80 218 84 220 91 220 98 219 122 217 131 214 142 213 145 208 158 200 171 190 187 184 195 176 204 172 207 157 215 139 215 115 208 109 206 101 202 87 194 75 187 70 184 64 178 56 168 53 163 52 161 49 154 49 130 54 90 56 85 62 71 64 67 72 55 77 48 84 41 90 37 95 34 99 32 108 30 142 30 "/><path d="M36 28 44 42 47 98 47 104 46 127 45 131 37 141 29 149 16 160 2 155 0 154 0 18 8 16 36 28 "/><path d="M15 223 17 224 27 231 28 232 30 235 34 244 36 249 0 249 0 218 15 223 "/></svg>