<svg width="256" height="256" xmlns="http://www.w3.org/2000/svg" fill-opacity="0" stroke="black" stroke-width="3" ><path d="M123 55 130 56 143 59 157 66 169 73 189 105 191 113 191 116 186 145 183 155 181 159 178 164 176 166 166 175 162 178 153 182 147 184 146 184 122 180 81 172 77 169 74 166 57 125 54 117 54 111 56 103 58 99 60 96 67 87 70 84 106 57 110 56 118 55 123 55 "/><path d="M110 214 115 215 124 221 129 231 132 238 133 243 133 249 46 249 46 245 51 235 54 232 58 229 65 224 69 222 78 218 88 215 103 214 110 214 "/><path d="M249 0 249 31 246 37 231 35 212 32 210 31 199 25 195 22 188 15 186 12 184 8 184 4 185 0 249 0 "/></svg>