<svg width="256" height="256" xmlns="http://www.w3.org/2000/svg" fill-opacity="0" stroke="black" stroke-width="3" ><path d="M136 24 142 27 161 38 169 44 187 62 191 70 193 79 194 87 195 99 195 115 185 162 184 165 181 173 176 181 174 184 164 197 160 200 158 201 138 209 123 209 113 208 102 204 82 195 78 193 38 169 36 167 30 157 27 145 19 108 18 100 18 89 19 86 22 79 32 62 62 31 64 30 129 24 136 24 "/><path d="M249 0 249 95 248 95 244 93 241 91 230 75 229 73 224 55 224 51 228 18 229 15 230 13 233 8 235 6 242 0 249 0 "/><path d="M119 0 123 4 123 5 120 8 116 10 102 13 88 13 49 9 47 8 47 5 53 0 119 0 "/></svg>