<svg width="256" height="256" xmlns="http://www.w3.org/2000/svg" fill-opacity="0" stroke="black" stroke-width="3" ><path d="M147 47 158 49 166 51 186 59 189 62 204 78 208 83 210 88 212 95 212 97 204 134 194 161 189 171 187 174 180 184 171 196 162 204 159 206 151 210 141 212 122 212 114 211 105 208 89 200 82 196 76 192 75 191 73 188 45 137 44 133 44 127 49 111 58 85 111 53 115 51 121 49 134 47 147 47 "/><path d="M9 137 34 145 44 155 51 165 55 172 56 174 64 193 68 211 69 216 69 218 68 244 67 249 0 249 0 137 1 136 9 137 "/><path d="M96 0 96 1 95 3 75 42 70 50 68 52 64 55 61 57 51 58 45 58 42 57 40 56 32 48 24 38 23 35 22 5 23 0 96 0 "/><path d="M239 110 242 111 249 114 249 177 240 197 239 198 237 198 219 197 210 152 210 137 211 132 213 128 215 125 219 121 224 117 238 110 239 110 "/></svg>