<svg width="256" height="256" xmlns="http://www.w3.org/2000/svg" fill-opacity="0" stroke="black" stroke-width="3" ><path d="M184 10 217 82 218 139 205 155 202 157 176 169 163 172 122 181 62 191 60 189 39 113 37 105 37 90 38 85 39 81 59 57 65 50 71 46 73 45 178 10 184 10 "/><path d="M1 91 3 92 16 105 18 108 19 111 21 118 22 123 23 131 23 186 22 188 20 191 3 193 2 193 0 192 0 91 1 91 "/><path d="M146 0 155 5 152 8 140 11 112 16 109 16 53 11 43 1 43 0 146 0 "/><path d="M240 60 246 90 246 103 245 106 243 109 240 111 231 113 230 113 223 107 222 106 222 102 223 72 234 59 240 60 "/></svg>