<svg width="256" height="256" xmlns="http://www.w3.org/2000/svg" fill-opacity="0" stroke="black" stroke-width="3" ><path d="M21 10 24 11 94 42 101 46 160 83 160 87 156 115 148 141 146 144 121 181 118 184 102 196 99 198 46 224 32 224 10 220 1 217 0 216 0 12 5 11 20 10 21 10 "/><path d="M222 213 229 219 230 221 233 241 233 243 232 244 216 246 179 246 174 245 174 243 178 236 181 232 189 222 190 221 192 220 195 219 216 213 222 213 "/><path d="M249 167 249 193 244 201 242 203 236 208 224 211 222 210 213 189 213 186 226 166 233 159 235 158 249 167 "/></svg>