<svg width="256" height="256" xmlns="http://www.w3.org/2000/svg" fill-opacity="0" stroke="black" stroke-width="3" ><path d="M131 33 167 34 169 35 186 45 209 68 211 72 212 75 246 211 246 249 177 249 90 199 64 174 60 168 58 164 52 146 50 139 50 127 56 99 61 76 67 64 70 61 80 53 88 47 94 43 115 35 121 33 131 33 "/><path d="M245 0 241 6 237 10 221 19 217 21 205 26 199 27 189 26 182 25 176 24 141 12 126 6 124 4 123 2 123 0 245 0 "/><path d="M24 43 27 45 33 50 38 55 39 58 39 65 36 76 34 80 31 84 27 88 16 92 14 92 2 91 0 90 0 52 2 47 4 45 16 42 24 43 "/><path d="M18 221 24 223 44 233 45 234 47 238 48 242 48 247 47 249 0 249 0 225 2 223 4 222 9 221 18 221 "/><path d="M249 166 248 166 236 147 235 144 235 139 239 123 244 106 246 100 249 94 249 166 "/></svg>