<svg width="256" height="256" xmlns="http://www.w3.org/2000/svg" fill-opacity="0" stroke="black" stroke-width="3" ><path d="M212 54 222 58 228 64 229 66 243 111 243 112 186 199 182 199 176 197 77 155 76 154 76 103 93 83 94 82 117 74 207 54 212 54 "/><path d="M245 146 248 149 249 151 249 241 248 241 244 239 234 231 229 226 222 210 221 207 219 193 219 182 221 172 223 168 231 154 233 151 239 147 242 146 245 146 "/><path d="M33 0 39 3 43 7 45 25 45 26 39 51 35 52 7 55 2 54 0 53 0 0 33 0 "/><path d="M249 0 249 55 246 55 233 54 232 53 228 48 225 42 222 35 219 24 219 21 222 1 223 0 249 0 "/></svg>