<svg width="256" height="256" xmlns="http://www.w3.org/2000/svg" fill-opacity="0" stroke="black" stroke-width="3" ><path d="M139 34 144 35 148 36 158 39 160 40 173 48 176 50 192 68 194 71 200 82 202 86 204 92 210 115 212 128 212 129 211 132 209 137 207 141 192 167 183 179 177 185 174 187 162 194 148 202 140 205 134 207 124 208 113 208 105 205 93 198 83 189 80 186 65 163 60 153 59 150 57 143 55 135 54 130 53 123 53 104 54 99 56 91 57 88 59 83 68 65 85 48 91 44 99 40 111 35 115 34 139 34 "/><path d="M249 91 249 189 242 191 234 193 221 193 214 191 207 187 204 183 202 180 200 173 200 170 201 166 227 100 235 95 240 92 248 91 249 91 "/></svg>