<svg width="256" height="256" xmlns="http://www.w3.org/2000/svg" fill-opacity="0" stroke="black" stroke-width="3" ><path d="M139 12 158 16 186 26 188 27 228 64 230 67 236 98 241 129 241 132 240 137 234 156 230 168 228 172 225 177 220 183 204 201 202 203 196 208 186 216 183 218 158 233 126 240 125 240 109 236 89 229 71 222 65 216 61 211 44 186 42 183 37 174 23 148 15 119 12 96 12 93 39 53 47 45 69 28 72 26 89 20 102 16 107 15 113 14 130 12 139 12 "/><path d="M1 162 5 167 8 171 10 174 54 243 56 247 56 249 0 249 0 162 1 162 "/></svg>