<svg width="256" height="256" xmlns="http://www.w3.org/2000/svg" fill-opacity="0" stroke="black" stroke-width="3" ><path d="M122 66 147 71 167 80 179 92 181 96 185 109 185 116 183 149 181 159 175 178 143 197 140 197 100 188 94 186 91 184 86 180 75 171 74 170 58 150 52 140 48 132 47 124 47 108 50 98 52 92 60 86 87 70 92 68 112 65 122 66 "/><path d="M48 175 54 176 72 182 81 190 91 205 91 230 82 237 63 249 0 249 0 188 6 184 11 181 13 180 17 179 22 178 40 175 48 175 "/><path d="M195 0 197 9 180 46 179 48 178 49 172 52 168 53 167 53 132 47 116 39 110 33 104 24 103 22 100 15 96 3 96 0 195 0 "/></svg>