<svg width="256" height="256" xmlns="http://www.w3.org/2000/svg" fill-opacity="0" stroke="black" stroke-width="3" ><path d="M116 48 157 54 166 56 171 58 172 59 192 91 186 152 183 163 178 178 176 181 165 191 152 196 149 197 139 199 131 199 125 197 42 149 42 140 50 68 53 65 56 63 58 62 114 48 116 48 "/><path d="M186 3 196 4 249 28 249 80 244 83 243 83 217 81 215 80 202 70 181 46 177 38 174 17 174 16 176 12 180 7 185 3 186 3 "/><path d="M61 0 64 6 64 11 63 15 45 28 32 37 4 53 3 53 0 51 0 0 61 0 "/></svg>