<svg width="256" height="256" xmlns="http://www.w3.org/2000/svg" fill-opacity="0" stroke="black" stroke-width="3" ><path d="M133 32 170 53 171 54 221 112 221 114 173 194 170 197 129 198 123 198 114 196 103 193 80 183 78 181 38 106 38 100 39 98 43 94 76 63 128 32 131 31 133 32 "/><path d="M19 198 21 200 27 215 33 233 34 243 32 249 0 249 0 189 19 198 "/><path d="M193 224 197 225 199 226 201 228 213 241 215 244 215 249 167 249 169 245 178 231 183 228 191 224 193 224 "/><path d="M249 125 249 170 245 170 238 169 236 168 233 166 230 160 229 155 229 154 230 143 236 133 240 129 247 125 249 125 "/></svg>