<svg width="256" height="256" xmlns="http://www.w3.org/2000/svg" fill-opacity="0" stroke="black" stroke-width="3" ><path d="M232 12 239 16 249 23 249 49 248 51 244 53 236 56 231 56 221 53 218 52 206 46 203 44 202 42 201 31 206 18 221 9 232 12 "/><path d="M36 201 50 209 66 221 76 229 86 239 86 241 84 245 83 246 79 249 68 249 23 221 20 217 20 216 29 203 30 202 32 201 36 201 "/><path d="M5 35 7 36 16 43 18 45 22 56 22 67 20 73 17 80 16 81 10 84 7 85 2 85 0 84 0 37 2 35 5 35 "/><path d="M93 32 92 36 74 67 48 85 45 86 44 86 40 84 40 81 45 72 47 69 61 50 63 48 87 29 93 32 "/></svg>