<svg width="256" height="256" xmlns="http://www.w3.org/2000/svg" fill-opacity="0" stroke="black" stroke-width="3" ><path d="M141 44 193 53 238 77 241 80 249 98 249 177 248 178 244 181 219 193 216 194 200 197 186 197 87 195 80 193 76 191 67 185 64 182 62 179 53 164 35 133 35 115 76 60 80 55 136 44 141 44 "/><path d="M21 212 118 219 121 249 0 249 0 214 19 212 21 212 "/><path d="M148 207 165 211 180 217 184 219 191 224 195 228 198 232 199 237 198 243 196 249 127 249 121 233 121 217 128 210 130 209 134 208 139 207 148 207 "/><path d="M249 249 237 249 236 246 235 239 234 231 234 223 239 212 241 208 245 202 249 198 249 249 "/></svg>