<svg width="256" height="256" xmlns="http://www.w3.org/2000/svg" fill-opacity="0" stroke="black" stroke-width="3" ><path d="M145 31 160 34 187 44 203 61 204 63 209 75 216 105 216 117 214 167 211 176 156 248 133 249 123 249 122 248 119 244 72 150 72 148 74 128 77 105 113 39 125 35 139 31 145 31 "/><path d="M102 0 103 1 112 20 113 24 113 28 112 35 102 44 85 58 53 77 44 82 24 92 22 92 2 72 0 69 0 0 102 0 "/><path d="M227 226 249 227 249 249 188 249 188 248 191 241 193 239 200 233 214 227 218 226 227 226 "/></svg>