<svg width="256" height="256" xmlns="http://www.w3.org/2000/svg" fill-opacity="0" stroke="black" stroke-width="3" ><path d="M207 95 206 111 205 117 202 132 201 135 156 190 147 197 144 199 140 200 135 201 122 201 117 200 110 198 102 195 92 190 76 181 64 170 56 162 53 158 51 155 48 150 45 143 43 137 37 117 37 95 38 89 43 77 45 73 58 56 61 53 73 42 89 31 109 19 118 17 121 17 142 23 145 24 165 32 169 34 181 42 183 44 191 54 198 65 206 81 207 87 207 95 "/><path d="M192 175 249 193 249 239 233 249 168 249 165 213 165 209 166 204 167 200 171 190 174 186 176 184 191 175 192 175 "/><path d="M36 217 51 218 54 219 59 222 73 231 76 233 79 236 80 238 85 249 5 249 4 248 3 242 3 241 4 235 6 228 8 225 16 218 28 217 36 217 "/></svg>