<svg width="256" height="256" xmlns="http://www.w3.org/2000/svg" fill-opacity="0" stroke="black" stroke-width="3" ><path d="M127 66 138 67 148 68 168 73 171 74 175 76 184 82 188 85 189 86 234 138 231 143 220 156 216 160 213 162 207 165 192 172 187 174 161 184 135 193 120 197 103 197 83 192 65 187 40 172 39 171 38 169 34 158 34 154 36 136 37 128 40 121 42 117 47 108 52 101 65 86 72 78 78 74 90 68 114 66 127 66 "/><path d="M80 22 87 24 89 25 94 28 101 35 104 39 105 42 105 51 103 54 97 56 61 66 56 66 46 31 46 28 50 26 59 22 64 21 80 22 "/><path d="M249 109 246 107 233 96 232 95 219 80 217 76 217 72 219 65 221 59 225 48 249 34 249 109 "/><path d="M249 0 249 10 245 13 241 15 226 18 217 18 212 17 204 14 202 13 198 8 195 3 194 1 194 0 249 0 "/></svg>