<svg width="256" height="256" xmlns="http://www.w3.org/2000/svg" fill-opacity="0" stroke="black" stroke-width="3" ><path d="M107 0 118 6 119 7 162 55 175 70 186 94 188 105 185 128 177 146 164 163 154 176 135 187 111 194 107 194 91 192 58 183 55 182 52 180 46 175 44 173 26 153 19 145 10 131 7 125 4 118 3 115 2 111 0 101 0 80 12 62 14 60 29 46 97 2 104 0 107 0 "/><path d="M249 0 249 112 247 112 239 110 237 109 220 96 188 0 249 0 "/><path d="M59 0 59 1 56 4 35 21 27 27 10 30 4 30 3 29 0 23 0 0 59 0 "/><path d="M6 157 15 185 17 192 15 204 8 216 3 221 0 223 0 146 6 157 "/></svg>