<svg width="256" height="256" xmlns="http://www.w3.org/2000/svg" fill-opacity="0" stroke="black" stroke-width="3" ><path d="M116 21 122 22 133 24 136 25 152 31 158 34 171 43 179 51 199 91 203 103 204 111 203 127 197 156 193 165 192 167 182 179 173 188 165 194 162 196 160 197 137 206 134 207 130 208 123 209 99 209 93 208 85 206 83 205 53 189 48 186 42 182 36 175 32 167 31 164 30 157 28 142 28 138 29 131 54 54 56 52 68 41 71 39 84 31 100 23 109 21 116 21 "/><path d="M78 0 75 9 45 34 38 38 37 38 0 14 0 0 78 0 "/></svg>