<svg width="256" height="256" xmlns="http://www.w3.org/2000/svg" fill-opacity="0" stroke="black" stroke-width="3" ><path d="M146 53 151 54 154 55 163 59 175 65 185 75 194 85 197 89 204 103 205 107 207 120 207 132 206 141 199 162 196 168 186 183 183 186 175 193 172 195 162 200 155 202 140 206 137 206 114 199 112 198 89 183 87 181 74 167 65 150 64 148 63 145 61 136 61 123 63 109 64 104 68 95 79 77 85 71 95 63 103 59 109 57 120 54 126 53 146 53 "/><path d="M82 0 84 3 86 11 86 12 84 29 77 45 61 79 57 84 42 86 41 86 32 85 24 84 21 82 15 76 13 73 10 65 3 46 0 35 0 27 21 6 26 3 36 0 82 0 "/></svg>