<svg width="256" height="256" xmlns="http://www.w3.org/2000/svg" fill-opacity="0" stroke="black" stroke-width="3" ><path d="M134 56 181 74 196 82 197 83 226 113 231 121 233 126 238 143 242 167 243 178 243 184 242 190 240 199 238 204 227 227 225 231 222 234 213 242 203 249 72 249 63 246 58 242 56 240 45 222 43 218 37 201 37 194 40 153 49 119 57 101 65 91 85 75 127 55 134 56 "/><path d="M241 13 249 15 249 57 246 58 241 58 237 56 234 53 227 44 227 38 228 30 229 26 232 21 235 17 239 13 241 13 "/></svg>