<svg width="256" height="256" xmlns="http://www.w3.org/2000/svg" fill-opacity="0" stroke="black" stroke-width="3" ><path d="M171 55 173 56 180 60 184 63 185 64 193 73 197 79 201 88 203 93 204 96 209 120 209 147 205 173 202 184 201 187 199 191 183 210 169 224 166 226 149 234 144 236 138 238 120 238 99 236 95 234 92 232 90 230 83 217 82 215 70 175 64 154 54 115 49 91 49 86 52 80 61 67 64 65 88 59 168 55 171 55 "/><path d="M15 125 20 129 27 138 29 170 29 172 23 188 13 195 8 198 3 200 0 200 0 140 7 128 9 127 14 125 15 125 "/></svg>