<svg width="256" height="256" xmlns="http://www.w3.org/2000/svg" fill-opacity="0" stroke="black" stroke-width="3" ><path d="M150 75 163 77 167 79 173 83 181 89 182 90 190 104 191 109 192 130 193 175 191 198 189 212 188 213 169 224 163 227 160 228 156 229 130 226 126 225 90 212 87 210 70 192 68 188 66 183 65 179 64 174 64 158 66 119 70 110 74 102 76 99 78 97 93 88 102 84 147 75 150 75 "/><path d="M249 53 249 207 247 207 242 206 238 205 214 198 208 193 207 192 198 167 197 164 197 163 202 113 206 75 211 70 238 55 242 54 247 53 249 53 "/><path d="M108 0 109 10 109 12 95 31 90 37 55 57 52 57 45 54 36 46 34 44 27 34 15 14 14 11 14 9 26 0 108 0 "/><path d="M43 157 38 165 33 170 29 171 20 173 15 173 3 168 0 162 0 137 13 130 16 129 34 126 35 126 37 128 43 145 43 157 "/><path d="M1 50 18 60 21 77 21 78 18 82 10 91 1 100 0 100 0 50 1 50 "/></svg>