<svg width="256" height="256" xmlns="http://www.w3.org/2000/svg" fill-opacity="0" stroke="black" stroke-width="3" ><path d="M100 17 107 18 113 19 117 20 124 22 129 24 141 30 149 35 160 45 164 49 173 60 176 65 180 72 180 110 178 119 166 164 165 167 157 181 149 189 134 200 129 203 121 207 116 209 110 211 106 212 77 218 48 207 37 202 35 201 30 198 27 196 23 193 17 188 14 185 7 177 3 169 0 161 0 60 3 53 4 51 9 46 17 39 26 34 34 30 45 26 63 22 83 18 93 17 100 17 "/><path d="M218 116 226 118 248 127 249 128 249 213 248 214 240 216 236 216 227 215 197 199 195 197 190 186 188 180 187 169 187 160 188 155 195 132 206 119 207 118 211 116 218 116 "/><path d="M249 0 249 100 218 93 212 91 207 89 207 82 212 17 213 11 215 3 216 0 249 0 "/></svg>