<svg width="256" height="256" xmlns="http://www.w3.org/2000/svg" fill-opacity="0" stroke="black" stroke-width="3" ><path d="M210 0 231 14 234 17 234 21 222 124 218 147 216 151 210 161 206 167 203 171 195 179 181 190 177 193 171 197 166 200 156 203 132 205 129 205 77 193 68 189 63 186 59 183 58 182 53 176 51 173 47 166 43 156 38 140 35 129 35 113 36 88 37 83 38 80 43 73 54 65 149 0 210 0 "/><path d="M197 218 210 222 213 224 214 225 220 237 222 242 223 248 223 249 145 249 145 247 149 241 152 238 167 224 175 220 188 218 197 218 "/><path d="M97 0 93 8 88 13 69 23 34 23 12 10 3 4 3 0 97 0 "/><path d="M2 68 10 69 17 73 18 75 23 92 24 97 22 113 14 139 7 154 6 155 2 158 0 154 0 68 2 68 "/></svg>