<svg width="256" height="256" xmlns="http://www.w3.org/2000/svg" fill-opacity="0" stroke="black" stroke-width="3" ><path d="M137 53 159 58 161 59 173 68 184 79 187 83 190 88 195 100 201 118 201 126 199 144 198 147 195 153 191 159 181 165 135 191 118 200 110 204 107 205 98 204 92 201 89 199 81 193 78 190 74 185 70 178 67 172 65 167 62 152 60 97 61 92 65 85 69 79 73 75 97 59 109 54 116 53 125 52 137 53 "/><path d="M223 175 228 176 245 185 246 186 249 190 249 233 247 236 245 238 232 246 218 249 209 249 178 211 178 209 183 187 187 183 192 180 200 176 214 175 223 175 "/></svg>