<svg width="256" height="256" xmlns="http://www.w3.org/2000/svg" fill-opacity="0" stroke="black" stroke-width="3" ><path d="M124 17 136 20 144 24 172 41 181 47 193 57 201 67 207 76 209 81 213 109 213 115 212 139 209 156 205 169 203 172 188 189 181 196 175 200 166 204 161 206 149 210 133 214 128 215 118 214 105 211 63 188 54 183 40 171 14 147 11 144 11 141 14 113 38 68 47 54 57 43 71 33 74 31 78 29 96 23 114 18 122 17 124 17 "/><path d="M36 219 43 220 47 221 61 225 67 228 72 231 80 237 81 238 89 249 0 249 0 230 3 228 15 221 29 219 36 219 "/><path d="M8 34 21 46 22 49 22 58 20 71 16 81 10 91 3 99 0 101 0 43 7 34 8 34 "/></svg>