<svg width="256" height="256" xmlns="http://www.w3.org/2000/svg" fill-opacity="0" stroke="black" stroke-width="3" ><path d="M118 54 124 57 182 91 185 93 186 94 192 101 194 104 207 128 208 147 208 150 204 166 201 175 199 180 196 187 194 191 188 200 185 204 180 210 174 215 167 219 159 222 151 224 130 207 75 160 67 152 49 133 47 130 45 123 45 117 47 109 51 97 54 90 57 84 59 82 76 66 79 64 85 61 101 56 110 54 118 54 "/><path d="M221 0 226 7 230 13 230 39 224 49 220 54 216 58 207 62 202 62 171 60 155 55 143 46 142 44 139 33 139 24 142 18 150 3 152 1 163 0 221 0 "/><path d="M31 213 41 217 42 218 44 232 32 248 31 249 0 249 0 236 6 225 12 219 28 213 31 213 "/></svg>