<svg width="256" height="256" xmlns="http://www.w3.org/2000/svg" fill-opacity="0" stroke="black" stroke-width="3" ><path d="M89 39 112 42 124 44 127 45 154 55 175 64 177 65 198 85 199 86 205 96 207 100 208 103 209 107 209 112 206 121 204 125 171 189 168 194 162 200 159 202 153 205 148 206 141 206 119 203 115 202 91 190 72 180 57 171 45 161 39 155 37 152 37 151 51 116 82 40 86 39 89 39 "/><path d="M249 0 249 87 242 91 239 92 233 92 216 91 213 90 207 87 194 77 192 75 182 64 176 56 175 50 175 48 184 5 185 2 186 0 249 0 "/><path d="M5 176 8 177 17 181 21 184 26 189 34 200 36 205 37 209 35 219 34 223 33 226 32 228 29 232 27 234 20 240 17 242 12 245 10 246 0 246 0 176 5 176 "/></svg>