<svg width="256" height="256" xmlns="http://www.w3.org/2000/svg" fill-opacity="0" stroke="black" stroke-width="3" ><path d="M218 0 219 7 219 19 217 30 214 44 210 51 206 57 202 61 146 112 137 113 134 113 119 107 113 103 108 98 107 96 95 60 93 53 97 19 102 1 103 0 218 0 "/><path d="M178 97 249 112 249 192 247 193 244 194 226 194 222 193 182 178 180 177 163 152 161 149 160 134 160 133 161 115 163 112 172 101 177 97 178 97 "/><path d="M183 195 191 198 194 200 206 209 216 220 222 229 224 233 225 237 223 241 214 247 197 249 142 249 121 246 119 245 117 243 113 238 112 235 112 234 117 221 129 199 133 197 138 195 183 195 "/></svg>