<svg width="256" height="256" xmlns="http://www.w3.org/2000/svg" fill-opacity="0" stroke="black" stroke-width="3" ><path d="M155 45 170 53 195 70 197 72 204 83 206 99 206 101 197 145 180 163 178 165 168 174 117 199 91 204 87 204 78 203 75 200 69 193 62 130 63 120 65 104 68 94 69 91 73 82 82 64 83 63 97 57 106 54 120 50 136 46 143 45 155 45 "/><path d="M96 216 107 217 125 219 136 222 144 225 150 231 155 237 155 238 149 249 76 249 66 245 64 243 64 240 65 237 66 235 70 229 72 227 87 217 90 216 96 216 "/><path d="M8 53 10 55 22 94 22 99 20 105 15 115 13 116 0 118 0 54 1 53 8 53 "/></svg>