<svg width="256" height="256" xmlns="http://www.w3.org/2000/svg" fill-opacity="0" stroke="black" stroke-width="3" ><path d="M143 0 149 3 172 21 184 31 189 36 192 40 196 47 199 58 203 84 203 102 199 117 196 122 195 123 190 127 181 134 172 140 170 141 158 146 149 149 138 150 131 150 117 147 109 144 104 142 95 137 86 128 81 121 74 110 72 106 66 92 63 83 60 70 59 55 62 43 69 22 70 20 72 17 73 16 88 6 92 4 95 3 110 0 143 0 "/><path d="M147 194 156 195 168 199 179 208 182 211 189 220 195 230 196 233 199 246 198 249 84 249 82 241 82 229 83 222 85 219 88 215 99 204 110 198 114 197 137 194 147 194 "/><path d="M30 105 37 107 41 109 44 111 53 120 58 126 60 129 64 182 64 186 59 199 58 200 49 206 44 209 42 210 32 209 26 207 13 198 0 163 0 105 30 105 "/></svg>