<svg width="256" height="256" xmlns="http://www.w3.org/2000/svg" fill-opacity="0" stroke="black" stroke-width="3" ><path d="M101 23 146 28 182 33 188 36 194 42 198 47 202 54 203 58 204 73 204 100 203 106 200 114 197 118 196 119 155 146 153 147 145 150 135 153 84 164 49 168 39 168 33 166 30 164 14 152 11 147 11 143 24 65 29 42 31 40 92 23 101 23 "/><path d="M116 204 125 206 132 209 134 210 138 216 141 224 144 235 144 241 142 249 12 249 11 248 10 242 10 236 11 233 15 225 17 223 25 217 107 204 116 204 "/></svg>