<svg width="256" height="256" xmlns="http://www.w3.org/2000/svg" fill-opacity="0" stroke="black" stroke-width="3" ><path d="M116 29 147 33 150 34 155 36 249 93 249 193 133 205 130 205 119 203 113 201 110 199 94 187 85 178 68 160 62 153 58 148 56 145 45 121 43 114 42 101 42 79 53 60 55 57 73 45 81 41 101 32 104 31 108 30 113 29 116 29 "/><path d="M249 203 249 249 93 249 94 247 98 241 99 240 118 230 222 205 238 203 249 203 "/><path d="M4 148 9 149 19 152 32 157 34 158 37 161 70 202 74 207 80 218 81 221 81 225 79 228 74 233 70 236 42 249 0 249 0 148 4 148 "/></svg>