<svg width="256" height="256" xmlns="http://www.w3.org/2000/svg" fill-opacity="0" stroke="black" stroke-width="3" ><path d="M117 12 127 14 131 15 133 16 146 24 178 45 192 57 198 63 204 70 246 138 246 157 245 163 240 178 230 196 228 199 220 210 217 214 212 219 207 223 198 229 194 231 181 237 156 246 145 249 113 249 109 245 16 124 7 109 5 105 4 102 4 101 7 91 12 83 61 32 62 31 71 25 93 14 96 13 111 11 117 12 "/><path d="M18 130 84 216 86 219 93 237 91 249 0 249 0 117 18 130 "/><path d="M246 0 246 23 245 26 244 28 240 32 232 35 229 36 219 36 217 35 182 16 163 4 162 0 246 0 "/><path d="M249 222 249 249 178 249 179 248 189 242 200 237 224 227 230 225 234 224 248 222 249 222 "/></svg>