<svg width="256" height="256" xmlns="http://www.w3.org/2000/svg" fill-opacity="0" stroke="black" stroke-width="3" ><path d="M98 35 120 36 154 43 156 44 231 92 246 134 247 138 247 150 246 153 244 155 182 205 173 210 171 211 168 212 164 213 154 215 146 215 138 214 60 200 57 199 56 198 48 182 38 120 38 119 42 94 46 81 47 79 58 59 61 55 77 42 84 39 96 35 98 35 "/><path d="M165 0 181 3 198 10 210 17 211 18 219 30 221 34 229 60 231 68 231 72 225 75 220 75 218 74 142 9 141 6 141 4 143 0 165 0 "/><path d="M18 90 26 94 34 101 35 102 35 105 32 147 30 151 29 151 0 150 0 90 18 90 "/></svg>