<svg width="256" height="256" xmlns="http://www.w3.org/2000/svg" fill-opacity="0" stroke="black" stroke-width="3" ><path d="M152 9 166 16 185 27 209 43 223 54 239 74 243 81 249 113 249 186 158 236 145 236 138 235 136 234 107 219 84 207 78 203 73 199 68 194 50 168 45 151 42 139 41 131 41 130 46 109 50 102 94 39 101 32 121 18 123 17 147 10 151 9 152 9 "/><path d="M219 207 223 209 246 224 249 226 249 249 222 249 205 231 202 227 202 225 204 221 209 214 214 209 217 207 219 207 "/><path d="M116 228 118 230 123 237 126 242 129 248 129 249 95 249 89 232 93 228 106 226 116 228 "/></svg>