<svg width="256" height="256" xmlns="http://www.w3.org/2000/svg" fill-opacity="0" stroke="black" stroke-width="3" ><path d="M90 38 111 41 114 42 154 57 157 60 173 81 177 90 179 95 183 106 184 116 184 123 182 136 179 148 151 188 149 190 142 195 125 205 122 206 112 208 99 210 81 204 77 202 75 198 43 72 43 71 60 52 65 47 74 42 87 38 90 38 "/><path d="M30 160 39 177 40 179 40 182 22 197 16 201 13 202 0 198 0 197 12 167 13 166 27 156 30 160 "/><path d="M20 37 29 41 31 42 32 43 32 44 28 64 22 71 10 82 0 82 0 66 12 37 15 36 20 37 "/></svg>