<svg width="256" height="256" xmlns="http://www.w3.org/2000/svg" fill-opacity="0" stroke="black" stroke-width="3" ><path d="M38 112 80 237 82 248 82 249 11 249 10 248 3 228 0 157 0 143 26 119 36 111 38 112 "/><path d="M6 41 20 45 36 54 37 56 38 63 38 65 34 77 33 79 25 94 23 97 22 98 18 101 11 106 2 108 0 108 0 42 1 41 6 41 "/><path d="M72 0 72 1 70 9 67 18 64 22 60 26 47 32 46 32 31 30 20 28 16 26 10 20 1 4 0 2 0 0 72 0 "/><path d="M248 166 249 167 249 237 232 238 230 238 214 219 215 217 245 165 248 166 "/><path d="M102 44 81 94 56 110 34 99 33 94 33 90 34 86 39 74 47 68 68 56 93 43 99 41 102 44 "/><path d="M204 0 205 7 205 8 204 15 202 20 201 22 199 25 196 28 193 30 189 31 148 5 145 2 145 0 204 0 "/><path d="M213 87 214 88 216 91 223 103 230 116 233 122 238 134 239 138 240 144 239 148 238 149 215 144 200 104 200 103 201 101 212 87 213 87 "/></svg>