<svg width="256" height="256" xmlns="http://www.w3.org/2000/svg" fill-opacity="0" stroke="black" stroke-width="3" ><path d="M135 73 166 74 183 79 219 97 222 99 230 107 234 112 240 121 240 135 238 151 231 162 229 165 222 172 210 180 198 184 194 185 193 185 108 179 104 178 95 173 83 166 77 162 73 159 70 156 69 154 68 147 68 145 69 131 70 128 71 126 76 118 88 101 92 97 99 91 105 87 125 75 133 73 135 73 "/><path d="M249 0 249 20 242 25 240 26 187 44 185 44 175 42 169 40 165 37 160 33 154 27 143 7 143 6 149 0 249 0 "/><path d="M70 196 89 214 93 220 94 233 94 237 91 245 89 249 0 249 62 197 66 195 70 196 "/><path d="M176 221 179 223 192 233 197 237 198 238 200 242 200 248 199 249 147 249 147 248 148 240 149 236 153 230 156 227 161 225 170 222 174 221 176 221 "/></svg>