<svg width="256" height="256" xmlns="http://www.w3.org/2000/svg" fill-opacity="0" stroke="black" stroke-width="3" ><path d="M139 56 156 66 161 69 164 71 178 81 181 84 191 109 192 113 192 117 173 176 172 178 158 200 156 202 146 204 141 204 95 192 87 188 83 184 62 152 55 106 69 90 78 81 92 71 118 59 123 57 127 56 139 56 "/><path d="M178 0 180 4 182 10 182 21 178 32 175 36 174 37 166 41 163 42 156 44 152 44 144 41 103 14 101 11 99 7 98 4 97 0 178 0 "/><path d="M249 184 238 174 234 170 233 166 233 164 234 150 235 142 237 134 239 127 243 119 247 112 249 110 249 184 "/></svg>