<svg width="256" height="256" xmlns="http://www.w3.org/2000/svg" fill-opacity="0" stroke="black" stroke-width="3" ><path d="M142 28 146 29 150 31 154 38 182 93 189 107 192 119 182 170 176 182 153 226 109 249 78 249 74 245 51 177 48 168 47 161 46 152 46 111 48 103 52 92 55 86 60 77 67 69 76 59 93 46 102 40 110 36 122 32 126 31 135 29 141 28 142 28 "/><path d="M34 39 37 40 48 52 51 58 53 63 53 71 52 75 43 93 41 96 37 100 31 104 29 105 24 106 18 106 15 105 12 103 4 97 3 96 0 83 0 61 3 49 5 46 6 45 14 40 17 39 34 39 "/><path d="M184 18 190 20 194 22 197 25 201 30 214 48 215 50 216 71 216 73 215 78 214 78 160 37 160 34 167 24 175 20 180 18 184 18 "/></svg>