<svg width="256" height="256" xmlns="http://www.w3.org/2000/svg" fill-opacity="0" stroke="black" stroke-width="3" ><path d="M127 42 137 43 153 48 165 57 166 58 172 65 176 71 180 78 183 84 185 89 191 107 192 112 192 114 188 134 187 138 179 156 177 160 150 186 140 192 129 194 119 194 116 193 85 181 82 179 62 159 60 156 55 148 52 143 46 128 45 113 45 112 47 95 52 79 53 77 54 76 68 63 75 57 85 52 92 49 107 43 116 42 127 42 "/><path d="M76 207 82 208 89 211 112 237 112 244 108 249 18 249 16 244 16 240 21 235 40 219 51 214 74 207 76 207 "/></svg>