<svg width="256" height="256" xmlns="http://www.w3.org/2000/svg" fill-opacity="0" stroke="black" stroke-width="3" ><path d="M158 47 167 52 176 58 183 63 185 65 202 100 206 116 208 128 208 130 199 156 190 170 186 176 162 192 140 204 134 205 130 205 110 203 99 199 97 198 79 182 75 177 61 154 57 147 56 139 56 128 57 107 64 93 69 86 95 59 99 55 108 47 158 47 "/><path d="M249 0 249 36 227 52 215 56 209 57 205 57 200 56 183 46 180 44 174 39 145 14 144 13 144 10 147 0 249 0 "/><path d="M216 192 249 235 249 249 154 249 154 245 155 238 157 234 173 220 198 199 201 197 206 194 208 193 215 192 216 192 "/><path d="M134 0 134 6 133 8 130 12 122 22 114 28 110 30 98 32 97 32 93 28 84 18 81 13 78 6 78 0 134 0 "/></svg>