<svg width="256" height="256" xmlns="http://www.w3.org/2000/svg" fill-opacity="0" stroke="black" stroke-width="3" ><path d="M123 56 148 60 156 62 188 71 191 72 194 74 201 81 249 134 249 244 248 245 243 249 184 249 62 201 50 192 42 183 40 177 38 166 37 160 37 151 38 142 40 135 48 123 56 112 91 66 97 61 101 58 105 56 123 56 "/><path d="M62 0 67 4 92 45 93 48 93 49 90 53 39 119 35 123 30 123 27 122 23 120 17 114 0 66 0 0 62 0 "/><path d="M187 0 217 38 218 40 218 53 211 63 207 65 203 65 104 47 97 45 90 31 82 1 82 0 187 0 "/><path d="M249 0 249 16 239 16 225 14 222 13 212 8 205 0 249 0 "/></svg>