<svg width="256" height="256" xmlns="http://www.w3.org/2000/svg" fill-opacity="0" stroke="black" stroke-width="3" ><path d="M135 37 142 39 151 42 158 45 167 50 172 53 184 63 196 80 199 88 208 115 208 128 203 154 202 156 194 170 177 187 162 197 151 200 135 203 121 203 101 200 96 199 88 197 66 189 65 188 58 180 50 170 45 155 40 135 39 125 39 113 40 101 42 97 47 88 50 83 57 72 59 69 75 56 83 50 88 47 92 45 104 41 131 37 135 37 "/><path d="M102 207 108 208 118 210 120 211 123 213 137 223 147 234 152 242 153 244 153 249 65 249 65 236 66 232 75 221 76 220 83 214 87 211 97 207 102 207 "/></svg>