<svg width="256" height="256" xmlns="http://www.w3.org/2000/svg" fill-opacity="0" stroke="black" stroke-width="3" ><path d="M130 45 140 46 146 47 150 48 166 53 169 55 178 62 179 63 209 96 216 133 216 135 215 140 210 156 204 166 198 173 191 180 183 187 171 195 139 211 134 213 131 214 116 214 104 208 101 206 93 200 88 196 66 178 56 167 44 153 43 149 42 144 42 132 46 101 55 84 70 62 74 59 77 57 96 48 107 45 130 45 "/><path d="M216 214 227 216 236 218 238 219 241 223 249 234 249 240 246 245 245 246 233 249 200 249 198 236 200 229 202 225 208 216 209 215 211 214 216 214 "/></svg>