<svg width="256" height="256" xmlns="http://www.w3.org/2000/svg" fill-opacity="0" stroke="black" stroke-width="3" ><path d="M138 76 151 77 159 79 166 81 186 97 195 111 200 127 201 131 202 139 203 148 203 175 182 184 94 190 85 185 77 177 75 174 73 170 69 159 68 155 68 147 70 135 71 131 73 124 81 102 82 100 85 95 90 89 93 87 102 82 126 77 132 76 138 76 "/><path d="M207 207 247 212 249 213 249 249 188 249 188 248 191 236 194 227 201 213 206 207 207 207 "/><path d="M225 65 226 67 229 75 249 130 249 134 243 169 242 171 240 171 238 169 235 164 195 92 194 90 194 85 202 77 210 71 218 66 220 65 225 65 "/><path d="M249 0 249 36 248 36 231 35 219 28 201 14 195 1 195 0 249 0 "/><path d="M42 228 45 229 47 230 62 242 63 243 64 245 65 248 65 249 10 249 7 248 6 247 6 245 7 242 9 239 16 232 28 229 41 228 42 228 "/></svg>