<svg width="256" height="256" xmlns="http://www.w3.org/2000/svg" fill-opacity="0" stroke="black" stroke-width="3" ><path d="M134 59 143 60 149 63 160 69 172 81 175 92 178 105 179 110 181 123 182 148 181 151 178 159 177 161 163 181 161 182 141 186 132 186 93 177 86 175 80 173 74 170 66 162 62 156 59 150 49 122 49 114 50 107 53 96 54 93 59 85 64 78 74 71 77 69 81 67 84 66 95 63 99 62 115 60 124 59 134 59 "/><path d="M201 39 226 41 249 59 249 127 246 127 234 121 198 93 190 86 187 83 180 75 179 72 179 64 180 62 182 59 197 42 200 39 201 39 "/><path d="M245 162 249 163 249 249 209 249 180 198 180 197 181 193 182 190 186 180 191 174 195 170 201 166 234 162 245 162 "/><path d="M8 108 14 109 26 113 30 115 34 118 42 126 46 133 48 139 49 143 49 145 48 152 47 156 44 160 35 169 29 172 26 173 20 174 15 174 4 173 0 171 0 111 2 110 7 108 8 108 "/><path d="M246 0 246 15 245 22 244 24 241 27 235 31 232 32 218 32 213 31 204 28 199 25 194 20 192 17 189 12 189 0 246 0 "/><path d="M101 214 110 221 113 225 117 247 117 249 48 249 48 248 52 236 55 232 57 231 91 215 95 214 101 214 "/><path d="M130 215 133 216 138 218 142 221 145 224 148 229 149 231 151 237 152 241 152 244 151 249 122 249 120 244 117 235 117 227 120 216 123 215 130 215 "/></svg>