<svg width="256" height="256" xmlns="http://www.w3.org/2000/svg" fill-opacity="0" stroke="black" stroke-width="3" ><path d="M204 0 206 88 206 95 205 107 194 129 189 137 187 140 185 142 176 147 164 149 143 148 94 140 91 139 87 137 84 135 80 132 78 130 71 120 69 117 58 95 58 74 60 66 64 54 68 43 73 36 76 32 104 0 204 0 "/><path d="M151 160 163 166 166 168 173 173 175 175 189 192 190 194 191 197 191 207 188 213 177 225 173 227 115 249 68 249 66 245 64 238 63 231 63 228 64 219 68 211 76 203 108 173 115 167 127 161 143 160 151 160 "/><path d="M43 150 53 155 55 157 56 159 56 170 55 173 43 206 41 210 30 231 26 236 12 238 0 238 0 136 43 150 "/><path d="M70 0 70 2 69 10 67 16 65 21 62 27 52 39 50 41 38 47 29 49 24 50 5 46 0 41 0 0 70 0 "/><path d="M242 134 249 135 249 249 244 249 238 242 223 214 221 163 221 160 228 137 231 134 242 134 "/><path d="M3 63 30 64 35 65 42 70 43 74 43 76 34 98 28 112 24 119 21 121 12 126 6 128 4 128 0 127 0 63 3 63 "/><path d="M223 220 224 221 233 235 236 249 200 249 200 248 206 231 207 230 214 225 222 220 223 220 "/></svg>