<svg width="256" height="256" xmlns="http://www.w3.org/2000/svg" fill-opacity="0" stroke="black" stroke-width="3" ><path d="M128 50 141 56 147 59 193 98 195 100 195 105 190 149 174 166 172 168 170 169 100 192 26 180 23 179 20 177 15 173 10 167 6 159 3 151 0 138 0 135 102 51 124 50 128 50 "/><path d="M151 0 201 19 220 27 235 34 237 35 244 72 244 73 236 83 235 84 231 86 200 82 198 81 195 79 148 45 137 35 134 32 125 22 123 16 128 9 132 5 138 0 151 0 "/><path d="M45 213 75 229 90 245 92 248 91 249 0 249 0 236 2 234 21 219 36 212 45 213 "/><path d="M9 29 29 53 34 60 36 63 39 72 38 92 36 95 20 110 6 107 0 104 0 34 3 30 6 29 9 29 "/></svg>