<svg width="256" height="256" xmlns="http://www.w3.org/2000/svg" fill-opacity="0" stroke="black" stroke-width="3" ><path d="M192 8 215 11 231 16 239 21 244 26 246 37 247 46 245 60 244 65 231 103 223 119 214 133 206 142 201 147 177 170 138 187 133 188 126 188 111 187 103 183 92 175 83 166 81 163 78 158 77 156 74 143 73 132 73 112 76 91 77 87 79 81 83 73 86 68 101 48 106 42 112 36 116 33 148 16 167 11 190 8 192 8 "/><path d="M165 198 176 200 223 240 225 242 225 249 175 249 161 243 150 234 143 221 143 219 144 214 149 204 151 202 155 200 163 198 165 198 "/><path d="M2 224 50 230 56 231 59 232 63 235 64 245 64 249 0 249 0 225 1 224 2 224 "/><path d="M7 92 13 94 21 109 22 111 24 124 24 132 18 146 2 162 0 163 0 94 3 92 7 92 "/><path d="M249 160 231 160 230 159 229 157 234 129 239 104 240 101 244 94 249 92 249 160 "/><path d="M242 205 246 209 246 217 244 230 243 233 233 249 223 230 222 228 222 222 225 218 227 216 239 205 242 205 "/></svg>