<svg width="256" height="256" xmlns="http://www.w3.org/2000/svg" fill-opacity="0" stroke="black" stroke-width="3" ><path d="M107 36 130 42 151 49 164 57 172 65 184 81 188 92 194 112 195 116 196 123 197 145 196 154 194 167 193 170 176 206 174 210 168 220 166 222 152 234 140 244 133 248 131 249 48 249 37 246 33 244 24 237 21 234 16 228 0 182 0 101 3 95 7 88 10 84 17 75 22 69 30 62 43 51 59 43 65 41 78 38 90 36 107 36 "/><path d="M249 0 249 82 247 85 236 85 223 84 215 80 197 60 193 53 189 41 189 37 193 25 195 20 201 9 204 7 212 2 216 0 249 0 "/><path d="M226 223 236 225 239 228 240 230 240 245 238 249 177 249 177 248 180 245 187 240 213 225 215 224 218 223 226 223 "/></svg>