<svg width="256" height="256" xmlns="http://www.w3.org/2000/svg" fill-opacity="0" stroke="black" stroke-width="3" ><path d="M147 44 156 46 160 47 168 50 174 56 176 60 177 63 193 115 197 133 198 138 198 143 197 157 195 172 194 174 182 186 179 188 177 189 69 189 66 188 60 182 56 177 54 174 50 159 53 123 56 102 58 92 131 44 147 44 "/><path d="M15 81 21 83 36 106 43 119 44 121 44 139 42 147 41 150 39 153 34 159 25 169 24 170 10 178 9 178 1 176 0 175 0 88 3 84 5 82 14 81 15 81 "/><path d="M249 64 249 160 241 157 232 151 225 146 218 139 212 131 210 128 209 125 204 102 204 100 210 86 219 68 247 64 249 64 "/><path d="M211 0 211 1 207 7 195 21 193 23 175 29 164 29 159 28 141 19 139 17 132 9 130 6 129 2 129 0 211 0 "/><path d="M102 0 109 3 111 4 112 5 119 16 119 19 115 30 111 34 96 41 95 41 87 40 80 37 68 29 65 25 63 15 63 14 64 13 78 0 102 0 "/></svg>