<svg width="256" height="256" xmlns="http://www.w3.org/2000/svg" fill-opacity="0" stroke="black" stroke-width="3" ><path d="M123 30 204 54 207 58 225 91 228 103 229 112 231 143 231 145 225 156 218 167 215 170 167 215 163 218 66 249 0 249 0 163 28 77 50 48 65 37 75 30 80 27 86 25 123 30 "/><path d="M249 135 249 249 246 249 228 220 227 218 223 192 223 189 226 175 227 171 234 154 236 151 245 138 248 135 249 135 "/><path d="M219 220 221 222 222 224 230 248 230 249 142 249 142 248 153 236 155 234 166 231 218 220 219 220 "/></svg>