<svg width="256" height="256" xmlns="http://www.w3.org/2000/svg" fill-opacity="0" stroke="black" stroke-width="3" ><path d="M61 0 97 3 108 4 112 5 199 28 202 29 216 34 219 37 222 41 224 45 230 70 230 80 229 93 227 97 215 118 214 119 189 139 185 141 129 154 82 161 80 161 75 160 64 149 0 73 0 0 61 0 "/><path d="M219 146 223 147 228 149 230 150 237 154 249 163 249 249 161 249 159 248 158 247 146 216 146 198 148 192 155 177 166 166 173 161 176 159 183 155 195 149 200 147 206 146 219 146 "/><path d="M130 211 137 213 142 218 146 224 149 231 153 243 153 249 105 249 105 246 106 234 107 229 112 220 115 217 118 215 120 214 127 211 130 211 "/><path d="M249 0 249 52 247 52 239 51 236 50 234 49 222 34 220 25 220 16 230 0 249 0 "/></svg>