<svg width="256" height="256" xmlns="http://www.w3.org/2000/svg" fill-opacity="0" stroke="black" stroke-width="3" ><path d="M107 38 134 43 138 44 144 47 158 55 163 58 164 59 176 74 178 77 194 137 195 141 195 147 192 168 191 172 190 175 187 181 179 194 176 198 149 220 122 210 120 209 107 202 104 200 91 188 90 187 65 142 64 140 60 126 60 109 61 98 62 94 69 75 75 61 80 51 87 44 106 38 107 38 "/><path d="M238 81 249 83 249 136 246 138 242 139 237 140 235 140 230 139 222 136 218 134 213 129 209 123 207 119 206 115 205 107 209 96 210 94 212 91 218 85 223 83 229 81 238 81 "/></svg>