<svg width="256" height="256" xmlns="http://www.w3.org/2000/svg" fill-opacity="0" stroke="black" stroke-width="3" ><path d="M116 21 151 24 174 28 176 30 222 81 225 85 231 94 235 106 236 119 236 120 233 144 231 150 227 160 209 186 206 189 185 205 177 211 169 215 148 223 130 224 125 224 113 223 104 221 90 217 87 216 79 213 72 209 59 201 53 197 52 196 47 190 38 175 36 169 36 156 52 72 54 63 72 34 78 30 108 22 112 21 116 21 "/><path d="M249 0 249 60 246 67 244 69 243 69 231 68 229 66 223 58 212 42 209 37 205 30 203 26 203 25 205 0 249 0 "/><path d="M21 88 30 118 30 131 29 135 27 141 25 145 23 147 1 165 0 165 0 80 21 88 "/></svg>