<svg width="256" height="256" xmlns="http://www.w3.org/2000/svg" fill-opacity="0" stroke="black" stroke-width="3" ><path d="M159 38 166 39 173 43 176 46 178 49 200 87 202 91 204 102 208 135 208 150 207 156 206 159 204 162 193 176 189 180 180 186 168 193 162 196 155 199 152 200 139 204 113 204 105 202 99 199 75 184 73 182 65 168 61 159 57 149 56 146 55 141 55 116 56 104 57 98 68 76 83 61 91 57 99 54 102 53 154 38 159 38 "/><path d="M83 0 84 1 81 44 75 44 64 40 42 23 36 18 27 1 27 0 83 0 "/></svg>