<svg width="256" height="256" xmlns="http://www.w3.org/2000/svg" fill-opacity="0" stroke="black" stroke-width="3" ><path d="M225 19 247 31 249 33 249 140 245 143 236 148 151 194 132 203 126 205 116 206 97 207 95 207 88 205 76 201 67 196 57 189 51 184 44 177 36 160 34 142 34 135 35 126 37 120 41 111 45 103 49 97 52 93 60 85 80 73 82 72 181 23 195 18 199 17 225 19 "/><path d="M40 201 47 203 53 207 54 208 56 211 61 219 62 222 63 230 63 240 62 243 60 246 56 249 12 249 9 244 8 242 7 239 5 231 5 229 17 211 19 209 22 207 37 201 40 201 "/><path d="M196 222 201 223 249 247 249 249 183 249 179 241 179 234 180 231 187 224 190 222 196 222 "/><path d="M245 175 249 177 249 210 243 211 242 211 240 210 231 199 228 193 227 184 227 178 231 175 245 175 "/></svg>