<svg width="256" height="256" xmlns="http://www.w3.org/2000/svg" fill-opacity="0" stroke="black" stroke-width="3" ><path d="M178 0 206 23 208 25 210 28 232 66 233 78 233 80 229 149 218 178 182 235 181 236 178 238 146 230 112 220 109 218 64 166 62 163 53 148 52 146 46 34 46 29 48 0 178 0 "/><path d="M22 30 25 31 27 32 29 34 33 40 36 45 37 50 37 57 36 60 35 62 34 63 21 74 10 79 0 79 0 28 22 30 "/><path d="M241 0 244 2 249 9 249 48 247 47 187 4 187 0 241 0 "/><path d="M249 222 249 249 213 249 213 248 214 246 217 241 219 238 231 226 236 224 244 222 249 222 "/></svg>