<svg width="256" height="256" xmlns="http://www.w3.org/2000/svg" fill-opacity="0" stroke="black" stroke-width="3" ><path d="M117 37 125 43 121 94 120 99 118 106 89 191 82 196 80 196 78 194 54 165 49 158 44 144 44 138 47 121 51 101 54 91 56 86 58 82 70 61 72 58 79 51 88 45 107 37 117 37 "/><path d="M164 41 170 44 180 50 183 53 188 62 188 64 173 79 165 76 154 68 147 62 146 61 146 59 148 43 149 42 157 39 164 41 "/><path d="M121 183 135 204 135 205 134 206 113 206 91 200 91 198 92 184 93 183 119 182 121 183 "/><path d="M197 69 199 71 201 74 203 79 207 98 207 106 203 110 202 110 192 106 191 105 180 83 178 76 178 75 193 69 197 69 "/></svg>