<svg width="256" height="256" xmlns="http://www.w3.org/2000/svg" fill-opacity="0" stroke="black" stroke-width="3" ><path d="M124 36 145 39 155 41 168 47 173 50 185 61 200 86 207 101 227 163 229 170 229 183 217 192 199 202 102 243 99 244 90 246 87 246 74 242 64 237 60 234 45 219 13 136 13 133 14 125 20 115 22 112 69 51 70 50 76 47 90 41 102 37 114 36 124 36 "/><path d="M229 200 232 201 249 207 249 249 141 249 141 245 143 240 146 235 150 233 208 207 228 200 229 200 "/><path d="M234 0 233 2 224 12 222 14 219 16 202 22 190 26 189 26 183 25 174 22 172 20 156 0 234 0 "/></svg>