<svg width="256" height="256" xmlns="http://www.w3.org/2000/svg" fill-opacity="0" stroke="black" stroke-width="3" ><path d="M143 53 146 55 176 77 185 85 192 92 196 99 198 103 200 109 204 125 205 131 205 135 200 150 192 170 185 180 178 188 175 191 158 204 139 209 134 210 116 210 100 207 90 203 88 202 78 196 70 191 61 182 59 179 51 164 43 145 40 134 39 129 39 119 41 102 43 97 45 93 52 84 55 81 62 75 66 72 82 62 94 57 101 55 136 53 143 53 "/><path d="M218 0 234 3 235 4 244 16 244 18 242 25 241 28 229 43 228 44 218 53 180 54 178 54 172 48 168 43 155 22 153 15 152 10 154 7 166 0 218 0 "/></svg>