<svg width="256" height="256" xmlns="http://www.w3.org/2000/svg" fill-opacity="0" stroke="black" stroke-width="3" ><path d="M119 44 127 45 145 51 158 61 170 72 171 73 175 79 180 101 180 116 157 216 153 216 129 209 76 188 71 185 51 166 48 161 45 155 36 131 35 127 35 120 37 104 38 101 44 89 59 67 63 62 64 61 75 51 79 49 96 45 110 44 119 44 "/><path d="M217 0 225 16 237 45 237 49 236 51 228 64 227 65 225 66 224 66 177 39 173 35 171 31 168 24 167 11 168 0 217 0 "/><path d="M78 215 86 216 120 244 121 245 122 248 122 249 60 249 58 237 58 229 60 223 64 220 66 219 76 215 78 215 "/><path d="M212 181 213 182 219 202 216 210 212 214 189 220 179 222 175 220 172 208 174 193 175 192 193 183 209 181 212 181 "/></svg>