<svg width="256" height="256" xmlns="http://www.w3.org/2000/svg" fill-opacity="0" stroke="black" stroke-width="3" ><path d="M112 58 114 59 120 63 124 67 131 77 144 97 150 109 154 120 155 127 155 134 152 150 150 156 146 163 138 176 128 186 66 247 63 249 31 249 1 234 0 233 0 153 9 94 11 87 13 83 21 73 27 67 32 63 38 59 41 58 112 58 "/><path d="M111 220 117 222 119 223 122 225 124 227 128 232 130 235 131 238 132 242 132 244 131 249 81 249 81 245 82 242 85 235 89 226 92 223 96 221 101 220 111 220 "/></svg>