<svg width="256" height="256" xmlns="http://www.w3.org/2000/svg" fill-opacity="0" stroke="black" stroke-width="3" ><path d="M152 38 164 42 174 47 179 50 188 56 190 58 200 70 203 74 206 79 209 85 212 92 216 105 218 118 219 130 219 137 215 158 213 164 210 172 205 179 202 183 193 192 188 196 181 200 139 217 126 220 117 219 106 216 101 214 92 210 84 204 77 197 73 192 68 183 67 181 64 173 62 167 61 161 59 144 59 125 62 108 67 98 74 86 90 66 94 62 107 50 112 46 119 41 128 38 139 36 152 38 "/><path d="M98 0 104 6 107 10 108 12 112 24 112 28 83 70 79 75 78 76 62 88 56 92 51 95 48 95 26 91 5 84 0 69 0 0 98 0 "/></svg>