<svg width="256" height="256" xmlns="http://www.w3.org/2000/svg" fill-opacity="0" stroke="black" stroke-width="3" ><path d="M197 61 198 62 217 84 219 87 230 105 233 110 236 116 240 126 241 140 241 146 240 153 225 185 222 190 218 196 215 199 211 202 209 203 196 209 184 211 175 212 172 212 163 209 119 186 89 166 86 163 70 141 70 132 71 118 91 66 95 63 109 53 148 50 197 61 "/><path d="M35 0 43 3 46 5 56 14 59 17 61 20 65 29 68 56 68 62 59 75 56 77 45 83 39 85 31 85 12 83 0 81 0 1 1 0 35 0 "/><path d="M111 188 116 189 123 191 131 195 145 203 148 205 151 208 156 214 156 220 155 225 145 249 95 249 73 246 72 245 72 243 73 240 91 202 96 196 102 191 105 189 110 188 111 188 "/><path d="M235 0 235 2 234 4 233 5 195 36 185 43 178 45 177 45 163 30 161 27 153 11 152 8 152 0 235 0 "/><path d="M37 136 49 139 59 149 59 151 58 154 49 169 46 172 41 176 33 175 25 169 0 150 0 138 10 136 37 136 "/><path d="M1 186 4 187 29 207 30 208 31 210 31 216 30 223 28 230 27 233 26 235 15 249 3 249 0 242 0 186 1 186 "/><path d="M249 63 249 115 241 107 235 95 233 90 232 87 232 86 234 74 235 70 236 68 244 61 249 63 "/></svg>