<svg width="256" height="256" xmlns="http://www.w3.org/2000/svg" fill-opacity="0" stroke="black" stroke-width="3" ><path d="M174 77 187 85 189 88 194 97 197 104 199 110 199 143 197 151 194 159 189 171 180 182 172 190 164 196 158 200 151 201 137 202 131 202 126 201 120 198 112 190 96 169 92 163 66 115 62 106 40 52 53 41 68 33 174 77 "/><path d="M249 41 249 141 246 141 239 140 225 133 220 124 211 107 211 103 212 86 213 78 219 63 221 59 231 49 238 45 242 43 248 41 249 41 "/><path d="M156 0 199 22 201 24 202 27 203 34 203 37 195 46 190 51 188 52 184 53 177 53 124 39 118 33 110 20 109 18 107 13 105 7 104 2 105 0 156 0 "/><path d="M1 52 3 53 9 57 21 67 24 70 32 81 30 104 1 191 0 192 0 52 1 52 "/></svg>