<svg width="256" height="256" xmlns="http://www.w3.org/2000/svg" fill-opacity="0" stroke="black" stroke-width="3" ><path d="M123 14 171 31 175 33 180 37 184 41 220 93 221 97 221 104 220 109 219 111 216 116 212 122 160 165 158 166 126 173 123 173 21 164 20 163 7 135 5 120 5 117 95 19 100 15 102 14 123 14 "/><path d="M200 136 200 141 194 170 192 172 164 194 149 202 144 204 136 206 135 206 135 202 136 198 142 191 182 149 186 145 199 136 200 136 "/><path d="M29 0 46 13 48 17 46 20 44 22 42 23 30 23 4 22 2 21 0 19 0 12 5 0 29 0 "/></svg>