<svg width="256" height="256" xmlns="http://www.w3.org/2000/svg" fill-opacity="0" stroke="black" stroke-width="3" ><path d="M110 48 119 50 122 51 150 61 156 64 165 70 181 85 183 87 188 95 194 107 196 112 198 120 198 126 191 164 143 212 85 217 60 218 48 218 33 211 29 207 27 204 18 190 18 188 19 177 33 122 37 107 41 94 42 91 43 89 48 82 62 67 64 65 78 55 81 54 102 48 110 48 "/><path d="M72 0 84 20 84 24 82 27 68 37 40 50 37 51 24 52 22 52 17 51 0 41 0 0 72 0 "/><path d="M179 224 183 228 196 242 195 244 190 249 146 249 151 242 167 230 170 228 175 225 177 224 179 224 "/></svg>