<svg width="256" height="256" xmlns="http://www.w3.org/2000/svg" fill-opacity="0" stroke="black" stroke-width="3" ><path d="M134 49 136 50 181 79 182 80 188 111 188 112 182 122 181 122 88 98 85 96 85 94 86 86 94 58 95 55 106 49 108 48 134 49 "/><path d="M240 113 241 114 249 128 249 217 247 219 236 214 216 188 216 176 218 164 237 114 238 113 240 113 "/><path d="M58 0 59 1 59 2 58 18 57 20 47 33 30 41 24 42 16 39 3 29 1 27 0 25 0 0 58 0 "/><path d="M249 0 249 4 246 7 240 10 229 13 202 16 200 16 182 13 179 11 176 6 175 2 175 0 249 0 "/><path d="M121 108 124 109 140 122 140 124 131 137 125 139 124 139 107 131 103 127 100 118 100 117 105 112 116 108 121 108 "/></svg>