<svg width="256" height="256" xmlns="http://www.w3.org/2000/svg" fill-opacity="0" stroke="black" stroke-width="3" ><path d="M159 41 167 43 173 46 179 50 187 58 189 61 192 66 193 69 202 101 202 114 201 117 189 147 186 150 76 168 74 168 60 156 56 150 50 115 50 114 55 96 56 93 70 80 73 78 128 44 132 43 145 41 159 41 "/><path d="M218 148 232 149 242 152 245 154 248 158 249 161 249 241 246 244 234 249 183 249 171 245 168 243 157 232 156 230 152 218 152 208 153 205 159 190 166 182 174 174 179 170 209 150 212 149 217 148 218 148 "/><path d="M108 0 110 16 110 17 106 31 105 34 104 36 98 42 94 45 77 55 65 61 60 63 57 64 55 64 20 62 7 58 0 55 0 0 108 0 "/><path d="M34 166 41 170 65 184 69 188 72 192 76 198 79 203 80 207 80 214 78 223 72 237 68 242 58 249 0 249 0 166 4 163 19 161 34 166 "/><path d="M249 0 249 129 220 123 179 0 249 0 "/><path d="M41 89 43 90 44 92 52 140 50 144 49 145 48 145 45 144 43 143 31 132 30 131 23 98 23 95 27 91 29 90 37 89 41 89 "/></svg>