<svg width="256" height="256" xmlns="http://www.w3.org/2000/svg" fill-opacity="0" stroke="black" stroke-width="3" ><path d="M121 25 132 26 142 28 150 30 156 32 163 35 165 36 175 42 181 46 186 51 197 63 209 78 212 82 214 85 217 94 221 111 222 120 222 132 221 136 219 142 215 152 214 154 202 173 192 188 177 201 172 205 162 211 107 235 102 236 99 236 94 235 74 229 68 227 58 223 56 222 45 215 43 213 32 201 26 189 23 173 18 126 18 99 19 96 34 78 36 76 53 61 85 36 94 30 96 29 102 27 109 25 121 25 "/><path d="M221 190 226 191 239 194 249 200 249 249 131 249 131 248 140 233 144 230 192 198 200 193 205 191 208 190 221 190 "/></svg>