<svg width="256" height="256" xmlns="http://www.w3.org/2000/svg" fill-opacity="0" stroke="black" stroke-width="3" ><path d="M124 41 137 44 140 45 157 53 164 57 169 61 182 81 185 87 188 94 190 99 195 123 195 130 182 160 177 170 171 180 169 183 162 190 150 198 148 199 142 201 134 201 117 200 108 198 102 196 97 194 85 188 70 176 51 156 45 148 43 145 41 139 39 132 39 125 45 91 47 85 57 68 60 63 67 56 76 51 84 47 93 43 102 41 124 41 "/><path d="M245 115 248 116 249 117 249 187 244 192 241 193 222 197 201 198 200 198 198 184 201 166 203 160 211 143 215 136 224 121 228 119 244 115 245 115 "/><path d="M249 213 249 249 216 249 215 246 215 237 219 229 225 220 226 219 244 213 249 213 "/></svg>