<svg width="256" height="256" xmlns="http://www.w3.org/2000/svg" fill-opacity="0" stroke="black" stroke-width="3" ><path d="M138 29 158 36 178 48 185 59 197 83 198 89 204 130 203 133 199 140 170 162 121 179 116 179 99 172 87 167 84 165 77 160 73 156 65 136 63 130 61 122 58 104 61 83 67 57 78 43 89 36 99 31 110 29 138 29 "/><path d="M249 0 249 33 245 35 242 36 236 37 231 37 219 35 213 33 207 30 195 19 189 10 188 8 187 5 187 0 249 0 "/><path d="M248 182 249 183 249 218 248 219 245 221 235 222 234 222 219 193 217 185 217 184 218 183 238 182 248 182 "/><path d="M242 224 249 225 249 249 216 249 217 242 222 230 240 224 242 224 "/></svg>