<svg width="256" height="256" xmlns="http://www.w3.org/2000/svg" fill-opacity="0" stroke="black" stroke-width="3" ><path d="M138 39 150 40 156 42 158 43 170 51 178 57 179 58 180 60 236 176 235 177 223 184 77 228 73 229 71 229 61 222 33 200 26 192 24 188 19 170 14 139 14 138 16 129 28 109 29 108 70 73 101 57 136 39 138 39 "/><path d="M149 209 190 214 203 217 206 219 210 229 210 239 209 241 204 245 200 247 192 249 104 249 104 246 105 243 112 234 119 227 132 215 135 213 148 209 149 209 "/><path d="M80 0 80 2 77 10 61 30 57 34 51 37 22 50 14 50 0 37 0 0 80 0 "/><path d="M24 219 40 227 48 235 56 247 56 249 0 249 0 231 12 221 20 219 24 219 "/></svg>