<svg width="256" height="256" xmlns="http://www.w3.org/2000/svg" fill-opacity="0" stroke="black" stroke-width="3" ><path d="M207 113 215 116 220 118 222 119 227 122 231 125 246 137 249 142 249 226 233 249 153 249 140 240 132 234 118 214 117 207 117 206 118 192 120 177 122 173 127 165 134 156 147 141 162 125 163 124 175 119 180 117 189 115 205 113 207 113 "/><path d="M229 0 229 15 226 37 225 43 223 49 218 63 217 65 214 70 208 77 205 80 193 88 174 98 155 103 146 103 134 100 110 93 102 89 97 85 90 79 79 68 76 64 67 51 66 48 59 22 59 13 61 4 62 0 229 0 "/><path d="M44 193 52 195 84 207 87 209 95 217 105 230 107 233 115 248 115 249 11 249 9 236 8 225 8 224 12 218 16 213 28 199 31 196 33 195 36 194 43 193 44 193 "/><path d="M103 107 153 111 155 113 155 118 147 126 138 134 121 143 116 143 108 139 105 136 101 128 100 123 100 108 101 107 103 107 "/><path d="M249 0 249 76 248 76 242 71 238 63 235 36 235 29 238 13 243 0 249 0 "/><path d="M31 0 41 7 43 9 43 14 42 16 37 20 0 47 0 5 29 0 31 0 "/></svg>