<svg width="256" height="256" xmlns="http://www.w3.org/2000/svg" fill-opacity="0" stroke="black" stroke-width="3" ><path d="M123 56 142 57 150 59 153 60 158 62 164 65 177 73 183 77 191 83 202 94 210 107 214 115 219 130 219 144 218 151 217 153 209 164 199 176 193 182 187 186 179 190 172 192 154 197 131 198 128 198 110 196 102 194 99 193 90 186 70 168 67 165 63 160 59 152 56 144 53 135 53 129 54 116 56 109 59 102 64 91 66 87 72 79 78 73 86 67 89 65 91 64 99 61 105 59 122 56 123 56 "/><path d="M187 223 191 224 194 225 209 235 219 245 220 248 220 249 146 249 153 240 163 230 166 228 172 225 180 223 187 223 "/></svg>