<svg width="256" height="256" xmlns="http://www.w3.org/2000/svg" fill-opacity="0" stroke="black" stroke-width="3" ><path d="M148 64 151 66 162 75 164 77 172 86 187 106 188 108 200 144 201 153 198 180 192 190 189 194 183 200 177 203 171 205 166 206 164 206 140 205 122 202 118 201 103 195 95 191 91 188 90 187 81 176 76 166 69 142 69 110 72 91 81 73 83 70 130 58 148 64 "/><path d="M39 31 48 33 57 40 58 52 58 53 54 76 44 96 36 107 29 113 18 120 5 128 1 130 0 130 0 39 24 33 34 31 39 31 "/><path d="M28 0 30 7 30 9 28 12 26 14 20 19 11 25 7 27 0 29 0 0 28 0 "/></svg>