<svg width="256" height="256" xmlns="http://www.w3.org/2000/svg" fill-opacity="0" stroke="black" stroke-width="3" ><path d="M124 39 175 47 177 48 191 56 195 60 198 64 206 76 207 78 212 90 214 100 214 102 213 112 212 119 211 122 208 130 168 223 163 228 160 228 120 224 116 223 27 157 27 156 35 87 36 84 37 82 45 71 50 66 55 62 66 57 105 42 108 41 118 39 124 39 "/><path d="M18 182 31 186 63 201 65 202 66 203 84 226 85 228 86 235 86 242 85 246 84 249 0 249 0 194 3 190 11 182 18 182 "/><path d="M238 176 245 179 249 182 249 232 240 249 221 249 211 246 209 245 208 244 201 207 205 190 207 188 215 182 219 180 236 176 238 176 "/><path d="M6 24 22 54 25 60 25 74 24 85 23 90 22 94 18 98 15 100 5 105 1 106 0 106 0 17 6 24 "/><path d="M249 25 249 104 248 104 238 97 235 93 223 72 221 68 220 58 220 53 225 44 230 36 242 27 244 26 247 25 249 25 "/><path d="M240 0 227 11 222 15 218 18 216 19 213 19 209 18 201 14 195 8 192 3 191 1 191 0 240 0 "/></svg>