<svg width="256" height="256" xmlns="http://www.w3.org/2000/svg" fill-opacity="0" stroke="black" stroke-width="3" ><path d="M189 0 203 12 204 13 215 26 222 36 228 46 229 48 233 69 233 93 232 99 231 104 225 118 220 125 195 159 191 163 182 171 176 176 170 179 157 185 141 185 100 184 88 183 85 182 73 177 70 175 53 162 48 158 40 150 36 145 28 134 26 131 16 112 14 104 14 84 15 71 16 66 18 61 30 34 32 30 37 21 42 14 46 10 51 6 59 0 189 0 "/><path d="M1 125 7 129 9 131 33 157 41 168 47 177 49 181 51 187 52 191 52 213 47 241 43 249 0 249 0 125 1 125 "/><path d="M129 202 152 203 157 205 159 206 166 210 174 215 183 222 185 225 188 230 190 234 197 249 53 249 54 246 66 228 72 222 84 213 86 212 96 208 99 207 118 203 127 202 129 202 "/><path d="M249 208 241 212 237 213 229 213 220 211 214 206 213 205 212 203 211 197 211 192 222 158 224 154 238 134 241 132 249 129 249 208 "/></svg>