<svg width="256" height="256" xmlns="http://www.w3.org/2000/svg" fill-opacity="0" stroke="black" stroke-width="3" ><path d="M150 44 161 46 166 48 172 51 173 52 177 57 180 61 200 88 201 90 201 109 194 141 191 149 190 151 187 156 173 177 159 191 153 195 151 196 136 203 131 205 111 210 102 211 98 208 79 191 70 182 64 175 62 171 59 164 56 154 55 150 55 131 56 124 58 117 66 96 67 94 75 83 103 55 110 52 131 45 137 44 150 44 "/><path d="M249 0 249 69 247 70 241 72 232 74 225 74 220 73 216 71 212 68 205 60 203 57 194 42 192 38 190 32 189 27 188 14 188 11 190 1 191 0 249 0 "/></svg>