<svg width="256" height="256" xmlns="http://www.w3.org/2000/svg" fill-opacity="0" stroke="black" stroke-width="3" ><path d="M143 0 157 3 161 4 164 6 170 11 174 15 229 88 230 90 238 108 240 114 242 121 247 149 247 164 246 166 238 178 178 240 148 249 90 249 82 246 50 216 49 214 54 159 80 7 82 5 88 3 111 0 143 0 "/><path d="M23 52 25 53 27 55 36 65 53 125 53 126 37 147 27 159 0 191 0 55 10 52 20 51 23 52 "/><path d="M249 0 249 54 242 54 220 47 196 34 189 29 189 7 192 0 249 0 "/><path d="M46 228 56 229 58 230 66 236 74 243 77 246 77 247 76 249 1 249 1 247 2 245 8 239 12 237 26 231 36 228 46 228 "/></svg>