<svg width="256" height="256" xmlns="http://www.w3.org/2000/svg" fill-opacity="0" stroke="black" stroke-width="3" ><path d="M146 50 147 51 206 133 206 136 198 157 189 175 176 191 175 192 163 199 154 203 148 205 143 206 129 208 125 208 107 206 101 205 98 204 91 201 75 189 62 176 56 169 53 164 46 149 44 144 42 138 41 133 39 121 39 118 41 102 43 94 46 83 48 76 49 74 50 73 52 72 132 48 146 50 "/><path d="M249 121 249 249 248 249 222 244 218 242 216 240 203 225 203 205 217 151 238 125 245 120 249 121 "/><path d="M219 0 219 1 218 3 215 7 208 14 205 16 201 18 198 19 194 20 185 21 182 21 173 19 169 18 154 13 148 8 143 3 142 0 219 0 "/><path d="M112 0 112 1 104 13 102 15 99 16 88 19 85 19 71 17 66 15 65 14 57 3 57 2 58 0 112 0 "/></svg>