<svg width="256" height="256" xmlns="http://www.w3.org/2000/svg" fill-opacity="0" stroke="black" stroke-width="3" ><path d="M82 32 109 45 114 48 124 56 127 59 127 67 118 82 117 83 91 107 76 116 72 117 16 106 0 84 0 65 1 63 6 58 20 46 24 43 26 42 40 38 80 32 82 32 "/><path d="M244 88 249 89 249 174 245 174 235 173 220 171 210 167 203 164 199 162 194 159 191 157 190 156 184 148 182 145 181 141 179 130 179 129 181 119 185 105 186 103 189 99 198 91 209 86 218 83 244 88 "/><path d="M60 201 71 203 90 214 93 218 111 247 112 249 0 249 0 219 2 218 53 201 60 201 "/></svg>