<svg width="256" height="256" xmlns="http://www.w3.org/2000/svg" fill-opacity="0" stroke="black" stroke-width="3" ><path d="M103 51 132 53 144 57 155 64 181 85 194 102 197 106 200 133 200 138 199 150 196 162 188 178 182 187 171 197 164 202 158 205 153 207 150 208 112 213 99 213 94 211 85 205 79 199 41 143 37 136 33 126 30 118 29 115 29 99 30 95 31 92 38 77 45 69 58 59 67 55 80 52 92 51 103 51 "/><path d="M249 0 249 46 238 63 228 75 226 77 220 80 206 83 203 82 200 80 178 51 174 36 173 32 171 23 171 21 172 15 173 12 175 10 191 0 249 0 "/><path d="M146 216 150 218 153 220 160 227 163 234 164 239 164 246 163 249 100 249 100 239 102 234 105 228 110 223 113 221 122 218 132 216 146 216 "/><path d="M8 200 18 205 21 207 22 208 33 220 34 222 34 223 31 237 30 239 28 241 16 249 0 249 0 199 2 198 8 200 "/><path d="M131 0 131 1 129 4 128 5 119 10 108 16 100 20 89 23 85 24 82 23 63 13 63 12 68 3 70 0 131 0 "/><path d="M4 140 13 149 24 162 26 166 26 174 25 176 22 179 18 182 3 190 0 191 0 139 4 140 "/></svg>