<svg width="256" height="256" xmlns="http://www.w3.org/2000/svg" fill-opacity="0" stroke="black" stroke-width="3" ><path d="M153 89 198 127 199 131 199 133 192 143 190 145 188 146 117 160 105 159 96 158 73 145 71 143 68 135 68 133 82 109 85 106 142 89 153 89 "/><path d="M175 167 179 171 183 178 184 188 184 189 172 203 170 205 137 207 136 207 110 203 106 202 97 199 87 195 79 191 71 183 68 177 69 174 80 166 171 165 175 167 "/><path d="M49 0 55 7 56 9 58 14 58 17 55 25 48 37 47 38 42 41 40 41 38 40 25 29 24 28 21 16 21 13 29 0 49 0 "/><path d="M121 34 125 42 124 48 121 64 113 65 112 65 105 61 89 48 87 46 87 45 88 44 96 39 112 35 117 34 121 34 "/></svg>