<svg width="256" height="256" xmlns="http://www.w3.org/2000/svg" fill-opacity="0" stroke="black" stroke-width="3" ><path d="M127 35 143 36 148 37 154 39 172 48 184 57 189 61 196 68 198 71 202 81 208 99 210 107 210 135 208 149 200 168 192 181 190 184 185 190 174 199 166 204 151 212 148 213 138 215 127 215 118 214 110 212 107 211 93 204 90 202 77 192 71 187 69 185 59 171 51 147 49 138 48 132 47 124 47 121 49 107 53 92 56 85 58 81 70 61 77 53 86 47 109 37 123 35 127 35 "/><path d="M249 229 246 236 242 241 240 243 235 246 220 246 215 244 213 243 210 241 203 236 197 227 195 217 195 212 197 207 201 200 206 194 215 185 249 165 249 229 "/></svg>