<svg width="256" height="256" xmlns="http://www.w3.org/2000/svg" fill-opacity="0" stroke="black" stroke-width="3" ><path d="M202 0 205 5 208 12 210 21 210 32 209 36 198 73 197 76 189 86 187 88 179 94 176 96 168 100 118 104 115 104 95 96 87 89 83 85 77 75 75 71 73 66 69 46 69 33 70 21 71 14 74 3 75 0 202 0 "/><path d="M140 177 168 191 197 209 200 211 204 215 208 229 208 230 207 232 187 249 151 249 149 248 119 221 101 200 101 198 106 174 107 173 117 169 140 177 "/><path d="M54 195 69 203 72 206 99 235 111 249 3 249 2 247 2 237 3 217 22 199 31 195 54 195 "/></svg>