<svg width="256" height="256" xmlns="http://www.w3.org/2000/svg" fill-opacity="0" stroke="black" stroke-width="3" ><path d="M163 14 166 15 171 17 177 20 183 24 194 35 205 52 209 61 210 65 211 77 211 78 204 102 203 105 200 110 177 141 156 166 155 167 151 170 144 174 134 178 115 183 101 180 72 168 70 167 62 158 58 151 56 145 55 140 54 123 54 108 55 105 57 101 74 70 101 39 102 38 112 31 139 19 151 15 155 14 163 14 "/><path d="M7 97 13 100 14 101 17 105 25 117 28 122 29 124 31 132 32 141 26 157 23 160 15 165 6 167 0 167 0 96 7 97 "/><path d="M162 0 161 1 153 6 115 25 108 28 101 28 98 26 96 24 84 4 84 0 162 0 "/><path d="M32 223 38 225 41 227 49 235 55 245 55 249 0 249 0 232 1 231 3 230 16 225 26 223 32 223 "/></svg>