<svg width="256" height="256" xmlns="http://www.w3.org/2000/svg" fill-opacity="0" stroke="black" stroke-width="3" ><path d="M137 69 147 71 156 77 161 81 173 92 177 97 185 109 195 137 195 140 194 149 193 157 189 165 183 174 175 184 169 190 166 192 161 195 147 202 142 202 118 198 104 191 80 153 72 137 71 126 71 121 75 94 79 85 83 81 86 79 104 70 111 69 137 69 "/><path d="M55 185 69 187 74 189 83 196 84 197 90 207 91 210 91 220 90 228 87 234 85 237 79 243 72 249 36 249 29 246 28 245 25 239 22 231 22 230 24 207 30 198 31 197 38 192 46 187 48 186 52 185 55 185 "/><path d="M181 200 187 201 190 202 192 204 198 211 201 217 201 219 200 228 199 234 198 237 197 239 193 245 189 249 138 249 137 239 140 232 147 217 149 213 151 211 162 205 177 200 181 200 "/></svg>