<svg width="256" height="256" xmlns="http://www.w3.org/2000/svg" fill-opacity="0" stroke="black" stroke-width="3" ><path d="M131 46 137 48 154 55 156 57 169 71 184 88 197 109 200 123 200 124 198 135 196 144 195 146 177 165 152 191 146 195 135 196 127 195 113 189 76 168 74 166 69 154 65 141 59 109 59 103 63 84 69 71 70 70 89 52 93 49 96 47 114 46 131 46 "/><path d="M211 170 216 172 218 173 221 175 224 178 226 181 226 191 224 197 222 200 184 249 175 249 152 239 149 222 149 221 150 217 155 209 162 198 167 193 186 175 189 173 191 172 196 170 211 170 "/><path d="M23 73 25 74 27 76 36 87 36 100 35 105 32 111 28 114 26 115 20 117 15 117 7 113 6 112 3 108 0 102 0 72 11 71 23 73 "/><path d="M119 0 128 1 134 4 134 15 132 17 128 19 123 21 110 23 106 23 70 9 69 8 66 0 119 0 "/><path d="M117 203 121 204 132 212 136 231 136 235 135 238 134 239 130 239 92 234 90 233 81 228 81 226 97 204 113 203 117 203 "/><path d="M245 215 249 216 249 247 248 249 216 249 213 244 213 239 214 237 216 234 217 233 237 215 245 215 "/><path d="M51 210 53 212 53 213 38 248 37 249 12 249 11 248 11 245 29 223 39 214 42 212 50 210 51 210 "/></svg>