<svg width="256" height="256" xmlns="http://www.w3.org/2000/svg" fill-opacity="0" stroke="black" stroke-width="3" ><path d="M132 4 139 6 145 9 186 36 192 40 201 47 208 53 210 57 215 70 221 87 222 92 222 93 221 101 220 106 215 123 211 135 207 141 202 145 199 147 166 168 161 171 154 174 151 175 142 177 123 177 118 176 109 173 100 169 97 167 86 158 76 148 68 139 58 127 58 62 62 46 64 41 66 37 70 32 78 24 99 12 105 9 111 7 130 4 132 4 "/><path d="M216 0 236 3 243 5 249 7 249 30 248 31 241 36 237 37 233 37 224 35 200 29 195 27 192 25 186 3 186 0 216 0 "/></svg>