<svg width="256" height="256" xmlns="http://www.w3.org/2000/svg" fill-opacity="0" stroke="black" stroke-width="3" ><path d="M130 40 135 42 142 45 144 46 172 61 175 63 179 66 186 73 192 81 194 84 196 88 202 104 204 122 204 134 202 142 201 145 198 153 188 174 184 178 178 183 174 186 165 192 163 193 154 197 151 198 139 201 120 204 117 204 98 203 83 199 71 193 65 188 62 184 51 165 47 151 45 133 44 116 45 108 53 89 61 74 85 50 88 48 103 41 110 40 130 40 "/><path d="M187 0 198 9 203 14 210 25 205 48 199 54 194 54 187 53 181 50 180 49 167 31 162 3 162 0 187 0 "/></svg>