<svg width="256" height="256" xmlns="http://www.w3.org/2000/svg" fill-opacity="0" stroke="black" stroke-width="3" ><path d="M151 55 160 57 165 59 169 63 172 67 193 127 200 161 200 165 197 170 193 174 183 183 165 193 132 210 130 211 127 211 101 207 90 204 52 189 46 185 45 184 37 175 36 173 36 171 37 143 38 128 41 114 43 106 44 103 53 85 67 65 69 63 93 48 95 47 151 55 "/><path d="M247 0 249 2 249 159 236 158 225 153 224 152 207 132 204 126 200 115 191 45 191 29 192 26 207 4 210 0 247 0 "/><path d="M202 191 209 193 224 199 231 204 246 217 246 219 242 245 237 249 136 249 134 234 134 233 141 215 142 214 145 212 153 208 181 196 193 192 198 191 202 191 "/><path d="M167 0 167 3 165 7 152 22 147 26 141 29 138 30 112 33 111 33 107 32 102 30 100 29 97 27 94 24 91 19 90 14 90 9 91 0 167 0 "/><path d="M91 213 100 218 107 223 108 224 112 229 118 243 118 249 53 249 53 244 54 239 56 234 58 230 64 223 70 218 77 215 85 213 91 213 "/></svg>