<svg width="256" height="256" xmlns="http://www.w3.org/2000/svg" fill-opacity="0" stroke="black" stroke-width="3" ><path d="M118 40 129 41 137 42 161 46 169 52 185 68 192 82 195 98 195 109 193 131 192 137 189 146 187 151 181 161 177 166 164 181 162 183 83 249 1 249 0 248 0 239 40 107 49 85 74 58 81 51 98 44 115 40 118 40 "/><path d="M249 198 239 191 223 179 210 155 206 138 206 137 208 130 224 98 232 92 235 90 249 87 249 198 "/><path d="M168 222 205 230 213 236 217 240 218 244 219 249 153 249 148 235 148 233 150 226 151 225 155 224 167 222 168 222 "/><path d="M229 0 230 5 230 7 229 11 225 22 221 26 215 28 213 28 206 27 203 23 201 20 200 0 229 0 "/><path d="M249 215 249 249 223 249 223 246 225 239 226 236 231 230 240 220 248 215 249 215 "/></svg>