<svg width="256" height="256" xmlns="http://www.w3.org/2000/svg" fill-opacity="0" stroke="black" stroke-width="3" ><path d="M119 24 131 25 139 26 153 30 158 32 166 36 169 38 176 44 196 63 198 65 200 68 209 82 210 84 211 87 215 100 218 112 223 133 224 139 224 159 222 169 218 178 212 191 208 197 190 217 188 219 179 225 170 229 155 235 149 237 143 238 132 238 122 237 110 235 104 233 99 231 91 227 85 223 74 213 61 201 57 197 51 190 46 184 33 166 27 154 24 145 21 124 21 106 23 95 25 89 27 84 31 75 34 70 37 66 45 56 49 52 59 44 63 41 75 33 84 30 98 27 103 26 116 24 119 24 "/></svg>