<svg width="256" height="256" xmlns="http://www.w3.org/2000/svg" fill-opacity="0" stroke="black" stroke-width="3" ><path d="M142 22 152 23 162 25 188 32 192 34 202 40 208 44 223 59 228 67 235 79 236 81 243 98 244 101 246 118 247 135 247 144 246 158 244 165 238 179 231 192 228 196 212 210 200 219 197 221 192 224 188 226 178 229 144 233 128 233 117 231 114 230 102 225 90 219 84 215 68 199 61 190 57 183 53 175 49 165 47 159 46 154 43 137 43 131 45 122 57 93 67 73 70 69 71 68 106 36 113 31 116 29 124 25 133 22 142 22 "/></svg>