<svg width="256" height="256" xmlns="http://www.w3.org/2000/svg" fill-opacity="0" stroke="black" stroke-width="3" ><path d="M90 21 201 177 201 179 198 182 139 233 137 233 87 230 81 229 73 225 54 215 51 213 35 199 33 197 11 165 9 161 9 156 13 139 39 58 42 54 47 48 54 42 61 37 87 21 90 21 "/><path d="M3 49 8 51 15 59 16 61 18 68 18 78 16 90 11 102 10 104 7 108 6 108 0 106 0 49 3 49 "/><path d="M249 177 249 184 209 215 205 217 199 217 195 213 194 211 195 208 201 202 206 198 214 192 218 190 247 177 249 177 "/></svg>