<svg width="256" height="256" xmlns="http://www.w3.org/2000/svg" fill-opacity="0" stroke="black" stroke-width="3" ><path d="M136 39 152 46 154 47 181 61 183 63 196 78 199 82 205 94 207 101 211 116 213 125 213 130 209 160 208 164 205 169 191 186 185 192 173 200 164 204 159 206 156 206 126 202 121 201 113 198 92 190 85 187 83 186 74 181 58 161 46 138 44 134 42 129 41 116 41 110 46 88 48 84 58 70 70 57 80 47 84 45 91 43 102 40 115 39 136 39 "/><path d="M199 0 202 3 200 4 155 24 95 35 89 36 82 36 58 32 41 27 25 20 23 18 6 0 199 0 "/></svg>