<svg width="256" height="256" xmlns="http://www.w3.org/2000/svg" fill-opacity="0" stroke="black" stroke-width="3" ><path d="M103 48 192 110 193 111 195 122 195 137 193 145 191 149 182 164 171 174 166 178 162 181 154 185 142 190 127 193 121 193 87 180 79 176 62 159 60 156 54 144 50 132 49 121 49 113 50 103 52 95 54 88 57 80 58 78 64 68 75 57 78 55 87 51 90 50 94 49 101 48 103 48 "/><path d="M20 131 45 156 51 163 53 166 57 174 59 179 61 187 62 196 62 203 60 214 59 218 39 244 37 246 6 246 0 244 0 136 11 130 14 129 20 131 "/></svg>