<svg width="256" height="256" xmlns="http://www.w3.org/2000/svg" fill-opacity="0" stroke="black" stroke-width="3" ><path d="M145 67 165 70 175 74 209 94 227 107 230 110 232 113 238 125 240 133 240 139 238 146 234 159 227 170 180 205 168 213 135 213 123 210 117 208 92 198 86 195 76 186 74 183 66 158 66 156 67 140 70 125 75 118 86 104 102 88 111 81 141 67 145 67 "/><path d="M73 0 81 4 85 7 90 12 96 19 100 27 102 33 102 47 98 59 93 65 87 71 81 76 77 79 74 81 70 83 62 84 51 84 35 76 30 71 24 64 21 59 18 43 18 41 24 27 32 15 38 9 46 3 70 0 73 0 "/><path d="M249 192 249 241 245 243 230 249 221 249 217 246 209 234 203 224 202 220 202 215 203 203 204 202 238 192 242 191 249 192 "/><path d="M66 107 67 113 67 116 63 131 61 134 56 141 47 150 39 155 37 155 26 152 25 151 31 132 35 124 43 116 47 113 57 108 60 107 66 107 "/></svg>