<svg width="256" height="256" xmlns="http://www.w3.org/2000/svg" fill-opacity="0" stroke="black" stroke-width="3" ><path d="M72 37 77 41 78 42 126 91 128 95 132 104 134 129 134 137 132 145 130 151 126 156 109 175 108 176 104 178 72 190 64 192 57 193 55 193 41 190 37 185 29 172 12 143 11 141 11 136 12 124 19 108 23 101 26 96 57 48 66 39 71 37 72 37 "/><path d="M249 121 248 122 243 121 222 111 220 110 215 106 213 104 213 102 214 70 219 51 222 46 226 40 247 18 249 16 249 121 "/><path d="M2 200 9 202 16 206 20 210 27 220 29 223 30 229 30 239 25 249 0 249 0 200 2 200 "/></svg>