<svg width="256" height="256" xmlns="http://www.w3.org/2000/svg" fill-opacity="0" stroke="black" stroke-width="3" ><path d="M135 70 151 74 158 77 166 82 173 87 182 94 188 99 204 115 206 118 207 120 210 129 213 142 214 147 215 168 215 183 214 198 210 213 208 220 202 240 198 249 56 249 55 248 51 242 47 234 45 229 41 216 41 211 42 201 45 177 55 118 57 110 93 72 94 71 126 70 135 70 "/><path d="M167 0 168 2 170 30 166 42 163 50 161 54 156 58 152 60 142 62 133 63 107 65 96 65 86 59 85 57 85 48 88 11 92 7 101 0 167 0 "/><path d="M31 104 51 114 52 115 52 116 40 164 21 187 13 191 0 193 0 111 15 107 30 104 31 104 "/><path d="M8 193 22 196 23 197 34 216 34 226 33 236 30 241 18 249 0 249 0 198 7 193 8 193 "/></svg>