<svg width="256" height="256" xmlns="http://www.w3.org/2000/svg" fill-opacity="0" stroke="black" stroke-width="3" ><path d="M150 57 152 58 153 59 181 95 191 109 201 143 201 154 200 156 180 188 170 198 153 203 146 205 128 206 127 206 112 204 104 201 92 196 80 189 67 173 55 156 46 138 45 135 45 119 47 110 55 98 69 83 81 73 85 71 88 70 105 65 148 57 150 57 "/><path d="M249 28 249 108 247 107 241 102 238 98 235 93 232 84 229 71 228 66 228 57 230 48 232 41 234 37 241 31 244 29 247 28 249 28 "/></svg>