<svg width="256" height="256" xmlns="http://www.w3.org/2000/svg" fill-opacity="0" stroke="black" stroke-width="3" ><path d="M158 13 167 17 178 23 179 24 189 35 195 44 199 51 200 53 204 63 209 79 209 80 208 163 204 168 192 181 191 182 188 184 146 203 124 211 119 212 117 212 104 210 93 208 75 202 63 194 48 179 45 175 41 169 41 163 43 125 53 88 66 71 96 42 123 25 132 20 150 13 158 13 "/><path d="M36 0 46 3 51 11 52 13 52 14 47 45 42 58 40 60 33 65 0 87 0 13 1 11 7 0 36 0 "/><path d="M249 132 249 214 248 214 245 213 243 212 237 208 232 203 228 195 227 192 220 164 225 154 229 149 234 143 239 138 247 131 249 132 "/><path d="M92 226 94 227 100 233 102 236 106 243 106 244 105 249 74 249 72 245 73 240 74 237 75 235 89 226 92 226 "/></svg>