<svg width="256" height="256" xmlns="http://www.w3.org/2000/svg" fill-opacity="0" stroke="black" stroke-width="3" ><path d="M211 126 213 131 214 135 223 212 215 231 202 249 99 249 88 248 87 247 14 160 12 157 8 148 7 145 5 137 4 131 3 112 5 109 10 104 18 97 26 91 96 44 211 126 "/><path d="M4 210 11 211 34 216 46 221 52 224 66 233 66 248 65 249 0 249 0 211 3 210 4 210 "/><path d="M66 0 66 1 63 8 62 9 45 24 36 31 8 45 2 47 0 47 0 0 66 0 "/><path d="M144 23 169 30 204 49 205 50 209 67 209 99 208 110 207 118 203 119 202 119 134 29 134 27 135 24 142 23 144 23 "/></svg>