<svg width="256" height="256" xmlns="http://www.w3.org/2000/svg" fill-opacity="0" stroke="black" stroke-width="3" ><path d="M129 57 135 58 143 61 153 65 157 67 174 77 184 87 187 91 191 97 196 105 203 122 203 130 202 139 200 148 194 166 191 173 189 176 173 193 154 210 144 214 124 218 91 218 85 216 81 214 18 182 0 171 0 123 73 75 84 68 88 66 95 63 111 58 119 57 129 57 "/><path d="M236 29 241 30 249 35 249 102 241 105 235 106 219 106 214 104 208 101 203 98 199 93 196 89 195 87 191 76 191 60 193 51 195 48 202 40 203 39 209 35 217 31 220 30 231 29 236 29 "/><path d="M249 206 241 207 227 199 223 195 222 193 221 188 220 181 220 168 222 158 225 148 233 135 241 127 245 125 249 124 249 206 "/></svg>