<svg width="256" height="256" xmlns="http://www.w3.org/2000/svg" fill-opacity="0" stroke="black" stroke-width="3" ><path d="M133 49 140 51 249 86 249 249 165 249 76 188 75 187 74 184 65 134 65 133 70 111 76 86 79 75 81 70 87 61 93 55 105 49 133 49 "/><path d="M66 0 68 7 68 20 67 24 66 27 61 35 55 40 45 47 38 49 25 49 16 48 10 44 7 41 0 33 0 0 66 0 "/><path d="M58 198 62 199 66 201 73 205 79 211 82 215 86 221 87 224 87 232 85 239 84 242 81 249 23 249 22 246 21 242 21 223 24 218 29 212 35 206 39 203 42 201 51 198 58 198 "/><path d="M9 67 32 101 38 114 38 115 30 142 29 143 5 155 0 153 0 68 4 64 6 63 9 67 "/></svg>