<svg width="256" height="256" xmlns="http://www.w3.org/2000/svg" fill-opacity="0" stroke="black" stroke-width="3" ><path d="M125 63 148 66 173 73 175 74 221 103 222 104 224 108 227 119 228 123 228 126 225 140 207 194 204 200 198 208 190 216 186 219 178 224 173 224 153 223 121 220 45 199 42 198 37 196 32 189 31 186 32 162 36 119 41 102 42 101 66 86 86 75 114 65 124 63 125 63 "/><path d="M238 0 243 3 245 5 249 29 249 54 242 54 221 52 212 51 210 50 189 20 186 10 188 0 238 0 "/><path d="M64 0 63 5 62 9 61 11 60 12 55 16 44 23 34 29 19 37 11 39 2 39 0 37 0 0 64 0 "/><path d="M102 13 120 14 126 15 131 16 140 19 157 28 162 31 165 33 175 40 179 43 184 47 185 52 185 53 183 58 180 59 61 48 59 47 57 44 57 39 59 36 66 31 89 18 98 14 101 13 102 13 "/><path d="M76 222 78 223 92 233 94 235 87 249 41 249 41 247 48 237 68 222 76 222 "/></svg>