<svg width="256" height="256" xmlns="http://www.w3.org/2000/svg" fill-opacity="0" stroke="black" stroke-width="3" ><path d="M89 63 117 65 119 66 139 77 142 79 143 80 150 88 162 105 165 110 170 122 179 149 180 167 170 187 165 194 150 205 140 212 133 216 129 218 108 226 96 228 79 228 65 224 60 222 53 217 40 205 39 204 29 192 23 181 20 173 17 160 16 153 15 139 15 126 16 116 17 113 18 111 29 93 35 86 40 81 46 76 49 74 56 70 62 67 68 65 80 63 89 63 "/><path d="M230 6 240 11 246 18 247 20 249 30 249 91 247 97 246 99 240 103 234 106 231 107 227 108 217 109 203 107 199 106 193 103 182 94 181 93 177 82 175 75 175 70 176 57 177 53 182 46 199 29 212 17 218 13 229 6 230 6 "/><path d="M150 0 157 1 157 3 156 13 152 17 122 37 115 39 108 40 102 40 79 38 65 34 59 32 43 24 39 21 29 11 27 8 23 0 150 0 "/><path d="M190 224 195 225 201 229 210 238 214 244 216 249 160 249 158 242 158 237 159 235 169 227 178 224 190 224 "/><path d="M249 210 249 249 225 249 224 246 223 238 223 235 224 230 225 226 228 222 237 213 241 211 246 210 249 210 "/></svg>