<svg width="256" height="256" xmlns="http://www.w3.org/2000/svg" fill-opacity="0" stroke="black" stroke-width="3" ><path d="M136 38 147 40 155 43 168 49 170 50 173 52 181 58 187 64 193 71 196 75 197 77 206 98 207 102 208 110 208 118 205 141 204 145 200 158 199 161 198 163 193 170 185 180 179 187 171 194 161 199 148 200 140 200 132 199 126 198 102 189 97 187 88 183 83 180 80 178 74 173 62 161 59 156 53 144 50 135 48 123 48 108 50 98 56 81 58 77 64 68 75 57 80 53 85 50 99 44 108 41 118 39 124 38 136 38 "/><path d="M86 203 143 210 151 213 160 240 157 242 144 249 14 249 6 245 0 233 0 207 1 204 5 194 86 203 "/></svg>