<svg width="256" height="256" xmlns="http://www.w3.org/2000/svg" fill-opacity="0" stroke="black" stroke-width="3" ><path d="M114 23 129 28 135 31 138 33 201 96 203 100 207 120 209 135 209 149 205 165 203 172 198 183 197 185 183 199 177 203 135 224 124 228 121 228 103 225 98 224 95 223 91 221 86 217 72 205 71 204 61 186 56 176 53 169 43 132 43 120 45 90 50 34 52 31 56 29 94 23 114 23 "/><path d="M2 104 5 105 7 106 10 108 11 109 24 125 27 130 29 134 38 163 22 227 21 229 17 235 14 235 9 234 6 233 0 229 0 104 2 104 "/></svg>