<svg width="256" height="256" xmlns="http://www.w3.org/2000/svg" fill-opacity="0" stroke="black" stroke-width="3" ><path d="M249 196 243 223 229 236 217 243 211 245 204 246 189 246 160 234 96 195 90 189 64 131 64 97 66 92 72 79 81 70 84 68 151 47 210 32 249 28 249 196 "/><path d="M90 0 94 38 94 39 92 45 91 47 89 50 87 52 85 53 68 53 59 51 24 30 20 27 16 2 16 0 90 0 "/><path d="M35 209 41 212 44 214 49 218 54 223 56 226 57 228 58 233 57 238 56 241 55 243 53 246 48 249 0 249 0 230 17 213 19 212 31 209 35 209 "/></svg>