<svg width="256" height="256" xmlns="http://www.w3.org/2000/svg" fill-opacity="0" stroke="black" stroke-width="3" ><path d="M93 0 190 82 191 83 194 89 206 114 212 128 212 131 211 134 208 142 170 188 150 193 102 195 100 195 71 191 65 190 62 189 50 181 0 143 0 0 93 0 "/><path d="M249 0 249 92 239 99 227 100 226 100 211 87 205 81 203 78 197 57 194 4 194 2 196 0 249 0 "/><path d="M190 0 190 4 188 19 184 25 175 31 165 33 156 33 144 32 134 26 127 21 123 18 117 10 115 3 115 2 116 0 190 0 "/><path d="M181 192 187 197 207 214 210 217 214 224 216 233 216 236 215 238 213 241 207 249 203 249 200 246 186 227 181 219 176 205 173 195 173 192 181 192 "/></svg>