<svg width="256" height="256" xmlns="http://www.w3.org/2000/svg" fill-opacity="0" stroke="black" stroke-width="3" ><path d="M162 0 181 3 185 7 186 9 187 12 205 87 205 99 201 110 200 112 196 118 190 125 188 127 184 130 182 131 139 150 130 152 124 153 122 153 116 152 90 145 84 142 68 130 62 123 58 117 54 106 52 100 48 86 45 73 45 67 46 57 50 45 56 32 57 30 61 26 86 4 92 0 162 0 "/><path d="M181 161 193 162 200 165 241 188 242 190 249 207 249 226 243 228 209 233 208 233 201 232 196 230 181 221 180 220 163 190 158 177 157 174 168 167 176 162 178 161 181 161 "/><path d="M245 26 249 36 249 57 243 61 236 65 233 65 230 64 214 41 212 35 215 32 238 26 245 26 "/></svg>