<svg width="256" height="256" xmlns="http://www.w3.org/2000/svg" fill-opacity="0" stroke="black" stroke-width="3" ><path d="M140 54 161 63 172 68 176 70 182 76 188 84 193 91 199 104 200 109 203 127 203 129 202 135 200 146 199 149 194 159 187 169 183 174 174 182 168 187 162 191 160 192 142 199 126 199 106 195 93 191 89 189 83 183 78 177 75 173 69 161 62 144 61 141 60 132 60 116 61 104 62 102 73 83 79 75 87 67 103 58 108 56 114 54 121 52 130 51 140 54 "/><path d="M142 0 135 14 134 15 118 27 103 33 85 39 59 31 49 26 45 22 40 16 31 0 142 0 "/><path d="M124 224 136 225 139 226 153 231 155 232 157 234 159 241 157 245 148 249 71 249 73 247 105 225 107 224 124 224 "/><path d="M203 11 228 14 234 17 239 25 243 35 240 38 235 38 219 37 211 33 209 31 202 21 202 11 203 11 "/></svg>