<svg width="256" height="256" xmlns="http://www.w3.org/2000/svg" fill-opacity="0" stroke="black" stroke-width="3" ><path d="M108 42 118 43 123 44 127 45 133 47 147 54 157 60 169 72 173 78 175 84 177 91 185 130 185 141 184 147 182 155 181 158 178 164 175 168 163 180 155 186 152 188 147 191 142 193 128 196 111 198 107 198 97 196 90 194 75 188 72 186 61 177 58 174 50 164 49 162 44 151 43 145 43 140 44 135 63 63 65 61 80 49 83 47 87 45 100 42 108 42 "/><path d="M179 195 186 196 189 197 203 206 206 208 210 211 212 213 219 224 220 232 221 243 221 247 220 249 127 249 118 248 118 241 119 226 120 223 172 197 177 195 179 195 "/><path d="M249 73 249 130 243 136 234 138 224 138 209 132 206 130 201 124 199 120 197 115 195 109 194 105 194 96 197 89 198 87 202 82 207 77 214 73 249 73 "/></svg>