<svg width="256" height="256" xmlns="http://www.w3.org/2000/svg" fill-opacity="0" stroke="black" stroke-width="3" ><path d="M241 14 248 16 249 17 249 84 245 175 241 190 240 192 209 231 197 240 194 241 189 242 171 243 133 243 114 228 110 224 108 221 104 211 96 131 89 53 89 52 90 47 93 40 98 33 99 32 106 27 111 24 113 23 118 22 126 21 236 14 241 14 "/><path d="M65 0 71 67 70 77 69 80 59 95 57 96 50 97 46 97 19 95 9 94 0 93 0 0 65 0 "/><path d="M15 118 18 120 31 130 39 137 44 142 47 147 49 151 49 169 48 174 47 178 41 195 40 197 27 221 24 226 23 227 13 234 5 234 2 233 0 231 0 113 15 118 "/><path d="M249 249 217 249 216 244 216 235 220 221 223 215 225 212 226 211 237 203 240 201 244 199 249 198 249 249 "/></svg>