<svg width="256" height="256" xmlns="http://www.w3.org/2000/svg" fill-opacity="0" stroke="black" stroke-width="3" ><path d="M135 43 170 55 203 84 204 85 217 108 218 111 223 128 224 137 224 141 191 211 189 214 157 223 148 224 127 226 122 226 119 225 112 220 51 173 50 171 47 162 46 158 43 142 43 139 44 109 45 102 52 83 59 75 67 66 79 56 85 53 107 46 111 45 121 43 135 43 "/><path d="M108 0 90 33 87 37 82 42 67 53 53 62 40 64 39 64 4 55 2 54 0 49 0 0 108 0 "/><path d="M218 9 234 15 235 16 249 31 249 77 248 77 244 76 195 62 187 55 184 45 184 35 185 31 204 13 208 10 211 9 218 9 "/><path d="M2 70 12 73 24 86 28 93 36 113 36 122 32 155 31 157 20 176 18 177 15 177 10 175 0 170 0 70 2 70 "/></svg>