<svg width="256" height="256" xmlns="http://www.w3.org/2000/svg" fill-opacity="0" stroke="black" stroke-width="3" ><path d="M148 46 173 55 179 61 193 82 195 86 213 139 213 142 205 168 203 174 202 176 200 178 186 188 182 190 155 194 99 184 93 182 81 177 75 174 62 161 61 159 57 149 54 140 54 139 55 124 57 111 58 106 62 97 77 73 80 69 88 60 100 49 128 45 148 46 "/><path d="M136 193 149 194 183 199 195 203 209 213 210 214 220 228 223 233 229 246 229 247 228 249 92 249 89 248 87 246 85 222 85 217 86 214 99 201 103 199 109 197 133 193 136 193 "/></svg>