<svg width="256" height="256" xmlns="http://www.w3.org/2000/svg" fill-opacity="0" stroke="black" stroke-width="3" ><path d="M150 37 169 43 175 47 182 52 183 53 203 74 215 107 216 111 217 116 217 127 216 132 215 136 208 152 206 155 205 156 138 214 135 216 126 217 123 217 115 216 108 214 106 213 94 205 39 166 34 162 31 159 28 154 26 150 25 147 24 142 27 112 30 94 32 90 34 87 40 79 48 70 60 57 62 55 64 54 76 50 144 37 150 37 "/><path d="M236 207 249 209 249 249 191 249 191 248 192 244 196 238 203 228 217 216 220 214 232 207 236 207 "/><path d="M12 215 29 217 69 225 71 226 71 228 61 249 3 249 0 221 0 216 11 215 12 215 "/></svg>