<svg width="256" height="256" xmlns="http://www.w3.org/2000/svg" fill-opacity="0" stroke="black" stroke-width="3" ><path d="M132 27 140 28 145 29 159 32 166 34 171 36 175 38 185 44 191 48 198 53 204 58 209 64 222 80 228 113 228 117 227 122 226 126 224 131 210 163 199 186 197 190 196 191 187 198 184 200 141 217 130 218 115 218 108 217 101 215 90 211 78 204 63 194 52 182 48 177 46 174 38 159 35 149 31 135 30 127 30 103 31 95 33 88 35 84 41 74 51 59 58 51 59 50 66 45 84 34 114 28 120 27 132 27 "/></svg>