<svg width="256" height="256" xmlns="http://www.w3.org/2000/svg" fill-opacity="0" stroke="black" stroke-width="3" ><path d="M155 11 162 13 181 20 183 21 198 33 211 57 212 59 247 142 249 147 249 221 248 222 114 232 111 232 91 228 88 227 72 220 57 208 38 191 33 186 23 161 22 157 22 148 23 112 25 88 34 65 51 41 65 29 81 21 109 9 113 8 120 7 131 6 155 11 "/><path d="M90 0 90 2 89 4 84 8 26 50 14 56 11 57 6 57 0 56 0 0 90 0 "/><path d="M4 72 7 78 13 91 14 94 21 122 19 137 14 151 8 165 6 165 0 164 0 66 4 72 "/></svg>