<svg width="256" height="256" xmlns="http://www.w3.org/2000/svg" fill-opacity="0" stroke="black" stroke-width="3" ><path d="M104 52 121 53 130 57 133 59 166 87 175 107 178 117 179 121 179 124 175 141 173 148 168 159 166 163 158 175 151 179 107 191 106 191 47 181 35 177 33 176 32 175 17 159 12 149 8 137 6 129 6 124 8 114 12 104 14 100 26 77 30 73 42 63 45 61 59 56 67 54 72 53 101 52 104 52 "/><path d="M232 14 249 17 249 86 247 87 246 87 230 83 227 82 204 66 202 64 199 59 198 55 204 34 206 28 210 22 214 18 226 14 232 14 "/><path d="M32 216 40 217 62 221 75 226 84 240 89 249 0 249 0 227 2 222 11 219 28 216 32 216 "/></svg>