<svg width="256" height="256" xmlns="http://www.w3.org/2000/svg" fill-opacity="0" stroke="black" stroke-width="3" ><path d="M155 25 165 26 172 27 179 29 189 33 211 44 217 48 227 56 232 61 235 65 238 70 242 77 244 81 246 87 249 106 249 126 246 146 242 158 222 178 218 181 210 186 202 190 180 200 172 203 161 206 143 207 140 207 125 204 121 203 107 198 103 196 69 177 66 175 62 171 61 169 57 159 47 122 47 119 57 90 58 88 61 83 67 74 71 69 95 45 115 31 120 29 131 25 155 25 "/><path d="M30 0 32 1 33 3 40 22 45 37 45 38 43 47 34 62 22 78 20 80 0 83 0 0 30 0 "/><path d="M205 216 214 217 219 219 222 221 231 230 234 234 235 245 234 249 179 249 179 241 180 237 181 234 183 229 184 227 187 224 195 219 199 217 202 216 205 216 "/></svg>