<svg width="256" height="256" xmlns="http://www.w3.org/2000/svg" fill-opacity="0" stroke="black" stroke-width="3" ><path d="M32 65 40 66 61 71 64 72 75 77 87 83 99 92 101 94 104 98 106 101 109 109 111 116 113 125 113 148 112 157 111 160 105 177 28 210 27 210 13 209 0 203 0 74 1 73 3 72 25 65 32 65 "/><path d="M158 79 227 86 231 88 244 101 246 105 249 115 249 146 246 155 244 158 243 159 239 161 213 167 202 169 193 167 187 165 169 157 163 153 158 149 146 139 144 137 138 128 135 123 135 105 136 100 138 94 143 84 144 83 152 79 158 79 "/><path d="M239 0 240 10 239 23 237 27 232 35 218 49 209 53 201 53 174 50 159 43 150 33 148 17 148 12 155 0 239 0 "/></svg>