<svg width="256" height="256" xmlns="http://www.w3.org/2000/svg" fill-opacity="0" stroke="black" stroke-width="3" ><path d="M142 56 158 58 161 60 182 76 195 88 197 91 200 97 201 100 201 143 200 147 197 157 195 162 191 169 184 179 181 183 174 190 169 193 165 195 153 199 140 201 120 201 111 197 101 192 98 190 91 185 87 182 83 178 74 167 72 162 68 151 64 139 62 128 61 121 61 117 64 102 68 94 77 79 78 78 104 64 109 62 115 60 134 56 142 56 "/><path d="M241 210 248 211 249 212 249 249 186 249 186 248 187 238 188 234 190 228 196 222 199 220 217 212 224 210 241 210 "/><path d="M6 142 8 144 10 147 11 149 13 155 14 160 15 170 15 174 12 180 9 185 2 194 1 195 0 195 0 137 6 142 "/></svg>