<svg width="256" height="256" xmlns="http://www.w3.org/2000/svg" fill-opacity="0" stroke="black" stroke-width="3" ><path d="M142 17 158 19 163 23 169 28 173 33 207 104 211 122 213 132 213 137 212 143 211 148 204 160 199 164 151 200 147 202 140 204 137 204 128 202 109 196 104 193 98 189 93 185 85 177 81 171 78 166 71 154 70 152 66 135 65 115 65 104 66 99 67 95 76 72 85 50 86 48 93 36 95 33 102 28 105 26 120 20 129 17 142 17 "/><path d="M211 177 225 182 230 184 232 185 235 187 239 190 245 196 246 198 249 205 249 233 245 246 242 249 162 249 156 237 154 229 154 221 155 216 158 208 162 202 172 190 178 184 187 180 209 177 211 177 "/></svg>