<svg width="256" height="256" xmlns="http://www.w3.org/2000/svg" fill-opacity="0" stroke="black" stroke-width="3" ><path d="M111 24 122 25 125 26 130 28 140 33 157 43 160 45 182 62 187 66 202 80 207 86 210 92 213 99 224 130 224 133 223 141 221 150 220 154 219 157 216 164 212 172 206 181 201 188 192 197 189 199 180 204 178 205 170 207 147 211 140 212 124 212 113 211 105 210 90 207 84 205 68 199 64 197 53 189 41 177 39 173 38 170 37 156 37 141 38 116 41 97 45 87 56 63 60 55 68 46 70 44 82 34 85 32 92 28 96 26 106 24 111 24 "/><path d="M249 0 249 67 237 71 233 71 220 69 195 55 183 47 136 13 135 12 128 1 128 0 249 0 "/></svg>