<svg width="256" height="256" xmlns="http://www.w3.org/2000/svg" fill-opacity="0" stroke="black" stroke-width="3" ><path d="M145 57 149 59 170 75 190 105 196 241 196 245 195 249 72 249 38 137 45 118 80 80 141 57 145 57 "/><path d="M249 127 249 205 237 205 234 204 226 200 219 196 209 188 207 185 206 179 205 169 205 166 213 144 229 133 241 128 244 127 249 127 "/><path d="M103 5 119 15 121 17 123 20 126 35 126 38 121 49 114 56 108 60 106 61 94 61 84 60 78 57 76 54 75 52 73 47 72 44 71 39 74 22 75 20 77 17 88 8 100 5 103 5 "/><path d="M195 0 203 3 205 5 205 16 204 18 200 22 198 23 195 24 186 26 181 26 164 20 161 18 142 0 195 0 "/><path d="M4 82 12 86 20 94 24 102 25 105 26 113 26 117 23 123 19 126 16 128 12 130 9 131 3 132 0 132 0 81 4 82 "/></svg>