<svg width="256" height="256" xmlns="http://www.w3.org/2000/svg" fill-opacity="0" stroke="black" stroke-width="3" ><path d="M239 0 244 5 248 11 249 13 249 42 247 60 220 94 210 101 198 106 108 132 94 134 85 134 73 132 66 130 54 124 44 118 38 114 33 110 31 108 21 96 17 90 16 88 14 81 12 70 12 66 90 0 239 0 "/><path d="M234 184 237 185 244 188 247 191 249 195 249 226 247 230 239 238 237 239 234 240 223 241 222 241 217 240 215 239 211 236 204 228 200 218 199 213 199 210 201 204 203 200 206 196 211 192 214 190 223 186 233 184 234 184 "/><path d="M194 249 93 249 95 244 96 242 99 239 107 234 128 224 139 220 143 220 168 222 171 223 173 224 178 227 185 233 191 241 194 249 "/><path d="M30 141 32 160 32 161 18 172 4 180 3 180 0 177 0 107 30 141 "/></svg>