<svg width="256" height="256" xmlns="http://www.w3.org/2000/svg" fill-opacity="0" stroke="black" stroke-width="3" ><path d="M163 40 176 42 185 47 188 49 213 66 217 71 223 80 230 104 230 123 217 169 199 195 183 211 177 216 173 219 164 224 162 225 140 231 127 232 0 233 0 66 124 40 163 40 "/><path d="M245 193 249 194 249 249 178 249 178 248 191 229 202 217 210 210 217 205 229 198 231 197 236 195 244 193 245 193 "/><path d="M199 0 192 14 184 25 124 31 118 31 109 23 108 22 100 13 96 8 94 1 94 0 199 0 "/></svg>