<svg width="256" height="256" xmlns="http://www.w3.org/2000/svg" fill-opacity="0" stroke="black" stroke-width="3" ><path d="M139 71 150 72 172 76 175 77 178 79 183 84 185 87 192 98 204 119 214 150 214 152 211 157 202 168 181 192 178 194 171 198 155 206 148 208 130 210 126 210 124 209 72 154 72 141 75 118 81 107 83 104 85 102 108 82 111 80 129 71 139 71 "/><path d="M4 86 27 99 31 105 34 110 39 124 41 130 41 132 39 151 34 159 30 164 28 166 20 173 18 174 6 178 2 179 0 179 0 85 4 86 "/><path d="M197 0 193 8 191 11 177 25 170 31 160 38 146 39 127 32 125 31 116 26 111 21 105 12 101 0 197 0 "/><path d="M249 192 249 240 247 240 235 234 231 229 229 224 228 219 228 217 229 210 231 206 234 202 241 195 247 192 249 192 "/></svg>