<svg width="256" height="256" xmlns="http://www.w3.org/2000/svg" fill-opacity="0" stroke="black" stroke-width="3" ><path d="M117 29 130 33 147 43 178 69 179 70 193 85 208 115 209 119 210 133 210 148 209 152 207 158 203 168 201 172 194 180 180 194 158 206 149 209 145 210 136 212 126 211 118 210 86 198 82 196 79 194 52 170 50 168 46 162 40 150 38 126 39 110 48 83 50 78 58 66 70 50 71 49 82 39 90 35 100 31 108 29 117 29 "/><path d="M58 209 73 214 75 216 81 224 87 235 88 237 89 242 88 249 1 249 1 247 8 231 10 227 12 224 14 222 29 213 37 209 58 209 "/><path d="M6 23 17 24 20 27 27 40 25 44 23 46 18 50 16 51 9 54 3 56 0 56 0 24 3 23 6 23 "/></svg>