<svg width="256" height="256" xmlns="http://www.w3.org/2000/svg" fill-opacity="0" stroke="black" stroke-width="3" ><path d="M118 45 124 46 137 49 140 50 148 53 150 54 173 68 175 70 184 83 185 85 197 112 198 115 199 120 200 128 200 138 199 152 195 166 192 174 191 176 189 179 185 184 183 186 178 190 175 192 163 198 147 204 131 208 123 208 96 201 92 199 89 195 67 165 60 153 50 103 50 92 52 81 54 71 55 69 57 67 68 58 78 51 81 49 86 47 96 45 118 45 "/><path d="M249 0 249 125 248 126 238 127 234 127 226 125 220 122 206 108 200 92 197 77 197 73 199 0 249 0 "/><path d="M5 63 12 65 14 66 20 72 31 84 37 93 39 101 40 119 39 132 35 153 33 160 30 162 9 165 2 165 0 164 0 63 5 63 "/><path d="M240 159 249 164 249 208 247 209 244 210 232 210 229 209 223 205 222 204 214 192 213 190 213 179 214 174 215 172 217 169 218 168 227 160 237 159 240 159 "/><path d="M5 178 7 179 12 185 14 188 22 204 22 249 0 249 0 179 3 178 5 178 "/></svg>