<svg width="256" height="256" xmlns="http://www.w3.org/2000/svg" fill-opacity="0" stroke="black" stroke-width="3" ><path d="M127 46 132 47 167 58 180 67 186 73 191 79 193 82 199 92 203 101 205 107 209 124 209 146 204 157 199 166 195 172 187 180 167 192 163 194 142 197 126 199 123 199 113 198 99 190 90 184 77 173 75 171 68 161 59 148 56 143 54 136 52 125 52 119 56 101 58 94 60 88 62 83 63 81 72 69 78 63 92 53 104 49 116 47 126 46 127 46 "/><path d="M28 174 44 180 47 182 55 190 63 206 65 211 66 214 67 230 67 239 62 249 0 249 0 179 19 174 28 174 "/><path d="M155 201 164 202 171 205 187 213 190 215 191 216 195 222 196 226 200 247 200 249 113 249 109 247 108 245 107 241 107 240 108 226 109 223 110 221 125 206 128 204 132 202 138 201 155 201 "/><path d="M249 0 249 51 248 51 246 50 241 45 234 37 232 34 228 23 225 11 224 1 224 0 249 0 "/><path d="M249 162 248 162 244 160 240 155 234 132 234 127 238 114 243 104 248 98 249 97 249 162 "/></svg>