<svg width="256" height="256" xmlns="http://www.w3.org/2000/svg" fill-opacity="0" stroke="black" stroke-width="3" ><path d="M143 80 181 118 183 122 193 147 195 170 195 186 191 196 188 203 187 205 184 209 171 221 165 226 157 231 144 236 142 236 94 233 77 227 74 225 54 209 39 194 37 190 29 173 28 165 28 164 29 151 33 132 40 120 46 110 50 105 68 90 78 84 90 80 132 76 143 80 "/><path d="M39 0 50 35 50 36 45 61 37 87 33 94 14 125 9 131 2 135 1 135 0 132 0 0 39 0 "/><path d="M113 0 115 7 116 11 116 12 115 22 113 28 112 30 109 35 108 36 103 40 92 47 80 49 75 49 68 47 63 44 56 38 50 26 48 21 46 8 46 3 47 0 113 0 "/><path d="M187 0 185 6 183 11 175 29 174 31 154 31 146 29 140 27 128 15 123 6 122 4 121 1 121 0 187 0 "/><path d="M10 150 14 154 19 164 19 173 17 179 13 185 8 190 4 193 0 193 0 145 10 150 "/></svg>