<svg width="256" height="256" xmlns="http://www.w3.org/2000/svg" fill-opacity="0" stroke="black" stroke-width="3" ><path d="M106 26 154 35 194 44 211 62 214 132 214 138 204 171 201 176 158 225 72 206 69 205 66 203 53 194 39 183 32 171 27 161 26 158 18 111 18 110 25 85 27 81 37 63 50 50 66 38 75 32 83 28 90 26 94 25 106 26 "/><path d="M249 170 249 249 205 249 204 246 204 245 208 182 209 181 214 177 234 170 241 168 249 170 "/><path d="M246 48 249 54 249 159 248 159 245 158 236 152 223 141 220 120 219 112 218 87 221 75 227 63 235 55 245 48 246 48 "/><path d="M249 0 249 4 246 18 243 22 237 26 228 26 217 24 215 23 214 22 203 8 200 4 199 2 199 0 249 0 "/><path d="M127 224 144 226 149 230 150 231 157 239 158 241 160 247 160 249 110 249 111 247 125 224 127 224 "/><path d="M8 86 12 87 13 88 18 102 18 103 17 108 15 116 6 134 0 142 0 99 6 87 7 86 8 86 "/><path d="M96 230 104 238 104 242 102 249 71 249 71 246 72 241 73 239 75 236 77 234 82 230 89 229 96 230 "/></svg>