<svg width="256" height="256" xmlns="http://www.w3.org/2000/svg" fill-opacity="0" stroke="black" stroke-width="3" ><path d="M249 0 249 54 248 56 245 58 236 62 230 63 213 65 207 64 201 62 179 54 118 30 113 28 110 26 103 19 99 14 97 11 95 7 94 1 94 0 249 0 "/><path d="M30 115 32 117 54 156 62 179 63 183 63 195 62 198 56 207 51 212 12 225 7 225 5 223 0 216 0 131 28 115 30 115 "/><path d="M149 92 162 96 167 99 180 110 184 114 185 116 185 121 177 184 175 187 168 196 166 198 160 201 159 201 93 168 89 164 83 134 83 133 95 106 98 105 146 92 149 92 "/><path d="M224 108 230 109 233 110 240 113 245 119 246 122 246 144 244 170 240 174 234 179 230 182 226 184 220 184 212 182 207 180 203 178 196 171 194 168 193 164 193 153 195 145 197 138 202 123 205 117 211 111 215 109 218 108 224 108 "/><path d="M64 0 60 11 57 14 48 21 42 24 34 24 13 18 0 10 0 0 64 0 "/><path d="M98 65 110 68 111 69 112 76 112 83 74 131 72 130 70 128 66 122 64 118 64 107 67 91 68 89 73 81 88 69 96 65 98 65 "/></svg>