<svg width="256" height="256" xmlns="http://www.w3.org/2000/svg" fill-opacity="0" stroke="black" stroke-width="3" ><path d="M121 20 131 21 137 22 152 26 162 30 166 32 177 38 184 44 194 53 198 57 221 107 222 110 225 134 225 137 224 144 223 149 222 153 216 170 211 178 206 185 200 193 196 197 188 204 182 208 177 211 166 217 156 221 82 249 0 249 0 168 14 108 15 104 18 93 19 91 27 78 41 58 43 56 53 49 59 46 107 24 117 20 121 20 "/><path d="M249 27 249 110 248 110 238 108 232 105 227 100 222 92 219 87 217 83 215 78 214 71 214 69 238 35 239 34 246 28 248 27 249 27 "/><path d="M7 0 12 8 20 22 22 26 25 36 26 42 27 53 27 59 26 61 1 72 0 72 0 13 2 2 5 0 7 0 "/></svg>