<svg width="256" height="256" xmlns="http://www.w3.org/2000/svg" fill-opacity="0" stroke="black" stroke-width="3" ><path d="M146 50 179 58 182 59 189 64 190 65 202 78 203 80 206 91 206 99 192 181 190 185 156 199 151 201 144 203 127 207 114 207 110 205 99 199 85 190 74 181 72 179 63 162 62 160 53 140 52 109 54 104 60 91 61 89 78 72 89 63 93 61 96 60 115 54 131 49 146 50 "/><path d="M189 199 197 200 209 202 211 203 221 212 226 217 231 223 232 225 233 229 235 240 235 249 145 249 145 247 146 236 148 229 151 221 159 212 164 208 167 206 175 202 184 199 189 199 "/><path d="M214 0 215 3 215 4 213 14 212 17 209 22 206 26 200 33 192 38 185 42 179 45 171 47 165 47 159 46 154 45 141 40 136 38 133 35 127 28 125 25 122 17 121 14 120 7 120 3 121 0 214 0 "/><path d="M227 134 230 135 233 137 240 144 249 157 249 210 246 213 239 211 228 206 224 203 222 201 212 187 209 178 206 163 206 154 207 147 209 144 219 134 227 134 "/><path d="M249 0 249 61 247 60 225 38 221 25 229 13 239 3 245 0 249 0 "/></svg>