<svg width="256" height="256" xmlns="http://www.w3.org/2000/svg" fill-opacity="0" stroke="black" stroke-width="3" ><path d="M144 46 146 47 156 53 164 61 174 76 183 100 192 138 193 162 180 180 179 181 173 186 129 210 125 212 106 213 105 213 80 212 70 208 39 190 33 184 31 181 30 179 27 168 25 159 24 129 27 115 34 94 43 85 118 46 144 46 "/><path d="M131 0 131 2 126 17 110 36 98 49 94 53 65 68 50 71 44 72 22 72 17 71 13 70 6 68 0 65 0 0 131 0 "/><path d="M176 193 204 201 208 204 218 213 220 226 220 228 218 249 143 249 142 247 142 242 143 234 145 229 160 199 161 198 172 193 176 193 "/><path d="M212 0 212 4 211 9 210 12 208 15 204 19 196 24 181 30 170 30 164 25 163 24 157 17 156 14 155 9 155 8 157 0 212 0 "/></svg>