<svg width="256" height="256" xmlns="http://www.w3.org/2000/svg" fill-opacity="0" stroke="black" stroke-width="3" ><path d="M112 58 131 59 137 61 142 64 157 74 161 78 178 96 180 100 192 141 194 149 194 156 192 165 189 176 188 179 184 188 180 193 168 206 165 208 160 211 156 213 140 219 126 222 109 222 89 217 84 215 82 214 78 211 62 197 59 194 55 189 53 186 48 178 45 173 41 139 41 134 42 126 43 122 44 119 51 106 69 82 73 78 78 74 86 69 96 63 110 58 112 58 "/><path d="M7 12 17 14 40 26 42 28 46 34 56 54 56 62 50 77 48 81 25 106 16 113 11 115 5 116 3 116 0 115 0 12 7 12 "/><path d="M175 0 177 7 177 14 176 16 171 22 157 36 151 39 147 37 121 21 117 17 117 5 118 0 175 0 "/><path d="M111 0 111 1 109 15 104 20 100 23 79 34 77 35 73 35 70 33 69 32 51 7 49 4 49 0 111 0 "/><path d="M17 134 24 140 26 144 28 158 26 165 24 170 21 175 19 178 14 183 12 184 8 185 0 185 0 136 10 134 17 134 "/></svg>