<svg width="256" height="256" xmlns="http://www.w3.org/2000/svg" fill-opacity="0" stroke="black" stroke-width="3" ><path d="M155 49 162 51 173 55 175 56 187 63 192 66 208 91 209 94 210 98 214 115 216 135 216 137 215 145 206 166 197 186 196 188 192 194 189 198 185 203 177 211 172 214 158 222 149 227 147 228 138 231 133 232 111 236 106 236 93 232 84 228 76 223 67 217 53 203 47 195 46 193 36 170 32 160 30 148 30 142 31 129 32 124 36 113 42 102 56 79 57 78 63 73 73 65 76 63 81 60 94 55 100 53 113 50 119 49 136 47 155 49 "/><path d="M249 0 249 24 247 25 242 27 210 35 201 33 199 32 167 14 165 12 165 11 175 0 249 0 "/></svg>