<svg width="256" height="256" xmlns="http://www.w3.org/2000/svg" fill-opacity="0" stroke="black" stroke-width="3" ><path d="M105 28 125 30 136 35 146 40 154 46 161 52 167 58 175 69 177 72 184 83 189 96 191 105 191 137 189 146 186 155 181 166 177 174 171 184 161 199 159 201 135 213 128 216 125 217 118 219 112 220 104 220 90 218 86 217 75 208 66 200 65 199 55 188 48 179 37 161 36 159 32 148 31 145 30 141 29 126 29 125 32 95 40 78 47 65 53 57 68 41 80 33 83 32 90 30 98 28 105 28 "/><path d="M235 0 249 6 249 82 243 83 236 83 208 79 206 78 196 72 187 63 172 45 154 23 150 15 150 11 153 0 235 0 "/><path d="M79 0 81 4 81 6 72 22 34 84 24 93 22 92 5 80 4 79 4 78 8 54 40 0 79 0 "/><path d="M249 113 249 177 247 177 243 176 240 175 237 173 226 159 222 153 221 132 223 129 226 125 237 118 242 115 246 113 249 113 "/></svg>