<svg width="256" height="256" xmlns="http://www.w3.org/2000/svg" fill-opacity="0" stroke="black" stroke-width="3" ><path d="M149 61 155 62 171 66 175 68 190 82 194 89 195 91 202 110 206 122 206 125 205 135 203 147 197 163 195 166 189 174 170 193 164 197 152 203 145 204 136 205 132 205 121 203 111 199 103 194 83 177 80 173 73 161 69 153 67 148 63 136 62 122 62 120 63 114 65 108 67 106 145 61 149 61 "/><path d="M33 224 40 227 46 232 48 234 55 248 55 249 6 249 0 245 0 226 6 220 8 219 33 224 "/></svg>