<svg width="256" height="256" xmlns="http://www.w3.org/2000/svg" fill-opacity="0" stroke="black" stroke-width="3" ><path d="M239 76 240 78 240 79 197 150 195 153 192 157 190 158 173 166 114 189 112 189 78 182 77 181 54 152 52 149 51 146 48 111 48 106 59 49 65 43 69 41 209 36 239 76 "/><path d="M244 145 249 147 249 235 245 236 235 235 225 230 219 226 218 225 210 201 206 179 212 165 217 158 218 157 224 154 243 145 244 145 "/><path d="M19 208 38 218 46 223 50 226 54 230 61 244 62 247 62 249 0 249 0 217 5 210 7 208 13 207 19 208 "/><path d="M191 0 194 9 190 13 172 22 163 22 150 21 135 12 133 10 129 5 128 3 127 0 191 0 "/></svg>