<svg width="256" height="256" xmlns="http://www.w3.org/2000/svg" fill-opacity="0" stroke="black" stroke-width="3" ><path d="M155 49 161 50 166 51 169 52 184 60 201 72 202 74 212 96 214 102 216 110 216 112 214 125 213 131 210 145 199 166 197 169 178 188 169 194 162 198 143 207 132 208 131 208 118 207 106 205 95 203 86 199 71 187 59 173 53 164 49 155 46 146 45 140 44 132 43 120 54 94 57 87 66 70 68 67 69 66 75 62 79 61 116 54 144 50 154 49 155 49 "/><path d="M12 0 24 4 26 5 27 6 36 18 42 33 43 36 44 40 44 50 42 60 40 64 35 71 11 98 4 101 0 101 0 0 12 0 "/><path d="M163 0 159 7 156 12 130 38 128 39 123 41 106 42 98 42 91 41 83 39 68 31 60 16 57 4 57 0 163 0 "/></svg>