<svg width="256" height="256" xmlns="http://www.w3.org/2000/svg" fill-opacity="0" stroke="black" stroke-width="3" ><path d="M172 39 178 41 188 45 198 53 211 66 219 78 226 92 231 108 232 119 233 134 233 144 232 152 231 159 229 166 228 169 225 175 216 189 202 203 183 216 172 221 169 222 156 225 142 228 127 227 116 225 106 223 89 217 79 213 77 212 55 197 48 190 42 183 40 180 34 169 19 124 0 50 0 7 5 6 172 39 "/><path d="M1 171 4 174 7 179 8 181 24 215 24 216 23 219 21 223 19 226 18 227 13 231 10 233 4 235 0 234 0 171 1 171 "/></svg>