<svg width="256" height="256" xmlns="http://www.w3.org/2000/svg" fill-opacity="0" stroke="black" stroke-width="3" ><path d="M199 53 208 69 208 70 202 89 201 90 149 132 146 131 134 123 102 91 102 87 180 39 199 53 "/><path d="M4 165 19 167 26 172 34 182 36 187 36 204 33 217 32 219 30 222 28 224 10 240 2 242 0 242 0 167 3 165 4 165 "/><path d="M119 0 115 12 90 82 85 86 82 85 80 84 78 82 71 46 72 20 87 1 89 0 119 0 "/><path d="M15 69 21 70 23 72 28 78 30 81 32 87 32 96 26 105 25 106 22 108 18 110 6 113 5 112 0 106 0 69 15 69 "/><path d="M249 127 249 190 244 190 240 188 234 182 231 177 228 170 227 164 227 159 229 150 236 137 242 131 246 128 248 127 249 127 "/><path d="M208 122 213 123 217 125 221 130 222 134 222 136 219 150 218 154 214 158 205 158 201 156 193 148 187 139 185 133 185 130 187 124 190 122 194 120 208 122 "/></svg>