<svg width="256" height="256" xmlns="http://www.w3.org/2000/svg" fill-opacity="0" stroke="black" stroke-width="3" ><path d="M153 21 159 22 167 24 176 28 185 35 196 45 199 48 209 60 216 72 217 74 224 94 226 106 226 111 225 123 223 134 222 139 220 148 209 171 207 174 186 200 182 204 176 209 171 213 169 214 166 215 144 220 132 221 124 221 107 219 0 201 0 93 101 29 105 27 112 25 117 24 131 22 139 21 153 21 "/><path d="M244 163 246 164 247 165 249 169 249 249 195 249 193 247 179 225 178 221 177 214 177 213 200 186 207 180 234 166 240 163 244 163 "/></svg>