<svg width="256" height="256" xmlns="http://www.w3.org/2000/svg" fill-opacity="0" stroke="black" stroke-width="3" ><path d="M152 0 172 3 175 4 180 8 184 12 192 21 198 28 206 40 208 44 214 62 218 91 216 121 186 203 184 206 183 207 165 217 152 223 149 224 144 225 135 226 134 226 119 223 115 221 99 209 89 201 77 190 75 188 73 185 69 84 69 82 72 63 92 15 93 13 94 12 107 4 114 0 152 0 "/><path d="M249 188 249 233 242 242 240 244 234 249 204 249 201 241 201 237 204 201 207 191 211 181 212 179 213 178 220 174 233 173 249 188 "/><path d="M241 86 249 95 249 178 222 153 216 144 216 140 224 98 229 90 236 85 238 84 241 86 "/><path d="M74 36 77 38 77 40 60 88 51 89 50 89 40 88 39 86 39 79 41 74 47 63 57 48 68 37 70 36 74 36 "/></svg>