<svg width="256" height="256" xmlns="http://www.w3.org/2000/svg" fill-opacity="0" stroke="black" stroke-width="3" ><path d="M130 35 176 44 179 45 190 50 200 55 215 75 225 105 226 110 226 118 223 130 219 141 215 147 207 155 202 159 199 161 186 169 174 173 162 176 150 177 148 177 133 171 129 169 116 160 112 157 106 151 102 146 100 143 94 133 92 128 72 47 129 35 130 35 "/><path d="M212 167 216 168 222 171 225 173 232 181 238 190 242 197 243 199 246 206 249 224 249 249 154 249 155 233 156 227 158 221 161 213 165 203 168 198 172 192 180 184 196 172 206 167 212 167 "/><path d="M31 147 44 154 47 156 52 161 55 166 58 172 59 177 59 199 57 206 55 211 50 220 48 223 38 233 31 237 26 239 11 243 6 243 0 241 0 148 3 147 8 146 31 147 "/><path d="M121 0 122 4 122 6 119 13 117 17 115 20 109 26 105 29 102 31 94 33 85 31 79 28 71 19 70 17 69 4 69 0 121 0 "/><path d="M57 0 59 2 60 4 60 9 57 18 56 20 55 21 7 29 5 29 0 27 0 0 57 0 "/></svg>