<svg width="256" height="256" xmlns="http://www.w3.org/2000/svg" fill-opacity="0" stroke="black" stroke-width="3" ><path d="M115 82 156 89 181 108 200 136 204 146 204 149 185 178 183 181 135 226 109 249 93 249 83 243 78 239 75 236 74 234 73 231 47 118 47 113 48 110 50 107 55 102 58 100 62 98 107 82 115 82 "/><path d="M212 0 216 3 217 23 217 24 216 28 212 39 208 47 204 53 192 65 189 67 172 77 168 79 165 80 159 81 154 81 146 78 143 76 141 74 137 69 135 66 134 64 127 47 124 38 123 34 123 32 125 12 132 1 133 0 212 0 "/><path d="M2 123 21 128 31 133 34 136 36 139 44 152 44 156 40 193 39 198 37 202 19 220 17 221 8 225 5 225 1 224 0 223 0 123 2 123 "/><path d="M230 1 234 2 239 4 248 8 249 9 249 71 241 59 227 33 225 29 224 24 224 4 225 2 227 1 230 1 "/></svg>