<svg width="256" height="256" xmlns="http://www.w3.org/2000/svg" fill-opacity="0" stroke="black" stroke-width="3" ><path d="M85 61 112 64 164 74 170 77 178 85 185 93 190 99 198 111 208 127 214 138 214 168 209 176 203 184 194 195 189 200 174 213 172 214 164 217 150 220 144 220 128 219 114 218 27 145 23 141 19 125 19 117 21 98 38 79 64 61 85 61 "/><path d="M249 157 244 155 242 154 239 150 230 136 226 119 224 110 225 97 226 93 227 91 233 80 235 78 249 69 249 157 "/><path d="M216 213 230 214 240 218 240 224 232 236 213 249 161 249 161 243 163 239 171 231 177 227 215 213 216 213 "/><path d="M140 0 140 2 137 7 131 12 126 16 116 19 103 21 101 21 74 18 62 16 55 7 50 0 140 0 "/></svg>