<svg width="256" height="256" xmlns="http://www.w3.org/2000/svg" fill-opacity="0" stroke="black" stroke-width="3" ><path d="M109 49 133 50 138 53 187 104 190 108 193 113 198 123 198 129 177 151 172 154 155 164 153 165 150 166 95 171 73 172 72 172 71 171 66 164 61 141 61 140 88 61 90 57 95 52 107 49 109 49 "/><path d="M10 123 13 124 38 134 42 136 47 141 50 145 53 153 54 165 55 179 53 185 52 187 50 190 31 205 19 210 15 210 11 209 9 208 0 202 0 128 1 125 9 123 10 123 "/><path d="M249 162 249 249 247 249 215 233 207 225 206 223 202 213 202 209 203 207 205 204 222 186 247 162 249 162 "/><path d="M237 0 238 2 238 29 227 43 224 45 218 42 206 32 205 31 207 26 226 5 231 0 237 0 "/></svg>