<svg width="256" height="256" xmlns="http://www.w3.org/2000/svg" fill-opacity="0" stroke="black" stroke-width="3" ><path d="M138 29 168 35 176 43 207 118 207 127 205 136 201 149 198 155 182 175 180 177 171 183 139 196 115 204 112 204 87 202 85 201 62 166 56 156 49 142 47 134 48 121 50 98 62 73 70 61 73 57 92 38 96 35 98 34 101 33 106 32 114 31 137 29 138 29 "/><path d="M220 14 222 15 235 22 240 27 243 31 249 41 249 110 245 120 244 121 241 121 231 119 225 116 217 110 210 104 197 91 193 79 186 57 185 52 184 46 184 45 185 41 190 29 192 25 195 22 198 20 207 15 210 14 220 14 "/><path d="M238 211 248 214 249 215 249 248 248 249 209 249 222 222 226 214 229 211 238 211 "/></svg>