<svg width="256" height="256" xmlns="http://www.w3.org/2000/svg" fill-opacity="0" stroke="black" stroke-width="3" ><path d="M124 44 138 45 146 46 157 50 167 58 173 65 185 80 189 86 195 97 196 99 197 103 199 118 198 127 197 135 194 149 187 162 183 168 173 181 167 187 159 192 157 193 152 195 136 199 101 199 96 198 81 193 76 191 72 189 67 186 59 178 56 174 54 171 48 149 43 122 42 116 42 107 43 99 44 93 52 64 55 61 71 54 76 52 82 50 95 46 106 44 124 44 "/><path d="M1 47 9 53 12 58 17 68 21 78 23 84 25 92 31 152 32 163 33 192 33 204 31 210 28 215 19 224 10 232 6 235 1 237 0 237 0 47 1 47 "/></svg>