<svg width="256" height="256" xmlns="http://www.w3.org/2000/svg" fill-opacity="0" stroke="black" stroke-width="3" ><path d="M60 2 114 3 119 4 122 5 123 7 138 66 138 92 136 102 130 115 124 127 120 133 114 141 113 142 102 152 98 155 92 159 83 164 77 167 74 168 48 170 46 170 34 168 17 164 9 162 5 160 2 157 0 146 0 9 6 6 14 3 51 2 60 2 "/><path d="M249 0 249 121 242 124 237 126 231 127 222 128 220 128 211 127 197 124 191 122 181 117 178 115 174 112 165 102 161 97 159 94 155 85 144 53 142 40 142 36 147 23 154 11 161 3 169 0 249 0 "/></svg>