<svg width="256" height="256" xmlns="http://www.w3.org/2000/svg" fill-opacity="0" stroke="black" stroke-width="3" ><path d="M100 24 107 25 112 26 120 28 126 30 131 32 166 53 170 56 183 69 186 73 190 79 192 83 194 88 198 101 200 108 202 121 203 133 203 134 202 140 201 144 200 147 198 152 196 156 190 165 187 169 183 173 174 180 169 183 161 187 152 191 140 195 107 203 101 203 91 201 86 199 82 197 77 194 70 189 61 180 57 175 55 172 54 170 53 167 51 156 44 88 44 87 49 48 53 44 63 36 74 30 78 28 84 26 91 25 99 24 100 24 "/><path d="M10 75 24 87 28 92 38 112 39 118 39 120 38 140 34 145 24 154 15 161 10 164 0 168 0 75 10 75 "/><path d="M249 46 249 125 248 125 244 124 241 123 238 121 231 116 225 110 223 107 222 105 221 102 220 98 219 93 218 87 217 80 218 76 221 69 223 66 227 61 237 51 242 48 244 47 247 46 249 46 "/></svg>