<svg width="256" height="256" xmlns="http://www.w3.org/2000/svg" fill-opacity="0" stroke="black" stroke-width="3" ><path d="M49 30 163 34 179 44 187 52 198 115 198 128 197 135 196 140 195 144 190 157 183 172 178 181 144 239 142 242 134 249 69 249 41 188 18 87 18 85 23 75 47 31 48 30 49 30 "/><path d="M232 147 241 148 245 150 249 168 249 249 225 249 223 248 220 246 182 198 177 191 177 190 178 187 180 183 205 158 214 152 222 147 232 147 "/><path d="M249 81 249 144 241 140 228 129 224 124 223 120 222 115 221 109 221 107 222 99 225 93 230 88 234 85 245 81 249 81 "/><path d="M206 12 210 18 211 25 209 38 208 44 206 45 205 45 199 44 185 37 183 35 177 24 176 22 179 16 181 14 183 13 187 12 206 12 "/></svg>