<svg width="256" height="256" xmlns="http://www.w3.org/2000/svg" fill-opacity="0" stroke="black" stroke-width="3" ><path d="M131 89 157 98 160 101 165 109 166 111 166 113 165 132 154 183 150 187 136 189 128 190 108 191 93 189 77 173 63 156 62 148 62 145 63 141 68 127 71 123 78 115 96 102 127 89 131 89 "/><path d="M80 209 81 211 81 212 75 249 12 249 3 241 2 238 3 220 5 213 6 210 9 206 14 202 18 199 25 194 45 186 80 209 "/><path d="M112 217 117 218 134 223 141 227 144 229 147 234 149 249 87 249 87 245 88 242 96 227 100 223 103 221 111 217 112 217 "/><path d="M208 109 212 110 220 114 224 118 225 123 225 132 221 140 216 146 212 149 209 150 199 151 194 150 192 149 188 146 184 142 182 139 182 134 183 126 184 121 189 115 192 112 198 110 203 109 208 109 "/></svg>