<svg width="256" height="256" xmlns="http://www.w3.org/2000/svg" fill-opacity="0" stroke="black" stroke-width="3" ><path d="M145 35 162 37 166 39 178 46 200 64 217 81 219 84 224 103 227 115 227 118 225 126 219 142 218 144 208 162 202 172 196 180 187 189 179 196 170 202 150 214 145 216 139 218 110 220 103 219 97 217 86 211 79 206 75 203 58 188 54 184 49 177 40 156 39 153 37 102 37 101 53 77 70 60 95 45 119 37 126 35 145 35 "/><path d="M20 162 57 197 79 220 84 231 84 235 83 238 81 240 69 249 0 249 0 158 20 162 "/><path d="M244 182 249 184 249 249 186 249 173 243 171 242 170 240 185 215 186 214 242 182 244 182 "/><path d="M18 96 24 98 26 99 29 101 32 104 34 108 35 111 35 119 34 136 33 141 31 147 29 150 22 156 18 158 9 158 5 156 0 153 0 109 2 101 3 100 8 98 15 96 18 96 "/><path d="M180 0 183 4 185 11 184 19 182 23 181 24 177 27 174 29 166 34 165 34 156 33 149 28 141 19 139 14 139 6 142 4 153 0 180 0 "/></svg>