<svg width="256" height="256" xmlns="http://www.w3.org/2000/svg" fill-opacity="0" stroke="black" stroke-width="3" ><path d="M249 0 249 23 203 163 187 199 186 201 185 202 182 204 178 206 175 207 162 211 155 213 146 215 140 215 120 213 115 212 94 205 66 177 62 172 58 165 57 163 39 118 38 103 39 101 83 46 113 15 114 14 130 0 249 0 "/><path d="M34 0 35 2 40 14 40 32 39 35 38 37 33 42 13 61 6 67 1 70 0 70 0 11 1 0 34 0 "/><path d="M18 184 19 191 19 206 18 212 17 216 15 220 13 223 5 227 0 227 0 191 16 182 18 184 "/><path d="M239 207 247 208 249 209 249 249 233 249 233 234 234 210 237 207 239 207 "/></svg>