<svg width="256" height="256" xmlns="http://www.w3.org/2000/svg" fill-opacity="0" stroke="black" stroke-width="3" ><path d="M136 188 151 223 152 227 151 239 150 241 148 244 145 248 144 249 23 249 11 229 8 222 8 221 10 207 11 204 15 196 29 187 75 174 136 188 "/><path d="M206 8 222 17 228 23 231 27 233 30 234 34 235 44 235 49 234 52 233 54 230 59 223 69 218 74 209 79 202 82 199 83 195 83 180 78 178 77 177 76 162 60 156 48 156 32 157 28 163 19 169 14 182 11 200 8 206 8 "/><path d="M116 51 122 52 132 56 134 57 144 63 160 79 161 81 169 98 172 110 172 113 139 125 131 127 130 127 109 122 50 71 50 69 59 60 63 58 68 56 95 51 116 51 "/></svg>