<svg width="256" height="256" xmlns="http://www.w3.org/2000/svg" fill-opacity="0" stroke="black" stroke-width="3" ><path d="M121 40 159 47 162 48 164 52 157 74 110 105 91 116 66 129 62 131 53 134 52 134 49 133 42 126 42 124 43 75 48 70 90 42 94 41 108 39 121 40 "/><path d="M151 86 166 94 167 95 171 100 171 185 164 190 162 191 156 192 136 195 133 195 106 194 96 191 88 185 77 155 78 151 85 125 119 101 128 96 150 86 151 86 "/><path d="M18 3 24 6 26 8 28 11 29 13 39 39 40 42 41 47 41 54 38 63 31 77 25 86 21 90 19 91 5 97 0 97 0 3 18 3 "/><path d="M16 200 59 205 60 206 63 210 67 216 83 248 83 249 8 249 4 245 0 239 0 218 4 211 10 202 13 200 16 200 "/></svg>