<svg width="256" height="256" xmlns="http://www.w3.org/2000/svg" fill-opacity="0" stroke="black" stroke-width="3" ><path d="M85 53 117 57 135 63 142 67 157 79 159 81 175 129 174 135 173 139 170 145 132 194 130 196 121 204 114 208 95 213 80 214 79 214 76 213 45 201 35 191 33 188 30 182 23 158 19 128 19 115 25 92 33 81 50 63 51 62 65 55 68 54 72 53 85 53 "/><path d="M221 63 222 65 231 103 235 123 235 126 234 129 232 133 231 134 227 137 218 138 215 138 212 137 210 136 199 129 193 123 186 115 183 107 183 96 184 94 195 77 197 75 216 63 221 63 "/><path d="M70 0 69 2 61 13 50 24 28 38 17 44 10 46 4 46 0 45 0 0 70 0 "/><path d="M249 208 242 202 241 201 216 170 213 166 211 163 210 161 210 158 211 156 213 154 219 150 222 149 249 148 249 208 "/></svg>