<svg width="256" height="256" xmlns="http://www.w3.org/2000/svg" fill-opacity="0" stroke="black" stroke-width="3" ><path d="M120 55 144 58 149 59 224 114 226 116 226 132 222 151 219 157 210 171 193 192 188 197 179 205 173 209 171 210 166 212 155 214 152 214 118 213 106 211 82 203 76 200 14 141 13 140 9 135 6 124 5 113 5 99 11 92 15 88 44 67 48 65 78 52 120 55 "/><path d="M223 206 240 208 246 210 249 212 249 249 158 249 157 248 152 240 151 229 151 228 153 227 171 219 206 208 215 206 223 206 "/><path d="M40 203 54 205 57 206 61 208 71 215 73 218 74 220 81 237 79 249 18 249 17 225 17 220 18 210 39 203 40 203 "/></svg>