<svg width="256" height="256" xmlns="http://www.w3.org/2000/svg" fill-opacity="0" stroke="black" stroke-width="3" ><path d="M177 17 185 22 187 24 189 27 193 34 205 58 206 62 208 83 208 84 205 108 171 157 168 161 160 171 135 199 132 202 100 227 97 229 91 232 88 232 81 229 79 226 76 220 64 140 64 138 72 98 74 92 76 88 81 79 86 72 94 62 114 42 152 12 155 10 159 9 177 17 "/><path d="M249 0 249 63 238 61 232 59 229 57 222 52 214 42 211 32 209 23 209 8 214 0 249 0 "/><path d="M11 136 21 140 23 142 27 147 28 149 29 152 29 169 26 177 24 180 19 187 17 189 12 191 7 191 3 190 0 189 0 136 11 136 "/></svg>