<svg width="256" height="256" xmlns="http://www.w3.org/2000/svg" fill-opacity="0" stroke="black" stroke-width="3" ><path d="M122 45 162 63 168 68 169 69 180 89 181 93 182 101 184 137 184 141 182 147 177 158 163 171 158 171 98 170 75 163 69 160 66 157 63 153 61 149 55 134 54 131 54 120 55 100 57 91 59 86 64 75 68 69 79 57 91 51 96 49 109 45 122 45 "/><path d="M188 0 196 4 207 12 211 17 212 19 212 22 211 25 210 27 204 37 202 39 199 41 197 42 184 45 182 45 173 43 166 40 140 23 137 18 136 15 133 3 133 0 188 0 "/></svg>