<svg width="256" height="256" xmlns="http://www.w3.org/2000/svg" fill-opacity="0" stroke="black" stroke-width="3" ><path d="M40 57 151 89 152 90 188 170 189 175 189 180 187 187 185 188 66 223 62 224 57 224 48 223 40 221 38 220 19 209 13 205 9 201 6 197 4 194 0 180 0 99 15 64 25 58 28 57 40 57 "/><path d="M249 35 249 93 245 122 242 136 241 139 239 143 238 144 230 149 228 150 215 153 204 153 189 148 184 145 178 139 171 129 165 111 165 98 168 91 170 88 179 79 220 45 224 42 230 38 232 37 244 35 249 35 "/><path d="M51 0 52 2 50 8 43 19 39 23 30 29 26 31 21 33 12 34 7 33 3 32 0 18 0 0 51 0 "/></svg>