<svg width="256" height="256" xmlns="http://www.w3.org/2000/svg" fill-opacity="0" stroke="black" stroke-width="3" ><path d="M106 28 134 32 138 33 143 35 156 41 164 45 167 47 172 51 182 61 190 70 198 81 200 84 205 94 207 99 208 102 208 111 207 119 204 130 196 157 186 169 180 176 178 178 175 180 165 185 148 193 141 196 133 198 132 198 111 194 103 192 86 186 82 184 79 182 63 170 61 168 49 146 45 135 44 131 43 110 43 108 44 94 46 83 47 78 49 74 60 57 67 49 76 40 90 30 95 29 101 28 106 28 "/><path d="M22 198 47 203 51 205 58 211 76 227 79 233 84 248 84 249 0 249 0 197 22 198 "/></svg>