<svg width="256" height="256" xmlns="http://www.w3.org/2000/svg" fill-opacity="0" stroke="black" stroke-width="3" ><path d="M151 57 153 58 154 59 183 91 192 105 194 109 197 118 205 150 205 154 203 164 200 171 193 187 190 191 188 193 179 199 174 202 156 211 147 215 144 216 138 217 128 217 119 216 111 215 96 211 72 202 70 201 61 196 51 190 48 187 42 179 37 170 37 164 39 159 61 108 89 61 117 42 151 57 "/><path d="M115 0 115 1 112 8 109 13 93 32 80 41 60 45 47 45 27 36 22 33 19 31 16 26 15 24 15 21 35 0 115 0 "/><path d="M226 213 239 215 243 217 249 222 249 249 178 249 178 247 180 243 185 234 197 220 203 214 206 213 226 213 "/><path d="M249 156 249 195 247 198 245 199 227 199 213 193 212 192 209 188 208 185 208 176 210 169 215 157 217 156 247 154 249 156 "/><path d="M61 232 65 236 57 249 8 249 10 243 12 240 27 224 33 219 36 218 61 232 "/></svg>