<svg width="256" height="256" xmlns="http://www.w3.org/2000/svg" fill-opacity="0" stroke="black" stroke-width="3" ><path d="M220 0 200 170 199 174 196 183 191 189 185 195 178 201 165 212 102 240 79 237 73 234 65 226 51 208 28 151 25 124 25 118 27 110 36 86 43 71 95 4 98 1 116 0 220 0 "/><path d="M169 222 195 224 204 230 216 245 218 248 218 249 106 249 106 248 107 245 114 238 129 229 133 228 142 226 164 222 169 222 "/><path d="M51 218 51 220 50 236 44 249 18 249 14 244 14 243 24 220 37 209 51 218 "/></svg>