<svg width="256" height="256" xmlns="http://www.w3.org/2000/svg" fill-opacity="0" stroke="black" stroke-width="3" ><path d="M208 68 212 69 218 72 222 75 226 79 228 84 229 95 222 116 218 127 216 132 213 139 212 141 208 147 207 148 204 150 202 151 189 152 187 152 179 148 173 143 165 135 153 119 152 116 152 113 155 99 157 93 158 91 167 86 199 70 202 69 207 68 208 68 "/><path d="M120 179 130 182 139 186 148 191 149 192 160 207 162 211 162 216 161 223 160 229 157 242 156 244 155 245 144 249 99 249 93 241 91 238 89 217 89 214 97 194 102 187 105 184 112 181 115 180 119 179 120 179 "/><path d="M46 179 49 180 58 185 62 188 63 189 67 194 70 198 76 212 76 215 73 224 72 226 68 231 67 232 57 241 54 242 44 243 36 243 15 237 13 236 9 233 7 230 3 215 3 213 4 208 7 201 8 199 12 193 15 190 36 180 39 179 46 179 "/><path d="M221 0 230 6 234 10 234 11 233 19 232 25 229 29 222 38 220 40 218 41 198 44 192 44 187 43 181 41 175 38 168 34 155 17 154 13 154 8 155 0 221 0 "/><path d="M119 73 124 74 133 83 134 127 134 128 133 130 131 133 124 143 110 161 94 175 75 183 63 179 61 178 55 174 53 172 53 171 81 71 83 69 119 73 "/><path d="M237 204 249 216 249 249 188 249 188 246 190 237 192 229 201 213 212 208 236 204 237 204 "/><path d="M77 52 81 53 80 66 79 72 74 90 69 98 67 99 55 104 53 103 41 95 40 94 39 92 32 73 32 71 34 66 60 54 65 52 77 52 "/><path d="M249 75 249 191 248 193 246 196 244 197 241 197 240 196 221 163 220 161 218 153 218 146 224 123 235 88 238 80 239 78 243 76 247 75 249 75 "/><path d="M5 33 8 35 17 43 18 57 20 110 18 126 15 130 13 131 12 130 1 115 0 84 0 43 1 34 2 33 5 33 "/><path d="M144 0 156 40 157 45 155 73 154 76 153 76 151 74 130 35 129 33 129 4 130 0 144 0 "/></svg>