<svg width="256" height="256" xmlns="http://www.w3.org/2000/svg" fill-opacity="0" stroke="black" stroke-width="3" ><path d="M136 48 152 50 155 51 174 62 177 64 193 78 195 80 196 82 203 98 208 118 209 127 209 132 208 142 205 150 198 166 196 170 190 179 187 183 173 197 168 201 165 203 159 205 154 206 148 207 139 207 84 191 79 189 73 185 67 179 63 174 55 163 53 160 50 155 48 150 47 138 47 131 50 114 54 106 68 82 76 70 78 68 90 58 96 54 101 51 106 49 115 48 136 48 "/><path d="M1 6 3 7 33 27 47 38 49 41 49 44 43 56 28 83 22 89 16 93 14 94 10 93 5 90 1 87 0 86 0 6 1 6 "/><path d="M249 188 249 249 211 249 210 246 210 234 212 222 216 214 225 198 228 195 234 191 243 188 249 188 "/><path d="M122 0 133 3 136 4 140 8 141 10 143 17 143 19 134 31 131 34 129 35 92 32 65 17 58 11 55 8 56 7 71 0 122 0 "/><path d="M115 220 121 223 125 226 142 240 145 243 147 247 147 249 61 249 61 248 62 246 74 233 76 231 80 228 95 222 98 221 102 220 115 220 "/><path d="M249 99 247 98 240 93 230 84 228 81 224 71 223 68 222 64 222 55 223 49 227 43 230 39 236 32 239 29 242 27 246 25 249 24 249 99 "/></svg>