<svg width="256" height="256" xmlns="http://www.w3.org/2000/svg" fill-opacity="0" stroke="black" stroke-width="3" ><path d="M119 52 127 56 146 66 178 87 193 97 197 100 201 104 202 106 203 111 190 153 170 187 157 196 141 201 137 202 128 202 123 201 91 182 82 176 74 169 73 168 60 153 58 146 56 137 55 118 55 114 64 80 65 77 68 72 73 66 81 58 94 54 98 53 105 52 119 52 "/><path d="M185 202 209 205 212 206 230 214 233 216 238 220 243 225 246 238 246 249 142 249 142 241 143 239 147 235 184 202 185 202 "/></svg>