<svg width="256" height="256" xmlns="http://www.w3.org/2000/svg" fill-opacity="0" stroke="black" stroke-width="3" ><path d="M99 65 113 67 177 133 179 138 180 141 181 147 181 157 178 169 177 172 157 199 146 212 145 213 134 215 106 219 102 219 101 218 95 211 59 111 54 97 53 83 53 82 57 72 58 70 60 68 66 64 69 63 99 65 "/><path d="M38 187 47 188 61 196 67 202 71 213 74 229 74 234 72 246 71 249 0 249 0 191 10 188 36 187 38 187 "/><path d="M249 174 249 249 246 249 222 248 197 220 195 216 195 211 197 197 199 193 204 184 206 182 214 178 230 174 249 174 "/></svg>