<svg width="256" height="256" xmlns="http://www.w3.org/2000/svg" fill-opacity="0" stroke="black" stroke-width="3" ><path d="M148 26 152 27 159 29 166 33 175 39 184 46 185 47 193 56 197 64 199 71 212 147 213 153 213 158 211 169 208 176 192 194 189 197 181 204 165 214 145 220 136 222 119 225 98 215 95 213 94 212 88 205 83 198 67 169 63 160 58 148 45 110 43 104 43 103 44 88 49 68 57 55 60 52 67 47 79 39 98 33 120 27 127 26 148 26 "/><path d="M249 25 249 151 245 149 242 147 239 144 233 137 232 135 225 102 222 61 222 55 224 47 225 45 231 38 235 34 239 31 248 25 249 25 "/><path d="M17 133 24 137 44 153 45 154 46 156 53 176 53 178 52 182 47 191 45 194 42 195 38 196 37 196 34 195 0 182 0 128 2 125 17 133 "/><path d="M41 0 66 27 66 28 65 38 3 69 1 68 0 67 0 0 41 0 "/><path d="M21 213 30 225 36 234 37 236 39 246 39 249 0 249 0 190 21 213 "/></svg>