<svg width="256" height="256" xmlns="http://www.w3.org/2000/svg" fill-opacity="0" stroke="black" stroke-width="3" ><path d="M141 13 148 14 160 16 163 17 168 19 169 20 225 80 226 82 233 100 233 109 199 177 189 192 184 199 182 201 175 205 127 231 123 233 99 234 94 234 70 229 63 227 56 223 26 205 9 191 6 186 3 180 0 163 0 159 7 135 25 89 42 51 43 49 52 41 68 30 78 26 91 22 137 13 141 13 "/><path d="M249 0 249 57 239 53 214 38 212 36 210 33 197 13 190 0 249 0 "/><path d="M249 223 243 218 242 217 234 205 231 196 227 181 227 180 228 171 229 167 232 157 241 149 249 146 249 223 "/><path d="M2 13 6 15 7 16 8 18 16 49 16 59 15 75 3 97 0 100 0 13 2 13 "/></svg>