<svg width="256" height="256" xmlns="http://www.w3.org/2000/svg" fill-opacity="0" stroke="black" stroke-width="3" ><path d="M139 33 178 58 198 74 203 86 203 124 197 165 193 182 185 210 184 211 173 217 165 221 158 222 155 222 145 220 131 217 84 205 75 201 64 189 54 173 50 159 50 122 52 115 53 113 96 46 98 43 100 41 108 35 110 34 119 33 139 33 "/><path d="M62 0 67 4 76 24 76 28 69 58 54 80 52 82 48 85 28 85 16 83 15 82 6 71 3 62 3 61 5 52 20 17 27 3 29 1 47 0 62 0 "/><path d="M249 229 248 229 246 227 234 211 233 209 232 204 232 191 235 183 242 169 245 168 249 167 249 229 "/></svg>