<svg width="256" height="256" xmlns="http://www.w3.org/2000/svg" fill-opacity="0" stroke="black" stroke-width="3" ><path d="M127 51 135 53 197 110 203 122 203 126 200 154 197 169 194 174 187 185 183 188 180 190 160 200 134 202 132 202 65 168 60 164 57 159 49 142 49 141 51 122 53 116 54 114 58 107 100 64 104 60 107 58 119 52 123 51 127 51 "/><path d="M225 0 226 1 238 28 238 33 237 49 232 73 230 76 226 76 220 75 184 65 175 61 153 48 145 40 142 32 141 26 142 18 143 12 145 7 149 0 225 0 "/><path d="M73 0 75 13 75 19 60 54 33 85 30 88 25 91 10 93 9 93 7 91 5 88 4 84 3 78 3 3 5 0 73 0 "/><path d="M35 184 38 185 42 188 49 195 54 201 55 203 60 217 61 220 63 228 63 230 62 245 54 249 21 249 16 246 9 239 6 233 4 228 3 224 3 203 4 201 8 195 12 191 19 185 22 184 35 184 "/><path d="M150 248 151 249 86 249 85 247 73 188 79 185 150 248 "/></svg>