<svg width="256" height="256" xmlns="http://www.w3.org/2000/svg" fill-opacity="0" stroke="black" stroke-width="3" ><path d="M144 31 148 32 157 35 162 37 169 43 176 51 184 62 199 94 202 101 204 114 204 133 203 146 202 151 198 161 197 163 186 179 183 182 169 194 160 199 158 200 148 204 145 205 127 208 119 208 110 206 102 204 92 201 86 198 81 194 74 188 73 187 72 185 56 152 53 144 51 134 50 124 50 118 51 113 53 104 54 101 59 87 64 79 73 70 107 41 111 38 114 36 118 34 123 32 126 31 144 31 "/><path d="M89 0 91 9 91 10 90 15 88 19 78 32 66 44 58 50 50 55 46 57 43 58 38 59 35 59 11 52 7 50 0 46 0 0 89 0 "/><path d="M15 135 19 137 25 141 29 144 32 148 35 154 45 183 48 198 48 203 45 211 44 213 41 216 26 228 24 229 10 234 1 237 0 237 0 135 15 135 "/></svg>