<svg width="256" height="256" xmlns="http://www.w3.org/2000/svg" fill-opacity="0" stroke="black" stroke-width="3" ><path d="M159 69 173 76 177 81 185 93 189 101 192 122 190 138 189 142 182 151 149 185 146 188 139 193 137 194 131 196 130 196 121 195 112 192 107 190 94 183 90 180 80 170 76 164 71 153 69 148 68 144 67 125 69 102 74 97 86 86 101 78 124 72 137 69 159 69 "/><path d="M151 0 153 2 155 9 155 11 154 18 148 39 139 45 125 50 106 55 86 55 76 54 67 52 63 51 51 42 47 38 37 26 31 18 31 17 32 1 33 0 151 0 "/><path d="M34 165 60 175 61 176 71 187 76 196 80 206 81 210 81 227 79 237 75 246 74 248 73 249 15 249 10 244 9 215 9 207 12 185 13 181 15 176 17 173 29 166 31 165 34 165 "/><path d="M1 86 7 90 17 97 21 101 27 113 27 133 25 137 17 146 14 148 10 150 4 152 0 152 0 86 1 86 "/><path d="M157 201 185 225 185 229 178 244 165 247 156 249 146 249 132 233 132 230 143 211 151 203 154 201 157 201 "/><path d="M242 195 244 196 249 204 249 249 241 249 218 214 218 206 237 195 242 195 "/></svg>