<svg width="256" height="256" xmlns="http://www.w3.org/2000/svg" fill-opacity="0" stroke="black" stroke-width="3" ><path d="M172 15 181 16 189 18 199 21 206 25 219 35 221 37 230 48 232 51 237 60 238 62 245 79 246 88 244 101 242 111 227 164 220 183 219 185 216 189 209 198 207 200 198 203 124 225 120 225 111 224 102 222 81 214 75 210 64 202 59 198 49 188 40 176 38 173 35 168 31 160 30 157 28 143 27 132 27 131 29 113 30 107 31 102 33 96 34 94 41 82 45 77 53 69 65 58 90 39 144 18 154 16 170 15 172 15 "/><path d="M129 0 132 11 132 14 129 18 109 28 85 37 75 40 63 43 59 43 51 42 15 28 4 20 3 18 3 0 129 0 "/><path d="M163 230 175 231 176 232 182 245 183 248 183 249 140 249 140 246 142 239 145 236 149 234 161 230 163 230 "/></svg>