<svg width="256" height="256" xmlns="http://www.w3.org/2000/svg" fill-opacity="0" stroke="black" stroke-width="3" ><path d="M138 55 143 57 154 62 158 65 162 69 165 74 199 134 200 139 200 146 199 152 196 161 195 163 189 172 186 176 182 180 178 183 175 185 162 192 160 193 157 194 148 196 142 196 132 194 126 191 99 177 90 172 77 159 74 154 70 147 65 134 64 131 64 105 65 101 67 95 74 81 80 73 84 68 90 63 100 58 104 57 114 55 122 54 138 55 "/><path d="M233 0 249 6 249 107 230 114 228 114 205 103 192 84 183 66 180 59 178 48 178 47 179 34 182 9 184 5 188 0 233 0 "/><path d="M96 203 103 204 105 205 120 215 122 217 125 223 127 228 127 239 126 246 125 249 47 249 47 247 48 238 50 231 54 223 58 219 66 213 72 209 76 207 81 205 84 204 88 203 96 203 "/><path d="M228 208 240 213 249 221 249 248 244 249 210 249 191 244 184 236 184 226 192 217 194 215 202 211 215 208 228 208 "/></svg>