<svg width="256" height="256" xmlns="http://www.w3.org/2000/svg" fill-opacity="0" stroke="black" stroke-width="3" ><path d="M131 77 142 79 158 88 167 95 169 98 172 103 176 111 184 139 186 159 186 177 183 185 179 191 176 195 171 200 156 214 153 216 143 222 141 223 136 225 128 228 112 231 95 234 87 234 84 233 77 230 69 225 66 223 63 220 60 216 56 209 55 206 50 187 48 175 48 167 49 163 52 153 55 147 72 115 84 104 105 85 115 81 127 77 131 77 "/><path d="M249 53 249 157 247 157 241 153 236 145 233 140 229 132 222 110 219 97 219 95 220 90 223 76 225 70 233 59 239 54 243 53 249 53 "/></svg>