<svg width="256" height="256" xmlns="http://www.w3.org/2000/svg" fill-opacity="0" stroke="black" stroke-width="3" ><path d="M122 29 128 30 133 31 144 35 153 39 163 47 165 49 171 58 177 69 202 123 205 132 207 139 207 148 203 164 199 172 195 179 190 185 174 202 167 208 155 217 148 221 136 227 128 228 125 228 102 226 92 222 81 215 78 213 61 197 53 188 48 182 42 173 36 162 34 158 30 149 29 146 25 130 25 116 27 106 28 104 32 97 62 49 67 44 72 41 92 33 100 31 112 29 122 29 "/><path d="M249 0 249 156 248 156 236 149 224 140 213 129 202 115 200 111 190 85 189 82 187 73 186 68 186 67 187 57 189 40 192 32 196 24 205 11 211 3 214 0 249 0 "/><path d="M238 177 241 178 246 180 249 182 249 240 247 244 245 246 235 249 182 249 166 235 166 228 168 225 205 189 217 181 222 179 228 177 238 177 "/></svg>