<svg width="256" height="256" xmlns="http://www.w3.org/2000/svg" fill-opacity="0" stroke="black" stroke-width="3" ><path d="M5 10 106 21 120 23 198 43 208 46 249 76 249 99 157 243 152 246 146 249 0 249 0 10 5 10 "/><path d="M242 142 247 146 249 148 249 248 248 249 211 249 199 238 198 236 189 214 190 196 192 192 207 168 216 159 230 146 239 141 242 142 "/><path d="M249 0 249 3 246 7 237 16 230 21 224 24 221 25 217 26 205 26 196 25 180 23 170 21 167 20 155 15 148 12 141 8 138 6 130 0 249 0 "/></svg>