<svg width="256" height="256" xmlns="http://www.w3.org/2000/svg" fill-opacity="0" stroke="black" stroke-width="3" ><path d="M142 42 146 43 152 45 197 63 207 106 209 119 209 127 181 195 178 200 174 204 169 207 167 208 151 210 150 210 132 209 125 208 120 207 114 205 97 199 89 192 49 146 42 130 42 126 43 108 44 100 77 54 79 52 97 44 103 42 114 39 142 42 "/><path d="M47 0 52 47 52 48 51 51 47 58 22 77 1 83 0 83 0 0 47 0 "/><path d="M188 227 194 228 202 230 211 234 220 241 228 249 120 249 127 242 132 238 136 235 138 234 147 231 166 228 174 227 188 227 "/></svg>