<svg width="256" height="256" xmlns="http://www.w3.org/2000/svg" fill-opacity="0" stroke="black" stroke-width="3" ><path d="M124 17 135 18 139 20 170 50 175 55 185 66 189 75 195 90 196 93 204 143 204 146 203 151 201 159 199 162 188 177 185 181 167 199 162 203 159 205 157 206 142 211 128 213 125 213 112 212 103 209 92 205 84 201 77 197 72 193 56 179 53 175 48 165 44 146 41 120 41 116 46 91 63 50 86 24 88 23 91 22 109 17 124 17 "/><path d="M246 54 249 55 249 154 243 154 229 152 222 150 218 148 215 145 211 136 205 109 204 103 204 93 206 81 210 73 213 69 227 56 233 53 239 52 246 54 "/></svg>