<svg width="256" height="256" xmlns="http://www.w3.org/2000/svg" fill-opacity="0" stroke="black" stroke-width="3" ><path d="M122 30 141 33 154 36 156 37 171 45 175 48 191 64 195 69 205 82 211 91 214 97 221 120 222 124 223 131 223 133 222 152 221 157 217 169 211 182 209 186 207 189 198 200 187 211 177 217 160 227 153 231 141 235 130 238 116 238 81 231 73 229 70 227 58 217 49 205 44 198 42 195 40 189 31 161 26 145 24 137 23 127 23 119 24 111 26 104 28 98 31 90 40 71 42 68 49 58 58 49 73 40 77 38 90 34 119 30 122 30 "/><path d="M28 197 29 199 32 210 32 215 31 217 23 229 21 231 13 238 9 241 2 245 0 245 0 204 3 201 27 197 28 197 "/><path d="M249 68 246 68 243 67 235 60 232 57 231 53 231 40 235 30 238 26 240 24 244 21 246 20 249 19 249 68 "/></svg>