<svg width="256" height="256" xmlns="http://www.w3.org/2000/svg" fill-opacity="0" stroke="black" stroke-width="3" ><path d="M103 36 114 37 124 38 130 39 152 49 155 51 187 75 192 80 197 88 211 114 219 134 222 145 222 149 217 173 215 178 206 192 201 199 116 232 111 232 101 229 88 222 85 220 81 216 36 166 34 162 31 154 30 151 26 136 24 128 24 117 26 111 32 99 65 57 66 56 74 49 80 45 96 37 100 36 103 36 "/><path d="M17 197 24 199 34 204 38 207 66 235 70 242 70 243 68 249 0 249 0 201 2 200 5 199 9 198 14 197 17 197 "/><path d="M7 103 9 106 10 108 19 145 21 157 21 158 18 172 16 175 15 176 13 177 12 177 8 176 6 174 3 170 0 162 0 100 7 103 "/></svg>