<svg width="256" height="256" xmlns="http://www.w3.org/2000/svg" fill-opacity="0" stroke="black" stroke-width="3" ><path d="M121 0 174 49 176 51 177 54 177 59 175 66 170 80 166 89 165 91 161 98 155 108 139 124 134 128 129 131 123 134 115 136 76 136 56 130 48 126 45 124 43 122 36 114 34 111 13 42 12 37 12 36 13 29 14 25 15 22 18 14 26 4 27 3 33 0 121 0 "/><path d="M128 207 145 210 155 214 161 222 163 225 164 229 165 237 165 243 163 249 86 249 85 244 85 240 88 234 93 227 102 215 104 213 108 211 123 207 128 207 "/></svg>