<svg width="256" height="256" xmlns="http://www.w3.org/2000/svg" fill-opacity="0" stroke="black" stroke-width="3" ><path d="M141 37 162 43 174 50 189 59 198 67 202 71 205 76 206 78 209 86 213 124 213 126 210 146 209 150 203 161 194 176 187 181 176 188 169 191 138 201 120 204 101 204 87 196 77 186 72 180 60 148 58 141 57 137 56 129 56 95 58 89 60 86 63 82 70 73 78 63 79 62 128 37 141 37 "/><path d="M18 99 20 101 23 107 64 213 64 217 61 221 60 222 57 224 52 226 46 228 13 236 7 236 2 234 0 233 0 108 1 107 4 105 12 101 17 99 18 99 "/><path d="M200 204 214 205 234 207 237 209 241 214 246 223 249 229 249 249 150 249 149 248 148 245 148 244 149 228 150 225 153 222 158 218 166 213 182 206 195 204 200 204 "/><path d="M240 0 236 10 235 12 227 22 222 28 220 30 217 32 215 33 206 34 202 34 199 33 143 14 140 12 138 10 138 2 151 0 240 0 "/></svg>