<svg width="256" height="256" xmlns="http://www.w3.org/2000/svg" fill-opacity="0" stroke="black" stroke-width="3" ><path d="M20 38 129 44 132 45 138 48 139 49 153 65 161 79 167 111 167 117 165 127 161 140 160 143 154 149 144 156 135 161 129 164 124 166 117 166 84 162 78 161 71 159 65 157 35 146 31 144 0 122 0 49 7 42 10 40 14 38 20 38 "/><path d="M174 168 183 170 189 172 193 174 199 178 204 182 205 183 209 191 210 194 212 205 213 211 210 225 204 234 193 245 185 249 158 249 150 246 148 245 144 241 140 231 130 203 129 198 129 189 130 185 134 182 154 172 157 171 166 169 172 168 174 168 "/><path d="M150 0 150 1 149 4 147 9 144 16 141 22 139 25 137 26 121 33 105 37 102 37 74 33 61 31 57 29 43 20 40 17 31 6 30 2 30 0 150 0 "/></svg>