<svg width="256" height="256" xmlns="http://www.w3.org/2000/svg" fill-opacity="0" stroke="black" stroke-width="3" ><path d="M128 33 140 34 144 36 161 46 166 49 171 55 184 72 186 76 190 91 196 117 198 133 198 155 179 172 164 184 158 188 156 189 141 193 130 194 123 194 107 190 89 181 64 156 59 150 48 129 47 126 45 118 45 103 46 96 52 77 65 58 75 48 79 45 82 43 91 39 105 35 112 34 122 33 128 33 "/><path d="M24 153 29 154 37 156 40 157 45 159 99 196 107 202 108 203 115 212 115 215 114 222 107 233 98 245 95 247 90 249 0 249 0 159 8 156 11 155 19 153 24 153 "/><path d="M249 156 244 156 220 151 215 149 213 148 210 145 205 122 201 100 201 92 204 74 211 37 231 26 249 21 249 156 "/></svg>