<svg width="256" height="256" xmlns="http://www.w3.org/2000/svg" fill-opacity="0" stroke="black" stroke-width="3" ><path d="M75 35 191 62 203 86 211 104 215 114 216 120 216 121 213 155 211 169 209 174 207 178 197 191 191 197 188 199 180 203 172 204 143 206 130 206 120 205 110 203 95 197 91 195 80 188 68 179 54 165 47 155 45 152 42 147 39 141 36 130 35 125 34 117 31 71 31 68 33 62 35 59 38 55 46 47 63 36 67 35 75 35 "/><path d="M249 113 248 113 243 110 240 108 230 100 229 99 218 85 213 75 213 70 214 61 218 53 221 48 249 14 249 113 "/><path d="M156 0 150 6 123 28 117 29 115 29 99 11 99 9 103 0 156 0 "/></svg>