<svg width="256" height="256" xmlns="http://www.w3.org/2000/svg" fill-opacity="0" stroke="black" stroke-width="3" ><path d="M112 58 155 87 177 103 183 113 187 121 191 133 191 135 189 142 185 154 157 209 151 215 147 217 136 219 106 221 105 221 51 196 37 185 36 184 34 181 34 172 47 127 50 118 53 113 56 109 61 103 82 79 83 78 104 60 108 58 112 58 "/><path d="M204 161 209 163 215 167 219 170 228 181 249 211 249 249 209 249 196 244 176 226 176 224 180 178 187 164 189 162 203 161 204 161 "/><path d="M196 0 199 2 202 5 202 8 200 26 197 32 194 37 189 44 182 51 180 52 169 56 157 57 149 57 142 55 139 53 126 44 124 42 116 29 114 24 113 16 113 14 114 4 115 1 116 0 196 0 "/></svg>