<svg width="256" height="256" xmlns="http://www.w3.org/2000/svg" fill-opacity="0" stroke="black" stroke-width="3" ><path d="M138 85 143 87 146 89 147 90 148 92 149 142 149 143 135 159 131 160 108 146 107 145 100 131 95 100 97 95 121 86 136 85 138 85 "/><path d="M172 87 173 88 198 159 198 162 196 166 194 168 179 175 178 174 161 143 149 106 149 104 162 90 165 87 172 87 "/><path d="M73 99 76 100 77 101 88 116 88 119 85 131 68 142 59 140 58 139 52 113 52 111 60 99 73 99 "/><path d="M154 56 164 65 168 71 169 73 170 76 171 80 171 83 161 84 157 84 149 81 140 74 139 59 140 58 143 57 147 56 154 56 "/></svg>