<svg width="256" height="256" xmlns="http://www.w3.org/2000/svg" fill-opacity="0" stroke="black" stroke-width="3" ><path d="M120 52 129 53 134 54 146 58 148 59 162 68 180 86 188 96 196 112 198 120 199 125 199 128 198 146 196 157 194 161 186 173 174 185 167 190 156 197 150 199 136 199 133 198 0 151 0 86 1 84 4 80 6 78 94 54 111 52 120 52 "/><path d="M28 164 32 167 78 206 80 211 81 215 81 220 80 223 78 227 76 229 70 232 64 234 60 235 36 235 14 223 12 218 0 183 0 182 2 175 3 172 5 170 9 167 15 164 28 164 "/><path d="M72 0 71 2 68 7 56 19 47 25 42 27 0 38 0 0 72 0 "/><path d="M215 0 233 10 233 11 224 20 214 20 195 19 186 14 181 6 179 2 179 0 215 0 "/><path d="M244 10 249 15 249 61 241 61 239 59 226 29 224 22 243 10 244 10 "/></svg>