<svg width="256" height="256" xmlns="http://www.w3.org/2000/svg" fill-opacity="0" stroke="black" stroke-width="3" ><path d="M55 21 60 24 63 26 70 32 72 35 73 37 73 48 72 57 71 62 65 75 60 80 47 82 41 81 38 80 30 75 27 73 26 72 24 68 23 54 23 50 26 40 29 35 38 24 40 22 53 20 55 21 "/><path d="M243 15 249 18 249 79 239 79 219 77 217 76 211 72 209 70 207 67 203 55 203 53 204 48 206 40 209 36 211 34 233 18 238 15 243 15 "/><path d="M249 176 247 179 245 180 243 180 229 170 218 144 215 136 215 128 218 117 219 114 221 109 234 100 249 97 249 176 "/><path d="M155 117 199 131 195 146 192 157 190 161 178 175 174 179 171 181 169 182 167 182 165 181 164 180 148 141 148 135 154 117 155 117 "/></svg>