<svg width="256" height="256" xmlns="http://www.w3.org/2000/svg" fill-opacity="0" stroke="black" stroke-width="3" ><path d="M170 0 205 31 221 46 222 47 233 60 235 63 241 75 243 80 245 86 246 90 246 104 245 107 186 208 180 212 158 226 155 227 151 227 129 226 112 221 109 220 87 212 76 207 64 197 54 185 48 175 44 167 42 162 40 156 39 152 38 143 38 123 39 119 61 51 67 42 70 38 76 32 82 27 88 23 97 19 115 13 165 0 170 0 "/><path d="M32 0 44 3 45 4 48 11 52 21 52 33 51 41 48 55 43 66 35 76 31 80 11 91 7 93 0 96 0 0 32 0 "/><path d="M3 169 22 175 25 178 31 185 35 190 41 207 43 220 44 232 42 237 40 241 37 246 33 249 0 249 0 169 3 169 "/></svg>