<svg width="256" height="256" xmlns="http://www.w3.org/2000/svg" fill-opacity="0" stroke="black" stroke-width="3" ><path d="M106 41 116 42 128 44 137 46 141 47 144 48 149 50 161 56 165 60 213 123 215 127 216 143 216 150 215 159 211 171 205 181 199 189 197 191 190 197 184 202 118 246 106 249 61 249 50 241 48 239 46 236 44 225 41 102 41 97 42 92 44 83 46 80 52 74 66 61 86 47 93 44 98 42 101 41 106 41 "/><path d="M109 0 109 17 107 25 105 29 101 32 60 56 42 65 20 75 17 75 0 74 0 0 109 0 "/><path d="M249 0 249 80 239 98 235 98 206 78 193 34 193 27 198 17 235 0 249 0 "/><path d="M1 132 7 135 13 140 15 146 18 166 18 172 17 179 13 189 9 194 1 199 0 199 0 132 1 132 "/><path d="M165 0 165 1 163 5 157 11 148 17 144 19 133 19 123 14 119 11 116 7 121 0 165 0 "/></svg>