<svg width="256" height="256" xmlns="http://www.w3.org/2000/svg" fill-opacity="0" stroke="black" stroke-width="3" ><path d="M116 41 124 43 180 73 186 77 193 84 195 87 207 129 207 140 203 158 201 163 197 170 196 171 188 178 135 213 125 218 118 221 115 222 107 224 101 224 97 223 94 222 78 214 72 208 54 182 52 176 50 73 50 64 59 55 62 53 66 51 82 45 89 43 96 42 106 41 116 41 "/><path d="M145 0 158 13 159 15 153 34 148 44 145 45 141 45 129 39 122 35 119 32 115 26 109 16 108 14 106 9 104 0 145 0 "/><path d="M231 0 229 6 225 17 217 36 215 37 214 37 172 19 170 18 157 6 157 4 158 0 231 0 "/><path d="M87 0 85 7 47 48 42 53 41 53 39 51 32 40 30 36 29 26 35 14 39 10 50 0 87 0 "/></svg>