<svg width="256" height="256" xmlns="http://www.w3.org/2000/svg" fill-opacity="0" stroke="black" stroke-width="3" ><path d="M134 71 146 74 156 79 161 83 163 85 169 92 177 103 204 150 207 158 206 162 204 169 201 174 190 188 189 189 185 192 182 194 160 207 145 211 122 211 108 209 77 192 71 185 59 169 53 159 49 147 47 140 45 132 45 123 47 107 48 102 51 90 52 88 57 82 98 75 132 71 134 71 "/><path d="M232 169 238 170 244 172 246 173 249 176 249 230 246 233 240 236 232 238 223 239 221 239 218 238 216 237 211 234 208 232 205 229 200 220 198 212 197 207 197 202 200 192 201 190 204 185 206 182 213 175 223 170 231 169 232 169 "/><path d="M249 113 237 117 236 117 207 93 206 91 205 80 205 73 208 62 231 16 233 13 238 8 244 3 249 0 249 113 "/><path d="M210 0 214 8 219 26 219 27 217 31 213 37 210 41 208 43 204 46 200 48 190 49 185 49 182 48 172 43 167 40 163 37 159 33 156 28 154 24 150 12 150 9 151 4 152 0 210 0 "/><path d="M46 214 59 218 61 219 64 221 73 230 75 234 76 237 77 246 77 249 13 249 13 237 15 232 16 230 18 227 21 223 31 217 33 216 44 214 46 214 "/></svg>