<svg width="256" height="256" xmlns="http://www.w3.org/2000/svg" fill-opacity="0" stroke="black" stroke-width="3" ><path d="M117 63 129 64 148 68 152 69 165 76 173 81 176 84 186 97 192 105 194 110 202 131 202 150 200 158 184 186 181 190 177 194 152 202 136 204 120 204 107 196 97 188 84 177 55 140 47 127 46 123 46 113 47 107 48 105 53 96 56 92 65 83 72 77 75 75 79 73 88 69 98 65 101 64 107 63 117 63 "/><path d="M15 143 20 144 30 147 44 153 48 156 68 172 90 194 103 210 104 212 106 217 107 222 103 248 102 249 0 249 0 145 6 143 15 143 "/><path d="M157 233 168 236 175 245 176 247 176 249 119 249 118 246 118 245 123 239 124 238 132 236 154 233 157 233 "/></svg>