<svg width="256" height="256" xmlns="http://www.w3.org/2000/svg" fill-opacity="0" stroke="black" stroke-width="3" ><path d="M141 20 146 21 149 22 173 43 181 51 215 118 218 124 221 132 224 141 226 155 222 185 218 196 217 198 215 201 203 215 195 224 191 228 189 229 166 240 161 242 139 249 126 249 97 234 79 221 59 206 49 198 38 187 36 183 21 123 20 111 20 108 22 105 32 91 112 30 125 23 134 21 140 20 141 20 "/><path d="M87 0 84 9 80 17 78 20 77 21 68 28 59 33 49 36 33 38 31 38 26 37 21 35 13 29 7 23 3 18 0 10 0 0 87 0 "/></svg>