<svg width="256" height="256" xmlns="http://www.w3.org/2000/svg" fill-opacity="0" stroke="black" stroke-width="3" ><path d="M138 25 163 31 170 33 189 44 202 56 203 57 212 76 219 93 222 114 222 116 221 122 214 159 211 169 210 172 205 182 202 186 196 193 187 202 176 210 170 214 154 223 145 226 110 231 104 231 36 229 31 228 27 227 22 223 16 217 10 210 8 207 7 205 3 194 2 191 0 146 0 121 3 103 8 95 19 78 21 75 26 69 31 64 39 58 55 47 82 31 87 29 90 28 97 27 131 25 138 25 "/><path d="M172 0 166 7 165 8 158 13 155 15 146 17 140 17 129 16 124 15 120 14 115 12 111 10 110 9 102 0 172 0 "/></svg>