<svg width="256" height="256" xmlns="http://www.w3.org/2000/svg" fill-opacity="0" stroke="black" stroke-width="3" ><path d="M80 0 83 5 84 14 84 18 83 23 81 26 63 47 62 48 30 79 28 80 11 80 6 79 3 77 2 76 0 73 0 17 7 0 80 0 "/><path d="M233 147 249 152 249 233 248 234 242 232 230 223 228 221 210 201 208 198 206 194 206 190 212 177 220 164 225 156 231 147 233 147 "/><path d="M113 54 148 60 155 63 161 69 174 106 174 108 171 111 168 112 164 113 69 86 67 85 63 81 64 76 67 71 74 63 79 58 82 56 86 54 113 54 "/><path d="M177 209 186 215 187 216 186 218 164 243 162 245 153 249 100 249 100 247 105 238 112 230 113 229 127 224 172 209 177 209 "/><path d="M174 169 176 170 178 172 178 173 171 188 166 191 164 192 155 194 145 196 127 197 125 197 103 173 101 164 101 161 103 152 104 151 174 169 "/><path d="M189 0 183 17 180 20 178 21 174 22 165 22 148 18 129 12 122 8 120 5 122 0 189 0 "/></svg>