<svg width="256" height="256" xmlns="http://www.w3.org/2000/svg" fill-opacity="0" stroke="black" stroke-width="3" ><path d="M117 57 145 59 153 61 159 63 163 65 170 69 178 74 182 77 186 81 188 84 193 96 194 99 196 113 196 143 194 154 190 168 189 170 186 175 184 178 181 182 175 188 168 194 165 196 138 208 100 223 99 223 69 208 65 205 64 204 52 191 45 180 39 165 37 158 34 134 34 133 35 128 42 103 43 100 48 92 61 77 65 73 85 61 97 58 111 57 117 57 "/><path d="M204 0 204 3 203 6 195 15 186 25 176 31 173 32 161 33 137 33 113 32 97 30 78 18 68 1 68 0 204 0 "/><path d="M168 224 169 225 185 249 100 249 102 247 105 245 110 243 160 225 167 224 168 224 "/><path d="M34 233 44 235 47 236 58 245 58 247 57 249 0 249 0 243 10 238 25 233 34 233 "/></svg>