<svg width="256" height="256" xmlns="http://www.w3.org/2000/svg" fill-opacity="0" stroke="black" stroke-width="3" ><path d="M124 55 130 56 135 57 141 59 167 71 192 90 249 139 249 249 141 249 89 216 72 205 71 204 65 196 60 189 57 184 56 182 51 169 46 148 48 124 49 116 51 110 54 103 57 97 61 90 64 85 66 83 79 71 83 68 99 60 110 56 113 55 124 55 "/><path d="M20 59 21 60 25 67 26 69 29 78 30 86 30 110 20 138 14 146 10 151 9 152 2 157 0 158 0 46 1 45 20 59 "/><path d="M249 0 249 82 237 73 233 68 230 64 229 62 221 42 220 38 217 24 217 22 219 7 220 3 221 0 249 0 "/><path d="M16 225 24 231 36 241 37 242 39 245 40 248 40 249 0 249 0 246 2 237 4 235 15 225 16 225 "/></svg>