<svg width="256" height="256" xmlns="http://www.w3.org/2000/svg" fill-opacity="0" stroke="black" stroke-width="3" ><path d="M111 94 127 99 146 112 147 113 152 122 153 129 153 137 151 162 139 183 137 186 114 198 111 199 98 194 96 193 93 190 76 159 76 155 78 138 79 132 86 115 87 113 106 94 111 94 "/><path d="M138 0 141 6 141 12 140 17 136 27 118 63 117 64 113 67 110 68 104 68 101 67 77 44 68 34 61 18 59 9 60 6 61 5 68 0 138 0 "/><path d="M213 151 220 158 225 164 232 173 232 182 231 194 230 196 229 197 210 207 198 211 191 212 190 212 181 209 174 202 172 199 170 195 168 190 168 189 170 179 176 162 178 160 189 153 196 150 209 149 213 151 "/><path d="M154 35 164 40 167 43 171 49 172 53 173 60 173 62 172 66 169 72 165 76 162 78 157 81 147 85 145 85 142 84 134 80 133 79 130 69 129 57 129 55 131 48 134 44 139 39 145 35 154 35 "/><path d="M35 82 36 84 45 106 47 113 47 122 42 137 38 145 36 148 35 149 29 153 26 154 10 156 1 156 0 154 0 147 29 83 30 82 35 82 "/><path d="M9 30 13 32 23 42 25 46 25 57 21 65 19 68 18 69 14 70 0 63 0 31 6 30 9 30 "/><path d="M47 175 49 176 51 179 55 188 55 199 52 205 32 212 29 213 24 213 23 202 23 199 25 177 30 176 41 175 47 175 "/><path d="M249 0 249 41 247 41 244 39 240 36 231 27 230 25 229 22 229 10 234 1 235 0 249 0 "/></svg>