<svg width="256" height="256" xmlns="http://www.w3.org/2000/svg" fill-opacity="0" stroke="black" stroke-width="3" ><path d="M139 43 153 47 165 51 173 57 179 63 191 76 194 81 199 90 201 94 205 105 207 113 207 126 206 135 205 143 203 150 200 158 193 169 186 177 179 183 173 188 167 192 163 194 153 198 147 200 140 202 134 203 114 203 109 202 105 201 97 198 91 195 84 190 68 174 50 155 45 148 44 146 40 128 40 124 42 106 45 93 47 85 48 83 54 73 58 67 61 63 67 57 70 55 88 46 91 45 112 43 139 43 "/><path d="M25 160 30 161 36 163 41 165 55 178 63 189 65 192 69 201 70 210 70 220 69 226 67 231 63 239 54 249 10 249 1 246 0 241 0 178 2 170 3 167 19 160 25 160 "/></svg>