<svg width="256" height="256" xmlns="http://www.w3.org/2000/svg" fill-opacity="0" stroke="black" stroke-width="3" ><path d="M136 54 155 71 156 72 172 100 173 104 175 117 175 126 174 133 171 145 165 157 161 163 157 168 152 173 148 176 130 185 121 186 104 186 89 181 80 176 65 165 52 153 49 150 42 127 42 110 52 83 53 81 133 54 136 54 "/><path d="M224 30 236 31 249 37 249 101 247 107 238 112 231 113 229 113 226 112 222 110 211 100 206 95 205 93 202 86 201 83 200 71 200 59 204 41 215 32 219 30 224 30 "/><path d="M178 224 187 226 193 228 200 235 206 245 207 248 207 249 149 249 149 247 154 237 163 228 171 224 178 224 "/></svg>