<svg width="256" height="256" xmlns="http://www.w3.org/2000/svg" fill-opacity="0" stroke="black" stroke-width="3" ><path d="M100 24 108 25 114 26 125 28 135 32 144 36 148 38 162 46 167 49 212 78 214 80 216 84 216 86 214 132 210 155 209 159 203 178 201 181 188 192 135 216 117 220 64 227 60 227 57 223 23 165 21 161 17 147 15 139 15 135 17 109 18 104 20 97 21 94 23 89 31 73 40 59 42 56 46 52 57 42 67 33 73 30 89 25 93 24 100 24 "/><path d="M181 210 184 211 193 218 197 222 207 239 208 242 210 249 135 249 135 246 141 232 147 222 149 220 157 214 161 212 164 211 172 210 181 210 "/><path d="M48 0 55 8 57 12 57 13 55 18 54 20 50 25 44 31 42 32 37 34 31 35 22 35 19 34 9 29 0 23 0 0 48 0 "/></svg>