<svg width="256" height="256" xmlns="http://www.w3.org/2000/svg" fill-opacity="0" stroke="black" stroke-width="3" ><path d="M143 74 152 77 168 85 175 90 177 92 185 102 188 106 191 111 191 120 187 132 151 183 148 187 123 211 120 213 95 217 87 217 81 214 80 213 78 210 77 208 67 139 67 114 69 111 82 94 84 92 87 90 95 85 106 79 112 77 123 75 130 74 143 74 "/><path d="M93 0 102 4 103 26 100 59 97 66 96 67 94 68 47 73 44 73 17 69 15 68 0 59 0 0 93 0 "/><path d="M36 102 45 106 49 111 55 124 61 140 61 142 59 156 57 165 52 173 50 176 43 183 38 187 30 187 24 183 9 171 0 122 0 93 2 92 11 91 36 102 "/></svg>