<svg width="256" height="256" xmlns="http://www.w3.org/2000/svg" fill-opacity="0" stroke="black" stroke-width="3" ><path d="M132 62 138 64 148 70 151 72 165 85 166 86 170 91 188 138 189 141 190 146 190 162 189 169 188 172 183 182 163 197 158 200 156 201 134 210 122 213 108 213 94 212 76 205 74 204 66 197 64 195 59 188 48 168 46 164 45 159 45 157 46 151 65 97 73 84 83 73 86 70 89 68 95 65 98 64 114 62 132 62 "/><path d="M222 194 247 196 249 197 249 249 230 249 212 224 202 206 201 204 201 199 202 197 204 195 207 194 222 194 "/><path d="M138 217 139 218 143 226 146 237 145 249 74 249 73 248 71 241 71 240 75 231 77 228 127 218 136 217 138 217 "/><path d="M15 174 20 176 23 179 25 182 28 188 29 192 30 197 28 203 26 208 24 212 21 216 18 219 12 222 9 223 2 223 0 222 0 174 8 173 15 174 "/><path d="M170 211 181 214 183 215 188 221 188 222 187 223 159 249 150 249 146 232 147 217 148 215 149 214 151 213 157 211 170 211 "/></svg>