<svg width="256" height="256" xmlns="http://www.w3.org/2000/svg" fill-opacity="0" stroke="black" stroke-width="3" ><path d="M131 49 150 55 158 58 161 60 171 67 193 89 201 100 203 103 204 105 205 108 206 114 206 116 202 133 197 154 195 162 192 168 179 181 173 186 146 200 133 201 109 202 98 200 94 199 86 196 85 195 80 189 76 184 61 162 50 143 48 135 47 125 50 108 57 90 61 80 63 77 68 71 82 60 92 55 95 54 111 49 131 49 "/><path d="M12 136 24 137 28 139 43 148 53 155 54 156 68 176 69 178 70 199 70 201 61 216 41 249 0 249 0 138 5 137 11 136 12 136 "/><path d="M180 194 193 196 199 198 212 208 219 214 221 216 225 221 233 235 238 248 238 249 141 249 140 240 140 231 141 226 142 223 148 211 155 204 175 194 180 194 "/><path d="M81 0 84 3 83 24 79 29 64 44 45 53 38 53 28 48 8 34 0 28 0 0 81 0 "/><path d="M104 211 107 212 115 218 119 222 124 228 127 233 128 236 128 241 127 249 50 249 53 243 66 221 72 215 85 212 97 211 104 211 "/></svg>