<svg width="256" height="256" xmlns="http://www.w3.org/2000/svg" fill-opacity="0" stroke="black" stroke-width="3" ><path d="M149 63 162 66 167 68 171 70 182 80 183 81 191 90 195 97 196 99 197 108 198 119 198 130 197 135 193 147 191 152 190 154 184 164 171 177 164 182 162 183 153 187 148 189 135 192 123 192 113 189 107 187 94 181 92 180 86 174 80 165 78 161 74 149 73 140 73 131 74 112 76 106 78 101 83 94 90 87 96 83 98 82 144 63 149 63 "/><path d="M160 0 161 1 161 16 160 20 157 29 151 41 149 43 141 48 113 63 109 65 103 67 101 67 91 65 89 64 84 59 82 55 79 45 79 38 82 26 90 0 160 0 "/></svg>