<svg width="256" height="256" xmlns="http://www.w3.org/2000/svg" fill-opacity="0" stroke="black" stroke-width="3" ><path d="M130 49 155 54 158 55 162 57 184 72 188 77 191 81 198 95 202 113 202 118 102 206 101 206 71 205 68 204 56 196 49 190 43 184 37 174 28 157 21 143 20 138 20 125 21 116 22 112 25 103 26 101 28 98 33 91 43 81 69 63 78 57 89 53 94 52 113 49 130 49 "/><path d="M161 217 164 218 168 220 188 234 190 236 196 246 196 247 195 249 134 249 133 243 133 238 134 233 135 230 137 227 145 221 151 218 154 217 161 217 "/></svg>