<svg width="256" height="256" xmlns="http://www.w3.org/2000/svg" fill-opacity="0" stroke="black" stroke-width="3" ><path d="M116 0 194 81 196 84 198 88 200 93 203 137 203 138 200 147 192 159 183 171 176 179 173 182 165 188 158 192 156 193 150 195 140 198 122 199 86 199 56 181 55 180 10 114 10 111 11 73 21 25 22 22 34 4 37 0 116 0 "/><path d="M208 194 224 196 228 197 240 207 248 215 249 217 249 249 158 249 156 247 145 226 145 224 147 219 150 217 205 194 208 194 "/><path d="M248 0 247 3 222 43 220 46 215 51 198 56 191 56 189 55 183 50 181 48 179 45 178 43 178 32 179 27 181 23 184 19 191 13 194 11 196 10 217 0 248 0 "/></svg>