<svg width="256" height="256" xmlns="http://www.w3.org/2000/svg" fill-opacity="0" stroke="black" stroke-width="3" ><path d="M122 52 144 54 156 56 163 58 172 64 177 68 179 70 186 80 191 89 193 94 197 108 198 115 198 116 184 153 169 188 159 197 152 202 146 206 142 208 139 209 127 211 121 211 80 203 64 191 54 181 48 174 44 167 43 165 38 153 35 142 35 124 36 120 43 108 76 70 90 56 104 52 122 52 "/><path d="M53 39 59 44 59 45 55 55 44 67 43 68 38 71 15 78 0 78 0 0 53 39 "/><path d="M203 213 208 215 215 220 220 225 225 235 225 245 224 249 172 249 171 245 170 239 170 237 171 233 175 226 180 221 183 219 191 214 195 213 203 213 "/></svg>