<svg width="256" height="256" xmlns="http://www.w3.org/2000/svg" fill-opacity="0" stroke="black" stroke-width="3" ><path d="M164 29 172 31 175 33 183 39 196 52 206 65 210 91 210 93 208 111 202 147 200 157 198 165 194 172 191 176 187 181 183 185 175 191 172 193 168 195 145 200 116 206 101 206 78 195 69 190 65 187 53 176 49 170 40 152 38 142 41 112 42 106 43 101 45 97 55 82 76 56 77 55 93 43 107 37 112 35 121 32 126 31 138 29 155 27 164 29 "/><path d="M56 0 66 10 69 29 69 30 68 36 67 41 65 50 63 56 58 65 54 70 49 75 44 78 38 81 29 83 16 83 12 82 2 76 0 74 0 10 6 0 56 0 "/><path d="M173 228 177 229 183 233 186 236 188 239 189 243 189 244 188 249 108 249 114 245 154 229 165 227 173 228 "/><path d="M27 227 31 228 50 235 54 241 58 249 10 249 3 243 3 237 9 232 13 230 16 229 24 227 27 227 "/></svg>