<svg width="256" height="256" xmlns="http://www.w3.org/2000/svg" fill-opacity="0" stroke="black" stroke-width="3" ><path d="M153 68 176 83 177 84 177 86 173 137 163 153 155 159 153 159 141 158 137 157 126 148 124 146 98 115 98 113 106 94 110 86 128 69 140 65 153 68 "/><path d="M73 180 88 184 94 186 98 188 107 196 111 200 121 212 122 214 128 228 131 247 131 249 68 249 62 195 62 192 63 185 65 180 69 179 73 180 "/><path d="M182 196 185 197 193 201 196 203 200 206 202 209 208 219 209 222 209 225 206 239 205 242 203 246 199 249 153 249 150 246 147 242 145 237 144 234 143 225 144 221 146 217 152 206 156 202 162 198 167 196 182 196 "/><path d="M1 110 5 111 7 112 15 119 20 124 33 138 34 140 35 143 35 151 32 164 25 169 5 183 2 185 0 185 0 110 1 110 "/><path d="M249 110 249 151 244 150 240 149 232 146 228 142 226 134 225 129 225 123 226 122 230 119 248 110 249 110 "/></svg>