<svg width="256" height="256" xmlns="http://www.w3.org/2000/svg" fill-opacity="0" stroke="black" stroke-width="3" ><path d="M159 41 178 49 180 50 183 53 232 124 234 128 234 139 232 153 229 160 228 162 220 174 212 182 201 188 159 200 155 201 139 202 138 202 132 200 124 197 103 182 97 176 95 173 85 157 81 149 79 138 78 129 78 117 79 111 81 102 87 87 90 81 94 75 100 67 103 64 114 57 133 45 151 41 159 41 "/><path d="M194 220 205 223 213 226 218 231 221 238 222 241 224 249 134 249 137 243 141 237 143 235 147 233 163 227 169 225 184 221 188 220 194 220 "/><path d="M223 0 238 5 240 6 249 12 249 31 246 36 245 37 242 38 241 38 206 30 203 28 199 22 197 18 197 14 204 0 223 0 "/><path d="M62 0 59 3 53 8 44 14 21 16 17 16 11 15 7 14 2 12 0 11 0 4 6 0 62 0 "/></svg>