<svg width="256" height="256" xmlns="http://www.w3.org/2000/svg" fill-opacity="0" stroke="black" stroke-width="3" ><path d="M107 57 164 76 166 78 172 86 174 89 177 95 180 110 181 116 181 117 178 128 173 146 172 149 158 180 156 182 153 184 149 186 136 191 105 188 70 184 67 182 56 174 53 171 51 168 47 159 41 135 40 130 40 129 42 121 94 61 102 57 107 57 "/><path d="M231 123 233 126 249 161 249 202 233 213 231 214 227 214 222 213 218 212 200 201 192 189 191 184 190 174 190 172 191 155 194 145 202 126 209 120 231 123 "/><path d="M104 201 115 203 122 207 128 211 133 217 138 226 139 229 142 249 62 249 61 246 57 230 57 221 63 215 72 207 75 205 81 203 103 201 104 201 "/></svg>