<svg width="256" height="256" xmlns="http://www.w3.org/2000/svg" fill-opacity="0" stroke="black" stroke-width="3" ><path d="M128 43 136 44 158 50 249 92 249 220 215 220 105 205 100 203 95 200 82 191 72 181 63 171 61 168 59 164 57 155 55 144 55 135 57 124 61 108 68 90 69 88 75 78 77 75 84 65 91 58 95 55 101 51 112 44 127 43 128 43 "/><path d="M61 0 63 9 64 23 64 26 61 41 58 47 49 59 36 71 18 80 3 80 0 78 0 0 61 0 "/><path d="M199 0 199 2 198 4 196 7 192 12 189 15 180 22 167 32 163 33 162 33 119 22 117 20 114 4 117 0 199 0 "/></svg>