<svg width="256" height="256" xmlns="http://www.w3.org/2000/svg" fill-opacity="0" stroke="black" stroke-width="3" ><path d="M137 62 158 70 162 74 178 92 182 98 190 112 192 117 194 126 194 127 192 141 190 150 189 153 185 163 180 169 170 179 164 183 140 195 128 195 116 193 91 185 86 183 79 179 73 175 67 169 62 163 54 147 52 140 52 126 53 121 61 86 66 81 87 68 89 67 98 64 102 63 120 62 137 62 "/><path d="M33 206 37 207 39 208 48 214 50 216 50 217 48 224 43 233 33 246 7 246 0 244 0 208 2 207 19 206 33 206 "/><path d="M249 218 247 225 246 226 243 228 242 228 227 221 221 215 220 213 217 204 216 198 216 195 217 190 249 161 249 218 "/></svg>