<svg width="256" height="256" xmlns="http://www.w3.org/2000/svg" fill-opacity="0" stroke="black" stroke-width="3" ><path d="M155 105 193 130 202 149 202 152 201 156 200 158 183 188 180 191 174 193 153 198 151 198 131 193 123 188 106 171 104 168 104 158 108 132 109 130 118 114 130 100 141 98 155 105 "/><path d="M18 89 25 91 28 92 36 96 50 110 55 118 60 128 60 129 55 182 41 205 29 219 20 224 17 224 16 223 0 203 0 94 5 89 18 89 "/><path d="M47 0 49 5 52 17 52 27 51 33 50 36 45 48 42 53 31 62 23 67 21 68 20 68 3 61 0 58 0 40 1 0 47 0 "/><path d="M196 65 200 68 221 127 221 131 218 134 135 84 128 79 129 74 189 65 196 65 "/><path d="M248 201 249 202 249 228 247 247 246 249 208 249 215 225 220 219 247 201 248 201 "/><path d="M239 31 241 32 249 39 249 115 244 115 241 114 239 112 226 96 220 74 231 40 237 31 239 31 "/></svg>