<svg width="256" height="256" xmlns="http://www.w3.org/2000/svg" fill-opacity="0" stroke="black" stroke-width="3" ><path d="M116 14 141 15 145 17 152 21 183 39 189 43 191 45 200 60 205 71 209 81 217 105 219 129 219 148 216 155 202 181 192 192 171 207 145 224 137 225 136 225 44 207 40 204 34 197 26 183 25 175 25 164 50 50 53 42 54 40 62 32 65 30 70 27 77 23 81 21 88 19 107 15 112 14 116 14 "/><path d="M249 0 249 90 245 92 240 94 237 93 235 92 220 77 218 73 217 69 217 66 218 52 220 45 223 37 235 11 238 5 240 3 245 0 249 0 "/></svg>