<svg width="256" height="256" xmlns="http://www.w3.org/2000/svg" fill-opacity="0" stroke="black" stroke-width="3" ><path d="M128 32 139 34 144 35 159 40 186 56 207 73 210 76 213 81 214 120 214 121 213 128 201 180 200 184 191 199 182 208 175 213 168 217 166 218 159 221 141 228 127 228 120 227 107 225 94 221 91 220 77 213 63 201 53 189 51 185 45 172 41 154 39 131 39 109 40 92 41 88 45 81 47 78 51 73 55 69 94 40 105 35 110 33 126 32 128 32 "/><path d="M224 0 223 2 211 16 207 20 188 30 178 30 117 26 105 21 100 16 99 7 101 0 224 0 "/><path d="M1 94 3 95 12 103 16 111 17 114 19 128 19 131 16 140 11 154 10 156 7 161 5 164 2 167 0 168 0 94 1 94 "/></svg>