<svg width="256" height="256" xmlns="http://www.w3.org/2000/svg" fill-opacity="0" stroke="black" stroke-width="3" ><path d="M126 22 134 23 147 26 152 28 159 34 167 42 175 51 178 56 194 86 200 98 204 108 206 137 206 138 198 162 193 174 190 180 178 192 118 249 64 249 60 241 58 117 58 64 78 34 79 33 82 31 105 24 115 22 126 22 "/><path d="M6 38 14 39 33 46 38 50 40 61 44 84 46 111 46 118 45 249 0 249 0 39 2 38 6 38 "/><path d="M239 192 249 193 249 249 207 249 207 232 214 209 223 197 225 195 231 193 236 192 239 192 "/><path d="M170 0 168 6 166 10 163 14 162 15 158 18 154 18 140 17 133 16 124 12 123 10 122 6 123 3 126 0 170 0 "/></svg>