<svg width="256" height="256" xmlns="http://www.w3.org/2000/svg" fill-opacity="0" stroke="black" stroke-width="3" ><path d="M141 62 160 68 172 76 176 80 182 88 187 100 190 108 195 123 195 144 194 150 193 155 186 168 178 178 165 187 163 188 156 189 98 197 96 197 85 191 83 189 47 136 46 133 46 130 51 110 52 107 55 100 65 86 66 85 76 78 91 68 97 65 101 64 112 62 121 61 141 62 "/><path d="M21 123 27 124 30 125 32 126 33 127 64 168 82 203 82 205 66 235 48 249 0 249 0 123 21 123 "/><path d="M134 218 153 222 167 228 169 229 185 239 189 242 192 245 192 246 191 247 189 248 185 249 69 249 71 245 81 234 93 222 110 219 127 218 134 218 "/><path d="M17 0 18 1 19 5 21 17 20 24 17 35 15 39 11 46 1 58 0 59 0 0 17 0 "/></svg>