<svg width="256" height="256" xmlns="http://www.w3.org/2000/svg" fill-opacity="0" stroke="black" stroke-width="3" ><path d="M121 23 135 26 139 27 145 29 156 33 161 35 163 36 168 39 171 41 181 49 189 56 192 60 195 65 203 81 205 87 209 105 211 128 211 136 207 152 203 162 195 175 192 178 181 188 178 190 165 196 153 200 149 201 143 202 103 205 84 204 77 202 74 201 69 199 67 198 61 194 55 189 38 171 35 167 32 162 31 160 28 150 27 146 26 139 26 105 32 82 33 80 44 62 50 55 57 49 69 41 93 26 95 25 105 23 121 23 "/></svg>