<svg width="256" height="256" xmlns="http://www.w3.org/2000/svg" fill-opacity="0" stroke="black" stroke-width="3" ><path d="M32 0 149 26 152 27 156 29 186 47 209 65 216 71 223 78 225 82 235 110 235 112 233 150 231 159 230 162 223 176 207 200 200 210 197 214 180 225 175 228 168 232 162 235 146 241 140 243 133 244 122 245 120 245 81 239 66 235 56 232 42 225 17 212 10 207 4 201 0 196 0 0 32 0 "/><path d="M249 0 249 44 232 40 177 22 167 16 164 14 162 5 161 0 249 0 "/><path d="M8 224 12 225 31 230 41 234 57 243 63 247 65 249 0 249 0 226 2 225 7 224 8 224 "/></svg>