<svg width="256" height="256" xmlns="http://www.w3.org/2000/svg" fill-opacity="0" stroke="black" stroke-width="3" ><path d="M158 36 163 37 167 38 170 40 177 46 185 54 230 127 230 133 229 135 162 210 147 225 131 237 127 239 110 245 105 246 77 249 52 249 28 245 6 233 0 229 0 109 4 85 13 72 22 62 23 61 150 36 158 36 "/><path d="M139 0 140 4 137 7 119 15 100 21 81 26 34 33 14 35 5 35 0 33 0 16 24 0 139 0 "/><path d="M222 176 228 178 231 181 231 189 214 242 212 244 205 249 187 249 183 241 182 238 182 237 183 233 197 193 204 186 213 178 216 176 222 176 "/><path d="M249 0 249 44 234 44 221 42 216 39 215 38 213 34 210 27 209 24 209 23 211 10 212 6 214 2 220 0 249 0 "/></svg>