<svg width="256" height="256" xmlns="http://www.w3.org/2000/svg" fill-opacity="0" stroke="black" stroke-width="3" ><path d="M238 0 244 14 246 21 249 133 249 249 210 249 82 217 74 214 67 209 56 200 51 195 49 192 37 173 33 163 29 141 29 133 42 92 43 90 44 89 135 1 137 0 238 0 "/><path d="M8 163 11 165 12 166 19 176 41 217 41 220 40 242 39 249 0 249 0 163 8 163 "/><path d="M2 63 31 83 34 91 34 93 32 102 25 122 23 125 7 140 2 142 0 142 0 64 1 63 2 63 "/><path d="M14 31 23 41 25 45 29 62 21 69 12 65 0 59 0 42 8 32 11 31 14 31 "/></svg>