<svg width="256" height="256" xmlns="http://www.w3.org/2000/svg" fill-opacity="0" stroke="black" stroke-width="3" ><path d="M75 0 178 28 182 39 187 56 191 77 192 87 192 101 191 108 190 114 189 119 188 123 186 128 180 140 172 150 162 161 155 167 143 173 137 175 136 175 117 174 104 172 99 171 94 169 78 161 69 154 65 150 58 141 53 132 46 119 45 117 41 101 35 61 35 44 41 27 44 19 50 8 58 0 75 0 "/><path d="M204 157 249 168 249 247 234 246 185 223 183 222 179 219 177 217 171 207 170 205 169 194 169 189 178 172 184 164 186 162 188 161 197 157 204 157 "/><path d="M80 220 100 225 116 230 119 232 125 240 129 247 129 249 40 249 39 247 39 246 43 234 48 227 51 224 64 221 75 220 80 220 "/><path d="M6 186 12 189 20 197 24 209 24 215 22 224 18 233 17 235 0 249 0 186 6 186 "/></svg>