<svg width="256" height="256" xmlns="http://www.w3.org/2000/svg" fill-opacity="0" stroke="black" stroke-width="3" ><path d="M111 78 137 82 151 86 154 87 158 89 161 91 164 94 173 107 176 114 177 117 178 125 178 129 177 132 174 138 168 148 132 204 124 210 118 213 114 214 107 214 102 213 97 211 74 201 69 198 59 188 55 181 53 177 51 170 50 166 47 150 47 147 55 125 70 96 81 86 105 78 111 78 "/><path d="M243 146 248 147 249 148 249 241 246 249 149 249 147 235 147 231 149 214 150 209 155 198 164 186 180 165 183 162 188 158 191 156 196 153 204 149 209 148 225 146 243 146 "/><path d="M185 0 193 3 198 17 199 25 198 31 194 41 193 43 190 48 178 66 172 72 168 73 164 72 137 62 135 61 128 56 125 53 123 50 122 48 120 39 120 38 121 35 129 15 137 4 139 3 150 0 185 0 "/><path d="M249 51 249 120 241 122 221 118 213 111 212 108 211 104 211 98 213 80 215 72 217 69 225 59 231 53 237 51 249 51 "/><path d="M67 230 70 231 100 242 102 243 105 245 109 249 33 249 33 247 37 241 39 239 43 237 60 231 65 230 67 230 "/></svg>