<svg width="256" height="256" xmlns="http://www.w3.org/2000/svg" fill-opacity="0" stroke="black" stroke-width="3" ><path d="M130 53 137 55 143 57 148 59 164 67 171 73 178 80 182 85 184 89 186 96 190 112 190 124 170 200 167 205 164 208 161 210 140 220 134 222 118 226 106 228 96 228 89 226 75 219 66 214 57 208 41 194 37 188 35 184 33 178 33 175 35 164 76 76 77 74 79 71 87 63 99 57 104 55 107 54 118 53 130 53 "/><path d="M15 22 23 27 28 32 32 37 38 45 44 55 48 67 50 79 50 86 48 95 41 116 37 125 30 138 26 144 23 148 6 166 0 170 0 31 9 24 12 22 15 22 "/><path d="M235 157 239 159 248 165 249 166 249 195 246 220 237 222 222 222 217 220 215 219 205 212 203 210 199 204 197 200 195 190 195 187 196 185 199 180 201 177 207 170 212 165 231 157 235 157 "/></svg>