<svg width="256" height="256" xmlns="http://www.w3.org/2000/svg" fill-opacity="0" stroke="black" stroke-width="3" ><path d="M130 77 158 80 165 82 179 94 180 95 183 101 188 112 190 138 188 146 186 153 174 180 172 183 168 187 147 205 144 207 130 215 112 223 97 224 94 224 87 223 83 222 76 215 65 191 60 179 56 164 56 146 59 130 61 122 71 104 72 103 86 90 89 88 96 85 113 78 123 77 130 77 "/><path d="M6 144 19 150 21 152 32 172 36 196 39 231 39 240 38 242 36 244 21 249 0 249 0 152 4 144 6 144 "/><path d="M46 0 55 15 56 17 56 20 55 30 51 40 50 42 28 61 20 65 7 71 1 72 0 71 0 0 46 0 "/></svg>