<svg width="256" height="256" xmlns="http://www.w3.org/2000/svg" fill-opacity="0" stroke="black" stroke-width="3" ><path d="M131 53 139 55 152 59 158 61 162 63 172 69 181 75 197 90 201 94 206 101 208 104 213 114 215 119 217 127 219 136 221 147 221 153 219 173 216 184 215 187 207 203 195 219 193 221 188 225 184 228 181 230 179 231 171 234 166 234 159 233 39 192 30 185 27 182 25 179 24 177 23 174 20 164 19 147 20 138 21 134 24 127 28 118 29 116 32 111 38 104 42 100 47 96 79 73 100 59 102 58 109 55 115 53 124 52 131 53 "/><path d="M86 209 90 211 96 216 99 219 101 235 101 238 99 242 90 249 57 249 56 225 58 221 61 218 69 214 79 210 82 209 86 209 "/><path d="M74 0 77 1 80 3 82 5 85 18 85 22 83 24 78 25 72 25 61 21 45 13 42 10 38 4 36 0 74 0 "/><path d="M155 0 155 1 154 4 153 6 149 12 145 14 126 18 120 19 119 19 117 18 114 16 112 14 112 13 115 2 118 0 155 0 "/></svg>