<svg width="256" height="256" xmlns="http://www.w3.org/2000/svg" fill-opacity="0" stroke="black" stroke-width="3" ><path d="M129 22 146 24 160 26 166 28 187 38 192 42 198 48 201 52 206 59 211 68 231 106 235 119 236 128 236 139 234 150 231 159 226 171 225 173 221 178 205 197 196 205 194 206 175 209 152 211 149 211 133 209 128 208 105 201 92 195 70 181 66 178 65 177 54 165 48 154 46 150 42 139 39 128 37 118 37 108 40 87 46 68 50 61 56 51 58 48 60 46 70 37 76 33 97 26 109 24 128 22 129 22 "/><path d="M249 73 244 76 242 76 238 74 235 71 233 68 228 45 228 39 230 34 236 24 238 21 244 15 249 14 249 73 "/></svg>