<svg width="256" height="256" xmlns="http://www.w3.org/2000/svg" fill-opacity="0" stroke="black" stroke-width="3" ><path d="M151 0 207 64 208 66 209 71 210 81 210 82 209 92 205 104 201 115 176 158 168 171 160 178 145 185 137 187 118 191 107 191 99 187 94 184 91 182 79 170 74 161 72 157 70 152 69 143 69 119 70 107 72 96 73 91 80 60 86 47 105 13 116 0 151 0 "/><path d="M21 0 28 17 30 22 33 34 34 46 34 57 33 62 29 80 28 82 26 85 22 90 19 93 11 98 9 99 4 101 0 102 0 3 1 0 21 0 "/><path d="M249 249 213 249 213 248 214 243 215 239 221 227 224 222 229 215 237 207 240 205 244 203 249 201 249 249 "/></svg>