<svg width="256" height="256" xmlns="http://www.w3.org/2000/svg" fill-opacity="0" stroke="black" stroke-width="3" ><path d="M173 67 193 84 194 85 201 97 202 100 203 106 203 108 202 115 198 134 197 137 184 160 176 168 165 176 147 185 130 191 124 193 115 193 98 190 88 187 85 186 67 175 55 154 49 140 47 129 47 126 48 105 49 99 51 92 61 77 67 70 74 63 83 57 95 52 102 50 137 46 173 67 "/><path d="M60 0 60 2 34 45 21 62 18 65 14 67 6 68 4 68 0 66 0 0 60 0 "/><path d="M249 0 249 53 241 53 237 52 230 49 228 48 211 36 209 34 203 27 200 17 198 10 198 0 249 0 "/><path d="M50 236 56 238 61 240 68 247 68 249 0 249 0 222 50 236 "/></svg>