<svg width="256" height="256" xmlns="http://www.w3.org/2000/svg" fill-opacity="0" stroke="black" stroke-width="3" ><path d="M92 64 180 79 183 80 188 85 194 93 196 99 196 150 194 155 190 164 189 166 187 169 181 175 178 177 173 180 171 181 164 182 159 182 99 178 46 170 39 166 29 151 27 140 26 115 26 114 27 104 30 94 37 84 43 76 55 69 61 66 85 64 92 64 "/><path d="M193 199 216 209 236 224 238 226 243 232 246 244 246 249 165 249 164 248 162 245 161 243 159 238 158 226 158 221 159 219 164 210 167 207 177 200 179 199 193 199 "/><path d="M80 188 81 189 82 203 82 204 56 249 25 249 25 248 37 214 46 197 48 195 53 192 55 191 59 190 79 188 80 188 "/><path d="M95 217 97 218 100 220 101 221 107 230 108 232 109 240 109 241 108 249 73 249 73 247 77 226 78 222 79 220 83 218 91 217 95 217 "/><path d="M249 132 249 195 241 186 236 171 236 156 239 138 240 136 242 134 248 132 249 132 "/></svg>