<svg width="256" height="256" xmlns="http://www.w3.org/2000/svg" fill-opacity="0" stroke="black" stroke-width="3" ><path d="M53 43 67 46 144 65 149 67 161 73 164 75 172 81 173 82 185 101 187 105 192 121 192 133 191 138 190 141 184 153 180 160 173 165 153 176 141 180 133 182 128 183 127 183 122 182 25 141 10 130 4 119 0 93 0 88 3 74 7 66 16 57 24 51 30 48 37 45 41 44 47 43 53 43 "/><path d="M201 171 217 175 221 177 231 183 239 189 243 193 249 206 249 249 145 249 139 225 138 219 138 218 139 210 140 207 142 202 143 200 146 195 154 186 156 184 163 179 170 175 175 173 182 171 201 171 "/><path d="M64 170 74 173 77 176 81 181 84 185 86 191 87 197 86 206 82 212 56 249 20 249 20 230 21 217 24 211 30 200 43 181 45 179 49 176 61 170 64 170 "/><path d="M122 205 128 211 129 213 136 241 136 244 134 249 84 249 84 245 89 231 95 218 98 214 104 208 114 206 120 205 122 205 "/></svg>