<svg width="256" height="256" xmlns="http://www.w3.org/2000/svg" fill-opacity="0" stroke="black" stroke-width="3" ><path d="M175 12 209 23 214 25 230 41 249 63 249 131 242 161 240 166 236 170 100 232 99 232 91 224 65 184 43 132 42 128 43 119 44 115 51 96 53 92 71 63 79 51 81 49 103 35 105 34 140 19 169 11 175 12 "/><path d="M1 158 8 159 14 161 24 165 28 167 33 170 37 173 39 175 46 183 48 186 49 188 50 191 51 195 51 197 49 213 48 215 31 235 15 245 4 249 0 249 0 158 1 158 "/><path d="M171 231 184 238 196 249 137 249 137 248 138 245 140 242 143 239 156 233 165 231 171 231 "/></svg>