<svg width="256" height="256" xmlns="http://www.w3.org/2000/svg" fill-opacity="0" stroke="black" stroke-width="3" ><path d="M133 48 139 49 144 50 155 53 158 54 169 60 183 68 188 72 191 76 198 87 199 89 201 94 202 98 202 99 199 110 189 136 161 167 154 174 126 197 113 197 101 191 95 187 94 186 84 175 58 124 57 122 57 118 58 111 63 93 65 87 70 77 74 72 80 66 90 59 108 52 117 49 130 48 133 48 "/><path d="M249 99 249 187 238 187 228 185 224 183 217 178 210 172 208 169 202 156 201 152 200 144 200 136 201 131 202 128 203 126 206 121 213 112 221 104 223 103 231 100 236 99 249 99 "/><path d="M6 188 40 217 41 218 49 227 52 231 53 233 53 242 51 246 49 249 0 249 0 184 6 188 "/><path d="M249 0 249 15 239 24 230 31 225 31 212 28 210 27 200 19 200 12 202 5 203 3 204 2 207 0 249 0 "/><path d="M19 133 21 134 24 136 26 140 26 147 25 156 24 159 6 172 4 172 1 171 0 158 0 136 14 133 19 133 "/></svg>