<svg width="256" height="256" xmlns="http://www.w3.org/2000/svg" fill-opacity="0" stroke="black" stroke-width="3" ><path d="M120 47 138 49 146 53 155 59 157 61 178 84 181 88 183 91 184 93 188 102 189 106 190 114 190 133 188 139 178 160 176 164 170 174 162 182 112 196 95 197 94 197 91 196 87 194 69 184 63 179 59 174 51 162 49 158 47 152 47 151 49 145 84 67 97 53 98 52 100 51 119 47 120 47 "/><path d="M88 0 88 14 85 20 80 27 75 32 72 34 66 37 63 38 54 38 50 37 47 36 37 31 21 20 18 15 17 13 17 5 18 0 88 0 "/><path d="M206 0 206 2 204 6 199 14 195 19 191 22 186 24 175 27 162 27 134 20 129 15 123 8 119 0 206 0 "/></svg>