<svg width="256" height="256" xmlns="http://www.w3.org/2000/svg" fill-opacity="0" stroke="black" stroke-width="3" ><path d="M155 42 191 54 193 55 208 63 215 70 219 77 222 84 225 92 225 93 213 122 159 207 151 209 146 209 109 204 104 203 98 199 81 183 78 180 75 176 70 167 68 163 63 148 62 143 60 127 60 120 66 102 67 100 100 53 101 52 141 42 155 42 "/><path d="M249 0 249 40 246 42 238 46 231 49 215 52 214 52 192 46 190 45 175 31 174 30 168 18 163 6 163 3 167 0 249 0 "/><path d="M61 213 77 214 98 222 102 224 103 225 105 228 113 242 116 249 27 249 27 248 29 238 31 234 37 225 41 221 51 215 59 213 61 213 "/></svg>