<svg width="256" height="256" xmlns="http://www.w3.org/2000/svg" fill-opacity="0" stroke="black" stroke-width="3" ><path d="M128 42 148 51 156 55 159 57 173 70 177 74 180 78 186 87 189 92 203 130 204 133 205 138 205 156 203 163 199 169 190 180 187 183 158 204 137 215 131 217 122 219 118 219 103 217 97 216 92 215 83 213 70 207 64 202 60 197 59 195 38 107 38 103 40 92 41 89 44 84 56 69 66 59 70 56 76 52 90 46 96 44 118 42 128 42 "/><path d="M162 223 170 224 181 231 186 236 187 238 189 243 190 246 190 249 132 249 132 248 133 245 134 243 140 234 142 232 148 228 150 227 160 223 162 223 "/><path d="M233 0 236 4 238 15 238 18 237 27 236 28 232 30 230 30 227 29 222 27 210 18 201 11 200 10 197 4 197 0 233 0 "/></svg>