<svg width="256" height="256" xmlns="http://www.w3.org/2000/svg" fill-opacity="0" stroke="black" stroke-width="3" ><path d="M132 44 140 45 153 47 159 48 167 52 174 56 179 60 187 68 193 76 199 85 206 96 209 101 211 109 211 124 207 137 195 169 193 173 191 176 183 183 173 191 170 193 168 194 153 201 145 204 140 205 133 206 110 206 104 205 99 204 82 199 76 196 72 193 56 177 52 169 48 160 46 155 43 146 42 142 41 130 42 115 44 108 54 83 56 79 62 71 68 64 72 61 80 56 92 50 106 46 115 44 132 44 "/></svg>