<svg width="256" height="256" xmlns="http://www.w3.org/2000/svg" fill-opacity="0" stroke="black" stroke-width="3" ><path d="M169 10 195 14 225 29 248 44 249 45 249 166 129 229 127 230 120 231 108 231 90 230 87 229 73 223 48 206 43 200 40 196 35 189 24 172 20 145 19 135 19 133 22 127 35 105 50 84 55 78 62 70 68 64 80 55 89 50 167 10 169 10 "/><path d="M67 0 69 4 70 8 70 12 62 36 54 47 22 87 21 87 19 86 0 67 0 0 67 0 "/><path d="M243 211 249 223 249 249 164 249 164 247 165 243 178 214 194 196 196 195 243 211 "/></svg>