<svg width="256" height="256" xmlns="http://www.w3.org/2000/svg" fill-opacity="0" stroke="black" stroke-width="3" ><path d="M116 0 125 10 143 34 148 42 154 52 160 63 164 71 165 75 167 84 168 93 168 110 166 116 160 133 152 145 137 161 127 167 123 169 104 177 97 179 86 179 42 161 41 160 19 125 10 105 5 90 0 71 0 22 3 17 4 16 15 7 25 0 116 0 "/><path d="M229 0 230 1 230 2 229 17 228 20 220 39 217 41 209 46 195 53 187 53 183 52 177 49 166 43 161 39 151 24 145 12 141 0 229 0 "/><path d="M249 223 247 223 245 222 240 218 237 215 234 210 231 203 229 194 229 186 230 181 232 172 237 161 239 157 246 145 249 141 249 223 "/></svg>