<svg width="256" height="256" xmlns="http://www.w3.org/2000/svg" fill-opacity="0" stroke="black" stroke-width="3" ><path d="M151 12 235 17 249 19 249 235 243 249 170 249 109 243 79 237 57 228 55 227 38 205 32 193 28 184 22 169 20 160 19 128 19 125 24 104 26 98 38 68 39 66 54 42 60 34 67 28 82 21 89 19 94 18 147 12 151 12 "/><path d="M15 209 25 210 28 211 76 246 80 249 0 249 0 215 8 211 14 209 15 209 "/><path d="M1 31 13 34 19 46 20 50 21 55 21 64 14 104 12 112 10 118 5 123 0 127 0 31 1 31 "/></svg>