<svg width="256" height="256" xmlns="http://www.w3.org/2000/svg" fill-opacity="0" stroke="black" stroke-width="3" ><path d="M176 38 188 44 194 48 195 49 204 59 205 61 211 87 214 109 215 121 215 126 214 142 209 153 203 165 197 173 189 181 161 205 152 211 145 214 136 216 102 216 80 212 77 211 72 209 64 205 41 177 39 173 35 162 34 124 34 122 36 108 59 78 65 75 94 61 97 60 110 56 173 38 176 38 "/><path d="M235 194 249 197 249 222 213 248 199 249 181 249 181 246 187 215 188 214 225 195 229 194 235 194 "/><path d="M135 236 143 238 145 239 148 242 149 244 151 249 75 249 76 248 80 245 84 243 93 240 97 239 115 236 135 236 "/></svg>