<svg width="256" height="256" xmlns="http://www.w3.org/2000/svg" fill-opacity="0" stroke="black" stroke-width="3" ><path d="M122 46 128 48 156 58 157 59 165 70 193 113 196 122 196 129 193 147 189 159 188 161 185 165 168 185 166 187 115 203 51 161 48 155 47 152 53 102 56 87 58 85 105 51 120 46 122 46 "/><path d="M30 71 31 72 32 75 30 107 25 149 12 151 10 151 0 148 0 79 1 78 4 77 24 71 30 71 "/><path d="M32 160 47 164 47 165 45 170 35 185 20 190 17 190 0 185 0 156 32 160 "/><path d="M154 0 155 2 143 21 141 22 132 25 120 24 114 23 102 11 101 9 101 0 154 0 "/></svg>