<svg width="256" height="256" xmlns="http://www.w3.org/2000/svg" fill-opacity="0" stroke="black" stroke-width="3" ><path d="M142 57 148 59 160 65 163 67 184 86 195 97 199 110 201 121 201 129 198 144 195 153 177 180 175 182 169 187 162 192 159 194 155 196 142 198 126 199 120 199 115 198 112 197 102 193 97 190 91 186 84 181 72 171 71 170 60 155 57 144 55 131 55 124 56 115 60 98 70 85 74 81 98 63 102 61 107 59 111 58 119 57 142 57 "/><path d="M249 249 212 249 216 231 218 227 223 221 225 219 234 214 236 213 249 207 249 249 "/></svg>