<svg width="256" height="256" xmlns="http://www.w3.org/2000/svg" fill-opacity="0" stroke="black" stroke-width="3" ><path d="M130 54 145 56 150 57 162 60 170 65 180 76 186 83 190 89 190 99 189 113 182 158 180 163 178 166 170 174 167 176 154 184 150 186 146 187 132 190 129 190 119 189 113 188 108 187 102 184 95 180 87 174 86 173 77 160 72 152 64 137 63 135 61 116 61 113 62 108 65 95 69 85 73 79 75 77 82 72 105 57 107 56 110 55 117 53 130 54 "/><path d="M23 139 31 141 39 145 45 149 55 159 56 161 58 167 59 173 58 184 53 194 47 202 46 203 42 206 35 209 31 210 16 210 9 208 5 206 0 201 0 149 3 145 10 141 13 140 17 139 23 139 "/><path d="M242 118 247 120 249 128 249 159 246 162 243 163 238 164 235 164 216 154 213 151 210 147 209 140 209 134 229 115 242 118 "/><path d="M249 214 249 236 242 245 239 248 233 249 212 249 212 217 214 216 240 214 249 214 "/><path d="M35 235 45 236 48 237 54 240 58 243 61 246 62 248 62 249 3 249 3 246 4 245 10 241 15 238 17 237 20 236 24 235 35 235 "/></svg>