<svg width="256" height="256" xmlns="http://www.w3.org/2000/svg" fill-opacity="0" stroke="black" stroke-width="3" ><path d="M35 5 41 6 54 9 62 12 66 14 82 25 87 29 91 33 104 49 114 64 114 104 112 115 111 118 109 121 98 133 91 140 65 155 2 147 0 146 0 14 2 11 3 10 9 7 19 5 35 5 "/><path d="M46 158 59 162 66 192 66 196 63 205 49 230 46 233 37 240 36 240 21 239 16 236 0 225 0 154 46 158 "/><path d="M249 249 217 249 204 246 202 245 198 242 189 227 188 221 187 211 187 208 189 204 190 203 243 159 249 155 249 249 "/><path d="M249 0 249 40 242 44 229 45 201 40 197 38 191 28 187 8 188 3 189 0 249 0 "/><path d="M147 159 167 160 169 161 170 163 169 173 154 190 151 193 148 194 145 194 139 192 133 183 131 179 131 174 140 161 141 160 143 159 147 159 "/></svg>