<svg width="256" height="256" xmlns="http://www.w3.org/2000/svg" fill-opacity="0" stroke="black" stroke-width="3" ><path d="M129 43 156 49 168 55 174 60 177 63 191 78 200 91 203 100 204 104 206 116 208 132 208 138 200 154 176 188 166 197 159 202 148 206 145 207 138 209 126 210 111 211 109 211 83 196 64 179 63 178 55 168 49 156 45 144 43 134 42 122 42 115 43 110 44 106 50 88 67 71 75 64 81 59 97 49 107 45 127 43 129 43 "/><path d="M245 0 243 5 238 12 236 14 232 17 227 19 210 17 204 13 203 12 199 0 245 0 "/></svg>