<svg width="256" height="256" xmlns="http://www.w3.org/2000/svg" fill-opacity="0" stroke="black" stroke-width="3" ><path d="M124 47 151 48 160 50 163 51 177 59 180 62 194 78 199 87 201 91 202 94 204 101 204 136 202 143 198 152 194 160 184 173 173 184 168 187 154 193 144 195 125 197 118 196 112 195 96 189 87 185 85 184 75 178 62 166 59 163 56 151 56 134 58 109 59 104 62 94 63 91 67 85 70 82 90 63 100 54 102 53 110 50 122 47 124 47 "/><path d="M1 26 30 29 33 30 34 31 48 48 49 50 49 57 47 61 13 113 6 120 1 123 0 123 0 26 1 26 "/><path d="M249 129 249 209 233 208 229 207 226 206 206 183 204 180 204 177 214 155 215 153 235 133 241 130 245 129 249 129 "/><path d="M92 214 93 219 93 220 91 222 59 249 0 249 0 220 1 219 90 212 92 214 "/><path d="M150 224 155 225 167 228 173 233 184 244 184 249 121 249 121 248 122 245 123 243 127 238 133 232 141 227 145 225 149 224 150 224 "/></svg>