<svg width="256" height="256" xmlns="http://www.w3.org/2000/svg" fill-opacity="0" stroke="black" stroke-width="3" ><path d="M223 0 224 3 249 87 249 191 175 216 161 220 156 221 125 225 124 225 121 224 111 219 88 196 83 190 66 169 60 157 58 149 58 137 61 125 86 77 96 62 137 6 140 3 144 0 223 0 "/><path d="M82 210 90 219 97 233 102 246 102 247 100 249 44 249 42 246 41 242 40 230 40 229 42 221 44 217 46 214 49 210 59 203 61 202 68 201 82 210 "/><path d="M36 4 50 9 52 10 57 14 59 30 59 32 47 44 33 50 30 51 9 53 8 53 0 50 0 8 1 7 31 4 36 4 "/><path d="M6 63 7 64 14 73 16 76 24 91 25 93 25 96 24 98 21 100 14 100 5 96 3 94 0 87 0 62 6 63 "/></svg>