<svg width="256" height="256" xmlns="http://www.w3.org/2000/svg" fill-opacity="0" stroke="black" stroke-width="3" ><path d="M127 22 135 24 158 40 171 52 177 58 189 72 193 78 203 95 209 112 211 119 211 149 210 154 208 163 207 166 203 177 191 191 166 214 160 219 154 221 144 223 120 224 117 224 100 218 72 205 68 203 65 201 60 197 55 192 36 167 33 163 28 155 26 149 19 119 19 118 34 48 36 46 100 24 110 22 127 22 "/><path d="M249 0 249 25 245 28 167 33 164 33 162 32 161 31 158 27 157 24 154 3 154 0 249 0 "/><path d="M249 206 248 207 223 209 221 209 213 205 204 200 203 199 236 144 241 136 249 133 249 206 "/></svg>