<svg width="256" height="256" xmlns="http://www.w3.org/2000/svg" fill-opacity="0" stroke="black" stroke-width="3" ><path d="M112 19 122 21 128 23 135 27 172 57 193 78 196 83 198 87 202 98 204 107 204 132 203 137 201 145 198 152 193 161 187 170 181 178 170 189 162 194 157 197 155 198 24 246 11 246 7 244 5 242 0 236 0 104 47 51 68 28 111 19 112 19 "/><path d="M207 193 210 194 214 196 216 198 220 206 222 215 222 224 220 230 217 235 212 241 201 249 197 249 189 220 189 209 190 207 193 202 195 199 197 197 205 193 207 193 "/></svg>