<svg width="256" height="256" xmlns="http://www.w3.org/2000/svg" fill-opacity="0" stroke="black" stroke-width="3" ><path d="M87 53 205 76 209 82 211 87 213 95 213 102 212 106 173 190 169 198 167 200 162 204 157 206 145 210 136 210 131 209 110 202 100 198 96 196 90 192 82 185 80 183 72 174 63 162 56 148 55 145 52 127 51 116 51 107 52 97 56 85 58 81 66 69 76 59 82 55 86 53 87 53 "/><path d="M249 155 249 245 246 249 212 249 198 236 196 234 193 230 190 225 190 222 203 171 208 160 209 159 233 153 249 155 "/></svg>