<svg width="256" height="256" xmlns="http://www.w3.org/2000/svg" fill-opacity="0" stroke="black" stroke-width="3" ><path d="M135 59 159 67 185 79 197 106 197 118 190 138 164 182 160 186 154 190 148 192 118 192 87 190 84 189 79 187 75 185 71 181 65 174 63 171 61 167 57 155 57 151 62 82 63 80 64 79 128 57 135 59 "/><path d="M114 0 116 5 116 15 115 17 84 44 82 45 79 46 76 46 65 44 59 42 40 33 37 29 35 25 35 9 39 0 114 0 "/><path d="M19 89 30 93 31 94 34 109 34 141 33 144 22 167 19 170 13 175 7 178 1 180 0 180 0 94 18 89 19 89 "/><path d="M218 206 242 211 245 212 247 214 249 225 249 246 243 247 226 249 208 249 200 242 197 238 190 227 189 224 189 217 190 215 204 206 218 206 "/></svg>