<svg width="256" height="256" xmlns="http://www.w3.org/2000/svg" fill-opacity="0" stroke="black" stroke-width="3" ><path d="M114 42 124 43 142 49 146 51 149 53 165 67 169 71 172 75 212 131 218 151 218 153 196 249 188 249 51 201 49 200 37 188 0 92 0 66 2 64 110 42 114 42 "/><path d="M220 59 223 60 239 66 240 67 246 78 246 103 242 110 236 116 233 118 213 122 212 122 206 119 205 118 198 109 196 106 191 98 190 95 190 84 191 74 193 69 204 62 212 59 220 59 "/><path d="M245 203 249 205 249 244 225 247 219 247 216 246 214 245 211 243 209 241 206 236 205 234 205 224 211 212 217 206 219 205 231 200 235 199 245 203 "/></svg>