<svg width="256" height="256" xmlns="http://www.w3.org/2000/svg" fill-opacity="0" stroke="black" stroke-width="3" ><path d="M234 131 241 136 248 143 249 145 249 199 245 211 231 215 218 216 217 216 214 215 203 209 199 205 195 199 193 174 192 160 192 156 193 152 200 139 202 137 204 136 217 132 231 131 234 131 "/><path d="M161 147 162 148 177 174 178 178 178 191 172 207 168 213 165 217 152 231 150 233 142 239 139 241 131 246 125 246 103 222 97 193 97 191 115 166 134 154 149 148 160 147 161 147 "/><path d="M191 46 199 47 208 51 214 56 220 66 222 71 223 76 223 80 213 99 206 106 201 108 190 112 186 111 177 107 171 104 163 96 158 78 160 68 166 59 169 56 180 48 182 47 185 46 191 46 "/><path d="M54 117 56 119 64 145 64 148 57 163 55 167 54 168 35 159 23 137 19 127 19 120 24 117 54 117 "/><path d="M225 231 231 235 240 242 241 243 243 246 243 249 198 249 198 239 199 237 201 234 202 233 208 231 225 231 "/></svg>