<svg width="256" height="256" xmlns="http://www.w3.org/2000/svg" fill-opacity="0" stroke="black" stroke-width="3" ><path d="M113 35 121 36 130 38 134 39 143 43 159 53 165 58 169 62 177 71 181 76 184 80 198 101 199 103 200 106 201 151 201 156 200 158 195 165 193 167 166 192 160 197 149 206 146 208 122 220 113 223 101 224 97 224 76 222 69 220 58 215 56 214 50 210 46 207 37 198 33 193 27 184 21 172 20 167 19 161 16 136 16 133 17 125 19 114 21 104 22 100 23 97 25 92 29 83 37 73 45 65 57 55 62 51 71 45 87 39 91 38 97 37 111 35 113 35 "/><path d="M204 181 210 185 220 193 223 196 225 201 226 205 227 220 227 225 225 230 222 236 218 240 211 244 205 246 189 249 186 249 182 247 181 246 177 240 172 225 171 221 171 211 179 200 183 196 196 185 199 183 203 181 204 181 "/></svg>