<svg width="256" height="256" xmlns="http://www.w3.org/2000/svg" fill-opacity="0" stroke="black" stroke-width="3" ><path d="M213 0 237 112 238 120 238 149 237 155 213 193 207 199 198 206 177 217 163 222 129 224 128 224 112 220 96 213 80 203 73 196 66 188 61 182 58 178 54 172 51 167 46 158 40 134 40 113 46 88 55 72 60 65 66 58 69 55 80 46 84 43 93 38 164 0 213 0 "/><path d="M45 0 45 2 44 17 34 41 19 62 7 76 4 79 1 81 0 81 0 0 45 0 "/><path d="M141 0 136 6 130 12 121 18 113 22 106 22 94 20 90 19 86 17 83 15 76 8 70 1 70 0 141 0 "/><path d="M249 136 249 219 248 219 236 210 234 208 232 205 228 196 228 190 234 167 245 141 246 139 248 136 249 136 "/></svg>