<svg width="256" height="256" xmlns="http://www.w3.org/2000/svg" fill-opacity="0" stroke="black" stroke-width="3" ><path d="M140 44 154 46 162 48 163 49 181 70 186 76 190 82 201 102 206 112 210 128 212 138 212 140 210 153 209 159 208 163 206 169 204 173 201 178 199 181 194 187 187 194 182 198 176 202 165 208 163 209 157 211 150 213 132 215 127 215 114 213 107 211 89 205 86 203 75 195 71 192 67 187 60 178 52 162 51 159 48 144 47 135 47 121 49 107 52 94 54 89 56 85 60 78 62 75 83 59 87 56 90 54 99 49 102 48 116 45 121 44 140 44 "/><path d="M149 0 149 1 148 3 138 11 134 14 129 17 117 24 108 28 82 30 75 30 40 19 38 13 34 0 149 0 "/></svg>