<svg width="256" height="256" xmlns="http://www.w3.org/2000/svg" fill-opacity="0" stroke="black" stroke-width="3" ><path d="M175 25 178 26 185 30 189 34 205 60 209 133 208 141 207 147 203 159 199 163 177 181 172 185 169 187 157 193 146 197 137 199 126 201 125 201 103 200 97 199 84 195 62 184 59 182 54 177 48 168 32 130 28 118 27 102 27 96 28 91 29 87 30 84 34 73 36 68 38 64 42 58 57 43 62 40 64 39 72 36 166 25 175 25 "/><path d="M168 208 179 210 187 213 189 214 195 218 206 226 211 230 213 232 215 235 215 237 207 249 60 249 60 248 75 238 89 229 98 224 102 222 116 216 122 214 135 210 144 208 168 208 "/></svg>