<svg width="256" height="256" xmlns="http://www.w3.org/2000/svg" fill-opacity="0" stroke="black" stroke-width="3" ><path d="M110 61 132 62 150 64 162 71 172 82 189 105 191 112 193 124 196 157 196 173 194 181 181 202 173 209 170 211 168 212 165 212 87 200 71 193 58 186 46 177 33 161 27 152 24 146 24 141 27 125 36 96 43 89 52 81 56 78 65 72 78 66 98 62 105 61 110 61 "/><path d="M48 0 48 3 47 16 39 28 38 29 35 31 31 33 19 38 16 38 11 37 2 35 0 33 0 0 48 0 "/><path d="M117 0 117 3 114 10 107 22 106 23 99 28 95 29 90 30 88 30 83 28 78 25 70 19 70 10 71 4 73 0 117 0 "/></svg>