<svg width="256" height="256" xmlns="http://www.w3.org/2000/svg" fill-opacity="0" stroke="black" stroke-width="3" ><path d="M199 171 243 184 246 185 247 186 249 224 249 228 248 230 245 234 244 235 238 240 222 245 219 245 209 244 191 238 184 235 179 230 174 221 173 219 172 208 172 199 173 196 178 188 180 185 194 171 199 171 "/><path d="M6 188 52 213 62 225 70 249 0 249 0 199 3 188 6 188 "/><path d="M176 143 185 144 186 147 186 149 185 152 179 168 176 174 165 193 164 194 155 202 149 207 139 214 137 215 119 221 115 222 114 222 106 215 106 214 107 212 109 209 175 143 176 143 "/><path d="M134 99 147 106 148 107 159 122 167 133 169 138 169 140 168 141 145 158 138 159 136 159 124 146 120 117 123 108 131 99 134 99 "/></svg>