<svg width="256" height="256" xmlns="http://www.w3.org/2000/svg" fill-opacity="0" stroke="black" stroke-width="3" ><path d="M145 28 159 30 165 31 170 32 177 36 195 52 200 57 203 61 209 70 221 97 223 102 224 110 225 127 225 132 224 135 222 139 185 199 179 205 163 220 156 225 150 228 149 228 98 220 64 202 34 168 27 152 20 132 19 121 19 112 21 98 22 94 24 89 30 80 34 75 47 60 48 59 85 37 111 31 123 29 132 28 145 28 "/><path d="M122 0 109 13 103 16 98 18 72 27 69 28 44 35 41 35 34 34 29 31 26 28 23 24 23 22 25 0 122 0 "/></svg>