<svg width="256" height="256" xmlns="http://www.w3.org/2000/svg" fill-opacity="0" stroke="black" stroke-width="3" ><path d="M98 74 161 84 168 92 174 102 194 158 194 159 193 162 189 168 186 171 164 187 145 197 140 199 121 199 118 198 114 195 93 174 87 167 84 161 79 150 77 145 75 128 78 114 79 110 85 93 94 75 96 74 98 74 "/><path d="M223 0 225 1 225 2 224 11 223 13 197 47 191 53 184 59 169 70 167 71 155 75 136 78 135 78 133 77 88 46 84 31 84 29 90 15 91 13 98 6 106 0 223 0 "/><path d="M43 160 64 168 65 169 66 172 66 178 57 249 28 249 21 240 18 235 8 217 4 207 4 203 8 196 14 186 29 163 33 161 39 160 43 160 "/><path d="M3 73 23 89 36 101 40 105 40 106 39 135 37 137 3 157 2 157 0 156 0 79 1 73 3 73 "/><path d="M240 27 243 30 244 32 249 43 249 76 243 83 242 84 230 93 227 94 222 90 218 86 215 73 215 72 220 44 231 31 234 28 236 27 240 27 "/><path d="M196 193 206 196 208 197 211 243 202 249 199 249 189 241 178 223 178 222 181 211 185 202 186 200 190 194 192 193 196 193 "/><path d="M230 211 249 214 249 249 246 249 229 248 227 241 224 221 224 219 227 213 229 211 230 211 "/></svg>