<svg width="256" height="256" xmlns="http://www.w3.org/2000/svg" fill-opacity="0" stroke="black" stroke-width="3" ><path d="M128 12 137 13 143 15 201 40 205 43 241 91 243 95 245 106 246 113 246 136 240 164 238 168 189 184 136 197 130 197 51 190 47 188 41 180 36 172 32 161 24 138 23 133 23 119 27 87 28 84 30 79 38 67 45 57 62 39 68 33 72 30 82 23 86 21 91 19 116 11 128 12 "/><path d="M61 200 73 201 142 225 151 231 152 233 135 240 128 242 121 242 118 241 116 240 74 216 60 202 60 200 61 200 "/></svg>