<svg width="256" height="256" xmlns="http://www.w3.org/2000/svg" fill-opacity="0" stroke="black" stroke-width="3" ><path d="M126 65 139 67 147 69 152 71 156 73 159 75 193 103 198 111 201 117 201 130 199 134 189 150 185 156 180 161 174 166 168 170 147 176 116 184 112 185 109 184 105 181 85 158 84 156 76 114 76 112 111 65 116 64 126 65 "/><path d="M113 0 119 3 120 5 121 10 123 23 123 36 121 42 118 48 115 52 113 54 66 57 61 57 58 56 54 54 43 43 40 38 36 27 36 23 38 8 39 5 41 0 113 0 "/><path d="M76 203 98 204 104 206 116 217 117 218 119 222 121 228 122 233 122 242 121 248 120 249 59 249 58 248 56 242 52 228 54 216 56 213 71 203 76 203 "/></svg>