<svg width="256" height="256" xmlns="http://www.w3.org/2000/svg" fill-opacity="0" stroke="black" stroke-width="3" ><path d="M194 27 198 31 208 43 215 52 217 56 224 92 225 99 220 131 214 148 211 152 191 173 188 176 170 188 166 190 156 194 150 196 143 196 105 185 102 184 93 180 83 175 79 170 73 162 71 159 57 134 55 130 49 112 45 97 44 81 44 80 45 65 47 51 55 39 57 38 186 23 194 27 "/><path d="M232 177 249 179 249 249 213 249 202 245 200 242 194 230 194 227 203 195 205 189 224 177 232 177 "/><path d="M1 97 7 99 8 100 10 103 23 125 36 149 37 165 36 168 29 176 19 186 10 189 5 190 0 190 0 97 1 97 "/></svg>