<svg width="256" height="256" xmlns="http://www.w3.org/2000/svg" fill-opacity="0" stroke="black" stroke-width="3" ><path d="M134 61 142 63 151 66 161 74 179 90 181 92 190 102 192 106 197 122 199 131 199 142 178 184 174 188 164 195 162 196 155 199 153 199 119 194 91 186 88 185 81 181 55 133 54 131 57 109 59 102 63 94 67 87 73 78 76 74 78 72 94 64 114 62 132 61 134 61 "/><path d="M12 169 24 170 32 178 35 182 38 187 40 193 41 200 41 213 40 217 35 226 26 237 23 239 5 244 0 244 0 175 3 171 5 170 8 169 12 169 "/></svg>