<svg width="256" height="256" xmlns="http://www.w3.org/2000/svg" fill-opacity="0" stroke="black" stroke-width="3" ><path d="M144 28 156 30 163 32 169 34 181 40 184 42 193 49 200 56 208 68 211 73 215 81 220 96 223 109 224 115 225 122 226 134 226 147 225 158 223 165 222 168 216 184 215 186 208 198 205 203 190 218 186 221 183 223 178 226 169 230 166 231 162 232 157 233 116 233 111 231 89 215 84 211 82 209 77 203 69 191 50 156 49 154 45 144 44 130 45 117 46 111 48 101 53 87 56 79 58 74 62 68 68 60 73 54 79 48 85 43 90 39 95 36 103 32 110 30 118 28 131 27 144 28 "/><path d="M28 205 36 207 39 209 44 213 51 225 52 227 52 237 47 246 45 249 0 249 0 227 6 216 11 210 13 208 17 206 23 204 28 205 "/></svg>