<svg width="256" height="256" xmlns="http://www.w3.org/2000/svg" fill-opacity="0" stroke="black" stroke-width="3" ><path d="M249 89 230 154 224 164 220 169 218 171 110 249 74 249 41 195 37 188 30 174 29 171 23 151 24 128 25 117 30 100 33 93 35 90 38 86 52 72 68 58 97 42 118 39 134 38 249 32 249 89 "/><path d="M217 194 226 202 249 243 249 249 147 249 149 245 163 225 166 222 175 214 209 195 211 194 217 194 "/><path d="M192 0 191 9 187 15 183 20 176 26 172 28 169 29 151 32 147 31 90 15 88 13 82 1 82 0 192 0 "/><path d="M40 22 43 23 53 30 54 31 54 33 52 35 49 37 47 38 18 50 17 49 16 47 15 33 17 31 28 23 30 22 40 22 "/></svg>