<svg width="256" height="256" xmlns="http://www.w3.org/2000/svg" fill-opacity="0" stroke="black" stroke-width="3" ><path d="M106 73 169 84 175 88 179 92 185 103 187 110 190 122 190 130 188 141 173 214 158 249 57 249 56 248 50 235 48 229 41 134 41 128 43 118 45 111 55 98 58 96 85 79 104 73 106 73 "/><path d="M2 9 15 14 31 22 37 26 42 31 44 35 47 44 47 62 45 73 42 82 40 87 32 97 30 99 20 107 9 109 3 109 0 108 0 9 2 9 "/><path d="M223 217 231 220 235 222 243 231 246 237 246 249 165 249 167 241 172 238 208 220 219 217 223 217 "/><path d="M249 0 249 23 247 27 246 28 241 31 233 35 230 36 226 37 213 29 200 1 200 0 249 0 "/><path d="M6 148 10 150 13 152 17 155 19 160 24 174 27 184 23 200 20 204 18 205 15 205 0 203 0 148 6 148 "/><path d="M89 30 93 31 109 38 115 42 117 45 118 47 117 49 115 51 111 52 91 53 87 53 85 52 82 50 78 45 78 35 80 32 82 30 89 30 "/></svg>