<svg width="256" height="256" xmlns="http://www.w3.org/2000/svg" fill-opacity="0" stroke="black" stroke-width="3" ><path d="M136 59 150 62 157 65 168 70 176 76 177 77 183 88 193 107 194 109 194 129 193 134 184 172 183 173 181 174 167 179 148 185 127 190 124 190 111 187 103 185 95 181 89 177 87 175 74 161 64 149 61 144 58 137 54 127 53 123 53 122 61 98 69 89 80 78 92 70 94 69 101 66 107 64 114 62 128 59 136 59 "/><path d="M88 0 90 5 93 13 91 28 89 37 83 49 78 55 69 65 60 73 51 78 49 79 30 86 14 87 4 87 0 83 0 0 88 0 "/><path d="M245 29 249 30 249 89 237 91 235 91 227 87 217 78 214 74 211 68 210 64 210 60 212 52 213 49 216 45 224 37 230 33 232 32 244 29 245 29 "/></svg>