<svg width="256" height="256" xmlns="http://www.w3.org/2000/svg" fill-opacity="0" stroke="black" stroke-width="3" ><path d="M128 38 138 39 153 43 169 52 173 55 183 63 187 68 192 77 203 115 204 120 206 135 206 146 204 153 203 156 200 162 196 169 192 175 188 180 180 188 177 190 166 197 164 198 154 202 147 204 137 206 125 207 122 207 115 206 110 205 97 202 94 201 79 191 72 186 71 185 66 179 62 174 57 166 53 159 49 149 44 133 46 114 47 109 61 75 63 71 66 66 71 59 75 54 76 53 84 49 104 41 116 39 126 38 128 38 "/><path d="M35 0 37 2 42 11 48 24 50 29 50 36 46 69 45 73 44 76 40 86 31 96 30 97 20 105 5 112 1 113 0 113 0 0 35 0 "/><path d="M245 39 249 40 249 177 244 174 235 163 233 160 220 136 206 104 205 91 208 59 218 44 219 43 233 40 241 39 245 39 "/></svg>