<svg width="256" height="256" xmlns="http://www.w3.org/2000/svg" fill-opacity="0" stroke="black" stroke-width="3" ><path d="M123 43 152 45 156 46 181 61 188 66 199 77 200 79 212 122 212 136 211 141 209 149 205 159 198 173 192 180 191 181 146 210 143 211 125 213 81 213 75 212 68 209 58 203 44 192 40 186 38 182 32 157 31 151 31 130 32 125 42 99 48 88 56 77 70 66 98 48 102 46 108 44 121 43 123 43 "/><path d="M59 0 62 15 62 32 60 42 57 50 52 58 42 65 40 66 34 68 27 69 24 69 17 66 5 59 0 55 0 0 59 0 "/><path d="M249 249 245 249 243 247 241 244 232 227 230 223 228 218 227 212 227 198 228 194 233 177 237 167 241 158 242 156 246 152 249 150 249 249 "/><path d="M149 231 200 234 205 239 213 248 213 249 114 249 114 247 115 245 116 244 122 239 131 233 146 231 149 231 "/></svg>