<svg width="256" height="256" xmlns="http://www.w3.org/2000/svg" fill-opacity="0" stroke="black" stroke-width="3" ><path d="M130 40 142 41 154 43 159 44 163 46 169 50 200 73 213 83 218 88 224 95 233 111 234 113 236 130 234 136 230 147 229 149 212 170 204 179 203 180 176 199 173 201 131 208 124 209 114 210 112 210 105 209 103 208 85 198 83 196 69 177 57 160 53 154 47 139 47 126 50 107 56 92 62 79 63 77 65 74 68 70 80 58 83 56 109 41 117 40 130 40 "/><path d="M52 174 54 175 111 225 124 248 124 249 0 249 0 201 1 200 13 190 28 182 30 181 50 174 52 174 "/><path d="M212 183 249 195 249 249 200 249 177 235 168 226 166 217 166 215 167 210 169 208 185 196 192 191 204 184 206 183 212 183 "/><path d="M16 99 27 108 28 109 32 118 30 126 24 135 12 150 1 156 0 156 0 100 2 99 16 99 "/></svg>