<svg width="256" height="256" xmlns="http://www.w3.org/2000/svg" fill-opacity="0" stroke="black" stroke-width="3" ><path d="M109 59 134 60 146 63 148 64 155 68 163 73 171 79 178 90 182 97 184 104 186 112 187 123 187 125 186 129 184 134 180 142 162 170 158 174 156 175 145 180 140 182 108 192 97 195 95 195 89 194 75 187 67 181 62 176 59 172 57 169 54 163 49 145 48 140 48 135 49 124 53 108 60 96 67 86 81 72 87 68 94 64 107 59 109 59 "/><path d="M195 207 199 211 201 214 203 218 206 225 207 230 207 231 206 239 205 245 204 249 107 249 101 247 100 246 99 244 98 241 97 237 97 228 98 218 99 215 102 211 105 208 164 182 195 207 "/></svg>