<svg width="256" height="256" xmlns="http://www.w3.org/2000/svg" fill-opacity="0" stroke="black" stroke-width="3" ><path d="M96 65 127 70 149 77 151 78 156 81 160 84 168 96 170 100 176 114 179 122 183 138 185 152 183 159 171 190 162 207 148 224 87 237 84 237 79 236 75 235 72 234 28 210 13 200 12 199 4 190 3 188 0 178 0 129 3 118 12 102 24 87 27 84 44 74 46 73 67 66 72 65 96 65 "/><path d="M249 48 249 87 235 172 232 178 229 175 218 158 212 144 209 133 206 119 204 104 204 102 206 82 207 80 222 64 224 62 236 54 247 48 249 48 "/><path d="M123 0 129 27 129 30 125 37 119 43 105 49 98 49 92 47 84 43 81 41 73 33 70 22 70 21 71 18 72 16 84 0 123 0 "/><path d="M249 205 249 239 239 249 225 247 224 246 221 240 220 234 220 230 221 225 225 213 231 207 234 205 249 205 "/><path d="M249 0 249 23 246 25 242 25 209 15 208 14 202 4 201 1 201 0 249 0 "/></svg>