<svg width="256" height="256" xmlns="http://www.w3.org/2000/svg" fill-opacity="0" stroke="black" stroke-width="3" ><path d="M124 66 130 67 141 69 147 73 153 79 157 86 172 113 175 119 175 136 151 172 134 172 128 170 106 161 104 160 97 156 80 142 58 120 58 119 60 115 71 98 90 75 92 73 95 71 120 66 124 66 "/><path d="M29 185 101 207 125 221 128 223 132 227 133 229 140 245 140 249 16 249 10 243 6 223 18 189 25 185 29 185 "/><path d="M249 192 249 249 220 249 217 247 216 246 214 242 213 229 213 224 214 215 215 212 217 209 225 201 232 195 242 187 246 186 249 192 "/><path d="M42 0 42 3 39 20 28 50 26 52 22 53 3 54 0 44 0 20 13 5 16 2 20 0 42 0 "/><path d="M245 12 246 13 249 18 249 80 245 80 239 78 234 76 230 74 227 72 222 67 213 54 213 44 215 36 217 33 228 19 233 16 238 14 244 12 245 12 "/><path d="M182 219 188 223 192 226 198 231 200 235 200 249 153 249 151 240 151 239 154 231 155 229 159 225 162 223 170 219 182 219 "/><path d="M95 0 93 15 92 21 91 24 84 37 76 49 70 55 68 56 68 54 70 0 95 0 "/></svg>