<svg width="256" height="256" xmlns="http://www.w3.org/2000/svg" fill-opacity="0" stroke="black" stroke-width="3" ><path d="M63 45 77 46 181 74 192 78 200 86 216 107 219 113 219 115 218 117 210 127 204 133 165 168 150 172 116 175 111 175 102 173 89 166 60 143 54 136 25 89 24 86 23 82 23 81 27 63 29 58 31 54 33 52 45 46 61 45 63 45 "/><path d="M157 178 163 181 175 241 176 248 176 249 51 249 48 204 48 200 51 195 52 194 58 190 71 186 86 182 154 178 157 178 "/><path d="M249 140 249 176 246 180 228 182 220 182 207 179 207 174 208 161 209 158 230 144 248 140 249 140 "/><path d="M10 196 13 199 23 219 27 239 27 245 26 247 24 249 7 249 0 242 0 189 10 196 "/></svg>