<svg width="256" height="256" xmlns="http://www.w3.org/2000/svg" fill-opacity="0" stroke="black" stroke-width="3" ><path d="M127 38 142 39 178 51 190 58 222 123 224 129 225 137 225 150 221 169 219 175 216 182 207 196 205 199 202 203 198 208 189 215 181 221 178 223 171 226 131 232 122 233 120 233 109 229 102 226 84 217 80 214 68 204 67 203 59 191 52 178 43 160 43 135 44 118 45 112 47 103 52 91 63 71 65 68 73 59 78 55 82 52 97 44 119 38 127 38 "/><path d="M9 168 13 169 63 217 75 236 78 244 78 245 77 246 76 246 0 230 0 168 9 168 "/></svg>