<svg width="256" height="256" xmlns="http://www.w3.org/2000/svg" fill-opacity="0" stroke="black" stroke-width="3" ><path d="M141 23 149 24 155 26 178 37 183 40 191 48 195 53 199 59 201 63 203 68 204 71 204 136 201 142 192 155 134 230 123 244 121 246 116 249 38 249 14 225 12 221 10 216 12 203 17 188 85 60 97 45 107 36 117 29 120 27 126 25 137 23 141 23 "/><path d="M97 0 103 8 105 13 105 14 99 24 89 34 68 49 66 50 31 67 27 66 0 57 0 0 97 0 "/><path d="M249 50 249 159 232 142 220 116 218 97 218 94 222 83 232 67 247 51 248 50 249 50 "/></svg>