<svg width="256" height="256" xmlns="http://www.w3.org/2000/svg" fill-opacity="0" stroke="black" stroke-width="3" ><path d="M134 3 135 4 155 38 178 80 184 91 189 107 189 126 188 134 186 140 184 145 143 198 142 199 133 202 122 203 111 203 107 202 100 200 94 197 80 189 72 182 69 179 57 165 52 158 50 154 44 138 40 122 39 116 39 105 44 82 45 79 53 60 56 54 63 42 65 39 68 35 73 30 110 7 117 4 129 3 134 3 "/><path d="M191 153 196 154 199 156 233 194 240 203 242 206 244 211 245 217 244 219 235 226 207 243 181 249 177 249 169 243 168 242 160 229 153 203 153 200 158 188 168 172 177 158 187 153 191 153 "/><path d="M249 0 249 28 243 27 207 12 192 5 189 0 249 0 "/></svg>