<svg width="256" height="256" xmlns="http://www.w3.org/2000/svg" fill-opacity="0" stroke="black" stroke-width="3" ><path d="M110 30 114 31 143 39 149 41 165 48 167 49 171 52 201 81 205 85 207 88 211 103 211 114 207 127 204 134 195 154 182 174 171 187 162 197 158 201 134 211 117 213 106 214 95 214 85 212 82 211 70 206 66 204 59 200 54 197 51 195 48 192 23 164 18 157 15 152 13 148 12 145 11 139 11 134 12 123 15 116 45 59 54 50 72 33 75 32 79 31 106 30 110 30 "/><path d="M249 136 249 249 202 249 196 247 194 245 190 240 187 234 182 206 182 204 186 194 188 190 204 165 215 150 216 149 223 143 225 142 232 139 235 138 245 136 249 136 "/></svg>