<svg width="256" height="256" xmlns="http://www.w3.org/2000/svg" fill-opacity="0" stroke="black" stroke-width="3" ><path d="M74 62 130 63 133 64 140 68 148 80 163 110 166 122 166 142 158 172 156 178 148 189 136 198 133 200 121 206 108 209 102 210 100 210 89 209 40 186 30 180 12 168 10 166 3 150 1 141 0 136 0 130 3 91 4 87 6 81 13 77 44 64 50 62 74 62 "/><path d="M84 26 95 27 100 28 111 31 118 33 122 35 128 39 138 48 139 49 139 53 135 55 126 56 124 56 61 35 59 34 59 33 65 27 68 26 84 26 "/></svg>