<svg width="256" height="256" xmlns="http://www.w3.org/2000/svg" fill-opacity="0" stroke="black" stroke-width="3" ><path d="M210 29 215 31 218 33 225 39 229 44 238 60 240 71 242 85 243 93 244 108 244 127 243 137 235 168 233 171 219 182 211 188 121 191 107 191 99 190 96 189 92 186 81 170 62 137 61 135 58 122 58 118 60 115 106 55 108 53 112 51 139 41 153 37 163 35 205 29 210 29 "/><path d="M153 209 161 211 176 217 186 223 195 231 203 239 206 244 207 246 208 249 103 249 105 242 106 239 108 234 112 228 128 216 135 213 146 209 153 209 "/><path d="M188 0 192 15 187 20 185 21 104 39 100 36 76 17 75 15 86 0 188 0 "/></svg>