<svg width="256" height="256" xmlns="http://www.w3.org/2000/svg" fill-opacity="0" stroke="black" stroke-width="3" ><path d="M113 40 132 41 148 42 154 43 165 50 171 54 178 63 181 68 189 86 194 107 194 123 190 136 187 145 183 153 179 160 173 170 171 173 157 182 146 188 142 190 133 193 119 195 110 196 105 196 99 195 95 194 89 192 81 188 74 183 73 182 62 168 52 143 44 121 44 120 48 109 52 102 83 55 89 50 103 41 106 40 113 40 "/><path d="M46 0 52 3 53 4 61 13 69 49 69 51 68 55 63 66 40 89 30 96 27 96 2 94 0 93 0 0 46 0 "/><path d="M249 249 212 249 205 245 204 244 196 234 195 232 193 212 193 211 195 206 198 200 204 193 208 190 244 165 249 162 249 249 "/><path d="M160 235 173 238 184 243 191 248 192 249 114 249 116 246 120 242 126 238 129 237 137 235 160 235 "/><path d="M2 184 6 193 17 226 17 235 15 240 13 242 0 247 0 182 2 184 "/></svg>