<svg width="256" height="256" xmlns="http://www.w3.org/2000/svg" fill-opacity="0" stroke="black" stroke-width="3" ><path d="M162 9 168 10 173 11 176 12 182 17 188 23 195 32 204 44 209 53 210 55 216 68 218 80 220 94 220 106 219 117 218 122 217 126 210 143 203 157 196 167 183 180 173 188 168 191 156 197 150 199 146 200 141 201 133 202 122 202 117 201 108 198 100 194 91 189 87 186 71 173 65 166 61 161 58 157 53 147 49 137 48 133 45 118 44 102 44 98 53 75 55 70 64 58 84 36 93 27 99 22 103 19 113 14 118 12 158 9 162 9 "/><path d="M59 0 59 1 50 39 49 41 48 42 39 48 36 49 30 50 29 50 20 49 12 48 3 46 0 38 0 0 59 0 "/><path d="M47 197 55 198 59 199 62 200 67 202 76 207 81 211 82 212 84 215 86 249 2 249 2 246 3 237 5 234 10 228 41 200 44 198 46 197 47 197 "/><path d="M249 0 249 32 247 33 244 34 239 35 229 35 222 31 216 25 212 18 211 16 209 11 208 4 208 0 249 0 "/></svg>