<svg width="256" height="256" xmlns="http://www.w3.org/2000/svg" fill-opacity="0" stroke="black" stroke-width="3" ><path d="M144 48 146 49 154 58 162 74 171 111 173 120 173 122 172 175 168 186 165 194 162 199 156 205 146 213 124 223 117 223 80 214 59 205 58 203 57 200 40 139 40 137 45 98 48 95 54 90 87 69 93 66 142 48 144 48 "/><path d="M45 0 52 6 58 19 58 24 51 42 50 44 24 67 15 74 12 76 0 83 0 0 45 0 "/><path d="M142 225 166 228 170 230 175 234 177 239 177 240 175 249 60 249 58 247 141 225 142 225 "/></svg>