<svg width="256" height="256" xmlns="http://www.w3.org/2000/svg" fill-opacity="0" stroke="black" stroke-width="3" ><path d="M138 66 146 67 153 70 158 73 172 90 173 92 179 107 179 127 176 151 175 153 154 186 145 191 135 194 128 195 127 195 110 191 106 190 96 187 88 183 83 179 67 161 64 154 62 148 62 133 63 124 68 104 69 101 79 89 80 88 88 81 93 78 95 77 104 73 125 68 137 66 138 66 "/><path d="M224 149 230 150 241 162 242 165 243 190 243 192 241 195 223 215 214 223 212 224 209 224 197 217 194 214 193 212 191 207 188 199 188 197 189 185 192 172 193 169 206 155 210 151 219 149 224 149 "/></svg>