<svg width="256" height="256" xmlns="http://www.w3.org/2000/svg" fill-opacity="0" stroke="black" stroke-width="3" ><path d="M124 30 137 31 142 32 162 37 169 39 172 40 183 47 187 50 188 51 193 57 201 69 202 71 214 102 214 124 213 142 211 150 209 155 208 157 202 167 200 170 186 188 150 233 137 234 131 230 83 197 67 185 62 180 57 173 51 164 45 154 39 136 38 127 37 105 37 103 38 95 41 86 43 81 48 71 52 66 67 51 75 45 78 43 86 39 97 34 115 30 124 30 "/><path d="M55 204 63 205 73 209 85 219 86 220 91 229 93 234 94 237 94 245 93 249 24 249 23 246 23 245 24 233 25 227 29 219 31 216 36 211 44 207 53 204 55 204 "/><path d="M1 104 9 106 18 109 20 110 28 125 30 130 31 134 31 150 28 156 25 161 12 175 6 181 2 184 0 184 0 104 1 104 "/></svg>