<svg width="256" height="256" xmlns="http://www.w3.org/2000/svg" fill-opacity="0" stroke="black" stroke-width="3" ><path d="M147 48 179 52 187 65 195 80 196 83 199 93 199 108 198 120 185 159 177 168 176 169 159 178 155 180 148 182 133 185 129 185 116 182 101 178 99 177 91 172 79 164 74 159 62 144 59 138 57 132 56 127 56 122 57 105 65 85 71 79 86 65 109 50 121 48 147 48 "/><path d="M102 0 106 9 107 15 107 23 105 33 103 40 99 45 98 46 94 49 90 51 81 54 67 54 64 53 58 50 50 44 49 43 36 29 36 13 38 3 39 1 40 0 102 0 "/><path d="M210 0 214 9 214 12 201 38 199 40 186 49 179 45 147 14 145 11 140 0 210 0 "/><path d="M249 69 249 148 240 142 222 124 216 98 216 95 217 88 236 73 238 72 247 69 249 69 "/><path d="M249 0 249 47 229 35 228 34 223 25 220 3 220 0 249 0 "/></svg>