<svg width="256" height="256" xmlns="http://www.w3.org/2000/svg" fill-opacity="0" stroke="black" stroke-width="3" ><path d="M151 58 170 62 176 65 180 69 188 79 190 86 192 95 192 113 190 125 184 140 176 152 168 162 167 163 140 187 129 196 125 198 119 200 107 201 101 201 97 200 87 195 45 167 44 166 43 164 43 163 51 131 55 116 60 103 63 97 65 94 69 90 84 77 93 71 95 70 105 66 126 60 132 59 145 58 151 58 "/><path d="M183 186 198 188 229 200 233 202 241 208 249 221 249 249 211 249 161 245 154 244 149 243 140 234 139 232 137 219 138 216 143 208 146 205 158 195 166 190 170 188 175 186 183 186 "/></svg>