<svg width="256" height="256" xmlns="http://www.w3.org/2000/svg" fill-opacity="0" stroke="black" stroke-width="3" ><path d="M144 15 147 16 158 21 175 29 180 33 192 46 216 77 218 81 226 98 227 101 230 119 230 121 226 142 220 153 210 170 201 178 187 188 184 190 172 196 155 203 149 205 129 210 107 213 97 213 87 211 82 208 79 206 23 150 23 147 29 111 34 86 35 84 41 75 48 66 50 64 66 49 75 42 93 29 100 25 121 15 144 15 "/><path d="M8 169 23 171 36 173 38 175 44 182 46 185 54 202 60 224 60 236 56 249 0 249 0 170 1 169 8 169 "/><path d="M249 0 249 79 243 77 233 72 231 70 208 41 191 18 190 14 190 9 193 1 194 0 249 0 "/><path d="M249 159 249 249 241 249 233 242 230 235 229 231 227 201 227 198 229 189 230 185 234 173 235 171 239 165 248 159 249 159 "/></svg>