<svg width="256" height="256" xmlns="http://www.w3.org/2000/svg" fill-opacity="0" stroke="black" stroke-width="3" ><path d="M139 65 152 67 158 69 161 71 169 77 179 89 184 97 191 111 191 119 190 149 185 162 183 166 181 169 174 178 172 180 168 183 161 188 155 192 147 196 141 198 137 199 125 201 124 201 104 197 101 196 94 192 88 188 80 182 78 180 70 170 69 168 64 151 62 141 62 135 64 125 66 119 72 105 73 103 78 96 89 81 94 76 98 73 102 71 112 67 129 65 139 65 "/><path d="M186 0 183 5 179 11 176 15 175 16 166 22 153 30 144 34 139 35 105 38 104 38 85 35 75 31 68 27 62 21 60 18 52 5 51 3 51 0 186 0 "/><path d="M247 41 249 42 249 100 244 98 234 92 231 89 228 79 226 69 226 63 230 56 242 41 247 41 "/></svg>