<svg width="256" height="256" xmlns="http://www.w3.org/2000/svg" fill-opacity="0" stroke="black" stroke-width="3" ><path d="M145 30 158 33 162 34 168 36 176 40 182 44 200 61 206 67 212 75 214 78 224 98 226 103 226 107 224 129 218 145 217 147 214 152 209 158 196 171 186 177 177 182 173 183 150 187 129 187 126 186 118 183 104 177 99 174 55 137 54 136 51 129 47 118 45 111 44 106 44 105 45 97 51 88 57 82 94 46 100 42 108 38 119 34 125 32 139 30 145 30 "/><path d="M169 192 174 194 180 197 183 199 197 213 200 218 204 225 205 228 207 235 207 246 206 249 115 249 115 241 117 237 123 226 126 222 133 213 136 210 149 198 152 196 158 193 164 192 169 192 "/></svg>