<svg width="256" height="256" xmlns="http://www.w3.org/2000/svg" fill-opacity="0" stroke="black" stroke-width="3" ><path d="M103 25 139 30 151 32 165 36 171 38 182 45 190 52 191 53 198 64 206 79 214 96 215 100 215 115 214 136 211 156 210 160 208 164 206 167 191 185 184 192 170 203 155 210 146 211 80 211 76 209 65 202 47 190 42 185 30 169 29 160 29 156 31 122 36 77 61 57 102 25 103 25 "/><path d="M6 38 18 50 24 62 26 67 28 73 28 74 22 113 16 136 12 150 9 155 8 156 0 162 0 33 6 38 "/><path d="M249 99 249 143 246 144 245 144 241 143 238 142 231 139 227 134 226 132 225 128 225 118 227 112 229 109 235 103 240 100 246 99 249 99 "/></svg>