<svg width="256" height="256" xmlns="http://www.w3.org/2000/svg" fill-opacity="0" stroke="black" stroke-width="3" ><path d="M139 40 150 43 151 44 151 46 104 199 102 202 99 201 97 200 55 160 53 158 51 155 41 107 41 106 42 97 45 85 47 81 88 47 91 45 123 37 139 40 "/><path d="M249 21 249 86 242 98 240 101 233 108 229 108 223 107 218 105 215 102 213 96 208 74 207 69 207 68 208 61 210 55 215 44 224 32 226 30 233 25 235 24 242 21 249 21 "/><path d="M29 188 33 191 36 195 37 197 37 199 35 220 34 224 24 234 22 235 8 237 5 237 2 236 0 235 0 196 7 189 18 188 29 188 "/><path d="M207 126 213 133 216 137 217 140 220 152 218 161 214 171 213 172 205 179 201 179 199 176 198 173 196 144 196 143 199 128 202 126 207 126 "/><path d="M168 234 174 236 176 237 180 240 180 243 176 248 175 249 105 249 105 248 106 245 107 243 108 242 110 241 139 234 157 232 168 234 "/></svg>