<svg width="256" height="256" xmlns="http://www.w3.org/2000/svg" fill-opacity="0" stroke="black" stroke-width="3" ><path d="M203 71 204 73 205 87 186 158 183 165 180 171 178 174 172 180 170 181 158 184 124 188 100 178 73 152 70 148 68 145 67 141 66 126 66 109 83 74 85 72 108 69 165 64 203 71 "/><path d="M51 5 55 7 93 34 98 39 98 40 69 98 67 101 44 132 32 139 29 140 14 143 0 143 0 10 38 2 51 5 "/><path d="M211 0 208 5 198 17 188 28 186 30 147 46 122 46 108 41 106 40 103 38 85 23 62 1 62 0 211 0 "/><path d="M249 75 249 203 240 203 235 202 231 200 220 194 210 184 209 182 200 161 197 150 197 148 198 140 201 128 208 115 233 87 234 86 246 75 249 75 "/><path d="M249 0 249 66 247 67 246 67 239 64 231 58 227 48 226 45 219 22 219 11 221 5 222 3 224 0 249 0 "/></svg>