<svg width="256" height="256" xmlns="http://www.w3.org/2000/svg" fill-opacity="0" stroke="black" stroke-width="3" ><path d="M129 49 155 52 161 54 169 59 175 63 179 66 188 73 190 76 201 93 202 95 208 111 210 128 210 129 202 156 196 168 191 175 187 180 175 190 169 194 80 243 65 235 52 223 0 153 0 108 5 105 89 57 91 56 103 52 108 51 127 49 129 49 "/><path d="M238 156 247 158 249 159 249 236 241 234 174 200 173 197 174 196 212 163 217 160 234 156 238 156 "/><path d="M249 0 249 82 242 78 233 71 225 64 221 57 218 51 216 41 216 32 217 19 218 16 222 6 224 3 226 1 228 0 249 0 "/></svg>