<svg width="256" height="256" xmlns="http://www.w3.org/2000/svg" fill-opacity="0" stroke="black" stroke-width="3" ><path d="M109 59 116 60 154 67 160 69 166 74 234 137 236 140 239 146 249 174 249 226 246 249 223 249 130 205 94 187 87 182 73 171 72 170 68 165 66 161 56 130 55 126 55 113 56 104 57 99 58 95 60 91 66 81 72 74 75 71 83 65 86 63 90 61 95 59 109 59 "/><path d="M249 17 249 79 247 86 246 88 240 94 230 96 219 96 215 94 212 91 211 89 210 84 209 76 208 66 208 63 209 57 216 43 231 26 234 23 238 20 241 18 243 17 249 17 "/><path d="M121 0 153 5 157 7 160 9 161 10 162 16 162 20 159 26 151 34 148 36 145 37 132 39 129 39 121 38 113 34 108 30 105 27 97 17 90 8 87 4 86 2 86 0 121 0 "/></svg>