<svg width="256" height="256" xmlns="http://www.w3.org/2000/svg" fill-opacity="0" stroke="black" stroke-width="3" ><path d="M70 22 76 23 177 45 192 49 197 51 202 55 210 63 220 75 224 81 228 91 230 113 230 129 228 145 223 162 218 176 216 180 206 190 144 224 133 230 91 249 0 249 0 168 3 137 18 57 22 51 23 50 48 31 53 28 55 27 66 23 69 22 70 22 "/><path d="M184 209 222 211 227 216 243 234 245 237 245 241 244 249 141 249 141 247 145 237 146 235 150 230 158 223 167 216 170 214 172 213 183 209 184 209 "/></svg>