<svg width="256" height="256" xmlns="http://www.w3.org/2000/svg" fill-opacity="0" stroke="black" stroke-width="3" ><path d="M153 25 170 33 176 37 189 50 195 57 200 63 207 73 212 83 214 88 216 97 217 107 217 110 216 116 215 121 200 179 198 186 197 188 191 197 179 209 169 218 164 221 157 225 152 227 144 230 132 232 116 232 100 228 90 223 84 219 71 208 58 180 52 111 52 108 53 104 57 95 58 93 91 53 96 47 104 39 111 33 117 31 144 23 153 25 "/><path d="M37 0 66 19 67 21 68 24 68 28 65 42 64 46 62 50 51 64 48 67 41 73 38 75 36 76 33 77 22 80 19 80 11 77 0 72 0 0 37 0 "/><path d="M27 197 33 199 41 203 46 207 52 213 56 219 60 227 62 232 64 240 64 249 0 249 0 212 3 207 5 205 21 197 27 197 "/><path d="M124 0 126 4 124 9 118 16 116 18 113 20 90 23 85 23 81 21 66 12 63 10 59 7 56 3 55 1 55 0 124 0 "/></svg>