<svg width="256" height="256" xmlns="http://www.w3.org/2000/svg" fill-opacity="0" stroke="black" stroke-width="3" ><path d="M118 46 129 47 132 48 159 58 168 62 172 64 178 70 180 73 207 119 208 121 208 124 192 156 190 159 187 163 177 174 169 182 162 185 144 191 135 193 134 193 121 192 103 189 86 186 75 183 73 182 62 169 60 166 57 161 54 155 41 121 41 107 44 98 47 90 51 82 59 71 67 63 73 58 75 57 89 51 95 49 102 47 110 46 118 46 "/><path d="M84 197 99 199 117 205 122 207 134 216 135 217 139 222 146 234 152 247 152 249 12 249 13 246 15 241 22 228 29 219 35 213 44 207 48 205 62 199 67 198 79 197 84 197 "/></svg>