<svg width="256" height="256" xmlns="http://www.w3.org/2000/svg" fill-opacity="0" stroke="black" stroke-width="3" ><path d="M121 66 168 90 201 132 206 143 209 150 210 154 210 155 185 198 182 203 153 209 151 209 125 206 25 176 18 173 17 172 14 153 15 147 23 130 49 86 51 83 55 78 59 74 62 72 79 70 115 66 121 66 "/><path d="M142 0 152 9 153 10 157 18 161 29 163 41 163 43 159 45 90 67 79 66 63 48 64 43 83 3 87 0 142 0 "/><path d="M249 0 249 86 243 86 236 84 230 82 228 81 225 79 220 75 190 48 185 43 185 41 197 8 201 0 249 0 "/><path d="M27 209 94 211 108 215 109 218 109 221 108 222 78 246 63 249 2 249 0 245 0 214 3 211 7 209 27 209 "/><path d="M228 167 239 187 249 206 249 218 226 218 219 217 211 213 207 209 207 205 210 176 211 173 214 171 222 167 228 167 "/></svg>