<svg width="256" height="256" xmlns="http://www.w3.org/2000/svg" fill-opacity="0" stroke="black" stroke-width="3" ><path d="M105 24 130 26 134 27 146 31 155 35 164 40 179 49 186 54 190 58 198 68 210 86 215 97 216 100 222 127 223 136 223 146 222 154 219 166 211 185 208 191 206 194 192 208 185 213 175 219 166 224 159 227 145 231 134 234 120 235 119 235 99 234 96 233 89 230 79 225 67 215 57 205 41 183 33 164 28 149 26 132 25 123 25 115 27 92 28 87 33 78 49 53 59 43 68 37 72 35 83 30 92 26 103 24 105 24 "/><path d="M249 0 249 75 242 72 238 69 236 67 233 63 229 56 224 46 220 34 219 30 219 19 221 9 223 3 225 0 249 0 "/></svg>