<svg width="256" height="256" xmlns="http://www.w3.org/2000/svg" fill-opacity="0" stroke="black" stroke-width="3" ><path d="M130 42 157 48 163 51 175 58 185 64 188 66 197 73 208 87 211 93 221 114 222 117 222 122 220 135 218 142 207 172 199 185 189 200 176 212 157 225 151 229 144 233 137 235 129 236 124 236 107 235 99 233 93 231 73 221 63 212 53 202 49 195 41 180 38 166 37 161 32 134 31 125 31 121 32 116 34 110 43 92 51 80 54 76 61 67 69 59 96 45 119 42 130 42 "/><path d="M69 16 67 27 64 41 60 55 50 68 26 93 24 94 23 94 18 93 14 91 6 85 0 75 0 0 41 0 69 15 69 16 "/><path d="M249 0 249 46 246 56 244 58 236 60 232 60 210 59 206 57 199 53 193 49 188 44 182 36 176 26 175 23 175 17 176 9 179 0 249 0 "/></svg>