<svg width="256" height="256" xmlns="http://www.w3.org/2000/svg" fill-opacity="0" stroke="black" stroke-width="3" ><path d="M110 52 115 53 150 66 181 80 184 82 203 103 244 157 249 170 249 249 206 249 189 243 107 200 62 169 55 163 54 111 54 109 56 102 57 99 71 71 89 58 92 56 102 52 110 52 "/><path d="M249 0 249 48 247 52 243 56 231 63 225 66 217 69 191 77 188 75 187 74 166 48 164 45 162 31 167 7 172 0 249 0 "/><path d="M41 200 52 204 54 205 61 210 63 212 68 224 72 234 74 242 74 249 0 249 0 219 2 212 6 208 11 206 18 204 37 200 41 200 "/></svg>