<svg width="256" height="256" xmlns="http://www.w3.org/2000/svg" fill-opacity="0" stroke="black" stroke-width="3" ><path d="M160 29 172 33 178 36 192 44 194 46 197 50 201 56 205 64 209 75 209 85 203 108 201 115 195 135 182 167 180 169 177 171 173 173 167 175 159 177 147 179 135 180 108 180 98 179 95 177 93 175 78 153 74 147 71 140 68 131 67 127 67 115 69 99 70 94 72 86 77 73 112 38 116 36 134 30 141 29 160 29 "/><path d="M117 183 158 185 164 186 172 188 174 189 180 194 181 195 198 213 202 221 207 236 209 244 209 247 208 249 55 249 54 248 53 246 53 244 112 183 117 183 "/></svg>