<svg width="256" height="256" xmlns="http://www.w3.org/2000/svg" fill-opacity="0" stroke="black" stroke-width="3" ><path d="M124 35 142 39 157 45 161 47 185 70 187 72 193 80 195 83 200 96 201 109 201 119 199 145 197 149 176 177 165 186 159 190 151 194 139 198 128 198 121 197 100 191 93 188 80 181 68 172 64 168 58 160 48 141 47 139 42 119 42 101 46 82 48 78 54 69 59 62 68 50 71 47 77 43 84 39 91 37 99 36 110 35 124 35 "/><path d="M42 198 58 199 64 204 69 210 74 217 74 226 73 230 67 249 0 249 0 234 1 232 37 199 39 198 42 198 "/><path d="M165 0 162 2 142 8 129 11 110 11 96 6 91 4 84 0 165 0 "/></svg>