<svg width="256" height="256" xmlns="http://www.w3.org/2000/svg" fill-opacity="0" stroke="black" stroke-width="3" ><path d="M85 52 97 53 100 54 108 57 123 71 125 73 141 98 142 100 143 105 147 131 147 133 112 166 97 169 70 168 56 166 50 163 34 150 33 148 28 115 28 112 29 95 34 82 41 68 51 58 56 54 84 52 85 52 "/><path d="M156 171 192 186 205 193 215 200 220 210 223 222 224 227 224 244 223 249 59 249 58 247 58 246 66 236 142 173 148 171 156 171 "/><path d="M219 28 230 33 249 42 249 107 245 108 214 112 188 114 187 114 160 108 156 104 149 87 149 86 152 79 169 48 182 31 183 30 192 25 219 28 "/><path d="M56 0 55 3 53 7 50 12 47 16 39 20 33 22 20 22 14 20 9 18 3 12 0 4 0 0 56 0 "/><path d="M249 161 249 172 245 175 242 177 227 182 226 182 217 179 211 167 212 162 215 159 228 156 249 161 "/></svg>