<svg width="256" height="256" xmlns="http://www.w3.org/2000/svg" fill-opacity="0" stroke="black" stroke-width="3" ><path d="M28 153 33 154 41 158 54 170 63 182 64 185 68 201 68 218 67 220 48 234 43 237 36 241 33 242 23 243 22 243 13 242 0 238 0 161 13 153 28 153 "/><path d="M106 87 140 175 140 179 125 183 123 183 90 177 88 176 61 153 58 150 51 140 50 138 50 136 54 104 55 100 59 98 62 97 105 87 106 87 "/><path d="M152 38 168 50 178 60 180 66 181 70 182 77 182 85 181 89 163 109 161 108 114 73 113 70 134 41 136 40 141 38 152 38 "/><path d="M146 103 148 105 152 110 158 120 160 127 160 133 156 136 137 143 134 144 131 142 130 141 128 136 122 113 122 112 126 110 143 103 146 103 "/></svg>