<svg width="256" height="256" xmlns="http://www.w3.org/2000/svg" fill-opacity="0" stroke="black" stroke-width="3" ><path d="M146 65 168 81 178 89 191 122 193 132 191 139 190 142 188 147 182 160 178 166 168 179 164 182 144 192 132 197 121 197 92 186 84 181 75 172 49 124 47 120 45 112 45 81 59 70 61 69 88 65 146 65 "/><path d="M29 117 32 119 40 128 50 143 56 155 59 167 61 190 61 193 60 199 58 205 56 209 44 223 41 226 34 231 28 234 9 238 0 239 0 105 29 117 "/><path d="M208 43 241 45 247 46 248 47 249 49 249 111 248 113 244 117 203 140 201 140 199 139 190 90 190 81 194 69 204 44 205 43 208 43 "/><path d="M249 176 249 249 205 249 204 248 203 246 201 230 201 226 202 214 243 176 245 175 248 174 249 176 "/></svg>