<svg width="256" height="256" xmlns="http://www.w3.org/2000/svg" fill-opacity="0" stroke="black" stroke-width="3" ><path d="M93 51 115 52 127 56 158 68 167 74 178 82 184 87 192 97 198 105 204 115 208 129 210 138 212 149 213 162 213 170 212 182 208 200 204 210 201 217 199 221 184 242 179 248 178 249 15 249 9 241 5 235 3 230 2 227 0 218 0 111 3 95 4 93 9 84 15 77 21 71 27 67 35 62 37 61 47 58 75 53 82 52 90 51 93 51 "/><path d="M35 0 36 1 34 9 33 11 25 22 22 25 15 31 13 32 8 32 0 31 0 0 35 0 "/></svg>