<svg width="256" height="256" xmlns="http://www.w3.org/2000/svg" fill-opacity="0" stroke="black" stroke-width="3" ><path d="M132 24 229 109 229 135 224 157 222 163 194 236 193 238 190 243 186 249 130 249 124 245 121 242 115 235 62 169 57 162 56 160 52 151 50 146 49 143 43 117 42 109 42 101 43 94 45 82 48 73 53 62 55 58 57 55 67 43 76 37 78 36 91 30 98 27 115 24 132 24 "/><path d="M11 123 13 125 15 128 36 160 64 209 65 211 68 222 68 226 64 237 58 243 55 245 53 246 43 249 0 249 0 137 4 129 6 126 9 123 11 123 "/></svg>