<svg width="256" height="256" xmlns="http://www.w3.org/2000/svg" fill-opacity="0" stroke="black" stroke-width="3" ><path d="M247 0 249 3 249 85 242 98 239 103 237 106 230 113 201 133 172 152 157 158 150 159 133 159 125 158 119 156 107 150 99 145 81 129 72 117 70 114 67 109 61 91 54 47 54 42 55 33 58 19 59 17 63 10 65 7 68 4 80 0 247 0 "/><path d="M7 88 14 89 33 97 42 101 67 121 91 149 92 160 92 166 91 177 89 182 73 200 69 204 57 211 34 222 9 231 0 230 0 89 1 88 7 88 "/><path d="M220 136 225 139 249 156 249 220 185 212 176 206 170 201 168 199 166 191 168 179 169 175 174 167 179 160 182 156 198 143 213 136 220 136 "/></svg>