<svg width="256" height="256" xmlns="http://www.w3.org/2000/svg" fill-opacity="0" stroke="black" stroke-width="3" ><path d="M139 78 149 80 152 81 163 86 175 92 179 95 185 100 194 114 197 119 198 127 198 138 196 152 195 157 193 162 188 173 178 185 174 188 171 190 169 191 159 195 152 197 135 197 117 195 112 193 91 181 88 179 76 161 75 159 73 154 70 136 70 124 71 120 73 114 80 100 86 94 91 90 94 88 108 80 125 76 139 78 "/><path d="M218 0 243 8 246 10 246 29 243 45 242 48 217 73 214 75 202 80 199 81 190 81 149 67 140 61 139 60 135 55 132 51 129 46 127 41 126 37 125 22 126 13 128 7 130 2 131 0 218 0 "/></svg>