<svg width="256" height="256" xmlns="http://www.w3.org/2000/svg" fill-opacity="0" stroke="black" stroke-width="3" ><path d="M249 0 249 44 240 74 237 79 165 192 160 198 158 200 155 202 145 208 135 213 121 217 112 218 109 217 98 213 96 212 79 203 74 200 64 191 52 180 48 174 35 137 29 2 29 0 249 0 "/><path d="M41 192 44 194 48 197 52 201 63 219 64 221 70 249 0 249 0 199 2 194 16 193 37 192 41 192 "/><path d="M135 232 140 233 147 236 160 244 161 245 161 247 160 249 108 249 108 246 109 243 112 240 126 234 134 232 135 232 "/></svg>