<svg width="256" height="256" xmlns="http://www.w3.org/2000/svg" fill-opacity="0" stroke="black" stroke-width="3" ><path d="M102 35 167 42 171 45 188 58 216 83 221 88 230 99 236 107 244 127 245 136 246 152 246 153 240 195 229 206 207 218 165 240 143 242 135 240 118 232 116 231 63 192 51 174 47 167 41 147 39 136 38 95 38 93 43 81 48 73 54 65 63 54 76 45 79 43 83 41 92 37 98 35 102 35 "/><path d="M249 0 249 72 247 72 238 70 233 68 210 58 171 41 169 40 162 35 156 29 153 24 151 16 151 4 155 0 249 0 "/><path d="M32 0 33 1 38 15 44 43 44 45 41 59 33 76 30 81 27 84 17 93 2 94 0 94 0 3 12 0 32 0 "/><path d="M231 216 241 221 244 223 246 225 249 230 249 249 194 249 193 247 193 239 194 237 197 232 204 225 215 217 217 216 231 216 "/><path d="M37 196 46 199 49 201 53 205 58 215 59 218 43 237 11 237 8 232 7 230 6 226 5 220 5 219 6 215 7 213 9 211 17 204 21 201 29 197 34 196 37 196 "/></svg>