<svg width="256" height="256" xmlns="http://www.w3.org/2000/svg" fill-opacity="0" stroke="black" stroke-width="3" ><path d="M149 40 157 42 172 47 183 53 197 63 201 68 206 75 213 110 214 120 214 121 213 135 206 158 203 164 191 183 190 184 183 190 163 206 145 216 125 223 89 230 81 225 71 217 66 212 41 176 40 174 37 164 37 163 45 107 46 103 50 92 57 81 62 75 66 71 70 68 90 56 103 49 121 43 127 42 134 41 145 40 149 40 "/><path d="M101 0 101 4 99 10 93 26 90 30 79 44 77 46 59 56 37 65 11 66 1 57 0 56 0 0 101 0 "/><path d="M249 0 249 59 248 60 246 61 236 63 230 64 228 64 207 62 196 57 194 56 178 45 168 33 167 31 164 24 161 12 160 5 160 0 249 0 "/><path d="M192 205 197 206 205 209 207 211 208 213 208 219 205 230 203 233 200 235 170 240 164 240 162 239 161 238 157 226 157 224 158 222 164 215 166 213 175 209 191 205 192 205 "/><path d="M249 187 247 187 241 183 237 180 234 175 232 171 230 161 230 156 232 144 245 102 247 98 249 95 249 187 "/><path d="M5 72 19 78 26 86 31 130 31 134 20 143 8 145 6 145 0 141 0 74 2 72 5 72 "/></svg>