<svg width="256" height="256" xmlns="http://www.w3.org/2000/svg" fill-opacity="0" stroke="black" stroke-width="3" ><path d="M127 58 130 59 135 61 177 79 179 81 197 101 199 104 201 108 204 115 206 123 207 146 207 160 205 166 201 176 198 179 185 189 172 198 149 213 147 214 136 215 130 215 123 214 89 206 74 200 72 199 69 197 67 193 63 183 63 126 64 117 65 114 68 107 69 105 80 85 86 76 96 66 108 61 118 59 125 58 127 58 "/><path d="M19 30 21 31 28 36 32 39 35 42 37 45 42 57 41 63 32 78 30 81 27 84 20 90 1 106 0 106 0 57 18 30 19 30 "/><path d="M3 132 11 134 19 138 23 141 26 144 28 147 29 149 33 165 34 171 33 173 21 191 3 205 0 207 0 132 3 132 "/></svg>