<svg width="256" height="256" xmlns="http://www.w3.org/2000/svg" fill-opacity="0" stroke="black" stroke-width="3" ><path d="M159 63 162 65 168 71 175 109 175 137 174 141 165 169 156 180 155 181 125 196 122 196 72 182 68 179 65 168 65 164 68 125 69 122 74 112 86 101 125 70 133 65 138 64 158 63 159 63 "/><path d="M72 207 85 215 86 216 86 218 83 249 24 249 21 246 21 245 22 236 25 228 27 224 31 219 33 217 39 213 44 211 67 207 72 207 "/><path d="M248 81 249 84 249 134 248 135 234 145 231 144 225 138 215 123 214 120 213 105 213 104 214 102 219 93 231 81 248 81 "/></svg>