<svg width="256" height="256" xmlns="http://www.w3.org/2000/svg" fill-opacity="0" stroke="black" stroke-width="3" ><path d="M151 0 181 7 184 10 197 32 198 34 204 50 208 63 214 83 215 97 214 102 138 196 131 198 119 200 111 200 102 199 89 197 58 192 32 182 25 178 19 174 11 167 6 162 3 158 0 137 0 64 9 31 12 26 25 13 34 8 36 7 89 0 151 0 "/><path d="M64 205 96 213 98 214 110 221 114 224 115 225 118 229 122 235 122 238 121 240 98 249 35 249 31 247 19 235 18 230 17 218 18 215 19 213 23 209 30 207 40 205 64 205 "/></svg>