<svg width="256" height="256" xmlns="http://www.w3.org/2000/svg" fill-opacity="0" stroke="black" stroke-width="3" ><path d="M231 0 236 3 244 19 249 94 249 162 241 165 240 165 108 162 105 160 104 158 91 56 91 55 95 51 150 11 160 4 162 3 174 0 231 0 "/><path d="M23 79 36 86 47 95 59 111 67 132 68 153 51 179 35 203 34 204 31 204 13 195 11 193 0 180 0 90 6 84 12 80 18 79 23 79 "/><path d="M229 175 236 176 249 181 249 245 244 246 224 246 216 243 203 234 202 233 199 229 197 225 196 222 195 212 197 198 206 184 218 176 223 175 229 175 "/><path d="M140 232 150 233 162 235 174 238 193 246 193 247 192 249 103 249 113 241 116 239 135 232 140 232 "/></svg>