<svg width="256" height="256" xmlns="http://www.w3.org/2000/svg" fill-opacity="0" stroke="black" stroke-width="3" ><path d="M150 40 154 41 160 43 166 47 171 52 198 81 205 89 210 129 210 146 208 154 197 171 193 177 190 180 178 190 151 207 121 213 107 214 105 214 89 208 77 200 69 194 62 187 61 185 52 156 49 126 55 65 60 62 66 60 136 41 145 40 150 40 "/><path d="M249 0 249 69 243 88 242 89 222 89 220 88 194 50 191 44 187 34 185 25 185 22 187 3 189 0 249 0 "/><path d="M195 210 202 211 204 212 217 226 228 239 234 248 234 249 147 249 145 245 143 238 143 235 154 225 192 210 195 210 "/><path d="M117 0 113 9 108 12 96 14 78 16 75 16 54 4 50 0 117 0 "/></svg>