<svg width="256" height="256" xmlns="http://www.w3.org/2000/svg" fill-opacity="0" stroke="black" stroke-width="3" ><path d="M168 67 205 74 206 76 212 107 212 128 208 140 205 145 182 172 158 196 153 200 147 202 142 203 136 204 118 204 110 202 92 194 89 192 79 184 77 182 71 174 67 168 63 160 57 146 55 134 55 114 57 106 60 96 65 84 68 79 75 70 79 66 83 63 86 61 96 55 168 67 "/><path d="M237 152 245 155 246 156 249 160 249 220 213 249 212 249 187 237 185 233 185 229 189 197 198 179 204 171 216 161 223 156 229 153 235 152 237 152 "/><path d="M177 6 204 10 206 12 208 20 208 22 207 23 190 38 188 39 184 39 166 29 163 26 163 25 172 10 174 7 175 6 177 6 "/></svg>