<svg width="256" height="256" xmlns="http://www.w3.org/2000/svg" fill-opacity="0" stroke="black" stroke-width="3" ><path d="M113 61 184 114 187 118 189 124 189 125 184 147 154 169 140 178 98 203 97 203 95 202 83 195 79 190 77 187 69 173 68 170 59 131 59 123 61 118 80 85 90 71 99 65 107 61 113 61 "/><path d="M55 195 65 200 66 201 67 203 72 220 72 225 67 240 66 242 65 243 29 249 0 249 0 223 3 218 5 216 13 210 32 196 50 195 55 195 "/><path d="M39 134 44 137 50 145 52 148 53 150 53 158 52 173 51 175 48 180 46 182 43 184 38 186 0 197 0 142 2 141 13 137 19 135 32 134 39 134 "/><path d="M201 172 202 173 203 177 203 184 202 186 186 210 182 214 174 220 171 222 158 229 156 230 152 231 144 231 139 230 131 226 128 223 128 221 136 198 140 195 185 177 199 172 201 172 "/><path d="M108 0 111 6 110 36 109 39 107 41 97 46 93 47 91 47 88 46 87 45 66 2 66 0 108 0 "/></svg>