<svg width="256" height="256" xmlns="http://www.w3.org/2000/svg" fill-opacity="0" stroke="black" stroke-width="3" ><path d="M129 56 147 60 156 63 172 71 175 74 183 87 189 98 193 107 195 113 198 134 199 146 201 172 201 175 195 191 191 195 180 201 158 211 129 211 108 210 102 209 91 204 81 199 75 195 67 187 66 185 57 159 55 153 52 142 52 123 54 112 56 102 62 75 63 73 64 72 83 62 88 60 102 56 129 56 "/><path d="M157 0 157 11 155 14 143 26 139 28 125 32 85 36 82 36 72 35 64 31 63 30 58 19 55 8 55 0 157 0 "/><path d="M249 0 249 33 209 33 186 10 183 6 189 0 249 0 "/></svg>