<svg width="256" height="256" xmlns="http://www.w3.org/2000/svg" fill-opacity="0" stroke="black" stroke-width="3" ><path d="M114 43 146 51 165 60 178 67 181 69 194 82 201 91 204 95 206 99 209 116 209 117 203 149 201 159 199 165 189 180 185 183 182 185 177 188 165 194 162 195 152 197 150 197 76 186 66 183 61 180 59 178 45 160 39 148 35 138 31 124 30 118 30 113 31 107 33 99 35 93 37 88 41 80 43 77 57 63 81 49 90 46 100 43 114 43 "/><path d="M93 194 120 196 140 202 146 204 148 205 160 213 163 216 169 227 175 239 178 248 178 249 24 249 24 244 27 239 32 231 37 224 49 211 54 206 58 203 61 201 70 197 79 195 85 194 93 194 "/><path d="M20 0 34 8 37 10 41 13 47 19 52 25 54 28 55 30 55 34 53 43 48 56 44 62 36 71 29 78 24 81 21 82 13 83 8 83 3 82 0 80 0 0 20 0 "/><path d="M6 124 21 140 23 145 27 170 26 174 20 189 17 194 14 198 8 204 3 208 0 210 0 119 6 124 "/><path d="M148 0 148 10 146 15 142 21 135 28 133 29 130 30 119 30 113 28 101 22 97 19 93 14 90 8 88 2 88 0 148 0 "/><path d="M249 249 224 249 223 248 223 246 227 231 229 226 233 219 247 195 249 193 249 249 "/></svg>