<svg width="256" height="256" xmlns="http://www.w3.org/2000/svg" fill-opacity="0" stroke="black" stroke-width="3" ><path d="M111 0 130 7 158 26 177 40 193 54 194 55 201 63 212 79 217 87 218 91 219 97 219 126 203 172 193 192 183 202 164 219 151 227 146 230 139 234 137 235 113 241 110 241 102 240 86 234 82 232 79 230 60 216 54 209 28 174 26 171 20 145 20 144 21 135 22 130 36 83 63 16 65 13 67 11 78 5 84 2 89 0 111 0 "/><path d="M18 182 26 183 38 195 40 198 44 205 45 209 45 213 44 218 41 226 38 231 33 236 25 239 16 242 12 242 6 240 0 236 0 191 6 186 9 184 12 183 16 182 18 182 "/><path d="M237 7 246 24 249 35 249 51 221 69 214 63 193 39 188 32 186 29 186 24 188 21 205 11 209 9 221 7 237 7 "/><path d="M234 138 249 141 249 184 237 187 226 188 220 188 214 184 210 174 210 161 217 150 229 138 234 138 "/><path d="M231 66 243 67 247 78 249 92 249 102 240 111 236 108 232 104 227 94 227 86 229 66 231 66 "/></svg>