<svg width="256" height="256" xmlns="http://www.w3.org/2000/svg" fill-opacity="0" stroke="black" stroke-width="3" ><path d="M84 11 249 19 249 140 133 227 130 229 126 231 120 233 107 233 98 231 93 229 85 225 79 221 61 208 60 207 53 199 51 196 49 192 25 129 25 127 31 92 36 69 50 47 78 13 79 12 81 11 84 11 "/><path d="M56 6 65 8 70 10 70 11 69 13 67 16 26 59 1 69 0 69 0 39 7 28 25 13 31 10 37 8 44 6 56 6 "/><path d="M1 131 11 145 13 148 16 154 20 164 22 173 22 176 20 182 15 191 8 203 6 205 0 209 0 130 1 131 "/></svg>