<svg width="256" height="256" xmlns="http://www.w3.org/2000/svg" fill-opacity="0" stroke="black" stroke-width="3" ><path d="M143 23 147 24 152 26 160 30 164 33 169 37 174 42 179 48 187 59 200 78 205 87 213 107 216 125 216 126 215 144 209 167 208 169 202 177 194 187 188 193 182 198 173 205 155 214 147 216 136 217 131 217 125 216 103 212 94 209 72 194 55 149 51 133 51 132 52 114 58 97 62 89 82 51 99 34 104 30 106 29 127 23 143 23 "/><path d="M4 24 11 34 20 51 20 57 19 59 13 68 10 71 7 73 3 75 0 75 0 20 4 24 "/><path d="M19 102 22 108 18 127 17 128 11 133 8 134 4 135 2 135 0 134 0 103 14 101 19 102 "/></svg>