<svg width="256" height="256" xmlns="http://www.w3.org/2000/svg" fill-opacity="0" stroke="black" stroke-width="3" ><path d="M130 27 142 33 178 56 182 59 196 72 197 73 201 80 212 102 212 106 210 143 207 183 206 185 204 188 195 198 194 199 185 207 183 208 171 213 156 217 136 221 130 222 122 222 104 219 98 217 85 211 75 205 61 195 49 183 37 169 30 155 19 112 19 110 31 80 35 72 42 62 48 54 55 46 61 41 81 25 130 27 "/><path d="M249 0 249 70 242 73 238 74 237 74 225 71 175 43 166 37 165 36 159 19 160 16 162 14 171 6 176 2 180 1 236 0 249 0 "/><path d="M249 249 214 249 208 245 207 244 207 243 211 233 224 220 236 212 249 204 249 249 "/><path d="M242 122 246 127 249 131 249 184 248 184 228 166 227 165 227 150 228 129 232 124 233 123 240 122 242 122 "/></svg>