<svg width="256" height="256" xmlns="http://www.w3.org/2000/svg" fill-opacity="0" stroke="black" stroke-width="3" ><path d="M249 0 249 72 147 119 121 124 119 124 86 118 84 117 83 116 65 89 64 87 103 0 249 0 "/><path d="M249 96 249 186 243 186 225 181 225 179 237 114 239 104 242 99 243 98 246 96 249 96 "/><path d="M207 115 217 124 217 128 216 138 214 147 213 150 210 153 202 160 196 163 194 161 187 153 186 151 185 136 185 135 186 123 197 118 206 115 207 115 "/><path d="M167 221 177 223 176 225 166 236 159 240 145 246 139 248 118 249 110 249 111 245 137 228 152 220 167 221 "/><path d="M235 228 247 233 249 243 249 249 199 249 197 237 197 236 231 228 235 228 "/><path d="M173 180 176 188 176 193 158 211 155 212 147 214 145 214 140 203 141 200 142 198 153 188 157 185 168 179 171 178 173 180 "/></svg>