<svg width="256" height="256" xmlns="http://www.w3.org/2000/svg" fill-opacity="0" stroke="black" stroke-width="3" ><path d="M113 59 117 60 132 65 136 67 146 76 150 80 162 94 166 99 168 103 170 109 171 113 172 127 172 131 170 150 166 165 164 169 146 194 118 204 115 205 102 208 98 208 89 207 84 206 71 202 63 198 56 193 36 173 29 164 27 161 23 151 23 135 25 125 27 117 29 111 34 100 37 95 42 88 45 84 53 76 60 71 64 69 73 65 78 63 88 61 99 59 113 59 "/><path d="M249 97 249 186 248 187 246 188 243 189 239 188 234 186 232 185 228 182 224 177 215 160 213 155 211 148 210 141 210 138 211 131 213 127 231 105 237 101 245 97 249 97 "/><path d="M238 221 248 227 249 234 249 249 178 249 178 245 179 242 180 240 183 235 189 226 191 224 194 222 200 219 203 218 238 221 "/></svg>