<svg width="256" height="256" xmlns="http://www.w3.org/2000/svg" fill-opacity="0" stroke="black" stroke-width="3" ><path d="M139 47 150 48 154 49 164 52 170 54 180 58 196 66 200 69 205 74 210 80 212 83 215 88 216 90 220 101 222 107 223 112 224 118 224 148 219 160 218 162 213 170 208 176 199 185 189 194 184 197 172 204 164 207 148 211 132 211 126 210 123 209 102 199 90 193 87 191 86 190 73 173 71 170 69 166 65 156 62 145 61 140 59 126 59 121 61 113 63 106 68 90 89 68 94 63 103 58 107 56 123 50 126 49 131 48 137 47 139 47 "/><path d="M249 0 249 42 245 43 237 44 233 44 218 41 190 33 179 28 175 26 172 24 166 19 162 15 158 10 154 4 153 2 153 0 249 0 "/></svg>