<svg width="256" height="256" xmlns="http://www.w3.org/2000/svg" fill-opacity="0" stroke="black" stroke-width="3" ><path d="M132 35 144 37 162 43 176 50 183 55 187 59 193 66 197 71 205 83 209 94 211 101 214 118 214 128 213 134 211 144 207 158 204 166 197 178 195 181 191 186 173 204 169 207 166 209 157 214 155 215 149 217 144 218 123 218 101 214 85 207 78 203 71 198 69 196 62 187 42 150 41 148 38 138 38 117 39 106 40 101 41 97 43 91 51 75 53 72 59 64 69 54 80 47 85 44 103 37 112 35 132 35 "/><path d="M31 171 34 172 36 173 44 181 47 187 51 196 53 203 55 212 55 218 54 223 53 227 51 233 43 241 40 243 37 244 33 245 9 249 0 249 0 174 10 172 30 171 31 171 "/><path d="M249 9 249 71 242 71 239 70 234 68 232 67 226 63 220 57 217 53 215 50 214 47 212 39 212 27 213 25 217 19 218 18 222 15 233 9 249 9 "/></svg>