<svg width="256" height="256" xmlns="http://www.w3.org/2000/svg" fill-opacity="0" stroke="black" stroke-width="3" ><path d="M140 26 149 28 155 31 163 37 168 42 175 58 199 115 200 118 205 135 205 143 203 160 202 164 201 167 197 175 193 181 183 192 181 194 177 197 171 201 164 204 159 206 156 207 148 209 141 210 133 211 115 211 98 209 84 205 74 202 52 180 46 173 42 167 36 156 34 150 32 135 32 109 36 98 38 93 42 86 78 48 83 45 114 28 118 26 131 25 140 26 "/><path d="M45 15 54 20 57 22 63 32 63 42 59 49 56 53 43 66 41 67 32 68 29 68 24 67 21 66 17 63 14 60 8 53 6 46 6 34 8 28 9 26 10 25 23 18 27 16 41 14 45 15 "/><path d="M249 0 249 59 246 59 243 55 234 42 230 36 229 33 229 14 230 11 232 6 235 0 249 0 "/></svg>