<svg width="256" height="256" xmlns="http://www.w3.org/2000/svg" fill-opacity="0" stroke="black" stroke-width="3" ><path d="M98 17 107 18 124 21 128 22 186 57 190 62 199 75 205 87 212 105 215 117 215 129 214 146 210 167 173 211 151 225 136 233 120 234 119 234 111 232 107 230 93 222 75 210 59 198 52 192 40 180 25 151 25 147 44 30 45 28 51 20 74 17 98 17 "/><path d="M222 163 226 174 228 180 230 190 233 209 233 211 230 236 229 244 228 249 152 249 152 247 155 234 157 231 215 166 217 164 219 163 222 163 "/><path d="M249 193 247 191 243 184 239 175 237 170 235 158 235 153 239 144 241 141 249 134 249 193 "/></svg>