<svg width="256" height="256" xmlns="http://www.w3.org/2000/svg" fill-opacity="0" stroke="black" stroke-width="3" ><path d="M150 49 159 55 166 60 172 66 178 73 187 84 191 90 200 117 201 122 192 162 161 187 130 208 128 208 94 199 90 197 78 189 35 148 33 146 32 144 47 83 66 61 83 46 112 26 150 49 "/><path d="M235 179 237 180 238 181 246 192 249 201 249 244 234 249 187 249 187 247 193 233 212 196 218 188 222 185 232 179 235 179 "/><path d="M82 0 82 1 74 9 72 10 63 14 57 16 52 17 46 17 37 16 33 15 27 12 24 10 20 7 14 1 14 0 82 0 "/></svg>