<svg width="256" height="256" xmlns="http://www.w3.org/2000/svg" fill-opacity="0" stroke="black" stroke-width="3" ><path d="M95 5 97 6 105 11 112 17 115 20 152 77 163 120 163 126 162 140 159 154 153 167 146 178 139 184 131 190 112 194 100 195 91 194 78 190 70 187 66 185 63 183 0 106 0 105 1 103 3 100 92 5 95 5 "/><path d="M223 139 227 185 227 186 223 242 221 249 166 249 158 235 157 227 156 201 156 197 169 158 179 142 185 136 187 135 223 139 "/><path d="M136 233 141 236 142 237 145 241 145 249 31 249 42 233 68 224 105 216 136 233 "/><path d="M249 239 241 232 240 231 236 226 232 209 230 197 228 180 229 166 235 147 237 143 246 134 249 132 249 239 "/></svg>