<svg width="256" height="256" xmlns="http://www.w3.org/2000/svg" fill-opacity="0" stroke="black" stroke-width="3" ><path d="M127 51 154 54 164 58 168 60 178 66 186 74 214 127 215 135 215 140 212 150 207 164 194 182 186 191 174 201 159 210 155 212 122 223 119 223 94 215 89 213 82 210 80 209 65 197 63 195 55 184 44 166 43 164 38 149 37 131 37 122 45 104 48 98 51 93 56 86 59 82 66 74 70 70 73 68 92 57 99 54 114 51 127 51 "/><path d="M163 0 164 2 164 9 161 18 158 23 157 24 150 29 147 31 138 35 56 58 50 58 47 57 42 55 33 48 30 45 17 31 15 28 5 11 0 0 163 0 "/><path d="M249 48 249 133 243 133 233 130 230 128 225 123 223 120 218 111 217 109 212 86 212 85 213 78 214 76 222 65 225 62 233 56 236 54 247 48 249 48 "/><path d="M2 144 8 148 18 158 21 162 28 172 48 204 61 236 62 249 49 249 32 239 0 208 0 144 2 144 "/><path d="M245 158 249 159 249 212 247 213 233 213 227 211 220 208 211 199 210 197 209 193 208 186 210 180 212 176 215 172 221 166 225 163 233 159 236 158 245 158 "/><path d="M242 222 244 223 246 225 249 245 249 249 180 249 180 247 181 244 182 242 186 236 202 220 205 218 209 217 242 222 "/><path d="M146 226 150 227 153 228 155 229 162 234 168 240 170 245 171 248 171 249 102 249 102 247 103 244 112 234 121 229 123 228 136 226 146 226 "/></svg>