<svg width="256" height="256" xmlns="http://www.w3.org/2000/svg" fill-opacity="0" stroke="black" stroke-width="3" ><path d="M159 0 173 3 176 4 191 21 199 31 200 33 200 34 199 55 194 70 193 72 185 83 182 86 156 111 145 118 143 119 135 122 132 123 120 124 115 124 100 121 98 119 87 97 81 84 79 79 77 68 75 56 75 23 78 10 79 7 82 3 83 2 87 0 159 0 "/><path d="M56 0 57 1 62 8 66 22 67 26 69 36 69 37 68 43 67 48 65 51 53 67 50 69 37 72 29 73 27 73 0 68 0 0 56 0 "/><path d="M3 91 6 92 8 93 20 107 24 114 25 116 31 140 32 154 32 158 30 162 14 168 0 168 0 92 1 91 3 91 "/></svg>