<svg width="256" height="256" xmlns="http://www.w3.org/2000/svg" fill-opacity="0" stroke="black" stroke-width="3" ><path d="M115 41 129 42 154 50 158 53 172 65 180 72 184 77 186 80 192 90 193 92 196 100 197 103 200 113 202 132 202 134 197 158 195 163 194 165 183 182 169 199 157 209 142 216 130 219 129 219 120 216 110 211 98 204 71 187 62 180 45 141 45 94 59 74 82 49 86 47 100 42 108 41 115 41 "/><path d="M35 191 47 193 51 194 121 232 125 236 122 245 111 249 0 249 0 196 5 194 20 192 34 191 35 191 "/><path d="M8 8 18 15 22 20 34 38 35 44 35 53 34 56 33 57 0 82 0 5 8 8 "/><path d="M187 225 195 226 204 230 224 246 226 248 226 249 147 249 146 247 146 243 149 239 152 236 169 226 184 225 187 225 "/><path d="M132 0 132 1 130 3 122 9 115 14 88 23 83 22 76 19 61 12 43 3 40 0 132 0 "/><path d="M1 107 4 109 7 112 12 121 15 129 16 132 16 153 11 160 2 171 0 173 0 107 1 107 "/></svg>