<svg width="256" height="256" xmlns="http://www.w3.org/2000/svg" fill-opacity="0" stroke="black" stroke-width="3" ><path d="M232 0 245 19 246 22 246 37 240 55 238 59 234 65 194 111 182 120 176 124 167 129 161 132 154 135 151 136 147 137 142 138 130 140 117 141 98 139 89 137 76 134 62 128 61 127 27 88 25 85 24 83 23 76 22 67 22 51 23 40 27 26 29 21 31 17 42 0 232 0 "/><path d="M249 196 245 196 242 194 224 178 215 168 211 160 205 147 203 140 203 138 205 124 210 106 211 104 233 78 249 62 249 196 "/></svg>