<svg width="256" height="256" xmlns="http://www.w3.org/2000/svg" fill-opacity="0" stroke="black" stroke-width="3" ><path d="M123 33 154 39 163 41 167 42 170 43 175 45 184 50 187 52 219 76 224 80 233 88 242 113 245 123 249 173 249 218 247 220 234 230 207 249 162 249 91 198 83 192 79 188 75 183 73 180 69 173 67 169 65 164 62 156 61 151 59 135 58 124 58 123 60 105 62 97 66 85 67 83 72 75 81 64 103 40 105 38 111 35 119 33 123 33 "/><path d="M242 0 242 1 238 28 237 32 236 33 169 36 167 35 166 18 166 16 167 15 199 3 208 0 242 0 "/></svg>