<svg width="256" height="256" xmlns="http://www.w3.org/2000/svg" fill-opacity="0" stroke="black" stroke-width="3" ><path d="M149 33 156 35 158 36 174 47 182 53 186 57 194 67 202 89 206 104 210 123 211 134 211 137 210 154 208 164 206 171 203 178 202 180 190 198 184 206 182 208 167 218 131 222 129 222 122 221 110 217 82 206 77 204 75 202 31 103 31 91 33 87 45 67 49 63 60 53 71 47 88 40 91 39 98 37 117 33 149 33 "/><path d="M26 163 30 165 33 168 49 193 52 199 52 209 14 249 0 249 0 176 17 165 21 163 26 163 "/></svg>