<svg width="256" height="256" xmlns="http://www.w3.org/2000/svg" fill-opacity="0" stroke="black" stroke-width="3" ><path d="M188 0 198 131 198 140 197 147 195 154 191 164 189 168 178 182 177 183 171 188 159 194 153 196 145 198 105 193 91 191 84 189 75 186 71 184 63 179 32 134 31 132 28 120 28 119 30 107 34 94 41 79 42 77 46 70 50 65 98 10 108 0 188 0 "/><path d="M249 7 249 121 245 122 243 122 222 112 220 110 208 97 206 93 201 77 201 76 211 33 216 23 238 8 248 7 249 7 "/><path d="M58 0 75 7 81 11 82 12 84 17 84 19 83 22 70 41 67 43 4 80 3 80 2 75 0 63 0 0 58 0 "/><path d="M2 128 9 130 13 132 18 135 21 137 29 143 51 169 52 179 50 187 45 204 37 214 24 229 15 236 11 236 0 223 0 128 2 128 "/><path d="M74 201 78 202 81 203 99 212 100 213 109 224 116 243 116 244 115 249 27 249 32 237 36 231 39 228 45 223 72 201 74 201 "/></svg>