<svg width="256" height="256" xmlns="http://www.w3.org/2000/svg" fill-opacity="0" stroke="black" stroke-width="3" ><path d="M114 36 127 38 139 42 145 45 150 48 156 52 181 71 184 74 188 80 189 82 191 87 193 93 196 103 204 139 208 161 208 164 206 172 204 177 202 181 196 191 192 196 179 209 176 211 172 213 167 215 161 217 151 217 73 210 63 209 58 207 47 201 42 198 39 196 32 189 27 181 25 177 21 161 19 137 19 119 20 116 27 99 65 55 71 49 78 44 85 41 101 36 114 36 "/><path d="M65 12 66 13 68 17 69 23 71 37 71 38 70 44 69 46 38 82 27 94 18 103 14 101 0 93 0 50 59 14 63 12 65 12 "/><path d="M104 233 107 238 107 243 106 249 41 249 41 248 42 244 52 237 55 236 67 234 79 233 104 233 "/></svg>