<svg width="256" height="256" xmlns="http://www.w3.org/2000/svg" fill-opacity="0" stroke="black" stroke-width="3" ><path d="M144 72 161 75 163 76 167 79 178 90 182 100 182 113 181 131 174 164 164 172 159 175 132 177 96 179 85 172 71 154 69 151 66 139 64 129 65 110 75 97 81 91 86 88 88 87 107 81 141 72 144 72 "/><path d="M249 0 249 90 224 100 218 102 212 103 209 102 207 101 206 100 132 17 131 14 131 7 132 5 136 0 249 0 "/><path d="M242 186 246 187 249 189 249 249 202 249 200 224 200 222 205 214 207 211 229 188 231 187 239 186 242 186 "/></svg>