<svg width="256" height="256" xmlns="http://www.w3.org/2000/svg" fill-opacity="0" stroke="black" stroke-width="3" ><path d="M148 52 158 53 171 55 177 58 183 63 192 71 199 78 203 83 218 109 220 113 224 124 224 131 223 136 222 140 219 147 214 158 212 162 209 166 204 172 203 173 140 234 138 235 134 236 133 236 119 224 118 223 72 174 63 160 60 155 59 153 57 140 57 119 59 103 69 89 83 72 98 61 103 58 117 54 123 53 147 52 148 52 "/><path d="M20 36 22 37 31 44 32 45 35 49 37 56 38 89 38 93 27 121 26 123 25 124 23 124 22 123 8 47 8 46 9 39 12 36 20 36 "/><path d="M249 56 249 104 241 98 233 91 229 87 227 76 227 65 228 63 230 61 233 59 244 56 249 56 "/></svg>