<svg width="256" height="256" xmlns="http://www.w3.org/2000/svg" fill-opacity="0" stroke="black" stroke-width="3" ><path d="M201 141 200 164 172 210 170 211 141 223 130 227 122 228 98 228 93 227 90 226 75 220 45 205 44 204 33 187 24 153 23 148 22 131 21 113 21 112 28 92 34 76 42 65 51 55 56 51 62 47 70 42 74 40 85 36 88 35 95 35 135 41 152 48 158 52 164 57 181 77 188 87 198 108 201 134 201 141 "/><path d="M1 174 4 175 11 178 33 195 34 196 41 205 39 223 36 233 35 236 34 238 28 247 26 249 0 249 0 174 1 174 "/><path d="M249 21 249 30 248 129 243 133 219 151 202 107 201 104 200 82 200 81 201 73 204 59 206 53 208 48 209 46 217 38 228 29 231 27 236 24 238 23 241 22 246 21 249 21 "/><path d="M6 77 13 82 20 119 19 136 14 144 12 147 11 148 2 156 0 157 0 77 6 77 "/></svg>