<svg width="256" height="256" xmlns="http://www.w3.org/2000/svg" fill-opacity="0" stroke="black" stroke-width="3" ><path d="M184 164 198 168 240 181 243 183 249 189 249 233 246 245 243 249 137 249 136 248 132 239 130 234 129 224 129 223 130 220 133 214 174 169 176 167 183 164 184 164 "/><path d="M143 63 159 69 163 71 172 98 176 112 178 120 178 135 173 150 171 155 159 172 156 176 143 186 136 188 127 188 125 187 83 158 81 153 75 137 75 132 88 75 103 59 104 58 107 57 143 63 "/><path d="M233 75 241 76 245 78 246 79 246 137 245 139 240 146 237 149 234 151 225 150 221 149 215 147 212 145 206 140 202 131 201 116 201 107 202 102 206 93 207 91 209 89 219 81 222 79 230 75 233 75 "/></svg>