<svg width="256" height="256" xmlns="http://www.w3.org/2000/svg" fill-opacity="0" stroke="black" stroke-width="3" ><path d="M128 41 133 43 140 47 144 51 149 57 170 88 191 126 199 147 203 167 203 196 202 201 201 203 197 208 192 212 190 213 181 214 178 214 165 212 133 202 121 198 106 192 95 186 77 175 76 174 68 165 66 162 62 154 59 147 57 141 56 134 54 119 64 89 66 85 82 63 85 59 91 52 92 51 98 47 106 43 111 41 128 41 "/><path d="M43 187 51 189 72 197 74 198 92 212 97 218 99 223 101 232 102 237 102 246 101 249 0 249 0 218 10 204 21 195 28 191 41 187 43 187 "/><path d="M21 96 23 97 44 116 50 122 51 124 51 126 50 142 48 153 46 160 34 181 27 186 10 197 2 201 0 201 0 102 5 98 17 96 21 96 "/><path d="M85 0 85 5 80 15 64 34 62 36 51 44 48 46 44 48 37 51 20 56 17 56 3 38 2 35 0 26 0 0 85 0 "/></svg>