<svg width="256" height="256" xmlns="http://www.w3.org/2000/svg" fill-opacity="0" stroke="black" stroke-width="3" ><path d="M63 4 69 5 144 43 170 65 175 70 180 80 182 85 185 103 185 113 183 122 181 129 179 135 177 140 170 153 167 157 162 162 153 169 51 238 45 242 41 244 36 246 25 249 0 249 0 31 4 28 10 24 18 19 23 16 25 15 42 8 47 6 50 5 55 4 63 4 "/><path d="M226 192 233 194 242 197 244 198 249 202 249 233 247 234 201 249 161 249 144 224 144 223 147 218 156 209 167 205 225 192 226 192 "/></svg>