<svg width="256" height="256" xmlns="http://www.w3.org/2000/svg" fill-opacity="0" stroke="black" stroke-width="3" ><path d="M248 7 249 16 249 39 236 105 210 181 207 186 198 182 194 180 169 157 168 156 163 149 156 136 155 131 151 108 151 106 156 79 163 64 166 58 167 57 200 26 220 9 247 7 248 7 "/><path d="M35 79 45 80 53 84 61 89 67 94 71 98 76 107 77 109 80 128 80 131 76 139 68 147 61 149 3 165 0 165 0 82 3 81 23 79 35 79 "/><path d="M145 0 152 20 152 22 125 53 88 74 79 78 75 78 60 69 57 67 46 54 28 8 28 5 35 0 145 0 "/><path d="M125 173 127 174 132 178 138 187 139 190 139 196 125 249 115 249 70 240 69 239 68 237 68 234 69 222 74 210 75 208 77 205 93 188 106 175 108 174 111 173 116 172 125 173 "/><path d="M185 211 188 212 192 214 196 217 198 219 200 222 202 232 202 237 201 238 171 247 150 249 144 249 144 248 148 229 149 226 151 222 157 216 161 214 167 212 173 211 185 211 "/></svg>