<svg width="256" height="256" xmlns="http://www.w3.org/2000/svg" fill-opacity="0" stroke="black" stroke-width="3" ><path d="M132 55 137 56 141 57 155 61 159 63 169 71 172 77 184 139 184 140 183 155 182 157 162 176 146 184 137 186 126 186 113 184 75 165 69 161 67 159 61 149 57 135 57 133 58 126 61 114 64 106 65 104 78 85 91 71 98 64 104 59 110 57 120 55 132 55 "/><path d="M38 161 51 164 55 165 58 167 69 175 79 190 78 212 70 231 67 238 66 239 58 246 53 249 29 249 0 232 0 174 5 171 16 165 35 161 38 161 "/><path d="M202 0 197 10 193 16 183 27 175 34 165 38 141 40 122 40 118 39 116 38 111 33 110 30 110 22 114 13 118 9 123 5 126 3 152 0 202 0 "/></svg>