<svg width="256" height="256" xmlns="http://www.w3.org/2000/svg" fill-opacity="0" stroke="black" stroke-width="3" ><path d="M186 0 193 4 194 5 228 57 249 102 249 143 157 195 153 197 121 205 104 209 103 209 90 205 72 193 69 190 63 181 60 170 57 149 56 141 56 134 57 125 58 119 61 107 66 90 72 76 80 63 85 55 90 49 101 38 151 0 186 0 "/><path d="M35 183 67 199 68 202 76 231 76 232 75 234 74 235 64 240 54 240 22 234 18 227 15 219 13 203 13 202 16 192 32 183 35 183 "/><path d="M249 0 249 40 248 40 237 38 233 37 230 36 225 34 213 29 211 27 200 11 198 8 196 0 249 0 "/><path d="M12 78 13 79 21 88 23 91 24 93 25 96 27 110 27 118 26 123 24 126 20 131 13 138 10 140 7 140 4 139 0 137 0 70 12 78 "/></svg>