<svg width="256" height="256" xmlns="http://www.w3.org/2000/svg" fill-opacity="0" stroke="black" stroke-width="3" ><path d="M130 32 135 33 139 34 152 39 156 41 168 48 179 56 180 57 183 61 185 64 205 101 206 103 211 115 211 122 210 127 207 140 204 150 183 195 181 198 173 206 160 213 150 218 145 220 141 221 127 223 125 223 115 222 105 220 97 217 92 215 86 212 62 196 61 195 53 181 52 179 46 164 45 160 39 129 39 120 46 95 47 92 60 66 63 62 78 47 86 41 90 39 97 36 108 33 126 32 130 32 "/><path d="M249 0 249 91 228 86 204 75 199 72 198 71 194 65 191 59 189 54 187 48 184 37 184 36 199 0 249 0 "/><path d="M4 110 16 115 19 119 26 129 33 140 34 143 36 150 36 153 35 160 33 167 29 175 21 185 20 186 11 191 4 194 0 194 0 111 1 110 4 110 "/></svg>