<svg width="256" height="256" xmlns="http://www.w3.org/2000/svg" fill-opacity="0" stroke="black" stroke-width="3" ><path d="M249 0 249 174 242 184 235 191 212 204 125 249 0 249 0 127 40 53 44 47 56 31 59 28 81 15 109 7 134 3 234 0 249 0 "/><path d="M249 207 249 249 159 249 159 248 162 243 163 242 183 226 200 215 205 214 244 207 249 207 "/><path d="M28 0 38 12 40 18 40 29 37 32 34 34 11 41 8 41 5 38 0 31 0 17 2 14 17 1 21 0 28 0 "/><path d="M16 72 18 83 18 90 17 93 13 102 0 114 0 51 16 72 "/></svg>