<svg width="256" height="256" xmlns="http://www.w3.org/2000/svg" fill-opacity="0" stroke="black" stroke-width="3" ><path d="M154 33 163 38 180 50 196 63 196 64 178 179 172 196 170 201 169 203 166 208 155 215 136 227 125 230 93 231 80 231 78 230 65 223 62 221 61 220 47 200 43 192 39 182 39 175 40 170 71 63 72 61 83 51 89 47 93 45 133 34 140 33 154 33 "/><path d="M234 92 241 93 249 103 249 212 245 212 236 211 223 209 222 208 206 191 192 165 192 162 193 139 194 137 199 131 232 93 233 92 234 92 "/><path d="M249 0 249 43 244 44 231 44 222 42 200 37 191 32 183 26 180 23 165 5 163 2 163 0 249 0 "/><path d="M148 0 148 6 146 9 145 10 125 29 117 35 115 36 109 37 95 39 63 39 61 38 57 35 54 32 37 2 37 0 148 0 "/><path d="M16 111 23 114 33 119 36 122 36 130 34 136 32 139 21 151 18 154 15 155 5 158 2 158 0 156 0 113 6 111 13 110 16 111 "/><path d="M10 33 16 35 19 37 21 39 26 45 27 48 27 60 24 64 0 89 0 34 3 33 10 33 "/></svg>