<svg width="256" height="256" xmlns="http://www.w3.org/2000/svg" fill-opacity="0" stroke="black" stroke-width="3" ><path d="M73 0 139 10 149 14 155 17 163 22 166 24 170 27 183 41 185 45 188 52 192 64 196 81 197 87 197 88 195 99 194 103 191 113 190 116 184 126 181 130 173 138 164 145 156 151 138 158 134 159 129 160 108 160 96 158 69 145 0 87 0 0 73 0 "/><path d="M4 203 15 207 35 221 47 233 47 236 46 237 25 249 0 249 0 203 4 203 "/><path d="M239 158 248 159 249 160 249 181 244 185 221 181 210 178 207 174 208 171 209 169 221 163 232 159 238 158 239 158 "/></svg>