<svg width="256" height="256" xmlns="http://www.w3.org/2000/svg" fill-opacity="0" stroke="black" stroke-width="3" ><path d="M197 0 215 91 215 93 200 140 193 159 188 166 184 171 167 189 161 193 116 204 104 206 98 206 83 205 78 203 61 187 58 184 0 113 0 57 1 48 42 0 197 0 "/><path d="M7 132 29 150 31 172 32 197 31 206 11 207 0 192 0 146 2 141 6 132 7 132 "/><path d="M249 200 245 200 240 197 234 193 230 187 229 185 226 176 224 167 224 152 227 140 248 111 249 110 249 200 "/><path d="M93 236 107 239 111 240 117 242 128 246 133 248 135 249 50 249 51 248 57 244 65 239 67 238 76 236 93 236 "/></svg>