<svg width="256" height="256" xmlns="http://www.w3.org/2000/svg" fill-opacity="0" stroke="black" stroke-width="3" ><path d="M19 134 23 135 27 137 38 147 39 148 42 152 46 159 47 161 50 168 50 174 49 199 47 218 46 221 43 225 40 228 37 230 35 231 25 233 23 232 14 227 0 212 0 152 10 137 13 135 18 134 19 134 "/><path d="M119 50 117 208 116 208 98 202 85 195 83 193 80 189 55 134 54 131 54 127 55 112 56 107 58 100 62 93 67 85 72 79 80 70 85 65 90 61 96 57 108 51 114 49 118 49 119 50 "/><path d="M238 0 239 12 239 14 237 21 236 24 235 25 215 44 202 49 191 51 186 50 182 48 175 43 174 42 162 22 160 18 159 13 159 11 160 0 238 0 "/></svg>