<svg width="256" height="256" xmlns="http://www.w3.org/2000/svg" fill-opacity="0" stroke="black" stroke-width="3" ><path d="M125 55 134 57 140 59 163 70 166 72 171 76 185 88 189 93 194 101 195 104 200 124 200 130 199 141 195 158 194 161 192 165 184 178 174 194 158 199 131 203 117 204 116 204 100 203 86 201 82 200 74 196 56 175 46 157 40 142 38 133 38 111 40 101 41 98 46 90 52 82 55 79 65 70 68 68 81 61 83 60 99 56 104 55 125 55 "/><path d="M22 186 25 187 33 191 37 194 45 202 47 207 49 217 49 219 47 224 43 230 37 236 31 238 23 240 11 238 7 236 3 232 0 228 0 203 2 195 3 192 5 190 9 187 15 184 22 186 "/><path d="M182 227 190 240 190 242 188 249 96 249 96 247 99 232 100 230 115 221 125 218 143 215 182 227 "/></svg>