<svg width="256" height="256" xmlns="http://www.w3.org/2000/svg" fill-opacity="0" stroke="black" stroke-width="3" ><path d="M100 58 110 59 131 65 148 70 156 73 189 95 197 102 203 108 207 116 211 126 211 128 207 143 204 152 198 166 194 173 182 185 148 210 145 211 116 211 97 199 43 164 42 162 42 159 48 118 49 112 55 93 57 87 69 71 71 69 75 67 88 62 99 58 100 58 "/><path d="M249 0 249 80 246 82 236 88 224 89 222 89 215 86 209 81 208 80 180 45 180 43 190 19 198 8 201 5 207 0 249 0 "/><path d="M16 191 35 193 42 194 47 196 51 198 67 209 87 223 88 224 92 232 94 247 94 249 0 249 0 193 2 192 7 191 16 191 "/><path d="M229 230 221 245 216 247 209 249 165 249 160 239 158 232 158 227 161 211 190 182 192 181 206 181 208 182 214 188 215 190 222 206 229 230 "/><path d="M169 0 168 2 156 18 151 21 128 33 126 34 107 34 91 26 79 18 77 16 68 5 66 1 66 0 169 0 "/></svg>