<svg width="256" height="256" xmlns="http://www.w3.org/2000/svg" fill-opacity="0" stroke="black" stroke-width="3" ><path d="M204 0 249 117 249 138 246 205 244 209 235 225 232 228 228 230 197 238 186 240 174 240 53 184 50 182 42 174 39 170 37 166 34 154 31 133 31 125 37 104 46 81 49 76 53 70 64 59 127 0 204 0 "/><path d="M14 105 23 113 24 210 22 221 11 249 0 249 0 108 12 105 14 105 "/><path d="M249 3 249 61 240 62 236 62 228 53 223 43 222 32 222 20 224 16 227 12 230 9 235 6 244 3 249 3 "/><path d="M139 227 145 229 153 232 156 234 157 235 167 246 169 249 124 249 124 244 125 238 126 236 128 233 130 231 135 228 137 227 139 227 "/></svg>