<svg width="256" height="256" xmlns="http://www.w3.org/2000/svg" fill-opacity="0" stroke="black" stroke-width="3" ><path d="M125 27 183 39 236 73 238 75 240 79 239 81 147 214 143 217 141 218 134 218 96 212 67 204 64 203 62 202 55 198 47 192 25 164 13 138 12 133 12 129 23 96 38 69 40 66 91 38 122 27 125 27 "/><path d="M194 187 197 188 212 194 216 196 232 207 249 219 249 249 163 249 161 242 159 221 159 218 175 196 178 193 193 187 194 187 "/><path d="M58 0 58 5 57 11 56 14 50 31 49 33 39 52 30 68 28 71 21 80 6 98 2 102 0 103 0 0 58 0 "/><path d="M29 231 44 234 47 235 49 236 54 240 59 245 61 248 61 249 0 249 0 241 1 239 3 237 27 231 29 231 "/><path d="M137 0 130 10 129 11 122 15 119 16 71 19 69 19 69 16 80 5 83 3 92 0 137 0 "/></svg>