<svg width="256" height="256" xmlns="http://www.w3.org/2000/svg" fill-opacity="0" stroke="black" stroke-width="3" ><path d="M150 55 158 57 171 63 175 65 200 80 201 81 205 87 207 91 213 105 215 110 215 144 214 158 212 161 198 176 148 214 134 220 128 220 94 211 68 204 62 202 59 200 58 199 54 194 40 169 37 158 36 154 36 146 37 141 38 137 39 134 44 121 51 107 55 100 63 89 67 84 78 73 84 69 92 64 96 62 99 61 108 59 119 57 138 55 150 55 "/><path d="M78 215 92 217 101 222 103 224 110 232 112 235 119 249 63 249 62 247 61 244 60 238 60 228 61 225 65 217 70 214 78 215 "/><path d="M229 0 249 16 249 51 247 52 230 47 227 46 212 24 199 4 197 0 229 0 "/></svg>