<svg width="256" height="256" xmlns="http://www.w3.org/2000/svg" fill-opacity="0" stroke="black" stroke-width="3" ><path d="M132 44 137 45 149 48 151 49 162 55 163 56 166 60 185 90 192 104 195 118 195 122 192 139 190 147 188 153 186 158 183 163 179 168 178 169 153 189 145 194 127 203 118 205 102 206 100 206 98 205 87 199 65 179 63 177 59 170 56 163 46 137 45 134 43 115 43 107 53 89 63 76 67 72 71 69 75 67 128 44 132 44 "/><path d="M181 193 186 194 199 198 204 200 218 214 220 217 221 219 223 224 224 227 225 231 225 233 224 241 223 245 222 248 221 249 136 249 135 246 135 221 137 213 142 208 149 203 154 200 156 199 164 196 167 195 171 194 176 193 181 193 "/><path d="M249 0 249 71 246 78 245 79 220 84 213 84 198 78 194 74 183 57 181 47 181 34 187 21 189 18 191 16 211 3 217 0 249 0 "/></svg>