<svg width="256" height="256" xmlns="http://www.w3.org/2000/svg" fill-opacity="0" stroke="black" stroke-width="3" ><path d="M125 48 140 52 153 59 163 66 180 84 186 94 189 101 197 123 197 131 195 150 187 164 183 170 172 181 163 186 160 187 154 188 134 191 130 191 122 190 112 188 108 186 93 177 80 169 79 168 66 151 62 145 61 143 57 131 53 114 53 112 54 99 62 83 94 50 96 48 125 48 "/><path d="M249 3 249 125 248 125 237 117 230 110 226 105 217 90 211 79 209 71 207 57 207 41 211 33 217 22 221 16 223 14 227 11 234 6 237 4 239 3 249 3 "/></svg>