<svg width="256" height="256" xmlns="http://www.w3.org/2000/svg" fill-opacity="0" stroke="black" stroke-width="3" ><path d="M103 69 122 70 140 75 149 79 160 84 170 93 180 104 188 120 195 136 196 139 197 146 197 153 176 216 174 221 172 225 169 228 71 230 69 230 65 227 55 217 43 203 36 193 27 178 25 174 23 169 21 160 20 144 21 134 25 121 27 116 30 111 34 106 43 95 46 92 60 81 82 72 85 71 100 69 103 69 "/><path d="M63 0 71 13 71 18 68 27 62 34 59 37 54 41 51 43 21 59 13 63 11 63 0 60 0 11 27 0 63 0 "/><path d="M22 199 24 201 66 248 66 249 0 249 0 216 18 198 22 199 "/><path d="M241 226 248 227 249 228 249 249 225 249 224 248 223 244 223 238 228 231 231 228 235 226 241 226 "/></svg>