<svg width="256" height="256" xmlns="http://www.w3.org/2000/svg" fill-opacity="0" stroke="black" stroke-width="3" ><path d="M128 67 146 69 160 76 161 77 173 91 189 114 191 122 192 127 194 139 194 143 191 161 190 165 188 169 185 173 180 179 177 182 174 184 168 187 165 188 152 192 142 194 141 194 123 192 83 170 69 162 61 154 55 147 50 141 48 137 47 129 47 120 49 112 52 103 57 95 72 81 81 75 111 67 128 67 "/><path d="M187 193 194 194 199 196 201 197 205 200 211 206 213 210 214 213 215 217 216 222 216 226 215 231 212 236 204 244 201 246 174 246 164 240 159 236 157 231 156 228 156 217 159 210 163 204 169 198 175 195 178 194 184 193 187 193 "/><path d="M55 187 62 194 70 214 71 217 71 218 70 226 68 228 44 249 11 249 11 244 14 236 19 224 34 203 47 189 50 187 55 187 "/><path d="M5 128 13 134 19 142 20 144 25 161 25 169 24 176 20 188 19 190 13 201 0 224 0 129 3 127 5 128 "/></svg>