<svg width="256" height="256" xmlns="http://www.w3.org/2000/svg" fill-opacity="0" stroke="black" stroke-width="3" ><path d="M130 39 190 59 193 61 202 70 210 79 214 85 220 104 221 109 221 132 220 138 219 141 212 154 202 166 139 202 135 204 132 205 120 205 111 204 103 203 99 201 75 186 61 174 59 172 48 158 47 156 41 134 41 120 45 105 49 92 52 87 61 73 69 64 84 51 86 50 107 41 111 40 124 39 130 39 "/><path d="M48 187 63 190 66 191 68 192 77 197 83 203 86 207 87 209 90 217 90 223 88 229 87 231 84 235 79 240 71 246 49 249 0 249 0 220 2 214 3 212 6 209 27 192 31 189 34 188 40 187 48 187 "/><path d="M172 208 177 209 180 210 187 215 206 239 208 249 144 249 143 240 143 234 150 220 154 215 155 214 158 212 165 208 172 208 "/><path d="M249 221 249 249 221 249 218 240 224 234 230 229 241 223 246 221 249 221 "/><path d="M249 176 247 177 244 177 237 170 231 161 231 155 243 126 249 120 249 176 "/></svg>