<svg width="256" height="256" xmlns="http://www.w3.org/2000/svg" fill-opacity="0" stroke="black" stroke-width="3" ><path d="M106 3 120 5 133 7 142 9 155 13 168 19 176 24 194 41 198 45 205 54 207 57 215 82 217 89 218 99 218 104 217 115 199 162 197 167 192 175 186 183 184 185 177 191 170 195 168 196 149 202 144 203 135 204 116 204 104 202 95 199 81 192 79 190 68 176 60 164 50 144 48 139 43 126 42 123 40 115 40 82 53 35 56 29 60 23 62 21 74 11 80 7 85 5 91 3 106 3 "/><path d="M13 216 28 230 47 249 2 249 2 248 4 221 9 216 11 215 13 216 "/></svg>