<svg width="256" height="256" xmlns="http://www.w3.org/2000/svg" fill-opacity="0" stroke="black" stroke-width="3" ><path d="M135 36 147 37 162 42 182 53 185 55 189 59 191 62 200 79 202 83 209 101 206 146 205 151 184 186 175 195 161 206 155 209 150 210 142 211 83 200 79 198 76 196 54 181 52 178 5 96 3 92 3 65 4 59 6 56 7 55 11 52 22 47 29 45 108 36 135 36 "/><path d="M249 67 249 174 247 173 246 172 244 169 235 154 232 148 231 145 228 135 227 115 227 111 228 95 232 85 239 76 248 67 249 67 "/><path d="M240 0 240 2 239 6 234 20 229 25 226 26 201 31 199 31 190 28 165 15 152 7 147 2 147 0 240 0 "/><path d="M44 0 45 1 45 6 39 11 35 14 27 18 9 22 0 23 0 0 44 0 "/></svg>