<svg width="256" height="256" xmlns="http://www.w3.org/2000/svg" fill-opacity="0" stroke="black" stroke-width="3" ><path d="M166 21 175 23 181 25 186 27 196 32 220 47 237 78 241 86 243 92 245 100 246 109 246 115 245 120 230 168 229 171 225 177 216 186 210 190 206 192 192 196 184 198 175 200 161 202 139 202 129 201 125 200 119 198 115 196 110 192 101 184 99 182 93 175 90 171 84 162 78 150 76 144 74 134 74 127 82 79 88 67 90 64 96 56 100 51 106 45 114 39 120 35 136 27 147 23 152 22 158 21 166 21 "/><path d="M245 227 249 228 249 249 198 249 199 247 208 238 213 235 219 232 224 230 234 227 245 227 "/></svg>