<svg width="256" height="256" xmlns="http://www.w3.org/2000/svg" fill-opacity="0" stroke="black" stroke-width="3" ><path d="M185 71 188 74 202 103 204 108 208 142 207 143 187 156 185 157 119 182 78 192 74 192 72 191 36 151 34 148 34 147 35 143 77 63 79 60 185 71 "/><path d="M151 212 159 213 180 218 187 221 190 223 200 233 214 249 122 249 121 243 120 236 120 235 122 228 123 225 124 224 149 212 151 212 "/><path d="M16 82 20 84 25 89 30 97 30 105 27 111 25 113 5 124 3 125 0 125 0 94 3 88 6 85 10 82 16 82 "/></svg>