<svg width="256" height="256" xmlns="http://www.w3.org/2000/svg" fill-opacity="0" stroke="black" stroke-width="3" ><path d="M116 49 135 50 141 51 153 54 165 58 167 59 180 67 183 70 198 88 199 90 201 98 201 119 200 122 173 194 169 202 167 205 164 208 152 216 128 225 106 227 101 227 76 225 36 180 34 176 34 124 39 100 50 83 73 63 101 51 105 50 115 49 116 49 "/><path d="M249 141 249 249 229 249 226 247 212 233 210 229 198 204 195 194 195 176 196 173 199 170 226 149 237 144 240 143 248 141 249 141 "/><path d="M1 182 7 184 19 189 45 202 84 240 79 249 0 249 0 182 1 182 "/><path d="M151 221 156 223 176 233 177 234 178 236 179 239 181 249 86 249 87 247 95 237 101 233 106 231 110 230 150 221 151 221 "/></svg>