<svg width="256" height="256" xmlns="http://www.w3.org/2000/svg" fill-opacity="0" stroke="black" stroke-width="3" ><path d="M96 19 166 39 171 41 174 43 181 49 199 76 202 81 206 89 209 96 210 99 213 113 214 129 214 140 210 152 203 170 202 172 197 180 194 184 183 196 160 213 145 219 131 222 128 222 105 216 77 204 65 196 58 186 56 183 53 178 47 166 46 163 42 150 40 142 38 124 38 87 39 82 48 45 52 40 94 19 96 19 "/><path d="M212 0 216 20 214 22 192 28 179 31 168 26 168 0 212 0 "/><path d="M160 0 159 17 157 19 146 23 131 23 117 19 111 14 107 10 102 4 100 0 160 0 "/><path d="M232 230 237 232 239 233 249 239 249 249 178 249 185 238 206 232 227 229 232 230 "/><path d="M1 78 4 82 7 88 10 100 11 115 11 124 10 129 2 145 1 146 0 146 0 77 1 78 "/></svg>