<svg width="256" height="256" xmlns="http://www.w3.org/2000/svg" fill-opacity="0" stroke="black" stroke-width="3" ><path d="M97 23 102 24 120 28 136 37 140 40 156 56 160 62 178 96 180 101 181 105 181 116 180 132 163 163 158 172 155 177 150 185 142 185 74 154 51 140 49 138 40 125 37 103 37 91 38 88 74 32 75 31 84 25 86 24 92 23 97 23 "/><path d="M34 0 54 7 54 8 48 24 40 42 33 52 31 53 16 55 15 55 14 54 0 4 0 0 34 0 "/><path d="M200 27 217 34 224 39 226 44 226 51 225 55 220 60 216 62 207 64 201 61 198 58 190 48 190 42 191 36 197 28 199 27 200 27 "/></svg>