<svg width="256" height="256" xmlns="http://www.w3.org/2000/svg" fill-opacity="0" stroke="black" stroke-width="3" ><path d="M143 44 164 48 167 49 173 53 177 57 200 87 215 107 217 115 217 119 193 170 155 198 121 210 115 212 107 213 103 213 97 212 91 209 82 204 50 181 47 178 41 170 40 164 37 131 36 116 36 114 38 93 39 89 42 82 50 74 71 60 79 55 89 50 106 46 118 44 143 44 "/><path d="M212 176 226 185 232 190 248 204 249 205 249 249 148 249 144 246 142 243 139 238 139 236 140 234 176 192 183 186 188 182 190 181 198 178 210 175 212 176 "/><path d="M197 7 207 19 208 21 208 26 207 34 205 40 203 44 198 51 197 52 193 54 186 55 173 51 170 49 168 47 162 39 161 37 160 34 159 29 160 11 165 7 170 5 189 3 197 7 "/><path d="M96 0 95 8 94 9 87 15 78 21 57 22 52 22 46 18 35 6 33 3 32 1 32 0 96 0 "/><path d="M17 0 19 2 19 16 18 22 9 40 5 45 1 48 0 48 0 0 17 0 "/></svg>