<svg width="256" height="256" xmlns="http://www.w3.org/2000/svg" fill-opacity="0" stroke="black" stroke-width="3" ><path d="M140 32 160 38 189 50 203 70 218 103 224 138 224 141 221 160 219 165 215 174 210 184 197 206 196 207 175 225 169 229 165 231 145 239 138 240 135 240 93 237 78 231 57 219 52 215 51 214 43 205 40 200 34 189 30 179 23 157 22 153 22 116 24 110 30 96 34 87 42 75 47 70 60 58 109 32 140 32 "/><path d="M84 0 84 2 77 28 75 29 62 34 54 35 31 36 30 36 20 35 10 29 2 22 0 19 0 3 2 0 84 0 "/></svg>