<svg width="256" height="256" xmlns="http://www.w3.org/2000/svg" fill-opacity="0" stroke="black" stroke-width="3" ><path d="M147 65 157 67 168 70 170 71 176 75 186 84 187 85 203 119 204 122 205 126 205 135 193 158 185 171 184 172 164 179 147 183 143 182 105 166 100 163 96 157 85 127 85 120 86 114 91 96 95 87 96 85 97 84 101 81 106 78 125 69 132 66 136 65 147 65 "/><path d="M17 88 27 89 37 94 47 101 51 105 61 121 71 153 71 169 63 182 58 188 56 190 47 196 43 198 25 204 16 205 13 205 8 204 0 202 0 92 1 90 3 89 14 88 17 88 "/><path d="M76 0 77 1 80 14 82 24 83 32 83 43 73 52 69 53 61 53 37 47 30 43 21 36 19 34 14 17 15 13 28 0 76 0 "/><path d="M249 0 249 45 248 46 241 51 239 51 235 49 232 47 231 46 226 39 223 34 214 4 214 3 216 0 249 0 "/></svg>