<svg width="256" height="256" xmlns="http://www.w3.org/2000/svg" fill-opacity="0" stroke="black" stroke-width="3" ><path d="M176 70 180 72 182 74 183 76 185 85 190 115 190 118 188 132 185 141 182 146 162 169 161 170 153 176 127 187 114 190 102 192 94 188 74 171 64 162 58 154 58 139 60 120 61 117 63 113 81 99 135 74 151 68 164 66 176 70 "/><path d="M232 163 235 164 245 171 246 172 249 197 249 211 246 221 245 224 243 229 240 232 222 244 214 249 139 249 139 240 211 168 215 165 217 164 221 163 232 163 "/></svg>