<svg width="256" height="256" xmlns="http://www.w3.org/2000/svg" fill-opacity="0" stroke="black" stroke-width="3" ><path d="M128 0 203 61 204 62 212 72 240 109 246 123 249 161 249 249 216 249 57 142 47 135 43 131 41 125 39 113 38 104 38 57 39 53 43 43 45 39 48 35 56 25 61 20 72 10 77 6 121 0 128 0 "/><path d="M48 151 73 170 78 177 83 185 84 187 86 217 86 221 81 236 74 246 71 249 2 249 0 245 0 175 41 154 47 151 48 151 "/><path d="M5 83 13 86 22 91 26 95 27 97 28 100 29 126 28 138 27 142 21 148 19 149 14 151 11 152 8 152 0 148 0 83 5 83 "/></svg>