<svg width="256" height="256" xmlns="http://www.w3.org/2000/svg" fill-opacity="0" stroke="black" stroke-width="3" ><path d="M119 46 147 52 156 54 159 55 179 64 193 72 197 75 206 84 214 94 222 110 234 143 238 169 238 171 236 187 233 194 232 196 212 227 207 233 204 236 198 241 190 247 186 249 87 249 78 246 67 236 42 212 41 211 37 206 33 200 23 180 19 167 18 159 17 142 17 136 27 116 45 88 55 76 65 65 66 64 69 62 92 49 94 48 97 47 108 46 119 46 "/><path d="M192 0 192 2 190 7 187 13 183 17 174 23 171 24 165 25 154 25 128 19 125 17 125 16 135 0 192 0 "/></svg>