<svg width="256" height="256" xmlns="http://www.w3.org/2000/svg" fill-opacity="0" stroke="black" stroke-width="3" ><path d="M142 25 147 26 205 46 215 53 223 61 237 82 241 94 245 110 245 116 244 124 237 143 234 149 229 157 219 170 201 188 191 196 181 200 178 201 166 204 160 204 133 202 106 199 93 195 84 191 82 190 74 185 64 177 62 175 58 170 56 167 53 162 51 158 44 143 29 106 29 105 51 67 59 57 62 54 68 49 73 45 81 40 89 36 100 31 103 30 110 28 121 26 133 24 142 25 "/><path d="M46 0 49 9 49 14 48 20 45 29 43 33 39 39 36 42 26 49 22 51 19 52 9 54 3 54 0 53 0 14 25 0 46 0 "/><path d="M102 215 108 219 110 221 117 229 121 238 123 244 123 249 63 249 63 248 64 245 68 234 70 231 73 227 76 224 80 221 90 215 102 215 "/><path d="M228 0 237 30 223 36 207 39 201 36 196 31 195 28 195 6 197 1 199 0 228 0 "/></svg>