<svg width="256" height="256" xmlns="http://www.w3.org/2000/svg" fill-opacity="0" stroke="black" stroke-width="3" ><path d="M163 50 185 61 189 64 200 74 202 76 204 80 218 124 242 207 246 221 246 230 242 243 239 249 171 249 83 225 79 223 13 153 1 132 36 85 120 43 163 50 "/><path d="M95 0 96 2 96 12 95 18 94 22 91 30 90 32 83 44 82 45 73 53 65 55 38 55 30 52 25 50 6 38 0 33 0 0 95 0 "/><path d="M246 0 246 7 243 15 227 42 220 50 217 53 199 54 190 54 155 43 153 42 150 39 147 31 137 4 137 0 246 0 "/><path d="M249 117 245 116 243 115 231 103 224 94 222 87 225 71 227 63 231 53 233 49 246 25 249 22 249 117 "/><path d="M5 202 13 204 16 205 24 208 27 210 33 216 38 222 41 228 44 235 46 245 46 249 34 249 9 216 5 210 2 205 2 202 5 202 "/></svg>