<svg width="256" height="256" xmlns="http://www.w3.org/2000/svg" fill-opacity="0" stroke="black" stroke-width="3" ><path d="M154 7 175 8 187 10 215 18 219 21 220 22 229 37 241 58 243 62 244 89 244 96 243 101 239 113 237 118 234 124 231 129 229 132 224 138 218 145 212 151 203 157 194 162 192 163 177 169 167 171 147 171 143 170 136 168 117 160 113 158 100 151 84 133 78 116 76 107 76 106 78 90 80 77 90 40 120 16 134 9 137 8 152 7 154 7 "/><path d="M188 192 200 198 205 202 207 204 217 223 227 248 227 249 130 249 129 246 129 235 133 221 141 210 144 206 145 205 149 202 152 200 157 197 167 193 170 192 188 192 "/><path d="M38 22 46 24 57 32 63 39 67 45 67 53 65 63 63 71 61 75 58 79 52 85 48 87 41 89 37 89 18 81 14 79 8 75 4 71 0 65 0 49 3 44 13 33 18 28 21 26 26 24 33 22 38 22 "/></svg>