<svg width="256" height="256" xmlns="http://www.w3.org/2000/svg" fill-opacity="0" stroke="black" stroke-width="3" ><path d="M200 0 202 3 223 103 223 114 222 135 218 143 212 152 191 176 187 180 170 191 164 194 150 196 142 197 139 197 102 195 95 193 89 191 81 185 66 165 63 159 59 146 59 94 63 85 65 81 69 74 102 40 153 3 162 0 200 0 "/><path d="M123 215 131 216 141 218 151 222 158 226 160 229 170 249 72 249 73 246 77 238 83 228 91 220 94 218 96 217 100 216 121 215 123 215 "/><path d="M239 0 248 3 249 4 249 69 248 70 246 71 245 71 241 69 237 64 227 49 224 44 217 31 217 23 218 15 230 2 232 0 239 0 "/><path d="M12 171 14 172 15 174 20 190 14 229 8 249 0 249 0 174 9 171 12 171 "/></svg>