<svg width="256" height="256" xmlns="http://www.w3.org/2000/svg" fill-opacity="0" stroke="black" stroke-width="3" ><path d="M140 61 150 62 164 66 170 70 183 79 192 88 198 98 202 108 204 115 210 138 208 157 202 175 201 177 196 183 188 192 184 195 174 202 169 205 161 209 156 211 149 213 139 214 131 214 124 213 115 210 103 204 91 195 86 190 83 186 78 178 73 169 71 165 70 158 67 132 67 124 69 114 71 107 72 104 76 95 78 92 85 84 93 76 96 74 101 71 111 66 115 65 128 62 133 61 140 61 "/><path d="M49 161 63 170 69 176 78 187 80 193 84 220 84 223 78 247 77 249 20 249 16 246 15 245 7 236 3 226 3 188 6 181 10 175 11 174 14 172 27 164 30 163 41 161 49 161 "/><path d="M249 117 249 144 241 155 239 157 232 155 231 154 230 149 230 148 235 122 237 116 245 113 249 117 "/></svg>