<svg width="256" height="256" xmlns="http://www.w3.org/2000/svg" fill-opacity="0" stroke="black" stroke-width="3" ><path d="M106 45 133 46 151 47 165 52 169 54 173 57 179 62 189 72 195 80 203 92 205 100 209 132 209 135 202 160 191 178 176 196 155 208 142 210 128 212 95 212 39 173 38 172 37 169 37 166 41 117 45 104 46 101 52 89 59 76 62 73 80 56 103 45 106 45 "/><path d="M85 0 89 3 93 12 95 20 95 28 93 34 30 103 28 105 26 106 3 107 2 107 0 106 0 0 85 0 "/><path d="M190 217 192 218 198 222 205 227 207 229 217 243 215 249 110 249 110 245 111 243 113 240 114 239 123 233 129 230 150 220 163 214 168 213 190 217 "/></svg>