<svg width="256" height="256" xmlns="http://www.w3.org/2000/svg" fill-opacity="0" stroke="black" stroke-width="3" ><path d="M137 25 249 42 249 106 180 180 178 182 160 196 143 202 140 203 105 199 73 184 67 181 55 172 54 170 52 160 82 47 88 40 91 37 96 34 98 33 109 28 112 27 133 25 137 25 "/><path d="M36 41 55 48 62 70 65 80 65 84 63 95 60 110 54 139 53 142 50 144 36 152 27 152 2 132 0 130 0 43 34 41 36 41 "/><path d="M217 173 236 182 247 189 249 191 249 249 176 249 175 248 175 238 181 205 183 197 185 191 192 184 199 178 201 177 210 173 217 173 "/><path d="M116 216 161 242 161 244 160 245 158 246 151 249 65 249 65 247 66 241 75 226 113 216 116 216 "/></svg>