<svg width="256" height="256" xmlns="http://www.w3.org/2000/svg" fill-opacity="0" stroke="black" stroke-width="3" ><path d="M141 13 168 15 179 22 204 48 207 52 212 61 213 63 229 104 230 110 230 118 229 120 197 175 196 176 170 200 138 218 132 219 122 219 116 218 93 210 87 207 82 204 71 194 69 192 64 186 60 178 57 171 50 152 46 136 46 119 48 88 49 83 51 77 56 67 58 64 75 43 77 41 88 32 107 18 109 17 121 15 138 13 141 13 "/><path d="M2 113 19 114 32 122 35 125 43 140 46 149 47 155 46 159 42 170 40 174 37 179 35 181 30 184 28 185 25 186 21 187 20 187 18 186 13 183 10 181 9 179 0 140 0 113 2 113 "/><path d="M72 0 76 3 78 6 78 10 76 14 64 28 60 30 51 32 41 32 33 31 27 28 24 25 21 21 19 17 18 10 18 5 21 0 72 0 "/><path d="M249 33 249 98 246 99 243 98 237 94 232 87 224 72 223 70 222 65 222 58 225 48 231 41 233 39 243 34 246 33 249 33 "/></svg>