<svg width="256" height="256" xmlns="http://www.w3.org/2000/svg" fill-opacity="0" stroke="black" stroke-width="3" ><path d="M97 16 137 17 148 20 162 25 164 26 181 37 184 39 186 41 202 58 204 61 212 76 214 83 216 96 217 110 217 121 215 129 210 148 206 157 194 174 193 175 177 188 172 192 163 198 119 222 100 222 92 221 53 215 43 211 41 210 4 178 3 177 0 169 0 93 3 77 4 74 5 72 21 56 40 41 52 33 54 32 96 16 97 16 "/><path d="M77 233 89 234 96 235 100 236 112 240 124 245 128 249 39 249 41 246 43 244 45 243 59 237 75 233 77 233 "/></svg>