<svg width="256" height="256" xmlns="http://www.w3.org/2000/svg" fill-opacity="0" stroke="black" stroke-width="3" ><path d="M54 14 59 15 63 17 168 74 173 77 186 90 193 98 195 101 199 109 200 112 202 121 202 125 172 176 163 190 160 194 153 203 143 214 117 219 116 219 106 217 94 213 91 211 21 152 17 148 1 123 0 104 0 60 4 49 8 43 34 17 40 15 46 14 54 14 "/><path d="M25 204 30 205 34 206 39 210 41 212 43 215 47 224 48 243 48 249 0 249 0 246 3 232 4 228 6 221 8 217 18 207 24 204 25 204 "/><path d="M104 229 107 232 116 249 66 249 66 247 68 243 70 241 73 239 83 233 92 229 104 229 "/></svg>