<svg width="256" height="256" xmlns="http://www.w3.org/2000/svg" fill-opacity="0" stroke="black" stroke-width="3" ><path d="M106 61 137 69 143 72 207 134 209 136 213 141 214 149 214 156 213 162 211 168 209 173 207 176 198 184 195 186 190 189 184 191 180 192 172 192 128 184 114 178 85 165 83 164 78 159 68 148 64 142 62 138 54 119 52 113 49 100 49 96 56 83 59 79 62 76 68 72 73 69 80 65 86 62 92 61 106 61 "/><path d="M147 207 164 210 168 212 177 220 178 223 178 231 175 249 112 249 110 247 110 236 114 217 123 208 126 207 147 207 "/><path d="M53 0 72 2 73 4 73 7 72 13 69 19 67 22 41 48 11 66 7 68 1 70 0 70 0 19 5 0 53 0 "/><path d="M244 218 248 219 249 220 249 249 202 249 200 242 200 239 202 234 206 229 211 225 218 221 232 218 244 218 "/></svg>