<svg width="256" height="256" xmlns="http://www.w3.org/2000/svg" fill-opacity="0" stroke="black" stroke-width="3" ><path d="M104 46 143 48 149 49 158 52 188 65 191 67 193 69 195 74 191 170 189 173 181 183 176 188 151 207 147 210 146 210 134 206 64 169 51 118 51 116 72 66 77 56 85 48 91 46 104 46 "/><path d="M249 0 249 31 242 38 215 47 213 47 207 46 190 40 190 23 192 0 249 0 "/><path d="M184 219 187 220 193 225 195 227 203 240 205 244 206 247 206 249 135 249 135 248 138 238 140 236 143 234 162 224 164 223 182 219 184 219 "/><path d="M190 0 190 3 187 39 184 39 176 37 161 22 160 20 154 7 155 0 190 0 "/></svg>