<svg width="256" height="256" xmlns="http://www.w3.org/2000/svg" fill-opacity="0" stroke="black" stroke-width="3" ><path d="M133 52 141 54 179 86 187 94 191 100 194 107 195 110 196 118 196 122 195 128 194 132 191 143 189 149 181 161 165 181 159 188 154 193 147 199 141 203 136 205 131 205 126 204 57 179 54 177 49 171 42 161 40 158 38 154 36 146 35 137 35 135 36 126 61 82 69 69 78 63 80 62 121 52 133 52 "/><path d="M247 0 249 4 249 8 234 38 226 50 223 53 217 58 213 61 207 65 197 68 193 69 182 69 173 68 167 65 162 62 156 56 154 53 150 43 145 28 145 27 149 16 153 10 160 0 247 0 "/><path d="M74 195 80 198 89 205 95 212 107 227 108 229 110 236 110 239 109 246 108 249 79 249 72 246 65 207 65 203 66 199 67 198 70 196 72 195 74 195 "/><path d="M29 219 38 225 43 229 45 231 45 249 12 249 9 236 9 232 10 230 11 229 20 221 23 219 29 219 "/></svg>