<svg width="256" height="256" xmlns="http://www.w3.org/2000/svg" fill-opacity="0" stroke="black" stroke-width="3" ><path d="M152 23 155 24 173 37 179 43 202 96 203 116 203 146 201 152 195 167 175 195 169 202 166 205 162 207 160 207 126 203 99 195 91 191 88 189 30 127 28 123 44 93 46 90 48 88 74 63 81 58 87 54 139 23 152 23 "/><path d="M9 134 21 141 30 147 40 154 49 162 50 163 67 184 73 195 81 211 82 214 83 219 84 237 83 249 55 249 0 227 0 130 9 134 "/><path d="M232 159 249 162 249 234 230 245 212 249 199 249 196 246 195 244 197 187 200 181 210 168 216 162 228 159 232 159 "/><path d="M86 0 86 16 85 18 83 21 78 22 72 22 55 18 46 15 44 14 39 11 36 9 35 8 34 6 34 1 35 0 86 0 "/></svg>