<svg width="256" height="256" xmlns="http://www.w3.org/2000/svg" fill-opacity="0" stroke="black" stroke-width="3" ><path d="M141 68 154 77 155 78 162 86 165 91 169 99 187 149 188 153 188 157 186 171 185 174 183 179 161 198 155 203 149 205 129 211 124 211 101 197 78 176 74 170 73 167 62 129 61 119 62 108 65 101 69 96 73 92 91 78 93 77 109 70 118 69 129 68 141 68 "/><path d="M249 176 249 249 167 249 166 247 166 243 168 231 172 221 181 210 188 202 193 198 200 193 210 187 214 185 227 180 243 176 249 176 "/><path d="M244 51 247 52 249 53 249 137 235 148 231 151 229 152 213 152 206 148 201 143 196 127 196 124 225 60 236 51 244 51 "/><path d="M37 155 38 157 38 183 36 186 31 192 23 197 21 198 20 198 15 195 0 185 0 157 2 156 7 155 37 155 "/><path d="M61 215 71 220 74 223 77 228 77 233 76 247 75 249 51 249 44 242 44 236 46 230 49 224 51 221 55 217 59 215 61 215 "/><path d="M18 104 22 106 26 110 27 112 27 120 24 128 13 143 10 147 8 148 3 150 0 149 0 120 3 113 4 111 8 107 16 104 18 104 "/></svg>