<svg width="256" height="256" xmlns="http://www.w3.org/2000/svg" fill-opacity="0" stroke="black" stroke-width="3" ><path d="M240 22 244 25 246 28 247 30 249 37 249 211 247 213 243 215 240 216 231 217 230 217 176 210 166 208 163 207 157 201 151 191 149 187 145 177 145 166 147 65 148 60 149 57 155 48 163 40 179 29 185 26 191 24 196 23 204 22 240 22 "/><path d="M110 84 123 93 124 95 124 113 122 134 120 141 118 144 115 148 106 159 101 165 98 167 94 169 90 170 85 170 59 161 44 152 41 150 32 143 31 141 31 131 35 118 36 115 37 113 40 109 43 106 46 104 59 98 93 85 96 84 110 84 "/></svg>