<svg width="256" height="256" xmlns="http://www.w3.org/2000/svg" fill-opacity="0" stroke="black" stroke-width="3" ><path d="M152 0 204 102 176 195 172 204 171 205 143 214 63 220 60 220 33 174 1 73 0 68 0 51 1 49 47 0 152 0 "/><path d="M228 157 233 158 236 159 244 165 246 167 249 173 249 216 248 217 246 218 223 229 197 235 181 223 180 220 180 212 182 203 191 185 195 178 205 164 207 162 225 157 228 157 "/><path d="M119 220 147 229 153 231 159 234 168 239 180 248 180 249 28 249 28 248 31 245 33 244 63 233 79 229 116 220 119 220 "/><path d="M19 178 26 180 30 182 34 186 36 193 36 194 35 197 34 198 22 209 18 211 4 214 0 211 0 196 3 184 4 182 16 178 19 178 "/><path d="M228 0 222 6 207 15 199 17 185 17 165 7 161 3 161 0 228 0 "/><path d="M249 142 245 140 243 138 237 130 235 126 234 121 234 111 235 106 239 98 245 92 249 91 249 142 "/></svg>