<svg width="256" height="256" xmlns="http://www.w3.org/2000/svg" fill-opacity="0" stroke="black" stroke-width="3" ><path d="M96 68 101 69 116 74 138 82 143 84 147 86 150 88 162 101 166 106 169 111 173 121 179 143 179 148 178 150 175 152 76 199 72 199 44 187 40 185 36 182 33 178 30 173 25 159 24 154 24 129 26 116 28 109 36 96 38 93 46 85 50 82 72 71 79 69 83 68 96 68 "/><path d="M156 0 159 14 161 29 161 32 157 42 155 45 151 50 145 57 143 59 124 61 123 61 85 52 84 32 84 31 86 0 156 0 "/><path d="M61 0 61 2 55 23 48 34 46 37 45 38 40 42 10 60 6 62 0 62 0 0 61 0 "/></svg>