<svg width="256" height="256" xmlns="http://www.w3.org/2000/svg" fill-opacity="0" stroke="black" stroke-width="3" ><path d="M130 50 163 54 166 56 176 64 177 65 178 67 182 91 183 99 183 118 182 128 179 135 173 147 165 157 154 169 136 188 130 190 118 190 103 188 89 185 74 181 69 179 66 176 61 151 61 148 67 86 68 81 71 74 80 66 85 62 87 61 98 56 102 55 124 50 130 50 "/><path d="M249 0 249 82 232 118 217 118 191 53 191 50 195 26 203 9 210 1 211 0 249 0 "/><path d="M123 208 132 211 146 225 148 229 150 235 150 245 148 249 54 249 45 243 42 236 41 233 41 226 42 223 43 221 48 214 50 212 57 210 118 208 123 208 "/></svg>