<svg width="256" height="256" xmlns="http://www.w3.org/2000/svg" fill-opacity="0" stroke="black" stroke-width="3" ><path d="M215 83 222 85 224 87 230 98 235 133 235 163 226 189 224 192 223 193 196 212 160 228 157 229 144 230 142 230 129 222 47 159 46 158 45 156 40 129 39 115 39 114 45 100 59 79 61 78 76 75 134 69 215 83 "/><path d="M249 203 249 249 194 249 194 248 196 241 200 232 208 222 211 219 220 212 230 206 236 204 243 203 249 203 "/><path d="M105 29 109 30 111 31 111 32 17 107 17 94 19 81 29 57 31 55 39 48 57 41 73 35 81 33 99 29 105 29 "/></svg>