<svg width="256" height="256" xmlns="http://www.w3.org/2000/svg" fill-opacity="0" stroke="black" stroke-width="3" ><path d="M118 28 145 31 149 32 164 42 168 46 182 82 188 101 190 109 192 120 193 128 193 132 192 140 188 160 187 164 172 182 169 185 166 187 143 197 129 203 126 204 123 204 94 201 90 199 54 156 51 130 51 110 57 77 68 48 70 46 89 37 104 30 114 28 118 28 "/><path d="M236 166 237 167 240 171 241 173 249 190 249 249 169 249 165 221 165 220 167 214 175 197 187 178 191 174 220 168 230 166 236 166 "/><path d="M89 230 91 232 106 249 46 249 48 248 86 230 89 230 "/></svg>