<svg width="256" height="256" xmlns="http://www.w3.org/2000/svg" fill-opacity="0" stroke="black" stroke-width="3" ><path d="M138 86 156 87 165 88 219 118 220 119 226 128 238 154 238 201 228 221 222 230 204 240 196 242 184 244 159 244 154 242 152 241 151 240 80 167 79 165 73 152 65 132 65 127 69 115 86 100 108 93 136 86 138 86 "/><path d="M157 0 170 66 170 67 169 68 163 72 159 72 83 68 75 67 67 65 64 64 49 57 37 46 31 38 27 32 24 22 24 21 27 10 33 0 157 0 "/><path d="M249 0 249 42 214 68 208 72 204 72 197 71 175 56 166 41 167 34 171 26 173 24 182 18 186 16 193 13 234 0 249 0 "/></svg>