<svg width="256" height="256" xmlns="http://www.w3.org/2000/svg" fill-opacity="0" stroke="black" stroke-width="3" ><path d="M190 74 199 80 205 86 210 92 212 95 222 124 223 127 223 130 222 137 221 141 220 144 218 148 210 162 204 167 170 195 167 197 164 198 151 199 141 199 138 198 84 172 80 170 73 164 65 154 59 142 56 134 55 131 54 127 54 114 55 111 57 107 63 100 67 96 73 91 100 70 110 64 115 62 121 60 190 74 "/><path d="M68 190 83 192 93 197 108 205 130 227 132 230 132 245 129 247 122 249 27 249 26 246 26 238 28 223 31 213 32 210 42 194 44 192 58 190 68 190 "/><path d="M73 19 74 20 80 44 76 71 71 77 69 79 65 82 30 92 23 91 21 90 15 86 6 74 1 64 0 59 0 56 1 48 3 40 71 19 73 19 "/></svg>