<svg width="256" height="256" xmlns="http://www.w3.org/2000/svg" fill-opacity="0" stroke="black" stroke-width="3" ><path d="M145 13 152 14 156 16 159 18 161 20 166 27 196 87 200 96 200 112 199 126 198 130 195 141 193 145 188 152 185 156 184 157 172 168 66 249 19 249 3 199 3 196 4 180 5 178 69 80 77 68 84 59 88 54 123 19 133 14 136 13 145 13 "/><path d="M216 201 215 218 214 220 195 249 132 249 132 246 153 205 155 202 160 195 162 193 170 190 191 190 194 191 215 200 216 201 "/><path d="M27 39 35 44 46 53 47 54 50 59 54 68 54 79 48 110 46 112 24 106 0 88 0 75 4 54 7 46 20 40 25 39 27 39 "/><path d="M249 168 249 224 247 224 243 222 235 215 234 214 229 175 229 173 244 168 249 168 "/></svg>