<svg width="256" height="256" xmlns="http://www.w3.org/2000/svg" fill-opacity="0" stroke="black" stroke-width="3" ><path d="M119 48 136 50 140 52 143 54 152 61 156 65 169 79 171 82 189 117 189 138 175 169 167 185 159 191 155 193 150 195 143 197 140 197 125 196 122 195 98 183 91 177 72 140 66 113 66 99 68 90 74 75 81 64 84 60 89 56 92 54 109 48 119 48 "/><path d="M249 0 249 83 246 84 230 88 225 88 205 87 194 83 146 41 144 20 144 13 150 4 152 2 192 0 249 0 "/><path d="M249 119 224 239 222 241 219 243 218 243 214 239 210 233 207 227 198 204 196 198 194 185 194 171 195 166 196 163 203 147 204 145 214 128 217 124 231 113 235 110 249 103 249 119 "/></svg>