<svg width="256" height="256" xmlns="http://www.w3.org/2000/svg" fill-opacity="0" stroke="black" stroke-width="3" ><path d="M155 44 175 54 177 58 213 149 213 151 203 167 195 177 190 183 181 191 178 193 171 197 152 207 147 209 141 210 134 210 128 209 114 205 110 203 61 167 53 161 48 157 41 137 40 117 40 114 49 80 53 76 56 74 58 73 67 69 107 54 114 52 153 44 155 44 "/><path d="M40 180 44 181 47 182 53 185 86 205 101 216 103 218 108 224 110 229 111 234 111 249 0 249 0 203 6 195 9 192 17 187 33 180 40 180 "/><path d="M105 0 111 6 112 8 113 11 113 20 110 30 107 36 99 40 96 41 89 43 79 45 73 46 67 46 55 45 35 39 33 38 5 21 4 20 0 15 0 0 105 0 "/><path d="M249 44 249 161 246 160 233 148 228 143 224 134 222 129 202 78 201 75 201 74 212 61 219 53 220 52 227 46 238 42 244 41 249 44 "/><path d="M21 52 39 67 39 69 34 130 27 154 23 160 21 162 18 164 3 173 0 174 0 64 3 60 17 52 21 52 "/><path d="M227 175 234 177 237 179 240 186 242 192 246 237 246 241 239 249 200 249 173 227 173 226 174 224 178 218 209 178 212 176 218 175 227 175 "/><path d="M249 0 249 6 233 14 225 17 203 23 177 23 169 22 161 19 156 17 154 16 147 11 138 3 135 0 249 0 "/></svg>