<svg width="256" height="256" xmlns="http://www.w3.org/2000/svg" fill-opacity="0" stroke="black" stroke-width="3" ><path d="M140 49 144 50 167 56 176 60 195 78 197 81 198 83 200 88 204 100 208 113 208 132 207 140 206 145 202 159 201 162 200 164 196 170 195 171 188 177 167 191 160 195 148 199 133 201 121 201 116 200 112 199 101 195 100 194 51 139 50 126 50 124 53 105 55 97 57 90 60 84 63 79 70 70 73 67 80 61 84 58 91 54 94 53 99 52 114 50 136 49 140 49 "/><path d="M8 147 14 148 24 153 25 154 33 163 78 220 84 229 84 237 82 246 81 249 7 249 3 247 2 246 0 240 0 148 5 147 8 147 "/></svg>