<svg width="256" height="256" xmlns="http://www.w3.org/2000/svg" fill-opacity="0" stroke="black" stroke-width="3" ><path d="M124 49 152 55 171 67 174 69 188 83 206 108 206 124 204 145 202 153 190 171 171 194 154 203 150 204 124 204 119 203 85 186 75 179 74 178 72 175 65 164 57 144 56 136 55 126 55 123 57 107 61 95 65 87 68 82 77 70 80 67 85 63 92 59 94 58 117 50 123 49 124 49 "/><path d="M226 24 242 30 249 35 249 76 238 81 230 82 225 82 212 78 187 54 183 50 182 48 181 43 182 39 188 30 189 29 194 27 222 24 226 24 "/><path d="M223 198 230 201 235 206 244 217 244 222 242 227 240 230 235 236 231 237 229 237 213 233 206 223 205 221 204 214 205 211 207 207 218 199 222 198 223 198 "/></svg>