<svg width="256" height="256" xmlns="http://www.w3.org/2000/svg" fill-opacity="0" stroke="black" stroke-width="3" ><path d="M136 25 146 27 155 29 161 31 170 36 177 40 185 46 199 59 206 68 216 85 222 100 226 121 227 143 227 146 226 154 221 167 212 186 205 200 203 203 197 211 196 212 182 225 171 230 162 234 152 238 139 240 130 241 121 241 114 240 84 232 79 230 77 229 56 214 54 212 47 204 36 190 31 182 26 169 26 167 31 100 33 93 35 87 37 83 41 76 46 69 66 49 72 44 85 34 90 32 93 31 108 27 125 25 136 25 "/><path d="M72 0 72 11 71 30 69 34 42 61 28 68 1 61 0 60 0 0 72 0 "/><path d="M9 103 15 109 21 117 22 121 22 136 21 140 20 142 16 149 11 154 6 158 3 159 0 159 0 100 9 103 "/></svg>