<svg width="256" height="256" xmlns="http://www.w3.org/2000/svg" fill-opacity="0" stroke="black" stroke-width="3" ><path d="M103 28 116 29 123 31 180 75 185 79 193 86 195 90 198 98 198 111 196 131 194 136 193 138 188 147 184 152 176 160 165 168 161 170 143 176 123 180 109 180 95 177 77 170 71 167 65 162 55 153 53 151 32 106 32 90 34 80 38 68 39 66 42 61 47 54 50 50 53 47 65 38 68 36 70 35 76 33 90 29 102 28 103 28 "/><path d="M242 106 249 107 249 217 247 218 235 216 224 214 218 212 206 204 202 201 200 198 199 196 196 189 213 124 222 106 225 104 242 106 "/><path d="M194 0 249 19 249 90 225 101 219 102 217 102 214 101 211 99 151 3 150 1 150 0 194 0 "/></svg>