<svg width="256" height="256" xmlns="http://www.w3.org/2000/svg" fill-opacity="0" stroke="black" stroke-width="3" ><path d="M126 39 131 40 140 43 142 44 190 70 195 75 207 126 204 172 203 174 201 177 193 187 184 198 181 201 174 206 168 210 149 217 136 220 127 221 114 221 102 218 92 212 81 204 80 203 52 161 48 150 48 127 49 121 54 95 57 83 59 77 63 66 66 61 72 55 79 49 82 47 89 43 102 39 126 39 "/><path d="M249 0 249 36 239 43 237 44 221 50 206 54 197 54 191 53 185 51 173 46 159 38 156 36 144 27 141 24 133 14 128 4 127 1 127 0 249 0 "/><path d="M3 154 10 160 11 161 24 177 28 183 32 197 34 207 35 245 35 246 33 249 0 249 0 153 3 154 "/><path d="M40 59 41 60 42 62 42 63 37 107 32 117 25 124 12 130 1 130 0 129 0 67 23 52 40 59 "/></svg>