<svg width="256" height="256" xmlns="http://www.w3.org/2000/svg" fill-opacity="0" stroke="black" stroke-width="3" ><path d="M164 42 174 43 189 47 207 53 219 61 221 64 223 68 229 82 231 96 231 121 229 146 226 156 225 159 224 161 183 202 169 208 163 210 153 212 136 212 120 210 93 202 79 192 78 191 58 170 54 163 50 153 49 149 48 144 42 102 42 99 71 69 90 54 99 48 101 47 116 45 124 44 134 43 159 42 164 42 "/><path d="M62 0 66 2 74 10 79 25 81 33 82 38 81 42 80 44 67 60 54 74 53 75 47 78 33 80 9 80 2 75 0 73 0 0 62 0 "/><path d="M195 0 195 2 183 15 169 26 162 31 155 34 129 35 126 35 98 24 87 4 87 2 88 1 93 0 195 0 "/></svg>