<svg width="256" height="256" xmlns="http://www.w3.org/2000/svg" fill-opacity="0" stroke="black" stroke-width="3" ><path d="M203 0 218 3 226 5 231 8 243 19 245 21 247 25 249 76 249 123 246 131 236 143 231 148 211 160 200 166 185 170 184 170 172 169 152 166 141 164 123 159 121 158 109 148 91 130 79 114 73 102 71 96 70 92 67 79 67 59 68 55 77 36 93 12 98 7 105 3 115 0 203 0 "/><path d="M3 199 13 200 49 212 59 223 60 225 60 228 58 231 56 233 50 237 44 238 41 238 36 237 28 235 23 233 0 221 0 199 3 199 "/><path d="M72 179 78 183 80 185 82 188 83 190 84 193 84 206 83 208 80 211 74 214 70 215 63 215 58 211 53 206 50 202 49 198 55 188 56 187 63 181 68 179 72 179 "/><path d="M22 151 26 154 30 163 30 166 29 169 12 188 11 189 0 183 0 163 9 155 12 153 19 151 22 151 "/></svg>