<svg width="256" height="256" xmlns="http://www.w3.org/2000/svg" fill-opacity="0" stroke="black" stroke-width="3" ><path d="M87 51 154 53 218 76 220 77 225 84 239 125 239 126 169 242 168 243 158 249 150 249 148 247 74 157 72 154 60 121 58 111 58 107 68 80 72 71 73 69 83 54 86 51 87 51 "/><path d="M5 107 14 111 41 126 43 128 56 144 59 153 59 155 58 178 56 181 53 185 0 234 0 107 5 107 "/><path d="M20 31 24 51 24 59 23 67 15 81 12 82 6 82 1 80 0 78 0 51 3 46 15 33 18 31 20 31 "/><path d="M20 0 22 2 23 6 23 11 19 23 3 41 2 42 0 43 0 0 20 0 "/></svg>