<svg width="256" height="256" xmlns="http://www.w3.org/2000/svg" fill-opacity="0" stroke="black" stroke-width="3" ><path d="M175 20 188 22 196 25 202 29 207 33 215 41 219 49 220 53 221 60 221 66 220 71 206 101 205 103 184 131 163 153 108 182 102 182 91 179 61 157 60 156 41 77 41 75 43 73 57 62 93 34 95 33 112 27 125 24 130 23 136 22 151 21 167 20 175 20 "/><path d="M249 249 227 249 221 204 221 203 222 157 233 136 234 135 246 126 249 124 249 249 "/><path d="M183 223 187 224 195 230 204 239 208 244 210 249 124 249 127 243 129 241 144 229 157 225 174 223 183 223 "/><path d="M249 0 249 42 247 41 240 33 234 24 232 13 232 6 235 1 236 0 249 0 "/></svg>