<svg width="256" height="256" xmlns="http://www.w3.org/2000/svg" fill-opacity="0" stroke="black" stroke-width="3" ><path d="M128 60 144 62 151 64 155 66 162 70 172 76 184 90 192 103 196 112 200 123 200 148 188 175 181 183 177 187 155 205 134 213 128 215 113 216 108 216 105 215 91 209 71 199 61 193 49 178 47 173 39 149 39 148 40 130 41 127 53 102 67 86 72 81 79 76 85 72 89 70 112 61 117 60 128 60 "/><path d="M131 0 134 7 134 8 118 29 114 34 109 37 53 57 30 52 30 50 35 21 36 19 37 18 56 1 66 0 131 0 "/><path d="M178 235 183 236 195 240 197 242 202 249 136 249 137 248 149 238 157 235 178 235 "/></svg>