<svg width="256" height="256" xmlns="http://www.w3.org/2000/svg" fill-opacity="0" stroke="black" stroke-width="3" ><path d="M140 56 145 58 154 62 167 70 170 72 172 74 190 111 192 116 193 119 194 125 195 139 195 141 192 158 189 167 188 169 186 172 172 191 163 197 148 205 116 213 111 213 91 209 73 200 70 198 57 186 56 185 48 175 43 167 37 141 35 112 35 110 38 102 39 100 45 89 54 73 55 72 74 56 104 51 122 50 140 56 "/><path d="M243 33 249 34 249 123 246 124 242 124 226 122 223 121 195 87 192 77 206 46 213 39 234 32 243 33 "/><path d="M99 0 171 44 177 48 178 49 178 53 173 55 0 34 0 0 99 0 "/><path d="M210 194 215 199 229 215 236 224 237 227 239 234 239 235 233 242 232 243 227 245 222 246 200 249 173 249 175 240 206 195 207 194 210 194 "/><path d="M33 218 42 224 44 226 48 231 50 240 50 249 0 249 0 246 7 224 11 222 32 218 33 218 "/></svg>