<svg width="256" height="256" xmlns="http://www.w3.org/2000/svg" fill-opacity="0" stroke="black" stroke-width="3" ><path d="M128 7 153 11 155 12 156 13 166 26 184 66 190 92 193 127 193 135 190 149 189 152 186 160 182 169 176 182 174 186 159 207 148 214 132 224 124 226 120 226 115 224 100 217 98 216 64 197 61 195 41 177 33 168 32 166 27 152 21 130 21 111 22 105 23 102 25 97 29 89 33 82 36 79 109 19 127 7 128 7 "/><path d="M249 186 236 180 234 178 231 172 226 159 219 129 212 94 215 78 249 44 249 186 "/><path d="M249 219 249 249 190 249 199 237 205 231 208 229 220 225 248 219 249 219 "/></svg>