<svg width="256" height="256" xmlns="http://www.w3.org/2000/svg" fill-opacity="0" stroke="black" stroke-width="3" ><path d="M134 73 164 75 181 81 212 97 213 98 218 110 218 128 216 137 215 138 165 180 149 185 128 184 115 173 106 164 101 142 101 123 127 76 129 74 133 73 134 73 "/><path d="M235 163 239 165 240 166 249 186 249 217 238 228 225 238 220 241 210 246 196 249 184 249 171 245 166 242 159 237 158 235 152 222 151 214 152 212 199 176 213 167 215 166 218 165 232 163 235 163 "/><path d="M25 69 36 71 46 77 51 82 53 86 55 91 57 99 58 104 57 125 56 127 48 138 45 142 39 146 37 147 32 147 26 146 21 145 8 142 0 136 0 84 2 81 6 76 14 71 18 70 24 69 25 69 "/><path d="M114 16 121 18 124 19 130 22 134 26 140 38 141 45 141 48 140 56 139 58 129 70 127 72 113 80 106 80 101 78 92 73 86 67 83 60 82 55 82 51 84 42 86 37 91 27 109 17 112 16 114 16 "/><path d="M27 0 39 3 42 6 44 9 39 19 21 22 17 22 4 17 0 15 0 0 27 0 "/></svg>