<svg width="256" height="256" xmlns="http://www.w3.org/2000/svg" fill-opacity="0" stroke="black" stroke-width="3" ><path d="M128 51 142 55 147 57 149 58 168 71 170 73 191 104 192 107 196 127 196 135 194 153 192 159 170 184 168 186 166 187 156 190 136 195 125 192 122 191 100 178 59 142 57 139 55 135 47 111 45 100 45 98 46 96 54 83 57 79 65 71 86 59 100 54 104 53 123 51 128 51 "/><path d="M249 0 249 119 248 119 238 117 229 114 225 112 219 108 211 101 162 40 158 34 151 16 151 11 153 3 154 0 249 0 "/><path d="M16 125 69 162 87 179 91 183 99 197 107 213 106 229 103 249 0 249 0 119 16 125 "/><path d="M167 211 186 235 186 243 184 249 120 249 121 244 127 237 138 226 144 222 157 215 166 211 167 211 "/><path d="M29 0 29 7 28 12 26 17 6 57 2 61 0 61 0 0 29 0 "/></svg>