<svg width="256" height="256" xmlns="http://www.w3.org/2000/svg" fill-opacity="0" stroke="black" stroke-width="3" ><path d="M132 43 144 47 156 53 182 70 187 75 192 85 194 90 200 108 202 116 202 137 198 143 154 193 144 203 140 205 139 205 118 203 57 179 54 177 49 172 49 166 51 128 59 103 61 99 86 63 89 60 93 57 106 49 110 47 115 45 123 43 132 43 "/><path d="M79 0 83 15 86 46 86 48 84 50 73 56 48 68 42 69 26 71 16 71 10 70 1 68 0 67 0 0 79 0 "/><path d="M235 0 235 2 234 6 215 45 208 52 203 56 196 57 188 57 183 56 175 53 173 52 163 46 155 41 146 32 144 29 141 23 141 7 144 0 235 0 "/></svg>