<svg width="256" height="256" xmlns="http://www.w3.org/2000/svg" fill-opacity="0" stroke="black" stroke-width="3" ><path d="M156 0 191 8 195 9 198 10 217 24 220 27 239 52 239 53 238 57 153 177 144 187 140 190 135 193 119 202 115 204 114 204 99 203 96 197 73 125 73 124 74 74 76 34 81 16 90 12 140 0 156 0 "/><path d="M231 148 234 150 240 156 245 162 246 164 249 177 249 197 248 218 232 223 221 219 212 215 197 205 187 196 185 194 179 187 179 184 180 183 193 173 223 150 226 148 231 148 "/><path d="M178 200 210 226 212 228 213 230 212 232 211 233 195 233 185 227 180 222 175 214 174 212 170 202 170 198 174 197 178 200 "/></svg>