<svg width="256" height="256" xmlns="http://www.w3.org/2000/svg" fill-opacity="0" stroke="black" stroke-width="3" ><path d="M130 47 137 48 140 49 163 65 166 68 168 71 169 73 172 83 171 96 149 216 148 219 143 228 140 232 136 236 131 240 127 243 122 246 115 249 74 249 62 246 56 242 55 241 27 208 22 198 20 193 18 184 22 141 24 132 28 125 35 117 41 111 95 59 100 55 110 50 117 47 130 47 "/><path d="M224 0 225 4 226 10 226 23 215 75 193 73 187 72 170 64 156 57 150 53 149 52 135 34 134 32 132 27 130 15 130 9 131 0 224 0 "/><path d="M249 224 249 249 214 249 214 234 217 231 219 230 248 224 249 224 "/></svg>