<svg width="256" height="256" xmlns="http://www.w3.org/2000/svg" fill-opacity="0" stroke="black" stroke-width="3" ><path d="M133 34 139 35 154 38 160 40 176 48 185 55 200 70 204 75 207 79 210 84 211 86 217 100 218 103 220 111 222 123 223 130 223 137 222 143 219 151 217 156 208 174 206 177 201 184 192 195 189 198 184 202 174 209 162 215 153 219 149 220 134 223 123 223 118 222 110 220 104 218 98 215 84 207 77 202 68 194 57 182 53 177 49 171 44 163 42 159 39 152 37 146 35 139 34 122 34 120 35 112 38 98 44 80 45 78 51 70 55 65 60 60 67 54 78 47 96 38 99 37 107 35 118 34 133 34 "/></svg>