<svg width="256" height="256" xmlns="http://www.w3.org/2000/svg" fill-opacity="0" stroke="black" stroke-width="3" ><path d="M199 77 200 78 206 87 209 94 209 112 207 122 151 186 149 188 111 200 98 194 77 174 76 173 59 151 57 147 53 127 44 76 45 74 62 62 92 51 199 77 "/><path d="M75 0 75 3 69 33 68 37 63 43 61 45 41 55 38 55 23 54 15 53 8 50 0 45 0 0 75 0 "/><path d="M220 170 232 177 236 181 241 187 244 199 244 204 243 209 242 213 240 219 234 227 231 230 228 232 226 233 214 237 211 237 207 236 204 235 195 231 193 230 189 227 177 213 175 208 175 196 183 183 186 180 198 172 202 170 220 170 "/><path d="M2 151 9 154 11 155 19 162 23 166 26 170 30 176 31 178 40 200 40 203 39 222 32 236 30 237 12 245 8 245 0 239 0 151 2 151 "/><path d="M177 0 158 36 155 39 141 39 109 29 106 25 105 20 105 11 107 5 108 3 113 0 177 0 "/></svg>