<svg width="256" height="256" xmlns="http://www.w3.org/2000/svg" fill-opacity="0" stroke="black" stroke-width="3" ><path d="M113 60 128 63 133 65 143 70 152 75 159 80 165 86 170 92 181 117 183 122 184 125 185 129 186 135 182 156 180 160 175 166 172 169 169 171 164 173 141 182 131 185 120 188 113 189 104 189 89 184 84 182 82 181 75 174 71 169 43 131 41 119 40 112 40 110 57 78 60 75 82 65 111 60 113 60 "/><path d="M187 175 241 182 245 184 247 186 249 192 249 249 82 249 81 248 81 246 85 224 93 208 96 206 114 197 185 175 187 175 "/><path d="M175 47 178 48 185 53 189 57 195 70 187 85 183 85 174 83 138 57 138 54 139 52 140 51 142 50 147 48 163 44 175 47 "/></svg>