<svg width="256" height="256" xmlns="http://www.w3.org/2000/svg" fill-opacity="0" stroke="black" stroke-width="3" ><path d="M159 52 177 67 183 73 185 76 189 83 193 91 195 96 197 108 197 121 196 129 195 135 192 145 186 159 171 189 169 191 161 196 140 207 133 210 124 211 113 212 111 212 102 211 99 210 94 208 92 207 63 190 62 189 50 151 48 129 48 112 50 107 52 103 59 91 94 64 113 55 140 52 159 52 "/><path d="M221 191 225 192 234 195 249 202 249 214 193 245 187 248 177 249 134 249 132 248 128 244 126 232 126 231 190 191 199 189 221 191 "/></svg>