<svg width="256" height="256" xmlns="http://www.w3.org/2000/svg" fill-opacity="0" stroke="black" stroke-width="3" ><path d="M128 60 147 65 154 68 188 92 196 120 198 129 198 133 197 143 194 151 184 161 180 164 155 179 115 202 100 200 88 198 48 164 41 157 38 152 37 150 37 145 39 135 41 130 76 82 85 71 87 69 101 62 107 60 128 60 "/><path d="M15 2 29 11 64 38 72 46 76 64 76 77 67 91 55 109 42 123 36 125 24 125 22 124 2 113 0 111 0 3 1 2 4 1 15 2 "/><path d="M180 197 184 198 187 199 227 220 229 222 233 227 235 230 237 234 238 238 239 245 239 249 195 249 171 233 170 232 163 224 160 218 160 208 162 203 163 202 171 198 175 197 180 197 "/><path d="M95 203 110 211 111 224 107 245 106 249 65 249 60 247 59 246 57 242 57 233 59 227 69 208 74 203 78 200 83 197 95 203 "/><path d="M3 201 28 217 55 248 55 249 0 249 0 202 1 201 3 201 "/><path d="M157 221 165 233 165 249 128 249 128 238 129 236 133 229 135 226 138 223 140 222 146 221 157 221 "/></svg>