<svg width="256" height="256" xmlns="http://www.w3.org/2000/svg" fill-opacity="0" stroke="black" stroke-width="3" ><path d="M147 63 153 65 157 67 172 78 176 82 184 97 186 105 186 111 185 126 183 136 182 139 178 146 175 150 168 157 159 162 130 178 112 187 107 188 101 188 85 186 82 185 80 184 73 179 69 176 63 170 57 160 53 150 51 141 51 133 53 127 59 117 70 99 73 95 75 93 135 62 147 63 "/><path d="M201 12 211 14 214 16 215 17 217 20 221 27 223 32 223 47 222 52 218 64 217 65 209 71 206 72 200 73 193 73 190 72 188 71 185 69 173 56 169 48 168 45 168 43 169 35 171 31 185 19 190 15 197 12 201 12 "/><path d="M57 23 62 25 64 26 65 27 68 31 69 34 69 39 68 41 66 43 59 47 56 48 9 56 0 57 0 30 2 29 48 23 57 23 "/><path d="M249 159 244 157 242 156 240 154 235 148 234 146 232 140 228 122 228 119 229 109 231 104 232 102 243 83 249 76 249 159 "/><path d="M26 94 28 96 29 98 29 102 27 106 24 110 18 116 14 118 11 119 4 121 0 121 0 101 22 94 26 94 "/></svg>