<svg width="256" height="256" xmlns="http://www.w3.org/2000/svg" fill-opacity="0" stroke="black" stroke-width="3" ><path d="M127 58 143 60 172 71 178 76 185 82 191 91 196 107 197 112 198 139 198 141 194 161 189 171 186 175 180 179 172 183 158 188 121 193 113 194 75 194 72 193 59 186 53 177 51 172 43 144 42 133 42 131 44 121 48 106 55 98 64 88 66 86 88 68 94 65 120 58 127 58 "/><path d="M233 15 236 17 244 25 246 28 249 43 249 55 247 62 244 66 242 68 237 71 231 73 226 74 219 74 212 72 209 71 205 69 203 67 200 63 196 57 194 48 194 41 195 36 196 33 202 24 203 23 206 21 211 18 216 16 219 15 233 15 "/><path d="M168 220 172 221 178 224 188 233 190 235 199 247 199 249 120 249 123 236 124 234 127 230 128 229 133 226 157 221 162 220 168 220 "/><path d="M235 209 238 210 242 212 246 215 249 219 249 249 203 249 201 247 200 243 200 242 206 225 209 221 211 219 217 214 220 212 229 209 235 209 "/></svg>