<svg width="256" height="256" xmlns="http://www.w3.org/2000/svg" fill-opacity="0" stroke="black" stroke-width="3" ><path d="M96 67 169 73 177 75 186 79 192 85 199 96 203 105 210 129 211 134 211 137 209 150 203 172 197 189 193 197 185 207 145 242 141 244 140 244 136 241 78 189 77 188 64 174 56 163 54 160 52 154 49 143 49 138 52 111 57 97 58 95 68 85 86 69 94 67 96 67 "/><path d="M2 137 5 138 16 142 83 201 84 202 101 225 105 231 112 247 112 249 0 249 0 137 2 137 "/><path d="M237 0 235 7 222 25 211 34 202 40 185 46 166 47 160 47 118 44 112 42 93 30 92 29 84 17 83 15 83 14 86 11 92 6 132 0 237 0 "/></svg>