<svg width="256" height="256" xmlns="http://www.w3.org/2000/svg" fill-opacity="0" stroke="black" stroke-width="3" ><path d="M134 23 142 27 158 36 171 47 179 54 189 64 225 102 226 106 229 125 229 138 227 143 222 153 216 164 208 178 205 182 204 183 175 207 170 209 126 223 114 224 97 222 81 219 76 217 71 213 60 204 41 188 37 184 34 180 18 156 16 143 15 120 15 108 21 86 27 70 29 65 39 55 42 53 123 23 127 22 134 23 "/><path d="M249 0 249 82 243 82 231 80 213 71 208 67 201 58 197 50 188 31 192 20 198 9 206 0 249 0 "/><path d="M6 170 11 173 37 199 38 201 43 215 44 227 44 230 41 242 39 249 0 249 0 170 6 170 "/><path d="M110 0 110 4 107 7 93 19 79 24 77 24 74 21 63 5 67 3 75 0 110 0 "/><path d="M1 44 13 61 14 63 15 68 15 74 13 96 11 100 2 107 0 108 0 43 1 44 "/><path d="M57 0 59 6 59 13 52 19 36 22 30 15 28 11 28 6 29 0 57 0 "/></svg>