<svg width="256" height="256" xmlns="http://www.w3.org/2000/svg" fill-opacity="0" stroke="black" stroke-width="3" ><path d="M136 53 158 56 167 59 175 64 186 74 193 81 200 92 201 94 206 106 207 113 207 126 201 151 194 165 191 170 184 177 165 193 160 195 149 198 145 199 130 202 123 202 110 201 103 199 84 191 82 190 71 180 55 164 53 158 43 127 41 119 41 111 42 106 44 102 50 96 53 94 103 62 105 61 112 58 125 53 136 53 "/><path d="M249 206 246 206 241 205 226 199 223 197 222 196 220 191 210 161 210 160 212 156 224 142 231 135 238 132 249 128 249 206 "/><path d="M134 0 136 4 136 6 134 12 131 17 129 20 120 29 116 31 113 32 97 32 87 28 81 25 75 21 72 17 71 15 69 9 69 0 134 0 "/><path d="M106 220 109 221 121 230 135 242 140 247 141 249 78 249 79 239 81 233 83 229 84 228 87 226 91 224 96 222 103 220 106 220 "/></svg>