<svg width="256" height="256" xmlns="http://www.w3.org/2000/svg" fill-opacity="0" stroke="black" stroke-width="3" ><path d="M119 52 134 53 158 61 173 67 226 128 231 134 241 150 246 177 246 185 232 202 146 218 123 215 118 213 103 205 55 165 54 164 53 160 51 150 51 148 52 129 58 108 62 98 63 96 66 92 67 91 116 53 118 52 119 52 "/><path d="M181 213 209 218 217 220 224 225 234 235 242 246 242 249 146 249 145 246 146 244 150 239 158 230 177 214 179 213 181 213 "/><path d="M129 224 141 228 143 231 143 233 142 243 141 249 106 249 106 246 108 243 118 231 120 229 126 224 129 224 "/></svg>