<svg width="256" height="256" xmlns="http://www.w3.org/2000/svg" fill-opacity="0" stroke="black" stroke-width="3" ><path d="M98 47 119 49 182 56 204 77 210 84 213 88 228 114 236 131 236 151 234 160 233 163 228 174 222 186 219 190 207 204 206 205 183 217 181 218 166 225 163 226 156 228 142 229 110 231 100 230 87 226 74 221 50 208 47 205 17 169 12 162 10 158 0 124 0 104 2 100 32 71 53 60 80 48 84 47 98 47 "/><path d="M20 197 24 199 36 206 52 222 54 230 56 248 56 249 0 249 0 188 20 197 "/><path d="M249 246 242 247 241 247 239 246 237 244 233 238 231 233 229 225 229 217 233 205 234 203 243 193 249 187 249 246 "/></svg>