<svg width="256" height="256" xmlns="http://www.w3.org/2000/svg" fill-opacity="0" stroke="black" stroke-width="3" ><path d="M149 40 170 45 173 46 181 51 203 65 206 68 211 88 212 96 213 111 213 122 211 142 207 154 205 158 202 163 177 188 169 192 157 196 149 198 133 198 101 194 88 188 78 182 71 177 69 175 63 166 60 152 59 137 59 136 62 114 64 105 71 88 79 78 88 67 96 59 119 43 122 41 125 40 149 40 "/><path d="M1 85 5 87 12 92 23 103 29 111 34 121 39 133 40 137 41 142 39 155 38 160 37 162 33 168 31 170 25 174 18 176 10 178 0 178 0 85 1 85 "/><path d="M217 210 249 214 249 249 167 249 167 242 176 228 180 224 190 215 198 211 216 210 217 210 "/></svg>