<svg width="256" height="256" xmlns="http://www.w3.org/2000/svg" fill-opacity="0" stroke="black" stroke-width="3" ><path d="M175 42 188 50 189 51 196 59 200 65 212 84 212 95 211 105 206 152 200 171 199 173 190 185 187 188 165 204 158 209 156 210 150 211 129 212 102 210 77 204 65 196 57 187 55 184 47 169 34 140 45 99 55 74 57 70 59 67 74 49 76 47 78 46 102 44 173 42 175 42 "/><path d="M106 220 119 223 123 224 126 225 128 226 134 230 136 232 140 237 142 240 144 246 144 249 122 249 88 242 81 234 89 220 106 220 "/></svg>