<svg width="256" height="256" xmlns="http://www.w3.org/2000/svg" fill-opacity="0" stroke="black" stroke-width="3" ><path d="M154 48 157 49 173 60 183 71 186 77 208 153 208 154 206 172 205 174 202 179 195 188 194 189 166 201 156 205 143 209 133 207 9 162 7 160 0 149 0 54 2 53 149 48 154 48 "/><path d="M249 0 249 48 245 52 242 54 234 58 225 61 220 62 215 62 210 61 206 60 198 57 189 48 182 39 178 31 177 19 177 17 178 13 179 10 184 0 249 0 "/><path d="M194 209 206 214 221 234 223 237 224 239 225 242 227 249 173 249 161 243 160 241 159 235 165 222 166 221 174 214 176 213 179 212 190 209 194 209 "/><path d="M249 96 249 167 242 165 241 164 228 149 227 147 225 142 224 139 223 131 223 120 224 116 225 114 229 108 244 97 246 96 249 96 "/></svg>