<svg width="256" height="256" xmlns="http://www.w3.org/2000/svg" fill-opacity="0" stroke="black" stroke-width="3" ><path d="M149 91 150 93 156 110 168 185 168 186 166 191 164 195 135 212 131 214 64 221 58 221 55 218 85 99 86 97 107 78 127 66 149 91 "/><path d="M248 182 249 183 249 249 188 249 186 247 182 238 180 233 177 224 174 210 172 196 172 193 174 191 185 185 247 182 248 182 "/><path d="M165 85 194 98 201 105 201 112 199 116 178 123 165 123 164 121 162 115 156 88 156 85 157 83 165 85 "/><path d="M89 45 95 50 100 56 101 76 82 99 76 105 75 105 72 97 77 53 86 43 89 45 "/></svg>