<svg width="256" height="256" xmlns="http://www.w3.org/2000/svg" fill-opacity="0" stroke="black" stroke-width="3" ><path d="M127 20 137 23 145 26 155 30 175 45 177 47 185 63 187 68 190 81 190 113 187 122 183 131 166 146 119 180 106 188 100 190 90 191 88 191 83 190 70 186 65 183 61 180 52 172 46 162 38 148 29 127 28 122 28 93 32 74 34 70 48 46 49 45 73 29 91 20 94 19 107 17 127 20 "/><path d="M27 197 37 200 43 203 59 215 60 216 62 220 64 225 64 227 62 239 61 243 60 245 58 248 57 249 0 249 0 207 2 204 7 199 12 197 17 196 27 197 "/><path d="M249 0 249 41 247 42 241 44 237 45 233 45 225 44 219 42 215 40 210 37 202 29 200 25 198 9 199 6 202 0 249 0 "/><path d="M62 0 62 1 57 11 55 13 48 17 41 20 35 20 26 18 20 16 13 10 10 6 8 3 8 0 62 0 "/></svg>