<svg width="256" height="256" xmlns="http://www.w3.org/2000/svg" fill-opacity="0" stroke="black" stroke-width="3" ><path d="M125 42 147 44 153 45 158 46 161 47 172 53 187 63 191 66 197 72 204 80 219 99 227 125 227 128 222 203 201 224 195 228 190 229 184 230 164 230 139 224 66 166 64 162 50 131 56 113 58 108 67 89 80 68 91 54 95 51 103 46 117 42 125 42 "/><path d="M8 116 24 124 29 128 30 129 33 135 34 140 33 143 30 151 27 155 25 157 17 159 3 159 0 145 0 116 8 116 "/><path d="M249 249 189 249 244 190 249 188 249 249 "/></svg>