<svg width="256" height="256" xmlns="http://www.w3.org/2000/svg" fill-opacity="0" stroke="black" stroke-width="3" ><path d="M71 41 155 48 167 50 179 55 181 57 189 67 192 73 199 93 202 102 203 107 206 129 206 146 202 170 201 174 198 182 197 184 194 189 190 195 186 200 176 210 170 215 166 217 155 222 113 240 107 242 101 243 98 243 83 242 77 241 73 240 64 237 60 235 49 229 36 221 31 217 27 212 0 147 0 116 5 96 11 84 18 73 22 67 30 59 36 54 41 51 45 49 60 43 66 41 71 41 "/><path d="M249 0 249 69 248 69 233 60 231 56 227 40 224 8 224 7 225 1 233 0 249 0 "/><path d="M150 0 148 8 145 14 138 23 136 25 126 29 120 31 115 32 112 32 104 28 101 26 95 20 90 10 88 0 150 0 "/><path d="M249 218 249 223 232 249 190 249 194 243 196 241 209 233 215 230 220 228 228 225 248 218 249 218 "/></svg>