<svg width="256" height="256" xmlns="http://www.w3.org/2000/svg" fill-opacity="0" stroke="black" stroke-width="3" ><path d="M155 23 166 27 180 34 187 38 193 42 199 48 207 58 210 62 212 65 218 75 225 88 228 101 229 107 229 116 228 127 226 134 223 143 221 148 219 152 215 159 211 164 200 175 193 181 188 185 185 187 174 193 106 214 105 214 87 209 29 184 23 177 20 173 16 165 14 158 14 146 16 136 20 123 22 119 45 75 51 65 60 54 77 36 89 30 97 28 120 25 136 23 155 23 "/><path d="M25 199 33 200 46 204 53 208 56 210 61 214 62 215 64 218 67 224 68 227 68 235 54 249 0 249 0 200 10 199 25 199 "/><path d="M166 212 178 214 190 221 191 222 195 227 201 239 205 248 205 249 116 249 115 244 117 239 119 237 141 216 146 213 157 212 166 212 "/></svg>