<svg width="256" height="256" xmlns="http://www.w3.org/2000/svg" fill-opacity="0" stroke="black" stroke-width="3" ><path d="M105 0 196 57 212 68 220 75 233 87 249 102 249 113 222 135 150 181 143 185 125 190 111 191 2 179 0 178 0 0 105 0 "/><path d="M91 211 104 212 110 215 113 218 120 228 122 231 125 237 125 249 60 249 60 237 61 232 62 229 76 218 81 215 90 211 91 211 "/><path d="M249 20 249 81 248 81 243 78 239 75 237 73 235 70 232 65 231 63 229 58 228 51 228 47 233 36 238 26 248 20 249 20 "/></svg>