<svg width="256" height="256" xmlns="http://www.w3.org/2000/svg" fill-opacity="0" stroke="black" stroke-width="3" ><path d="M139 25 154 27 157 28 170 33 177 37 184 42 193 51 201 65 202 67 209 83 211 89 218 111 217 124 213 139 212 142 203 165 196 177 184 192 166 209 156 214 137 220 111 224 90 224 78 221 75 220 60 212 51 206 49 204 37 185 36 183 35 180 30 155 29 148 29 146 30 143 32 138 35 132 58 94 67 80 89 47 91 45 98 39 106 33 114 28 117 27 127 25 139 25 "/><path d="M249 0 249 61 233 64 226 64 221 62 195 37 194 36 173 11 173 8 174 7 179 3 189 0 249 0 "/><path d="M20 5 39 11 42 13 47 17 53 26 53 27 50 48 46 60 22 95 9 113 8 114 3 118 1 117 0 116 0 9 1 8 5 6 16 5 20 5 "/><path d="M193 213 195 214 199 219 200 221 200 223 196 237 184 249 174 249 153 234 153 233 154 231 155 230 183 216 190 213 193 213 "/></svg>