<svg width="256" height="256" xmlns="http://www.w3.org/2000/svg" fill-opacity="0" stroke="black" stroke-width="3" ><path d="M249 13 249 173 246 179 245 180 212 187 210 187 206 185 180 165 168 154 166 142 166 140 168 118 169 115 172 109 231 21 233 19 237 16 242 13 245 12 249 13 "/><path d="M179 0 180 2 183 12 182 25 179 34 162 60 156 64 131 69 121 69 107 67 94 61 93 60 81 47 78 23 84 0 179 0 "/><path d="M111 162 126 171 134 176 143 191 143 195 141 210 138 221 136 228 128 236 111 244 95 244 89 242 84 233 80 223 70 194 67 185 67 181 68 177 71 174 110 162 111 162 "/><path d="M35 181 44 182 47 183 72 211 75 218 80 230 81 236 81 237 79 248 73 249 0 249 0 211 3 206 10 195 11 194 34 181 35 181 "/><path d="M10 44 25 50 29 53 30 54 39 65 49 83 49 86 46 98 23 143 19 150 17 152 9 152 2 150 0 149 0 45 8 44 10 44 "/><path d="M82 116 88 117 91 119 99 129 102 136 103 143 101 152 100 155 96 159 94 160 84 164 71 166 68 166 62 164 59 162 52 155 48 147 48 141 52 131 54 128 61 120 65 118 69 117 74 116 82 116 "/><path d="M154 73 163 74 164 75 164 77 163 79 155 87 147 93 142 96 132 100 111 100 93 98 93 94 99 80 118 76 142 73 154 73 "/></svg>