<svg width="256" height="256" xmlns="http://www.w3.org/2000/svg" fill-opacity="0" stroke="black" stroke-width="3" ><path d="M213 156 211 172 207 180 205 183 202 186 81 236 78 236 62 234 38 184 37 181 52 111 73 69 88 45 89 44 99 39 109 37 123 35 136 35 140 36 156 43 158 44 167 50 178 59 188 69 191 75 206 118 207 121 211 140 213 156 "/><path d="M4 147 18 155 25 163 27 166 37 191 44 210 44 218 42 227 37 232 33 235 27 239 23 240 3 240 0 239 0 147 4 147 "/><path d="M247 96 249 97 249 134 245 162 242 165 236 162 224 146 220 138 220 128 222 100 224 98 241 96 247 96 "/><path d="M179 211 186 218 187 220 187 224 178 236 177 237 175 238 152 246 138 249 108 249 108 248 109 245 112 239 114 237 163 212 177 211 179 211 "/></svg>