<svg width="256" height="256" xmlns="http://www.w3.org/2000/svg" fill-opacity="0" stroke="black" stroke-width="3" ><path d="M117 43 122 45 129 48 131 50 145 65 150 74 153 81 158 99 159 104 160 113 148 148 142 161 139 166 134 172 102 198 94 198 89 197 75 192 59 184 52 179 38 165 30 156 24 147 22 140 22 86 24 82 32 72 35 70 55 59 67 53 74 51 82 49 108 43 117 43 "/><path d="M222 25 234 27 238 28 241 29 246 34 249 39 249 122 245 120 188 88 178 80 176 77 174 69 174 61 179 48 181 44 190 35 198 29 202 27 214 25 222 25 "/><path d="M217 153 226 155 233 157 242 160 244 161 246 163 249 167 249 202 211 229 200 236 198 236 187 234 182 232 180 231 170 222 166 218 165 216 164 213 162 202 162 198 164 193 165 191 182 167 188 161 191 159 197 157 210 153 217 153 "/><path d="M83 0 69 35 67 38 64 40 49 46 45 47 40 47 34 46 27 44 23 42 18 37 10 26 0 11 0 0 83 0 "/><path d="M1 198 8 202 13 207 17 215 19 220 23 233 24 238 24 243 23 249 0 249 0 198 1 198 "/></svg>