<svg width="256" height="256" xmlns="http://www.w3.org/2000/svg" fill-opacity="0" stroke="black" stroke-width="3" ><path d="M160 49 169 52 175 56 178 61 185 73 191 84 197 98 199 104 201 117 201 121 190 150 189 152 183 161 174 171 172 173 162 181 154 186 149 188 134 191 120 191 116 190 94 182 87 176 77 167 76 166 74 163 71 158 65 141 64 138 63 134 61 122 60 112 61 98 72 79 78 71 85 65 121 57 159 49 160 49 "/><path d="M245 0 247 1 249 3 249 85 247 87 243 89 231 94 221 94 206 85 204 83 194 71 188 60 186 56 185 53 185 52 186 39 188 33 190 29 206 4 207 3 212 0 245 0 "/><path d="M32 195 44 203 60 216 66 227 67 229 71 238 71 249 0 249 0 184 32 195 "/><path d="M42 44 46 49 46 51 33 161 30 178 25 178 11 175 0 167 0 49 5 47 10 46 41 43 42 44 "/><path d="M169 0 168 2 156 17 137 31 132 34 131 34 74 32 65 26 64 25 57 16 55 13 52 7 51 4 50 0 169 0 "/></svg>