<svg width="256" height="256" xmlns="http://www.w3.org/2000/svg" fill-opacity="0" stroke="black" stroke-width="3" ><path d="M74 0 103 7 104 8 115 24 115 25 107 35 101 42 44 89 39 93 30 94 28 94 20 88 8 74 0 60 0 11 4 0 74 0 "/><path d="M159 108 165 110 168 116 170 122 170 149 169 158 164 164 155 170 139 170 138 169 128 122 138 115 158 108 159 108 "/><path d="M94 88 114 96 116 99 114 111 105 121 103 123 98 126 77 123 76 104 76 102 77 100 83 89 85 88 89 87 94 88 "/><path d="M157 79 165 84 166 85 169 91 169 98 168 100 167 101 163 103 154 104 142 104 136 99 135 98 128 88 128 83 139 80 153 79 157 79 "/></svg>