<svg width="256" height="256" xmlns="http://www.w3.org/2000/svg" fill-opacity="0" stroke="black" stroke-width="3" ><path d="M157 34 166 38 177 45 182 49 183 50 191 59 195 64 197 67 206 83 249 206 249 249 0 249 0 184 49 73 51 70 56 64 69 49 71 47 73 46 110 30 137 27 157 34 "/><path d="M244 0 246 5 246 18 244 43 232 55 227 57 219 57 214 53 212 51 207 42 206 40 205 37 205 22 207 11 210 6 214 0 244 0 "/><path d="M5 47 8 49 18 56 19 57 26 68 27 70 28 76 29 86 28 95 26 101 18 123 8 135 6 137 3 137 0 135 0 47 5 47 "/></svg>