<svg width="256" height="256" xmlns="http://www.w3.org/2000/svg" fill-opacity="0" stroke="black" stroke-width="3" ><path d="M186 17 190 19 194 22 197 25 224 93 228 106 231 116 231 132 230 159 229 164 228 168 227 171 224 179 218 192 217 194 208 206 203 211 197 216 170 237 167 239 165 240 155 244 146 246 106 246 94 242 86 237 83 235 66 218 20 149 18 142 16 115 16 114 21 100 24 93 28 87 36 77 48 64 55 57 75 42 103 22 105 21 129 17 164 14 186 17 "/><path d="M98 0 98 1 97 15 96 18 92 24 85 31 81 34 74 38 58 46 46 51 45 51 35 50 24 48 7 35 1 26 0 24 0 15 3 10 8 3 12 0 98 0 "/></svg>