<svg width="256" height="256" xmlns="http://www.w3.org/2000/svg" fill-opacity="0" stroke="black" stroke-width="3" ><path d="M135 30 144 32 153 36 183 54 184 55 202 77 203 79 214 103 217 110 218 114 218 117 217 125 216 132 215 134 202 154 191 165 186 169 144 197 137 199 132 200 126 200 120 199 86 191 83 189 71 179 55 164 53 162 51 159 45 147 43 140 39 124 70 42 76 32 112 30 135 30 "/><path d="M249 136 249 249 173 249 171 242 165 219 165 200 171 194 219 147 228 139 230 138 247 136 249 136 "/><path d="M64 0 66 4 67 17 66 23 64 34 58 46 52 57 44 71 27 99 23 103 4 116 1 117 0 117 0 0 64 0 "/><path d="M249 19 249 113 246 112 243 110 241 108 234 94 229 81 228 57 228 54 231 38 232 33 235 28 241 22 245 19 249 19 "/><path d="M102 222 128 225 130 226 141 237 149 246 151 249 75 249 73 246 73 245 74 243 77 239 83 233 98 223 101 222 102 222 "/></svg>