<svg width="256" height="256" xmlns="http://www.w3.org/2000/svg" fill-opacity="0" stroke="black" stroke-width="3" ><path d="M132 56 146 57 156 58 166 63 174 69 177 72 181 77 205 108 203 116 198 126 193 135 182 148 178 152 141 184 50 196 49 196 41 193 41 186 59 121 69 99 70 97 73 93 81 84 83 82 99 68 109 61 116 58 119 57 131 56 132 56 "/><path d="M249 131 249 237 235 242 234 242 222 238 215 235 197 217 195 214 191 207 188 193 188 192 189 188 190 185 206 153 219 138 222 136 236 133 248 131 249 131 "/><path d="M249 0 249 122 246 121 205 103 203 102 198 97 197 95 194 88 189 45 189 44 190 33 192 21 197 11 205 0 249 0 "/><path d="M92 205 102 206 104 207 119 215 141 236 142 237 141 239 138 242 130 249 0 249 0 237 10 229 28 215 32 212 42 209 59 206 73 205 92 205 "/><path d="M1 84 10 90 22 102 32 122 33 127 33 134 32 164 31 173 29 180 20 193 2 213 0 212 0 84 1 84 "/></svg>