<svg width="256" height="256" xmlns="http://www.w3.org/2000/svg" fill-opacity="0" stroke="black" stroke-width="3" ><path d="M126 48 133 49 137 50 143 52 153 56 160 60 166 65 175 73 181 80 184 84 189 92 197 107 199 111 205 126 207 139 207 152 205 164 150 174 142 175 64 177 62 177 56 171 52 165 46 153 42 138 41 134 40 125 40 118 42 102 46 92 60 78 84 60 100 50 102 49 117 48 126 48 "/><path d="M50 17 62 23 63 25 66 36 65 43 57 57 51 63 47 65 29 67 26 67 23 65 13 57 12 56 10 53 9 51 8 45 9 40 10 37 14 30 18 26 22 23 30 19 46 17 50 17 "/></svg>