<svg width="256" height="256" xmlns="http://www.w3.org/2000/svg" fill-opacity="0" stroke="black" stroke-width="3" ><path d="M170 59 178 63 185 67 194 73 199 79 205 87 207 90 209 94 210 97 211 102 212 111 212 114 211 134 209 145 205 153 202 158 192 174 188 178 176 186 169 190 163 192 140 199 136 200 130 200 87 192 78 190 74 188 58 174 54 170 52 165 51 162 50 158 49 150 49 149 50 137 52 125 57 109 62 95 66 89 70 85 90 67 93 66 161 59 170 59 "/><path d="M186 0 181 9 172 19 171 20 157 28 153 29 140 29 132 23 130 20 130 18 132 6 137 1 139 0 186 0 "/><path d="M228 0 248 9 249 10 249 36 246 36 220 30 217 29 206 4 207 0 228 0 "/><path d="M110 239 127 243 139 249 60 249 65 246 67 245 72 243 96 239 110 239 "/></svg>