<svg width="256" height="256" xmlns="http://www.w3.org/2000/svg" fill-opacity="0" stroke="black" stroke-width="3" ><path d="M44 194 61 198 101 208 103 210 115 225 115 237 113 245 112 248 111 249 22 249 14 241 18 217 22 209 25 205 32 199 37 196 43 194 44 194 "/><path d="M61 0 65 6 72 18 74 25 75 43 75 47 73 50 66 56 58 61 30 65 19 66 18 66 8 63 7 62 3 51 0 42 0 0 61 0 "/><path d="M112 89 116 90 126 93 137 110 137 111 135 137 68 159 57 159 50 152 43 143 43 139 44 134 58 103 60 99 89 88 112 89 "/><path d="M246 0 241 16 240 19 234 31 228 37 216 45 213 45 208 43 206 42 186 30 156 6 150 0 246 0 "/><path d="M153 189 187 196 192 204 192 206 191 208 173 215 154 221 143 223 130 224 127 224 121 222 105 205 105 204 106 202 113 198 129 194 151 189 153 189 "/><path d="M206 82 208 83 209 84 219 102 224 112 225 115 225 121 224 123 213 134 212 134 192 117 192 111 193 102 200 80 206 82 "/></svg>