<svg width="256" height="256" xmlns="http://www.w3.org/2000/svg" fill-opacity="0" stroke="black" stroke-width="3" ><path d="M134 34 139 35 163 40 165 41 180 50 183 52 196 70 204 82 208 91 211 98 236 171 242 212 242 217 237 227 236 228 230 231 56 249 49 249 0 226 0 213 3 187 4 184 5 182 62 76 64 74 78 62 106 46 115 41 123 37 132 34 134 34 "/><path d="M249 0 249 77 244 81 242 81 216 69 203 58 201 56 186 36 183 31 181 22 181 13 185 0 249 0 "/><path d="M17 20 40 34 41 35 44 40 48 48 54 72 54 76 53 80 49 94 44 102 40 105 21 116 15 117 13 116 11 114 0 81 0 22 6 20 17 20 "/></svg>