<svg width="256" height="256" xmlns="http://www.w3.org/2000/svg" fill-opacity="0" stroke="black" stroke-width="3" ><path d="M140 13 159 19 163 21 166 23 174 29 179 34 187 45 187 140 184 146 176 156 174 158 159 166 136 172 126 172 120 171 106 166 98 158 73 131 65 121 59 107 57 95 57 82 63 69 73 51 77 45 80 42 88 35 103 23 107 20 113 17 124 13 140 13 "/><path d="M46 151 59 155 64 158 74 168 80 177 84 212 84 219 81 224 72 234 71 235 68 237 56 243 53 244 37 246 32 246 11 237 7 234 5 232 3 228 0 213 0 162 10 158 41 150 46 151 "/><path d="M44 0 55 4 56 6 52 20 51 23 30 68 28 70 25 72 22 73 15 75 0 56 0 34 1 14 6 9 32 0 44 0 "/></svg>