<svg width="256" height="256" xmlns="http://www.w3.org/2000/svg" fill-opacity="0" stroke="black" stroke-width="3" ><path d="M159 0 181 39 192 65 194 70 197 78 199 85 199 105 198 108 181 117 177 117 74 104 70 97 70 94 75 81 111 0 159 0 "/><path d="M9 33 12 35 14 37 22 46 29 54 32 58 33 60 35 69 35 71 34 74 33 76 29 81 26 84 5 104 1 105 0 105 0 29 9 33 "/><path d="M180 219 202 235 208 247 208 248 207 249 137 249 136 248 136 240 137 232 140 223 141 222 158 215 180 219 "/><path d="M243 158 248 159 249 160 249 246 247 246 234 228 232 225 224 196 223 186 223 185 227 171 228 169 234 161 236 159 239 158 243 158 "/></svg>