<svg width="256" height="256" xmlns="http://www.w3.org/2000/svg" fill-opacity="0" stroke="black" stroke-width="3" ><path d="M121 38 140 41 142 42 177 62 191 74 199 86 201 98 211 168 211 186 209 190 201 204 194 214 187 221 175 228 173 229 170 229 42 203 40 201 32 189 31 187 30 181 30 178 55 71 57 68 62 63 89 47 111 38 121 38 "/><path d="M249 77 249 192 248 192 246 191 236 181 232 176 220 134 215 112 216 107 220 94 225 87 228 84 236 78 248 77 249 77 "/><path d="M109 0 111 6 111 20 109 26 107 29 106 30 100 34 91 38 84 40 76 39 72 38 68 35 65 32 63 29 60 24 59 22 58 18 58 16 59 7 62 0 109 0 "/><path d="M233 226 242 230 244 231 245 232 249 239 249 249 190 249 194 241 200 235 208 229 211 227 216 226 233 226 "/><path d="M89 218 94 219 94 221 90 234 76 249 42 249 40 244 40 242 75 219 87 218 89 218 "/></svg>