<svg width="256" height="256" xmlns="http://www.w3.org/2000/svg" fill-opacity="0" stroke="black" stroke-width="3" ><path d="M72 52 123 61 129 63 133 65 146 76 172 100 175 107 181 125 181 137 179 151 175 162 168 176 161 187 155 196 145 202 122 208 121 208 97 206 90 204 81 198 74 191 69 185 64 178 59 167 48 138 50 110 52 96 60 64 68 53 69 52 72 52 "/><path d="M242 141 249 142 249 249 174 249 167 233 167 230 213 154 216 150 221 145 227 143 241 141 242 141 "/><path d="M187 0 190 3 195 10 197 14 199 21 199 25 198 28 194 39 193 41 187 47 181 50 172 52 171 52 162 51 156 49 151 47 144 41 142 38 137 29 136 21 136 17 137 12 141 4 144 0 187 0 "/><path d="M235 54 244 57 249 59 249 103 243 109 234 112 222 112 212 110 208 107 201 100 197 92 196 88 195 79 195 77 200 67 204 62 205 61 211 57 213 56 223 54 235 54 "/><path d="M109 0 105 12 93 35 92 36 69 45 52 36 40 21 39 19 35 7 35 4 36 0 109 0 "/><path d="M28 77 33 79 41 83 45 87 47 91 48 97 48 102 44 113 42 117 39 122 36 126 31 129 21 132 19 132 12 131 8 130 0 125 0 83 9 79 15 77 28 77 "/></svg>