<svg width="256" height="256" xmlns="http://www.w3.org/2000/svg" fill-opacity="0" stroke="black" stroke-width="3" ><path d="M202 25 208 34 220 67 220 108 218 129 214 150 210 161 208 165 204 172 189 189 188 190 179 196 174 199 164 204 158 206 106 219 20 227 4 227 0 224 0 76 1 75 42 56 172 20 182 18 202 25 "/><path d="M249 0 249 67 248 67 243 65 240 63 229 52 228 50 227 47 224 33 222 20 222 5 225 0 249 0 "/><path d="M171 233 176 234 182 236 190 240 203 248 204 249 123 249 129 242 132 239 135 237 147 234 153 233 171 233 "/></svg>