<svg width="256" height="256" xmlns="http://www.w3.org/2000/svg" fill-opacity="0" stroke="black" stroke-width="3" ><path d="M157 39 186 47 189 49 194 54 207 68 211 74 219 87 221 91 226 117 226 118 225 131 223 150 216 169 209 177 183 198 179 201 171 206 151 214 141 216 121 216 101 212 86 206 84 205 77 200 59 186 46 173 40 164 36 155 34 150 32 142 30 118 30 114 32 104 36 86 38 81 46 62 47 60 52 52 60 44 65 40 69 37 76 34 88 29 96 27 157 39 "/><path d="M4 3 7 5 9 7 14 13 15 15 17 20 19 34 19 43 18 50 17 53 15 57 13 60 9 65 3 71 0 71 0 3 4 3 "/><path d="M98 229 147 234 149 236 154 243 154 249 127 249 94 240 93 238 93 233 94 230 96 229 98 229 "/></svg>