<svg width="256" height="256" xmlns="http://www.w3.org/2000/svg" fill-opacity="0" stroke="black" stroke-width="3" ><path d="M125 59 136 61 158 68 162 70 168 74 176 82 182 90 187 97 194 109 196 115 198 123 197 128 196 131 195 133 192 137 138 194 137 195 130 201 126 203 120 205 105 205 96 203 92 202 86 199 71 187 67 183 59 171 57 167 49 143 48 138 48 127 51 110 56 100 58 97 61 93 73 78 77 74 100 62 103 61 107 60 116 59 125 59 "/><path d="M213 170 221 172 230 178 240 189 241 194 241 198 232 243 230 248 229 249 191 249 175 226 173 223 169 205 169 204 171 196 176 187 179 182 181 180 190 174 192 173 211 170 213 170 "/><path d="M31 194 34 195 36 196 41 200 44 203 48 208 51 216 52 219 52 224 48 232 45 237 42 240 37 244 31 246 14 249 0 249 0 206 3 200 5 199 16 196 25 194 31 194 "/></svg>