<svg width="256" height="256" xmlns="http://www.w3.org/2000/svg" fill-opacity="0" stroke="black" stroke-width="3" ><path d="M120 58 138 60 145 61 151 62 153 63 180 90 184 97 194 115 196 119 196 124 192 143 184 167 179 177 176 181 172 185 167 189 157 195 153 197 148 198 105 206 78 198 75 196 71 191 69 187 65 178 60 148 58 133 57 116 57 107 58 103 63 90 65 85 66 83 71 77 82 65 83 64 91 60 97 58 120 58 "/><path d="M226 55 229 56 238 61 241 63 244 66 246 69 246 101 242 107 237 112 228 112 224 109 219 104 208 91 206 88 205 86 202 79 202 76 203 72 205 68 209 63 217 56 221 55 226 55 "/><path d="M249 249 223 249 219 234 217 222 219 219 222 216 249 193 249 249 "/></svg>