<svg width="256" height="256" xmlns="http://www.w3.org/2000/svg" fill-opacity="0" stroke="black" stroke-width="3" ><path d="M106 19 117 22 141 44 149 62 157 121 157 134 155 141 145 146 106 152 99 152 84 144 74 137 65 130 64 129 55 115 44 96 43 77 43 67 46 60 47 58 49 55 62 37 81 27 83 26 104 19 106 19 "/><path d="M249 0 249 42 248 43 244 45 233 45 226 43 210 35 200 26 199 25 188 9 183 0 249 0 "/><path d="M1 10 2 11 18 30 20 39 20 43 16 56 15 58 14 59 8 62 0 63 0 10 1 10 "/><path d="M140 0 145 3 153 8 165 16 170 20 173 23 168 30 167 31 166 31 154 28 152 27 108 3 107 1 107 0 140 0 "/></svg>