<svg width="256" height="256" xmlns="http://www.w3.org/2000/svg" fill-opacity="0" stroke="black" stroke-width="3" ><path d="M135 3 146 6 154 11 160 15 237 68 249 93 249 156 244 171 243 172 122 185 108 186 104 186 92 183 89 182 72 174 63 168 55 162 44 148 32 128 28 111 27 102 26 79 26 78 27 72 28 69 34 55 35 53 41 44 54 28 58 24 66 18 69 16 76 12 82 9 97 3 135 3 "/><path d="M249 175 249 249 214 249 211 246 210 244 210 243 227 208 235 194 248 175 249 175 "/><path d="M39 231 53 233 61 235 69 241 69 245 66 249 8 249 9 247 15 241 23 235 33 231 39 231 "/></svg>