<svg width="256" height="256" xmlns="http://www.w3.org/2000/svg" fill-opacity="0" stroke="black" stroke-width="3" ><path d="M203 121 201 140 200 147 193 169 191 173 189 176 183 184 182 185 173 192 171 193 158 197 153 198 151 198 43 150 42 149 40 139 40 104 42 93 47 86 53 78 62 68 64 66 70 62 80 58 95 53 107 51 111 51 121 52 127 53 142 56 172 68 180 72 183 74 187 77 188 78 192 83 193 85 201 107 202 110 203 114 203 121 "/><path d="M233 0 246 1 249 13 249 37 242 43 220 60 218 61 215 62 211 63 206 64 200 63 161 52 155 50 136 43 126 38 119 28 117 24 110 8 107 1 107 0 233 0 "/><path d="M51 0 52 9 52 10 49 18 38 43 22 60 13 65 11 66 3 69 0 69 0 3 2 0 51 0 "/><path d="M70 210 78 214 81 216 82 217 84 220 84 223 73 249 8 249 8 248 11 240 14 236 20 229 26 224 56 210 70 210 "/><path d="M156 224 158 226 163 234 168 244 168 249 128 249 121 245 117 234 117 232 121 228 136 223 145 222 156 224 "/><path d="M2 162 6 165 25 184 25 186 15 218 6 235 2 239 0 240 0 162 2 162 "/><path d="M52 159 54 160 89 181 81 205 80 206 79 206 64 197 52 174 47 163 51 159 52 159 "/></svg>