<svg width="256" height="256" xmlns="http://www.w3.org/2000/svg" fill-opacity="0" stroke="black" stroke-width="3" ><path d="M142 66 146 67 162 72 180 84 188 91 196 103 196 111 193 123 189 134 185 144 181 152 166 175 153 189 151 191 125 204 121 204 104 203 98 200 94 197 81 184 69 166 66 157 66 156 69 135 72 124 74 119 77 113 80 108 87 98 99 83 102 80 117 70 126 66 142 66 "/><path d="M248 0 249 1 249 10 247 30 245 34 236 50 224 69 199 72 189 69 187 68 162 55 147 38 140 27 139 24 137 13 137 0 248 0 "/><path d="M249 144 249 249 243 249 236 245 192 198 190 195 203 158 205 156 208 154 237 143 242 142 249 144 "/><path d="M118 226 125 228 142 244 146 249 85 249 85 248 98 229 99 228 116 226 118 226 "/></svg>