<svg width="256" height="256" xmlns="http://www.w3.org/2000/svg" fill-opacity="0" stroke="black" stroke-width="3" ><path d="M129 13 144 16 150 18 163 26 167 29 168 30 190 54 199 65 207 77 236 122 242 133 243 135 244 154 244 156 243 165 241 172 239 177 235 186 234 188 231 193 225 202 213 214 209 217 192 226 176 233 168 236 161 238 156 239 143 240 114 240 98 238 72 230 64 227 52 222 50 221 44 216 38 210 35 205 28 193 26 189 24 184 20 172 17 162 16 158 14 134 14 122 15 111 16 104 18 99 19 97 30 76 38 65 47 54 55 46 80 27 113 16 121 14 128 13 129 13 "/><path d="M249 0 249 98 241 87 226 66 200 28 196 21 194 17 191 5 191 0 249 0 "/><path d="M68 0 70 1 71 4 71 5 56 27 50 34 23 58 16 60 15 60 0 58 0 0 68 0 "/></svg>