<svg width="256" height="256" xmlns="http://www.w3.org/2000/svg" fill-opacity="0" stroke="black" stroke-width="3" ><path d="M114 38 124 39 147 43 175 51 187 55 201 60 206 64 214 73 217 77 218 79 217 80 145 117 41 157 35 130 35 107 37 100 39 94 45 82 54 73 61 67 67 63 106 39 111 38 114 38 "/><path d="M237 213 242 215 249 218 249 249 210 249 209 248 209 232 213 225 217 219 219 217 231 214 236 213 237 213 "/><path d="M234 124 234 133 233 146 232 152 227 168 222 178 212 193 208 197 207 197 194 170 195 165 204 152 229 124 233 122 234 124 "/><path d="M249 0 249 38 243 38 235 34 231 30 224 21 223 19 221 8 221 0 249 0 "/><path d="M168 121 174 126 178 158 178 160 174 163 149 180 140 179 138 177 137 164 137 160 139 146 143 126 147 125 167 121 168 121 "/></svg>