<svg width="256" height="256" xmlns="http://www.w3.org/2000/svg" fill-opacity="0" stroke="black" stroke-width="3" ><path d="M135 61 150 65 167 71 184 87 191 97 192 103 191 151 189 157 177 178 175 181 171 183 137 195 111 195 101 193 97 192 79 180 65 164 59 153 55 134 55 130 57 124 64 107 78 92 81 89 88 83 100 73 107 69 132 61 135 61 "/><path d="M219 145 249 167 249 207 246 249 150 249 150 247 156 226 207 151 211 146 213 145 217 144 219 145 "/><path d="M63 199 61 210 60 210 56 208 50 202 41 192 38 188 32 179 30 173 24 154 24 151 26 112 30 105 38 98 40 97 41 98 63 198 63 199 "/></svg>