<svg width="256" height="256" xmlns="http://www.w3.org/2000/svg" fill-opacity="0" stroke="black" stroke-width="3" ><path d="M146 33 155 35 160 37 175 45 178 47 195 64 202 73 210 89 210 91 203 145 195 170 194 172 190 178 185 184 184 185 179 189 175 192 162 200 156 202 151 203 135 205 123 204 101 198 94 196 91 195 87 193 76 186 73 184 71 182 62 172 53 154 51 146 49 136 49 120 50 110 54 98 55 96 87 48 92 43 99 40 112 35 119 33 146 33 "/><path d="M249 153 249 206 247 209 241 215 230 206 229 205 227 193 227 177 237 159 238 158 248 153 249 153 "/></svg>