<svg width="256" height="256" xmlns="http://www.w3.org/2000/svg" fill-opacity="0" stroke="black" stroke-width="3" ><path d="M92 21 93 29 37 125 35 124 34 123 32 117 31 113 29 104 26 89 26 87 30 71 38 59 44 51 59 35 60 34 64 31 67 29 72 26 74 25 89 21 92 21 "/><path d="M207 225 216 227 233 236 238 241 238 249 205 249 177 247 171 243 170 242 170 240 171 235 172 234 179 228 182 227 200 225 207 225 "/><path d="M178 159 186 170 186 174 171 185 167 187 148 194 144 194 143 193 138 185 136 181 140 175 142 173 177 159 178 159 "/><path d="M73 77 77 80 78 81 81 87 83 97 83 106 82 116 81 117 73 123 70 123 59 104 56 98 56 96 57 92 71 77 73 77 "/></svg>