<svg width="256" height="256" xmlns="http://www.w3.org/2000/svg" fill-opacity="0" stroke="black" stroke-width="3" ><path d="M113 33 125 35 128 36 148 45 162 52 165 54 172 60 175 65 177 69 199 131 199 136 198 149 194 161 191 167 185 176 171 190 141 207 128 211 125 211 114 209 107 207 85 199 79 196 75 193 69 187 58 173 53 166 51 163 50 160 39 122 39 101 41 91 45 78 48 72 53 63 56 58 63 51 75 41 79 38 83 36 101 33 113 33 "/><path d="M214 0 212 4 193 19 187 22 182 23 163 26 159 25 151 18 148 15 145 2 148 0 214 0 "/><path d="M249 166 246 168 243 169 241 169 237 165 234 159 230 150 230 149 232 138 243 100 244 98 246 95 249 92 249 166 "/></svg>