<svg width="256" height="256" xmlns="http://www.w3.org/2000/svg" fill-opacity="0" stroke="black" stroke-width="3" ><path d="M138 20 165 24 173 27 176 29 185 40 249 148 249 189 219 205 218 205 109 189 106 188 87 177 85 175 69 158 59 144 56 139 55 135 54 130 53 124 53 122 61 66 67 57 74 50 94 31 96 30 118 23 129 20 138 20 "/><path d="M59 193 72 196 78 199 81 201 83 204 84 206 89 217 92 235 92 239 90 245 88 249 7 249 6 248 5 242 6 232 7 225 12 216 16 210 23 203 33 196 35 195 54 192 59 193 "/></svg>