<svg width="256" height="256" xmlns="http://www.w3.org/2000/svg" fill-opacity="0" stroke="black" stroke-width="3" ><path d="M149 9 157 11 164 13 176 19 179 21 184 25 192 33 199 43 202 49 234 121 236 141 236 142 235 152 234 155 232 160 226 172 222 179 217 185 200 204 164 226 151 226 140 223 137 222 57 183 55 182 45 172 39 162 37 158 33 141 33 136 42 62 45 55 49 46 50 44 53 39 55 37 61 33 71 29 130 9 149 9 "/><path d="M79 214 96 223 99 225 111 234 112 235 114 238 116 243 117 246 116 249 48 249 48 245 49 239 51 232 58 222 66 217 68 216 73 214 79 214 "/><path d="M249 79 249 165 247 160 246 155 238 113 234 88 234 85 235 83 241 80 245 79 249 79 "/></svg>