<svg width="256" height="256" xmlns="http://www.w3.org/2000/svg" fill-opacity="0" stroke="black" stroke-width="3" ><path d="M140 34 156 36 159 37 166 40 178 48 181 51 195 66 198 70 202 76 211 92 212 94 216 105 219 120 220 129 220 134 217 154 216 158 214 164 211 169 206 177 204 180 180 204 173 210 168 213 161 217 144 221 131 222 114 223 99 223 95 221 88 217 82 213 78 210 67 199 63 194 59 188 50 171 35 141 34 138 32 130 31 125 31 108 35 94 39 86 42 81 51 71 68 56 78 48 85 43 95 38 103 36 129 34 140 34 "/><path d="M1 158 3 159 23 172 30 179 36 186 40 194 47 212 58 243 59 246 59 249 0 249 0 158 1 158 "/></svg>