<svg width="256" height="256" xmlns="http://www.w3.org/2000/svg" fill-opacity="0" stroke="black" stroke-width="3" ><path d="M137 59 164 63 169 64 178 67 186 72 187 73 198 93 199 95 203 105 208 122 208 124 204 145 202 153 198 161 195 166 191 171 188 174 182 179 175 184 169 188 165 190 160 191 140 193 127 190 110 184 103 180 81 164 63 145 60 141 58 138 57 136 53 127 51 121 51 113 54 98 55 97 78 77 90 69 102 63 107 61 119 59 137 59 "/><path d="M194 203 215 208 218 209 225 213 228 216 231 220 234 229 237 240 239 248 239 249 125 249 116 220 111 202 111 201 194 203 "/><path d="M8 108 19 110 31 114 32 115 34 120 36 126 42 151 42 157 40 170 39 171 21 188 12 192 5 193 0 192 0 108 8 108 "/><path d="M106 0 102 4 71 20 22 20 10 17 7 16 0 13 0 0 106 0 "/></svg>