<svg width="256" height="256" xmlns="http://www.w3.org/2000/svg" fill-opacity="0" stroke="black" stroke-width="3" ><path d="M123 3 139 7 145 9 149 11 178 29 186 35 195 42 204 51 212 60 217 68 220 73 222 79 223 84 224 116 224 121 223 124 200 168 199 169 193 174 190 176 96 217 93 218 82 218 72 216 64 212 53 206 44 200 30 188 24 180 14 162 10 152 9 149 4 131 4 121 6 116 8 113 36 79 48 67 97 19 107 10 116 4 118 3 123 3 "/><path d="M46 0 50 2 63 10 65 13 64 21 63 24 53 45 52 47 31 71 19 84 17 86 16 86 10 84 3 77 0 71 0 0 46 0 "/><path d="M249 0 249 44 248 45 226 21 222 0 249 0 "/></svg>