<svg width="256" height="256" xmlns="http://www.w3.org/2000/svg" fill-opacity="0" stroke="black" stroke-width="3" ><path d="M120 50 150 64 153 66 154 67 178 93 181 97 186 104 191 114 194 121 195 124 195 128 192 162 162 181 150 187 144 188 135 188 126 185 104 176 95 172 80 140 77 132 77 114 79 101 81 90 84 80 115 50 120 50 "/><path d="M244 98 249 101 249 188 240 202 238 204 236 204 235 203 211 176 203 166 200 160 199 154 199 149 201 133 202 130 206 119 209 113 211 110 214 106 215 105 223 98 226 96 232 93 244 98 "/></svg>