<svg width="256" height="256" xmlns="http://www.w3.org/2000/svg" fill-opacity="0" stroke="black" stroke-width="3" ><path d="M151 34 159 36 170 39 183 43 190 46 192 47 200 52 208 59 211 62 217 70 228 86 232 99 235 119 235 134 234 141 233 146 227 159 217 174 208 185 206 187 199 193 190 199 181 204 173 207 167 209 153 213 147 214 122 214 109 212 91 205 87 203 72 193 65 188 57 181 50 171 39 155 32 137 31 131 31 121 33 97 36 90 37 88 42 79 50 69 55 65 63 59 85 44 90 41 94 39 97 38 101 37 108 36 140 34 151 34 "/></svg>