<svg width="256" height="256" xmlns="http://www.w3.org/2000/svg" fill-opacity="0" stroke="black" stroke-width="3" ><path d="M164 0 212 67 219 87 220 90 226 118 226 141 223 150 219 160 215 168 209 177 206 181 201 187 192 196 183 202 171 209 169 210 157 214 153 215 148 216 137 216 121 214 101 209 98 208 79 197 64 185 61 182 54 173 51 169 49 166 45 158 42 151 40 146 37 134 37 132 38 116 69 0 164 0 "/><path d="M20 0 31 3 35 7 44 21 47 26 48 29 48 32 47 37 46 41 45 43 41 50 37 56 33 60 28 64 11 64 9 63 0 57 0 0 20 0 "/></svg>