<svg width="256" height="256" xmlns="http://www.w3.org/2000/svg" fill-opacity="0" stroke="black" stroke-width="3" ><path d="M141 46 156 51 165 55 174 60 189 73 191 75 198 84 200 87 202 91 208 112 208 140 206 153 189 187 185 192 180 196 174 200 164 206 156 210 137 214 117 218 101 218 99 217 85 208 75 201 63 192 48 175 42 143 42 131 45 103 46 101 55 84 59 78 64 72 77 59 80 57 85 54 89 52 104 47 137 46 141 46 "/><path d="M38 205 41 206 46 208 50 210 60 219 66 226 68 230 68 239 66 244 64 248 63 249 13 249 11 247 10 245 8 240 7 226 7 220 9 216 11 214 21 207 23 206 26 205 38 205 "/><path d="M101 0 101 13 100 20 98 24 96 27 95 28 87 34 84 36 77 39 71 41 64 41 57 40 52 38 51 37 49 33 46 22 46 3 47 0 101 0 "/><path d="M35 0 35 1 33 6 23 23 20 27 17 30 12 33 0 37 0 0 35 0 "/></svg>