<svg width="256" height="256" xmlns="http://www.w3.org/2000/svg" fill-opacity="0" stroke="black" stroke-width="3" ><path d="M144 3 162 10 177 17 186 23 191 27 205 43 209 49 216 63 218 69 220 76 222 84 222 109 221 111 212 127 206 137 204 140 195 150 193 152 188 156 178 162 169 166 153 172 148 173 136 175 134 175 121 174 113 173 106 172 81 161 79 160 71 154 65 148 53 133 49 127 44 110 42 103 42 98 43 87 45 71 46 64 49 54 55 38 59 28 60 26 69 17 72 15 87 7 95 3 144 3 "/><path d="M224 173 224 204 217 216 214 219 212 219 202 216 199 214 195 210 193 207 192 205 192 197 195 193 203 185 221 170 224 173 "/></svg>