<svg width="256" height="256" xmlns="http://www.w3.org/2000/svg" fill-opacity="0" stroke="black" stroke-width="3" ><path d="M107 54 118 55 125 56 130 57 142 61 148 64 157 72 160 75 180 100 189 115 190 118 193 133 193 170 190 186 187 197 186 199 182 204 159 224 149 224 130 220 121 218 86 190 74 178 71 174 70 172 50 93 50 89 54 79 56 75 65 67 68 65 79 59 85 57 96 54 107 54 "/><path d="M228 0 233 12 235 17 235 21 234 26 232 35 229 42 219 52 210 59 200 65 192 65 185 64 179 62 171 58 168 56 158 46 157 44 155 39 154 36 154 29 163 11 168 4 174 0 228 0 "/><path d="M249 45 249 132 248 133 232 133 228 132 224 130 219 127 214 123 213 122 209 116 208 114 204 100 204 77 205 73 206 71 232 51 238 47 242 45 249 45 "/><path d="M249 142 249 249 239 249 233 246 232 245 228 239 222 216 222 210 224 198 227 183 232 166 238 154 246 144 248 142 249 142 "/><path d="M147 0 146 2 144 5 138 12 136 13 125 16 120 17 110 18 82 18 72 15 65 12 55 6 51 0 147 0 "/></svg>