<svg width="256" height="256" xmlns="http://www.w3.org/2000/svg" fill-opacity="0" stroke="black" stroke-width="3" ><path d="M151 29 159 31 169 34 178 37 184 41 189 45 203 58 211 67 220 80 223 88 224 92 227 111 227 115 226 130 225 140 224 143 222 148 214 164 209 171 200 181 199 182 195 185 192 187 187 190 175 197 166 200 162 201 146 201 112 198 103 195 87 187 81 183 71 174 68 171 59 161 53 152 46 138 38 119 37 116 31 97 31 92 33 86 44 60 46 56 47 55 67 37 78 33 83 32 109 30 135 29 151 29 "/><path d="M45 169 57 171 63 177 67 183 86 226 87 231 87 245 85 249 29 249 23 247 22 246 21 244 15 200 15 195 16 190 20 179 23 173 37 169 45 169 "/><path d="M136 0 128 15 126 18 125 19 118 24 116 25 103 28 84 28 81 27 78 25 75 19 73 11 73 10 84 0 136 0 "/></svg>