<svg width="256" height="256" xmlns="http://www.w3.org/2000/svg" fill-opacity="0" stroke="black" stroke-width="3" ><path d="M113 30 170 32 175 33 179 34 186 36 191 41 201 53 211 72 214 114 214 116 213 122 211 132 204 150 201 156 188 169 173 183 159 190 122 195 121 195 111 194 106 193 99 191 83 184 79 182 74 179 72 177 64 166 60 158 52 137 51 134 51 116 53 105 54 100 58 84 64 72 73 60 85 46 108 30 113 30 "/><path d="M249 155 249 249 202 249 201 248 194 237 194 235 196 205 199 196 203 185 204 183 210 176 223 161 233 158 248 154 249 155 "/><path d="M123 0 97 18 84 25 56 39 47 42 44 42 0 30 0 0 123 0 "/><path d="M1 65 17 76 28 110 31 124 31 148 21 166 18 169 9 175 5 177 0 177 0 65 1 65 "/></svg>