<svg width="256" height="256" xmlns="http://www.w3.org/2000/svg" fill-opacity="0" stroke="black" stroke-width="3" ><path d="M94 32 129 34 134 35 152 43 199 83 207 91 211 97 213 104 214 109 214 111 213 117 203 144 197 158 181 183 173 193 165 197 154 201 129 207 128 207 124 206 105 201 84 193 68 185 56 173 55 171 46 143 43 130 43 117 44 92 45 69 46 67 52 58 58 53 87 34 91 32 94 32 "/><path d="M249 0 249 51 242 50 197 41 189 39 182 35 178 31 176 28 175 18 175 10 176 4 180 0 249 0 "/><path d="M4 89 7 91 16 98 19 101 22 107 25 114 24 140 23 143 20 149 13 157 9 160 5 162 2 163 0 163 0 87 4 89 "/><path d="M193 233 196 234 217 243 230 249 133 249 136 246 146 237 148 236 172 233 193 233 "/><path d="M249 128 242 217 241 217 231 209 230 207 227 168 227 149 229 137 236 118 239 112 245 104 249 100 249 128 "/></svg>