<svg width="256" height="256" xmlns="http://www.w3.org/2000/svg" fill-opacity="0" stroke="black" stroke-width="3" ><path d="M107 30 139 35 143 36 149 38 155 41 160 44 163 46 175 58 180 65 187 80 188 84 188 88 185 153 183 159 179 167 171 177 167 181 161 185 151 191 147 193 135 197 127 199 115 200 104 199 88 195 82 193 70 187 62 182 52 174 51 173 39 159 34 151 30 142 28 136 26 122 26 89 28 80 32 70 36 62 41 54 50 44 52 42 55 40 64 36 74 33 78 32 99 30 107 30 "/><path d="M232 89 242 93 245 95 249 100 249 183 240 184 231 184 224 180 223 179 213 168 209 163 208 161 202 142 202 129 203 116 205 105 208 94 210 90 215 85 232 89 "/></svg>