<svg width="256" height="256" xmlns="http://www.w3.org/2000/svg" fill-opacity="0" stroke="black" stroke-width="3" ><path d="M223 20 230 21 249 25 249 218 244 219 234 220 227 220 210 218 205 217 177 204 175 203 171 200 167 196 157 185 149 174 141 160 135 139 134 125 134 117 135 113 137 106 139 102 154 75 160 65 177 43 181 38 184 35 191 29 194 27 202 23 209 21 217 20 223 20 "/><path d="M147 0 156 21 158 26 159 37 156 45 154 48 134 77 126 87 117 96 112 100 108 102 99 104 98 104 92 103 81 100 78 99 76 98 62 90 60 88 57 84 47 69 46 66 41 46 40 39 40 25 42 15 56 0 147 0 "/><path d="M4 89 8 91 15 97 18 101 20 104 21 106 25 120 25 121 24 130 14 140 7 145 1 146 0 146 0 89 4 89 "/></svg>