<svg width="256" height="256" xmlns="http://www.w3.org/2000/svg" fill-opacity="0" stroke="black" stroke-width="3" ><path d="M57 44 130 55 133 56 141 61 142 62 172 100 177 131 177 134 167 206 164 208 160 209 131 214 121 215 115 215 104 214 90 212 42 202 27 188 14 170 14 169 19 121 22 103 34 60 45 44 57 44 "/><path d="M166 0 165 8 163 9 140 15 122 19 67 20 56 20 42 15 41 14 37 4 37 0 166 0 "/><path d="M4 168 6 169 14 175 20 181 21 183 23 188 24 192 24 197 19 206 15 213 12 216 9 218 1 220 0 220 0 168 4 168 "/><path d="M187 73 189 76 203 100 205 109 207 122 208 129 208 140 207 146 205 152 198 166 196 169 195 169 193 168 184 161 182 76 186 73 187 73 "/><path d="M3 41 15 56 25 84 25 89 3 112 0 115 0 41 3 41 "/></svg>