<svg width="256" height="256" xmlns="http://www.w3.org/2000/svg" fill-opacity="0" stroke="black" stroke-width="3" ><path d="M170 36 172 38 217 84 230 108 232 122 232 130 228 146 226 152 225 154 220 163 215 171 212 175 200 187 190 195 186 198 167 209 127 227 120 229 110 231 95 232 86 232 76 230 53 225 51 224 44 220 39 217 18 203 15 199 13 196 8 186 5 177 5 176 12 141 17 130 19 126 29 108 61 68 77 50 84 43 93 38 99 36 116 32 148 28 170 36 "/><path d="M196 222 207 226 210 228 212 230 222 244 223 246 224 249 110 249 110 248 111 246 112 245 114 244 119 242 163 227 166 226 185 222 196 222 "/><path d="M23 0 26 3 39 29 40 45 40 48 34 53 4 65 0 65 0 0 23 0 "/><path d="M192 0 196 4 196 6 195 9 192 13 181 15 171 16 123 16 112 13 112 0 192 0 "/></svg>