<svg width="256" height="256" xmlns="http://www.w3.org/2000/svg" fill-opacity="0" stroke="black" stroke-width="3" ><path d="M176 48 191 111 194 129 195 137 195 140 193 151 192 153 190 155 175 168 159 181 144 188 118 193 117 193 98 190 87 181 79 174 59 141 55 133 51 120 51 116 69 97 71 95 107 76 132 64 175 48 176 48 "/><path d="M134 0 134 1 132 17 128 34 124 42 99 71 51 92 24 92 14 90 8 86 5 82 3 73 3 71 17 0 134 0 "/><path d="M10 125 36 139 37 142 47 184 47 196 44 209 32 231 30 234 21 240 5 245 3 245 0 244 0 126 1 125 10 125 "/></svg>