<svg width="256" height="256" xmlns="http://www.w3.org/2000/svg" fill-opacity="0" stroke="black" stroke-width="3" ><path d="M122 41 156 45 178 62 187 69 189 76 205 147 205 150 204 154 189 176 180 186 162 194 152 196 136 199 128 200 116 201 108 201 104 200 95 196 75 187 73 184 69 177 43 113 43 98 45 82 52 68 54 66 70 52 72 51 78 49 96 45 120 41 122 41 "/><path d="M249 31 249 140 243 140 225 131 212 111 209 97 206 81 206 79 211 69 223 46 232 36 233 35 235 34 243 31 249 31 "/><path d="M243 198 249 199 249 249 173 249 173 247 176 238 179 234 188 225 195 219 206 210 221 201 240 198 243 198 "/></svg>