<svg width="256" height="256" xmlns="http://www.w3.org/2000/svg" fill-opacity="0" stroke="black" stroke-width="3" ><path d="M130 0 140 3 154 15 170 31 179 41 186 50 190 56 200 72 203 78 206 85 208 90 213 105 214 113 214 141 213 149 212 155 210 164 208 171 207 174 202 184 197 192 195 195 190 202 183 210 178 215 168 223 161 227 137 239 132 241 98 245 89 245 70 243 67 242 59 238 0 201 0 129 27 38 31 27 33 24 37 19 46 10 50 7 55 4 58 3 81 0 130 0 "/><path d="M14 220 16 221 17 222 22 229 30 241 33 248 33 249 0 249 0 220 3 216 14 220 "/></svg>