<svg width="256" height="256" xmlns="http://www.w3.org/2000/svg" fill-opacity="0" stroke="black" stroke-width="3" ><path d="M122 53 178 67 182 69 183 70 195 84 199 93 201 100 204 112 205 123 205 127 204 133 203 136 197 152 195 155 172 178 165 184 160 188 156 190 142 196 108 198 107 198 76 190 70 185 56 172 55 171 51 163 44 148 39 137 39 136 40 133 51 109 54 103 66 84 68 81 82 67 87 63 90 61 101 56 121 53 122 53 "/><path d="M204 199 208 200 221 205 223 206 231 213 235 217 240 224 244 230 249 240 249 249 191 249 189 248 186 244 184 218 184 210 185 208 194 200 198 199 204 199 "/></svg>