<svg width="256" height="256" xmlns="http://www.w3.org/2000/svg" fill-opacity="0" stroke="black" stroke-width="3" ><path d="M137 47 149 50 156 52 164 56 167 58 183 69 192 80 198 89 202 98 204 105 206 115 206 132 204 143 202 149 198 160 195 165 193 168 188 175 178 185 169 191 163 194 146 202 139 203 131 204 115 204 107 202 95 198 77 188 71 183 63 175 52 158 49 150 47 142 45 132 45 115 47 108 51 96 54 90 59 81 64 75 79 60 86 55 89 53 98 50 107 48 125 47 137 47 "/><path d="M53 0 58 26 58 45 55 47 54 47 38 38 37 37 35 21 35 19 45 0 53 0 "/><path d="M39 0 38 11 32 18 31 19 6 28 3 28 0 25 0 12 3 0 39 0 "/></svg>