<svg width="256" height="256" xmlns="http://www.w3.org/2000/svg" fill-opacity="0" stroke="black" stroke-width="3" ><path d="M126 48 140 49 149 50 179 68 192 77 196 81 200 86 203 90 207 97 210 103 210 112 209 115 206 121 162 173 152 183 147 187 121 205 119 206 111 208 105 209 95 210 91 210 86 208 84 207 77 200 51 166 50 163 49 159 49 152 51 134 52 129 61 103 67 95 69 93 93 71 115 54 122 49 125 48 126 48 "/><path d="M226 37 238 40 240 41 249 47 249 64 247 68 244 72 236 80 232 83 230 84 227 85 225 85 220 84 219 83 194 54 194 51 195 47 196 46 198 45 222 37 226 37 "/><path d="M191 0 195 3 195 8 193 14 190 17 157 46 151 47 131 36 127 29 127 27 141 0 191 0 "/></svg>