<svg width="256" height="256" xmlns="http://www.w3.org/2000/svg" fill-opacity="0" stroke="black" stroke-width="3" ><path d="M116 31 164 55 177 65 188 76 199 91 200 93 204 103 205 112 205 116 204 174 202 180 198 186 192 193 178 207 172 212 164 217 159 220 149 224 133 226 119 227 112 227 102 225 98 224 89 220 76 212 68 204 60 194 46 168 45 164 42 147 41 138 41 102 44 73 53 57 64 45 68 41 73 37 80 33 83 32 110 30 116 31 "/><path d="M111 0 102 9 97 12 92 14 88 15 82 16 68 18 62 18 58 17 55 16 32 8 28 6 21 2 20 0 111 0 "/></svg>