<svg width="256" height="256" xmlns="http://www.w3.org/2000/svg" fill-opacity="0" stroke="black" stroke-width="3" ><path d="M249 0 249 157 185 194 159 198 94 204 68 192 55 181 27 122 22 111 22 109 24 92 25 85 26 81 28 74 35 62 83 0 249 0 "/><path d="M2 119 11 122 13 123 22 132 23 134 28 145 28 148 27 161 26 163 7 188 0 195 0 119 2 119 "/><path d="M14 32 16 33 18 35 19 37 21 47 24 64 14 78 12 80 10 80 0 75 0 50 3 43 6 37 10 33 12 32 14 32 "/><path d="M54 0 55 3 56 19 56 21 46 29 41 31 40 31 38 29 21 1 21 0 54 0 "/></svg>