<svg width="256" height="256" xmlns="http://www.w3.org/2000/svg" fill-opacity="0" stroke="black" stroke-width="3" ><path d="M125 31 133 32 139 34 150 38 165 48 178 60 194 76 199 82 206 91 210 99 215 112 216 120 216 129 215 133 213 137 209 143 179 187 176 191 170 196 168 197 143 209 102 206 93 205 81 202 73 198 70 196 63 189 60 183 57 100 57 97 58 92 60 87 61 85 65 78 114 33 118 31 125 31 "/><path d="M234 156 249 157 249 249 234 249 222 241 203 225 199 220 197 216 195 211 194 208 194 194 196 184 203 168 205 165 212 158 231 156 234 156 "/><path d="M162 222 196 233 201 235 209 239 213 243 213 244 211 246 198 249 139 249 138 246 137 242 136 235 136 232 138 229 140 228 158 222 162 222 "/></svg>