<svg width="256" height="256" xmlns="http://www.w3.org/2000/svg" fill-opacity="0" stroke="black" stroke-width="3" ><path d="M145 33 151 34 156 36 160 38 167 42 170 44 175 48 177 50 193 72 201 86 204 92 213 117 214 120 215 124 215 135 213 144 204 164 201 170 195 178 192 181 189 183 185 185 172 190 164 193 152 196 107 205 85 207 82 207 80 205 50 165 50 164 56 80 58 73 59 70 61 67 70 58 87 48 99 43 102 42 139 34 144 33 145 33 "/><path d="M4 115 28 130 31 137 32 143 32 145 27 157 24 161 22 163 16 166 10 167 3 167 0 164 0 116 3 115 4 115 "/><path d="M92 0 90 4 87 8 74 21 66 27 63 29 53 34 36 37 23 39 0 39 0 25 86 0 92 0 "/></svg>