<svg width="256" height="256" xmlns="http://www.w3.org/2000/svg" fill-opacity="0" stroke="black" stroke-width="3" ><path d="M158 48 160 49 213 81 214 84 215 88 216 99 215 104 211 112 167 199 165 202 161 206 75 232 74 232 69 230 62 226 58 223 52 217 48 212 44 204 43 200 45 187 68 69 71 62 72 60 76 53 78 50 90 38 94 35 106 29 113 27 158 48 "/><path d="M249 139 249 227 245 231 237 234 232 235 231 235 223 233 212 229 200 217 190 199 190 188 192 182 196 174 200 167 205 161 207 159 239 141 247 139 249 139 "/><path d="M3 70 7 73 20 99 27 144 27 145 25 170 23 173 22 174 20 175 15 176 6 177 0 177 0 68 3 70 "/></svg>