<svg width="256" height="256" xmlns="http://www.w3.org/2000/svg" fill-opacity="0" stroke="black" stroke-width="3" ><path d="M232 50 239 58 249 71 249 160 179 193 145 201 138 201 122 196 103 190 94 187 90 185 76 177 74 175 63 159 61 156 52 141 52 111 54 104 57 94 71 76 86 63 93 58 101 53 121 49 128 48 136 47 228 46 232 50 "/><path d="M218 210 224 213 229 216 232 218 237 224 241 231 242 240 242 249 172 249 172 247 173 242 174 239 176 235 188 220 189 219 201 211 217 210 218 210 "/><path d="M107 216 112 217 116 218 118 219 119 220 143 249 61 249 65 242 71 236 77 232 100 217 106 216 107 216 "/></svg>