<svg width="256" height="256" xmlns="http://www.w3.org/2000/svg" fill-opacity="0" stroke="black" stroke-width="3" ><path d="M216 0 193 59 187 74 185 78 177 93 175 96 168 98 161 99 158 99 154 98 150 96 42 37 41 36 40 34 37 22 36 16 36 7 37 5 38 4 53 0 216 0 "/><path d="M27 65 51 76 56 79 82 97 94 115 95 117 98 148 98 157 95 177 94 178 90 181 70 194 48 195 47 195 18 186 16 185 0 168 0 77 10 70 25 65 27 65 "/><path d="M205 158 210 160 224 169 225 170 229 179 233 232 233 238 231 247 230 249 185 249 158 195 158 187 165 174 168 169 175 162 184 159 204 158 205 158 "/></svg>