<svg width="256" height="256" xmlns="http://www.w3.org/2000/svg" fill-opacity="0" stroke="black" stroke-width="3" ><path d="M146 46 159 51 186 64 193 71 200 84 212 107 212 131 209 139 153 183 150 185 130 197 116 200 111 201 95 202 89 202 70 195 66 193 65 192 46 168 44 165 43 163 42 160 41 129 41 126 43 116 44 112 47 102 52 87 58 73 69 62 77 55 81 52 87 48 93 46 146 46 "/><path d="M249 104 249 181 242 184 239 182 217 149 214 140 214 136 216 128 218 123 219 121 223 116 228 111 232 108 239 105 242 104 249 104 "/><path d="M163 202 176 210 178 213 180 217 182 222 184 228 182 234 180 239 174 245 172 246 147 246 143 245 141 244 136 240 133 230 133 226 134 220 137 213 139 210 140 209 143 207 151 202 163 202 "/><path d="M228 220 237 223 247 227 249 228 249 249 182 249 181 245 184 238 185 237 212 225 224 220 228 220 "/></svg>