<svg width="256" height="256" xmlns="http://www.w3.org/2000/svg" fill-opacity="0" stroke="black" stroke-width="3" ><path d="M81 55 86 56 95 58 103 61 116 67 122 70 124 72 132 84 135 89 149 120 151 127 154 149 154 154 152 171 144 187 140 193 129 208 127 210 121 213 106 219 103 220 98 221 90 222 80 223 77 223 68 222 63 221 55 218 39 210 25 201 19 195 7 177 4 172 0 163 0 137 3 100 6 92 7 90 12 83 20 74 25 69 35 64 54 56 66 55 81 55 "/><path d="M202 0 236 4 245 7 249 11 249 118 246 127 236 131 230 132 229 132 208 130 169 111 167 109 165 106 149 75 147 69 144 57 144 52 145 47 147 38 153 24 155 20 157 17 165 9 179 1 182 0 202 0 "/></svg>