<svg width="256" height="256" xmlns="http://www.w3.org/2000/svg" fill-opacity="0" stroke="black" stroke-width="3" ><path d="M121 41 211 94 214 98 218 113 220 126 220 138 219 145 218 147 194 185 187 192 184 194 177 197 171 199 65 226 58 226 55 225 35 207 34 206 29 112 30 104 53 56 54 55 56 54 66 51 119 41 121 41 "/><path d="M248 0 249 7 249 85 248 85 211 68 154 12 152 10 151 8 149 3 149 2 151 0 248 0 "/><path d="M249 142 249 230 248 230 232 224 215 217 199 209 198 208 197 206 197 195 211 173 231 144 236 142 249 142 "/><path d="M43 0 52 6 53 8 51 23 49 25 0 42 0 0 43 0 "/><path d="M197 223 200 224 212 232 222 246 222 249 163 249 163 247 164 233 169 228 172 226 178 225 191 223 197 223 "/></svg>