<svg width="256" height="256" xmlns="http://www.w3.org/2000/svg" fill-opacity="0" stroke="black" stroke-width="3" ><path d="M144 39 153 40 159 41 163 42 205 56 209 60 215 68 216 70 227 121 227 126 221 180 215 195 213 199 209 206 207 209 200 219 191 228 181 237 176 240 165 246 148 249 53 249 38 175 36 163 34 139 34 120 36 111 42 91 43 89 84 53 87 51 102 44 108 42 114 41 123 40 143 39 144 39 "/><path d="M249 124 249 186 248 186 246 185 238 179 237 178 232 172 229 168 227 164 227 155 228 146 229 142 230 140 235 134 240 129 246 125 248 124 249 124 "/></svg>