<svg width="256" height="256" xmlns="http://www.w3.org/2000/svg" fill-opacity="0" stroke="black" stroke-width="3" ><path d="M131 49 138 51 141 52 153 57 157 60 166 67 178 78 184 84 197 107 203 119 204 122 205 127 206 138 206 141 203 150 195 168 194 170 188 179 177 190 174 192 164 198 160 199 113 204 112 204 98 203 94 202 84 199 78 196 72 192 65 186 50 171 44 162 43 160 38 144 36 127 36 126 37 116 38 109 40 103 42 98 48 86 52 80 59 73 65 68 71 64 80 59 87 56 96 53 114 49 120 48 131 49 "/><path d="M17 181 34 188 40 196 56 220 57 223 60 243 56 249 40 249 33 244 22 231 20 228 0 196 0 176 1 175 17 181 "/><path d="M241 190 249 193 249 249 212 249 211 247 207 238 207 231 208 228 224 204 233 193 235 191 237 190 241 190 "/><path d="M49 0 54 5 60 24 65 44 65 50 64 52 60 57 55 61 52 63 49 64 46 64 27 53 10 0 49 0 "/><path d="M139 222 147 223 159 227 182 240 185 244 184 248 182 249 100 249 100 247 102 244 112 230 113 229 119 225 134 222 139 222 "/><path d="M215 0 218 3 227 17 233 29 233 30 231 36 226 44 224 47 218 48 208 49 193 38 191 34 190 29 190 22 194 14 206 3 208 2 214 0 215 0 "/></svg>