<svg width="256" height="256" xmlns="http://www.w3.org/2000/svg" fill-opacity="0" stroke="black" stroke-width="3" ><path d="M4 9 26 17 134 57 136 58 171 80 176 84 184 92 186 95 188 99 189 105 193 130 193 132 188 158 187 161 184 166 181 169 174 175 171 177 128 203 126 204 117 204 102 203 85 197 83 196 75 191 0 130 0 8 4 9 "/><path d="M203 187 222 190 238 197 244 200 249 205 249 221 248 228 244 242 243 244 242 245 166 249 121 249 125 230 127 222 129 218 152 205 187 188 190 187 203 187 "/><path d="M243 84 248 87 249 88 249 167 248 167 242 166 231 164 224 159 217 152 206 132 206 130 207 126 211 115 213 110 214 108 223 97 224 96 235 87 238 85 240 84 243 84 "/></svg>