<svg width="256" height="256" xmlns="http://www.w3.org/2000/svg" fill-opacity="0" stroke="black" stroke-width="3" ><path d="M152 21 163 24 171 27 175 29 180 32 189 39 195 44 202 51 206 56 215 69 217 73 221 83 223 91 225 102 226 112 226 118 225 124 219 142 216 150 211 162 209 166 204 173 203 174 195 181 150 213 148 214 145 215 133 217 129 217 71 184 67 181 50 163 42 154 40 151 38 147 32 132 30 125 29 109 29 105 30 97 32 89 34 84 38 75 41 69 44 65 52 55 61 45 64 42 68 39 81 32 94 27 118 21 152 21 "/><path d="M53 218 64 220 65 221 76 233 77 235 77 242 76 247 75 249 6 249 6 234 12 229 23 220 30 218 53 218 "/></svg>