<svg width="256" height="256" xmlns="http://www.w3.org/2000/svg" fill-opacity="0" stroke="black" stroke-width="3" ><path d="M249 0 249 72 246 72 116 30 114 29 113 28 99 9 98 7 98 6 104 0 249 0 "/><path d="M54 0 59 4 61 8 63 27 63 29 62 34 59 39 46 60 34 74 31 76 24 77 22 77 10 74 8 73 5 71 0 61 0 0 54 0 "/><path d="M19 155 21 156 23 158 46 183 53 198 54 202 54 203 51 211 37 242 34 245 28 249 0 249 0 154 12 153 19 155 "/><path d="M135 83 137 84 154 145 155 158 145 188 127 204 122 205 120 204 79 170 74 160 69 148 69 147 77 111 78 109 89 91 91 89 130 83 135 83 "/><path d="M230 210 247 214 249 233 249 249 181 249 181 248 182 245 196 222 210 210 212 209 217 207 230 210 "/><path d="M100 234 113 236 115 237 120 240 127 247 128 249 74 249 85 238 88 236 90 235 93 234 100 234 "/></svg>