<svg width="256" height="256" xmlns="http://www.w3.org/2000/svg" fill-opacity="0" stroke="black" stroke-width="3" ><path d="M113 40 116 41 148 54 159 59 163 61 172 67 179 74 189 91 190 94 192 102 194 111 195 141 195 146 194 155 170 187 113 195 108 195 91 193 84 191 72 185 64 180 53 169 47 160 43 150 104 43 109 41 112 40 113 40 "/><path d="M202 162 205 163 207 164 220 175 230 188 232 191 233 205 233 206 231 214 224 227 220 233 214 240 211 242 203 244 194 245 190 245 179 237 178 236 177 234 174 227 172 222 172 204 173 198 176 186 177 184 181 177 186 170 189 166 190 165 195 162 202 162 "/><path d="M137 198 141 199 144 200 149 203 152 206 155 211 158 221 158 225 157 230 156 232 153 237 144 246 118 246 113 243 110 240 108 237 107 235 104 225 104 219 106 215 110 208 116 202 122 200 130 198 137 198 "/><path d="M249 167 240 161 219 139 216 126 216 123 217 119 243 95 245 94 249 93 249 167 "/><path d="M242 0 242 1 241 2 224 15 215 20 212 21 208 21 202 20 200 19 191 11 187 6 187 0 242 0 "/></svg>