<svg width="256" height="256" xmlns="http://www.w3.org/2000/svg" fill-opacity="0" stroke="black" stroke-width="3" ><path d="M122 21 148 22 158 26 182 45 185 48 188 52 196 63 198 66 204 77 209 88 210 93 211 105 212 123 212 130 207 146 204 155 200 162 197 167 185 179 171 190 158 199 147 206 135 210 117 212 112 212 93 209 89 208 84 206 68 199 59 192 50 184 48 182 38 168 37 164 29 125 28 120 33 102 37 90 44 75 54 55 56 53 75 35 101 25 118 21 122 21 "/><path d="M199 207 207 209 210 210 220 216 226 220 234 228 239 235 240 237 243 249 148 249 148 247 159 234 161 232 180 214 182 213 195 207 199 207 "/><path d="M249 117 249 224 248 224 243 222 241 221 235 216 229 210 226 205 222 198 221 196 220 193 219 179 224 160 225 157 227 153 247 117 249 117 "/><path d="M249 7 249 79 248 78 219 40 218 35 218 26 220 23 223 19 228 13 230 11 235 8 243 7 249 7 "/></svg>