<svg width="256" height="256" xmlns="http://www.w3.org/2000/svg" fill-opacity="0" stroke="black" stroke-width="3" ><path d="M141 51 149 53 154 55 175 66 178 68 179 69 199 91 202 95 209 105 213 113 219 138 219 155 217 165 215 170 209 183 208 185 203 192 199 195 186 204 182 206 177 208 170 210 160 211 65 217 62 217 56 215 49 207 44 199 40 184 40 183 45 139 54 95 56 88 57 86 59 83 66 74 71 70 76 67 85 63 105 55 112 53 125 51 141 51 "/><path d="M112 220 130 221 141 223 156 229 160 231 168 238 171 241 172 243 165 249 45 249 49 245 58 237 61 235 77 227 83 225 98 221 108 220 112 220 "/></svg>