<svg width="256" height="256" xmlns="http://www.w3.org/2000/svg" fill-opacity="0" stroke="black" stroke-width="3" ><path d="M115 50 170 63 172 64 189 77 197 97 200 115 200 128 198 143 179 171 164 184 160 186 156 187 146 188 135 189 131 189 118 188 102 186 96 185 90 182 80 173 51 143 42 81 42 80 44 72 47 70 52 68 106 51 112 50 115 50 "/><path d="M1 149 10 151 23 155 29 158 32 160 38 165 45 173 48 177 57 192 60 198 62 203 62 210 61 220 58 229 54 240 51 245 48 249 0 249 0 149 1 149 "/><path d="M129 212 144 217 155 224 164 249 81 249 81 248 82 245 88 230 96 218 97 217 101 215 112 212 129 212 "/><path d="M249 249 247 249 238 246 222 228 220 225 219 223 219 222 224 179 233 157 249 143 249 249 "/></svg>