<svg width="256" height="256" xmlns="http://www.w3.org/2000/svg" fill-opacity="0" stroke="black" stroke-width="3" ><path d="M130 11 139 13 146 15 151 17 201 49 216 63 222 69 227 75 229 78 230 80 231 83 233 91 233 130 229 145 225 156 223 160 213 174 207 181 203 184 197 188 192 191 183 196 181 197 174 200 164 204 160 205 151 207 146 208 129 208 107 203 97 200 87 192 74 179 65 168 57 158 44 139 42 136 36 118 35 113 34 100 34 92 36 80 37 76 38 73 40 68 42 64 48 54 52 48 57 42 61 38 76 27 79 25 98 16 106 13 120 11 130 11 "/><path d="M249 0 249 45 248 46 233 47 227 46 220 42 216 39 201 26 199 24 192 13 189 6 189 0 249 0 "/></svg>