<svg width="256" height="256" xmlns="http://www.w3.org/2000/svg" fill-opacity="0" stroke="black" stroke-width="3" ><path d="M118 42 141 50 149 53 200 76 205 86 207 92 208 106 206 117 189 162 145 191 141 193 125 197 113 199 94 201 92 201 83 200 77 199 66 193 63 191 56 185 55 184 48 176 45 170 30 137 29 130 28 122 28 92 29 89 34 80 39 73 43 69 52 63 54 62 106 42 110 41 118 42 "/><path d="M241 168 249 172 249 189 218 249 149 249 148 248 148 242 154 214 156 209 157 207 158 206 195 172 207 169 213 168 241 168 "/><path d="M78 0 78 3 77 7 56 33 53 36 49 38 42 39 39 39 33 37 31 36 29 34 28 32 24 21 23 7 28 0 78 0 "/><path d="M82 229 95 230 113 245 113 249 35 249 34 247 40 239 43 236 45 235 61 230 66 229 82 229 "/><path d="M249 52 249 118 246 116 241 112 240 111 236 94 235 88 235 86 236 70 238 61 239 59 241 56 242 55 248 52 249 52 "/></svg>