<svg width="256" height="256" xmlns="http://www.w3.org/2000/svg" fill-opacity="0" stroke="black" stroke-width="3" ><path d="M125 82 148 92 236 132 237 133 249 185 249 201 248 206 128 233 114 231 99 226 91 221 83 213 73 199 69 189 66 168 65 159 65 157 67 150 71 141 94 94 95 92 97 90 103 86 111 82 119 81 125 82 "/><path d="M45 11 51 13 62 20 70 27 71 29 66 74 63 85 39 121 8 160 7 161 4 163 2 164 0 163 0 87 17 26 18 24 20 21 28 15 40 10 45 11 "/><path d="M165 0 173 21 173 22 172 24 163 39 159 45 148 56 116 70 112 71 109 71 100 69 91 64 84 57 67 11 70 0 165 0 "/><path d="M41 208 45 209 48 211 54 217 55 219 60 230 60 232 59 236 56 242 52 249 18 249 14 245 14 244 15 238 22 223 35 210 38 208 41 208 "/></svg>