<svg width="256" height="256" xmlns="http://www.w3.org/2000/svg" fill-opacity="0" stroke="black" stroke-width="3" ><path d="M106 72 113 74 131 83 134 86 145 98 149 104 155 116 161 130 162 133 165 144 167 152 167 173 161 194 156 208 153 214 151 217 141 229 139 231 136 233 123 241 119 243 114 245 110 246 58 246 54 245 41 236 38 233 35 229 34 227 22 202 21 199 18 181 14 148 12 124 12 121 14 110 21 96 29 87 30 86 49 75 59 72 106 72 "/><path d="M208 47 215 48 220 51 228 57 229 59 237 84 235 95 226 113 202 119 195 119 181 117 170 111 165 107 163 105 159 100 158 98 156 93 153 81 153 79 154 73 155 70 156 68 160 64 172 58 199 48 205 47 208 47 "/><path d="M197 0 198 5 197 13 193 20 190 23 178 31 169 36 167 37 156 42 150 41 149 40 143 33 135 21 133 16 132 13 130 3 130 0 197 0 "/></svg>