<svg width="256" height="256" xmlns="http://www.w3.org/2000/svg" fill-opacity="0" stroke="black" stroke-width="3" ><path d="M118 69 135 70 145 73 148 74 224 105 236 114 240 118 249 129 249 187 246 199 235 214 223 226 184 249 78 249 74 244 68 235 65 229 63 217 63 205 72 99 78 91 82 87 88 82 92 79 104 71 115 69 118 69 "/><path d="M184 0 192 3 193 4 208 27 210 32 208 47 207 49 201 59 198 63 191 70 181 75 173 77 172 77 168 76 142 67 140 66 137 64 133 61 132 60 127 53 118 38 117 35 117 29 120 20 124 12 126 9 127 8 138 0 184 0 "/></svg>