<svg width="256" height="256" xmlns="http://www.w3.org/2000/svg" fill-opacity="0" stroke="black" stroke-width="3" ><path d="M123 34 136 35 147 38 156 41 164 45 182 57 184 59 190 66 193 70 197 76 200 81 204 88 206 92 208 99 210 107 211 118 211 129 210 140 208 147 204 158 200 167 197 173 188 188 183 193 163 209 157 213 151 216 137 219 123 220 117 220 107 219 100 218 93 216 82 212 77 209 65 201 61 198 56 194 48 186 43 180 41 177 37 170 35 166 31 156 30 152 28 143 27 138 26 132 26 131 27 112 28 104 29 99 31 92 32 89 37 79 43 70 47 65 53 59 61 52 65 49 72 45 80 41 86 39 95 37 105 35 113 34 123 34 "/></svg>