<svg width="256" height="256" xmlns="http://www.w3.org/2000/svg" fill-opacity="0" stroke="black" stroke-width="3" ><path d="M107 34 125 37 171 50 190 60 198 68 200 72 215 150 215 163 214 167 212 173 211 175 194 191 186 198 182 200 108 235 97 237 92 237 88 236 79 233 77 232 73 228 9 118 8 111 8 106 9 102 13 93 14 91 24 78 35 67 49 54 55 50 75 38 83 34 92 33 107 34 "/><path d="M248 28 249 29 249 168 245 169 241 169 236 166 235 165 221 130 219 121 216 90 216 80 220 70 227 53 232 41 245 26 248 28 "/><path d="M237 185 243 186 249 190 249 249 218 249 211 242 210 225 210 212 211 207 215 198 217 194 220 191 226 188 234 185 237 185 "/><path d="M174 224 180 228 190 236 191 237 191 249 118 249 149 228 151 227 163 223 170 222 174 224 "/></svg>