<svg width="256" height="256" xmlns="http://www.w3.org/2000/svg" fill-opacity="0" stroke="black" stroke-width="3" ><path d="M69 22 143 50 157 56 159 57 174 65 198 94 216 127 217 131 218 137 218 139 208 166 204 175 202 179 199 184 195 187 102 199 73 192 63 186 58 182 55 178 53 173 52 169 49 121 49 120 54 48 55 37 56 33 61 23 65 21 69 22 "/><path d="M21 59 31 63 35 65 38 67 40 72 44 86 44 87 43 111 42 114 39 122 38 124 35 127 29 132 26 134 24 135 17 135 13 134 11 133 9 131 7 127 6 122 5 114 3 66 3 63 18 59 21 59 "/></svg>