<svg width="256" height="256" xmlns="http://www.w3.org/2000/svg" fill-opacity="0" stroke="black" stroke-width="3" ><path d="M155 49 158 50 162 52 177 63 183 69 187 74 188 76 194 89 198 102 199 107 200 113 200 127 198 140 197 144 196 146 194 149 191 153 181 163 152 187 135 195 132 196 127 197 119 197 95 191 83 187 68 177 59 169 53 163 48 153 43 140 43 132 45 122 47 113 48 110 54 98 56 95 67 82 78 71 84 66 99 54 115 46 128 45 155 49 "/><path d="M249 69 249 152 248 153 245 155 239 156 232 156 227 155 224 154 218 151 216 147 215 144 207 77 207 76 208 74 209 73 214 72 246 69 249 69 "/></svg>