<svg width="256" height="256" xmlns="http://www.w3.org/2000/svg" fill-opacity="0" stroke="black" stroke-width="3" ><path d="M97 51 163 57 168 60 172 64 191 85 195 91 201 103 203 111 203 125 195 157 171 176 151 186 138 188 122 188 98 186 88 184 77 173 52 141 45 128 44 126 42 120 42 117 46 105 52 95 56 89 68 72 83 59 89 55 96 51 97 51 "/><path d="M33 157 35 158 47 165 55 170 61 177 65 185 66 189 66 200 65 203 61 210 53 221 50 224 47 226 37 232 33 234 30 235 23 235 18 234 9 231 0 222 0 159 27 157 33 157 "/><path d="M190 203 204 205 213 212 216 215 221 224 223 228 223 235 222 243 220 249 157 249 155 245 155 238 156 233 158 227 168 208 170 207 185 203 190 203 "/><path d="M239 153 246 155 249 157 249 202 246 205 241 206 240 206 234 204 226 201 220 198 214 194 206 186 206 178 211 170 214 166 216 164 225 156 228 155 238 153 239 153 "/></svg>