<svg width="256" height="256" xmlns="http://www.w3.org/2000/svg" fill-opacity="0" stroke="black" stroke-width="3" ><path d="M136 39 142 40 189 49 192 50 198 53 211 66 223 93 225 103 225 107 223 119 222 123 220 129 217 136 211 147 205 154 197 163 190 168 183 172 172 177 167 179 163 180 152 181 133 181 120 179 110 176 96 171 86 166 78 161 74 158 65 147 64 145 59 126 59 112 60 106 68 90 78 73 92 57 99 50 105 46 112 43 120 40 130 39 136 39 "/><path d="M104 231 108 232 111 233 114 235 131 249 50 249 50 248 51 247 69 236 91 231 97 230 104 231 "/></svg>