<svg width="256" height="256" xmlns="http://www.w3.org/2000/svg" fill-opacity="0" stroke="black" stroke-width="3" ><path d="M150 54 160 56 170 60 180 66 187 72 195 82 208 102 211 108 215 131 215 147 209 159 205 166 187 186 185 188 163 201 159 203 154 204 135 207 129 207 118 206 108 204 95 199 86 194 79 190 74 187 62 176 57 171 52 165 45 154 44 152 40 142 39 139 37 132 36 123 36 120 38 110 43 91 45 86 46 84 48 82 70 66 85 60 88 59 92 58 97 57 120 54 150 54 "/><path d="M178 0 178 2 176 6 171 13 161 23 148 33 144 35 139 37 124 41 120 42 101 44 98 44 85 43 82 42 54 32 52 31 40 21 24 5 21 0 178 0 "/></svg>