<svg width="256" height="256" xmlns="http://www.w3.org/2000/svg" fill-opacity="0" stroke="black" stroke-width="3" ><path d="M133 27 164 37 169 39 182 49 208 71 212 75 215 80 219 87 229 117 230 122 229 131 228 138 225 154 223 160 221 165 218 171 211 182 204 192 199 198 181 210 171 216 157 221 151 222 142 223 128 223 122 222 117 220 109 216 106 214 101 210 93 202 85 191 70 170 44 132 40 126 39 124 38 121 35 109 35 100 36 89 40 77 44 69 54 55 66 43 82 35 94 31 103 29 109 28 126 27 133 27 "/><path d="M1 127 7 130 11 133 34 158 43 169 51 181 80 226 86 237 87 239 87 249 0 249 0 127 1 127 "/><path d="M249 190 249 249 227 249 228 239 230 228 232 222 236 211 246 192 248 190 249 190 "/></svg>