<svg width="256" height="256" xmlns="http://www.w3.org/2000/svg" fill-opacity="0" stroke="black" stroke-width="3" ><path d="M129 52 140 53 148 55 163 61 167 63 179 71 188 79 192 83 196 89 202 102 206 114 208 125 206 143 205 145 188 178 185 182 176 192 172 196 169 198 158 205 148 210 136 214 130 215 121 216 117 216 107 214 101 212 92 208 89 206 81 200 77 196 57 171 55 168 51 161 47 153 43 137 43 126 45 115 50 101 51 99 53 96 70 79 86 67 89 65 110 55 114 54 124 52 129 52 "/><path d="M95 0 97 3 103 22 103 24 102 32 100 36 96 41 94 43 84 50 74 55 69 56 57 58 56 58 51 57 36 53 29 51 22 45 16 39 7 24 6 11 6 0 95 0 "/><path d="M14 191 23 194 27 196 35 204 36 242 35 249 2 249 0 246 0 189 14 191 "/><path d="M209 237 231 240 241 243 243 245 241 249 173 249 174 246 182 243 197 238 202 237 209 237 "/></svg>