<svg width="256" height="256" xmlns="http://www.w3.org/2000/svg" fill-opacity="0" stroke="black" stroke-width="3" ><path d="M149 29 179 39 183 41 201 53 213 65 215 68 223 85 225 90 226 93 227 97 227 106 226 116 223 124 200 177 184 196 181 199 173 203 161 208 150 211 146 212 121 212 107 210 103 209 100 208 92 204 77 194 68 186 67 185 59 174 55 168 46 144 43 128 42 122 42 110 46 95 48 88 58 71 64 63 69 58 78 50 83 46 95 39 105 34 120 31 147 29 149 29 "/><path d="M249 232 246 233 238 231 231 228 228 225 222 218 215 208 214 189 214 183 216 170 220 162 232 142 235 139 240 135 244 133 249 132 249 232 "/><path d="M198 0 200 4 200 6 199 9 198 11 196 14 195 15 192 17 190 18 184 20 180 20 174 19 169 18 161 16 151 13 148 12 145 10 139 4 137 0 198 0 "/></svg>