<svg width="256" height="256" xmlns="http://www.w3.org/2000/svg" fill-opacity="0" stroke="black" stroke-width="3" ><path d="M112 37 136 38 151 39 160 42 162 43 183 54 186 56 190 59 196 65 201 71 205 77 217 101 218 104 218 116 204 180 203 184 159 218 157 219 153 219 58 173 56 171 52 166 50 163 48 158 44 147 41 133 41 114 42 105 43 100 44 96 46 90 67 45 69 42 72 40 74 39 109 37 112 37 "/><path d="M107 216 117 221 123 225 131 233 135 240 136 242 136 245 135 248 133 249 78 249 78 246 79 242 83 233 89 221 92 218 96 216 107 216 "/><path d="M44 224 48 227 53 232 56 237 61 248 61 249 13 249 14 246 16 242 21 234 24 230 25 229 37 220 44 224 "/></svg>