<svg width="256" height="256" xmlns="http://www.w3.org/2000/svg" fill-opacity="0" stroke="black" stroke-width="3" ><path d="M126 29 141 30 160 37 174 43 176 44 196 61 203 68 210 77 212 80 217 89 249 153 249 249 185 249 104 225 92 219 75 208 69 203 53 187 43 170 38 157 35 139 34 130 34 113 35 108 38 94 39 91 45 76 49 67 51 63 65 48 68 45 77 39 82 36 97 30 122 29 126 29 "/><path d="M249 0 249 74 235 77 230 78 227 78 226 77 191 19 188 2 188 0 249 0 "/><path d="M21 200 35 204 37 206 42 212 47 225 55 246 56 249 0 249 0 205 8 202 18 200 21 200 "/></svg>