<svg width="256" height="256" xmlns="http://www.w3.org/2000/svg" fill-opacity="0" stroke="black" stroke-width="3" ><path d="M118 47 159 49 162 51 184 76 198 104 199 126 199 130 196 161 171 192 150 200 120 209 93 209 55 201 53 200 32 186 30 184 28 177 28 173 37 130 48 85 50 82 84 62 94 57 117 47 118 47 "/><path d="M221 210 231 212 249 224 249 249 154 249 154 245 168 230 169 229 203 214 220 210 221 210 "/><path d="M245 122 249 124 249 192 242 192 234 191 228 189 228 152 234 133 238 124 243 122 245 122 "/></svg>