<svg width="256" height="256" xmlns="http://www.w3.org/2000/svg" fill-opacity="0" stroke="black" stroke-width="3" ><path d="M132 62 143 65 154 71 162 77 177 95 192 129 196 140 196 144 187 163 181 167 173 170 150 176 114 185 108 186 105 186 96 183 83 177 82 176 68 160 64 152 63 149 61 139 63 127 73 101 81 81 89 73 93 70 106 64 113 62 132 62 "/><path d="M205 0 241 3 246 4 248 5 249 6 249 93 247 97 245 99 241 102 236 105 234 106 231 107 224 107 208 106 204 105 147 60 145 56 141 47 139 39 141 27 144 22 153 8 160 0 205 0 "/><path d="M55 32 59 36 65 44 69 52 70 56 70 60 67 75 56 95 54 98 41 111 37 113 26 113 8 109 5 107 3 105 0 97 0 72 35 38 38 36 45 32 55 32 "/></svg>