<svg width="256" height="256" xmlns="http://www.w3.org/2000/svg" fill-opacity="0" stroke="black" stroke-width="3" ><path d="M159 83 175 85 188 94 194 99 202 111 206 119 208 125 210 143 210 144 207 157 203 172 202 175 194 191 186 204 180 212 170 222 166 225 164 226 150 232 144 234 130 234 115 232 109 229 105 226 83 204 81 201 77 194 75 190 73 182 69 159 73 136 75 132 79 125 95 103 97 101 149 84 156 83 159 83 "/><path d="M248 125 249 126 249 249 224 249 215 246 209 240 202 229 201 227 200 223 199 218 199 209 200 205 217 154 221 147 228 138 231 135 239 128 243 125 248 125 "/><path d="M127 0 146 42 147 48 147 51 144 58 140 62 137 63 130 64 125 64 87 61 82 60 74 58 53 44 47 38 36 21 35 19 35 15 44 3 48 0 127 0 "/><path d="M241 27 242 29 249 54 249 75 246 81 245 82 240 85 231 85 217 84 213 83 210 82 200 77 196 74 189 66 186 61 185 58 185 57 186 53 187 50 193 40 197 36 202 32 240 26 241 27 "/></svg>