<svg width="256" height="256" xmlns="http://www.w3.org/2000/svg" fill-opacity="0" stroke="black" stroke-width="3" ><path d="M156 63 160 65 167 70 171 74 174 79 179 88 180 90 181 100 182 114 182 140 179 181 177 185 175 187 149 210 145 212 140 213 138 213 127 212 119 211 114 210 107 208 93 203 86 200 70 182 63 174 58 164 55 149 55 113 57 105 70 91 72 89 90 72 98 68 111 63 132 62 156 63 "/><path d="M249 23 249 203 242 211 241 211 219 204 216 203 200 186 198 183 194 172 193 168 189 149 184 115 181 62 181 60 193 44 217 32 243 23 249 23 "/><path d="M141 0 140 6 137 14 126 35 121 40 116 44 106 50 89 60 70 64 67 64 48 63 39 58 32 54 26 50 17 38 11 19 11 3 13 0 141 0 "/><path d="M9 223 27 235 30 240 33 246 33 249 0 249 0 223 9 223 "/></svg>