<svg width="256" height="256" xmlns="http://www.w3.org/2000/svg" fill-opacity="0" stroke="black" stroke-width="3" ><path d="M157 74 165 76 169 78 181 86 187 92 195 102 199 118 199 121 197 132 183 171 153 192 130 195 115 195 97 191 87 187 86 186 80 179 75 170 74 167 72 158 71 148 69 120 69 115 74 98 78 94 85 88 88 86 104 80 107 79 111 78 123 76 139 74 157 74 "/><path d="M7 109 37 118 40 119 42 120 45 122 47 124 49 127 49 131 48 148 47 155 43 163 37 169 31 172 15 172 12 171 2 165 1 161 0 152 0 111 1 110 4 109 7 109 "/><path d="M147 207 157 208 165 212 169 216 172 228 173 236 173 244 172 249 119 249 108 215 109 213 110 212 119 207 127 206 147 207 "/><path d="M46 179 52 183 63 194 65 198 64 202 50 217 46 221 35 229 31 231 26 233 23 232 7 225 6 222 3 206 4 204 19 184 20 183 22 182 25 181 41 179 46 179 "/></svg>