<svg width="256" height="256" xmlns="http://www.w3.org/2000/svg" fill-opacity="0" stroke="black" stroke-width="3" ><path d="M124 38 139 39 147 40 160 44 177 50 182 52 190 56 193 58 204 70 216 87 222 105 224 112 225 116 225 121 223 139 222 142 218 152 206 181 202 189 198 195 196 197 186 206 178 213 176 214 148 227 122 227 118 226 111 224 89 217 63 198 56 191 48 182 41 174 37 163 32 127 33 113 34 107 39 86 41 82 44 78 61 62 81 46 88 44 104 40 117 38 124 38 "/><path d="M75 233 76 234 83 248 83 249 0 249 0 238 15 222 16 221 19 219 41 216 75 233 "/><path d="M194 0 192 2 179 14 173 16 161 19 154 20 139 19 136 18 128 15 124 13 115 7 108 0 194 0 "/></svg>