<svg width="256" height="256" xmlns="http://www.w3.org/2000/svg" fill-opacity="0" stroke="black" stroke-width="3" ><path d="M127 50 161 54 171 57 174 58 197 68 199 69 202 72 208 81 213 89 249 157 249 242 243 244 239 245 235 245 123 216 67 193 51 185 49 183 47 176 41 129 41 122 43 108 44 105 45 103 48 98 91 59 103 53 106 52 111 51 124 50 127 50 "/><path d="M249 0 249 60 234 61 225 60 220 59 161 41 154 38 152 36 147 26 147 17 148 10 155 0 249 0 "/><path d="M17 121 20 122 22 124 26 131 35 154 36 157 36 161 35 193 21 225 17 232 16 233 6 233 4 231 0 224 0 147 13 120 17 121 "/></svg>