<svg width="256" height="256" xmlns="http://www.w3.org/2000/svg" fill-opacity="0" stroke="black" stroke-width="3" ><path d="M157 43 167 44 173 46 183 50 187 52 194 57 200 62 203 65 205 68 213 92 213 116 211 124 209 131 205 143 201 151 196 158 190 166 174 185 165 195 163 197 158 200 137 211 131 214 128 215 124 216 109 219 96 219 88 217 60 153 60 125 63 107 82 60 90 56 105 50 120 45 135 44 156 43 157 43 "/><path d="M246 183 247 184 249 187 249 249 188 249 188 247 191 241 195 235 230 192 234 188 238 186 245 183 246 183 "/><path d="M249 0 249 52 238 52 234 51 230 49 226 45 223 41 223 32 224 22 225 20 228 15 238 0 249 0 "/></svg>