<svg width="256" height="256" xmlns="http://www.w3.org/2000/svg" fill-opacity="0" stroke="black" stroke-width="3" ><path d="M148 65 164 67 171 68 175 69 187 74 192 78 195 83 202 98 202 110 201 115 193 136 192 138 182 153 174 162 165 171 157 176 145 183 124 195 116 198 108 199 104 199 92 197 89 196 84 194 76 190 65 184 60 179 52 163 50 158 48 150 47 141 47 134 51 119 52 117 66 94 68 91 69 90 76 85 82 81 84 80 110 70 116 68 133 66 144 65 148 65 "/><path d="M192 194 211 200 231 208 245 219 249 224 249 249 109 249 109 247 112 238 116 233 125 224 150 207 171 196 181 194 188 193 192 194 "/><path d="M249 164 237 153 236 152 234 149 220 127 215 118 214 116 214 115 216 107 222 91 236 82 246 78 249 77 249 164 "/></svg>