<svg width="256" height="256" xmlns="http://www.w3.org/2000/svg" fill-opacity="0" stroke="black" stroke-width="3" ><path d="M105 27 120 30 145 44 159 52 164 57 166 60 172 71 178 87 180 94 181 98 184 112 184 121 182 139 176 155 173 160 166 168 162 172 148 183 58 249 0 249 0 157 28 77 32 69 39 56 43 50 55 38 60 34 64 32 77 28 90 27 105 27 "/><path d="M187 40 191 42 198 46 205 52 206 53 221 75 224 80 225 85 225 88 224 91 213 95 209 95 204 92 200 89 174 58 171 49 171 48 176 42 177 41 179 40 184 39 187 40 "/></svg>